<svg width="33" height="33" viewBox="0 0 33 33" fill="none" xmlns="http://www.w3.org/2000/svg">
<path d="M9.48161 21.3525L0.863281 26.4253L8.91481 18.6172C8.91481 18.6338 8.098 20.6728 9.48161 21.3525Z" fill="#110545"/>
<path d="M12.5653 22.8286L5.91406 24.6024L11.3984 21.8008C11.3984 21.8174 11.3984 22.6462 12.5653 22.8286Z" fill="#110545"/>
<path d="M21.4842 23.1094C17.9502 23.1094 14.4162 23.872 13.566 24.8169C12.7325 25.7618 14.9163 26.5244 18.4503 26.5244C21.9843 26.5244 25.5183 25.7618 26.3685 24.8169C27.202 23.872 25.0182 23.1094 21.4842 23.1094Z" fill="#110545"/>
<path d="M32.3357 14.2083C31.5855 12.8158 30.2519 12.02 29.1517 12.2024L29.0184 12.1527C29.0184 12.1527 28.9684 11.1082 28.0849 10.7104L22.6338 8.15739C22.6338 8.15739 22.4505 8.05793 22.2337 8.02477C22.1337 8.0082 22.0171 8.0082 21.9171 8.04135C21.6837 8.07451 21.3169 8.17397 20.8002 8.42264L18.6497 7.42797C17.7496 6.99694 16.516 7.01352 15.7992 7.70979L13.8822 9.59967C12.7986 10.4783 12.7486 12.1195 12.7486 12.1195V15.4351C12.2152 15.7832 11.6818 16.1811 11.2317 16.6287C9.46466 18.3362 10.6482 18.502 10.8483 18.5351C10.8483 18.5351 11.015 18.5517 11.0316 18.5683C9.2646 20.3587 10.9149 20.4084 10.9149 20.4084L12.7486 19.2314V20.4913C12.8153 21.4694 13.5988 21.6518 13.5988 21.6518L15.5325 22.0828C17.1161 21.6849 19.5166 21.5026 21.9003 21.6683C23.2506 21.7678 24.4008 21.9502 25.251 22.2154C25.251 22.2154 25.4677 22.2652 25.7678 22.3812C26.1011 22.5138 26.3845 22.663 26.5679 22.8122C27.0513 23.1603 27.4347 23.6577 27.2347 24.3539L30.7854 23.8732C32.1023 23.5251 32.0523 22.4641 32.0523 22.4641C32.0523 22.4641 32.069 18.2533 32.069 18.1704C32.9858 17.441 33.1525 15.7335 32.3357 14.2083ZM27.7348 11.4398C28.2016 11.6719 28.2849 12.2853 28.2849 12.5837C28.1349 12.6168 27.9682 12.6666 27.8348 12.7495C27.7348 12.7992 27.4347 12.9981 27.2347 13.2799C27.0847 13.4955 26.7179 13.6778 26.4679 13.5784C26.4679 13.5784 25.5344 13.2136 25.4344 13.1473C25.351 13.0976 25.2343 12.9484 25.201 12.5339C25.201 11.9703 25.0676 11.3901 24.8009 10.8098C24.5675 10.3291 24.2675 9.91464 23.9174 9.56651L27.7348 11.4398ZM20.9502 9.68256C21.9504 9.15207 23.3006 9.71571 23.9674 10.9425C24.6342 12.1692 24.3508 13.5949 23.3506 14.142C22.3505 14.6725 21.0002 14.1088 20.3334 12.8821C19.6666 11.6388 19.95 10.213 20.9502 9.68256ZM14.1989 10.3954L15.8826 8.70446C16.516 8.07451 17.6329 7.87557 18.433 8.25686L20.3 9.06917C20.2334 9.11891 20.1667 9.15206 20.1167 9.21837C19.4666 9.40073 18.5164 10.0141 18.233 10.4783C17.1828 10.1799 16.2826 10.843 16.2826 10.843C16.2826 10.843 15.3824 11.5393 14.6156 12.2024C14.1822 12.5837 13.7821 12.9981 13.4654 13.3297V12.3848C13.4821 12.3682 13.4154 11.2575 14.1989 10.3954ZM31.3355 21.9004C31.3355 21.9004 31.3355 22.2486 31.2021 22.5635C31.1688 22.6299 30.9021 23.094 30.3186 22.8785L18.6164 19.4469C18.6164 19.4469 17.6995 19.2314 17.5829 18.3693C17.5829 18.3528 17.5662 18.2865 17.5662 18.2699C17.5162 18.1207 17.3662 18.0046 17.1995 18.0046C16.9994 18.0046 16.8327 18.1538 16.816 18.3362C16.816 18.3528 16.816 18.3859 16.816 18.4191C16.816 18.5517 16.816 19.1319 16.316 19.4469L14.2989 20.5245C14.2989 20.5245 13.8989 20.7566 13.6321 20.4747C13.5488 20.3587 13.4988 20.1266 13.4988 19.8282V18.7506L16.4993 16.8276V16.0153C16.4993 16.0153 16.516 15.6671 16.2326 15.7501C15.9492 15.8329 15.0824 16.1147 13.4988 16.9105V16.8773L16.4993 14.9377V14.1586C16.4993 14.1586 16.4826 13.7773 16.216 13.8436C16.0826 13.8768 15.8992 13.9265 15.6825 14.0094C15.0824 14.2083 14.3489 14.4735 13.4988 14.9543V14.9211C13.8989 14.5399 14.599 13.8768 15.0324 13.5286C15.7158 12.9815 16.466 12.5174 16.466 12.5174C17.0661 12.1195 17.5662 12.1692 17.9329 12.219C17.8329 13.081 17.7496 14.0094 17.8163 14.2581C17.8996 15.1698 18.6497 15.9656 19.9333 16.2971C21.1002 16.5955 22.4838 16.1313 23.484 15.4517C23.8508 15.203 24.6509 15.0372 24.6509 15.0372C25.3844 14.9211 26.0011 15.2361 26.2679 15.4848C26.2679 15.4848 26.4179 15.6506 26.5346 15.7832C26.6513 15.9324 26.7846 16.1147 26.7846 16.1147C26.7846 16.1147 28.2516 18.5186 29.3684 19.2977C29.6685 19.4966 30.0186 19.6127 30.3853 19.6956C30.8021 19.7785 31.1021 19.7453 31.3355 19.6293V21.9004ZM31.4022 17.4078C30.6187 17.8223 29.4685 17.242 28.8517 16.0816C28.2349 14.9377 28.3682 13.6612 29.1517 13.2302C29.9352 12.8158 31.0855 13.396 31.7022 14.5564C32.319 15.7169 32.1856 16.9934 31.4022 17.4078Z" fill="#110545"/>
</svg>
