<svg width="376" height="271" viewBox="0 0 376 271" fill="none" xmlns="http://www.w3.org/2000/svg">
<path d="M231.764 1.03366C245.388 -1.77131 257.305 3.77225 258.807 7.61237C282.802 -6.09803 310.629 31.7369 292.384 60.844C291.466 59.4248 290.063 55.3469 288.861 54.9462C287.658 54.5455 284.186 56.7828 282.6 57.9516C279.678 56.5324 272.782 52.5921 268.575 48.1843C264.367 43.7765 260.31 28.9836 258.807 22.1382C256.637 24.3087 249.892 30.5531 240.275 38.1665C228.253 47.6834 210.769 50.2852 204.006 57.1537C198.421 33.1607 207.697 5.98841 231.764 1.03366Z" fill="white"/>
<path d="M158.82 190.414C158.82 186.179 172.737 187.465 179.217 189.735C172.169 187.266 157.901 185.936 156.803 181.396C155.874 177.553 167.794 179.323 175.685 180.599C166.67 178.897 163.32 176.403 163.32 173.838C163.32 169.946 192.323 173.711 206.399 182.529C221.897 192.236 280.808 236.436 290.216 196.452L350.818 200.967C351.839 239.459 317.375 270.062 263.62 251.001C237.505 241.741 217.777 218.879 187.871 208.277C174.98 203.708 161.194 200.071 161.194 196.843C161.194 194.314 172.248 194.967 176.719 195.431C170.06 194.468 158.82 193.322 158.82 190.414Z" fill="white"/>
<path d="M315.606 200.796C306.198 240.78 221.897 192.236 206.399 182.528C192.323 173.711 163.32 169.945 163.32 173.838C163.32 176.839 167.908 179.745 180.797 181.396C175.019 180.655 155.627 176.534 156.803 181.396C157.901 185.935 172.169 187.266 179.217 189.735C172.737 187.465 158.82 186.179 158.82 190.414C158.82 193.322 170.06 194.468 176.719 195.431C172.248 194.967 161.194 194.314 161.194 196.843C161.194 200.071 174.98 203.708 187.871 208.277C233.107 224.313 259.485 267.767 312.178 268.974C387.07 270.689 407.871 176.63 293.044 123.924" stroke="#110545" stroke-width="3" stroke-linecap="round" stroke-linejoin="round"/>
<path d="M183.899 117.674C171.758 115.218 133.767 113.016 127.381 122.45L190.974 139.122L258.473 134.766L286.048 120.995C267.741 111.842 275.62 96.9265 281.987 78.5675C284.778 81.49 287.135 79.9741 288.77 77.271C291.678 72.4653 294.408 59.2319 288.77 55.9825C285.125 53.8818 282.537 56.5367 281.699 58.1267L277.991 39.3481C275.368 30.4262 265.633 17.1668 244.191 17.4694C226.01 17.726 213.227 30.7112 211.028 49.9817C208.325 73.6611 214.774 90.9872 213.138 102.427C211.763 112.041 196.44 120.21 183.899 117.674Z" fill="#110545"/>
<path d="M130.173 124.404C164.762 117.878 203.519 129.067 213.138 102.427C217.063 91.5575 208.325 73.661 211.028 49.9815C213.227 30.7111 226.01 17.7259 244.191 17.4693C265.633 17.1666 275.369 30.426 277.991 39.348L281.699 58.1266C282.537 56.5365 285.125 53.8817 288.77 55.9824C294.408 59.2318 291.678 72.4652 288.77 77.2709C287.135 79.974 284.778 81.4898 281.987 78.5674C275.62 96.9264 267.741 111.841 286.048 120.995C287.514 121.728 289.33 122.451 291.388 123.189" stroke="white" stroke-width="3" stroke-linecap="round" stroke-linejoin="round"/>
<path d="M290.839 124.712L284.79 122.6C283.957 122.984 281.313 124.366 277.396 126.825C273.478 129.283 260.849 135.146 255.023 137.771V154.286L290.839 124.712Z" fill="#110545"/>
<path d="M219.411 21.8002C218.463 22.9849 209.064 49.5888 209.064 53.1429C224.502 38.9458 227.672 21.8002 254.688 19.7866C249.238 13.8631 236.992 13.839 234.338 14.2181C231.021 14.692 220.359 20.6155 219.411 21.8002Z" fill="white"/>
<circle cx="256.119" cy="59.625" r="3.41602" fill="white"/>
<path d="M249.122 82.3847C239.685 83.3817 237.468 83.2036 233.451 81.8213C234.3 84.6444 237.051 89.3011 240.472 89.3011C244.964 89.3011 247.421 85.8493 249.122 82.3847Z" fill="white"/>
<circle cx="227.279" cy="57.4277" r="3.41602" fill="white"/>
<path d="M202.582 116.185C204.552 122.81 209.364 136.61 230.975 139.773C248.885 142.394 271.231 129.287 283.228 121.318" stroke="white" stroke-width="3" stroke-linecap="round" stroke-linejoin="round"/>
<path d="M275.437 27.4605C276.198 30.8419 271.88 39.2953 269.626 43.0994C266.05 32.6123 262.097 24.4623 251.979 18.7957V18.373C259.481 19.9933 274.676 24.0791 275.437 27.4605Z" fill="white"/>
<path d="M6.23197 152.651L6.23238 152.651L13.0847 158.872C13.0852 158.872 13.0857 158.873 13.0862 158.873C16.1094 161.605 17.8347 165.488 17.8347 169.563C17.8347 173.638 16.1089 177.523 13.0847 180.254L13.0846 180.254L6.23077 186.443C6.23069 186.443 6.23061 186.443 6.23053 186.443C2.65682 189.678 1.50548 194.812 3.35548 199.263C5.20551 203.714 9.65662 206.52 14.4705 206.269L14.4727 206.268L23.6908 205.801C23.6912 205.801 23.6916 205.801 23.6919 205.801C27.7606 205.592 31.7273 207.117 34.6081 209.998C37.4892 212.879 39.0142 216.846 38.8049 220.915L38.3312 230.126C38.3312 230.127 38.3311 230.128 38.331 230.13C38.1127 234.928 40.9252 239.348 45.3643 241.183C49.8044 243.019 54.9187 241.874 58.152 238.32C58.152 238.32 58.1521 238.32 58.1522 238.32L64.3714 231.469C64.3715 231.469 64.3716 231.468 64.3717 231.468C67.102 228.445 70.9854 226.719 75.0595 226.719C79.1337 226.719 83.0172 228.445 85.7476 231.469L91.9372 238.316C91.9384 238.318 91.9396 238.319 91.9408 238.32C95.1792 241.854 100.282 242.985 104.711 241.15C109.139 239.314 111.946 234.905 111.735 230.116C111.735 230.114 111.735 230.112 111.735 230.111L111.268 220.902C111.268 220.902 111.268 220.901 111.268 220.901C111.059 216.832 112.584 212.865 115.465 209.985C118.345 207.104 122.312 205.579 126.381 205.788L6.23197 152.651ZM6.23197 152.651C2.67007 149.42 1.52034 144.3 3.35866 139.857C5.19682 135.413 9.62672 132.602 14.4298 132.831C14.4302 132.831 14.4306 132.831 14.431 132.831L23.643 133.298C27.72 133.513 31.6962 131.986 34.5816 129.098C37.4659 126.21 38.989 122.235 38.7721 118.16C38.772 118.158 38.7719 118.156 38.7718 118.155L38.3311 108.939C38.1059 104.137 40.9168 99.7101 45.3583 97.8715C49.7994 96.033 54.9164 97.1774 58.1511 100.733C58.1514 100.733 58.1518 100.733 58.1521 100.734L64.3373 107.564C64.3376 107.564 64.338 107.564 64.3384 107.565C67.0666 110.593 70.9509 112.321 75.0265 112.321C79.1015 112.321 82.9852 110.593 85.7133 107.566C85.7141 107.565 85.715 107.565 85.7158 107.564L91.9395 100.735L91.9438 100.73C95.1769 97.1518 100.312 95.995 104.767 97.8411C109.222 99.6871 112.033 104.137 111.788 108.953L111.788 108.953L111.321 118.172L111.32 118.173C111.116 122.233 112.638 126.19 115.511 129.066C118.383 131.943 122.338 133.471 126.398 133.272L126.401 133.272L135.618 132.805C140.431 132.568 144.873 135.382 146.714 139.835C148.555 144.288 147.398 149.418 143.824 152.649C143.823 152.649 143.823 152.649 143.823 152.649L136.962 158.838L136.962 158.839C133.938 161.57 132.212 165.455 132.212 169.53C132.212 173.605 133.938 177.49 136.962 180.221L136.962 180.222L143.823 186.411L6.23197 152.651ZM135.6 206.255L126.382 205.788L143.824 186.412C147.402 189.645 148.558 194.779 146.712 199.234C144.866 203.689 140.417 206.501 135.6 206.255L135.6 206.255ZM75.0267 200.666C92.221 200.666 106.16 186.728 106.16 169.533C106.16 152.339 92.221 138.4 75.0267 138.4C57.8324 138.4 43.8936 152.339 43.8936 169.533C43.8936 186.728 57.8324 200.666 75.0267 200.666Z" fill="#DBFF00" stroke="#110545" stroke-width="3"/>
<rect x="5.01367" y="67.6978" width="21" height="2.13874" fill="#DBFF00"/>
<rect x="42.0781" y="65.0098" width="21" height="4.82692" fill="#DBFF00"/>
<rect x="79.1445" y="60.8438" width="21" height="8.99303" fill="#DBFF00"/>
<rect x="116.211" y="57.5166" width="21" height="12.3201" fill="#DBFF00"/>
</svg>
