<svg width="355" height="278" viewBox="0 0 355 278" fill="none" xmlns="http://www.w3.org/2000/svg">
<rect x="1.70898" y="12.3389" width="176.624" height="132.974" rx="24" fill="#DBFF00" stroke="#110545" stroke-width="3" stroke-linecap="round" stroke-linejoin="round"/>
<rect x="1.70898" y="2.07471" width="176.624" height="131.228" rx="24" fill="#DBFF00" stroke="#110545" stroke-width="3" stroke-linecap="round" stroke-linejoin="round"/>
<mask id="path-3-inside-1_5502_1848" fill="white">
<path d="M105.545 70.2263C105.545 79.2263 102.739 88.0022 97.5159 95.3318C92.2933 102.661 84.9147 108.18 76.408 111.118C67.9013 114.057 58.6899 114.269 50.0567 111.726C41.4236 109.183 33.7986 104.01 28.2436 96.9291C22.6887 89.848 19.4803 81.2108 19.0655 72.2204C18.6507 63.23 21.05 54.334 25.9293 46.7715C30.8086 39.209 37.9249 33.3564 46.2872 30.0289C54.6494 26.7014 63.8412 26.0647 72.5824 28.2074L62.2825 70.2263H105.545Z"/>
</mask>
<path d="M105.545 70.2263C105.545 79.2263 102.739 88.0022 97.5159 95.3318C92.2933 102.661 84.9147 108.18 76.408 111.118C67.9013 114.057 58.6899 114.269 50.0567 111.726C41.4236 109.183 33.7986 104.01 28.2436 96.9291C22.6887 89.848 19.4803 81.2108 19.0655 72.2204C18.6507 63.23 21.05 54.334 25.9293 46.7715C30.8086 39.209 37.9249 33.3564 46.2872 30.0289C54.6494 26.7014 63.8412 26.0647 72.5824 28.2074L62.2825 70.2263H105.545Z" stroke="#110545" stroke-width="6" mask="url(#path-3-inside-1_5502_1848)"/>
<mask id="mask0_5502_1848" style="mask-type:alpha" maskUnits="userSpaceOnUse" x="19" y="26" width="87" height="88">
<mask id="path-4-inside-2_5502_1848" fill="white">
<path d="M105.545 70.2263C105.545 79.2263 102.739 88.0022 97.5159 95.3318C92.2933 102.661 84.9147 108.18 76.408 111.118C67.9013 114.057 58.6899 114.269 50.0567 111.726C41.4236 109.183 33.7986 104.01 28.2436 96.9291C22.6887 89.848 19.4803 81.2108 19.0655 72.2204C18.6507 63.23 21.05 54.334 25.9293 46.7715C30.8086 39.209 37.9249 33.3564 46.2872 30.0289C54.6494 26.7014 63.8412 26.0647 72.5824 28.2074L62.2825 70.2263H105.545Z"/>
</mask>
<path d="M105.545 70.2263C105.545 79.2263 102.739 88.0022 97.5159 95.3318C92.2933 102.661 84.9147 108.18 76.408 111.118C67.9013 114.057 58.6899 114.269 50.0567 111.726C41.4236 109.183 33.7986 104.01 28.2436 96.9291C22.6887 89.848 19.4803 81.2108 19.0655 72.2204C18.6507 63.23 21.05 54.334 25.9293 46.7715C30.8086 39.209 37.9249 33.3564 46.2872 30.0289C54.6494 26.7014 63.8412 26.0647 72.5824 28.2074L62.2825 70.2263H105.545Z" fill="#D9D9D9" stroke="#110545" stroke-width="4" mask="url(#path-4-inside-2_5502_1848)"/>
</mask>
<g mask="url(#mask0_5502_1848)">
<circle cx="122.415" cy="94.8276" r="23.7114" fill="#110545"/>
</g>
<mask id="path-6-inside-3_5502_1848" fill="white">
<path d="M105.545 70.2263C105.545 79.2263 102.739 88.0022 97.5159 95.3318C92.2933 102.661 84.9147 108.18 76.408 111.118C67.9013 114.057 58.6899 114.269 50.0567 111.726C41.4236 109.183 33.7986 104.01 28.2436 96.9291C22.6887 89.848 19.4803 81.2108 19.0655 72.2204C18.6507 63.23 21.05 54.334 25.9293 46.7715C30.8086 39.209 37.9249 33.3564 46.2872 30.0289C54.6494 26.7014 63.8412 26.0647 72.5824 28.2074L62.2825 70.2263H105.545Z"/>
</mask>
<path d="M105.545 70.2263C105.545 79.2263 102.739 88.0022 97.5159 95.3318C92.2933 102.661 84.9147 108.18 76.408 111.118C67.9013 114.057 58.6899 114.269 50.0567 111.726C41.4236 109.183 33.7986 104.01 28.2436 96.9291C22.6887 89.848 19.4803 81.2108 19.0655 72.2204C18.6507 63.23 21.05 54.334 25.9293 46.7715C30.8086 39.209 37.9249 33.3564 46.2872 30.0289C54.6494 26.7014 63.8412 26.0647 72.5824 28.2074L62.2825 70.2263H105.545Z" stroke="#110545" stroke-width="4" mask="url(#path-6-inside-3_5502_1848)"/>
<mask id="path-7-inside-4_5502_1848" fill="white">
<path d="M78.7945 28.1301C86.6617 30.6914 93.5897 35.5339 98.6981 42.0421C103.806 48.5503 106.865 56.4304 107.484 64.6808L65.8784 67.8027L78.7945 28.1301Z"/>
</mask>
<path d="M78.7945 28.1301C86.6617 30.6914 93.5897 35.5339 98.6981 42.0421C103.806 48.5503 106.865 56.4304 107.484 64.6808L65.8784 67.8027L78.7945 28.1301Z" fill="#110545" stroke="#110545" stroke-width="6" mask="url(#path-7-inside-4_5502_1848)"/>
<path d="M128.508 56.0645H155.847" stroke="#110545" stroke-width="2" stroke-linecap="round" stroke-linejoin="round"/>
<path d="M128.508 66.0645H155.847" stroke="#110545" stroke-width="2" stroke-linecap="round" stroke-linejoin="round"/>
<path d="M128.508 76.0645H155.847" stroke="#110545" stroke-width="2" stroke-linecap="round" stroke-linejoin="round"/>
<path d="M342.432 151.233C326.372 165.131 283.034 147.181 276.086 138.302C276.086 137.53 254.512 166.42 250.807 163.641C246.176 160.166 214.595 141.32 209.767 132.512C203.589 121.242 211.99 115.749 216.607 105.07C220.814 97.1812 223.269 101.029 220.786 86.609C219.472 78.983 222.504 68.675 229.276 64.3489C223.685 49.5434 232.778 31.1774 257.94 23.259C267.435 20.2711 283.034 23.259 288.825 26.3475C288.495 15.1424 289.72 0.417268 304.6 1.57008C326.658 3.27901 330.684 34.0656 315.076 46.4222C332.888 58.6541 324.564 71.0381 329.547 80.6059C337.06 95.0324 346.427 99.199 349.113 111.625C352.502 127.295 339.091 132.512 342.432 151.233Z" fill="#110545"/>
<path d="M219.157 129.431C208.467 135.688 192.758 155.938 186.24 165.281C187.194 171.862 196.147 186.049 224.328 190.151C259.553 195.279 293.336 174.768 299.408 157.156C304.265 143.065 301.975 129.979 300.704 124.537C300.382 124.07 299.257 120.04 298.224 113.412C297.191 106.784 300.484 98.7193 301.667 95.4556C302.6 96.4598 305.153 98.3391 307.908 97.8227C311.351 97.1771 314.148 94.7024 314.148 88.462C314.148 82.2216 313.288 75.6583 308.769 72.9684C305.153 70.8166 302.528 73.4347 301.667 75.0127L298.224 56.1838C295.728 47.2258 286.18 33.8306 264.736 33.8311C246.553 33.8315 233.589 46.6353 231.118 65.8729C229.731 76.6761 230.225 110.766 242.889 116.81C248.166 119.328 250.142 118.146 255.487 118.146C251.478 135.898 232.52 121.609 219.157 129.431Z" fill="#DBFF00"/>
<path d="M244.477 96.418C245.936 98.9973 249.537 99.5037 252.257 96.6977" stroke="#110545" stroke-width="2" stroke-linecap="round" stroke-linejoin="round"/>
<path d="M258.25 64.0832C260.748 63.4635 263.869 63.7639 266.524 65.8462" stroke="#110545" stroke-width="2" stroke-linecap="round" stroke-linejoin="round"/>
<path d="M232.115 65.846C234.197 64.5829 235.704 63.8495 237.983 64.583" stroke="#110545" stroke-width="2" stroke-linecap="round" stroke-linejoin="round"/>
<circle cx="260.625" cy="73.4766" r="3.41602" fill="#110545"/>
<circle cx="238.617" cy="73.4766" r="3.41602" fill="#110545"/>
<path d="M186.24 165.281C192.758 155.938 208.467 135.688 219.157 129.431C226.075 125.381 234.494 127.258 241.56 127.547C248.143 127.816 253.554 126.707 255.487 118.146C250.142 118.146 248.166 119.328 242.889 116.81C230.225 110.766 229.731 76.6761 231.118 65.8729C233.589 46.6353 246.553 33.8315 264.736 33.8311C286.18 33.8306 295.728 47.2258 298.224 56.1838L301.667 75.0127C302.528 73.4347 305.153 70.8166 308.769 72.9684C313.288 75.6583 314.148 82.2216 314.148 88.462C314.148 94.7024 311.351 97.1771 307.908 97.8227C305.153 98.3391 302.6 96.4598 301.667 95.4556C300.484 98.7193 298.375 106.904 299.408 113.531C300.441 120.159 301.345 122.749 301.667 123.215" stroke="#110545" stroke-width="3" stroke-linecap="round" stroke-linejoin="round"/>
<path d="M245.83 126.651C245.83 131.008 248.853 140.537 260.941 143.805C273.03 147.072 297.834 133.731 308.726 126.651" stroke="#110545" stroke-width="3" stroke-linecap="round" stroke-linejoin="round"/>
<rect x="141.619" y="155.126" width="12.2314" height="12.2605" rx="2" fill="#110545" stroke="#DBFF00" stroke-width="3" stroke-linecap="round" stroke-linejoin="round"/>
<rect x="136.135" y="162.065" width="23.1982" height="32.1809" rx="4" fill="#110545" stroke="#DBFF00" stroke-width="3" stroke-linecap="round" stroke-linejoin="round"/>
<path d="M174.546 209.452C170.386 220.497 159.653 225.897 148.717 228.258" stroke="#110545" stroke-width="3" stroke-linecap="round" stroke-linejoin="round"/>
<path d="M157.648 191.044C161.679 192.989 161.248 176.13 166.002 176.13C171.642 176.13 159.383 194.848 174.611 208.476C221.901 250.803 270.222 233.609 301.668 185.228L335.71 226.09C306.418 263.939 271.165 279.26 235.651 275.441C195.733 271.149 157.625 242.334 133.31 210.925C124.818 199.956 118.611 185.597 120.168 184.076C123.122 181.19 126.769 192.232 132.403 197.784C126.316 190.364 118.801 178.347 122.32 176.13C124.152 174.977 127.294 178.147 130.32 182.097C127.063 176.933 124.614 171.766 126.769 169.629C130.501 165.931 138.234 180.474 143.716 186.967C136.677 177.842 133.798 172.789 135.894 170.803C140.623 166.323 152.724 188.668 157.648 191.044Z" fill="#DBFF00"/>
<path d="M301.668 185.228C270.222 233.609 221.901 250.803 174.61 208.476C159.383 194.847 171.642 176.13 166.002 176.13C161.248 176.13 161.679 192.989 157.648 191.044C152.724 188.667 140.623 166.322 135.894 170.802C133.798 172.789 136.676 177.842 143.716 186.967C138.234 180.474 130.5 165.931 126.769 169.629C123.038 173.327 133.103 186.105 137.274 192.232C134.19 187.652 125.839 173.914 122.32 176.13C118.801 178.346 126.316 190.364 132.403 197.783C126.769 192.232 123.122 181.189 120.168 184.075C118.611 185.596 124.817 199.955 133.309 210.925C157.624 242.334 195.733 271.148 235.65 275.441C271.165 279.26 306.418 263.939 335.71 226.09C363.048 190.766 357.893 151.051 317.467 133.236" stroke="#110545" stroke-width="3" stroke-linecap="round" stroke-linejoin="round"/>
<path d="M250.765 29.35C248.33 30.252 236.729 42.6499 234.037 51.968C239.524 46.7913 241.758 35.5928 260.704 35.5928C266.579 36.668 273.996 38.8577 280.258 46.2823C289.514 59.4486 288.731 80.8275 302.419 76.2649L300.152 48.5184L293.838 32.6199L270.159 26.0801C264.71 26.7942 253.201 28.4479 250.765 29.35Z" fill="#110545"/>
<path d="M131.801 139.408H146.125" stroke="#110545" stroke-width="3" stroke-linecap="round" stroke-linejoin="round"/>
</svg>
