<svg width="228" height="230" viewBox="0 0 228 230" fill="none" xmlns="http://www.w3.org/2000/svg">
<path fill-rule="evenodd" clip-rule="evenodd" d="M61.4352 87.8514C39.5277 120.715 22.6755 182.458 59.7601 213.221L54.827 212.056C18.8005 179.463 38.6038 121.327 61.0353 87.6777L61.4352 87.8514Z" fill="#110545"/>
<path fill-rule="evenodd" clip-rule="evenodd" d="M61.1388 87.712C43.1873 99.5347 29.6642 119.729 22.0618 139.69C15.5375 156.82 15.5933 172.915 20.5569 184.294L20.9258 185.14L19.2343 185.877L18.8654 185.032C13.6611 173.101 13.6887 156.49 20.3373 139.033C28.0769 118.712 42.8656 99.1771 61.1388 87.1426V87.712Z" fill="#110545"/>
<path fill-rule="evenodd" clip-rule="evenodd" d="M112.611 83.5034C95.9216 81.0065 79.0444 82.0466 62.9922 87.0206L62.9922 86.5173C79.3092 81.4614 95.9206 79.1404 112.884 81.6783C127.487 83.863 137.363 88.1211 144.361 92.9136C150.248 96.9445 153.333 99.7577 157.496 105.482V108.978C153.457 103.424 149.03 98.3474 143.319 94.4362C136.583 89.8234 126.979 85.653 112.611 83.5034Z" fill="#110545"/>
<path fill-rule="evenodd" clip-rule="evenodd" d="M96.5338 58.5364C82.616 61.5495 69.9652 74.6301 62.7834 86.326C80.9288 74.9494 104.43 64.9695 126.237 69.2735L127.318 69.5119L127.001 71.084L126.096 70.9053C103.152 66.3769 82.7469 74.454 62.5695 86.8997C62.4413 86.7624 62.3772 86.7624 62.252 86.6883C69.3868 72.2345 82.833 59.9627 94.9751 57.334L96.5338 58.5364Z" fill="#110545"/>
<path fill-rule="evenodd" clip-rule="evenodd" d="M61.19 87.5657C47.4132 91.0487 32.9434 99.0003 22.8056 109.138C12.8022 119.141 5.49343 130.127 4.66747 144.571L3.57617 142.178C4.42851 127.273 11.1741 118.159 21.5008 107.833C31.8744 97.4595 47.0899 90.6272 61.19 87.0625V87.5657Z" fill="#110545"/>
<path fill-rule="evenodd" clip-rule="evenodd" d="M61.3838 87.0863C41.591 87.3671 22.5092 94.8037 8.91797 109.789L8.91886 107.587C22.8513 92.2257 41.1458 87.1229 61.4467 86.835L61.3838 87.0863Z" fill="#110545"/>
<path fill-rule="evenodd" clip-rule="evenodd" d="M61.5077 86.7792L61.3528 87.1071C50.8717 80.9403 37.9641 79.6676 25.9883 82.4619L26.4169 80.6867C38.8505 77.7855 50.6215 80.374 61.5077 86.7792Z" fill="#110545"/>
<path fill-rule="evenodd" clip-rule="evenodd" d="M46.0252 65.999C52.9369 71.9892 57.1731 78.9429 61.969 86.6562L61.6053 86.8365C56.8691 79.2193 50.9527 72.7321 44.127 66.8164L46.0252 65.999Z" fill="#110545"/>
<path fill-rule="evenodd" clip-rule="evenodd" d="M70.3214 58.6472C63.9732 66.265 63.0502 77.2462 62.29 86.7075H61.8828C62.433 77.2006 62.6441 66.2378 68.3785 58.3809L70.3214 58.6472Z" fill="#110545"/>
<path fill-rule="evenodd" clip-rule="evenodd" d="M62.2821 87.5459C90.3079 133.635 111.364 162.782 120.241 208.514L116.815 209.928C109.88 172.944 88.7302 131.244 61.8555 87.8154L62.2821 87.5459Z" fill="#110545"/>
<path fill-rule="evenodd" clip-rule="evenodd" d="M61.6993 87.8379C60.2891 123.14 61.8466 192.986 97.2095 216.265L94.1531 217.004C58.202 195.609 58.0605 124.624 61.2455 87.8379H61.6993Z" fill="#110545"/>
<path fill-rule="evenodd" clip-rule="evenodd" d="M62.9079 87.002C90.2499 99.3026 159.259 141.386 146.069 186.384L143.502 188.49C155.537 147.429 88.9512 98.004 62.5098 87.3627L62.9079 87.002Z" fill="#110545"/>
<path fill-rule="evenodd" clip-rule="evenodd" d="M62.5605 86.5977C91.595 89.7079 118.992 99.8038 141.899 118.129C152.911 126.939 161.063 136.786 162.444 150.874L160.951 155.428C159.618 141.831 151.372 128.071 140.746 119.57C118.113 101.464 91.2467 90.1824 62.5607 87.1095L62.5605 86.5977Z" fill="#110545"/>
<path fill-rule="evenodd" clip-rule="evenodd" d="M23.468 87.8611C17.9335 97.5077 17.3954 108.135 21.3474 117.408C25.2994 126.681 33.8764 133.019 44.6681 135.707C55.4604 138.396 68.4129 137.413 80.9477 132.071C93.4826 126.728 103.162 118.066 108.697 108.419C114.231 98.772 115.599 88.1953 111.648 78.9226C107.696 69.6499 98.9373 62.2912 88.1457 59.6027C77.3534 56.914 64.5821 58.9177 52.0472 64.26C39.5123 69.6023 29.0029 78.2139 23.468 87.8611ZM22.6973 86.9937C28.4499 76.967 38.6163 69.0845 51.4859 63.5995C64.3555 58.1146 77.556 56.0382 88.7729 58.8327C99.9905 61.6273 109.117 68.2776 113.345 78.1991C117.574 88.1206 116.051 99.3096 110.298 109.337C104.545 119.364 94.5409 128.283 81.6713 133.768C68.8016 139.253 55.4389 140.292 44.222 137.498C33.0044 134.703 23.8783 128.053 19.6498 118.132C15.4213 108.21 16.9444 97.0211 22.6973 86.9937Z" fill="#110545"/>
<path d="M163.366 137.204C163.366 181.268 127.646 216.988 83.5823 216.988C39.5191 216.988 3.79883 181.268 3.79883 137.204C3.79883 93.1412 39.5191 57.4209 83.5823 57.4209C127.646 57.4209 163.366 93.1412 163.366 137.204Z" stroke="#110545" stroke-width="2" stroke-linecap="square" stroke-linejoin="round"/>
<path fill-rule="evenodd" clip-rule="evenodd" d="M158.079 168.117C147.876 185.691 132.398 199.745 113.654 207.733C94.996 215.686 74.2967 217.524 54.5868 212.733L55.0227 210.939C74.348 215.637 94.6366 213.833 112.931 206.036C131.31 198.203 146.479 184.421 156.483 167.191L158.079 168.117Z" fill="#110545"/>
<path fill-rule="evenodd" clip-rule="evenodd" d="M160.691 115.765C161.013 149.808 136.186 178.126 106.181 190.914C76.8989 203.394 40.0605 202.639 15.4748 180.552L16.0192 179.541C40.0706 201.148 76.422 200.629 105.043 188.431C134.36 175.937 159.987 149.06 159.672 115.765L160.691 115.765Z" fill="#110545"/>
<path fill-rule="evenodd" clip-rule="evenodd" d="M129.84 72.0809C145.437 88.1102 146.779 109.422 135.449 129.092C127.268 143.295 113.045 155.956 94.7415 163.757C76.4379 171.558 57.4546 173.049 41.5432 169.114C25.6313 165.179 12.7356 155.795 6.77735 141.815C4.89852 137.406 3.90104 132.776 3.47867 128.018L4.17592 128.018C8.00395 171.138 62.9008 174.656 93.9445 161.425C121.629 149.626 151.961 118.26 138.139 85.8289C136.027 80.8744 132.916 76.5631 129.176 72.7191L129.84 72.0809Z" fill="#110545"/>
<path fill-rule="evenodd" clip-rule="evenodd" d="M45.4735 96.3017C46.8883 99.6213 50.4486 101.859 54.4521 102.835C58.4559 103.812 63.2987 103.437 68.0112 101.429C72.7238 99.4202 76.3481 96.1864 78.4165 92.6219C80.4849 89.0577 81.1452 84.9819 79.7304 81.6622C76.1363 73.2292 64.7089 72.4876 57.1877 75.6931C49.5391 78.9529 41.7828 87.6419 45.4735 96.3017ZM45.4735 84.5874C47.7607 80.6461 51.7082 77.1586 56.7514 75.0092C61.7946 72.8598 67.0442 72.4275 71.4713 73.5073C75.8986 74.587 79.5617 77.2017 81.2562 81.1776C82.9507 85.1535 82.2999 89.6067 80.0126 93.5482C77.7255 97.4895 73.7779 100.977 68.7348 103.126C63.6916 105.276 58.4419 105.708 54.0149 104.628C49.5876 103.549 45.9245 100.934 44.23 96.958C42.5355 92.9821 43.1863 88.5289 45.4735 84.5874Z" fill="#110545"/>
<path d="M125.46 3.20338C126.66 1.73733 128.902 1.73734 130.103 3.20338L137.585 12.3424C138.401 13.3388 139.761 13.7034 140.966 13.2484L152.015 9.07495C153.788 8.40546 155.73 9.52643 156.036 11.3962L157.946 23.052C158.155 24.3228 159.151 25.319 160.422 25.5272L172.077 27.4376C173.947 27.7441 175.068 29.6856 174.399 31.4581L170.225 42.5075C169.77 43.7123 170.135 45.073 171.131 45.8888L180.27 53.3711C181.736 54.5714 181.736 56.8134 180.27 58.0136L171.131 65.496C170.135 66.3118 169.77 67.6725 170.225 68.8772L174.399 79.9266C175.068 81.6991 173.947 83.6407 172.077 83.9472L160.422 85.8575C159.151 86.0658 158.155 87.062 157.946 88.3328L156.036 99.9886C155.73 101.858 153.788 102.979 152.015 102.31L140.966 98.1364C139.761 97.6813 138.401 98.0459 137.585 99.0424L130.103 108.181C128.902 109.647 126.66 109.647 125.46 108.181L117.978 99.0424C117.162 98.0459 115.801 97.6813 114.596 98.1364L103.547 102.31C101.775 102.979 99.8329 101.858 99.5265 99.9886L97.6161 88.3328C97.4078 87.062 96.4117 86.0658 95.1408 85.8575L83.4851 83.9472C81.6153 83.6407 80.4943 81.6991 81.1638 79.9266L85.3373 68.8772C85.7923 67.6725 85.4277 66.3118 84.4313 65.496L75.2922 58.0136C73.8262 56.8134 73.8262 54.5714 75.2922 53.3711L84.4313 45.8888C85.4277 45.073 85.7923 43.7123 85.3373 42.5075L81.1638 31.4581C80.4943 29.6856 81.6153 27.7441 83.4851 27.4376L95.1408 25.5272C96.4117 25.319 97.4078 24.3228 97.6161 23.052L99.5265 11.3962C99.8329 9.52643 101.775 8.40546 103.547 9.07495L114.596 13.2484C115.801 13.7034 117.162 13.3388 117.978 12.3424L125.46 3.20338Z" fill="#3852CE"/>
<path d="M127.678 50.525C131.5 50.525 134.718 51.6794 137.329 53.9882C139.941 56.2591 141.246 59.4384 141.246 63.5261C141.246 67.6137 139.865 70.812 137.102 73.1207C134.377 75.4295 131.027 76.5839 127.053 76.5839C123.836 76.5839 120.997 75.8648 118.537 74.4265C116.077 72.9883 114.298 70.8687 113.201 68.0679L119.9 64.1506C120.884 67.3299 123.268 68.9195 127.053 68.9195C129.059 68.9195 130.611 68.4464 131.709 67.5002C132.844 66.5161 133.412 65.1914 133.412 63.5261C133.412 61.8986 132.863 60.5928 131.765 59.6087C130.668 58.6247 129.173 58.1326 127.28 58.1326H115.244L116.834 36.0479H139.373V43.3716H124.101L123.59 50.525H127.678Z" fill="white"/>
<path d="M35.1839 146.611C38.847 146.611 41.9509 144.287 44.065 140.975C46.1902 137.646 47.4556 133.137 47.4556 128.235C47.4556 123.332 46.1902 118.824 44.065 115.494C41.9509 112.182 38.847 109.858 35.1839 109.858C31.5208 109.858 28.4169 112.182 26.3027 115.494C24.1775 118.824 22.9121 123.332 22.9121 128.235C22.9121 133.137 24.1775 137.646 26.3027 140.975C28.4169 144.287 31.5208 146.611 35.1839 146.611Z" fill="#110545" stroke="white" stroke-width="3"/>
<path d="M81.4951 150.237C85.5618 150.237 89.0312 147.657 91.4098 143.93C93.7995 140.186 95.2285 135.105 95.2285 129.571C95.2285 124.036 93.7995 118.955 91.4098 115.211C89.0312 111.484 85.5618 108.904 81.4951 108.904C77.4284 108.904 73.9591 111.484 71.5804 115.211C69.1907 118.955 67.7617 124.036 67.7617 129.571C67.7617 135.105 69.1907 140.186 71.5804 143.93C73.9591 147.657 77.4284 150.237 81.4951 150.237Z" fill="#110545" stroke="white" stroke-width="3"/>
<ellipse cx="76.8262" cy="123.684" rx="3.72656" ry="4.28774" fill="white"/>
<path fill-rule="evenodd" clip-rule="evenodd" d="M80.8698 182.87C66.8377 189.955 55.0373 186.65 48.0176 180.042L48.5046 178.146C53.1841 181.528 66.1462 186.906 80.0929 181.027L80.8698 182.87Z" fill="#110545"/>
<ellipse cx="29.9967" cy="121.232" rx="3.70572" ry="4.26376" fill="white"/>
<path d="M191.26 122.519L191.281 122.325H182.027C182.027 126.64 179.252 140.386 171.232 143.998C163.212 147.61 156.837 139.683 154.267 137.376C152.81 136.573 148.972 136.473 145.27 142.493C143.664 145.106 143.516 147.549 144.067 149.624C144.786 152.331 146.692 154.414 148.098 155.436C153.667 159.65 168.559 165.791 178.429 157.844C188.218 149.963 190.389 130.379 191.26 122.519Z" fill="#FCFCFC"/>
<path d="M192.398 121.325H181.027V122.325C181.027 124.344 180.362 128.738 178.703 133.067C177.033 137.427 174.459 141.447 170.821 143.086C167.224 144.706 163.987 143.774 161.235 142.058C159.146 140.756 157.47 139.101 156.168 137.816C155.711 137.366 155.301 136.96 154.935 136.631L154.85 136.555L154.749 136.5C153.689 135.916 152.049 135.714 150.188 136.468L150.2 136.473C148.907 136.904 149.043 138.318 150.353 138.59C151.933 137.758 153.165 137.964 153.694 138.206C153.95 138.442 154.26 138.749 154.618 139.103C155.926 140.395 157.874 142.32 160.177 143.755C169.298 149.441 177.271 142.394 180.571 133.783C182.081 129.841 182.824 125.815 182.99 123.325H190.164C189.713 127.343 188.939 133.631 187.224 139.91C182.147 158.494 164.549 166.63 148.701 154.639L148.694 154.633L148.686 154.627C147.412 153.701 145.678 151.796 145.034 149.368C144.769 148.37 144.683 147.271 144.9 146.089C144.829 144.095 143.113 144.453 142.921 145.826C142.919 145.825 142.918 145.823 142.916 145.822C142.667 147.261 142.768 148.628 143.101 149.881C143.892 152.861 145.964 155.119 147.502 156.239C150.408 158.435 155.661 161.086 161.465 162.183C167.278 163.282 173.808 162.848 179.056 158.623C184.207 154.476 187.265 147.347 189.153 140.437C191.049 133.498 191.816 126.574 192.252 122.645L192.398 121.325Z" fill="#110545"/>
<path d="M210.595 116.436C208.819 118.219 206.609 119.525 205.318 120.159C205.433 120.972 205.343 121.995 204.805 122.986C204.095 124.293 202.67 125.429 200.206 125.991C194.37 127.322 188.808 127.198 184.849 124.036C182.465 122.132 181.656 120.309 181.651 119.05C179.123 118.473 174.848 116.14 172.426 110.249C171.038 106.873 170.644 104.21 170.296 101.864C170.229 101.405 170.162 100.959 170.091 100.521C169.66 97.8781 169.032 95.4773 166.646 92.4224C164.438 89.5947 162.063 87.9208 160.14 86.5651C159.965 86.4417 159.794 86.321 159.627 86.2023C158.647 85.5058 157.742 84.8319 157.145 84.0771C156.51 83.2734 156.201 82.3515 156.44 81.2273C156.68 80.0933 157.422 79.2743 158.428 78.7627C159.414 78.2607 160.666 78.0437 162.031 78.0573C164.767 78.0847 168.166 79.0393 171.383 80.8758C174.344 82.5665 176.228 84.7515 177.353 86.6931C177.325 81.6747 176.772 73.7389 174.736 65.758C173.901 62.486 173.012 59.6497 172.225 57.2076C172.105 56.8345 171.986 56.4698 171.871 56.1135C171.235 54.1504 170.681 52.4439 170.321 51.0068C169.902 49.335 169.697 47.8675 170.03 46.7043C170.204 46.0963 170.524 45.5721 171.016 45.1567C171.499 44.7486 172.112 44.4765 172.83 44.3034C175.795 43.5891 179.274 45.236 182.093 48.5935C184.94 51.9842 187.239 57.2384 187.897 64.1359C188.579 71.2761 189.017 77.066 189.268 80.9083C189.671 79.8823 190.163 78.841 190.747 77.8759C192.194 75.487 194.348 73.3475 197.309 73.4217C200.004 73.4892 201.744 74.3271 202.787 75.4678C203.406 76.1455 203.752 76.9003 203.911 77.5969C205.366 76.9689 207.645 76.5152 209.885 77.656C211.407 78.431 212.309 79.8664 212.829 81.241C213.205 82.2348 213.401 83.2485 213.482 84.077C215.4 83.9531 218.385 84.8405 220.409 88.728C221.832 91.4623 222.411 93.5953 222.395 95.7743C222.379 97.9191 221.783 100.052 220.988 102.74C220.178 105.479 219.218 107.778 218.11 109.449C217.012 111.103 215.682 112.269 214.095 112.465C213.315 112.561 212.648 112.503 212.091 112.353C212.217 113.599 211.926 115.099 210.595 116.436Z" fill="#110545" stroke="white" stroke-width="1.5"/>
<path fill-rule="evenodd" clip-rule="evenodd" d="M211.878 111.936C210.713 110.743 209.549 108.832 209.053 107.108L208.043 107.399C208.457 108.838 209.335 111.605 211.878 111.936ZM207.064 118.662C203.491 122.848 195.825 119.981 194.189 115.327C197.584 118.639 202.494 120.917 207.064 118.662ZM191.731 117.117C188.565 121.777 183.543 120.546 180.537 117.354C185.406 119.041 187.618 118.783 191.731 117.117Z" fill="white"/>
<path fill-rule="evenodd" clip-rule="evenodd" d="M177.523 88.6399C177.998 90.4937 178.123 92.6066 180.122 92.9531C181.695 93.158 183.281 92.5993 184.851 92.5253C189.202 92.3202 192.807 95.8475 193.129 100.092C193.99 96.9166 191.301 93.6433 190.208 92.708C188.445 91.2009 186.58 90.7273 184.851 90.8088C184.224 90.8383 183.598 90.9106 183.01 90.9785C179.959 91.3309 178.562 91.8192 177.523 88.6399Z" fill="white"/>
<path fill-rule="evenodd" clip-rule="evenodd" d="M187.777 87.2465C186.279 87.251 183.361 87.5343 180.178 90.3912C181.08 89.6969 184.775 88.317 187.889 88.3077C191.354 88.2974 194.135 88.9356 195.117 89.2494C192.292 87.4376 189.426 87.2416 187.777 87.2465Z" fill="white"/>
<path fill-rule="evenodd" clip-rule="evenodd" d="M203.221 78.7679C204.271 83.4866 206.224 87.8436 206.945 92.622C207.316 95.0835 207.232 97.9659 206.147 101.865C205.058 105.777 203.58 108.299 202.096 109.669C200.624 111.028 199.564 110.834 198.945 110.523C195.872 108.977 195.519 103.193 196.018 100.308C196.76 96.0125 199.565 93.1278 201.15 91.2085C200.665 91.4314 199.459 92.0859 199.086 92.1994C196.185 93.083 195.506 87.8984 195.105 85.9895C194.904 87.5353 195.359 91.4625 196.334 92.622C196.488 92.8044 196.687 92.9881 196.938 93.0792C197.206 93.1766 197.478 93.2019 197.742 93.1793C196.429 94.9157 195.057 97.2038 194.521 100.308C194.209 102.11 194.321 104.54 194.86 106.699C195.13 107.781 195.513 108.816 196.018 109.68C196.521 110.541 197.166 111.266 197.976 111.673C199.602 112.491 201.485 112.087 203.179 110.523C204.862 108.97 206.413 106.241 207.53 102.228C208.65 98.2033 209.09 95.3276 208.694 92.7036C207.94 87.6975 205.374 82.7457 204.271 77.7893L203.221 78.7679Z" fill="white"/>
<path fill-rule="evenodd" clip-rule="evenodd" d="M213.244 86.8075C214.429 91.7394 214.837 96.9115 212.139 101.828C210.238 105.29 208.559 106.858 207.301 107.465C206.07 108.057 205.253 107.735 204.886 107.391L204.167 108.157C204.888 108.834 206.185 109.169 207.757 108.411C209.302 107.667 211.953 105.727 213.898 102.182C216.803 96.8897 216.067 90.9704 214.88 86.059C214.724 85.4127 214.567 84.7613 214.417 84.1028L212.777 84.8245C212.93 85.5001 213.089 86.16 213.244 86.8075Z" fill="white"/>
</svg>
