<svg width="223" height="214" viewBox="0 0 223 214" fill="none" xmlns="http://www.w3.org/2000/svg">
<circle cx="116.153" cy="129.392" r="83.3069" fill="#110545" stroke="#110545" stroke-width="2"/>
<path d="M191.61 123.112C191.61 169.121 154.312 206.419 108.303 206.419C62.2939 206.419 24.9961 169.121 24.9961 123.112C24.9961 77.1025 62.2939 39.8047 108.303 39.8047C154.312 39.8047 191.61 77.1025 191.61 123.112Z" fill="white" stroke="#110545" stroke-width="2"/>
<path d="M125.484 123.112C125.484 132.601 117.791 140.293 108.302 140.293C98.8135 140.293 91.1211 132.601 91.1211 123.112C91.1211 113.623 98.8135 105.931 108.302 105.931C117.791 105.931 125.484 113.623 125.484 123.112Z" fill="#110545" stroke="#110545" stroke-width="2"/>
<path fill-rule="evenodd" clip-rule="evenodd" d="M108.303 204.133C153.8 204.133 190.682 168.608 190.682 123.112C190.682 77.6149 153.8 40.7326 108.303 40.7326C62.8064 40.7326 27.3148 77.6149 27.3148 123.112C27.3148 168.608 62.8064 204.133 108.303 204.133ZM108.303 207.419C154.864 207.419 192.61 169.673 192.61 123.112C192.61 76.5502 154.864 38.8047 108.303 38.8047C61.7416 38.8047 23.9961 76.5502 23.9961 123.112C23.9961 169.673 61.7416 207.419 108.303 207.419Z" fill="#110545"/>
<path fill-rule="evenodd" clip-rule="evenodd" d="M12.0174 147.126C12.5328 146.992 13.0588 147.302 13.1923 147.817C18.0285 166.49 27.9696 181.039 41.7805 193.666C42.1734 194.026 42.9122 195.33 42.4895 196.257C42.0668 197.184 40.8917 197.189 40.4988 196.83C26.4194 183.957 16.2581 167.343 11.3259 148.301C11.1925 147.785 11.502 147.259 12.0174 147.126Z" fill="#110545"/>
<path fill-rule="evenodd" clip-rule="evenodd" d="M12.246 177.919C12.7071 177.653 13.2967 177.811 13.5627 178.272C18.7748 187.305 25.3553 194.609 32.7133 201.902C33.0915 202.277 33.2951 203.184 32.8633 203.893C32.4816 204.52 31.5437 204.61 31.1656 204.235C23.6866 196.822 17.1913 188.418 11.8929 179.236C11.6268 178.775 11.7849 178.185 12.246 177.919Z" fill="#110545"/>
<path d="M164.872 123.112C164.872 154.354 139.545 179.681 108.302 179.681C77.0595 179.681 51.7324 154.354 51.7324 123.112C51.7324 91.8691 77.0595 66.542 108.302 66.542C139.545 66.542 164.872 91.8691 164.872 123.112ZM108.302 150.331C123.335 150.331 135.521 138.145 135.521 123.112C135.521 108.079 123.335 95.8921 108.302 95.8921C93.2686 95.8921 81.082 108.079 81.082 123.112C81.082 138.145 93.2686 150.331 108.302 150.331Z" fill="#3852CE" stroke="#110545" stroke-width="2"/>
<path fill-rule="evenodd" clip-rule="evenodd" d="M107.164 177.974C137.894 177.974 163.278 153.842 163.278 123.112C163.278 92.3816 139.032 67.4699 108.302 67.4699C77.572 67.4699 52.6604 92.3816 52.6604 123.112C52.6604 153.842 76.434 177.974 107.164 177.974ZM136.449 123.112C136.449 138.657 123.847 151.259 108.302 151.259C92.7562 151.259 80.1541 138.657 80.1541 123.112C80.1541 107.566 92.7562 94.9641 108.302 94.9641C123.847 94.9641 136.449 107.566 136.449 123.112ZM165.872 123.112C165.872 154.906 140.097 180.681 108.302 180.681C76.5072 180.681 50.7324 154.906 50.7324 123.112C50.7324 91.3168 76.5072 65.542 108.302 65.542C140.097 65.542 165.872 91.3168 165.872 123.112ZM134.099 123.112C134.099 137.592 121.645 149.075 107.164 149.075C92.6834 149.075 82.082 137.592 82.082 123.112C82.082 108.631 93.8209 96.8921 108.302 96.8921C122.782 96.8921 134.099 108.631 134.099 123.112Z" fill="#110545"/>
<path d="M166.388 5.70651C167.988 3.75178 170.978 3.75178 172.578 5.70651L177.2 11.3521C178.832 13.345 181.553 14.0742 183.963 13.1642L190.789 10.586C193.152 9.69336 195.741 11.188 196.149 13.681L197.329 20.8814C197.746 23.4231 199.738 25.4153 202.28 25.8319L209.48 27.0121C211.973 27.4207 213.468 30.0094 212.575 32.3728L209.997 39.1985C209.087 41.608 209.816 44.3295 211.809 45.9611L217.455 50.5833C219.41 52.1837 219.41 55.1729 217.455 56.7733L211.809 61.3955C209.816 63.0271 209.087 65.7486 209.997 68.1581L212.575 74.9839C213.468 77.3472 211.973 79.936 209.48 80.3446L202.28 81.5247C199.738 81.9413 197.746 83.9336 197.329 86.4753L196.149 93.6756C195.741 96.1686 193.152 97.6633 190.789 96.7706L183.963 94.1925C181.553 93.2824 178.832 94.0116 177.2 96.0045L172.578 101.65C170.978 103.605 167.988 103.605 166.388 101.65L161.766 96.0045C160.134 94.0116 157.413 93.2824 155.003 94.1925L148.177 96.7706C145.814 97.6633 143.225 96.1686 142.817 93.6756L141.637 86.4753C141.22 83.9336 139.228 81.9413 136.686 81.5247L129.486 80.3446C126.993 79.936 125.498 77.3472 126.391 74.9839L128.969 68.1581C129.879 65.7486 129.15 63.0271 127.157 61.3955L121.511 56.7733L120.878 57.5471L121.511 56.7733C119.556 55.1729 119.556 52.1837 121.511 50.5833L127.157 45.9611C129.15 44.3295 129.879 41.608 128.969 39.1985L126.391 32.3728C125.498 30.0094 126.993 27.4207 129.486 27.0121L136.686 25.8319C139.228 25.4153 141.22 23.4231 141.637 20.8814L142.817 13.681C143.225 11.188 145.814 9.69335 148.177 10.586L155.003 13.1642C157.413 14.0742 160.134 13.345 161.766 11.3521L166.388 5.70651Z" fill="#110545" stroke="white" stroke-width="2"/>
<path d="M105.734 120.043L110.369 124.274" stroke="white" stroke-width="2" stroke-linecap="round"/>
<path d="M101.551 108.38C107.19 113.278 107.554 118.011 106.003 120.401C104.453 122.79 97.841 122.33 93.3889 118.175C88.9368 114.02 40.7977 67.4364 23.653 48.6182C22.4888 47.1909 23.5153 45.9812 25.0888 46.9789C44.829 60.8449 95.9117 103.483 101.551 108.38Z" fill="white" stroke="#110545" stroke-width="2"/>
<path d="M101.551 108.38C107.19 113.278 107.554 118.011 106.003 120.401C104.453 122.79 97.841 122.33 93.3889 118.175C88.9368 114.02 40.7977 67.4364 23.653 48.6182C22.4888 47.1909 23.5153 45.9812 25.0888 46.9789C44.829 60.8449 95.9117 103.483 101.551 108.38Z" fill="white"/>
<path d="M26.1789 45.3459L26.1982 45.3595L26.2169 45.3726L25.6775 46.1405L26.2169 45.3726C46.0474 59.302 97.1966 101.999 102.838 106.898C108.818 112.091 109.977 117.883 107.65 121.471C106.285 123.574 103.871 124.028 101.704 123.876C99.5106 123.722 97.2638 122.939 95.7551 122.183C94.4593 121.533 93.1931 120.68 92.048 119.611C87.5872 115.448 39.4006 68.8207 22.2005 49.9417C22.2005 49.9417 22.2005 49.9417 22.2005 49.9417M26.1789 45.3459L22.9397 49.2682L22.2005 49.9417M26.1789 45.3459L26.1589 45.3332L26.1397 45.321L25.6121 46.153L26.1397 45.321C25.5582 44.9524 24.8333 44.6724 24.0796 44.6508C23.2978 44.6283 22.4763 44.8898 21.8575 45.6058C21.2489 46.31 21.1029 47.1492 21.222 47.9118C21.3373 48.65 21.6975 49.3297 22.1303 49.8604L26.1789 45.3459ZM22.2005 49.9417L22.1827 49.9222L22.1643 49.902L22.147 49.8808L22.1303 49.8604L22.2005 49.9417ZM95.5928 116.175C91.6124 112.46 52.216 75.4656 31.6386 54.2175C54.473 71.459 95.257 105.517 100.262 109.864C105.369 114.298 105.155 117.878 104.434 119.199C104.064 119.453 103.536 119.582 102.818 119.545C102.021 119.504 101.094 119.26 100.135 118.882C98.206 118.122 96.3812 116.911 95.5928 116.175Z" fill="#110545" stroke="white" stroke-width="2"/>
<path d="M32.5592 33.9062C32.1616 40.6253 32.02 43.895 31.3878 51.1913L46.6449 63.2445V47.5752C42.5683 43.4587 39.3103 40.574 32.5592 33.9062Z" fill="#110545"/>
<path d="M42.5595 68.4121L29.0534 54.709C26.3481 55.4446 17.1769 56.8292 10.1387 57.7436C16.1829 62.8724 21.3072 67.662 26.1401 71.6626C33.1412 70.2457 34.8832 69.8136 42.5595 68.4121Z" fill="#110545"/>
<path d="M32.5592 33.9062C32.1616 40.6253 32.02 43.895 31.3878 51.1913L46.6449 63.2445V47.5752C42.5683 43.4587 39.3103 40.574 32.5592 33.9062Z" stroke="#110545" stroke-width="2"/>
<path d="M42.5595 68.4121L29.0534 54.709C26.3481 55.4446 17.1769 56.8292 10.1387 57.7436C16.1829 62.8724 21.3072 67.662 26.1401 71.6626C33.1412 70.2457 34.8832 69.8136 42.5595 68.4121Z" stroke="#110545" stroke-width="2"/>
<path d="M90.8474 99.3145C91.2781 101.037 91.2525 103.309 89.7066 105.417C87.9838 107.766 85.2877 108.398 82.8203 107.928" stroke="#110545" stroke-width="2"/>
<path d="M139.132 65.3213V62.2684L146.216 54.9769C147.797 53.3171 148.587 51.9339 148.587 50.8273C148.587 50.0171 148.331 49.3651 147.817 48.8711C147.323 48.3771 146.681 48.1301 145.89 48.1301C144.329 48.1301 143.173 48.9402 142.422 50.5605L138.984 48.545C139.636 47.1223 140.575 46.0355 141.8 45.2846C143.025 44.5337 144.369 44.1583 145.831 44.1583C147.708 44.1583 149.319 44.7511 150.662 45.9367C152.006 47.1025 152.678 48.6833 152.678 50.6791C152.678 52.8329 151.542 55.0461 149.269 57.3185L145.209 61.3792H153.004V65.3213H139.132ZM169.556 51.3608C169.556 52.9614 169.141 54.3643 168.311 55.5697H168.341L161.879 65.3213H157.196L161.82 58.5634C159.666 58.5238 157.907 57.8421 156.544 56.5182C155.2 55.1745 154.528 53.4554 154.528 51.3608C154.528 49.2465 155.22 47.5175 156.603 46.1738C158.006 44.8301 159.814 44.1583 162.027 44.1583C164.26 44.1583 166.068 44.8301 167.452 46.1738C168.854 47.4977 169.556 49.2267 169.556 51.3608ZM158.589 51.3608C158.589 52.3883 158.915 53.2084 159.567 53.8209C160.239 54.4335 161.059 54.7398 162.027 54.7398C163.035 54.7398 163.865 54.4335 164.517 53.8209C165.169 53.2084 165.495 52.3883 165.495 51.3608C165.495 50.3333 165.169 49.5231 164.517 48.9303C163.865 48.3178 163.035 48.0115 162.027 48.0115C161.059 48.0115 160.239 48.3178 159.567 48.9303C158.915 49.5429 158.589 50.3531 158.589 51.3608ZM170.799 65.3213V62.2684L177.883 54.9769C179.463 53.3171 180.254 51.9339 180.254 50.8273C180.254 50.0171 179.997 49.3651 179.483 48.8711C178.989 48.3771 178.347 48.1301 177.556 48.1301C175.995 48.1301 174.839 48.9402 174.089 50.5605L170.65 48.545C171.302 47.1223 172.241 46.0355 173.466 45.2846C174.691 44.5337 176.035 44.1583 177.497 44.1583C179.374 44.1583 180.985 44.7511 182.329 45.9367C183.672 47.1025 184.344 48.6833 184.344 50.6791C184.344 52.8329 183.208 55.0461 180.935 57.3185L176.875 61.3792H184.67V65.3213H170.799ZM200.653 53.1392V56.7257H195.763V61.6163H192.176V56.7257H187.315V53.1392H192.176V48.2783H195.763V53.1392H200.653Z" fill="white"/>
</svg>
