<svg width="277" height="223" viewBox="0 0 277 223" fill="none" xmlns="http://www.w3.org/2000/svg">
<path fill-rule="evenodd" clip-rule="evenodd" d="M83.8871 36.7032C63.4301 46.0371 46.2161 63.5686 37.3176 86.88C19.9585 132.356 40.847 182.467 83.8286 198.874C104.361 206.712 126.244 205.459 145.406 197.056C145.912 196.834 146.501 197.064 146.723 197.57C146.945 198.076 146.715 198.666 146.209 198.887C126.921 208.41 102.393 208.836 81.337 200.799C34.0332 182.742 15.6256 131.594 33.3421 85.1819C42.4299 61.3747 60.9132 42.8898 81.8433 33.3401C115.656 17.9123 156.686 24.8324 175.929 59.86L176.255 45.7962C176.255 45.2439 176.703 44.7962 177.255 44.7962C177.807 44.7962 178.255 45.2439 178.255 45.7962L178.255 65.9665L159.654 58.4C159.142 58.1919 158.896 57.6085 159.104 57.0969C159.312 56.5853 159.896 56.3393 160.407 56.5474L173.69 61.2133C155.246 27.3364 117.415 21.4055 83.8871 36.7032Z" fill="#110545"/>
<path d="M136.502 52.5168L119.419 46.9932L116.3 50.0442C90.9545 51.3765 65.6178 68.592 52.4357 96.2785C36.1987 130.381 43.9193 168.785 69.1406 187.492L68.2909 190.299L83.8576 195.337C115.369 206.536 152.972 188.24 170.086 152.294C188.184 114.283 176.519 70.9293 144.03 55.4609C142.434 54.7011 140.818 54.0227 139.185 53.4241L139.198 53.3883L137.761 52.9237C137.342 52.7829 136.923 52.6473 136.502 52.5168Z" fill="#110545"/>
<path d="M153.379 146.742C135.453 184.392 94.9792 202.256 63.1172 187.086C31.2553 171.916 19.6078 129.236 37.5341 91.5854C55.4604 53.9347 95.9339 36.0708 127.796 51.2409C159.658 66.411 171.305 109.091 153.379 146.742Z" fill="#3852CE" stroke="#110545" stroke-width="2"/>
<path fill-rule="evenodd" clip-rule="evenodd" d="M68.8563 175.032C94.8467 187.407 128.142 172.899 142.958 141.779C157.775 110.66 148.048 75.6682 122.057 63.2936C96.0669 50.9191 65.1049 65.8299 50.2883 96.9495C35.4717 128.069 42.8658 162.658 68.8563 175.032ZM68.0358 176.756C95.2218 189.7 129.537 174.407 144.681 142.6C159.826 110.792 150.064 74.5141 122.878 61.5703C95.6918 48.6265 61.3764 63.9186 46.2321 95.7262C31.0879 127.534 40.8497 163.812 68.0358 176.756Z" fill="#110545"/>
<path fill-rule="evenodd" clip-rule="evenodd" d="M100.435 89.3672L106.298 90.8834L95.76 116.757L111.15 122.217L109.054 128.45L87.8223 120.488L100.435 89.3672Z" fill="white"/>
<path fill-rule="evenodd" clip-rule="evenodd" d="M91.3889 68.0547L92.2657 82.3771L88.2732 82.6216L87.3963 68.2991L91.3889 68.0547ZM127.705 75.1816L119.083 87.3119L115.823 84.9944L124.445 72.8641L127.705 75.1816ZM58.836 90.0437L68.1894 98.0818L65.5823 101.115L56.2289 93.0774L58.836 90.0437ZM146.073 113.126L132.043 115.026L131.506 111.062L145.536 109.162L146.073 113.126ZM47.5156 127.886L59.9382 125.547L60.6781 129.478L48.2556 131.817L47.5156 127.886ZM131.938 155.487L120.977 146.133L123.573 143.091L134.534 152.444L131.938 155.487ZM62.2988 161.187L69.8984 149.787L73.2266 152.006L65.627 163.405L62.2988 161.187ZM93.8224 172.965V158.642H97.8224V172.965H93.8224Z" fill="white"/>
<path d="M218.101 112.471C222.383 118.667 231.701 122.623 235.111 123.704C235.111 146.995 228.298 175.695 208.122 194.456C201.726 200.403 193.988 205.351 184.698 208.812C175.323 205.36 167.533 200.412 161.108 194.456C140.97 175.782 134.26 147.195 134.26 123.704L134.372 123.671C138.523 122.455 146.486 120.122 150.888 114.478C155.545 108.507 156.013 101.799 156.355 98.306C171.304 97.501 197.534 98.3061 213.925 98.306C214.039 101.229 213.818 106.276 218.101 112.471Z" fill="white"/>
<path fill-rule="evenodd" clip-rule="evenodd" d="M216.455 113.608C212.684 108.152 212.126 103.439 211.989 100.303C207.177 100.286 201.681 100.215 195.954 100.14C182.739 99.9671 168.294 99.7783 158.177 100.22C157.773 104.032 156.793 110.16 152.465 115.708C149.996 118.873 146.596 121.034 143.388 122.544C140.801 123.762 138.247 124.599 136.269 125.195C136.549 148.099 143.32 175.234 162.468 192.989C168.542 198.621 175.884 202.365 184.698 205.71C193.429 202.357 200.33 197.838 206.377 192.215C225.584 174.355 232.302 147.922 232.576 125.195C226.66 122.994 220.05 118.809 216.455 113.608ZM235.111 123.704C231.701 122.623 222.383 118.667 218.101 112.471C214.165 106.778 214.033 102.055 213.949 99.058C213.942 98.7937 213.935 98.5429 213.925 98.306C208.741 98.306 202.571 98.2255 196.086 98.1408C182.069 97.9579 166.575 97.7556 156.355 98.306C156.341 98.4489 156.327 98.5971 156.312 98.7505C155.968 102.346 155.355 108.752 150.888 114.478C146.486 120.122 138.523 122.455 134.372 123.671L134.26 123.704C134.26 147.195 140.97 175.782 161.108 194.456C167.533 200.412 175.323 205.36 184.698 208.812C193.988 205.351 201.909 200.403 208.305 194.456C228.481 175.695 235.111 146.995 235.111 123.704Z" fill="#110545"/>
<path d="M227.856 127.975C227.856 154.236 217.738 188.527 184.697 200.837C151.509 188.618 141.516 154.501 141.516 127.975L141.612 127.947C151.674 124.999 160.153 117.604 162.431 106.231C176.707 106.231 193.685 106.232 207.718 106.231C208.861 116.755 218.904 125.14 227.856 127.975Z" fill="white"/>
<path fill-rule="evenodd" clip-rule="evenodd" d="M141.516 127.975C141.516 154.501 151.509 188.618 184.697 200.837C217.738 188.527 227.856 154.236 227.856 127.975C218.904 125.14 208.861 116.755 207.718 106.231L162.431 106.231C160.153 117.604 151.674 124.999 141.612 127.947L141.516 127.975ZM164.026 108.231C161.254 119.05 153.105 126.227 143.526 129.441C143.887 155.217 153.837 185.861 184.697 197.638C215.438 185.767 223.857 154.974 224.215 129.441C219.867 127.821 216.822 125.202 213.214 121.601C209.63 118.023 206.595 113.33 205.587 108.231H164.026Z" fill="#110545"/>
<path d="M172.87 146.404C172.87 143.636 174.986 141.622 177.863 141.622C179.312 141.622 180.578 142.125 181.429 143.086L180.555 143.933C179.818 143.178 178.944 142.835 177.909 142.835C175.792 142.835 174.536 144.345 174.536 146.404C174.353 148.281 175.7 149.745 177.84 149.745C178.519 149.745 179.841 149.654 180.555 148.899L181.429 149.745C180.578 150.706 179.312 151.21 177.84 151.21C174.986 151.187 172.87 149.173 172.87 146.404Z" fill="#110545"/>
<path d="M155.533 142.881H158.754V151.072H160.347V142.881H163.31V141.714H155.533V142.881Z" fill="#110545"/>
<path d="M171.829 151.072V149.928L166.48 149.882V146.862L171.069 146.908V145.764L166.48 145.718V142.835L171.645 142.881V141.714H164.995V151.072H171.829Z" fill="#110545"/>
<path d="M191.743 144.254L191.766 151.072H193.349V141.622H191.743L188.061 148.281L184.127 141.714H183.022V151.072H184.311V144.299L187.716 149.951H188.337L191.743 144.254Z" fill="#110545"/>
<path fill-rule="evenodd" clip-rule="evenodd" d="M201.803 148.739H196.81L195.774 151.072H194.394L198.65 141.714L200.444 141.622L204.472 151.072H202.861L201.803 148.739ZM201.342 147.663L199.318 143.087L197.293 147.663H201.342Z" fill="#110545"/>
<path d="M214.254 151.072L214.085 141.622L212.347 141.714V148.693L206.71 141.714H205.605V151.072H207.29V144.394L212.577 151.072H214.254Z" fill="#110545"/>
<path d="M172.87 146.404C172.87 143.636 174.986 141.622 177.863 141.622C179.312 141.622 180.578 142.125 181.429 143.086L180.555 143.933C179.818 143.178 178.944 142.835 177.909 142.835C175.792 142.835 174.536 144.345 174.536 146.404C174.353 148.281 175.7 149.745 177.84 149.745C178.519 149.745 179.841 149.654 180.555 148.899L181.429 149.745C180.578 150.706 179.312 151.21 177.84 151.21C174.986 151.187 172.87 149.173 172.87 146.404Z" stroke="#110545" stroke-width="0.5"/>
<path d="M155.533 142.881H158.754V151.072H160.347V142.881H163.31V141.714H155.533V142.881Z" stroke="#110545" stroke-width="0.5"/>
<path d="M171.829 151.072V149.928L166.48 149.882V146.862L171.069 146.908V145.764L166.48 145.718V142.835L171.645 142.881V141.714H164.995V151.072H171.829Z" stroke="#110545" stroke-width="0.5"/>
<path d="M191.743 144.254L191.766 151.072H193.349V141.622H191.743L188.061 148.281L184.127 141.714H183.022V151.072H184.311V144.299L187.716 149.951H188.337L191.743 144.254Z" stroke="#110545" stroke-width="0.5"/>
<path fill-rule="evenodd" clip-rule="evenodd" d="M201.803 148.739H196.81L195.774 151.072H194.394L198.65 141.714L200.444 141.622L204.472 151.072H202.861L201.803 148.739ZM201.342 147.663L199.318 143.087L197.293 147.663H201.342Z" stroke="#110545" stroke-width="0.5"/>
<path d="M214.254 151.072L214.085 141.622L212.347 141.714V148.693L206.71 141.714H205.605V151.072H207.29V144.394L212.577 151.072H214.254Z" stroke="#110545" stroke-width="0.5"/>
<path fill-rule="evenodd" clip-rule="evenodd" d="M234.196 194.538C234.546 194.11 236.029 194.532 236.456 194.881L252.088 207.843C252.516 208.192 252.58 208.822 252.23 209.25C251.881 209.678 251.251 209.742 250.823 209.393L234.339 195.945C233.911 195.596 233.847 194.966 234.196 194.538Z" fill="#110545"/>
<path fill-rule="evenodd" clip-rule="evenodd" d="M252.388 80.4359C252.039 80.008 250.867 80.0867 250.439 80.4358L234.196 93.4385C233.768 93.7876 233.847 95.1995 234.196 95.6274C234.545 96.0554 235.543 96.5095 236.978 95.6274L251.918 82.9976C252.346 82.6485 252.737 80.8638 252.388 80.4359Z" fill="#110545"/>
<path fill-rule="evenodd" clip-rule="evenodd" d="M245.283 174.053C245.521 173.554 246.118 173.343 246.616 173.58L266.29 181.11C266.789 181.348 266.528 183.573 266.29 184.071C266.052 184.57 265.455 184.781 264.957 184.543L245.755 175.386C245.257 175.148 245.045 174.551 245.283 174.053Z" fill="#110545"/>
<path fill-rule="evenodd" clip-rule="evenodd" d="M250.472 118.799C250.71 119.298 252.039 119.824 252.537 119.586L271.479 110.924C271.978 110.687 271.717 109.279 271.479 108.78C271.242 108.282 269.965 107.664 269.466 107.902L250.945 117.466C250.446 117.704 250.235 118.301 250.472 118.799Z" fill="#110545"/>
<path fill-rule="evenodd" clip-rule="evenodd" d="M252.93 148.34C252.944 147.788 254.292 146.466 254.844 146.48L274.716 147.128C275.268 147.142 276.211 148.36 276.197 148.912C276.183 149.464 275.725 149.901 275.173 149.887L253.905 149.364C253.353 149.351 252.917 148.892 252.93 148.34Z" fill="#110545"/>
</svg>
