<svg width="376" height="301" viewBox="0 0 376 301" fill="none" xmlns="http://www.w3.org/2000/svg">
<path d="M203.97 174.468L263.659 206.548C264.35 206.92 264.364 207.906 263.684 208.296L202.429 243.495C202.124 243.67 201.75 243.673 201.444 243.502L139.163 208.79C138.464 208.401 138.483 207.39 139.195 207.026L203.042 174.458C203.334 174.309 203.681 174.312 203.97 174.468Z" fill="#110545" stroke="#110545" stroke-width="2"/>
<path d="M212.397 224.968L186.721 218.781C197.093 184.784 222.333 162.597 256.634 154.128L268.389 176.401C246.572 176.401 217.347 195.271 212.397 224.968Z" fill="white"/>
<path fill-rule="evenodd" clip-rule="evenodd" d="M257.154 152.97L270.048 177.401H268.389C257.744 177.401 245.197 182.017 234.689 190.332C224.193 198.638 215.811 210.573 213.384 225.132L213.208 226.192L185.455 219.505L185.765 218.489C196.248 184.129 221.78 161.704 256.395 153.157L257.154 152.97ZM191.972 218.489L209.499 222.847C212.243 208.191 221.706 196.943 232.262 188.589C242.534 180.46 255.963 175.878 266.749 175.435L256.116 155.289C222.857 163.732 202.343 185.678 191.972 218.489Z" fill="#110545"/>
<path d="M152.468 180.037C150.134 164.415 153.534 152.365 155.105 147.801L178.501 147.801C175.957 152.739 173.176 168.499 176.409 183.941C179.641 199.384 193.939 231.81 202.468 245.951L169.976 230.089C165.112 219.914 154.802 195.659 152.468 180.037Z" fill="white"/>
<path fill-rule="evenodd" clip-rule="evenodd" d="M180.141 146.801L179.39 148.259C178.205 150.558 176.889 155.583 176.284 162.025C175.683 168.434 175.796 176.132 177.387 183.736C178.982 191.354 183.33 203.245 188.371 215.041C193.408 226.826 199.094 238.42 203.324 245.434L205.074 248.336L169.224 230.835L169.073 230.521C164.21 220.345 153.838 195.97 151.479 180.185C149.113 164.35 152.557 152.129 154.159 147.475L154.391 146.801L180.141 146.801ZM155.823 148.801C146.891 176.008 160.542 204.084 172.168 228.538L196.069 241.285C192.022 234.111 189.454 225.396 185.029 215.041C176.434 194.929 168.533 170.604 176.967 148.801L155.823 148.801Z" fill="#110545"/>
<path d="M165.609 257.767L188.778 257.682C195.568 212.348 168.949 187.973 143.029 174.11L130.388 197.654C134.226 197.374 144.147 201.118 153.994 211.643C165.422 223.858 167.275 245.073 165.609 257.767Z" fill="white"/>
<path fill-rule="evenodd" clip-rule="evenodd" d="M142.619 172.757L143.499 173.228C156.538 180.202 169.828 189.857 178.999 203.538C188.188 217.244 193.196 234.924 189.766 257.83L189.638 258.679L164.467 258.771L164.616 257.637C165.435 251.393 165.391 243.027 163.73 234.722C162.067 226.409 158.804 218.25 153.262 212.327C148.412 207.142 143.558 203.644 139.469 201.481C135.335 199.294 132.098 198.532 130.46 198.652L128.646 198.784L142.619 172.757ZM142.619 176.946L132.022 196.724C134.195 197.002 137.634 196.171 140.92 197.909C153.672 204.654 164.023 220.216 166.736 233.782C168.344 241.82 167.434 250.458 166.736 256.763L187.911 256.685C191.022 234.672 186.128 217.763 177.338 204.651C168.62 191.647 155.21 183.793 142.619 176.946Z" fill="#110545"/>
<path d="M166.446 211.561C170.185 202.212 180.257 195.749 185.244 192.764L186.72 219.336C182.979 220.714 182.192 223.863 181.798 226.225C181.405 228.587 183.669 233.771 185.244 234.984L165.133 223.863C164.674 223.371 163.233 219.595 166.446 211.561Z" fill="white"/>
<path fill-rule="evenodd" clip-rule="evenodd" d="M186.151 191.056L187.76 220.019L187.066 220.275C183.875 221.45 183.17 224.079 182.785 226.39C182.717 226.798 182.756 227.421 182.926 228.208C183.093 228.977 183.369 229.828 183.708 230.657C184.048 231.485 184.442 232.271 184.837 232.911C185.245 233.574 185.606 234.001 185.854 234.193L184.76 235.86L164.511 224.662L164.402 224.546C164.118 224.241 163.89 223.72 163.728 223.126C163.553 222.485 163.421 221.629 163.413 220.549C163.395 218.385 163.872 215.303 165.517 211.19C167.469 206.311 171.048 202.235 174.719 199.023C178.395 195.807 182.221 193.408 184.73 191.906L186.151 191.056ZM167.756 223.662L182.173 232.144C182.064 231.904 181.958 231.661 181.857 231.415C181.483 230.501 181.168 229.537 180.972 228.632C180.78 227.745 180.683 226.834 180.812 226.061C181.191 223.784 181.987 220.387 185.682 218.684L184.338 194.486C175.863 199.743 164.511 209.295 167.756 223.662Z" fill="#110545"/>
<path d="M266.068 223.163C266.068 224.272 266.068 257.623 266.068 263.099L202.329 299.324L136.609 263.099V223.163L202.329 243.502L266.068 223.163Z" fill="#110545"/>
<path d="M202.329 299.324L266.068 263.099C266.068 257.623 266.068 224.272 266.068 223.163L202.329 243.502M202.329 299.324L136.609 263.099V223.163L202.329 243.502M202.329 299.324V243.502" stroke="#110545" stroke-width="2"/>
<path d="M266.068 223.163C266.068 224.272 266.068 257.623 266.068 263.099L202.329 299.324M202.329 299.324L136.609 263.099V223.163M202.329 299.324V243.502" stroke="white" stroke-width="2"/>
<path d="M217.301 262.754L202.34 243.454L264.279 207.231L280.051 225.738L217.301 262.754Z" fill="#3852CE" stroke="#110545" stroke-width="2"/>
<path d="M189.023 262.3L202.186 243.473L137.597 207.871L124.096 224.096L189.023 262.3Z" fill="#3852CE" stroke="#110545" stroke-width="2"/>
<path d="M116.752 135.824C119.839 143.58 118.161 150.332 116.937 152.738C115.711 153.354 112.116 154.852 107.547 155.908C102.978 156.964 97.5891 154.245 95.4656 152.754L85.8925 141.95C85.7839 137.961 85.3995 129.351 84.73 126.826C83.8932 123.669 83.348 118.416 78.5009 117.406C73.6538 116.396 73.3151 120.141 72.055 128.883C71.0469 135.877 71.8104 139.935 72.3182 141.09C72.3545 141.44 71.7239 142.877 68.9108 145.822C65.3943 149.504 61.6391 150.184 59.7349 154.542C58.2114 158.029 60.7011 161.609 62.1363 162.963L60.8732 163.4C58.9419 163.62 55.0446 165.073 54.9066 169.125C54.7686 173.178 65.6585 179.002 71.1207 181.407C71.2317 182.288 71.5097 184.422 71.7342 185.912C72.0147 187.774 77.3716 191.727 81.1676 195.785C84.9636 199.842 97.4138 202.07 109.876 203.279C119.845 204.246 126.373 200.771 128.392 198.913C128.842 199.797 130.797 201.739 135.012 202.43C140.28 203.294 144.817 196.685 148.261 185.446C151.017 176.455 145.989 170.33 143.131 168.391C143.298 166.774 143.208 162.125 141.515 156.471C139.4 149.402 134.007 146.078 131.501 141.974C128.995 137.87 127.3 133.594 129.298 125.939C131.297 118.284 132.509 117.067 132.015 115.532C131.521 113.998 125.79 108.541 120.146 114.989C114.502 121.438 112.894 126.129 116.752 135.824Z" fill="white"/>
<path d="M76.0694 29.7982C86.6785 27.3014 103.787 28.0711 116.066 44.6499C131.961 66.1096 114.063 88.2262 109.373 110.242L85.3397 116.942C73.0357 98.5624 47.5979 92.433 47.2911 66.8949C47.016 43.9925 65.4603 32.2949 76.0694 29.7982Z" fill="white"/>
<path fill-rule="evenodd" clip-rule="evenodd" d="M46.2905 66.9072C46.0078 43.3686 64.9606 31.3853 75.8397 28.825C86.6989 26.2694 104.278 27.0544 116.869 44.055C125.075 55.1336 124.517 66.3924 121.401 77.5076C120.047 82.3367 118.199 87.1781 116.368 91.9741C116.1 92.6765 115.833 93.3779 115.567 94.0781C113.478 99.5834 111.505 105.029 110.351 110.45L110.224 111.043L84.9106 118.1L84.5081 117.499C81.5045 113.012 77.6844 109.251 73.5927 105.717C71.7048 104.086 69.7689 102.512 67.8307 100.936C67.6682 100.804 67.5056 100.672 67.3431 100.54C65.2472 98.8347 63.1545 97.1231 61.1531 95.3521C53.1308 88.2534 46.4489 80.0905 46.2905 66.9072ZM74.9 31.4699C64.5608 33.9031 48.0229 44.6169 48.2904 66.8831C48.4388 79.2379 54.6292 86.9087 62.4785 93.8543C64.4449 95.5943 66.5077 97.2819 68.6051 98.9881C68.7685 99.121 68.9322 99.254 69.096 99.3872C71.0299 100.96 72.9884 102.552 74.9 104.203C78.8705 107.632 82.6812 111.35 85.7613 115.787L108.749 108.855C112.137 91.9742 115.504 88.6939 118.641 77.5076C121.672 66.6957 121.127 55.0058 113.438 44.6248C102.548 29.9215 85.2591 29.032 74.9 31.4699Z" fill="#110545"/>
<path fill-rule="evenodd" clip-rule="evenodd" d="M73.0748 61.2514C74.0651 60.5718 75.2555 60.3527 76.5212 60.5649C77.3083 60.6968 77.9888 61.0632 78.5704 61.5603C79.9738 60.4204 81.6585 59.5613 83.3862 59.0331C85.3571 58.4305 87.5202 58.2169 89.5447 58.5407C90.0076 57.654 90.7124 56.8924 91.736 56.4383C93.8724 55.4906 96.0658 56.2321 97.8169 57.9501C99.5537 59.6541 100.977 62.4005 101.821 65.8767C102.676 69.3948 103.448 77.7252 104.034 86.6117C104.622 95.5391 105.029 105.151 105.135 111.31L103.135 111.344C103.03 105.224 102.625 95.6451 102.038 86.7432C101.449 77.8002 100.683 69.663 99.878 66.349C99.0887 63.1012 97.8025 60.7377 96.4162 59.3777C95.0442 58.0316 93.7006 57.7548 92.547 58.2665C92.1538 58.441 91.8259 58.7108 91.5632 59.0687C93.0747 59.6358 94.4252 60.5789 95.4455 61.9739C96.5462 63.4787 96.9812 64.9365 96.8118 66.2032C96.6401 67.4875 95.8538 68.4628 94.7855 68.897C93.7255 69.3279 92.4746 69.1936 91.4059 68.4691C90.3375 67.7449 89.5003 66.4741 89.0843 64.6872C88.7755 63.3609 88.6682 61.8544 88.9114 60.4679C87.349 60.2663 85.6408 60.4352 83.971 60.9457C82.4233 61.4189 81.0108 62.1544 79.8655 63.0809C79.8818 63.1063 79.898 63.1317 79.914 63.1572C80.7053 64.4137 81.2577 65.9682 81.589 67.4515C82.0155 69.3613 81.9347 70.9124 81.4282 72.0424C80.9052 73.2093 79.9167 73.911 78.7611 73.9052C76.5006 73.894 74.7904 71.4076 74.9687 68.0838C75.0741 66.1192 75.8874 64.3913 77.1211 62.9605C76.8121 62.7287 76.4998 62.5892 76.1906 62.5374C75.3641 62.3988 74.7133 62.5526 74.2065 62.9004C73.6871 63.2569 73.2206 63.8857 72.9112 64.8657C72.2843 66.8513 72.3815 70.0571 73.7556 74.2985C74.9962 78.1278 78.313 85.5832 82.0201 93.3925C85.717 101.18 89.7673 109.248 92.4444 114.269L89.5447 115.182C86.8497 110.128 82.4696 101.201 78.7628 93.3925C75.0661 85.605 72.2913 78.2729 71.0037 74.2986C69.569 69.8701 70.1989 66.8137 71.004 64.2636C71.4105 62.9757 72.097 61.9225 73.0748 61.2514ZM78.4124 64.5433C77.562 65.6282 77.0369 66.8672 76.9659 68.191C76.813 71.0405 78.2258 71.9026 78.7711 71.9053C79.0184 71.9065 79.3534 71.7815 79.6032 71.2244C79.8694 70.6304 80.0107 69.5601 79.6371 67.8875C79.3692 66.6881 78.9526 65.5012 78.4124 64.5433ZM90.8595 60.9463C90.7017 61.9764 90.7797 63.1492 91.0322 64.2337C91.3634 65.6563 91.9724 66.437 92.5281 66.8136C93.0834 67.19 93.6342 67.2061 94.0324 67.0442C94.4225 66.8857 94.751 66.5252 94.8295 65.9382C94.9103 65.3336 94.7308 64.3846 93.8312 63.1546C93.0807 62.1286 92.0522 61.3984 90.8595 60.9463Z" fill="#110545"/>
<path d="M109.483 110.533L85.2227 117.072C86.9587 123.85 88.493 128.649 90.7516 131.174C93.6512 134.415 97.3669 135.443 102.413 133.904C107.772 132.27 109.952 130.717 111.346 127.967C113.474 123.768 111.846 118.122 109.483 110.533Z" fill="#110545" stroke="#110545" stroke-width="2"/>
<path d="M82.9258 118.824C92.3668 119.685 102.831 117.554 111.818 114.71" stroke="#3852CE" stroke-width="2"/>
<path d="M84.2852 123.572C93.7262 124.433 104.191 122.302 113.177 119.458" stroke="#3852CE" stroke-width="2"/>
<path d="M85.6348 128.166C94.6943 128.992 104.736 126.947 113.359 124.218" stroke="#3852CE" stroke-width="2"/>
<path fill-rule="evenodd" clip-rule="evenodd" d="M122.888 111.959C124.66 111.173 126.63 111.06 128.702 111.947C130.549 112.737 131.821 113.569 132.509 114.632C133.245 115.767 133.197 116.966 132.904 118.141C132.711 118.914 132.375 119.801 132.018 120.746C131.862 121.158 131.702 121.582 131.547 122.011C131.02 123.481 130.489 125.198 130.185 127.281C129.551 131.636 129.319 134.198 130.333 137.113C131.369 140.091 133.733 143.518 138.624 149.418C146.797 159.274 143.855 171.565 141.397 176.467C141.149 176.961 140.548 177.16 140.054 176.913C139.561 176.665 139.361 176.064 139.609 175.571C141.894 171.014 143.251 159.859 135.803 150.875C130.931 145 129.376 141.03 128.206 137.665C127.014 134.238 127.573 131.334 128.206 126.993C128.536 124.73 129.112 122.875 129.665 121.336C129.856 120.805 130.036 120.329 130.201 119.894C130.531 119.022 130.8 118.314 130.963 117.657C131.193 116.737 131.136 116.191 130.831 115.719C130.479 115.176 129.677 114.539 127.916 113.786C125.483 112.979 122.433 115.21 120.52 117.657C116.008 123.428 115.382 128.731 118.389 135.436C119.853 138.702 121.533 142.224 120.304 146.066C118.793 150.794 118.617 156.406 119.964 161.281C121.308 166.146 123.154 170.827 127.829 173.101C128.326 173.343 128.533 173.941 128.291 174.438C128.05 174.934 127.451 175.141 126.955 174.9C121.653 172.321 118.457 167.594 116.996 162.307C115.538 157.031 115.785 151.138 117.406 146.066C118.367 143.06 117.154 139.984 115.64 136.606C115.562 136.432 115.483 136.258 115.404 136.083C114.741 134.611 114.055 133.089 113.606 131.594C113.099 129.909 112.855 128.151 113.312 126.401C114.119 123.311 115.87 118.954 118.389 115.733C119.649 114.12 121.152 112.728 122.888 111.959Z" fill="#110545"/>
<path fill-rule="evenodd" clip-rule="evenodd" d="M74.6857 141.498C76.0109 141.663 77.2086 142.487 78.3123 143.926C80.2342 146.431 79.9157 149.389 78.9333 151.86C77.9499 154.334 76.2294 156.536 74.9413 157.823C74.5506 158.213 73.9174 158.213 73.5271 157.822C73.1369 157.431 73.1373 156.798 73.528 156.408C74.6812 155.256 76.2186 153.275 77.0748 151.121C77.9322 148.964 78.0351 146.851 76.7254 145.143C75.8095 143.949 75.0431 143.558 74.4383 143.483C73.8163 143.405 73.1147 143.628 72.2638 144.199C71.4127 144.769 70.5393 145.6 69.5946 146.543C69.4478 146.69 69.2991 146.839 69.1489 146.99C68.3595 147.783 67.5257 148.621 66.6807 149.326C66.126 149.788 65.602 150.215 65.1097 150.615C63.8401 151.648 62.781 152.51 61.9483 153.382C60.8336 154.549 60.2827 155.581 60.2698 156.829C60.259 157.868 60.6624 159.024 61.2413 160.099C61.8138 161.162 62.5054 162.049 62.9469 162.521C63.3243 162.924 63.3033 163.557 62.9 163.934C62.4967 164.312 61.8639 164.291 61.4866 163.887C60.9347 163.298 60.1396 162.272 59.4804 161.048C58.8275 159.835 58.2541 158.33 58.2699 156.809C58.2901 154.856 59.2014 153.362 60.5021 152C61.428 151.031 62.6332 150.051 63.9457 148.983C64.4191 148.598 64.9064 148.201 65.3996 147.79C66.1668 147.15 66.9229 146.391 67.7136 145.597C67.8682 145.441 68.0241 145.285 68.1817 145.127C69.1186 144.192 70.1171 143.23 71.1501 142.538C72.1831 141.845 73.3777 141.335 74.6857 141.498Z" fill="#110545"/>
<path fill-rule="evenodd" clip-rule="evenodd" d="M94.9984 157.347C95.0621 157.895 94.669 158.392 94.1204 158.455C92.7465 158.615 89.0505 158.606 84.5836 157.44L76.6973 155.381C76.163 155.242 75.8428 154.696 75.9823 154.161C76.1218 153.627 76.6681 153.307 77.2025 153.446L85.0888 155.505C89.3353 156.613 92.7816 156.597 93.8898 156.469C94.4384 156.405 94.9347 156.798 94.9984 157.347Z" fill="#110545"/>
<path fill-rule="evenodd" clip-rule="evenodd" d="M141.864 168.503C142.129 168.018 142.737 167.84 143.222 168.105C146.992 170.167 152.469 177.484 147.554 190.603C145.155 197.006 142.314 201.043 138.974 202.588C135.491 204.199 131.867 202.951 128.396 199.853C127.984 199.485 127.948 198.853 128.316 198.441C128.684 198.029 129.316 197.993 129.728 198.361C138.411 202.551 142.499 196.102 145.397 188.367C150.01 176.054 145.045 171.382 142.262 169.86C141.778 169.595 141.6 168.988 141.864 168.503Z" fill="#110545"/>
<path fill-rule="evenodd" clip-rule="evenodd" d="M100.223 174.375C99.9387 174.406 99.6482 174.438 99.3514 174.469C94.3932 174.983 92.1684 174.645 88.6166 174.106C88.5352 174.094 88.4532 174.081 88.3704 174.069C87.5808 173.949 86.9883 174.004 86.4865 174.152C85.9753 174.303 85.5016 174.568 84.9612 174.949C84.6863 175.143 84.3871 175.375 84.0574 175.631C83.1478 176.336 82.0061 177.222 80.504 177.98C79.4065 178.534 78.3643 178.8 77.4328 178.972C77.055 179.042 76.6857 179.098 76.3471 179.149C76.2742 179.16 76.2028 179.171 76.1329 179.181C75.7285 179.243 75.3744 179.302 75.0487 179.378C74.4066 179.528 73.948 179.732 73.5797 180.085C73.2072 180.442 72.8347 181.041 72.5458 182.148C72.0313 184.118 73.0041 185.156 74.593 186.969C84.7789 198.594 98.561 200.285 113.124 200.749C123.212 201.071 128.086 196.375 129.796 193.576C130.084 193.105 131.937 193.288 132.408 193.576C132.879 193.864 133.028 194.479 132.74 194.951C130.716 198.263 124.042 204.526 113.124 204.178C106.498 203.966 99.2478 203.037 93.0698 201.525C89.9809 200.77 87.139 199.864 84.7679 198.819C82.414 197.781 80.4447 196.572 79.1784 195.173C78.0794 193.958 76.9409 192.877 75.8457 191.84L75.7536 191.753C74.7028 190.759 73.6789 189.79 72.8263 188.817C71.0541 186.795 69.8506 184.554 70.6106 181.642C70.9589 180.308 71.4735 179.333 72.1959 178.641C72.9224 177.945 73.7666 177.624 74.593 177.43C75.0015 177.335 75.4232 177.267 75.8306 177.204C75.9072 177.193 75.9832 177.181 76.059 177.17C76.3962 177.119 76.7269 177.069 77.0698 177.005C77.8964 176.853 78.7362 176.632 79.6024 176.195C80.9208 175.529 81.8178 174.833 82.6849 174.159C83.0548 173.872 83.4192 173.589 83.8086 173.314C84.4357 172.872 85.1133 172.472 85.9197 172.234C86.7355 171.993 87.6269 171.933 88.6702 172.091C88.7596 172.105 88.8481 172.118 88.9357 172.132C92.405 172.659 94.4401 172.968 99.1449 172.479C99.4112 172.452 99.6816 172.422 99.9537 172.392C100.906 172.288 101.878 172.181 102.765 172.151C103.893 172.113 105.067 172.186 106.031 172.651C107.083 173.159 107.774 174.079 107.979 175.43C108.172 176.7 107.937 178.342 107.289 180.433C106.303 183.612 103.504 185.002 100.488 185.46C97.6234 185.895 94.3347 185.542 91.5248 184.955L87.2141 188.042C86.765 188.363 86.1404 188.26 85.8188 187.811C85.4973 187.362 85.6007 186.737 86.0498 186.416L88.9657 184.328C88.4213 184.174 87.91 184.016 87.4408 183.858C86.9173 183.682 86.6355 183.115 86.8114 182.591C86.9874 182.068 87.8469 181.466 88.3704 181.642C92.3775 182.989 95.1839 183.225 99.3514 182.591C102.072 182.178 104.039 181.341 104.973 179.378C106.096 177.016 105.958 174.044 102.833 174.15C102.029 174.177 101.16 174.272 100.223 174.375Z" fill="#110545"/>
<path fill-rule="evenodd" clip-rule="evenodd" d="M105.252 185.392C107.775 182.615 113.116 180.645 116.761 180.286C118.991 180.066 121.264 180.097 123.321 180.4C125.366 180.702 127.264 181.284 128.695 182.216C129.158 182.517 129.24 183.562 128.938 184.024C128.637 184.487 127.773 184.889 127.311 184.587C126.211 183.871 124.624 183.354 122.736 183.075C120.652 182.767 114.105 182.569 105.252 185.392Z" fill="#110545"/>
<path fill-rule="evenodd" clip-rule="evenodd" d="M80.6048 158.767C83.0954 159.178 82.7318 161.309 82.3694 163.256C81.4749 168.061 77.6303 170.267 73.3455 170.84C69.7985 171.314 67.9762 171.118 67.0486 171.118C65.7614 171.118 65.3897 171.685 65.2502 172.219C65.1107 172.754 65.4308 173.3 65.9652 173.44C67.0461 173.722 69.9706 174.091 73.739 173.587C78.5983 172.937 83.8931 169.567 84.9924 163.661C85.4373 161.271 84.8928 159.538 83.8582 158.385C82.8621 157.275 81.5245 156.829 80.5746 156.75L80.3589 156.732L80.1551 156.804C78.5357 157.383 74.6627 158.724 72.0862 159.479C70.9604 159.809 70.0333 159.918 69.0654 160.032C68.7117 160.074 68.3525 160.116 67.9762 160.17C66.5806 160.37 65.1471 160.721 63.4289 161.815C62.8129 162.207 62.1053 162.405 61.2852 162.541C60.938 162.598 60.5898 162.642 60.2216 162.688C60.1517 162.697 60.081 162.705 60.0095 162.714C59.5724 162.77 59.109 162.832 58.6514 162.926C57.7319 163.114 56.7619 163.442 55.9186 164.178C55.0695 164.918 54.4426 165.988 54.0505 167.491C53.649 169.03 54.3314 170.553 55.324 171.859C56.3369 173.192 57.8267 174.506 59.4703 175.722C62.7667 178.159 66.8844 180.342 69.6712 181.612C70.1738 181.841 70.7668 181.62 70.9958 181.117C71.2248 180.614 71.0031 180.021 70.5005 179.792C67.7912 178.558 63.8069 176.44 60.6593 174.113C59.081 172.946 57.7633 171.763 56.9163 170.649C56.0489 169.508 55.819 168.635 55.9857 167.996C56.3038 166.776 56.7597 166.098 57.2329 165.685C57.7118 165.268 58.3036 165.039 59.0526 164.885C59.4293 164.808 59.8269 164.754 60.2608 164.699C60.3266 164.69 60.3934 164.682 60.4611 164.673C60.8288 164.627 61.222 164.578 61.6116 164.514C62.5404 164.36 63.5556 164.105 64.5032 163.502C65.9123 162.604 67.0508 162.323 68.2597 162.15C68.5509 162.108 68.8582 162.072 69.1812 162.034C70.1875 161.916 71.3465 161.78 72.6488 161.399C75.1703 160.66 78.8668 159.384 80.6048 158.767Z" fill="#110545"/>
<path fill-rule="evenodd" clip-rule="evenodd" d="M91.9778 171.181C92.053 171.728 91.6705 172.232 91.1233 172.308C89.3765 172.548 87.9198 172.675 86.3331 172.573C84.7479 172.471 83.0757 172.143 80.8822 171.517C80.3511 171.366 80.0434 170.813 80.195 170.281C80.3465 169.75 80.8999 169.443 81.431 169.594C83.5458 170.198 85.0686 170.487 86.4615 170.577C87.8529 170.666 89.1573 170.559 90.8509 170.326C91.3981 170.251 91.9026 170.634 91.9778 171.181Z" fill="#110545"/>
<path fill-rule="evenodd" clip-rule="evenodd" d="M83.4435 119.458C81.8075 117.341 79.5941 116.207 77.5268 116.113C75.4432 116.019 73.4657 117.006 72.6597 119.117C71.9811 120.893 71.628 123.532 71.386 126.089C71.2711 127.303 71.1817 128.488 71.0981 129.597C70.9987 130.914 70.9074 132.125 70.7909 133.152C70.4318 136.318 71.0185 140.419 71.4403 142.519C71.549 143.06 72.0761 143.411 72.6176 143.303C73.159 143.194 73.5099 142.667 73.4011 142.125C72.9902 140.079 72.455 136.227 72.7782 133.377C72.895 132.347 72.9936 131.05 73.098 129.676L73.098 129.676C73.1829 128.559 73.2717 127.392 73.3771 126.277C73.6215 123.695 73.9599 121.318 74.5281 119.83C74.9689 118.676 76.0419 118.048 77.4364 118.111C78.8472 118.175 80.5395 118.971 81.8609 120.681C82.3106 121.263 82.7617 122.431 83.1603 124.112C83.5486 125.75 83.8568 127.736 84.0962 129.833C84.5748 134.025 84.7692 138.572 84.8008 141.476L84.8048 141.843L94.5685 153.074C94.68 153.202 94.817 153.295 94.9653 153.351C94.9987 153.374 95.0338 153.395 95.0705 153.414C98.7099 155.299 102.446 156.461 106.26 156.446C110.088 156.431 113.922 155.23 117.74 152.504C118.189 152.183 118.293 151.558 117.973 151.109C117.652 150.659 117.027 150.555 116.578 150.876C113.069 153.381 109.633 154.433 106.252 154.446C102.855 154.46 99.44 153.425 95.9902 151.638C95.9789 151.632 95.9676 151.627 95.9562 151.621L86.796 141.085C86.7521 138.126 86.5517 133.709 86.0833 129.606C85.8393 127.469 85.5202 125.396 85.1063 123.65C84.7026 121.948 84.1767 120.407 83.4435 119.458Z" fill="#110545"/>
<path fill-rule="evenodd" clip-rule="evenodd" d="M100.085 155.323C97.2016 155.181 94.4834 159.601 93.6602 161.357C91.3821 166.215 91.7174 169.885 92.0609 170.936C92.2325 171.461 91.9461 172.026 91.4212 172.197C90.8962 172.369 90.3316 172.083 90.1599 171.558C89.6292 169.934 89.3984 165.735 91.8494 160.508C93.079 157.885 94.0477 156.919 95.273 155.961C96.4729 155.023 98.1295 154.307 99.0076 154.459C99.5517 154.554 100.18 154.779 100.085 155.323Z" fill="#110545"/>
<path d="M256.479 185.028C262.038 187.487 263.972 184.303 264.244 182.405C266.186 183.563 271.166 185.709 275.544 185.028C279.922 184.348 286.536 179.886 289.295 177.741C292.709 179.05 300.184 181.586 302.766 181.249C305.993 180.828 319.463 167.638 320.445 164.411C321.231 161.829 318.247 159.313 316.657 158.377C317.873 157.488 320.333 154.617 320.445 150.239C320.558 145.861 316.283 144.673 314.131 144.626C315.815 141.913 318.93 135.758 317.92 132.839C316.909 129.921 311.232 130.127 308.519 130.594C308.893 130.407 309.838 129.247 310.624 126.104C311.606 122.175 310.764 119.65 308.519 118.247C306.274 116.843 284.945 113.195 276.807 114.037C270.296 114.711 265.718 117.124 264.244 118.247C264.244 118.714 263.445 119.369 260.25 118.247C256.256 116.843 249.445 121.474 244.393 132.839C240.352 141.932 243.277 150.711 245.244 153.964C242.136 152.274 235.853 151.221 235.586 160.533C235.252 172.173 249.531 181.956 256.479 185.028Z" fill="white"/>
<path fill-rule="evenodd" clip-rule="evenodd" d="M245.884 154.736C245.62 155.221 245.013 155.401 244.528 155.137C239.647 152.482 237.63 157.026 237.509 161.26C237.354 166.662 239.506 170.581 243.83 174.795C245.288 176.215 260.599 187.989 263.253 182.262C263.332 181.715 263.838 181.336 264.385 181.414C264.932 181.492 265.312 181.999 265.233 182.546C265.068 183.7 264.4 185.284 262.857 186.207C261.272 187.157 259.033 187.25 256.075 185.942C252.503 184.363 247.094 181.085 242.604 176.709C238.134 172.353 234.407 166.741 234.586 160.503C234.726 155.633 236.476 153.058 239.023 152.177C241.404 151.353 243.826 152.478 245.483 153.38C245.968 153.644 246.148 154.251 245.884 154.736Z" fill="#110545"/>
<path fill-rule="evenodd" clip-rule="evenodd" d="M270.02 124.483C264.342 122.678 261.535 119.092 257.943 119.913C251.435 121.401 246.686 132.243 245.058 137.881C243.567 143.046 243.52 148.476 245.903 153.509C247.192 156.23 248.745 158.461 250.044 159.924C250.411 160.337 250.373 160.969 249.96 161.336C249.547 161.703 248.915 161.665 248.549 161.252C246.326 158.748 243.488 154.278 242.113 148.914C240.732 143.529 240.818 137.191 244.55 131.076C249.011 123.766 252.386 120.026 255.235 118.38C256.693 117.539 258.027 117.236 259.288 117.296C260.529 117.355 261.623 117.762 262.595 118.212C264.515 119.1 265.987 119.924 268.29 120.732C270.574 121.532 273.667 122.307 278.669 122.993C283.668 123.679 287.314 124.224 289.774 125.238C291.034 125.757 292.055 126.425 292.805 127.356C293.559 128.292 293.975 129.417 294.153 130.741C294.549 133.691 292.602 136.167 290.026 137.881C287.413 139.62 283.891 140.776 280.464 141.071C276.875 141.38 273.799 140.007 271.322 138.636C270.729 138.308 270.162 137.975 269.631 137.663L269.553 137.618C268.995 137.29 268.481 136.99 267.997 136.729C266.998 136.192 266.264 135.904 265.701 135.868C263.485 135.726 262.557 136.746 262.428 136.977C262.158 137.459 261.549 137.631 261.067 137.362C260.585 137.092 260.413 136.483 260.682 136.001C262.335 133.047 266.468 133.635 268.945 134.968C272.526 136.896 275.483 139.006 279.781 138.636C283.597 138.307 292.594 136.101 291.874 130.741C291.874 125.382 283.771 128.854 270.02 124.483Z" fill="#110545"/>
<path fill-rule="evenodd" clip-rule="evenodd" d="M290.458 177.545C290.802 177.977 290.732 178.606 290.3 178.951C277.522 189.156 265.488 188.553 255.074 175.512C254.729 175.08 254.8 174.451 255.231 174.106C255.663 173.761 256.592 173.675 256.937 174.106C267.13 183.974 277.35 186.734 289.052 177.388C289.484 177.043 290.113 177.114 290.458 177.545Z" fill="#110545"/>
<path fill-rule="evenodd" clip-rule="evenodd" d="M297.078 116.965C291.737 116.098 285.698 115.466 281.208 115.014C277.799 114.671 274.133 115.322 270.9 116.307C267.672 117.29 264.949 118.583 263.452 119.456C262.975 119.734 262.362 119.573 262.084 119.096C261.806 118.619 261.967 118.007 262.444 117.729C264.075 116.777 266.942 115.422 270.317 114.394C273.687 113.367 277.637 112.645 281.409 113.024C285.895 113.475 291.99 114.113 297.398 114.991C300.101 115.429 302.654 115.932 304.76 116.507C306.818 117.07 308.606 117.741 309.644 118.59C311.631 120.214 312.287 122.205 312.144 124.246C312.007 126.212 311.135 128.186 310.189 129.922C310.091 130.102 309.994 130.284 309.895 130.469C309.068 132.019 308.143 133.752 305.777 135.842C303.171 138.145 298.84 140.87 290.961 144.468C283.142 148.039 277.899 150.113 274.128 150.62C272.212 150.877 270.596 150.743 269.183 150.141C267.768 149.537 266.661 148.508 265.687 147.164C263.986 144.82 264.132 142.352 264.947 140.322C265.745 138.332 267.202 136.696 268.306 135.781C268.731 135.428 269.362 135.487 269.714 135.913C270.067 136.338 270.008 136.968 269.582 137.321C264.642 141.416 266.975 148.17 274.464 147.164C277.889 146.704 281.597 145.561 289.47 141.965C297.284 138.397 301.845 134.969 304.233 132.86C306.896 130.507 309.893 127.773 310.149 124.107C310.25 122.664 309.825 121.321 308.379 120.138C307.7 119.584 306.289 118.998 304.233 118.437C302.225 117.888 299.75 117.399 297.078 116.965Z" fill="#110545"/>
<path fill-rule="evenodd" clip-rule="evenodd" d="M312.929 131.637C311.336 131.126 309.655 130.688 308.757 130.484C308.218 130.362 307.881 129.827 308.003 129.288C308.125 128.749 308.661 128.412 309.199 128.534C310.15 128.75 311.888 129.202 313.54 129.733C314.366 129.998 315.187 130.287 315.883 130.582C316.545 130.862 317.211 131.193 317.633 131.57C318.534 132.373 319.432 133.676 319.239 135.819C319.055 137.859 317.888 140.552 315.068 144.248C312.248 147.942 309.914 150.259 306.802 151.987C303.727 153.694 299.952 154.79 294.35 156.174C288.774 157.551 284.857 158.414 282.037 158.417C280.603 158.419 279.373 158.202 278.318 157.665C277.251 157.122 276.446 156.294 275.795 155.22C273.852 152.011 274.09 149.589 274.897 148.531C275.231 148.092 275.859 148.007 276.298 148.342C276.737 148.677 276.822 149.305 276.487 149.744C276.487 149.744 276.486 149.745 276.483 149.749C276.481 149.752 276.478 149.758 276.474 149.765C276.465 149.779 276.455 149.799 276.443 149.827C276.418 149.882 276.39 149.959 276.366 150.061C276.317 150.265 276.284 150.554 276.31 150.93C276.362 151.68 276.651 152.772 277.506 154.184C281.643 157.665 289.854 154.563 294.101 153.514C299.722 152.125 303.02 151.799 305.831 150.239C308.604 148.699 310.74 146.621 313.478 143.034C316.215 139.447 317.114 137.12 317.247 135.639C317.372 134.26 316.839 133.541 316.302 133.062C316.149 132.926 315.759 132.701 315.104 132.424C314.484 132.162 313.725 131.893 312.929 131.637Z" fill="#110545"/>
<path fill-rule="evenodd" clip-rule="evenodd" d="M316.607 146.325C315.413 145.685 314.24 145.333 313.749 145.239C313.206 145.136 312.85 144.613 312.953 144.07C313.057 143.527 313.58 143.171 314.123 143.275C314.821 143.407 316.185 143.83 317.551 144.562C318.901 145.285 320.412 146.394 321.188 147.978C321.771 149.169 321.546 150.71 321.064 152.163C320.563 153.676 319.692 155.359 318.631 157.016C316.515 160.318 313.521 163.694 310.822 165.558C308.06 167.466 304.314 168.362 300.659 168.718C296.982 169.077 293.275 168.902 290.493 168.578C287.742 168.257 285.342 167.749 283.586 166.747C281.747 165.697 280.62 164.104 280.499 161.798C280.401 159.931 281.14 158.524 282.084 157.584C282.992 156.68 284.129 156.166 284.959 156.08C285.509 156.023 286 156.422 286.057 156.972C286.114 157.521 285.715 158.013 285.166 158.069C284.852 158.102 284.126 158.374 283.496 159.001C282.902 159.592 282.431 160.463 282.496 161.693C282.579 163.261 283.144 163.588 284.444 164.33C285.827 165.12 288.59 165.946 291.3 166.262C302.366 167.552 310.8 165.53 316.947 155.937C317.955 154.364 318.735 152.835 319.166 151.534C319.617 150.173 319.608 149.3 319.391 148.858C318.888 147.831 317.816 146.972 316.607 146.325Z" fill="#110545"/>
<path fill-rule="evenodd" clip-rule="evenodd" d="M318.572 161.314C317.917 160.369 317.007 159.759 316.409 159.501C315.902 159.283 315.668 158.694 315.887 158.187C316.105 157.68 316.694 157.446 317.201 157.665C318.095 158.05 319.319 158.882 320.216 160.174C321.133 161.497 321.697 163.293 321.213 165.504C321.043 166.285 320.608 167.107 320.058 167.913C319.498 168.734 318.772 169.604 317.945 170.489C316.291 172.258 314.178 174.14 312.046 175.858C309.912 177.577 307.735 179.149 305.942 180.295C305.047 180.868 304.232 181.343 303.557 181.68C303.22 181.847 302.902 181.988 302.616 182.089C302.351 182.182 302.029 182.272 301.713 182.269C301.038 182.264 299.602 182.03 297.9 181.638C296.163 181.239 294.052 180.653 291.99 179.898C289.937 179.148 287.884 178.213 286.294 177.102C284.745 176.02 283.41 174.611 283.245 172.853C283.062 170.914 283.872 169.296 284.916 168.163C285.935 167.058 287.282 166.298 288.397 166.149C288.944 166.075 289.447 166.459 289.521 167.007C289.594 167.554 289.21 168.057 288.663 168.131C286.669 168.399 285.056 170.753 285.236 172.666C285.796 175.858 296.805 179.346 302.665 179.889C303.253 179.597 304.002 179.162 304.864 178.61C306.587 177.509 308.705 175.981 310.791 174.3C312.88 172.618 314.915 170.801 316.484 169.123C317.269 168.284 317.923 167.494 318.406 166.786C318.899 166.064 319.169 165.491 319.26 165.077C319.612 163.465 319.207 162.229 318.572 161.314Z" fill="#110545"/>
<path fill-rule="evenodd" clip-rule="evenodd" d="M275.602 151.437C276.149 151.364 276.96 153.346 277.033 153.894C277.176 154.954 277.321 155.766 276.883 157.554C275.506 163.182 271.779 166.419 267.01 169.354C266.54 169.644 266.059 169.542 265.77 169.072C265.626 168.838 266.027 168.231 266.276 167.959C269.412 165.48 272.978 162.007 274.376 156.296C274.776 154.66 274.843 153.296 274.744 152.562C274.671 152.014 275.055 151.511 275.602 151.437Z" fill="#110545"/>
<path fill-rule="evenodd" clip-rule="evenodd" d="M299.56 122.349C299.381 122.871 298.812 123.15 298.29 122.971C297.451 122.683 296.069 122.298 294.691 122.086C294.003 121.981 293.338 121.923 292.756 121.935C292.16 121.948 291.723 122.034 291.443 122.162C289.772 122.926 287.351 124.929 286.321 125.874L284.969 124.4C286.004 123.451 288.626 121.25 290.611 120.343C291.244 120.053 291.991 119.951 292.713 119.936C293.448 119.92 294.235 119.993 294.994 120.11C296.511 120.342 298.009 120.761 298.938 121.079C299.46 121.258 299.739 121.826 299.56 122.349Z" fill="#110545"/>
<path d="M274.59 88.611L281.045 87.479C283.432 92.8898 288.653 106.643 292.687 120.362C289.324 121.906 287.951 123.018 285.684 125.082L277.683 123.818C275.779 110.57 275.088 97.8866 274.59 88.611Z" fill="#3852CE" stroke="#110545" stroke-width="2"/>
<path d="M292.687 120.362C288.653 106.643 283.432 92.8898 281.045 87.479L274.59 88.611C275.088 97.8866 275.779 110.57 277.683 123.818" stroke="#110545" stroke-width="2"/>
<path d="M283.19 70.0078C286.057 77.9752 282.78 84.9974 280.783 87.5126L274.327 88.6447C272.361 87.4549 268.274 84.1182 267.654 80.2894C266.88 75.5034 269.228 69.3728 272.487 65.1024C275.095 61.6861 272.84 56.9044 271.386 54.9406C274.126 56.6433 280.322 62.0404 283.19 70.0078Z" fill="#110545"/>
<path fill-rule="evenodd" clip-rule="evenodd" d="M272.199 62.8788C272.686 63.1382 272.872 63.7438 272.612 64.2313C271.943 65.4895 271.865 66.5897 272.203 67.7708C272.561 69.0174 273.391 70.3874 274.655 72.114C276.842 75.1044 277.789 77.6153 277.835 79.5983C277.882 81.621 276.973 83.1249 275.528 83.762C274.127 84.3792 272.454 84.0727 271.186 82.9986C269.487 81.5592 268.259 78.4628 270.086 76.6431C270.17 78.7903 270.996 80.2159 272.479 81.4726C273.24 82.117 274.108 82.2019 274.721 81.9318C275.289 81.6815 275.867 81.019 275.835 79.6449C275.802 78.231 275.103 76.1144 273.04 73.2949C271.763 71.5484 270.743 69.9344 270.281 68.3217C269.8 66.6434 269.933 65.0088 270.846 63.2921C271.106 62.8045 271.711 62.6195 272.199 62.8788Z" fill="white"/>
<path d="M287.646 106.02C283.456 108.832 280.014 109.09 276.203 108.484" stroke="white" stroke-width="2"/>
<path d="M308.229 212.648L304.049 180.656C303.331 180.981 301.637 181.585 300.616 181.404C299.594 181.224 294.842 179.88 292.594 179.23L306.187 213.181C306.652 214.341 308.391 213.887 308.229 212.648Z" fill="#3852CE" stroke="#110545" stroke-width="2"/>
<path d="M304.05 180.657L308.294 213.146C308.446 214.312 306.811 214.739 306.374 213.648L292.594 179.232" stroke="#110545" stroke-width="2"/>
<path d="M171.269 158.286C181.652 158.565 184.057 154.278 183.961 152.099C186.823 153.044 194.183 153.611 200.729 148.32C208.912 141.707 208.116 136.844 215.57 134.902C222.947 132.98 228.299 134.589 231.261 135.479L231.353 135.507C234.295 136.391 239.288 137.449 238.881 131.364C238.557 126.496 230.651 122.404 226.739 120.966C229.56 120.782 235.226 119.687 235.319 116.785C235.412 113.884 228.082 87.9519 224.405 75.3488C227.077 72.1763 229.931 65.6429 219.97 64.8889C210.01 64.135 200.381 69.7372 196.811 72.6325C194.322 70.0185 188.913 64.8557 187.188 65.1163C185.464 65.377 181.044 67.0315 179.05 67.8262C178.443 64.7416 176.125 59.2253 171.712 61.8374C167.298 64.4496 163.058 75.3929 161.49 80.538C159.897 80.4615 155.921 81.7056 152.755 87.2947C148.797 94.2809 147.327 98.1429 146.263 108.09C145.199 118.037 143.469 124.973 145.441 129.825C147.018 133.706 150.756 139.053 152.428 141.242C146.68 142.027 147.242 148.946 151.802 152.595C157.311 157.005 167.958 158.197 171.269 158.286Z" fill="white"/>
<path fill-rule="evenodd" clip-rule="evenodd" d="M227.821 69.0209C228.748 71.6626 227.163 74.5469 224.121 76.9071C223.684 77.2457 223.056 77.1664 222.718 76.73C222.379 76.2937 222.458 75.6655 222.895 75.3269C229.514 65.1462 215.154 66.789 209.324 69.0209C205.793 70.3729 202.446 71.4941 197.522 74.1655C197.037 74.4289 196.43 74.2489 196.166 73.7635C195.903 73.2781 196.083 72.671 196.568 72.4076C201.49 69.737 205.656 67.5932 209.324 66.189C212.994 64.7838 216.245 64.0869 219.326 64.3824C223.818 64.8132 226.912 66.4275 227.821 69.0209Z" fill="#110545"/>
<path fill-rule="evenodd" clip-rule="evenodd" d="M194.414 69.4791C195.087 70.152 195.785 70.8498 196.51 71.5431C198.407 73.3569 199.519 74.0734 200.275 74.5607C200.388 74.6341 200.494 74.7022 200.593 74.7681C201.002 75.04 201.396 75.3331 201.727 75.8209C202.041 76.2817 202.255 76.8511 202.471 77.5968C202.994 79.3971 202.548 81.2611 201.146 82.7028C199.768 84.1185 197.542 85.0623 194.571 85.3061C192.008 85.5163 189.788 84.5519 188.095 83.3307C186.407 82.1135 185.169 80.5922 184.529 79.5284C184.244 79.0552 184.397 78.4407 184.87 78.1559C185.343 77.871 185.957 78.0237 186.242 78.4968C193.161 85.3061 202.471 80.4969 198.81 76.4983C197.008 75.0346 197.16 74.9323 195.128 72.9886C194.307 72.2042 193.565 71.4607 192.875 70.7701C191.599 69.493 190.505 68.3968 189.433 67.5576C187.832 66.3035 186.596 65.886 185.272 66.297C182.582 67.1321 180.685 68.4693 179.708 69.1582L179.69 69.1708C179.239 69.489 178.615 69.381 178.296 68.9296C177.978 68.4782 178.086 67.8543 178.538 67.5361C178.548 67.5285 178.559 67.5209 178.57 67.5132C179.581 66.8006 181.687 65.3159 184.679 64.3869C186.937 63.6858 188.869 64.5749 190.666 65.9831C191.831 66.895 193.073 68.1376 194.414 69.4791Z" fill="#110545"/>
<path fill-rule="evenodd" clip-rule="evenodd" d="M181.66 71.6817C182.072 72.7828 182.49 73.9008 182.917 74.9921C183.365 76.1395 183.849 77.2387 184.322 78.3133C184.498 78.7132 184.673 79.1096 184.843 79.5038C185.462 80.9324 186.029 82.3333 186.351 83.6428C186.673 84.9516 186.776 86.2739 186.359 87.505C185.932 88.7681 185.008 89.7892 183.566 90.5755C180.75 92.1105 178.085 92.0679 175.807 91.0563C173.575 90.0647 171.792 88.1802 170.566 86.143C169.528 84.4182 169.041 82.1224 168.827 80.0476C168.61 77.9501 168.659 75.9511 168.774 74.7306C168.826 74.1808 169.314 73.7771 169.864 73.8289C170.414 73.8808 170.817 74.3686 170.766 74.9184C171.215 80.0476 172.547 86.1643 176.38 87.505C182.056 89.4903 185.814 86.781 183.008 80.2983C182.847 79.9273 182.679 79.5452 182.507 79.1538C182.028 78.0677 181.519 76.91 181.054 75.7199C180.601 74.5603 180.17 73.4088 179.753 72.2943C179 70.2802 178.292 68.387 177.578 66.7854C177.027 65.549 176.504 64.5614 175.999 63.8776C175.468 63.1584 175.099 62.9706 174.912 62.9464C173.817 62.8053 172.558 62.827 171.215 63.6504C169.847 64.4892 168.257 66.2437 166.718 69.8701C164.179 75.8525 162.905 79.4693 162.52 81.2614C162.404 81.8014 161.872 82.1452 161.333 82.0293C160.793 81.9134 160.449 81.3817 160.565 80.8417C160.995 78.8383 162.344 75.0572 164.877 69.0887C166.508 65.2456 168.319 63.0804 170.169 61.9455C172.045 60.7952 173.822 60.7893 175.167 60.9629C176.2 61.096 176.998 61.8638 177.608 62.689C178.244 63.5495 178.837 64.6951 179.405 65.9715C180.142 67.6246 180.89 69.6234 181.66 71.6817Z" fill="#110545"/>
<path fill-rule="evenodd" clip-rule="evenodd" d="M153.159 141.127C153.232 141.675 152.848 142.178 152.3 142.251C150.337 142.514 149.995 143.828 149.982 145.846C149.971 147.783 151.086 149.533 153.159 151.2C159.676 156.444 174.135 159.297 180.755 155.002C182.399 153.867 182.701 152.945 182.672 152.241C182.65 151.689 183.078 151.223 183.63 151.2C184.182 151.178 184.648 151.606 184.671 152.158C184.732 153.633 183.949 155.557 181.813 157.031C179.686 158.499 176.249 159.51 170.934 159.353C169.215 159.303 165.661 158.965 161.833 158.079C158.027 157.199 153.812 155.747 150.885 153.391C148.406 151.397 146.96 148.477 146.976 145.846C146.985 144.517 147.369 143.226 148.235 142.199C149.106 141.166 150.391 140.489 152.035 140.269C152.582 140.196 153.085 140.58 153.159 141.127Z" fill="#110545"/>
<path fill-rule="evenodd" clip-rule="evenodd" d="M161.119 82.0489C159.551 80.4655 157.086 83.2971 156.229 84.3304C148.586 93.5377 148.903 103.773 147.452 115.249C146.077 126.129 147.452 132.572 155.545 142.214C155.98 142.554 156.057 143.183 155.717 143.618C155.377 144.053 154.749 144.13 154.314 143.79C152.745 142.565 150.382 140.344 148.321 137.612C146.27 134.894 144.438 131.566 144.086 128.14C143.668 124.067 144.054 119.56 144.599 115.249C144.798 113.675 145.017 112.136 145.228 110.65C145.603 108.012 145.954 105.539 146.132 103.322C146.7 96.2128 147.868 92.7222 150.731 88.5329C150.794 88.4408 150.857 88.3489 150.92 88.2571C152.214 86.3631 153.479 84.512 154.69 83.053C155.327 82.2854 155.971 81.5989 156.621 81.0592C157.265 80.524 157.965 80.0906 158.715 79.8971C160.825 79.3533 162.266 80.1374 162.801 80.9654C163.101 81.4292 162.968 82.0483 162.505 82.3482C161.974 82.6912 161.502 82.4362 161.119 82.0489Z" fill="#110545"/>
<rect x="234.206" y="73.0836" width="41.1451" height="82.5921" rx="7" transform="rotate(72.3258 234.206 73.0836)" fill="#3852CE" stroke="#110545" stroke-width="2"/>
<path d="M213.877 94.1616L222.876 99.1513L217.886 108.15" stroke="white" stroke-width="1.72373" stroke-linecap="round" stroke-linejoin="round"/>
<path d="M192.895 100.176L187.905 109.174L196.904 114.164" stroke="white" stroke-width="1.72373" stroke-linecap="round" stroke-linejoin="round"/>
<path d="M206.885 96.1668L203.9 112.16" stroke="white" stroke-width="1.72373" stroke-linecap="round" stroke-linejoin="round"/>
<path d="M234.459 117.318L234.597 117.758C234.763 118.285 234.471 118.846 233.944 119.012L228.967 120.58C228.44 120.745 227.879 120.453 227.713 119.926L227.575 119.486" stroke="#110545" stroke-width="2"/>
<path d="M220.625 77.4316L220.483 76.9932C220.313 76.4678 219.749 76.1799 219.223 76.3501L214.26 77.9586C213.734 78.1288 213.446 78.6927 213.617 79.2181L213.759 79.6566" stroke="#110545" stroke-width="2"/>
<path d="M211.652 80.2793L211.51 79.8408C211.34 79.3155 210.776 79.0276 210.251 79.1978L205.287 80.8062C204.762 80.9765 204.474 81.5404 204.644 82.0658L204.786 82.5042" stroke="#110545" stroke-width="2"/>
<path fill-rule="evenodd" clip-rule="evenodd" d="M233.746 125.71C231.632 124.02 227.743 122.132 223.336 121.686C222.786 121.631 222.386 121.14 222.442 120.591C222.497 120.041 222.988 119.641 223.537 119.696C228.34 120.183 232.59 122.226 234.995 124.148C237.111 125.84 238.582 128.088 239.132 130.329C239.684 132.576 239.322 134.926 237.587 136.562C236.642 137.453 235.514 137.728 234.351 137.681C233.231 137.635 232.02 137.287 230.812 136.888C230.392 136.749 229.967 136.603 229.536 136.454C227.401 135.718 225.118 134.931 222.596 134.792C219.97 134.647 216.842 135.275 213.937 136.614C211.033 137.952 208.426 139.966 206.775 142.526C204.917 145.406 202.099 148.219 199.013 150.327C195.942 152.425 192.488 153.903 189.35 153.95C186.908 153.986 184.042 153.364 181.502 152.606C178.947 151.843 176.638 150.916 175.278 150.288C174.777 150.056 174.558 149.462 174.79 148.96C175.021 148.459 175.616 148.24 176.117 148.472C177.395 149.062 179.615 149.955 182.074 150.689C184.549 151.428 187.183 151.982 189.321 151.95C191.907 151.912 194.976 150.663 197.885 148.676C200.778 146.7 203.397 144.072 205.094 141.442C206.998 138.49 209.939 136.254 213.1 134.798C216.259 133.342 219.711 132.63 222.706 132.795C225.533 132.951 228.124 133.848 230.258 134.586C230.669 134.728 231.063 134.865 231.439 134.989C232.642 135.387 233.618 135.649 234.433 135.682C235.204 135.714 235.757 135.539 236.215 135.107C237.284 134.099 237.622 132.566 237.19 130.806C236.756 129.042 235.559 127.16 233.746 125.71ZM180.529 132.932C180.991 133.236 181.118 133.856 180.815 134.318C179.638 136.106 178.884 137.823 178.5 138.985C178.326 139.509 177.761 139.794 177.236 139.621C176.712 139.447 176.427 138.882 176.601 138.357C177.038 137.035 177.867 135.158 179.144 133.218C179.448 132.757 180.068 132.629 180.529 132.932Z" fill="#110545"/>
<path d="M163.316 83.511C161.571 80.6518 158.299 82.753 157.547 83.0429L156.735 86.7181L157.548 96.2904L161.169 100.572C160.918 102.854 160.623 107.941 161.449 110.029C162.482 112.64 168.033 118.69 172.847 116.298C177.66 113.906 174.829 107.803 174.073 106.128C173.318 104.453 173.808 102.169 173.151 97.8067C172.494 93.4448 171.053 92.7373 169.047 90.9529C167.04 89.1685 165.496 87.085 163.316 83.511Z" fill="white"/>
<path fill-rule="evenodd" clip-rule="evenodd" d="M160.657 81.7992C160.647 81.7982 160.644 81.798 160.65 81.7969C160.108 81.903 159.582 81.5497 159.476 81.0077C159.37 80.4657 159.723 79.9403 160.265 79.8342C161.42 79.6081 163.146 80.3708 164.314 82.8114C165.594 85.4862 166.569 87.2613 169.551 89.828C171.145 91.2003 172.204 92.3331 172.921 93.5131C173.648 94.7096 173.986 95.8904 174.236 97.2844C174.576 99.1721 174.626 100.795 174.67 102.188C174.681 102.543 174.691 102.883 174.706 103.209C174.78 104.829 174.953 106.143 175.687 107.527C176.629 109.306 176.964 111.529 176.634 113.434C176.307 115.32 175.253 117.181 173.16 117.651C170.799 118.182 167.774 117.524 165.277 116.045C162.763 114.557 160.589 112.116 160.192 108.894C159.868 106.263 159.966 103.549 160.189 101.352L157.14 97.3598C156.805 96.9209 156.889 96.2933 157.328 95.9581C157.766 95.6228 158.394 95.7069 158.729 96.1458L160.574 98.5608C160.658 98.0864 160.742 97.6784 160.819 97.352C160.945 96.8144 161.483 96.4808 162.021 96.6071C162.559 96.7333 162.892 97.2715 162.766 97.8092C161.919 101.417 162.318 104.823 162.766 108.463C163.856 117.311 178.759 117.595 173.92 108.463C172.977 106.686 172.786 105.015 172.708 103.3C172.692 102.931 172.68 102.563 172.668 102.19C172.625 100.81 172.579 99.3672 172.268 97.6384C172.04 96.3684 171.761 95.4554 171.212 94.552C170.653 93.6322 169.774 92.6592 168.246 91.3438C164.983 88.5348 163.861 86.497 162.51 83.6748C161.657 81.8922 160.763 81.809 160.657 81.7992Z" fill="#110545"/>
<path d="M195.763 162.331C199.197 172 198.478 180.372 191.824 186.017C190.097 187.482 188.414 189.745 186.867 192.322L184.151 192.474C181.969 192.473 177.13 194.326 175.226 201.743C172.846 211.014 174.908 221.331 176.924 225.354C178.537 228.572 181.635 228.978 182.982 228.779C183.289 229.112 184.891 230.894 188.847 235.364C193.791 240.951 201.99 246.231 207.311 247.537C212.632 248.843 215.672 254.598 220.179 255.703C224.687 256.808 237.705 248.976 243.749 243.388C248.585 238.918 248.645 234.203 248.07 232.403C249.075 231.606 251.741 228.962 254.37 224.764C256.998 220.566 255.809 215.958 254.886 214.178C255.901 212.845 257.977 209.214 258.155 205.351C258.333 201.489 255.477 199.452 254.027 198.916C254.266 198.409 254.802 197.094 255.031 195.896C255.317 194.399 254.796 192.823 254.081 192.184C253.366 191.545 251.013 190.319 247.024 187.457C243.035 184.594 235.611 182.11 232.279 184.335C228.739 186.699 229.737 191.126 230.35 192.839C223.76 190.926 215.585 188.752 213.017 185.418C209.587 180.965 216.486 171.028 213.426 158.958C210.367 146.888 204.499 145.347 198.237 145.869C191.976 146.392 192.328 152.663 195.763 162.331Z" fill="white"/>
<path fill-rule="evenodd" clip-rule="evenodd" d="M206.462 148.513C204.111 146.88 201.359 146.613 198.32 146.866C196.921 146.983 196.022 147.408 195.441 148.001C194.857 148.6 194.479 149.49 194.36 150.764C194.117 153.366 194.989 157.167 196.705 161.997C200.209 171.861 199.575 180.753 192.47 186.78C190.867 188.141 189.25 190.295 187.724 192.837L187.451 193.291L184.178 193.475L184.15 193.475C182.459 193.474 177.993 194.984 176.194 201.992C175.042 206.481 174.96 211.252 175.42 215.407C175.882 219.576 176.88 223.035 177.818 224.906C179.18 227.623 181.772 227.948 182.835 227.79L183.358 227.713L183.717 228.101C184.032 228.443 185.642 230.235 189.595 234.701C191.997 237.415 195.211 240.076 198.485 242.219C201.771 244.37 205.043 245.951 207.549 246.566C210.48 247.285 212.741 249.221 214.709 250.943L214.858 251.074C216.845 252.814 218.5 254.262 220.417 254.732C221.243 254.935 222.662 254.744 224.59 254.085C226.465 253.444 228.648 252.423 230.905 251.18C235.424 248.692 240.119 245.382 243.07 242.655C247.638 238.433 247.567 234.116 247.118 232.708L246.907 232.05L247.448 231.62C248.351 230.904 250.945 228.35 253.522 224.234C255.899 220.438 254.822 216.228 253.998 214.639L253.706 214.077L254.09 213.573C255.035 212.333 256.991 208.893 257.156 205.306C257.307 202.037 254.894 200.303 253.681 199.854L252.658 199.477L253.123 198.49C253.343 198.023 253.841 196.793 254.048 195.709C254.159 195.128 254.115 194.516 253.968 193.986C253.815 193.438 253.582 193.08 253.415 192.93C253.3 192.827 253.079 192.668 252.692 192.417C252.433 192.248 252.127 192.056 251.767 191.829C251.605 191.726 251.431 191.617 251.245 191.499C250.06 190.75 248.457 189.716 246.441 188.269C244.554 186.915 241.816 185.629 239.16 184.958C237.835 184.623 236.566 184.45 235.457 184.481C234.34 184.513 233.457 184.751 232.834 185.167C231.386 186.134 230.855 187.508 230.754 188.903C230.652 190.33 231.011 191.718 231.291 192.503L231.95 194.346L230.071 193.8C229.637 193.674 229.195 193.547 228.747 193.417C225.815 192.572 222.629 191.653 219.823 190.598C218.202 189.988 216.68 189.323 215.386 188.584C214.101 187.851 212.981 187.011 212.224 186.029C211.146 184.628 210.944 182.873 211.066 181.036C211.174 179.427 211.546 177.592 211.939 175.652C211.994 175.386 212.048 175.118 212.102 174.848C213.013 170.309 213.926 165.002 212.457 159.204C210.958 153.29 208.818 150.15 206.462 148.513ZM207.603 146.871C210.511 148.891 212.835 152.556 214.395 158.712C215.985 164.984 214.979 170.681 214.063 175.242C214.008 175.516 213.953 175.785 213.9 176.049C213.502 178.014 213.16 179.704 213.062 181.169C212.951 182.826 213.173 183.982 213.809 184.808C214.336 185.493 215.201 186.175 216.377 186.847C217.544 187.513 218.959 188.136 220.527 188.726C223.14 189.709 226.098 190.571 228.927 191.388C228.78 190.604 228.692 189.699 228.76 188.76C228.892 186.922 229.632 184.9 231.724 183.503C232.767 182.807 234.062 182.521 235.399 182.482C236.744 182.444 238.204 182.653 239.65 183.019C242.537 183.749 245.506 185.136 247.607 186.645C249.58 188.06 251.147 189.071 252.315 189.809C252.49 189.92 252.658 190.026 252.818 190.127C253.185 190.358 253.51 190.563 253.783 190.74C254.163 190.988 254.504 191.222 254.747 191.438C255.294 191.927 255.679 192.677 255.895 193.45C256.115 194.243 256.188 195.168 256.013 196.084C255.855 196.909 255.57 197.768 255.317 198.428C257.053 199.431 259.325 201.676 259.154 205.398C258.983 209.12 257.188 212.589 256.038 214.286C256.987 216.539 257.852 221.088 255.217 225.295C252.877 229.032 250.492 231.591 249.188 232.764C249.647 235.213 249.07 239.832 244.428 244.123C241.334 246.983 236.499 250.383 231.87 252.932C229.554 254.207 227.259 255.286 225.237 255.977C223.268 256.651 221.369 257.025 219.941 256.675C217.535 256.085 215.539 254.333 213.702 252.72C213.598 252.629 213.495 252.538 213.392 252.448C211.383 250.69 209.464 249.095 207.073 248.508C204.258 247.818 200.77 246.105 197.39 243.893C193.999 241.673 190.64 238.9 188.098 236.027C184.905 232.42 183.25 230.568 182.573 229.817C180.782 229.877 177.705 229.144 176.03 225.802C174.951 223.651 173.91 219.94 173.432 215.627C172.953 211.299 173.03 206.276 174.257 201.494C176.259 193.698 181.441 191.49 184.121 191.475L186.285 191.353C187.782 188.922 189.435 186.733 191.177 185.255C197.38 179.992 198.185 172.14 194.82 162.667C193.102 157.828 192.081 153.659 192.368 150.578C192.515 149.01 193.008 147.63 194.011 146.604C195.018 145.573 196.423 145.018 198.154 144.873C201.377 144.604 204.69 144.847 207.603 146.871Z" fill="#110545"/>
<path fill-rule="evenodd" clip-rule="evenodd" d="M206.464 148.513C203.156 146.215 195.905 145.649 195.381 151.26C195.138 153.863 195.928 157.252 197.644 162.082C201.147 171.946 201.466 180.159 194.361 186.186C188.43 191.218 183.984 198.197 181.574 205.588C181.403 206.113 180.022 209.24 179.497 209.069C178.972 208.898 179.594 206.113 179.765 205.588C180.672 202.807 180.777 200.306 182.917 195.982C185.039 191.694 188.349 187.656 191.178 185.255C197.382 179.993 198.187 172.14 194.822 162.667C193.103 157.829 191.771 155.105 191.771 151.26C191.771 142.422 202.944 142.039 208.753 145.366C218.845 151.145 216.852 169.174 212.95 180.533C212.758 182.176 212.864 183.412 213.385 184.382C213.771 185.101 214.78 185.957 216.411 186.866C217.997 187.75 220.013 188.601 222.194 189.381C226.552 190.941 231.456 192.182 234.636 192.845C235.177 192.958 235.524 193.487 235.411 194.028C235.298 194.569 234.769 194.916 234.228 194.803C226.36 194.803 214.483 191.811 210.963 185.255C210.155 183.749 210.754 182.092 210.963 180.301C211.129 178.89 211.479 177.323 211.848 175.677C211.944 175.244 212.043 174.806 212.139 174.364C213.077 170.053 213.929 165.006 212.458 159.204C210.959 153.29 208.82 150.15 206.464 148.513Z" fill="#110545"/>
<path fill-rule="evenodd" clip-rule="evenodd" d="M240 185.195C238.196 184.607 236.5 184.353 235.031 184.584C232.695 184.951 231.559 186.176 231.006 187.53C230.425 188.955 230.471 190.597 230.706 191.661C230.825 192.201 230.485 192.735 229.945 192.854C229.406 192.973 228.872 192.632 228.753 192.093C227.839 190.189 227.064 187.815 227.839 185.914C228.645 183.941 230.96 182.142 234.018 181.661C242.002 180.407 247.398 187.411 253.801 190.679C255.316 191.452 256.023 193.185 256.01 195.075C255.996 196.996 255.261 199.267 253.672 201.524C251.269 204.937 250.679 204.913 250.076 205.649C249.726 206.077 247.907 208.46 247.479 208.11C247.052 207.761 247.838 206.252 248.187 205.824C248.751 205.135 249.652 203.759 252.036 200.373C253.439 198.381 254 196.499 254.01 195.061C254.02 193.591 253.478 192.759 252.892 192.46C252.409 192.213 251.608 191.669 250.659 191.023C250.434 190.871 250.202 190.712 249.963 190.551C248.665 189.675 247.08 188.63 245.358 187.654C243.634 186.676 241.797 185.781 240 185.195Z" fill="#110545"/>
<path fill-rule="evenodd" clip-rule="evenodd" d="M253.714 198.309C254.089 197.904 254.722 197.88 255.127 198.256C255.252 198.372 255.395 198.498 255.551 198.637C256.263 199.267 257.244 200.135 257.973 201.287C258.907 202.763 259.448 204.694 258.948 207.31C257.341 215.714 251.762 221.499 241.314 226.075C240.824 226.329 238.71 227.654 238.455 227.164C238.201 226.674 240.306 225.207 240.796 224.952C250.647 219.836 255.558 214.39 256.983 206.935C257.387 204.819 256.946 203.404 256.283 202.357C255.721 201.468 255.006 200.832 254.304 200.207C254.123 200.046 253.943 199.885 253.766 199.722C253.362 199.346 253.338 198.713 253.714 198.309Z" fill="#110545"/>
<path fill-rule="evenodd" clip-rule="evenodd" d="M254.552 213.273C255.059 213.054 255.648 213.287 255.867 213.794C257.169 216.808 258.014 223.926 251.801 230.213C245.835 236.249 240.238 239.166 237.295 240.532C236.794 240.765 234.502 241.833 234.269 241.332C234.037 240.831 236.794 239.321 237.295 239.088C240.076 237.798 244.617 234.636 250.379 228.807C255.893 223.227 255.086 217.03 254.031 214.587C253.812 214.08 254.045 213.492 254.552 213.273Z" fill="#110545"/>
<path fill-rule="evenodd" clip-rule="evenodd" d="M179.672 222.29C180.181 222.075 180.767 222.313 180.982 222.822C181.353 223.701 183.372 225.526 186.202 229.487C187.904 231.87 191.678 235.187 195.662 238.297C201.65 242.972 208.204 243.305 214.227 247.747C218.529 250.919 220.86 255.566 226.057 253.489C229.325 252.183 233.656 249.83 238.865 246.118C247.071 240.271 247.521 234.715 247.029 233.045C246.873 232.515 247.176 231.959 247.706 231.803C248.235 231.647 248.791 231.95 248.947 232.48C249.767 235.264 248.636 241.612 240.026 247.747C234.725 251.525 230.253 253.965 226.8 255.346C225.074 256.035 223.581 256.469 222.351 256.666C221.156 256.857 220.074 256.847 219.266 256.498C218.587 256.205 217.675 255.541 216.71 254.807C216.363 254.543 216.001 254.263 215.623 253.971C214.893 253.407 214.105 252.798 213.26 252.175C210.687 250.277 207.826 248.437 205.24 247.798C203.696 247.416 201.829 246.513 199.885 245.349C197.925 244.175 195.822 242.698 193.794 241.114C189.758 237.963 185.912 234.31 184.043 231.694C181.159 227.657 179.585 224.656 179.139 223.6C178.925 223.091 179.163 222.505 179.672 222.29Z" fill="#110545"/>
<path fill-rule="evenodd" clip-rule="evenodd" d="M178.265 197.43C176.646 200.179 175.985 203.939 175.701 207.517C175.374 211.648 176.059 214.626 177.081 219.584C177.452 221.384 179.265 228.242 182.506 227.601C183.047 227.493 183.574 227.846 183.681 228.388C183.788 228.929 183.436 229.455 182.894 229.563C181.729 229.793 180.036 229.553 178.455 228.319C176.864 227.077 175.457 224.889 174.722 221.324C173.667 216.206 173.363 211.702 173.707 207.359C173.996 203.722 174.68 199.577 176.541 196.415C177.482 194.817 178.739 193.443 180.419 192.527C182.103 191.609 184.143 191.19 186.585 191.395C187.135 191.442 187.544 191.925 187.497 192.476C187.451 193.026 186.618 192.573 186.067 192.527C183.957 192.349 182.668 193.579 181.376 194.283C180.08 194.99 179.064 196.072 178.265 197.43Z" fill="#110545"/>
<path fill-rule="evenodd" clip-rule="evenodd" d="M240.824 191.841C242.656 191.576 244.507 191.418 245.66 191.353C246.211 191.322 246.683 191.744 246.714 192.295C246.745 192.846 246.323 193.319 245.772 193.35C244.668 193.412 242.875 193.565 241.111 193.82C239.307 194.081 237.668 194.432 236.783 194.845C234.835 195.754 233.987 196.756 233.861 196.969C233.581 197.445 232.968 197.604 232.492 197.324C232.016 197.044 231.857 196.431 232.137 195.955C232.528 195.291 233.747 194.054 235.937 193.032C237.121 192.48 239.032 192.1 240.824 191.841Z" fill="#110545"/>
<path fill-rule="evenodd" clip-rule="evenodd" d="M230.322 201.238C230.612 200.769 231.229 200.624 231.698 200.915C233.164 201.823 235.248 204.63 233.781 208.994C232.503 212.796 231.509 216.307 231.186 218.68C231.111 219.227 230.632 221.774 230.085 221.699C228.503 221.484 229.192 214.428 229.332 213.076C229.447 211.961 229.691 210.648 230.322 208.771C231.473 205.347 231.377 203.069 230.645 202.615C230.175 202.324 230.031 201.708 230.322 201.238ZM229.732 225.041C230.283 225.015 231.161 230.347 231.186 230.899C231.529 238.38 228.704 239.25 225.511 247.599C225.191 248.049 224.567 248.155 224.117 247.834C223.667 247.514 223.561 246.89 223.882 246.44C225.511 239.675 229.037 236.607 228.704 229.342C228.679 228.79 229.18 225.066 229.732 225.041Z" fill="#110545"/>
<path fill-rule="evenodd" clip-rule="evenodd" d="M245.088 207.567C243.972 209.547 240.325 211.876 239.345 212.394C237.162 213.546 234.66 214.563 232.326 214.694C231.775 214.725 231.303 214.303 231.272 213.752C231.241 213.2 231.663 212.728 232.214 212.697C234.112 212.59 236.304 211.737 238.411 210.625C238.981 210.324 243.548 208.017 245.088 207.567Z" fill="#110545"/>
</svg>
