<svg width="196" height="290" viewBox="0 0 196 290" fill="none" xmlns="http://www.w3.org/2000/svg">
<path d="M0.386126 162.491C0.386126 143.07 16.1294 127.327 35.5497 127.327H99.6792C119.099 127.327 134.843 143.07 134.843 162.491C135.679 191.098 129.691 221.718 121.815 249.377C120.89 252.626 119.365 254.89 117.206 256.467C108.773 262.628 91.3392 268.462 68.6555 268.709C45.9414 268.956 27.7957 263.606 18.023 256.467C15.8638 254.89 14.3386 252.626 13.4136 249.377C5.62138 222.01 -0.0990744 190.75 0.386126 162.491Z" fill="white"/>
<path fill-rule="evenodd" clip-rule="evenodd" d="M99.6792 129.327H35.5497C20.7708 129.327 9.22354 138.424 5.04671 151.975C2.64672 159.761 2.95514 169.143 3.38491 177.154C4.66213 200.96 8.93484 226.344 15.3372 248.83C16.1627 251.729 17.465 253.583 19.2027 254.852C28.5039 261.647 46.1687 266.953 68.6338 266.709C91.0631 266.465 101.592 260.686 109.578 254.852C111.316 253.583 112.618 251.729 113.443 248.83C121.208 221.561 157.771 129.327 99.6792 129.327ZM134.843 162.491C134.843 143.07 119.099 127.327 99.6792 127.327H35.5497C16.1294 127.327 0.386126 143.07 0.386126 162.491C-0.0990745 190.75 5.62138 222.01 13.4136 249.377C14.3386 252.626 15.8638 254.89 18.023 256.467C27.7957 263.606 45.9414 270.488 68.6555 270.241C91.3392 269.994 108.773 262.628 117.206 256.467C119.365 254.89 120.89 252.626 121.815 249.377C129.691 221.718 135.679 191.098 134.843 162.491Z" fill="#110545"/>
<path fill-rule="evenodd" clip-rule="evenodd" d="M106.054 124.918L114.74 124.918C117.017 126.843 116.74 130.922 114.422 132.692C110.693 137.594 91.1691 141.332 67.6437 141.332C44.0969 141.332 24.5586 137.587 20.8552 132.679C18.1643 130.641 18.8575 126.347 20.5235 124.918L29.2328 124.918C37.8504 122.326 51.8447 120.641 67.6437 120.641C83.4425 120.641 97.4368 122.326 106.054 124.918Z" fill="white"/>
<path fill-rule="evenodd" clip-rule="evenodd" d="M105.76 126.918L105.478 126.833C97.1228 124.32 83.3455 122.641 67.6437 122.641C51.9417 122.641 38.1644 124.32 29.8089 126.833L29.5271 126.918L21.4771 126.918C21.2682 127.316 21.0762 127.909 21.0546 128.63C21.0229 129.688 21.3735 130.563 22.0628 131.085L22.2844 131.253L22.4518 131.475C23.0187 132.226 24.4729 133.216 27.1319 134.234C29.7009 135.217 33.0993 136.118 37.1756 136.88C45.3196 138.402 55.9643 139.332 67.6437 139.332C79.3124 139.332 89.9485 138.404 98.0896 136.884C102.164 136.124 105.563 135.224 108.135 134.242C110.795 133.226 112.256 132.236 112.83 131.482L112.994 131.267L113.208 131.103C113.814 130.64 114.256 129.774 114.307 128.763C114.343 128.036 114.171 127.396 113.861 126.918L105.76 126.918ZM114.74 124.918C115.969 125.957 116.454 127.625 116.275 129.218C115.73 134.071 109.335 136.221 105.478 137.435C96.8207 140.159 83.0952 142.105 67.6437 142.105C49.426 142.105 33.6077 139.401 25.6658 135.904C22.902 134.687 19.3291 132.588 19.0703 129.218C18.9373 127.486 19.5716 125.734 20.5235 124.918L29.2328 124.918C37.8504 122.326 51.8447 120.641 67.6437 120.641C83.4425 120.641 97.4368 122.326 106.054 124.918L114.74 124.918Z" fill="#110545"/>
<path d="M115.1 123.561C115.1 129.275 93.8694 133.907 67.68 133.907C41.4905 133.907 20.2598 129.275 20.2598 123.561C20.2598 117.848 41.4905 113.216 67.68 113.216C93.8694 113.216 115.1 117.848 115.1 123.561Z" fill="white"/>
<path fill-rule="evenodd" clip-rule="evenodd" d="M112.678 124.278C113.086 123.843 113.1 123.611 113.1 123.561C113.1 123.512 113.086 123.28 112.678 122.845C112.261 122.4 111.547 121.874 110.457 121.312C108.282 120.19 105.003 119.12 100.785 118.2C92.3809 116.367 80.6756 115.216 67.68 115.216C54.6844 115.216 42.979 116.367 34.5751 118.2C30.3569 119.12 27.0784 120.19 24.9031 121.312C23.8129 121.874 23.0992 122.4 22.6819 122.845C22.2737 123.28 22.2598 123.512 22.2598 123.561C22.2598 123.611 22.2737 123.843 22.6819 124.278C23.0992 124.723 23.8129 125.249 24.9031 125.811C27.0784 126.933 30.3569 128.002 34.5751 128.923C42.979 130.756 54.6844 131.907 67.68 131.907C80.6756 131.907 92.3809 130.756 100.785 128.923C105.003 128.002 108.282 126.933 110.457 125.811C111.547 125.249 112.261 124.723 112.678 124.278ZM67.68 134.402C93.8694 134.402 115.1 129.275 115.1 123.561C115.1 117.848 93.8694 113.216 67.68 113.216C41.4905 113.216 20.2598 117.848 20.2598 123.561C20.2598 129.275 41.4905 134.402 67.68 134.402Z" fill="#110545"/>
<path d="M119.593 102.758H15.6283C13.1493 106.091 12.1986 114.631 15.1296 119.695C15.3963 120.156 15.7064 120.636 16.0435 121.044C19.9114 125.726 41.4796 129.31 67.507 129.31C92.8024 129.31 113.886 125.925 118.602 121.436C119.478 120.603 120.129 119.725 120.596 118.568C122.501 113.855 122.384 106.002 119.593 102.758Z" fill="white"/>
<path fill-rule="evenodd" clip-rule="evenodd" d="M16.7425 104.758C16.0472 106.123 15.4858 108.25 15.347 110.691C15.1786 113.65 15.6593 116.618 16.8605 118.693C17.0983 119.104 17.3459 119.48 17.5854 119.77C18.1616 120.468 19.7422 121.428 22.6908 122.414C25.5241 123.362 29.2811 124.228 33.7858 124.959C42.7857 126.419 54.5743 127.31 67.507 127.31C80.0751 127.31 91.5641 126.468 100.464 125.08C104.916 124.386 108.68 123.56 111.59 122.651C114.578 121.717 116.398 120.773 117.224 119.987C117.929 119.316 118.399 118.668 118.742 117.819C119.565 115.783 119.987 112.94 119.858 110.206C119.749 107.899 119.263 105.985 118.56 104.758H16.7425ZM119.593 102.758H15.6283C13.1493 106.091 12.1986 114.631 15.1296 119.695C15.3963 120.156 15.7064 120.636 16.0435 121.044C19.9114 125.726 41.0199 130.065 67.0473 130.065C92.3427 130.065 113.886 125.925 118.602 121.436C119.478 120.603 120.129 119.725 120.596 118.568C122.501 113.855 122.384 106.002 119.593 102.758Z" fill="#110545"/>
<path d="M120.226 104.504C120.226 111.859 96.6996 117.822 67.6784 117.822C38.6572 117.822 15.1309 111.859 15.1309 104.504C15.1309 97.149 38.6572 91.1865 67.6784 91.1865C96.6996 91.1865 120.226 97.149 120.226 104.504Z" fill="white"/>
<path fill-rule="evenodd" clip-rule="evenodd" d="M115.068 107.972C117.615 106.446 118.226 105.213 118.226 104.504C118.226 103.796 117.615 102.562 115.068 101.036C112.648 99.5855 109.012 98.209 104.344 97.0258C95.0371 94.6672 82.0731 93.1865 67.6784 93.1865C53.2837 93.1865 40.3197 94.6672 31.013 97.0258C26.3445 98.209 22.7088 99.5855 20.2883 101.036C17.7415 102.562 17.1309 103.796 17.1309 104.504C17.1309 105.213 17.7415 106.446 20.2883 107.972C22.7088 109.423 26.3445 110.799 31.013 111.982C40.3197 114.341 53.2837 115.822 67.6784 115.822C82.0731 115.822 95.0371 114.341 104.344 111.982C109.012 110.799 112.648 109.423 115.068 107.972ZM67.6784 119.124C96.6996 119.124 120.226 111.859 120.226 104.504C120.226 97.149 96.6996 91.1865 67.6784 91.1865C38.6572 91.1865 15.1309 97.149 15.1309 104.504C15.1309 111.859 38.6572 119.124 67.6784 119.124Z" fill="#110545"/>
<path d="M111.376 104.337C111.376 109.272 91.8117 113.271 67.6775 113.271C43.5432 113.271 23.9785 109.272 23.9785 104.337C23.9785 99.4032 43.5432 95.4033 67.6775 95.4033C91.8117 95.4033 111.376 99.4032 111.376 104.337Z" fill="white"/>
<path fill-rule="evenodd" clip-rule="evenodd" d="M109.379 104.307C109.379 104.307 109.379 104.31 109.377 104.317C109.378 104.31 109.379 104.307 109.379 104.307ZM109.37 104.337C109.348 104.283 109.279 104.155 109.075 103.952C108.713 103.59 108.074 103.145 107.072 102.661C105.078 101.697 102.063 100.774 98.1767 99.9795C90.4361 98.397 79.6519 97.4033 67.6775 97.4033C55.703 97.4033 44.9189 98.397 37.1782 99.9795C33.2915 100.774 30.2772 101.697 28.283 102.661C27.2814 103.145 26.6421 103.59 26.2799 103.952C26.076 104.155 26.0067 104.283 25.9848 104.337C26.0067 104.392 26.076 104.519 26.2799 104.723C26.6421 105.085 27.2814 105.53 28.283 106.014C30.2772 106.978 33.2915 107.901 37.1782 108.695C44.9189 110.278 55.703 111.271 67.6775 111.271C79.6519 111.271 90.4361 110.278 98.1767 108.695C102.063 107.901 105.078 106.978 107.072 106.014C108.074 105.53 108.713 105.085 109.075 104.723C109.279 104.519 109.348 104.392 109.37 104.337ZM25.9755 104.307C25.9755 104.307 25.9767 104.31 25.9774 104.317C25.9756 104.31 25.9755 104.307 25.9755 104.307ZM25.9755 104.368C25.9755 104.368 25.9756 104.365 25.9774 104.358C25.9767 104.365 25.9755 104.368 25.9755 104.368ZM109.377 104.358C109.379 104.365 109.379 104.368 109.379 104.368C109.379 104.368 109.378 104.365 109.377 104.358ZM67.6775 113.75C91.8117 113.75 111.376 109.272 111.376 104.337C111.376 99.4032 91.8117 95.4033 67.6775 95.4033C43.5432 95.4033 23.9785 99.4032 23.9785 104.337C23.9785 109.272 43.5432 113.75 67.6775 113.75Z" fill="#110545"/>
<path d="M26.3867 145.5C24.8713 148.272 23.9061 158.837 23.6129 163.773C19.6902 165.69 7.80837 170.779 6.91109 174.876C6.44349 177.011 9.81761 178.847 13.5972 180.75C17.3769 182.653 23.3407 185.247 24.7125 186.507C26.0843 187.768 25.839 190.558 27.5654 196.977C29.2918 203.396 30.0162 207.51 32.2386 207.905C34.5972 208.323 35.2215 206.544 37.8999 204.157C40.5782 201.769 46.4381 193.601 46.8702 192.725C47.3024 191.848 48.3278 192.247 50.2394 192.764C52.1511 193.281 63.5859 194.493 65.0819 193.09C67.4785 190.843 61.7706 179.83 59.3605 175.985C56.9505 172.139 57.6211 172.24 59.1598 167.979C60.3248 164.753 62.752 158.529 60.8625 156.194C58.9753 153.862 50.6254 156.103 47.3704 156.977L47.3589 156.98C44.1121 157.851 42.6487 153.658 38.6472 150.068C33.1927 145.173 28.281 142.035 26.3867 145.5Z" fill="#3852CE" stroke="#110545" stroke-width="2"/>
<path fill-rule="evenodd" clip-rule="evenodd" d="M28.1927 143.074C27.0396 143.239 26.1194 143.905 25.5095 145.02C25.0537 145.854 24.686 147.163 24.3771 148.624C24.0613 150.117 23.7855 151.881 23.55 153.697C23.1146 157.055 22.8112 160.641 22.6513 163.127C22.3013 163.294 21.9054 163.481 21.473 163.684C19.361 164.679 16.379 166.083 13.6348 167.637C11.8269 168.662 10.0761 169.776 8.70821 170.914C7.38486 172.016 6.23573 173.287 5.93451 174.662C5.56072 176.369 6.77964 177.718 8.05346 178.694C9.39836 179.725 11.2733 180.699 13.1478 181.643C14.248 182.197 15.5529 182.819 16.8649 183.444C17.8032 183.892 18.7453 184.341 19.6188 184.768C20.6816 185.288 21.6554 185.781 22.4434 186.218C23.2574 186.67 23.7905 187.018 24.0361 187.244C24.4406 187.616 24.6862 188.278 25.0251 190.001C25.0861 190.311 25.1492 190.648 25.2175 191.011C25.508 192.559 25.8917 194.603 26.6 197.237C26.8342 198.107 27.0521 198.945 27.2594 199.742C27.8026 201.83 28.2734 203.64 28.775 205.038C29.1242 206.011 29.5174 206.874 30.0148 207.535C30.5253 208.213 31.1893 208.734 32.0643 208.89C32.7893 209.018 33.4435 208.987 34.0605 208.779C34.666 208.576 35.1638 208.226 35.6099 207.834C35.9941 207.496 36.3836 207.086 36.7823 206.666C36.8353 206.61 36.8884 206.554 36.9416 206.498C37.409 206.007 37.9274 205.472 38.5655 204.904C39.9898 203.634 42.1812 200.915 44.0251 198.478C44.9586 197.244 45.8221 196.057 46.481 195.121C47.0843 194.264 47.5719 193.54 47.7455 193.21C47.7797 193.209 47.8302 193.21 47.9009 193.217C48.2436 193.252 48.6827 193.373 49.348 193.557C49.5387 193.61 49.7479 193.667 49.9787 193.73C51.0435 194.018 54.4716 194.453 57.7584 194.646C59.4176 194.743 61.0905 194.781 62.4582 194.702C63.14 194.663 63.7747 194.593 64.3061 194.477C64.7908 194.372 65.3677 194.194 65.7662 193.82C66.2941 193.325 66.5288 192.654 66.6148 191.998C66.701 191.339 66.6511 190.602 66.5245 189.845C66.2709 188.33 65.6752 186.544 64.9504 184.761C63.4967 181.184 61.439 177.418 60.2082 175.454C58.9779 173.491 58.741 172.819 58.7779 172.197C58.7979 171.861 58.9041 171.472 59.1407 170.836C59.2197 170.623 59.3209 170.364 59.4362 170.069C59.6308 169.571 59.8654 168.971 60.1006 168.319C60.1644 168.143 60.2325 167.955 60.304 167.759C60.8745 166.193 61.6578 164.042 62.1316 161.976C62.3985 160.812 62.5798 159.624 62.5575 158.546C62.5354 157.483 62.3127 156.396 61.6401 155.565C60.9022 154.653 59.6695 154.324 58.5062 154.214C57.2936 154.1 55.8814 154.2 54.4825 154.395C51.6932 154.782 48.7489 155.572 47.1268 156.007L47.0999 156.014C46.5328 156.167 46.0828 156.1 45.6365 155.878C45.1486 155.635 44.6367 155.191 44.0237 154.522C43.6238 154.085 43.2257 153.605 42.7835 153.072C42.5393 152.778 42.2816 152.467 42.0026 152.138C41.2393 151.239 40.3642 150.265 39.3153 149.324C36.5823 146.871 33.8916 144.769 31.5915 143.737C30.443 143.221 29.2755 142.918 28.1927 143.074ZM30.7727 145.562C32.7656 146.456 35.2581 148.37 37.9796 150.812C38.9315 151.666 39.7399 152.563 40.4778 153.432C40.7202 153.718 40.9609 154.008 41.1985 154.294C41.6641 154.856 42.1179 155.402 42.549 155.873C43.2078 156.592 43.9207 157.258 44.7453 157.668C45.6117 158.099 46.5621 158.23 47.6183 157.946C49.2488 157.508 52.0944 156.745 54.7574 156.376C56.0924 156.19 57.3293 156.112 58.3184 156.205C59.3569 156.303 59.8787 156.568 60.0855 156.823C60.3577 157.16 60.5401 157.727 60.5579 158.588C60.5755 159.434 60.4315 160.442 60.1822 161.529C59.7383 163.465 59.0005 165.492 58.4261 167.071C58.3544 167.268 58.2852 167.458 58.2195 167.64C57.9818 168.298 57.783 168.805 57.6032 169.264C57.4844 169.567 57.3739 169.849 57.2661 170.139C57.0195 170.802 56.8202 171.427 56.7814 172.079C56.7009 173.433 57.3337 174.633 58.5135 176.516C59.6927 178.398 61.694 182.061 63.0976 185.514C63.8014 187.245 64.334 188.874 64.5519 190.176C64.661 190.827 64.6827 191.349 64.6317 191.738C64.5805 192.129 64.4694 192.294 64.3982 192.361C64.4037 192.356 64.4025 192.356 64.3923 192.362C64.3573 192.379 64.2168 192.45 63.8805 192.523C63.4927 192.608 62.9737 192.669 62.3432 192.706C61.0865 192.778 59.5006 192.744 57.8752 192.649C54.5927 192.457 51.2165 191.615 50.3697 191.386C50.1996 191.34 50.0298 191.293 49.8617 191.246C49.165 191.052 48.4986 190.867 47.9686 190.814C47.6174 190.779 47.1996 190.784 46.795 190.953C46.3546 191.136 46.0422 191.465 45.8425 191.87C45.8425 191.87 45.836 191.883 45.8176 191.915C45.8003 191.945 45.7771 191.983 45.7471 192.032C45.687 192.129 45.6066 192.253 45.5064 192.404C45.3064 192.706 45.0372 193.098 44.7145 193.557C41.8327 197.651 38.8812 202.019 35.0027 205.258C34.204 205.924 33.3368 206.327 32.489 205.909C31.6543 205.498 31.1999 204.288 30.8934 203.434C29.1823 198.665 29.0153 194.522 27.9534 189.645C27.5929 187.99 27.0166 186.499 26.0114 185.575C25.571 185.171 24.8442 184.722 24.0361 184.273C19.6839 181.857 14.3503 180.312 10.3667 177.259C8.1654 175.573 9.22699 174.15 11.0843 172.604C15.7552 168.717 20.272 168.093 25.5334 165.522L26.0579 165.265L26.0926 164.682C26.2381 162.231 25.0697 157.53 25.5334 153.954C25.7654 152.165 26.0333 150.459 26.3338 149.038C26.6413 147.584 26.9625 146.532 27.2644 145.98C27.6016 145.363 28.0058 145.121 28.4769 145.054C29.0182 144.976 29.7747 145.114 30.7727 145.562Z" fill="#110545"/>
<path d="M96.0898 172.855C97.1335 174.765 97.7983 182.041 98.0002 185.44C100.702 186.761 108.885 190.266 109.503 193.087C109.825 194.558 107.501 195.822 104.898 197.133C102.295 198.443 98.1877 200.23 97.2429 201.098C96.298 201.966 96.467 203.888 95.278 208.308C94.089 212.729 93.5901 215.563 92.0595 215.835C90.4351 216.123 90.0051 214.898 88.1605 213.254C86.3158 211.609 82.28 205.984 81.9824 205.38C81.6848 204.776 80.9786 205.051 79.662 205.407C78.3454 205.763 70.47 206.598 69.4397 205.632C67.7891 204.084 71.7202 196.499 73.3801 193.851C75.0399 191.202 74.5781 191.272 73.5184 188.337C72.716 186.115 71.0443 181.828 72.3456 180.221C73.6454 178.615 79.3961 180.158 81.6379 180.76L81.6459 180.762C83.882 181.362 84.8898 178.474 87.6458 176.001C91.4024 172.63 94.7852 170.469 96.0898 172.855Z" fill="white"/>
<path fill-rule="evenodd" clip-rule="evenodd" d="M94.8901 170.876C95.7904 171.006 96.5045 171.53 96.967 172.376C97.3048 172.994 97.5653 173.935 97.7783 174.943C97.9982 175.982 98.1894 177.206 98.3521 178.461C98.6425 180.701 98.8478 183.086 98.9611 184.793C99.1559 184.885 99.3691 184.986 99.5974 185.093C101.052 185.778 103.124 186.754 105.026 187.831C106.277 188.54 107.502 189.318 108.464 190.12C109.383 190.884 110.248 191.817 110.48 192.874C110.781 194.248 109.788 195.288 108.906 195.964C107.952 196.695 106.634 197.379 105.348 198.026C104.589 198.408 103.683 198.84 102.775 199.273C102.129 199.581 101.482 199.889 100.888 200.18C100.157 200.537 99.4922 200.874 98.9566 201.171C98.3951 201.483 98.0581 201.707 97.9193 201.835C97.7283 202.01 97.5703 202.357 97.3329 203.564C97.2914 203.775 97.2483 204.005 97.2015 204.254C97.0015 205.32 96.7347 206.742 96.2434 208.568C96.0846 209.159 95.936 209.73 95.7939 210.276C95.4181 211.721 95.0884 212.989 94.7378 213.966C94.4937 214.646 94.2103 215.275 93.8397 215.767C93.4561 216.277 92.9359 216.695 92.2338 216.82C91.6924 216.916 91.188 216.895 90.7055 216.732C90.2344 216.574 89.8558 216.305 89.532 216.02C89.256 215.777 88.9771 215.483 88.7041 215.196C88.6676 215.157 88.6312 215.119 88.5949 215.081C88.2745 214.744 87.9245 214.383 87.4948 214C86.4874 213.102 84.9604 211.205 83.6936 209.53C83.0486 208.678 82.4518 207.857 81.9959 207.21C81.67 206.747 81.3807 206.323 81.2093 206.042C81.1075 206.059 80.9725 206.089 80.7889 206.136C80.6434 206.174 80.4973 206.214 80.3321 206.26C80.2088 206.295 80.0749 206.332 79.9227 206.373C79.1554 206.58 76.7659 206.881 74.5016 207.014C73.3536 207.081 72.188 207.108 71.2287 207.053C70.7511 207.025 70.296 206.976 69.9077 206.891C69.566 206.817 69.0957 206.68 68.7554 206.361C68.3207 205.954 68.1398 205.413 68.0752 204.92C68.0103 204.424 68.0491 203.883 68.1391 203.346C68.3193 202.269 68.7393 201.014 69.2418 199.778C70.2508 197.295 71.6767 194.686 72.5325 193.32C73.3877 191.955 73.4892 191.575 73.4706 191.261C73.4597 191.079 73.4011 190.847 73.2397 190.413C73.1896 190.279 73.1217 190.105 73.0433 189.904C72.9072 189.555 72.7393 189.125 72.5775 188.677C72.5339 188.556 72.4872 188.428 72.438 188.293C72.0457 187.216 71.4991 185.716 71.1682 184.272C70.9815 183.459 70.8508 182.613 70.867 181.834C70.8828 181.07 71.0425 180.241 71.568 179.592C72.1583 178.863 73.1164 178.625 73.936 178.547C74.8048 178.465 75.8032 178.537 76.7754 178.672C78.7177 178.941 80.7638 179.49 81.8814 179.79L81.9048 179.796C82.2193 179.881 82.4514 179.844 82.6933 179.724C82.977 179.583 83.2982 179.312 83.7133 178.859C83.9839 178.563 84.2497 178.243 84.5503 177.88C84.7193 177.676 84.8993 177.459 85.0974 177.226C85.6271 176.602 86.2402 175.919 86.9776 175.257C88.8618 173.567 90.7457 172.09 92.3776 171.357C93.1921 170.992 94.0601 170.757 94.8901 170.876ZM93.1964 173.182C91.8717 173.776 90.1859 175.066 88.3134 176.746C87.6729 177.321 87.1265 177.926 86.6222 178.52C86.4608 178.71 86.2978 178.907 86.1353 179.103C85.8114 179.493 85.4898 179.88 85.1879 180.21C84.7271 180.713 84.2048 181.206 83.5845 181.515C82.9224 181.844 82.19 181.944 81.3864 181.728L81.3784 181.726C80.2507 181.423 78.3105 180.904 76.5011 180.653C75.593 180.527 74.7698 180.477 74.1247 180.539C73.4305 180.604 73.1824 180.776 73.1227 180.85C72.9975 181.005 72.8782 181.314 72.8666 181.876C72.8552 182.422 72.9486 183.089 73.1175 183.825C73.4186 185.138 73.9197 186.516 74.3159 187.605C74.3653 187.74 74.4131 187.872 74.4587 187.998C74.6228 188.453 74.7549 188.789 74.8763 189.099C74.9583 189.307 75.0354 189.504 75.1143 189.716C75.2856 190.177 75.4374 190.644 75.467 191.142C75.5293 192.189 75.0318 193.098 74.2272 194.382C73.4231 195.665 72.0535 198.172 71.0946 200.531C70.6131 201.715 70.2561 202.812 70.1116 203.676C70.0392 204.108 70.0287 204.434 70.0583 204.66C70.0734 204.775 70.0954 204.841 70.1108 204.876C70.1479 204.889 70.2178 204.912 70.3333 204.937C70.578 204.99 70.9174 205.032 71.3437 205.056C72.192 205.105 73.2706 205.082 74.3848 205.017C76.6449 204.885 78.8514 204.591 79.4007 204.442C79.5101 204.413 79.6216 204.382 79.7339 204.35C80.215 204.216 80.71 204.078 81.1047 204.039C81.3704 204.012 81.7172 204.012 82.0636 204.157C82.4458 204.316 82.7131 204.601 82.8791 204.938C82.8748 204.93 82.8862 204.952 82.9302 205.023C82.9693 205.086 83.0229 205.169 83.0908 205.272C83.2265 205.476 83.4101 205.744 83.6314 206.059C84.0735 206.687 84.6567 207.489 85.2885 208.324C86.5751 210.024 87.3897 211.288 88.2268 212.035C88.9383 212.669 89.5396 213.417 90.2539 214.045C91.3407 215.001 91.9349 213.714 92.2566 212.817C93.4206 209.573 94.1088 206.077 94.7718 202.706C94.9834 201.63 95.2133 200.582 95.9671 199.889C96.3008 199.583 96.8315 199.258 97.3872 198.95C100.53 197.205 104.218 196.105 107.09 193.904C108.43 192.877 107.726 192.133 106.586 191.184C105.756 190.493 104.65 189.783 103.441 189.099C101.614 188.063 100.256 187.615 98.8038 186.931C98.3279 186.707 97.9062 186.508 97.5608 186.339L97.0363 186.083L97.0017 185.5C96.9017 183.817 96.6869 181.172 96.3687 178.718C96.2095 177.49 96.0262 176.324 95.8216 175.356C95.6101 174.356 95.3961 173.672 95.2121 173.335C95.0223 172.988 94.8243 172.888 94.6059 172.856C94.3174 172.815 93.8603 172.884 93.1964 173.182Z" fill="#110545"/>
<path d="M104.42 149.202C105.047 146.951 107.894 146.249 109.495 147.951L112.63 151.281C113.227 151.916 114.071 152.26 114.942 152.223L119.512 152.027C121.847 151.928 123.394 154.418 122.27 156.467L120.071 160.477C119.652 161.242 119.586 162.151 119.891 162.968L121.488 167.253C122.305 169.443 120.414 171.684 118.118 171.248L113.625 170.396C112.768 170.234 111.883 170.452 111.201 170.994L107.619 173.838C105.788 175.291 103.073 174.186 102.778 171.867L102.199 167.331C102.089 166.466 101.608 165.692 100.882 165.21L97.0703 162.682C95.1226 161.39 95.3346 158.466 97.4482 157.469L101.584 155.517C102.373 155.145 102.96 154.448 103.194 153.608L104.42 149.202Z" fill="#110545"/>
<path d="M95.852 220.163C97.8638 218.974 100.403 220.44 100.379 222.777L100.295 230.851C100.28 232.304 100.898 233.691 101.988 234.653L108.044 239.993C109.797 241.539 109.187 244.407 106.957 245.106L99.2525 247.521C97.8659 247.956 96.7371 248.972 96.1598 250.306L92.9521 257.716C92.0237 259.861 89.1079 260.167 87.7538 258.262L83.0756 251.681C82.2337 250.497 80.9182 249.737 79.4715 249.6L71.433 248.839C69.1063 248.619 67.9139 245.941 69.307 244.064L74.1204 237.582C74.9866 236.415 75.3024 234.929 74.9856 233.511L73.2253 225.631C72.7157 223.35 74.8945 221.388 77.1096 222.133L84.7627 224.708C86.1399 225.171 87.6506 225.012 88.9015 224.273L95.852 220.163Z" fill="white" stroke="#110545" stroke-width="2"/>
<path d="M33.7928 214.219C34.0454 211.745 37.0248 210.635 38.8346 212.34L44.9908 218.14C45.7094 218.817 46.7153 219.097 47.6805 218.889L55.9487 217.106C58.3793 216.582 60.3559 219.072 59.2934 221.321L55.6794 228.968C55.2575 229.861 55.3019 230.904 55.7981 231.757L60.0489 239.07C61.2986 241.22 59.5408 243.869 57.0744 243.553L48.6846 242.479C47.7052 242.354 46.7268 242.718 46.0683 243.454L40.4272 249.757C38.7689 251.609 35.7059 250.756 35.2441 248.313L33.6729 240.002C33.4895 239.032 32.8404 238.214 31.9372 237.815L24.2 234.398C21.9255 233.393 21.7903 230.216 23.9712 229.022L31.39 224.96C32.2561 224.485 32.8333 223.615 32.9336 222.633L33.7928 214.219Z" fill="#110545"/>
<path d="M167.385 246.992C156.87 268.307 133.746 278.072 115.869 269.253C97.9929 260.435 91.6702 236.143 102.185 214.828C112.7 193.513 135.824 183.748 153.701 192.567C171.577 201.386 177.9 225.678 167.385 246.992Z" fill="#110545" stroke="#110545" stroke-width="2"/>
<path d="M174.789 249.702C164.274 271.017 141.15 280.782 123.274 271.963C105.397 263.145 99.0745 238.853 109.59 217.538C120.105 196.223 143.228 186.458 161.105 195.277C178.981 204.096 185.304 228.388 174.789 249.702Z" fill="#3852CE" stroke="#110545" stroke-width="2"/>
<path fill-rule="evenodd" clip-rule="evenodd" d="M158.095 228.84L142.516 251.803L126.98 242.814L126.981 234.139L141.064 241.941L158.095 217.268V228.84Z" fill="white"/>
<path fill-rule="evenodd" clip-rule="evenodd" d="M176.381 76.6352C177.314 77.55 178.714 80.4316 176.843 84.6406C172.796 93.7455 155.847 98.0643 154.142 91.299C152.959 91.4645 149.607 91.4047 145.661 89.8412C141.96 88.3748 139.492 85.9018 137.436 83.8421C136.752 83.1568 136.113 82.5172 135.491 81.9756C132.995 79.8067 129.545 79.1483 126.091 78.7518C124.99 78.6253 123.894 78.6381 122.838 78.6505C120.582 78.677 118.506 78.7013 116.938 77.3631C115.096 75.791 114.561 73.0003 115.649 71.956C115.355 71.6217 114.654 70.4108 114.535 69.2371C114.416 68.0692 114.346 67.0384 116.538 63.7121C118.729 60.3859 121.083 58.3878 120.623 54.1154C120.162 49.843 123.933 49.8234 126.261 50.184C128.123 50.4724 132.399 49.984 134.304 49.7038C134.037 49.2912 132.829 48.2874 130.133 47.5727C128.692 47.1909 127.961 47.2122 127.057 47.2386C125.846 47.274 124.326 47.3184 120.375 46.4145C113.476 44.8358 110.971 40.6502 109.764 37.7852C108.799 35.4932 111.626 33.4632 113.161 32.7347C112.897 31.973 112.519 29.9584 113.123 27.9944C113.877 25.5395 119.324 25.7444 127.28 26.2847C133.644 26.717 141.105 30.2974 144.04 32.0336C146.493 32.116 151.814 32.5464 153.481 33.6083C154.212 34.074 155.006 34.669 155.897 35.3373C157.548 36.574 159.533 38.0615 162.071 39.4436C165.98 41.5724 168.476 43.7413 173.794 55.5451C178.048 64.9881 177.291 73.5398 176.381 76.6352ZM127.525 66.5723C128.72 63.7639 129.617 62.7238 130.946 59.4946L137.852 60.2877C137.77 61.7185 137.836 65.132 138.76 67.3396C139.683 69.5473 142.516 73.0634 143.571 74.2422C137.315 73.8475 130.749 69.7611 127.525 66.5723Z" fill="#110545" stroke="white" stroke-width="1.5" stroke-linecap="round" stroke-linejoin="round"/>
<path d="M176.382 76.636C177.316 77.5507 178.716 80.4323 176.845 84.6413C172.797 93.7462 155.849 98.065 154.143 91.2997" stroke="white" stroke-width="2" stroke-linecap="round" stroke-linejoin="round"/>
<path d="M167.586 80.566C170.765 81.4806 177.121 80.9198 177.119 71.3602C177.116 59.4107 170.714 44.0184 163.256 39.7661C155.798 35.5138 155.928 35.9151 153.546 33.7607C151.164 31.6062 143.685 32.8751 137.084 31.3242C130.483 29.7733 126.534 29.8455 129.086 36.9626C131.638 44.0797 145.603 45.4812 148.803 45.5089C152.004 45.5367 152.517 44.821 154.233 46.8363C155.606 48.4486 157.08 49.715 157.645 50.1466" stroke="white" stroke-width="1.5" stroke-linecap="round" stroke-linejoin="round"/>
<path d="M143.375 31.6981C140.197 30.1327 132.45 26.9523 126.882 26.7545C119.922 26.5072 114.25 25.3645 113.024 28.4212C111.797 31.4779 115.272 36.6824 118.942 37.9413C121.879 38.9485 127.234 39.418 129.544 39.5268" stroke="white" stroke-width="1.5" stroke-linecap="round" stroke-linejoin="round"/>
<path d="M154.934 48.9492C150.652 47.9024 143.19 49.9144 140.447 55.5717" stroke="white" stroke-width="1.5" stroke-linecap="round" stroke-linejoin="round"/>
<path d="M144.348 45.4971L147.92 48.8623" stroke="white" stroke-width="2" stroke-linecap="round" stroke-linejoin="round"/>
<path d="M159.285 54.9883C159.171 56.8812 159.325 61.5826 160.851 65.2445C162.376 68.9064 165.116 72.6519 166.295 74.0668" stroke="white" stroke-width="1.5" stroke-linecap="round" stroke-linejoin="round"/>
<path d="M112.902 33.1947C110.796 34.1367 108.034 36.8422 112.391 41.19C117.78 46.5672 122.177 47.3841 126.29 47.0718C130.4 46.7597 133.698 48.3645 135.763 50.1428C137.415 51.5655 138.811 53.4949 139.207 53.9874" stroke="white" stroke-width="1.5" stroke-linecap="round" stroke-linejoin="round"/>
<path d="M133.401 49.8562C130.723 50.1262 124.685 50.1329 123.513 50.0162C122.048 49.8704 120.317 51.5801 119.997 55.8649C119.641 60.634 116.419 63.8267 115.174 65.8964C113.929 67.9662 114.336 70.6868 115.474 71.7902C116.611 72.8937 121.359 75.9489 124.825 70.0042C127.597 65.2485 130.902 61.3039 130.918 59.4369L137.634 60.1353C137.702 61.4962 138.025 64.8704 138.77 67.4802C139.516 70.0899 141.216 71.1349 143.198 73.833" stroke="white" stroke-width="1.5" stroke-linecap="round" stroke-linejoin="round"/>
<path d="M156.859 70.118C155.561 69.1378 152.063 67.831 148.455 70.4455C143.945 73.7136 144.806 75.8815 137.416 72.9901C131.504 70.677 128.281 67.2103 127.974 66.6296" stroke="white" stroke-width="1.5" stroke-linecap="round" stroke-linejoin="round"/>
<path fill-rule="evenodd" clip-rule="evenodd" d="M161.892 85.6049C162.244 85.8235 162.352 86.2859 162.133 86.6377C161.341 87.9132 158.938 90.6496 155.467 91.6056C153.262 92.2129 150.111 91.9522 147.191 91.1329C144.274 90.3146 141.386 88.8826 139.792 86.9651C136.936 83.5293 132.538 80.1878 128.299 79.9014C127.594 79.8537 126.733 79.8527 125.766 79.8515C125.211 79.8508 124.622 79.8501 124.006 79.8405C122.361 79.8149 120.578 79.7246 119.053 79.3687C117.556 79.0193 116.113 78.3693 115.412 77.0651C114.695 75.7304 114.904 74.0029 116.005 71.875C116.196 71.5072 116.537 71.8024 116.905 71.9929C117.272 72.1833 117.528 72.1967 117.338 72.5646C116.322 74.5257 116.366 75.6711 116.733 76.3552C117.117 77.0698 118.008 77.5845 119.394 77.908C120.752 78.2249 122.398 78.3153 124.029 78.3407C124.585 78.3493 125.146 78.3502 125.69 78.351C126.699 78.3526 127.649 78.3541 128.4 78.4048C133.252 78.7327 137.995 82.4568 140.946 86.0062C142.255 87.5814 144.798 88.9037 147.596 89.6887C150.39 90.4727 153.236 90.6641 155.069 90.1594C158.057 89.3363 160.19 86.9233 160.859 85.8464C161.077 85.4946 161.54 85.3864 161.892 85.6049Z" fill="white"/>
<path d="M172.439 90.8342C172.671 111.676 161.935 134.174 147.728 149.18M162.139 94.6099C162.166 98.9697 160.318 110.117 152.707 119.826C145.096 129.536 138.183 136.423 135.678 138.652" stroke="#110545" stroke-width="2" stroke-linecap="round" stroke-linejoin="round"/>
<mask id="mask0_1369_8840" style="mask-type:alpha" maskUnits="userSpaceOnUse" x="26" y="27" width="98" height="85">
<path d="M42.3209 73.3945C42.202 71.1534 21.4573 55.5889 28.7346 47.9772L65.9513 47.9772L86.0477 28.6773L99.9925 43.4566L120.052 65.2078L122.674 83.1389L105.857 106.813C103.653 107.841 96.8179 109.185 86.0478 110.467C76.9531 111.55 43.2899 111.341 37.935 110.468C31.7384 99.2114 42.4399 75.6357 42.3209 73.3945Z" fill="#D9D9D9" stroke="black"/>
</mask>
<g mask="url(#mask0_1369_8840)">
<path d="M96.5718 41.3416C98.5393 44.9408 99.7925 58.658 100.173 65.0667C105.266 67.5559 120.693 74.1632 121.858 79.4822C122.465 82.2541 118.084 84.6377 113.177 87.1082C108.27 89.5788 100.527 92.9468 98.7455 94.5838C96.9643 96.2209 97.2828 99.8424 95.0414 108.176C92.7999 116.511 91.8594 121.853 88.9739 122.365C85.9117 122.908 85.1012 120.599 81.6237 117.499C78.1462 114.399 70.5381 103.794 69.977 102.656C69.416 101.518 68.0846 102.036 65.6026 102.707C63.1206 103.378 48.2743 104.952 46.3319 103.13C43.2203 100.213 50.6312 85.9145 53.7602 80.9215C56.8893 75.9285 56.0186 76.06 54.0209 70.5277C52.5083 66.3387 49.3569 58.2575 51.8101 55.2264C54.2604 52.1989 65.1015 55.1085 69.3276 56.2428L69.3426 56.2468C75.5215 51.1768 81.8942 44.9756 88.839 41.0098C92.3335 39.0142 95.1278 38.7003 96.5718 41.3416Z" fill="#3852CE"/>
<path fill-rule="evenodd" clip-rule="evenodd" d="M86.4903 40.2214C88.8875 38.6038 91.8382 37.2995 94.6505 38.3752C96.9873 39.2689 98.0801 41.5573 98.6673 43.7185C99.102 45.3183 99.3147 47.0831 99.4855 48.4999C99.5459 49.0011 99.601 49.4587 99.6589 49.8501C99.9476 51.8021 100.031 53.8848 100.111 55.9139C100.127 56.3151 100.143 56.7143 100.161 57.11C100.175 57.4319 100.172 57.8719 100.169 58.3489C100.169 58.4386 100.168 58.5295 100.168 58.6212C100.165 59.2187 100.165 59.8883 100.194 60.5686C100.252 61.9826 100.426 63.2507 100.804 63.987C100.926 64.2245 101.137 64.4186 101.501 64.6191C101.685 64.7204 101.89 64.8136 102.126 64.9156C102.179 64.9383 102.234 64.9619 102.291 64.9864C102.476 65.0654 102.68 65.1527 102.872 65.2431C104.195 65.866 105.771 66.6084 107.444 67.4342C109.143 68.2728 110.946 69.2002 112.695 70.1812C114.159 71.003 115.592 71.8659 116.894 72.7494C116.95 72.7869 117.007 72.8258 117.067 72.8662C117.997 73.4954 119.452 74.4794 120.654 75.6542C121.448 76.4296 122.201 77.353 122.605 78.386C122.752 78.7618 122.853 79.1528 122.893 79.553C122.968 80.2962 122.835 81.0711 122.406 81.8385C121.877 82.7848 120.981 83.6251 119.951 84.3841C118.908 85.1523 117.647 85.8934 116.305 86.6165C114.052 87.8299 111.751 88.9334 109.467 90.0192C109.287 90.1045 109.108 90.1897 108.929 90.2749C106.902 91.2378 104.893 92.1922 102.919 93.214C101.269 94.068 100.247 94.7294 99.5325 95.5637C98.8375 96.3755 98.3624 97.4383 98.0136 99.2346C97.9441 99.5921 97.8724 99.9743 97.7958 100.382C97.4186 102.392 96.9234 105.029 96.0072 108.436C95.7008 109.575 95.4165 110.668 95.1466 111.706C94.443 114.41 93.837 116.74 93.1906 118.541C92.7407 119.795 92.2422 120.882 91.6233 121.705C90.9913 122.545 90.1895 123.164 89.1487 123.349C88.2478 123.509 87.45 123.468 86.7041 123.217C85.9697 122.97 85.3577 122.544 84.7944 122.049C84.3065 121.62 83.8109 121.098 83.2916 120.55C83.223 120.478 83.1539 120.405 83.0844 120.332C82.4762 119.693 81.7963 118.992 80.9585 118.245C79.5746 117.012 77.6291 114.713 75.7472 112.326C74.6291 110.908 73.5163 109.437 72.5309 108.097C71.6396 106.886 70.8502 105.78 70.2535 104.916C69.6802 104.087 69.2328 103.408 69.0802 103.098C69.0639 103.065 69.0503 103.044 69.0415 103.032C69.0328 103.02 69.0271 103.015 69.0271 103.015C69.0271 103.015 69.021 103.012 69.0086 103.008C68.9417 102.987 68.7657 102.965 68.3725 103.03C67.2835 103.21 66.2245 103.413 65.1544 103.617C64.5587 103.731 63.9595 103.846 63.3497 103.958C61.7151 104.258 60.0451 104.528 58.3064 104.674C56.2322 104.848 54.0145 104.972 52.0366 104.979C50.6368 104.984 49.3301 104.931 48.2696 104.789C47.7399 104.717 47.2464 104.621 46.8218 104.487C46.416 104.36 45.9795 104.17 45.6481 103.86C44.9365 103.192 44.6633 102.239 44.6 101.284C44.536 100.317 44.6758 99.2054 44.9356 98.0389C45.1153 97.2325 45.357 96.3797 45.6436 95.5029C46.1638 93.9109 46.7661 92.3732 47.4475 90.878C48.4543 88.6689 49.6326 86.555 50.9722 84.4971C51.9055 83.0633 52.8364 81.6214 53.5567 80.2062C54.2807 78.7838 54.7463 77.4738 54.8153 76.3103C54.8457 75.7987 54.7318 75.2636 54.4251 74.4038C54.287 74.0166 54.1191 73.5875 53.9192 73.0768C53.8971 73.0203 53.8746 72.9628 53.8517 72.9043C53.6241 72.3221 53.3636 71.651 53.0805 70.867C52.9974 70.6368 52.9087 70.3934 52.8159 70.1383C52.0746 68.1027 51.0645 65.3291 50.4538 62.6661C50.1098 61.1661 49.88 59.6512 49.9083 58.2859C49.9363 56.9354 50.2195 55.6021 51.0329 54.597C52.038 53.3552 53.8122 53.1121 55.4726 53.1508C57.213 53.1914 59.2574 53.5589 61.2326 53.9625C61.7881 54.0761 62.3364 54.1921 62.8747 54.306C63.9019 54.5233 64.8929 54.733 65.8288 54.9032C67.1151 55.137 68.1943 55.2751 69.0048 55.2602C72.0615 53.0759 74.9151 50.433 77.7166 47.8384C78.611 47.01 79.5002 46.1866 80.3889 45.3846C80.6714 45.1296 80.9857 44.8377 81.3268 44.5209C82.7101 43.236 84.5362 41.54 86.4903 40.2214ZM82.7452 45.9343C82.3857 46.2679 82.046 46.5831 81.7288 46.8694C80.8831 47.6325 80.0222 48.4301 79.1453 49.2424C76.2524 51.9222 73.1857 54.7631 69.9186 57.0641L69.6899 57.2252L69.4108 57.2442C68.3064 57.3195 66.914 57.1332 65.4711 56.8709C64.5085 56.6959 63.4666 56.4755 62.4202 56.2542C61.8887 56.1418 61.3561 56.0291 60.8321 55.922C58.8541 55.5178 56.9681 55.1862 55.426 55.1503C53.804 55.1124 52.9437 55.4152 52.5876 55.8552C52.1745 56.3656 51.9316 57.1791 51.9078 58.3273C51.8843 59.4607 52.0769 60.7961 52.4032 62.219C52.984 64.7516 53.9486 67.4022 54.6938 69.4499C54.7869 69.7058 54.8766 69.9522 54.9616 70.1878C55.2355 70.9463 55.4882 71.5975 55.7144 72.176C55.7375 72.2351 55.7604 72.2936 55.7831 72.3516C55.9802 72.8551 56.1598 73.3142 56.3088 73.7319C56.6411 74.6635 56.8665 75.507 56.8118 76.4287C56.7188 77.9962 56.1117 79.5957 55.3391 81.1135C54.5628 82.6385 53.573 84.1677 52.6483 85.5882C51.3583 87.5701 50.2293 89.5969 49.2675 91.7074C47.9869 94.5172 46.3867 98.0003 46.5957 101.152C46.6808 102.435 47.6825 102.878 48.8694 103.008C54.0328 103.57 59.7026 102.624 64.7403 101.66C66.182 101.384 68.1302 100.641 69.6019 101.098C70.7238 101.446 71.2805 102.884 71.899 103.779C76.0575 109.798 80.2497 113.698 85.7588 118.541C86.9057 119.55 88.6176 119.895 89.669 118.497C90.108 117.914 90.5257 117.048 90.9519 115.861C91.5658 114.15 92.1368 111.955 92.8286 109.296C93.8021 105.554 93.8897 103.747 94.604 99.9439C94.9879 97.8997 95.3955 95.8088 96.7897 94.1804C97.7735 93.0313 99.0981 92.2236 100.776 91.3551C106.212 88.5417 112.416 86.5875 117.279 82.8301C119.236 81.3174 120.451 79.365 118.033 77.0021C114.031 73.0918 107.785 70.633 102.667 68.282C100.825 67.4355 99.0692 67.4361 98.0136 65.5843C97.3106 64.3511 97.1947 62.7509 97.1356 61.3199C96.9123 55.919 98.1688 49.5115 96.7373 44.2429C96.1882 42.2222 95.3309 40.7767 93.936 40.2432C92.114 39.5463 89.9294 40.3135 87.609 41.8792C85.7987 43.1008 84.126 44.653 82.7452 45.9343Z" fill="black"/>
</g>
<mask id="mask1_1369_8840" style="mask-type:alpha" maskUnits="userSpaceOnUse" x="61" y="63" width="15" height="16">
<circle cx="68.5577" cy="70.9893" r="7.22954" fill="#D9D9D9"/>
</mask>
<g mask="url(#mask1_1369_8840)">
<circle cx="68.5577" cy="70.9893" r="7.22954" fill="white"/>
<circle cx="71.2778" cy="68.8998" r="6.49651" fill="#110545"/>
<path d="M69.4609 66.3828C71.4603 66.5528 73.0651 68.1067 73.3135 70.0827" stroke="white" stroke-linecap="round"/>
</g>
<mask id="mask2_1369_8840" style="mask-type:alpha" maskUnits="userSpaceOnUse" x="82" y="70" width="16" height="15">
<circle cx="90.212" cy="77.3106" r="7.22954" fill="#D9D9D9"/>
</mask>
<g mask="url(#mask2_1369_8840)">
<circle cx="90.212" cy="77.3106" r="7.22954" fill="white"/>
<circle cx="92.9321" cy="75.2211" r="6.49651" fill="#110545"/>
<path d="M91.1152 72.7041C93.1146 72.8741 94.7194 74.428 94.9678 76.404" stroke="white" stroke-linecap="round"/>
</g>
<path d="M72.0605 85.4121L71.948 85.742C71.2802 87.6999 72.3261 89.8285 74.284 90.4963V90.4963C76.2419 91.1641 78.3705 90.1182 79.0383 88.1603L79.1508 87.8304" stroke="white" stroke-width="2" stroke-linecap="round"/>
<path d="M27.6963 79.0983C27.6592 79.1057 27.6226 79.1152 27.5866 79.1267L4.37707 86.5647C4.24445 86.3486 4.09608 86.0201 3.94674 85.6073C3.62118 84.7074 3.37767 83.6548 3.28777 83.2047M27.6963 79.0983L3.28701 83.2009C3.28727 83.2021 3.28752 83.2034 3.28777 83.2047M27.6963 79.0983C28.0908 79.0197 28.3503 78.6438 28.2882 78.25C28.2836 78.2515 28.2311 78.1432 28.012 77.9314C27.7728 77.7002 27.4381 77.4444 27.0639 77.2096C26.6902 76.9752 26.3095 76.7819 25.9892 76.6613C25.7391 76.5671 25.6026 76.5465 25.5573 76.5397C25.5349 76.5363 25.5349 76.5363 25.5544 76.5324L25.5493 76.5334L4.53921 80.6056C4.52134 80.6187 4.44631 80.6704 4.32041 80.8178C4.14087 81.028 3.94563 81.3309 3.76883 81.6814C3.59338 82.0292 3.45356 82.3893 3.36974 82.6979C3.32795 82.8518 3.30369 82.9797 3.29314 83.0777C3.28361 83.1663 3.28812 83.2047 3.28781 83.2048C3.2878 83.2048 3.28779 83.2047 3.28777 83.2047M27.6963 79.0983L3.28777 83.2047" fill="#110545" stroke="#110545" stroke-width="2" stroke-linecap="round" stroke-linejoin="round"/>
<path d="M23.7321 45.7472C26.0638 47.3403 28.5708 48.6857 30.6268 49.31C31.6607 49.624 32.4994 49.73 33.1113 49.6522C33.6855 49.5791 33.9897 49.3612 34.1674 49.0364C34.348 48.7061 34.3641 48.3634 34.1695 47.9015C33.9568 47.3966 33.5091 46.807 32.8245 46.132C31.7843 45.1065 30.3963 44.0668 28.9416 42.9773C28.4675 42.6222 27.9863 42.2618 27.5077 41.8948C23.5382 38.8509 20.0552 35.8643 17.4949 33.6272C16.473 34.1808 16.0139 34.82 15.8444 35.4379C15.6356 36.1987 15.7931 37.1842 16.4104 38.3829C17.6499 40.7894 20.4726 43.5202 23.7321 45.7472Z" fill="#110545" stroke="#110545" stroke-width="2" stroke-linecap="round" stroke-linejoin="round"/>
<path d="M85.8173 24.8868C85.8821 22.3553 86.6232 19.098 87.6947 15.9713C87.9372 15.2639 88.1751 14.5574 88.4107 13.8579C88.921 12.3427 89.4203 10.86 89.931 9.47004C90.6784 7.43586 91.4202 5.68638 92.1987 4.42362C93.0104 3.10687 93.6965 2.59251 94.2259 2.51842C94.6363 2.46098 95.3185 2.63325 96.3218 3.74583C95.9792 4.63433 95.7642 5.61809 95.6089 6.63521C95.4401 7.74084 95.334 8.94455 95.2264 10.1658C95.2118 10.3317 95.1972 10.4978 95.1824 10.6641C94.9306 13.4878 94.6151 16.4286 93.5161 19.1412C93.2539 19.7884 92.9991 20.4384 92.7475 21.0803C91.9719 23.0587 91.2269 24.9591 90.3898 26.459C89.8388 27.4461 89.3014 28.1555 88.7736 28.5719C88.2825 28.9594 87.8407 29.0681 87.3539 28.9535L85.8173 24.8868ZM85.8173 24.8868C85.7848 26.1587 85.926 27.1623 86.2166 27.8578M85.8173 24.8868L86.2166 27.8578M86.2166 27.8578C86.4926 28.5183 86.8688 28.8393 87.3537 28.9535L86.2166 27.8578Z" fill="#110545" stroke="#110545" stroke-width="2" stroke-linecap="round" stroke-linejoin="round"/>
<path d="M53.268 8.52296C53.2531 8.52863 53.2381 8.53394 53.2229 8.53888C52.4847 8.77985 51.7672 9.3526 51.2726 9.99131C51.0289 10.3061 50.8676 10.6012 50.7857 10.8307C50.7313 10.9832 50.7274 11.0604 50.7265 11.0798C50.7474 11.1428 50.762 11.2078 50.77 11.2737C51.0023 13.1864 52.3388 18.741 54.446 23.4843C55.5018 25.8611 56.7104 27.9389 58.0037 29.2558C59.2751 30.5504 60.4319 30.9386 61.5689 30.5252C61.5842 30.5085 61.6165 30.4687 61.6596 30.3886C61.7493 30.2222 61.8345 29.9732 61.8935 29.6661C62.0193 29.0123 61.9727 28.4063 61.8881 28.1832L61.8813 28.165L55.2657 9.64277C55.2582 9.62294 55.2508 9.60333 55.2434 9.58397C55.0454 9.06098 54.9112 8.70663 54.6695 8.48969C54.5784 8.40789 54.4684 8.34717 54.2927 8.32765C54.0997 8.30621 53.7756 8.33 53.268 8.52296Z" fill="#110545" stroke="#110545" stroke-width="2" stroke-linecap="round" stroke-linejoin="round"/>
</svg>
