<svg width="272" height="246" viewBox="0 0 272 246" fill="none" xmlns="http://www.w3.org/2000/svg">
<circle cx="130.861" cy="124.716" r="71.4219" fill="#3852CE"/>
<path d="M54.8133 120.385C51.1146 112.958 37.199 109.125 30.6037 104.928L30.6037 95.6281L54.8133 47.8951C61.7039 51.9889 89.4745 61.6326 94.4186 63.448C100.599 65.7173 130.015 74.2366 137.26 79.2413C144.505 84.246 146.274 93.7636 146.506 97.8072C146.737 101.851 133.332 128.301 132.512 131.986C131.692 135.671 124.127 149.494 122.466 152.154C119.233 155.481 104.386 155.082 87.2163 155.082C75.0583 149.682 66.9159 144.501 61.8899 139.38C60.2699 136.127 58.5119 127.811 54.8133 120.385Z" fill="white" stroke="#110545" stroke-width="2" stroke-linecap="round" stroke-linejoin="round"/>
<path fill-rule="evenodd" clip-rule="evenodd" d="M143.582 89.2499C142.251 85.8567 140.099 82.4181 136.691 80.0642C134.984 78.8849 131.885 77.4498 128.009 75.9108C124.16 74.3825 119.63 72.784 115.121 71.2668C110.62 69.7523 106.115 68.3113 102.352 67.1077C98.6185 65.9135 95.6161 64.9532 94.0738 64.3868C93.3594 64.1245 92.1493 63.692 90.5836 63.1325C86.8021 61.7809 80.9467 59.6883 74.9955 57.4627C67.2691 54.5732 59.2216 51.4026 55.2338 49.2766L31.6036 95.8673L32.4137 103.965C37.93 106.808 53.918 112.337 56.218 118.838C59.2302 124.886 60.6171 132.445 63.5033 138.491C68.3843 143.419 75.3062 148.009 87.2162 153.316C95.6246 153.317 114.161 153.316 121.679 151.526C122.537 150.132 124.771 146.135 126.916 141.994C128.013 139.877 129.079 137.736 129.921 135.901C130.776 134.035 131.357 132.572 131.536 131.768C131.66 131.211 131.993 130.317 132.433 129.245C132.883 128.147 133.479 126.784 134.164 125.251C134.94 123.515 135.841 121.541 136.786 119.469C137.507 117.889 138.254 116.252 138.992 114.619C140.704 110.831 142.375 107.048 143.603 103.965C144.217 102.423 144.714 101.071 145.049 99.9899C145.4 98.858 145.525 98.1655 145.507 97.8644C145.396 95.926 144.913 92.6431 143.582 89.2499ZM145.444 88.5196C146.867 92.1473 147.384 95.645 147.504 97.7501C147.545 98.4599 147.301 99.4785 146.96 100.581C146.602 101.735 146.084 103.142 145.461 104.705C144.215 107.834 142.527 111.652 140.814 115.443C140.069 117.092 139.32 118.733 138.6 120.313C137.658 122.375 136.765 124.333 135.99 126.067C135.307 127.595 134.722 128.935 134.283 130.004C133.834 131.1 133.569 131.839 133.488 132.203C133.257 133.242 132.584 134.889 131.739 136.734C130.879 138.61 129.796 140.783 128.692 142.914C126.487 147.17 124.166 151.319 123.314 152.684C123.277 152.744 123.233 152.8 123.183 152.851C122.147 153.918 120.342 154.561 118.208 154.995C116.02 155.441 113.266 155.706 110.118 155.865C105.061 156.12 98.8756 156.105 92.2009 156.09C90.5655 156.086 88.9009 156.082 87.2162 156.082C87.0764 156.082 86.9381 156.053 86.8103 155.996C74.605 150.575 66.3306 145.333 61.1761 140.08C61.1026 140.005 61.0414 139.919 60.9947 139.826C60.3115 138.454 59.6113 136.25 58.8055 133.713C58.6039 133.079 58.3957 132.424 58.1795 131.755C57.0783 128.351 55.7326 124.474 53.918 120.83C53.087 119.162 51.6523 117.64 49.7913 116.222C47.9339 114.806 45.7032 113.531 43.3432 112.337C41.5539 111.432 39.7182 110.587 37.93 109.763C37.3563 109.499 36.7875 109.237 36.2267 108.976C33.9392 107.911 31.7776 106.86 30.0668 105.771C29.7783 105.588 29.6036 105.27 29.6036 104.928L29.6036 95.6282C29.6036 95.471 29.6407 95.316 29.7118 95.1759L53.9213 47.4428C54.0465 47.196 54.2685 47.012 54.5343 46.9348C54.8001 46.8576 55.086 46.8941 55.3239 47.0354C58.6743 49.0259 67.2394 52.4268 75.6961 55.5894C81.6352 57.8104 87.4278 59.8806 91.2078 61.2315C92.7925 61.7979 94.0235 62.2378 94.7632 62.5094C96.289 63.0697 99.2183 64.0062 102.891 65.1803C106.64 66.3788 111.163 67.8249 115.759 69.3712C120.281 70.8929 124.85 72.5045 128.747 74.052C132.618 75.5889 135.913 77.0955 137.828 78.4186C141.666 81.0694 144.021 84.8919 145.444 88.5196Z" fill="#110545"/>
<path d="M113.008 150.146L86.581 140.386L80.6096 125.588C81.1979 123.913 83.732 120.592 89.1624 120.7C94.5927 120.809 96.4029 125.18 96.6291 127.353" stroke="#110545" stroke-width="2" stroke-linecap="round" stroke-linejoin="round"/>
<path fill-rule="evenodd" clip-rule="evenodd" d="M87.7566 117.463C81.8595 117.989 80.0744 122.725 79.3601 124.758C79.2795 124.987 79.5751 126.736 79.666 126.962L85.6536 140.76C85.7591 141.021 85.97 141.226 86.2345 141.324L112.661 151.084C113.179 151.276 113.754 151.011 113.946 150.493C114.137 149.975 113.179 148.509 112.661 148.318L88.5784 139.169L82.818 125.962C83.4924 124.534 84.5708 121.609 89.1423 121.7C91.555 121.748 93.0985 122.728 94.0821 123.896C95.0941 125.099 95.5388 126.538 95.6344 127.456C95.6917 128.005 96.1834 128.404 96.7327 128.347C97.282 128.29 97.6809 127.798 97.6237 127.249C97.4931 125.995 97.4314 123.253 96.1242 121.7C94.7886 120.113 92.1018 117.076 87.7566 117.463Z" fill="#110545"/>
<path fill-rule="evenodd" clip-rule="evenodd" d="M137.683 102.012C137.14 102.115 136.612 102.555 136.509 102.012C135.953 99.0749 135.279 96.1743 133.089 93.245C131.437 91.0348 129.424 89.5411 127.313 89.1067C126.772 88.9953 126.424 88.4666 126.535 87.9256C126.646 87.3847 127.175 87.0364 127.716 87.1477C130.461 87.7127 132.857 89.5941 134.691 92.0475C136.532 94.5099 138.164 97.2329 138.773 100.448C138.876 100.99 138.226 101.91 137.683 102.012Z" fill="#110545"/>
<path fill-rule="evenodd" clip-rule="evenodd" d="M128.607 109.537C128.064 109.64 127.555 110.08 127.452 109.537C126.896 106.6 125.658 102.971 124.013 100.77C122.361 98.5598 120.347 97.066 118.237 96.6316C117.696 96.5203 117.347 95.9915 117.459 95.4505C117.57 94.9096 118.099 94.5613 118.64 94.6727C121.385 95.2376 123.781 97.1191 125.615 99.5724C127.456 102.035 128.975 104.959 129.583 108.174C129.686 108.716 129.149 109.435 128.607 109.537Z" fill="#110545"/>
<path fill-rule="evenodd" clip-rule="evenodd" d="M117.835 118.219C117.293 118.322 117.032 118.762 116.929 118.219C116.347 115.144 114.803 111.381 113.08 109.076C111.349 106.761 109.237 105.191 107.018 104.735C106.477 104.623 106.128 104.095 106.24 103.554C106.351 103.013 106.88 102.664 107.421 102.776C113.253 103.976 118.143 111.156 119.192 116.698C119.295 117.241 118.378 118.116 117.835 118.219Z" fill="#110545"/>
<path d="M45.4887 41.2522L77.6993 54.57C53.6183 54.57 31.3837 94.3406 33.8912 116.855L7.38275 103.286C7.37362 78.5622 20.1798 49.7156 45.4887 41.2522Z" fill="#110545" stroke="#110545" stroke-width="2" stroke-linecap="round" stroke-linejoin="round"/>
<path d="M45.4887 41.2522L77.6993 54.57C53.6183 54.57 31.3837 94.3406 33.8912 116.855L7.38275 103.286" stroke="#110545" stroke-width="2" stroke-linecap="round" stroke-linejoin="round"/>
<path d="M77.7539 54.8237C79.4928 56.0656 79.8351 56.8135 79.8932 58.1876" stroke="#110545" stroke-width="2" stroke-linecap="round" stroke-linejoin="round"/>
<path d="M33.169 105.609C31.7381 110.188 30.9556 115.631 35.1723 117.533C40.0377 119.727 43.8114 117.053 46.8694 113.842" stroke="#110545" stroke-width="2" stroke-linecap="round" stroke-linejoin="round"/>
<path d="M202.126 110.209C203.723 111.994 220.64 120.895 228.898 125.122L200.131 185.244C198.878 184.736 195.645 183.483 192.733 182.544C189.093 181.369 179.111 178.669 172.535 178.316C165.959 177.964 153.982 180.195 148.463 180.195C142.944 180.195 131.201 175.615 126.387 172.915C122.535 170.754 120.868 161.916 120.515 157.767C119.811 157.806 114.985 157.14 114.046 156.106C112.871 154.815 111.447 138.831 112.034 133.312C112.621 127.793 113.822 124.065 116.523 119.955C119.224 115.845 131.436 106.334 137.425 101.754C143.414 97.1744 146.349 95.0607 152.573 92.3599C158.796 89.659 166.077 91.303 168.191 92.3599C170.304 93.4167 200.129 107.978 202.126 110.209Z" fill="white"/>
<path d="M194.403 183.461C189.064 181.552 176.319 177.927 168.058 178.692C159.796 179.458 150.494 180.32 146.875 180.655C139.875 179.079 125.343 174.8 123.216 170.297C121.09 165.794 120.149 160.255 119.945 158.049M227.74 125.359C220.631 121.656 205.378 113.439 201.231 110.191C196.048 106.132 175.927 96.5136 167.857 92.9887C159.788 89.4638 150.765 92.9706 147.205 94.9027C143.646 96.8349 121.734 114.575 118.357 117.872C109.315 126.702 111.976 146.117 114.657 156.631L133.147 161.719L145.255 156.631C144.363 146.999 143.96 143.843 139.904 141.679C135.848 139.515 131.051 142.087 129.252 146.117" stroke="#110545" stroke-width="2" stroke-linecap="round" stroke-linejoin="round"/>
<path fill-rule="evenodd" clip-rule="evenodd" d="M156.021 92.8831C159.606 92.2282 163.663 92.2473 167.458 93.9052C171.474 95.6596 178.506 98.9377 185.179 102.283C191.893 105.649 198.119 109.023 200.615 110.978C202.762 112.66 207.687 115.565 212.887 118.477C218.118 121.406 223.717 124.391 227.278 126.246C227.768 126.502 228.372 126.311 228.627 125.822C228.882 125.332 228.692 124.728 228.202 124.473C224.655 122.625 219.073 119.649 213.864 116.732C208.624 113.798 203.849 110.97 201.849 109.404C199.162 107.3 192.736 103.835 186.076 100.496C179.375 97.1362 172.312 93.8428 168.259 92.0724C163.984 90.2054 159.495 90.2155 155.661 90.9157C151.828 91.6159 148.582 93.018 146.729 94.024C145.756 94.5521 143.65 96.0793 141.066 98.0478C138.449 100.041 135.264 102.548 132.088 105.096C125.757 110.173 119.391 115.466 117.66 117.157C112.85 121.853 111.243 129.251 111.112 136.602C110.98 143.993 112.335 151.569 113.689 156.878C113.778 157.226 114.047 157.5 114.393 157.595L119.03 158.871C119.352 161.473 120.326 166.516 122.313 170.724C122.98 172.137 124.516 173.377 126.313 174.452C128.153 175.552 130.447 176.582 132.861 177.507C137.692 179.359 143.124 180.835 146.656 181.631C146.759 181.654 146.864 181.661 146.968 181.651L168.151 179.688C172.127 179.32 177.258 180.008 182.117 181.051C186.957 182.091 191.436 183.462 194.067 184.402C194.587 184.588 195.16 184.317 195.346 183.797C195.532 183.277 195.866 179.874 195.346 179.688C192.638 178.72 187.049 177.756 182.117 176.697C177.204 175.641 171.744 175.3 167.458 175.697L146.942 178.645C143.472 177.856 138.224 176.421 133.577 174.64C131.216 173.735 129.041 172.753 127.34 171.735C125.595 170.692 124.517 169.708 124.121 168.87C122.442 165.314 121.519 162.059 121.128 159.448L132.882 162.684C133.099 162.743 133.328 162.728 133.535 162.641L145.644 157.553C146.046 157.383 146.769 156.287 146.729 155.852C146.287 151.08 145.93 148.1 145.171 145.71C144.543 143.735 142.83 140.169 141.066 139.228C136.67 136.286 127.34 136.602 126.868 143.975C126.643 144.479 128.341 146.805 128.845 147.03C129.349 147.256 129.94 147.029 130.166 146.525C131.808 142.847 136.047 140.754 139.434 142.561C141.14 143.471 142.229 144.817 142.814 146.657C143.458 148.684 143.285 150.806 143.701 155.247L132.882 159.448C127.072 158.392 121.723 155.772 116.042 154.209C113.689 143.351 111.689 126.645 120.351 118.187C121.997 116.58 126.98 111.756 133.339 106.656C136.508 104.114 139.679 101.618 142.278 99.6388C144.909 97.6345 146.876 96.2196 147.683 95.7817C149.389 94.8555 152.435 93.5381 156.021 92.8831Z" fill="#110545"/>
<path d="M234.401 122.205L265.381 135.89C240.139 143.036 222.767 181.486 222.78 204.576L194.481 190.09C194.471 163.695 208.938 133.186 234.401 122.205Z" fill="#110545"/>
<path d="M199.891 185.945C199.882 187.158 200.18 188.236 200.642 188.994C201.109 189.76 201.693 190.134 202.254 190.138C202.816 190.142 203.405 189.776 203.882 189.016C204.354 188.264 204.667 187.191 204.675 185.978C204.683 184.764 204.385 183.687 203.923 182.928C203.457 182.162 202.873 181.788 202.311 181.784C201.75 181.78 201.161 182.146 200.684 182.906C200.212 183.658 199.899 184.731 199.891 185.945Z" fill="white" stroke="#110545"/>
<path d="M24.9921 99.4487C24.9838 100.662 25.2817 101.739 25.7436 102.498C26.2103 103.264 26.7942 103.638 27.3556 103.642C27.9171 103.646 28.5061 103.28 28.9833 102.52C29.4556 101.768 29.7682 100.695 29.7765 99.4815C29.7848 98.2678 29.487 97.1907 29.025 96.4322C28.5584 95.6658 27.9745 95.2921 27.413 95.2882C26.8515 95.2844 26.2625 95.65 25.7854 96.4099C25.3131 97.1621 25.0005 98.2349 24.9921 99.4487Z" fill="white" stroke="#110545"/>
<path d="M265.381 135.89L234.401 122.205C208.938 133.186 194.471 163.695 194.481 190.09L222.78 204.576" stroke="#110545" stroke-width="2" stroke-linecap="round" stroke-linejoin="round"/>
<path fill-rule="evenodd" clip-rule="evenodd" d="M124.233 113.196C122.583 113.29 121.483 114.121 120.304 115.189C119.895 115.559 119.864 116.192 120.234 116.601C120.605 117.01 121.238 117.042 121.647 116.671C122.382 116.005 123.425 115.632 124.783 115.554C130.194 115.247 135.846 118.307 140.391 120.835C140.874 121.103 141.483 120.93 141.751 120.447C142.02 119.964 141.846 119.356 141.363 119.087C136.85 116.038 130.044 112.866 124.233 113.196Z" fill="#110545"/>
<path fill-rule="evenodd" clip-rule="evenodd" d="M136.574 103.144C135.061 103.23 133.155 104.092 132.064 105.08C131.654 105.451 131.623 106.083 131.994 106.492C132.364 106.902 132.997 106.933 133.406 106.562C137.679 102.692 146.552 108.253 150.34 110.359C150.822 110.628 151.431 110.454 151.7 109.972C151.968 109.489 151.794 108.88 151.312 108.612C147.388 105.848 141.875 102.843 136.574 103.144Z" fill="#110545"/>
<path fill-rule="evenodd" clip-rule="evenodd" d="M146.417 95.172C144.946 95.2555 143.974 95.7859 142.909 96.75C142.5 97.1207 142.469 97.7531 142.839 98.1625C143.21 98.5718 143.842 98.6032 144.252 98.2324C144.873 97.6699 145.762 97.3462 146.941 97.2793C151.685 97.0099 156.645 99.7009 160.628 101.917C161.111 102.185 161.72 102.012 161.988 101.529C162.257 101.046 162.083 100.437 161.601 100.169C157.647 97.2793 151.56 94.8799 146.417 95.172Z" fill="#110545"/>
<path d="M84.7913 32.0206C84.5364 32.4578 84.6763 33.0164 85.1022 33.2831C88.9151 35.15 92.1509 37.3508 95.194 39.5426C95.8635 40.0248 96.5218 40.5051 97.1741 40.981C99.5142 42.6884 101.776 44.3389 104.199 45.8174C104.64 46.0862 105.215 45.9469 105.484 45.5063C105.625 45.2744 105.686 44.798 105.387 43.9329C105.101 43.1079 104.562 42.1493 103.892 41.1693C102.558 39.2162 100.843 37.3723 100.116 36.6656C97.2719 33.9021 93.6688 31.8288 90.0041 29.7201C89.4857 29.4218 88.9661 29.1228 88.4472 28.821C88.383 28.8447 88.2931 28.8843 88.176 28.9477C87.8078 29.1468 87.3417 29.4856 86.8499 29.9008C86.3655 30.3097 85.8901 30.764 85.5067 31.1678C85.1025 31.5935 84.8622 31.899 84.7913 32.0206ZM88.5524 28.7909C88.5525 28.7908 88.5499 28.791 88.5443 28.7921C88.5495 28.7916 88.5523 28.7911 88.5524 28.7909Z" fill="#110545" stroke="#110545" stroke-width="2" stroke-linecap="round" stroke-linejoin="round"/>
<path d="M130.488 38.5814C130.496 38.609 130.502 38.637 130.508 38.6651C130.508 38.6647 130.508 38.6652 130.508 38.6666C130.514 38.6819 130.563 38.8073 130.761 39.0267C130.958 39.2437 131.233 39.4772 131.547 39.6874C131.861 39.8975 132.183 40.0639 132.461 40.1644C132.599 40.2143 132.712 40.2428 132.798 40.2559C132.847 40.2635 132.879 40.2645 132.895 40.2644C132.897 40.2628 132.902 40.2601 132.909 40.2557C132.952 40.2298 133.088 40.1477 133.312 39.9265C133.588 39.6551 133.892 39.2792 134.171 38.8626C134.45 38.4462 134.682 38.0208 134.83 37.6607C134.953 37.3608 134.978 37.1998 134.985 37.1507C134.987 37.1356 134.988 37.1311 134.99 37.1364L130.847 16.7397L130.847 16.7397L130.845 16.7284C130.748 16.2214 130.259 15.889 129.752 15.9858C129.754 15.9855 129.746 15.9869 129.727 15.9922C129.709 15.9973 129.684 16.005 129.652 16.016C129.588 16.0382 129.506 16.0701 129.406 16.1127C129.207 16.1981 128.96 16.3168 128.68 16.4633C128.12 16.7563 127.462 17.1433 126.842 17.5557C126.216 17.9724 125.661 18.3931 125.286 18.7508C125.146 18.8849 125.049 18.9929 124.988 19.073L130.488 38.5814ZM124.911 19.1912C124.911 19.191 124.914 19.1857 124.918 19.1756C124.912 19.1862 124.91 19.1913 124.911 19.1912Z" fill="#110545" stroke="#110545" stroke-width="2" stroke-linecap="round" stroke-linejoin="round"/>
<path d="M160.725 41.3425C160.719 41.38 160.711 41.417 160.702 41.4536C160.569 41.9498 160.861 42.4596 161.356 42.5959C161.344 42.5926 161.347 42.5923 161.366 42.5902C161.415 42.5849 161.564 42.5684 161.846 42.4674C162.201 42.34 162.626 42.1291 163.047 41.8696C163.468 41.6104 163.852 41.3226 164.135 41.0577C164.383 40.8257 164.474 40.6842 164.499 40.645C164.507 40.6328 164.509 40.6304 164.507 40.6383L164.507 40.6383L164.508 40.6332L170.759 17.7482C170.755 17.7436 170.753 17.6332 170.644 17.3789C170.519 17.0876 170.309 16.7379 170.044 16.3859C169.78 16.0363 169.486 15.7156 169.215 15.4758C169.079 15.3562 168.96 15.2658 168.862 15.2035C168.768 15.144 168.719 15.1264 168.713 15.1243C168.712 15.124 168.712 15.124 168.712 15.124C168.221 14.9926 167.047 14.7163 165.983 14.5978C165.449 14.5384 165.01 14.5267 164.716 14.5655L160.725 41.3425Z" fill="#110545" stroke="#110545" stroke-width="2" stroke-linecap="round" stroke-linejoin="round"/>
<path d="M188.725 56.8024C189.871 54.3395 191.99 51.4565 194.375 48.8455C197.709 45.1962 201.61 42.1521 204.857 41.0223C206.476 40.4592 207.791 40.4195 208.775 40.8453C209.616 41.2095 210.39 41.9925 210.915 43.5054C207.691 46.2854 203.34 50.1042 198.83 54.5287C198.299 55.0498 197.773 55.5773 197.254 56.0987C195.65 57.7086 194.105 59.2589 192.641 60.3755C191.678 61.1104 190.84 61.5832 190.133 61.77C189.47 61.9448 188.968 61.8624 188.519 61.5278L188.725 56.8024ZM188.725 56.8024C188.149 58.0393 187.856 59.0935 187.844 59.913M188.725 56.8024L187.844 59.913M187.844 59.913C187.833 60.6944 188.071 61.1928 188.519 61.5277L187.844 59.913Z" fill="#110545" stroke="#110545" stroke-width="2" stroke-linecap="round" stroke-linejoin="round"/>
<path d="M231.594 91.5608C231.597 91.545 231.6 91.5294 231.603 91.5138C231.779 90.6851 231.63 89.7005 231.3 88.8917C231.137 88.4926 230.947 88.1788 230.773 87.9734C230.637 87.8131 230.556 87.7711 230.547 87.7648C230.478 87.7513 230.41 87.7306 230.346 87.7029C228.445 86.8913 222.584 85.1533 217.061 84.5634C214.294 84.2679 211.715 84.273 209.793 84.7678C207.894 85.2564 206.884 86.1373 206.657 87.4569C206.662 87.4769 206.68 87.5379 206.747 87.6467C206.857 87.8265 207.047 88.0437 207.303 88.2657C207.846 88.7361 208.443 89.0262 208.712 89.0702L208.731 89.0736L229.41 92.8665C229.436 92.8708 229.462 92.8751 229.488 92.8793C230.067 92.9743 230.482 93.0425 230.829 92.9296C230.966 92.8849 231.093 92.8075 231.214 92.6432C231.346 92.4648 231.5 92.141 231.594 91.5608Z" fill="#110545" stroke="#110545" stroke-width="2" stroke-linecap="round" stroke-linejoin="round"/>
<path d="M183.105 222.032C183.443 221.655 183.418 221.079 183.054 220.733C179.694 218.138 176.966 215.332 174.426 212.573C173.867 211.967 173.318 211.364 172.775 210.767C170.825 208.624 168.941 206.553 166.864 204.617C166.487 204.266 165.895 204.286 165.543 204.664C165.358 204.863 165.203 205.317 165.323 206.225C165.436 207.09 165.772 208.138 166.231 209.233C167.146 211.414 168.456 213.565 169.026 214.403C171.257 217.682 174.37 220.436 177.536 223.238C177.984 223.635 178.433 224.032 178.881 224.432C178.949 224.421 179.045 224.401 179.172 224.362C179.573 224.241 180.097 224.003 180.663 223.695C181.219 223.392 181.776 223.042 182.233 222.724C182.714 222.388 183.011 222.137 183.105 222.032ZM178.772 224.44C178.772 224.44 178.774 224.441 178.78 224.441C178.775 224.44 178.772 224.44 178.772 224.44Z" fill="#110545" stroke="#110545" stroke-width="2" stroke-linecap="round" stroke-linejoin="round"/>
<path d="M133.341 212.552C133.342 212.523 133.344 212.494 133.348 212.466C133.348 212.466 133.348 212.466 133.348 212.464C133.347 212.448 133.339 212.314 133.218 212.044C133.097 211.777 132.907 211.47 132.673 211.174C132.438 210.877 132.183 210.62 131.949 210.439C131.833 210.349 131.734 210.288 131.657 210.249C131.612 210.226 131.582 210.216 131.567 210.211C131.565 210.212 131.559 210.213 131.551 210.215C131.503 210.226 131.348 210.263 131.066 210.404C130.721 210.578 130.316 210.842 129.922 211.153C129.529 211.464 129.177 211.797 128.926 212.095C128.717 212.342 128.644 212.488 128.622 212.532C128.615 212.546 128.613 212.55 128.613 212.545L126.293 233.228L126.293 233.228L126.291 233.239C126.228 233.752 126.592 234.218 127.104 234.282C127.102 234.281 127.109 234.282 127.129 234.283C127.148 234.284 127.174 234.284 127.207 234.283C127.275 234.282 127.363 234.277 127.471 234.267C127.687 234.247 127.959 234.21 128.27 234.156C128.893 234.049 129.638 233.883 130.355 233.681C131.079 233.477 131.736 233.247 132.202 233.021C132.377 232.937 132.502 232.864 132.586 232.806L133.341 212.552ZM132.695 232.718C132.694 232.718 132.69 232.722 132.683 232.73C132.692 232.722 132.695 232.718 132.695 232.718Z" fill="#110545" stroke="#110545" stroke-width="2" stroke-linecap="round" stroke-linejoin="round"/>
<path d="M98.8956 202.22C98.9091 202.185 98.9246 202.151 98.942 202.117C99.1785 201.661 99.0024 201.1 98.549 200.861C98.5597 200.866 98.5568 200.866 98.5375 200.864C98.4893 200.859 98.3393 200.843 98.0427 200.881C97.6681 200.928 97.2079 201.043 96.7408 201.206C96.2743 201.368 95.8369 201.567 95.5035 201.764C95.2116 201.938 95.0923 202.056 95.0592 202.089C95.0489 202.099 95.0469 202.101 95.0507 202.094L95.0507 202.094L95.0482 202.099L84.0179 223.102C84.0203 223.107 83.9985 223.215 84.0504 223.487C84.11 223.799 84.24 224.185 84.4231 224.586C84.605 224.984 84.823 225.361 85.0367 225.653C85.1432 225.799 85.2407 225.913 85.3231 225.995C85.4019 226.074 85.4458 226.101 85.4512 226.105C85.4518 226.105 85.4519 226.105 85.4517 226.105C85.9033 226.339 86.9903 226.862 88.0035 227.206C88.512 227.379 88.939 227.485 89.2345 227.511L98.8956 202.22Z" fill="#110545" stroke="#110545" stroke-width="2" stroke-linecap="round" stroke-linejoin="round"/>
<path d="M68.9389 185.694C68.9628 185.664 68.9883 185.636 69.0154 185.61C69.2665 185.365 69.28 184.968 69.0527 184.706C69.0387 184.703 68.9401 184.651 68.6875 184.603C68.3815 184.543 67.9861 184.513 67.569 184.52C67.1526 184.527 66.7528 184.57 66.4393 184.639C66.1424 184.705 66.0382 184.769 66.0357 184.765C66.0351 184.764 66.0405 184.759 66.0507 184.749L66.0469 184.753L51.4402 198.875C51.4308 198.9 51.4035 198.976 51.3828 199.135C51.3494 199.39 51.3507 199.728 51.3913 200.096C51.4316 200.461 51.5063 200.817 51.5983 201.102C51.6882 201.381 51.7652 201.501 51.7793 201.523C51.7815 201.526 51.7822 201.527 51.7812 201.526C52.0836 201.836 52.8231 202.548 53.5478 203.095C53.8619 203.332 54.134 203.508 54.3426 203.612L68.9389 185.694Z" fill="#110545" stroke="#110545" stroke-width="2" stroke-linecap="round" stroke-linejoin="round"/>
<path d="M27.8154 164.118C27.8182 164.134 27.8206 164.15 27.8226 164.166C27.9301 165.006 28.3957 165.886 28.9741 166.541C29.2595 166.864 29.5424 167.098 29.7747 167.234C29.9559 167.34 30.0455 167.354 30.0564 167.356C30.1261 167.346 30.1966 167.344 30.2669 167.348C32.329 167.488 38.4353 167.195 43.8434 165.93C46.5529 165.297 48.9859 164.441 50.6376 163.34C52.2687 162.253 52.9316 161.088 52.7111 159.767C52.7 159.75 52.663 159.698 52.5639 159.618C52.4 159.484 52.1489 159.342 51.8341 159.217C51.1669 158.952 50.5075 158.875 50.2386 158.922L50.2194 158.925L29.4475 162.165C29.4211 162.17 29.3951 162.174 29.3694 162.179C28.7913 162.28 28.3769 162.353 28.087 162.574C27.9721 162.661 27.8775 162.776 27.8174 162.971C27.7522 163.183 27.7131 163.54 27.8154 164.118Z" fill="#110545" stroke="#110545" stroke-width="2" stroke-linecap="round" stroke-linejoin="round"/>
</svg>
