<svg width="199" height="200" viewBox="0 0 199 200" fill="none" xmlns="http://www.w3.org/2000/svg">
<path d="M90.5757 11.4432C95.322 6.34169 103.401 6.34169 108.147 11.4432L109.5 12.8973C113.022 16.6826 118.572 17.7867 123.274 15.6372L125.081 14.8115C131.418 11.9146 138.882 15.0062 141.314 21.5357L142.008 23.3968C143.813 28.2418 148.518 31.3858 153.685 31.1994L155.67 31.1279C162.633 30.8767 168.346 36.5892 168.095 43.5526L168.023 45.5374C167.837 50.7044 170.981 55.4098 175.826 57.2149L177.687 57.9083C184.216 60.341 187.308 67.8048 184.411 74.142L183.585 75.9484C181.436 80.6507 182.54 86.2011 186.325 89.7228L187.779 91.0757C192.881 95.822 192.881 103.901 187.779 108.647L186.325 110C182.54 113.522 181.436 119.072 183.585 123.774L184.411 125.581C187.308 131.918 184.216 139.382 177.687 141.814L175.826 142.508C170.981 144.313 167.837 149.018 168.023 154.185L168.095 156.17C168.346 163.133 162.633 168.846 155.67 168.595L153.685 168.523C148.518 168.337 143.813 171.481 142.008 176.326L141.314 178.187C138.882 184.716 131.418 187.808 125.081 184.911L123.274 184.085C118.572 181.936 113.022 183.04 109.5 186.825L108.147 188.279C103.401 193.381 95.322 193.381 90.5757 188.279L89.2228 186.825C85.7011 183.04 80.1507 181.936 75.4484 184.085L73.642 184.911C67.3048 187.808 59.841 184.716 57.4083 178.187L56.7149 176.326C54.9098 171.481 50.2044 168.337 45.0374 168.523L43.0526 168.595C36.0892 168.846 30.3767 163.133 30.6279 156.17L30.6994 154.185C30.8858 149.018 27.7418 144.313 22.8968 142.508L21.0357 141.814C14.5062 139.382 11.4146 131.918 14.3115 125.581L15.1372 123.774C17.2867 119.072 16.1826 113.522 12.3973 110L10.9432 108.647C5.84169 103.901 5.84169 95.822 10.9432 91.0757L12.3973 89.7228C16.1826 86.2011 17.2867 80.6507 15.1372 75.9484L14.3115 74.142C11.4146 67.8048 14.5062 60.341 21.0357 57.9083L22.8968 57.2149C27.7418 55.4098 30.8858 50.7044 30.6994 45.5374L30.6279 43.5526C30.3767 36.5892 36.0892 30.8767 43.0526 31.1279L45.0374 31.1994C50.2044 31.3858 54.9098 28.2418 56.7149 23.3968L57.4083 21.5357C59.841 15.0062 67.3048 11.9146 73.642 14.8115L75.4484 15.6372C80.1507 17.7867 85.7011 16.6826 89.2228 12.8973L90.5757 11.4432Z" fill="white" stroke="#110545" stroke-width="2"/>
<path d="M99.3613 2L89.2194 12.901C85.6974 16.6833 80.1491 17.7859 75.4484 15.6372L61.9114 9.44925L57.4105 21.5298C57.4098 21.5317 57.409 21.5337 57.4083 21.5357L56.7136 23.4002C54.9076 28.2432 50.2032 31.3858 45.0374 31.1994L30.1629 30.6629L30.6994 45.5374C30.8858 50.7032 27.7432 55.4076 22.9002 57.2136L21.0357 57.9083C21.0337 57.909 21.0317 57.9098 21.0298 57.9105L8.94925 62.4114L15.1372 75.9484C17.2859 80.6491 16.1833 86.1974 12.401 89.7194L1.5 99.8613L12.401 110.003C16.1833 113.525 17.2859 119.074 15.1372 123.774L8.94925 137.311L22.8968 142.508C27.7418 144.313 30.8858 149.018 30.6994 154.185L30.1629 169.06L45.0374 168.523C45.0408 168.523 45.0441 168.523 45.0474 168.523C50.2104 168.341 54.9109 171.484 56.7149 176.326L61.9114 190.273L75.4484 184.085C80.1507 181.936 85.7011 183.04 89.2228 186.825L99.3613 197.723L109.5 186.825C113.022 183.04 118.572 181.936 123.274 184.085L136.811 190.273L142.008 176.326C143.812 171.484 148.512 168.341 153.675 168.523C153.679 168.523 153.682 168.523 153.685 168.523L168.56 169.06L168.023 154.185C168.023 154.182 168.023 154.179 168.023 154.175C167.841 149.012 170.984 144.312 175.826 142.508L189.773 137.311L183.585 123.774C181.436 119.072 182.54 113.522 186.325 110L197.223 99.8613L186.325 89.7228C182.54 86.2011 181.436 80.6507 183.585 75.9484L189.773 62.4114L175.826 57.2149C170.984 55.4109 167.841 50.7104 168.023 45.5474C168.023 45.5441 168.023 45.5408 168.023 45.5374L168.56 30.6629L153.685 31.1994C148.518 31.3858 143.813 28.2418 142.008 23.3968L136.811 9.44925L123.274 15.6372C118.574 17.7859 113.025 16.6833 109.503 12.901L99.3613 2Z" fill="white" stroke="#110545" stroke-width="2"/>
<circle cx="99.3597" cy="99.8612" r="73.309" stroke="#110545" stroke-width="2" stroke-linecap="round" stroke-dasharray="0.5 5"/>
<circle cx="99.359" cy="99.8605" r="67.5426" stroke="#110545" stroke-width="2" stroke-linecap="round" stroke-dasharray="0.5 5"/>
<path d="M75.9403 95.9635C74.9383 96.2319 73.9845 96.3458 73.0786 96.3052C72.1691 96.2506 71.335 96.0043 70.5762 95.5662C69.8314 95.1244 69.1652 94.4751 68.5777 93.6183C67.9901 92.7615 67.5137 91.6512 67.1482 90.2874L67.042 89.8908C66.6989 88.6105 66.5783 87.4646 66.6801 86.4529C66.7819 85.4412 67.0606 84.5611 67.5163 83.8125C67.972 83.064 68.5731 82.4406 69.3196 81.9422C70.08 81.4402 70.9333 81.0624 71.8796 80.8088C72.7285 80.5814 73.5478 80.4662 74.3376 80.4634C75.1413 80.4569 75.8774 80.5878 76.5459 80.8561C77.2283 81.1207 77.8329 81.5404 78.3598 82.1152C78.9006 82.6862 79.3345 83.4425 79.6613 84.3841L75.7787 85.4244C75.6048 85.0534 75.4058 84.7562 75.1819 84.5328C74.9542 84.2955 74.7067 84.1232 74.4393 84.0158C74.1682 83.8946 73.8841 83.8365 73.5871 83.8415C73.3004 83.8288 73.0109 83.8616 72.7186 83.9399C72.3011 84.0518 71.932 84.2328 71.6112 84.4828C71.3006 84.7152 71.0578 85.0338 70.8829 85.4386C70.7182 85.8258 70.6301 86.3043 70.6187 86.8741C70.6213 87.4402 70.7232 88.099 70.9246 88.8505L71.042 89.2888C71.2583 90.096 71.5175 90.7574 71.8198 91.273C72.1322 91.771 72.4672 92.1585 72.8248 92.4356C73.1787 92.6987 73.5501 92.8602 73.9391 92.92C74.3243 92.966 74.7117 92.9368 75.1013 92.8323C75.811 92.6422 76.3299 92.3242 76.6579 91.8783C76.9961 91.4148 77.1132 90.7943 77.0093 90.0167L80.8918 88.9764C81.0972 89.9654 81.1154 90.8405 80.9465 91.6017C80.7915 92.3592 80.4846 93.0231 80.0259 93.5935C79.5812 94.1601 79.0091 94.6415 78.3099 95.0377C77.6069 95.42 76.817 95.7286 75.9403 95.9635ZM84.5243 84.3339L81.1218 85.2456L80.4171 82.6154L90.4367 79.9307L91.1414 82.5609L87.7389 83.4725L89.9986 91.9057L86.784 92.7671L84.5243 84.3339ZM97.8395 90.0956C97.2411 90.256 96.681 90.3091 96.1594 90.2549C95.6517 90.1971 95.1968 90.0579 94.7947 89.8376C94.3889 89.6032 94.0465 89.2997 93.7677 88.927C93.4851 88.5403 93.2767 88.0965 93.1424 87.5955C92.8479 86.4962 92.9563 85.5647 93.4676 84.8013C93.9929 84.0341 94.9374 83.4678 96.3012 83.1024L99.4532 82.2578L99.3302 81.7986C99.1512 81.1306 98.8681 80.7142 98.4809 80.5495C98.09 80.3709 97.6162 80.3561 97.0596 80.5053C96.5307 80.647 96.1635 80.8349 95.9577 81.069C95.752 81.3031 95.6837 81.6048 95.7528 81.9741L92.5382 82.8354C92.4317 82.327 92.4339 81.8342 92.5447 81.357C92.6518 80.866 92.8661 80.4133 93.1876 79.999C93.5194 79.5671 93.9602 79.1805 94.5101 78.8392C95.06 78.498 95.7246 78.223 96.5039 78.0141C97.2276 77.8202 97.911 77.7266 98.5541 77.7333C99.2074 77.7223 99.7983 77.8399 100.327 78.0861C100.851 78.3184 101.308 78.6882 101.698 79.1954C102.083 79.6886 102.384 80.3388 102.601 81.1459L103.691 85.2164C103.848 85.8009 104 86.3121 104.147 86.7499C104.29 87.1739 104.446 87.5871 104.613 87.9897L101.566 88.8063C101.475 88.5772 101.391 88.3759 101.315 88.2024C101.252 88.0253 101.186 87.8045 101.115 87.5401C100.9 88.0749 100.535 88.5755 100.018 89.042C99.512 89.4909 98.7857 89.8421 97.8395 90.0956ZM98.2791 87.5615C98.961 87.3788 99.4793 87.0311 99.8342 86.5184C100.203 86.002 100.296 85.4028 100.113 84.7209L99.9902 84.2617L97.4644 84.9385C96.9912 85.0653 96.6699 85.2856 96.5005 85.5995C96.3449 85.9096 96.3119 86.2317 96.4014 86.5657C96.5095 86.9693 96.7104 87.2734 97.0039 87.4782C97.3113 87.6792 97.7364 87.707 98.2791 87.5615ZM106.744 78.3802L103.341 79.2919L102.637 76.6617L112.656 73.977L113.361 76.6071L109.959 77.5188L112.218 85.952L109.004 86.8134L106.744 78.3802ZM114.316 73.5321L117.531 72.6708L118.493 76.2612L120.706 75.6683C122.153 75.2805 123.327 75.2939 124.229 75.7086C125.131 76.1233 125.751 76.9638 126.091 78.2302C126.24 78.7868 126.292 79.3171 126.248 79.8211C126.218 80.3214 126.067 80.7869 125.795 81.2179C125.533 81.6312 125.148 82.0029 124.639 82.3329C124.145 82.6592 123.501 82.9287 122.708 83.1412L117.281 84.5955L114.316 73.5321ZM121.642 80.8317C122.212 80.6788 122.588 80.4663 122.769 80.1942C122.959 79.9044 122.995 79.5368 122.876 79.0915C122.753 78.6323 122.538 78.3319 122.232 78.1902C121.939 78.0449 121.508 78.0487 120.937 78.2015L119.142 78.6826L119.847 81.3127L121.642 80.8317ZM51.7138 115.153L54.9284 114.292L56.0527 118.487L56.8876 118.264L58.8528 113.24L62.3596 112.301L59.6819 118.589L65.5328 123.308L61.7337 124.326L57.5476 120.727L56.7127 120.951L57.8928 125.355L54.6782 126.216L51.7138 115.153ZM67.4785 123.077C67.3671 123.107 67.2052 123.143 66.9928 123.185C66.7979 123.237 66.6411 123.265 66.5224 123.267L65.7729 120.469C65.8462 120.465 65.9524 120.444 66.0916 120.406C66.3281 120.343 66.5182 120.217 66.6619 120.03C66.8018 119.828 66.8896 119.544 66.9253 119.176C66.9574 118.795 66.9285 118.325 66.8387 117.768C66.7592 117.192 66.6112 116.501 66.395 115.694L65.2763 111.519L74.461 109.058L77.4254 120.121L74.2107 120.983L71.9511 112.55L68.987 113.344L69.5127 115.306C69.8819 116.684 70.1004 117.833 70.1683 118.755C70.2362 119.676 70.1773 120.43 69.9915 121.017C69.8056 121.604 69.4934 122.053 69.0548 122.364C68.6301 122.672 68.1047 122.91 67.4785 123.077ZM76.5427 108.5L79.6738 107.661L81.4636 114.341L84.3705 106.403L87.1885 105.648L90.1529 116.711L87.0218 117.55L85.232 110.87L82.3251 118.808L79.5071 119.564L76.5427 108.5ZM97.6433 114.995C96.8362 115.211 96.0479 115.303 95.2785 115.27C94.5193 115.22 93.8189 115.028 93.1772 114.693C92.5355 114.357 91.9735 113.874 91.4911 113.243C91.005 112.597 90.6332 111.794 90.3759 110.834L90.2641 110.417C90.018 109.498 89.9427 108.661 90.0383 107.904C90.1479 107.144 90.3846 106.469 90.7487 105.88C91.1266 105.286 91.6197 104.788 92.228 104.387C92.8465 103.968 93.5454 103.654 94.3247 103.445C96.1477 102.956 97.6522 103.06 98.8382 103.757C100.02 104.439 100.85 105.671 101.327 107.452L101.635 108.6L93.8698 110.681C93.9993 111.109 94.1747 111.457 94.3959 111.726C94.6134 111.981 94.8595 112.176 95.1344 112.311C95.4092 112.446 95.6989 112.525 96.0033 112.548C96.3179 112.553 96.6353 112.513 96.9553 112.427C97.5676 112.263 98.0235 112.044 98.3229 111.77C98.6326 111.478 98.8001 111.157 98.8257 110.807L101.79 110.013C101.892 111.284 101.584 112.335 100.868 113.169C100.152 114.002 99.0767 114.611 97.6433 114.995ZM95.1115 105.963C94.8192 106.042 94.5433 106.153 94.2836 106.297C94.0378 106.437 93.826 106.621 93.6481 106.848C93.4804 107.057 93.3605 107.305 93.2884 107.593C93.2303 107.877 93.2428 108.202 93.3258 108.567L97.9181 107.337C97.8137 106.947 97.6653 106.644 97.473 106.427C97.2806 106.21 97.0595 106.053 96.8098 105.956C96.5739 105.855 96.3094 105.814 96.0162 105.833C95.7192 105.838 95.4176 105.881 95.1115 105.963ZM101.596 101.787L104.81 100.926L105.912 105.038L110.129 103.908L109.027 99.7961L112.242 98.9347L115.206 109.998L111.991 110.859L110.834 106.538L106.617 107.668L107.775 111.989L104.56 112.851L101.596 101.787ZM117.817 100.26L114.415 101.171L113.71 98.5412L123.73 95.8565L124.434 98.4866L121.032 99.3983L123.292 107.831L120.077 108.693L117.817 100.26ZM133.233 105.459C132.454 105.667 131.693 105.752 130.952 105.712C130.206 105.658 129.513 105.463 128.871 105.128C128.23 104.793 127.668 104.31 127.185 103.678C126.699 103.033 126.327 102.23 126.07 101.27L125.958 100.853C125.716 99.9481 125.649 99.1157 125.759 98.3555C125.868 97.5953 126.119 96.9166 126.511 96.3194C126.903 95.7222 127.408 95.214 128.026 94.7947C128.645 94.3754 129.344 94.0613 130.123 93.8525C130.902 93.6437 131.665 93.5662 132.41 93.6201C133.155 93.674 133.847 93.8615 134.485 94.1828C135.123 94.5041 135.679 94.9665 136.154 95.5701C136.629 96.1737 136.988 96.9277 137.23 97.8323L137.342 98.2498C137.596 99.1961 137.673 100.07 137.575 100.872C137.473 101.66 137.228 102.36 136.84 102.971C136.451 103.582 135.948 104.097 135.33 104.516C134.711 104.936 134.012 105.25 133.233 105.459ZM132.517 102.787C133.269 102.585 133.773 102.159 134.031 101.508C134.29 100.857 134.294 100.066 134.044 99.1335L133.932 98.716C133.708 97.881 133.326 97.2602 132.784 96.8534C132.239 96.4327 131.591 96.3231 130.839 96.5244C130.088 96.7258 129.581 97.1449 129.319 97.7819C129.053 98.4049 129.033 99.1339 129.256 99.9689L129.368 100.386C129.625 101.347 130.027 102.037 130.572 102.458C131.117 102.878 131.766 102.988 132.517 102.787ZM137.494 92.1685L141.397 91.1225L145.498 95.9077L146.657 89.713L150.436 88.7007L153.4 99.764L150.352 100.581L148.535 93.7965L147.413 99.1308L145.326 99.6901L141.688 95.6311L143.506 102.415L140.458 103.232L137.494 92.1685Z" fill="#110545"/>
<path d="M109.38 125.355L112.557 132.078L117.367 126.406L114.86 133.407L122.271 132.798L115.548 135.975L121.219 140.784L114.218 138.277L114.828 145.689L111.651 138.965L106.841 144.637L109.348 137.636L101.937 138.246L108.66 135.068L102.989 130.259L109.989 132.766L109.38 125.355Z" fill="#110545"/>
</svg>
