<svg width="376" height="405" viewBox="0 0 376 405" fill="none" xmlns="http://www.w3.org/2000/svg">
<path d="M75.9983 114.177H79.9743L88.5983 126.777V114.177H92.7983V133.777H88.8223L80.1983 121.177V133.777H75.9983V114.177ZM99.2383 123.473C98.5103 123.473 97.857 123.361 97.2783 123.137C96.6996 122.913 96.1956 122.596 95.7663 122.185C95.3556 121.775 95.0383 121.289 94.8143 120.729C94.5903 120.151 94.4783 119.507 94.4783 118.797V118.517C94.4783 117.827 94.5903 117.192 94.8143 116.613C95.0383 116.035 95.3556 115.54 95.7663 115.129C96.1956 114.719 96.6996 114.401 97.2783 114.177C97.857 113.953 98.5103 113.841 99.2383 113.841C99.9663 113.841 100.62 113.953 101.198 114.177C101.777 114.401 102.272 114.719 102.682 115.129C103.112 115.54 103.438 116.035 103.662 116.613C103.886 117.192 103.998 117.827 103.998 118.517V118.797C103.998 119.507 103.886 120.151 103.662 120.729C103.438 121.289 103.112 121.775 102.682 122.185C102.272 122.596 101.777 122.913 101.198 123.137C100.62 123.361 99.9663 123.473 99.2383 123.473ZM99.2383 120.561C99.6116 120.561 99.9103 120.431 100.134 120.169C100.358 119.889 100.47 119.432 100.47 118.797V118.517C100.47 117.883 100.358 117.435 100.134 117.173C99.9103 116.893 99.6116 116.753 99.2383 116.753C98.865 116.753 98.5663 116.893 98.3423 117.173C98.1183 117.435 98.0063 117.883 98.0063 118.517V118.797C98.0063 119.432 98.1183 119.889 98.3423 120.169C98.5663 120.431 98.865 120.561 99.2383 120.561ZM94.7583 124.789H103.718V127.645H94.7583V124.789ZM105.971 130.305H110.451V118.433L105.971 121.625V117.537L110.703 114.177H114.651V130.305H118.291V133.777H105.971V130.305ZM127.528 118.937H134.976C135.928 118.937 136.74 119.04 137.412 119.245C138.103 119.432 138.672 119.703 139.12 120.057C139.568 120.412 139.895 120.832 140.1 121.317C140.305 121.803 140.408 122.335 140.408 122.913C140.408 123.604 140.193 124.257 139.764 124.873C139.353 125.471 138.784 125.872 138.056 126.077C138.971 126.301 139.68 126.731 140.184 127.365C140.707 127.981 140.968 128.709 140.968 129.549C140.968 130.837 140.52 131.864 139.624 132.629C138.728 133.395 137.365 133.777 135.536 133.777H127.528V118.937ZM134.808 130.809C135.648 130.809 136.264 130.688 136.656 130.445C137.067 130.184 137.272 129.773 137.272 129.213C137.272 128.653 137.076 128.252 136.684 128.009C136.311 127.748 135.685 127.617 134.808 127.617H131.224V130.809H134.808ZM134.444 124.873C135.303 124.873 135.891 124.752 136.208 124.509C136.544 124.267 136.712 123.893 136.712 123.389C136.712 122.904 136.544 122.54 136.208 122.297C135.872 122.036 135.284 121.905 134.444 121.905H131.224V124.873H134.444ZM150.634 118.937H155.002L159.118 126.945L163.234 118.937H167.434V133.777H163.906V124.117L160.294 130.837H157.774L154.162 124.117V133.777H150.634V118.937ZM177.506 134.113C176.498 134.113 175.537 133.964 174.622 133.665C173.726 133.348 172.942 132.872 172.27 132.237C171.598 131.603 171.066 130.809 170.674 129.857C170.282 128.905 170.086 127.785 170.086 126.497V125.937C170.086 124.724 170.282 123.66 170.674 122.745C171.066 121.831 171.598 121.065 172.27 120.449C172.942 119.833 173.726 119.376 174.622 119.077C175.537 118.76 176.498 118.601 177.506 118.601C178.514 118.601 179.466 118.76 180.362 119.077C181.258 119.376 182.042 119.833 182.714 120.449C183.405 121.065 183.946 121.831 184.338 122.745C184.73 123.66 184.926 124.724 184.926 125.937V126.497C184.926 127.767 184.73 128.877 184.338 129.829C183.946 130.781 183.405 131.575 182.714 132.209C182.042 132.844 181.258 133.32 180.362 133.637C179.466 133.955 178.514 134.113 177.506 134.113ZM177.506 130.977C178.551 130.977 179.419 130.604 180.11 129.857C180.819 129.111 181.174 127.991 181.174 126.497V125.937C181.174 124.575 180.819 123.539 180.11 122.829C179.419 122.101 178.551 121.737 177.506 121.737C176.442 121.737 175.565 122.101 174.874 122.829C174.183 123.539 173.838 124.575 173.838 125.937V126.497C173.838 128.009 174.183 129.139 174.874 129.885C175.565 130.613 176.442 130.977 177.506 130.977ZM194.295 134.113C193.25 134.113 192.279 133.936 191.383 133.581C190.506 133.227 189.74 132.695 189.087 131.985C188.434 131.257 187.92 130.371 187.547 129.325C187.192 128.261 187.015 127.029 187.015 125.629V124.985C187.015 123.305 187.136 121.812 187.379 120.505C187.64 119.199 188.06 118.088 188.639 117.173C189.236 116.259 190.02 115.549 190.991 115.045C191.98 114.523 193.212 114.224 194.687 114.149C195.266 114.131 195.835 114.112 196.395 114.093C196.955 114.075 197.487 114.047 197.991 114.009C198.495 113.972 198.952 113.916 199.363 113.841C199.774 113.748 200.138 113.627 200.455 113.477V116.753C200.156 116.921 199.596 117.061 198.775 117.173C197.972 117.285 196.75 117.351 195.107 117.369C194.267 117.388 193.539 117.491 192.923 117.677C192.326 117.845 191.822 118.125 191.411 118.517C191.019 118.891 190.702 119.385 190.459 120.001C190.235 120.617 190.076 121.373 189.983 122.269C190.412 121.429 191.056 120.748 191.915 120.225C192.774 119.703 193.894 119.441 195.275 119.441C196.208 119.441 197.058 119.591 197.823 119.889C198.588 120.169 199.251 120.589 199.811 121.149C200.371 121.709 200.8 122.4 201.099 123.221C201.416 124.043 201.575 124.995 201.575 126.077V126.609C201.575 127.785 201.388 128.84 201.015 129.773C200.66 130.707 200.156 131.5 199.503 132.153C198.85 132.788 198.075 133.273 197.179 133.609C196.302 133.945 195.34 134.113 194.295 134.113ZM194.295 130.977C195.415 130.977 196.283 130.613 196.899 129.885C197.515 129.139 197.823 128.084 197.823 126.721V126.161C197.823 124.985 197.506 124.061 196.871 123.389C196.236 122.717 195.378 122.381 194.295 122.381C193.231 122.381 192.372 122.717 191.719 123.389C191.084 124.061 190.767 124.985 190.767 126.161V126.665C190.767 127.337 190.851 127.944 191.019 128.485C191.206 129.027 191.458 129.484 191.775 129.857C192.092 130.212 192.466 130.492 192.895 130.697C193.324 130.884 193.791 130.977 194.295 130.977ZM204.227 118.937H207.923V128.457L214.531 118.937H217.947V133.777H214.251V124.257L207.643 133.777H204.227V118.937ZM221.457 134.113C221.308 134.113 221.121 134.104 220.897 134.085C220.673 134.085 220.487 134.067 220.337 134.029V130.697C220.431 130.716 220.571 130.725 220.757 130.725C221.112 130.725 221.42 130.623 221.681 130.417C221.943 130.193 222.157 129.82 222.325 129.297C222.512 128.775 222.643 128.084 222.717 127.225C222.811 126.348 222.857 125.265 222.857 123.977V118.937H234.617V133.777H230.921V122.017H226.273V124.537C226.273 126.46 226.171 128.047 225.965 129.297C225.779 130.529 225.48 131.5 225.069 132.209C224.677 132.919 224.173 133.413 223.557 133.693C222.96 133.973 222.26 134.113 221.457 134.113ZM237.97 118.937H241.666V123.921H244.83C248.656 123.921 250.57 125.564 250.57 128.849C250.57 129.577 250.458 130.249 250.234 130.865C250.028 131.463 249.692 131.976 249.226 132.405C248.759 132.835 248.162 133.171 247.434 133.413C246.706 133.656 245.838 133.777 244.83 133.777H237.97V118.937ZM244.41 130.809C245.306 130.809 245.94 130.651 246.314 130.333C246.687 129.997 246.874 129.503 246.874 128.849C246.874 128.196 246.678 127.711 246.286 127.393C245.912 127.057 245.287 126.889 244.41 126.889H241.666V130.809H244.41ZM252.954 118.937H256.65V124.677H262.978V118.937H266.674V133.777H262.978V127.757H256.65V133.777H252.954V118.937ZM276.764 134.113C275.756 134.113 274.794 133.964 273.88 133.665C272.984 133.348 272.2 132.872 271.528 132.237C270.856 131.603 270.324 130.809 269.932 129.857C269.54 128.905 269.344 127.785 269.344 126.497V125.937C269.344 124.724 269.54 123.66 269.932 122.745C270.324 121.831 270.856 121.065 271.528 120.449C272.2 119.833 272.984 119.376 273.88 119.077C274.794 118.76 275.756 118.601 276.764 118.601C277.772 118.601 278.724 118.76 279.62 119.077C280.516 119.376 281.3 119.833 281.972 120.449C282.662 121.065 283.204 121.831 283.596 122.745C283.988 123.66 284.184 124.724 284.184 125.937V126.497C284.184 127.767 283.988 128.877 283.596 129.829C283.204 130.781 282.662 131.575 281.972 132.209C281.3 132.844 280.516 133.32 279.62 133.637C278.724 133.955 277.772 134.113 276.764 134.113ZM276.764 130.977C277.809 130.977 278.677 130.604 279.368 129.857C280.077 129.111 280.432 127.991 280.432 126.497V125.937C280.432 124.575 280.077 123.539 279.368 122.829C278.677 122.101 277.809 121.737 276.764 121.737C275.7 121.737 274.822 122.101 274.132 122.829C273.441 123.539 273.096 124.575 273.096 125.937V126.497C273.096 128.009 273.441 129.139 274.132 129.885C274.822 130.613 275.7 130.977 276.764 130.977ZM286.833 118.937H290.529V128.457L297.137 118.937H300.553V133.777H296.857V124.257L290.249 133.777H286.833V118.937ZM293.693 117.397C292.031 117.397 290.818 117.043 290.053 116.333C289.306 115.624 288.933 114.579 288.933 113.197H292.209C292.209 113.925 292.33 114.439 292.573 114.737C292.834 115.017 293.207 115.157 293.693 115.157C294.215 115.157 294.598 115.017 294.841 114.737C295.102 114.439 295.233 113.925 295.233 113.197H298.453C298.453 114.579 298.07 115.624 297.305 116.333C296.558 117.043 295.354 117.397 293.693 117.397ZM109.098 149.937H112.542V152.121C112.916 151.449 113.504 150.861 114.306 150.357C115.109 149.853 116.126 149.601 117.358 149.601C119.337 149.601 120.877 150.217 121.978 151.449C123.098 152.663 123.658 154.492 123.658 156.937V157.497C123.658 160.055 123.089 161.968 121.95 163.237C120.83 164.488 119.3 165.113 117.358 165.113C116.35 165.113 115.454 164.899 114.67 164.469C113.905 164.021 113.28 163.443 112.794 162.733V170.377H109.098V149.937ZM116.49 161.977C117.461 161.977 118.273 161.613 118.926 160.885C119.58 160.139 119.906 159.009 119.906 157.497V156.937C119.906 155.537 119.589 154.492 118.954 153.801C118.32 153.092 117.498 152.737 116.49 152.737C115.426 152.737 114.54 153.045 113.83 153.661C113.14 154.259 112.794 155.164 112.794 156.377V158.057C112.794 159.383 113.13 160.372 113.802 161.025C114.493 161.66 115.389 161.977 116.49 161.977ZM130.777 165.113C129.974 165.113 129.265 165.001 128.649 164.777C128.033 164.535 127.51 164.208 127.081 163.797C126.652 163.368 126.325 162.873 126.101 162.313C125.877 161.735 125.765 161.109 125.765 160.437C125.765 157.451 127.538 155.957 131.085 155.957H135.509V155.257C135.509 154.287 135.285 153.605 134.837 153.213C134.408 152.821 133.717 152.625 132.765 152.625C131.925 152.625 131.318 152.775 130.945 153.073C130.572 153.353 130.357 153.708 130.301 154.137H126.605C126.642 153.503 126.801 152.905 127.081 152.345C127.38 151.785 127.79 151.309 128.313 150.917C128.854 150.507 129.508 150.189 130.273 149.965C131.038 149.723 131.916 149.601 132.905 149.601C133.857 149.601 134.716 149.704 135.481 149.909C136.265 150.115 136.928 150.451 137.469 150.917C138.029 151.365 138.458 151.953 138.757 152.681C139.056 153.409 139.205 154.287 139.205 155.313V160.997C139.205 161.781 139.214 162.472 139.233 163.069C139.27 163.648 139.326 164.217 139.401 164.777H135.957C135.882 164.367 135.836 164.059 135.817 163.853C135.817 163.629 135.817 163.303 135.817 162.873C135.406 163.471 134.781 163.993 133.941 164.441C133.12 164.889 132.065 165.113 130.777 165.113ZM131.925 162.257C132.373 162.257 132.812 162.201 133.241 162.089C133.67 161.959 134.053 161.772 134.389 161.529C134.725 161.268 134.996 160.941 135.201 160.549C135.406 160.157 135.509 159.7 135.509 159.177V158.477H131.785C131.076 158.477 130.516 158.645 130.105 158.981C129.713 159.299 129.517 159.737 129.517 160.297C129.517 160.895 129.722 161.371 130.133 161.725C130.544 162.08 131.141 162.257 131.925 162.257ZM148.31 165.113C146.164 165.113 144.53 164.675 143.41 163.797C142.29 162.92 141.684 161.66 141.59 160.017H145.342C145.38 160.335 145.454 160.615 145.566 160.857C145.678 161.1 145.846 161.305 146.07 161.473C146.294 161.641 146.584 161.772 146.938 161.865C147.312 161.94 147.769 161.977 148.31 161.977C149.393 161.977 150.158 161.819 150.606 161.501C151.054 161.165 151.278 160.764 151.278 160.297C151.278 159.737 151.092 159.317 150.718 159.037C150.345 158.757 149.682 158.617 148.73 158.617H146.49V155.873H148.534C149.244 155.873 149.785 155.724 150.158 155.425C150.532 155.127 150.718 154.735 150.718 154.249C150.718 153.82 150.532 153.465 150.158 153.185C149.804 152.887 149.188 152.737 148.31 152.737C147.396 152.737 146.733 152.896 146.322 153.213C145.93 153.512 145.697 153.96 145.622 154.557H141.87C141.964 152.952 142.552 151.729 143.634 150.889C144.717 150.031 146.276 149.601 148.31 149.601C149.393 149.601 150.317 149.704 151.082 149.909C151.866 150.115 152.51 150.413 153.014 150.805C153.518 151.179 153.882 151.636 154.106 152.177C154.349 152.7 154.47 153.288 154.47 153.941C154.47 154.651 154.284 155.285 153.91 155.845C153.556 156.405 152.986 156.816 152.202 157.077C153.266 157.339 154.004 157.768 154.414 158.365C154.825 158.944 155.03 159.635 155.03 160.437C155.03 161.109 154.89 161.735 154.61 162.313C154.349 162.873 153.938 163.368 153.378 163.797C152.837 164.208 152.146 164.535 151.306 164.777C150.466 165.001 149.468 165.113 148.31 165.113ZM157.688 149.937H161.132V152.121C161.506 151.449 162.094 150.861 162.896 150.357C163.699 149.853 164.716 149.601 165.948 149.601C167.927 149.601 169.467 150.217 170.568 151.449C171.688 152.663 172.248 154.492 172.248 156.937V157.497C172.248 160.055 171.679 161.968 170.54 163.237C169.42 164.488 167.89 165.113 165.948 165.113C164.94 165.113 164.044 164.899 163.26 164.469C162.495 164.021 161.87 163.443 161.384 162.733V170.377H157.688V149.937ZM165.08 161.977C166.051 161.977 166.863 161.613 167.516 160.885C168.17 160.139 168.496 159.009 168.496 157.497V156.937C168.496 155.537 168.179 154.492 167.544 153.801C166.91 153.092 166.088 152.737 165.08 152.737C164.016 152.737 163.13 153.045 162.42 153.661C161.73 154.259 161.384 155.164 161.384 156.377V158.057C161.384 159.383 161.72 160.372 162.392 161.025C163.083 161.66 163.979 161.977 165.08 161.977ZM179.367 165.113C178.564 165.113 177.855 165.001 177.239 164.777C176.623 164.535 176.1 164.208 175.671 163.797C175.242 163.368 174.915 162.873 174.691 162.313C174.467 161.735 174.355 161.109 174.355 160.437C174.355 157.451 176.128 155.957 179.675 155.957H184.099V155.257C184.099 154.287 183.875 153.605 183.427 153.213C182.998 152.821 182.307 152.625 181.355 152.625C180.515 152.625 179.908 152.775 179.535 153.073C179.162 153.353 178.947 153.708 178.891 154.137H175.195C175.232 153.503 175.391 152.905 175.671 152.345C175.97 151.785 176.38 151.309 176.903 150.917C177.444 150.507 178.098 150.189 178.863 149.965C179.628 149.723 180.506 149.601 181.495 149.601C182.447 149.601 183.306 149.704 184.071 149.909C184.855 150.115 185.518 150.451 186.059 150.917C186.619 151.365 187.048 151.953 187.347 152.681C187.646 153.409 187.795 154.287 187.795 155.313V160.997C187.795 161.781 187.804 162.472 187.823 163.069C187.86 163.648 187.916 164.217 187.991 164.777H184.547C184.472 164.367 184.426 164.059 184.407 163.853C184.407 163.629 184.407 163.303 184.407 162.873C183.996 163.471 183.371 163.993 182.531 164.441C181.71 164.889 180.655 165.113 179.367 165.113ZM180.515 162.257C180.963 162.257 181.402 162.201 181.831 162.089C182.26 161.959 182.643 161.772 182.979 161.529C183.315 161.268 183.586 160.941 183.791 160.549C183.996 160.157 184.099 159.7 184.099 159.177V158.477H180.375C179.666 158.477 179.106 158.645 178.695 158.981C178.303 159.299 178.107 159.737 178.107 160.297C178.107 160.895 178.312 161.371 178.723 161.725C179.134 162.08 179.731 162.257 180.515 162.257ZM197.74 165.113C196.695 165.113 195.724 164.936 194.828 164.581C193.951 164.227 193.186 163.695 192.532 162.985C191.879 162.257 191.366 161.371 190.992 160.325C190.638 159.261 190.46 158.029 190.46 156.629V155.985C190.46 154.305 190.582 152.812 190.824 151.505C191.086 150.199 191.506 149.088 192.084 148.173C192.682 147.259 193.466 146.549 194.436 146.045C195.426 145.523 196.658 145.224 198.132 145.149C198.711 145.131 199.28 145.112 199.84 145.093C200.4 145.075 200.932 145.047 201.436 145.009C201.94 144.972 202.398 144.916 202.808 144.841C203.219 144.748 203.583 144.627 203.9 144.477V147.753C203.602 147.921 203.042 148.061 202.22 148.173C201.418 148.285 200.195 148.351 198.552 148.369C197.712 148.388 196.984 148.491 196.368 148.677C195.771 148.845 195.267 149.125 194.856 149.517C194.464 149.891 194.147 150.385 193.904 151.001C193.68 151.617 193.522 152.373 193.428 153.269C193.858 152.429 194.502 151.748 195.36 151.225C196.219 150.703 197.339 150.441 198.72 150.441C199.654 150.441 200.503 150.591 201.268 150.889C202.034 151.169 202.696 151.589 203.256 152.149C203.816 152.709 204.246 153.4 204.544 154.221C204.862 155.043 205.02 155.995 205.02 157.077V157.609C205.02 158.785 204.834 159.84 204.46 160.773C204.106 161.707 203.602 162.5 202.948 163.153C202.295 163.788 201.52 164.273 200.624 164.609C199.747 164.945 198.786 165.113 197.74 165.113ZM197.74 161.977C198.86 161.977 199.728 161.613 200.344 160.885C200.96 160.139 201.268 159.084 201.268 157.721V157.161C201.268 155.985 200.951 155.061 200.316 154.389C199.682 153.717 198.823 153.381 197.74 153.381C196.676 153.381 195.818 153.717 195.164 154.389C194.53 155.061 194.212 155.985 194.212 157.161V157.665C194.212 158.337 194.296 158.944 194.464 159.485C194.651 160.027 194.903 160.484 195.22 160.857C195.538 161.212 195.911 161.492 196.34 161.697C196.77 161.884 197.236 161.977 197.74 161.977ZM214.393 165.113C213.385 165.113 212.423 164.964 211.509 164.665C210.613 164.348 209.829 163.872 209.157 163.237C208.485 162.603 207.953 161.809 207.561 160.857C207.169 159.905 206.973 158.785 206.973 157.497V156.937C206.973 155.724 207.169 154.66 207.561 153.745C207.953 152.831 208.485 152.065 209.157 151.449C209.829 150.833 210.613 150.376 211.509 150.077C212.423 149.76 213.385 149.601 214.393 149.601C215.401 149.601 216.353 149.76 217.249 150.077C218.145 150.376 218.929 150.833 219.601 151.449C220.291 152.065 220.833 152.831 221.225 153.745C221.617 154.66 221.813 155.724 221.813 156.937V157.497C221.813 158.767 221.617 159.877 221.225 160.829C220.833 161.781 220.291 162.575 219.601 163.209C218.929 163.844 218.145 164.32 217.249 164.637C216.353 164.955 215.401 165.113 214.393 165.113ZM214.393 161.977C215.438 161.977 216.306 161.604 216.997 160.857C217.706 160.111 218.061 158.991 218.061 157.497V156.937C218.061 155.575 217.706 154.539 216.997 153.829C216.306 153.101 215.438 152.737 214.393 152.737C213.329 152.737 212.451 153.101 211.761 153.829C211.07 154.539 210.725 155.575 210.725 156.937V157.497C210.725 159.009 211.07 160.139 211.761 160.885C212.451 161.613 213.329 161.977 214.393 161.977ZM227.8 153.017H223.068V149.937H236.228V153.017H231.496V164.777H227.8V153.017ZM238.462 149.937H242.158V155.761H243.558L248.094 149.937H252.182L246.582 156.965L252.462 164.777H248.038L243.558 158.673H242.158V164.777H238.462V149.937ZM260.74 165.113C259.732 165.113 258.771 164.964 257.856 164.665C256.96 164.348 256.176 163.881 255.504 163.265C254.832 162.631 254.3 161.837 253.908 160.885C253.516 159.915 253.32 158.785 253.32 157.497V156.937C253.32 155.705 253.507 154.632 253.88 153.717C254.254 152.803 254.767 152.047 255.42 151.449C256.074 150.833 256.83 150.376 257.688 150.077C258.547 149.76 259.471 149.601 260.46 149.601C262.794 149.601 264.567 150.217 265.78 151.449C266.994 152.681 267.6 154.464 267.6 156.797V158.365H257.1C257.119 159.019 257.231 159.588 257.436 160.073C257.642 160.54 257.912 160.923 258.248 161.221C258.584 161.52 258.967 161.744 259.396 161.893C259.844 162.024 260.292 162.089 260.74 162.089C261.692 162.089 262.411 161.949 262.896 161.669C263.382 161.389 263.727 160.979 263.932 160.437H267.32C267.022 161.987 266.284 163.153 265.108 163.937C263.932 164.721 262.476 165.113 260.74 165.113ZM260.6 152.625C260.171 152.625 259.742 152.681 259.312 152.793C258.902 152.905 258.538 153.083 258.22 153.325C257.903 153.568 257.642 153.895 257.436 154.305C257.231 154.716 257.119 155.211 257.1 155.789H264.016C263.998 155.173 263.895 154.66 263.708 154.249C263.54 153.839 263.298 153.512 262.98 153.269C262.682 153.027 262.327 152.859 261.916 152.765C261.506 152.672 261.067 152.625 260.6 152.625Z" fill="white"/>
<path fill-rule="evenodd" clip-rule="evenodd" d="M22.0317 118.049C21.7812 120.323 21.6079 122.599 21.5117 124.873C21.5236 122.409 21.3558 118.435 17.8211 116.206C18.2292 116.999 18.4455 118.312 18.682 119.749C19.1129 122.365 19.6108 125.389 21.4584 126.414C21.4001 128.58 21.412 130.743 21.4941 132.9C21.0028 129.975 19.7793 126.526 16.1357 124.675C16.7408 125.636 17.1641 127.287 17.6269 129.092C18.454 132.319 19.4075 136.039 21.751 137.19C21.9435 139.544 22.2205 141.887 22.5823 144.215C21.5042 140.779 19.4724 136.277 14.3408 134.79C15.2278 135.742 16.0581 137.51 16.966 139.444C18.5567 142.831 20.3855 146.726 23.1749 147.626C23.7033 150.373 24.3514 153.097 25.1194 155.788C23.5092 152.285 20.7608 147.965 15.2471 147.037C16.3192 147.95 17.4319 149.747 18.6486 151.713C20.7798 155.155 23.23 159.114 26.3397 159.735C27.5689 163.423 29.0292 167.042 30.7212 170.572C28.1549 166.269 23.8085 160.113 15.8691 159.905C17.3805 160.863 19.1004 162.927 20.9811 165.183L20.9811 165.183C24.3632 169.241 28.2651 173.922 32.4083 173.917C33.3817 175.753 34.4199 177.563 35.5232 179.342C36.3063 180.606 37.1175 181.85 37.956 183.074C34.0778 178.978 28.4076 174.656 20.5791 175.737C22.5267 176.563 24.9303 178.64 27.5586 180.911C32.1994 184.921 37.5407 189.537 42.3081 188.943C45.4974 192.924 48.9929 196.649 52.7591 200.082C50.9757 199.222 48.9553 197.992 46.8174 196.69L46.8172 196.69C40.6844 192.956 33.5854 188.634 28.3466 190.77C28.9804 191.231 29.7659 191.917 30.6929 192.726L30.6931 192.727L30.6932 192.727C35.3815 196.82 43.6893 204.073 54.2997 201.457C58.2773 204.933 62.5403 208.09 67.0489 210.889C65.1851 210.336 63.005 209.471 60.6747 208.546C53.5728 205.729 45.0766 202.358 39.8909 205.579C40.6195 205.941 41.5425 206.505 42.6318 207.172C48.1967 210.576 58.1027 216.635 68.6187 211.843C71.3378 213.461 74.1423 214.95 77.0241 216.302C69.9954 215.222 61.0487 215.362 55.4968 218.799C57.3415 219.285 59.1609 219.848 60.9553 220.403C69.2196 222.959 76.9508 225.35 84.1517 219.304C87.7633 220.659 91.4767 221.804 95.2774 222.727L95.694 221.011C92.0527 220.127 88.4929 219.034 85.0279 217.746C85.4569 212.688 80.4997 205.677 76.8097 200.457C74.878 197.725 73.2936 195.484 73.0107 194.271C69.8655 203.081 74.5747 210.777 81.4651 216.34C77.4266 214.65 73.5286 212.692 69.7936 210.486C71.6597 205.323 68.155 198.081 65.1025 191.773C63.342 188.135 61.732 184.808 61.3896 182.37C56.6663 193.569 63.689 203.374 67.5886 208.818C67.7332 209.02 67.8734 209.216 68.0086 209.406C63.6913 206.728 59.6031 203.715 55.7801 200.404C58.2967 195.691 55.7683 188.266 53.5691 181.808C52.3132 178.12 51.1647 174.748 51.1242 172.375C45.2868 182.533 50.8507 192.74 53.9403 198.408C54.0746 198.654 54.2042 198.892 54.3279 199.121C50.5936 195.753 47.1263 192.094 43.9615 188.181C46.172 183.868 44.2007 177.077 42.4795 171.147C41.4665 167.658 40.5401 164.466 40.6035 162.254C35.4732 170.305 38.45 178.763 41.0427 184.381C39.6309 182.445 38.2902 180.454 37.0242 178.412C35.8876 176.579 34.8125 174.71 33.8003 172.812C36.1687 169.785 35.9018 164.219 35.6681 159.346C35.5273 156.411 35.3987 153.728 35.8643 152C30.3869 157.3 31.0513 164.397 32.0152 169.296C30.4373 166.029 29.0418 162.681 27.8362 159.271C30.152 157.096 30.4887 152.479 30.7829 148.444C30.9571 146.055 31.1165 143.87 31.6631 142.517C26.6062 146.347 26.5447 152.32 26.8674 156.39C25.8982 153.352 25.0785 150.269 24.4137 147.155C26.789 145.501 27.5879 141.345 28.2848 137.72C28.6916 135.603 29.0636 133.668 29.6942 132.517C24.6023 135.507 24.0484 141.111 23.9386 144.784C23.4567 142.211 23.0805 139.619 22.8128 137.015C24.9628 135.639 25.7284 131.978 26.3954 128.789C26.7804 126.948 27.1326 125.264 27.6992 124.268C23.6062 126.584 22.7788 130.851 22.5529 134.014C22.3726 131.456 22.2977 128.888 22.3309 126.319C24.2453 125.391 25.1748 122.41 25.9833 119.816C26.4453 118.334 26.8678 116.979 27.4121 116.206C23.8101 117.809 22.8175 121.334 22.393 123.927C22.47 121.958 22.611 119.989 22.8171 118.023C25.2851 115.219 24.9821 111.038 24.7088 107.269C24.6264 106.131 24.5466 105.03 24.5466 104.017C24.2542 104.862 23.8905 105.754 23.5141 106.678C22.0331 110.314 20.354 114.437 22.0317 118.049Z" fill="#DBFF00"/>
<path d="M353.967 118.048C354.218 120.322 354.391 122.599 354.487 124.873C354.475 122.409 354.643 118.435 358.178 116.206C357.77 116.999 357.553 118.312 357.317 119.749C356.886 122.365 356.388 125.389 354.541 126.414C354.599 128.581 354.587 130.746 354.505 132.904C354.996 129.977 356.219 126.527 359.864 124.675C359.259 125.636 358.835 127.287 358.373 129.092C357.545 132.319 356.592 136.039 354.248 137.19C354.056 139.544 353.778 141.887 353.417 144.215C354.495 140.779 356.527 136.277 361.658 134.79C360.771 135.742 359.941 137.51 359.033 139.444C357.442 142.831 355.614 146.726 352.824 147.626C352.296 150.373 351.648 153.096 350.88 155.788C352.49 152.284 355.238 147.965 360.752 147.037C359.68 147.95 358.567 149.747 357.35 151.713C355.219 155.155 352.769 159.114 349.659 159.735C348.43 163.425 346.968 167.045 345.275 170.577C347.841 166.274 352.188 160.113 360.13 159.905C358.619 160.863 356.899 162.927 355.018 165.183C351.636 169.241 347.734 173.922 343.591 173.917C342.617 175.753 341.579 177.563 340.476 179.342C339.692 180.606 338.881 181.85 338.042 183.075C341.92 178.979 347.591 174.655 355.42 175.737C353.473 176.563 351.069 178.64 348.441 180.911C343.8 184.921 338.458 189.537 333.691 188.943C330.502 192.924 327.006 196.649 323.24 200.082C325.023 199.222 327.044 197.992 329.182 196.69C335.315 192.956 342.414 188.634 347.652 190.77C347.019 191.231 346.233 191.917 345.306 192.727C340.618 196.82 332.31 204.073 321.699 201.457C317.722 204.932 313.459 208.089 308.95 210.888C310.814 210.336 312.994 209.471 315.324 208.546C322.426 205.729 330.922 202.358 336.108 205.579C335.379 205.941 334.456 206.505 333.367 207.172C327.802 210.575 317.896 216.635 307.38 211.843C304.661 213.461 301.857 214.95 298.975 216.302C306.004 215.221 314.95 215.362 320.502 218.799C318.658 219.285 316.84 219.847 315.046 220.402L315.045 220.402L315.044 220.403C306.78 222.959 299.048 225.35 291.847 219.304C288.236 220.658 284.522 221.804 280.722 222.727L280.305 221.011C283.946 220.127 287.506 219.034 290.971 217.746C290.543 212.688 295.5 205.677 299.19 200.457C301.121 197.725 302.706 195.484 302.989 194.271C306.134 203.081 301.425 210.776 294.535 216.34C298.573 214.65 302.47 212.692 306.205 210.486C304.339 205.323 307.844 198.081 310.896 191.773C312.657 188.135 314.267 184.808 314.609 182.37C319.332 193.569 312.31 203.374 308.41 208.818C308.265 209.02 308.125 209.216 307.99 209.406C312.307 206.728 316.396 203.715 320.219 200.404C317.702 195.691 320.231 188.266 322.43 181.808C323.686 178.12 324.834 174.748 324.875 172.375C330.712 182.533 325.148 192.74 322.059 198.408C321.924 198.654 321.795 198.892 321.671 199.121C325.405 195.753 328.873 192.094 332.038 188.18C329.827 183.868 331.799 177.077 333.52 171.147C334.533 167.658 335.459 164.466 335.396 162.254C340.526 170.304 337.55 178.762 334.957 184.38C336.369 182.444 337.709 180.454 338.975 178.412C340.111 176.578 341.187 174.71 342.199 172.811C339.831 169.784 340.098 164.219 340.331 159.345C340.472 156.411 340.601 153.728 340.135 152C345.612 157.299 344.948 164.395 343.985 169.294C345.562 166.028 346.957 162.681 348.163 159.271C345.847 157.096 345.511 152.479 345.216 148.444C345.042 146.055 344.883 143.87 344.336 142.517C349.393 146.346 349.455 152.319 349.132 156.389C350.101 153.351 350.921 150.269 351.585 147.155C349.21 145.501 348.411 141.345 347.714 137.72C347.307 135.603 346.935 133.668 346.305 132.517C351.397 135.507 351.951 141.111 352.06 144.784C352.542 142.211 352.919 139.619 353.186 137.015C351.037 135.639 350.271 131.978 349.604 128.789C349.219 126.948 348.867 125.264 348.3 124.268C352.392 126.583 353.22 130.848 353.446 134.011C353.626 131.454 353.701 128.887 353.668 126.319C351.753 125.391 350.824 122.41 350.015 119.816C349.553 118.334 349.131 116.979 348.586 116.206C352.19 117.81 353.182 121.337 353.606 123.931C353.529 121.961 353.388 119.991 353.182 118.024C350.714 115.22 351.017 111.038 351.29 107.269C351.372 106.131 351.452 105.03 351.452 104.017C351.744 104.862 352.108 105.754 352.485 106.678C353.965 110.314 355.644 114.437 353.967 118.048Z" fill="#DBFF00"/>
<path d="M204.168 47.9653L202.458 48.4237L201.849 46.1505L199.212 46.8571L198.675 44.8524L194.666 45.9266L194.239 44.3336L189.856 45.508L187.931 46.0236L187.45 46.1525L186.831 43.8436L182.787 44.9273L179.602 33.0423L177.25 33.6725L176.713 31.6678L170.94 33.2147L171.477 35.2194L169.001 35.883L175.677 60.7986L174.911 61.0039L174.33 58.8381L166.865 60.8385L166.893 60.9459L165.931 61.2037L168.243 69.8311L171.023 69.0863L171.809 72.0217L174.054 71.4202L175.143 75.4833L177.619 74.8196L178.852 79.4197L180.563 78.9614L181.853 83.7763L184.329 83.1126L185.126 86.0839L185.979 89.2699L189.4 88.3533L190.701 88.0048L191.919 92.5511L206.173 88.7317L204.955 84.1854L205.543 84.0278L208.162 83.326L208.929 83.1207L206.425 73.7774L208.866 73.1233L206.837 65.552L208.762 65.0363L204.186 47.9606L204.168 47.9653ZM188.511 85.1768L187.235 80.4156L184.758 81.0792L183.694 77.1056L181.983 77.564L180.693 72.7491L178.216 73.4127L176.984 68.8126L174.739 69.4142L174.125 67.1231L171.363 67.8631L170.164 63.3883L174.12 62.3285L174.7 64.4943L176.535 64.0025L178.54 71.4843L181.961 70.5677L172.743 36.1656L176.503 35.1582L182.857 58.8745L186.278 57.9579L183.645 48.1313L186.71 47.3101L189.621 58.1749L193.042 57.2582L190.75 48.7024L193.832 47.8765L194.259 49.4695L198.357 48.3714L198.894 50.3761L201.032 49.8032L205.099 64.9817L203.175 65.4973L205.074 72.5853L202.651 73.2346L204.685 80.8239L188.506 85.1589L188.511 85.1768Z" fill="#CACDD0"/>
<path d="M206.413 47.3639L204.702 47.8222L204.093 45.549L201.456 46.2556L200.919 44.2509L196.91 45.3251L196.483 43.7321L192.1 44.9066L190.176 45.4222L189.695 45.5511L189.076 43.2421L185.013 44.3306L181.829 32.4456L179.477 33.0758L178.94 31.0711L173.167 32.618L173.704 34.6227L171.227 35.2863L177.903 60.2019L177.137 60.4072L176.557 58.2414L169.091 60.2418L169.12 60.3492L168.158 60.607L170.47 69.2344L173.249 68.4896L174.036 71.425L176.281 70.8235L177.369 74.8866L179.846 74.223L181.079 78.823L182.789 78.3647L184.079 83.1796L186.556 82.516L187.352 85.4872L188.206 88.6733L191.627 87.7566L192.927 87.4081L194.146 91.9544L208.4 88.135L207.182 83.5887L207.77 83.4311L210.407 82.7245L211.173 82.5192L208.669 73.1759L211.093 72.5266L209.064 64.9553L210.988 64.4397L206.413 47.3639ZM190.755 84.5753L189.48 79.8142L187.003 80.4778L185.938 76.5042L184.228 76.9625L182.937 72.1476L180.461 72.8113L179.228 68.2112L176.983 68.8127L176.369 66.5217L173.59 67.2664L172.391 62.7917L176.346 61.7318L176.927 63.8976L178.762 63.4058L180.767 70.8877L184.188 69.971L174.97 35.5689L178.729 34.5615L185.084 58.2779L188.505 57.3612L185.872 47.5346L188.937 46.7134L191.848 57.5782L195.269 56.6615L192.976 48.1057L196.059 47.2798L196.486 48.8728L200.584 47.7747L201.121 49.7794L203.259 49.2065L207.326 64.385L205.402 64.9006L207.301 71.9887L204.878 72.638L206.911 80.2272L190.75 84.5574L190.755 84.5753Z" fill="#F0F0F0"/>
<path d="M165.152 226.171L170.752 221.311C171.178 220.951 171.525 220.624 171.792 220.331C172.072 220.038 172.292 219.764 172.452 219.511C172.612 219.244 172.718 218.984 172.772 218.731C172.838 218.478 172.872 218.204 172.872 217.911C172.872 217.124 172.638 216.478 172.172 215.971C171.705 215.451 171.065 215.191 170.252 215.191C169.278 215.191 168.532 215.458 168.012 215.991C167.492 216.511 167.232 217.251 167.232 218.211H165.352C165.352 217.531 165.465 216.904 165.692 216.331C165.932 215.744 166.265 215.244 166.692 214.831C167.132 214.418 167.652 214.098 168.252 213.871C168.852 213.631 169.518 213.511 170.252 213.511C170.958 213.511 171.592 213.624 172.152 213.851C172.712 214.064 173.185 214.371 173.572 214.771C173.958 215.158 174.252 215.618 174.452 216.151C174.652 216.684 174.752 217.271 174.752 217.911C174.752 218.391 174.678 218.838 174.532 219.251C174.385 219.664 174.178 220.058 173.912 220.431C173.658 220.804 173.345 221.171 172.972 221.531C172.612 221.878 172.212 222.238 171.772 222.611L167.592 226.071H174.952V227.711H165.152V226.171ZM182.153 227.911C181.473 227.911 180.826 227.798 180.213 227.571C179.613 227.344 179.086 226.958 178.633 226.411C178.18 225.851 177.82 225.111 177.553 224.191C177.286 223.258 177.153 222.098 177.153 220.711V220.311C177.153 219.018 177.286 217.938 177.553 217.071C177.82 216.204 178.18 215.511 178.633 214.991C179.086 214.458 179.613 214.078 180.213 213.851C180.826 213.624 181.473 213.511 182.153 213.511C182.833 213.511 183.473 213.624 184.073 213.851C184.686 214.078 185.22 214.458 185.673 214.991C186.126 215.511 186.486 216.204 186.753 217.071C187.02 217.938 187.153 219.018 187.153 220.311V220.711C187.153 222.098 187.02 223.258 186.753 224.191C186.486 225.111 186.126 225.851 185.673 226.411C185.22 226.958 184.686 227.344 184.073 227.571C183.473 227.798 182.833 227.911 182.153 227.911ZM182.153 226.271C182.566 226.271 182.96 226.198 183.333 226.051C183.72 225.891 184.053 225.611 184.333 225.211C184.626 224.798 184.853 224.231 185.013 223.511C185.186 222.791 185.273 221.858 185.273 220.711V220.311C185.273 219.271 185.186 218.418 185.013 217.751C184.853 217.084 184.626 216.558 184.333 216.171C184.053 215.784 183.72 215.518 183.333 215.371C182.96 215.224 182.566 215.151 182.153 215.151C181.726 215.151 181.326 215.224 180.953 215.371C180.58 215.518 180.246 215.784 179.953 216.171C179.673 216.558 179.446 217.084 179.273 217.751C179.113 218.418 179.033 219.271 179.033 220.311V220.711C179.033 221.858 179.113 222.791 179.273 223.511C179.446 224.231 179.673 224.798 179.953 225.211C180.246 225.611 180.58 225.891 180.953 226.051C181.326 226.198 181.726 226.271 182.153 226.271ZM189.155 226.171L194.755 221.311C195.182 220.951 195.529 220.624 195.795 220.331C196.075 220.038 196.295 219.764 196.455 219.511C196.615 219.244 196.722 218.984 196.775 218.731C196.842 218.478 196.875 218.204 196.875 217.911C196.875 217.124 196.642 216.478 196.175 215.971C195.709 215.451 195.069 215.191 194.255 215.191C193.282 215.191 192.535 215.458 192.015 215.991C191.495 216.511 191.235 217.251 191.235 218.211H189.355C189.355 217.531 189.469 216.904 189.695 216.331C189.935 215.744 190.269 215.244 190.695 214.831C191.135 214.418 191.655 214.098 192.255 213.871C192.855 213.631 193.522 213.511 194.255 213.511C194.962 213.511 195.595 213.624 196.155 213.851C196.715 214.064 197.189 214.371 197.575 214.771C197.962 215.158 198.255 215.618 198.455 216.151C198.655 216.684 198.755 217.271 198.755 217.911C198.755 218.391 198.682 218.838 198.535 219.251C198.389 219.664 198.182 220.058 197.915 220.431C197.662 220.804 197.349 221.171 196.975 221.531C196.615 221.878 196.215 222.238 195.775 222.611L191.595 226.071H198.955V227.711H189.155V226.171ZM205.657 227.911C204.897 227.911 204.217 227.811 203.617 227.611C203.03 227.398 202.53 227.111 202.117 226.751C201.704 226.391 201.39 225.971 201.177 225.491C200.964 224.998 200.857 224.471 200.857 223.911H202.737C202.737 224.591 202.97 225.151 203.437 225.591C203.904 226.018 204.644 226.231 205.657 226.231C206.67 226.231 207.41 226.011 207.877 225.571C208.344 225.118 208.577 224.531 208.577 223.811C208.577 223.064 208.337 222.464 207.857 222.011C207.39 221.544 206.657 221.311 205.657 221.311H204.157V219.711H205.657C206.617 219.711 207.31 219.511 207.737 219.111C208.164 218.698 208.377 218.131 208.377 217.411C208.377 216.718 208.17 216.178 207.757 215.791C207.344 215.391 206.644 215.191 205.657 215.191C204.71 215.191 204.017 215.398 203.577 215.811C203.15 216.211 202.937 216.711 202.937 217.311H201.057C201.057 216.791 201.157 216.298 201.357 215.831C201.57 215.364 201.87 214.964 202.257 214.631C202.657 214.284 203.137 214.011 203.697 213.811C204.27 213.611 204.924 213.511 205.657 213.511C206.39 213.511 207.044 213.611 207.617 213.811C208.19 214.011 208.67 214.278 209.057 214.611C209.457 214.944 209.757 215.338 209.957 215.791C210.157 216.244 210.257 216.718 210.257 217.211C210.257 218.011 210.044 218.691 209.617 219.251C209.204 219.798 208.617 220.184 207.857 220.411C208.657 220.664 209.29 221.078 209.757 221.651C210.224 222.224 210.457 223.011 210.457 224.011C210.457 224.544 210.35 225.051 210.137 225.531C209.924 225.998 209.61 226.411 209.197 226.771C208.797 227.118 208.297 227.398 207.697 227.611C207.097 227.811 206.417 227.911 205.657 227.911Z" fill="white" fill-opacity="0.6"/>
<path d="M67.2563 265.939H76.0563V276.539H74.2963V267.499H69.0163V276.539H67.2563V265.939ZM83.6484 276.739C82.9684 276.739 82.3218 276.632 81.7084 276.419C81.0951 276.192 80.5551 275.859 80.0884 275.419C79.6218 274.966 79.2484 274.399 78.9684 273.719C78.6884 273.039 78.5484 272.246 78.5484 271.339V270.939C78.5484 270.086 78.6884 269.332 78.9684 268.679C79.2484 268.026 79.6218 267.486 80.0884 267.059C80.5551 266.619 81.0951 266.292 81.7084 266.079C82.3218 265.852 82.9684 265.739 83.6484 265.739C84.3284 265.739 84.9751 265.852 85.5884 266.079C86.2018 266.292 86.7418 266.619 87.2084 267.059C87.6751 267.486 88.0484 268.026 88.3284 268.679C88.6084 269.332 88.7484 270.086 88.7484 270.939V271.339C88.7484 272.246 88.6084 273.039 88.3284 273.719C88.0484 274.399 87.6751 274.966 87.2084 275.419C86.7418 275.859 86.2018 276.192 85.5884 276.419C84.9751 276.632 84.3284 276.739 83.6484 276.739ZM83.6484 275.139C84.0484 275.139 84.4484 275.072 84.8484 274.939C85.2484 274.792 85.6018 274.572 85.9084 274.279C86.2151 273.972 86.4618 273.579 86.6484 273.099C86.8484 272.619 86.9484 272.032 86.9484 271.339V270.939C86.9484 270.299 86.8484 269.752 86.6484 269.299C86.4618 268.846 86.2151 268.472 85.9084 268.179C85.6018 267.886 85.2484 267.672 84.8484 267.539C84.4484 267.406 84.0484 267.339 83.6484 267.339C83.2484 267.339 82.8484 267.406 82.4484 267.539C82.0484 267.672 81.6951 267.886 81.3884 268.179C81.0818 268.472 80.8284 268.846 80.6284 269.299C80.4418 269.752 80.3484 270.299 80.3484 270.939V271.339C80.3484 272.032 80.4418 272.619 80.6284 273.099C80.8284 273.579 81.0818 273.972 81.3884 274.279C81.6951 274.572 82.0484 274.792 82.4484 274.939C82.8484 275.072 83.2484 275.139 83.6484 275.139ZM96.2406 265.939H100.841C102.147 265.939 103.107 266.212 103.721 266.759C104.334 267.292 104.641 267.986 104.641 268.839C104.641 269.066 104.601 269.299 104.521 269.539C104.441 269.766 104.327 269.979 104.181 270.179C104.047 270.379 103.881 270.552 103.681 270.699C103.494 270.846 103.281 270.959 103.041 271.039C103.694 271.199 104.187 271.506 104.521 271.959C104.867 272.399 105.041 272.919 105.041 273.519C105.041 274.439 104.734 275.172 104.121 275.719C103.507 276.266 102.547 276.539 101.241 276.539H96.2406V265.939ZM101.241 274.979C101.987 274.979 102.514 274.846 102.821 274.579C103.127 274.312 103.281 273.932 103.281 273.439C103.281 272.932 103.127 272.546 102.821 272.279C102.514 271.999 101.987 271.859 101.241 271.859H98.0006V274.979H101.241ZM100.841 270.419C101.601 270.419 102.127 270.286 102.421 270.019C102.727 269.752 102.881 269.386 102.881 268.919C102.881 268.479 102.727 268.132 102.421 267.879C102.127 267.626 101.601 267.499 100.841 267.499H98.0006V270.419H100.841ZM111.949 276.739C111.269 276.739 110.623 276.632 110.009 276.419C109.396 276.206 108.856 275.879 108.389 275.439C107.923 274.986 107.549 274.419 107.269 273.739C106.989 273.059 106.849 272.259 106.849 271.339V270.939C106.849 270.059 106.983 269.299 107.249 268.659C107.516 268.006 107.869 267.466 108.309 267.039C108.763 266.599 109.283 266.272 109.869 266.059C110.469 265.846 111.096 265.739 111.749 265.739C113.309 265.739 114.516 266.166 115.369 267.019C116.223 267.872 116.649 269.079 116.649 270.639V271.759H108.609C108.609 272.386 108.709 272.912 108.909 273.339C109.109 273.766 109.369 274.112 109.689 274.379C110.009 274.646 110.363 274.839 110.749 274.959C111.149 275.079 111.549 275.139 111.949 275.139C112.749 275.139 113.363 275.006 113.789 274.739C114.229 274.472 114.543 274.106 114.729 273.639H116.449C116.343 274.146 116.149 274.592 115.869 274.979C115.603 275.366 115.269 275.692 114.869 275.959C114.483 276.212 114.036 276.406 113.529 276.539C113.036 276.672 112.509 276.739 111.949 276.739ZM111.849 267.339C111.436 267.339 111.036 267.399 110.649 267.519C110.263 267.626 109.916 267.806 109.609 268.059C109.316 268.299 109.076 268.606 108.889 268.979C108.703 269.352 108.609 269.799 108.609 270.319H114.989C114.976 269.772 114.883 269.312 114.709 268.939C114.549 268.552 114.329 268.246 114.049 268.019C113.769 267.779 113.436 267.606 113.049 267.499C112.676 267.392 112.276 267.339 111.849 267.339ZM119.151 265.939H120.791V267.939C121.151 267.232 121.651 266.692 122.291 266.319C122.944 265.932 123.697 265.739 124.551 265.739C125.884 265.739 126.951 266.179 127.751 267.059C128.551 267.926 128.951 269.219 128.951 270.939V271.339C128.951 272.246 128.844 273.039 128.631 273.719C128.417 274.386 128.117 274.946 127.731 275.399C127.344 275.839 126.877 276.172 126.331 276.399C125.797 276.626 125.204 276.739 124.551 276.739C123.644 276.739 122.884 276.539 122.271 276.139C121.671 275.739 121.217 275.239 120.911 274.639V280.539H119.151V265.939ZM124.151 275.179C124.577 275.179 124.977 275.099 125.351 274.939C125.724 274.766 126.044 274.519 126.311 274.199C126.591 273.879 126.804 273.479 126.951 272.999C127.111 272.519 127.191 271.966 127.191 271.339V270.939C127.191 270.366 127.111 269.852 126.951 269.399C126.804 268.946 126.591 268.566 126.311 268.259C126.044 267.939 125.724 267.699 125.351 267.539C124.977 267.379 124.577 267.299 124.151 267.299C123.671 267.299 123.231 267.379 122.831 267.539C122.431 267.686 122.091 267.899 121.811 268.179C121.531 268.446 121.311 268.766 121.151 269.139C120.991 269.512 120.911 269.912 120.911 270.339V271.939C120.911 272.419 120.991 272.859 121.151 273.259C121.311 273.659 121.531 273.999 121.811 274.279C122.091 274.559 122.431 274.779 122.831 274.939C123.231 275.099 123.671 275.179 124.151 275.179ZM135.555 276.739C134.875 276.739 134.242 276.632 133.655 276.419C133.069 276.192 132.562 275.859 132.135 275.419C131.709 274.966 131.369 274.399 131.115 273.719C130.875 273.039 130.755 272.246 130.755 271.339V270.939C130.755 270.086 130.889 269.332 131.155 268.679C131.422 268.026 131.775 267.486 132.215 267.059C132.655 266.619 133.162 266.292 133.735 266.079C134.322 265.852 134.929 265.739 135.555 265.739C136.182 265.739 136.742 265.826 137.235 265.999C137.742 266.172 138.175 266.412 138.535 266.719C138.909 267.026 139.209 267.386 139.435 267.799C139.675 268.212 139.849 268.659 139.955 269.139H138.155C138.049 268.886 137.922 268.652 137.775 268.439C137.642 268.212 137.469 268.019 137.255 267.859C137.055 267.699 136.815 267.572 136.535 267.479C136.255 267.386 135.929 267.339 135.555 267.339C135.169 267.339 134.795 267.412 134.435 267.559C134.075 267.692 133.755 267.906 133.475 268.199C133.195 268.479 132.969 268.846 132.795 269.299C132.635 269.752 132.555 270.299 132.555 270.939V271.339C132.555 272.019 132.635 272.606 132.795 273.099C132.969 273.579 133.195 273.972 133.475 274.279C133.755 274.572 134.075 274.792 134.435 274.939C134.795 275.072 135.169 275.139 135.555 275.139C136.209 275.139 136.755 274.979 137.195 274.659C137.649 274.339 137.969 273.899 138.155 273.339H139.955C139.702 274.392 139.182 275.226 138.395 275.839C137.609 276.439 136.662 276.739 135.555 276.739ZM142.354 265.939H144.114V273.939L149.594 265.939H151.354V276.539H149.594V268.539L144.114 276.539H142.354V265.939ZM154.561 265.939H156.321V273.939L161.801 265.939H163.561V276.539H161.801V268.539L156.321 276.539H154.561V265.939ZM177.268 276.739C176.481 276.739 175.735 276.606 175.028 276.339C174.321 276.059 173.695 275.632 173.148 275.059C172.601 274.472 172.168 273.732 171.848 272.839C171.528 271.946 171.368 270.879 171.368 269.639V269.239C171.368 268.039 171.528 267.006 171.848 266.139C172.168 265.272 172.601 264.559 173.148 263.999C173.695 263.439 174.321 263.026 175.028 262.759C175.735 262.479 176.481 262.339 177.268 262.339C178.028 262.339 178.721 262.439 179.348 262.639C179.988 262.839 180.548 263.126 181.028 263.499C181.508 263.872 181.895 264.332 182.188 264.879C182.495 265.426 182.688 266.046 182.768 266.739H180.768C180.581 265.832 180.188 265.152 179.588 264.699C178.988 264.246 178.215 264.019 177.268 264.019C176.775 264.019 176.295 264.112 175.828 264.299C175.361 264.486 174.941 264.786 174.568 265.199C174.208 265.599 173.915 266.132 173.688 266.799C173.475 267.466 173.368 268.279 173.368 269.239V269.639C173.368 270.652 173.488 271.506 173.728 272.199C173.968 272.879 174.275 273.432 174.648 273.859C175.021 274.286 175.441 274.592 175.908 274.779C176.375 274.966 176.828 275.059 177.268 275.059C178.308 275.059 179.121 274.806 179.708 274.299C180.295 273.792 180.648 273.139 180.768 272.339H182.768C182.661 273.112 182.448 273.779 182.128 274.339C181.808 274.886 181.401 275.339 180.908 275.699C180.428 276.059 179.875 276.326 179.248 276.499C178.635 276.659 177.975 276.739 177.268 276.739ZM185.762 262.539H187.722L192.402 271.439L197.082 262.539H198.962V276.539H197.082V265.939L193.062 273.539H191.662L187.642 265.939V276.539H185.762V262.539ZM207.369 276.739C206.529 276.739 205.795 276.639 205.169 276.439C204.542 276.239 204.015 275.966 203.589 275.619C203.162 275.259 202.822 274.846 202.569 274.379C202.329 273.899 202.162 273.386 202.069 272.839H203.949C204.015 273.146 204.129 273.439 204.289 273.719C204.449 273.986 204.662 274.219 204.929 274.419C205.209 274.619 205.549 274.779 205.949 274.899C206.349 275.006 206.822 275.059 207.369 275.059C208.489 275.059 209.335 274.846 209.909 274.419C210.495 273.992 210.789 273.466 210.789 272.839C210.789 272.452 210.722 272.126 210.589 271.859C210.469 271.592 210.255 271.359 209.949 271.159C209.655 270.959 209.262 270.779 208.769 270.619C208.289 270.459 207.695 270.299 206.989 270.139C206.202 269.966 205.522 269.779 204.949 269.579C204.389 269.366 203.922 269.106 203.549 268.799C203.189 268.479 202.915 268.099 202.729 267.659C202.555 267.219 202.469 266.679 202.469 266.039C202.469 265.519 202.582 265.039 202.809 264.599C203.035 264.146 203.355 263.752 203.769 263.419C204.195 263.086 204.709 262.826 205.309 262.639C205.922 262.439 206.609 262.339 207.369 262.339C208.115 262.339 208.769 262.439 209.329 262.639C209.889 262.826 210.362 263.086 210.749 263.419C211.149 263.752 211.462 264.146 211.689 264.599C211.915 265.039 212.075 265.519 212.169 266.039H210.289C210.222 265.759 210.122 265.499 209.989 265.259C209.855 265.006 209.669 264.792 209.429 264.619C209.202 264.432 208.915 264.286 208.569 264.179C208.235 264.072 207.835 264.019 207.369 264.019C206.409 264.019 205.662 264.219 205.129 264.619C204.609 265.006 204.349 265.479 204.349 266.039C204.349 266.399 204.415 266.712 204.549 266.979C204.682 267.232 204.889 267.459 205.169 267.659C205.449 267.846 205.802 268.012 206.229 268.159C206.669 268.292 207.189 268.426 207.789 268.559C208.655 268.746 209.395 268.959 210.009 269.199C210.635 269.426 211.142 269.706 211.529 270.039C211.929 270.372 212.215 270.766 212.389 271.219C212.575 271.672 212.669 272.212 212.669 272.839C212.669 273.386 212.549 273.899 212.309 274.379C212.069 274.846 211.722 275.259 211.269 275.619C210.815 275.966 210.262 276.239 209.609 276.439C208.955 276.639 208.209 276.739 207.369 276.739ZM220.762 262.539H222.722L227.402 271.439L232.082 262.539H233.962V276.539H232.082V265.939L228.062 273.539H226.662L222.642 265.939V276.539H220.762V262.539ZM240.589 276.739C240.002 276.739 239.482 276.659 239.029 276.499C238.589 276.326 238.215 276.092 237.909 275.799C237.602 275.506 237.369 275.159 237.209 274.759C237.049 274.359 236.969 273.919 236.969 273.439C236.969 272.386 237.275 271.626 237.889 271.159C238.515 270.692 239.409 270.459 240.569 270.459H244.009V269.739C244.009 268.832 243.802 268.206 243.389 267.859C242.989 267.512 242.382 267.339 241.569 267.339C240.809 267.339 240.255 267.486 239.909 267.779C239.562 268.059 239.369 268.379 239.329 268.739H237.569C237.595 268.312 237.709 267.919 237.909 267.559C238.122 267.186 238.402 266.866 238.749 266.599C239.109 266.332 239.535 266.126 240.029 265.979C240.522 265.819 241.069 265.739 241.669 265.739C242.922 265.739 243.915 266.039 244.649 266.639C245.395 267.226 245.769 268.192 245.769 269.539V273.839C245.769 274.399 245.769 274.892 245.769 275.319C245.782 275.732 245.815 276.139 245.869 276.539H244.329C244.289 276.232 244.262 275.946 244.249 275.679C244.235 275.399 244.229 275.086 244.229 274.739C243.949 275.299 243.495 275.772 242.869 276.159C242.242 276.546 241.482 276.739 240.589 276.739ZM240.969 275.139C241.382 275.139 241.769 275.086 242.129 274.979C242.502 274.859 242.829 274.692 243.109 274.479C243.389 274.252 243.609 273.979 243.769 273.659C243.929 273.339 244.009 272.966 244.009 272.539V271.819H240.869C240.215 271.819 239.702 271.952 239.329 272.219C238.955 272.472 238.769 272.879 238.769 273.439C238.769 273.932 238.942 274.339 239.289 274.659C239.649 274.979 240.209 275.139 240.969 275.139ZM253.077 280.739C252.304 280.739 251.644 280.659 251.097 280.499C250.551 280.352 250.097 280.146 249.737 279.879C249.391 279.612 249.124 279.292 248.937 278.919C248.751 278.559 248.631 278.166 248.577 277.739H250.417C250.484 277.952 250.577 278.146 250.697 278.319C250.817 278.492 250.977 278.639 251.177 278.759C251.377 278.879 251.631 278.972 251.937 279.039C252.257 279.106 252.637 279.139 253.077 279.139C254.157 279.139 254.951 278.879 255.457 278.359C255.964 277.839 256.217 277.099 256.217 276.139V274.439C255.911 275.146 255.437 275.672 254.797 276.019C254.171 276.366 253.431 276.539 252.577 276.539C251.924 276.539 251.324 276.426 250.777 276.199C250.244 275.972 249.784 275.639 249.397 275.199C249.011 274.759 248.711 274.212 248.497 273.559C248.284 272.892 248.177 272.119 248.177 271.239V270.839C248.177 270.026 248.284 269.306 248.497 268.679C248.724 268.039 249.031 267.506 249.417 267.079C249.804 266.639 250.264 266.306 250.797 266.079C251.344 265.852 251.937 265.739 252.577 265.739C253.484 265.739 254.271 265.946 254.937 266.359C255.604 266.759 256.071 267.286 256.337 267.939V265.939H257.977V276.139C257.977 277.579 257.557 278.706 256.717 279.519C255.877 280.332 254.664 280.739 253.077 280.739ZM252.977 274.979C253.457 274.979 253.897 274.906 254.297 274.759C254.697 274.599 255.037 274.379 255.317 274.099C255.597 273.819 255.817 273.486 255.977 273.099C256.137 272.712 256.217 272.292 256.217 271.839V270.239C256.217 269.839 256.137 269.459 255.977 269.099C255.817 268.739 255.597 268.426 255.317 268.159C255.037 267.892 254.697 267.686 254.297 267.539C253.897 267.379 253.457 267.299 252.977 267.299C252.551 267.299 252.151 267.379 251.777 267.539C251.404 267.699 251.077 267.932 250.797 268.239C250.531 268.546 250.317 268.919 250.157 269.359C250.011 269.786 249.937 270.279 249.937 270.839V271.239C249.937 271.839 250.011 272.372 250.157 272.839C250.317 273.306 250.531 273.699 250.797 274.019C251.077 274.339 251.404 274.579 251.777 274.739C252.151 274.899 252.551 274.979 252.977 274.979ZM264.202 276.739C263.615 276.739 263.095 276.659 262.642 276.499C262.202 276.326 261.829 276.092 261.522 275.799C261.215 275.506 260.982 275.159 260.822 274.759C260.662 274.359 260.582 273.919 260.582 273.439C260.582 272.386 260.889 271.626 261.502 271.159C262.129 270.692 263.022 270.459 264.182 270.459H267.622V269.739C267.622 268.832 267.415 268.206 267.002 267.859C266.602 267.512 265.995 267.339 265.182 267.339C264.422 267.339 263.869 267.486 263.522 267.779C263.175 268.059 262.982 268.379 262.942 268.739H261.182C261.209 268.312 261.322 267.919 261.522 267.559C261.735 267.186 262.015 266.866 262.362 266.599C262.722 266.332 263.149 266.126 263.642 265.979C264.135 265.819 264.682 265.739 265.282 265.739C266.535 265.739 267.529 266.039 268.262 266.639C269.009 267.226 269.382 268.192 269.382 269.539V273.839C269.382 274.399 269.382 274.892 269.382 275.319C269.395 275.732 269.429 276.139 269.482 276.539H267.942C267.902 276.232 267.875 275.946 267.862 275.679C267.849 275.399 267.842 275.086 267.842 274.739C267.562 275.299 267.109 275.772 266.482 276.159C265.855 276.546 265.095 276.739 264.202 276.739ZM264.582 275.139C264.995 275.139 265.382 275.086 265.742 274.979C266.115 274.859 266.442 274.692 266.722 274.479C267.002 274.252 267.222 273.979 267.382 273.659C267.542 273.339 267.622 272.966 267.622 272.539V271.819H264.482C263.829 271.819 263.315 271.952 262.942 272.219C262.569 272.472 262.382 272.879 262.382 273.439C262.382 273.932 262.555 274.339 262.902 274.659C263.262 274.979 263.822 275.139 264.582 275.139ZM271.691 275.079L277.971 267.499H271.891V265.939H280.091V267.399L273.811 274.979H280.291V276.539H271.691V275.079ZM282.886 265.939H284.646V276.539H282.886V265.939ZM283.766 264.539C283.419 264.539 283.133 264.426 282.906 264.199C282.679 263.972 282.566 263.686 282.566 263.339C282.566 262.992 282.679 262.706 282.906 262.479C283.133 262.252 283.419 262.139 283.766 262.139C284.113 262.139 284.399 262.252 284.626 262.479C284.853 262.706 284.966 262.992 284.966 263.339C284.966 263.686 284.853 263.972 284.626 264.199C284.399 264.426 284.113 264.539 283.766 264.539ZM288.038 265.939H289.678V267.939C289.798 267.646 289.964 267.366 290.178 267.099C290.391 266.832 290.644 266.599 290.938 266.399C291.244 266.199 291.591 266.039 291.978 265.919C292.378 265.799 292.818 265.739 293.298 265.739C294.631 265.739 295.618 266.099 296.258 266.819C296.911 267.526 297.238 268.566 297.238 269.939V276.539H295.478V270.339C295.478 269.352 295.271 268.606 294.858 268.099C294.444 267.592 293.751 267.339 292.778 267.339C292.258 267.339 291.804 267.426 291.418 267.599C291.044 267.772 290.738 267.999 290.498 268.279C290.258 268.559 290.078 268.879 289.958 269.239C289.851 269.599 289.798 269.966 289.798 270.339V276.539H288.038V265.939ZM304.742 276.739C304.062 276.739 303.416 276.632 302.802 276.419C302.189 276.206 301.649 275.879 301.182 275.439C300.716 274.986 300.342 274.419 300.062 273.739C299.782 273.059 299.642 272.259 299.642 271.339V270.939C299.642 270.059 299.776 269.299 300.042 268.659C300.309 268.006 300.662 267.466 301.102 267.039C301.556 266.599 302.076 266.272 302.662 266.059C303.262 265.846 303.889 265.739 304.542 265.739C306.102 265.739 307.309 266.166 308.162 267.019C309.016 267.872 309.442 269.079 309.442 270.639V271.759H301.402C301.402 272.386 301.502 272.912 301.702 273.339C301.902 273.766 302.162 274.112 302.482 274.379C302.802 274.646 303.156 274.839 303.542 274.959C303.942 275.079 304.342 275.139 304.742 275.139C305.542 275.139 306.156 275.006 306.582 274.739C307.022 274.472 307.336 274.106 307.522 273.639H309.242C309.136 274.146 308.942 274.592 308.662 274.979C308.396 275.366 308.062 275.692 307.662 275.959C307.276 276.212 306.829 276.406 306.322 276.539C305.829 276.672 305.302 276.739 304.742 276.739ZM304.642 267.339C304.229 267.339 303.829 267.399 303.442 267.519C303.056 267.626 302.709 267.806 302.402 268.059C302.109 268.299 301.869 268.606 301.682 268.979C301.496 269.352 301.402 269.799 301.402 270.319H307.782C307.769 269.772 307.676 269.312 307.502 268.939C307.342 268.552 307.122 268.246 306.842 268.019C306.562 267.779 306.229 267.606 305.842 267.499C305.469 267.392 305.069 267.339 304.642 267.339ZM118.194 293.939H119.954V301.939L125.434 293.939H127.194V304.539H125.434V296.539L119.954 304.539H118.194V293.939ZM135.801 290.539H140.701C141.581 290.539 142.347 290.646 143.001 290.859C143.667 291.072 144.221 291.366 144.661 291.739C145.101 292.112 145.434 292.559 145.661 293.079C145.887 293.586 146.001 294.139 146.001 294.739C146.001 295.672 145.721 296.492 145.161 297.199C144.614 297.892 143.801 298.379 142.721 298.659L146.401 304.539H144.181L140.841 298.899H137.681V304.539H135.801V290.539ZM140.501 297.299C141.794 297.299 142.721 297.066 143.281 296.599C143.841 296.119 144.121 295.499 144.121 294.739C144.121 293.979 143.841 293.366 143.281 292.899C142.721 292.419 141.794 292.179 140.501 292.179H137.681V297.299H140.501ZM151.819 304.739C151.233 304.739 150.713 304.659 150.259 304.499C149.819 304.326 149.446 304.092 149.139 303.799C148.833 303.506 148.599 303.159 148.439 302.759C148.279 302.359 148.199 301.919 148.199 301.439C148.199 300.386 148.506 299.626 149.119 299.159C149.746 298.692 150.639 298.459 151.799 298.459H155.239V297.739C155.239 296.832 155.033 296.206 154.619 295.859C154.219 295.512 153.613 295.339 152.799 295.339C152.039 295.339 151.486 295.486 151.139 295.779C150.793 296.059 150.599 296.379 150.559 296.739H148.799C148.826 296.312 148.939 295.919 149.139 295.559C149.353 295.186 149.633 294.866 149.979 294.599C150.339 294.332 150.766 294.126 151.259 293.979C151.753 293.819 152.299 293.739 152.899 293.739C154.153 293.739 155.146 294.039 155.879 294.639C156.626 295.226 156.999 296.192 156.999 297.539V301.839C156.999 302.399 156.999 302.892 156.999 303.319C157.013 303.732 157.046 304.139 157.099 304.539H155.559C155.519 304.232 155.493 303.946 155.479 303.679C155.466 303.399 155.459 303.086 155.459 302.739C155.179 303.299 154.726 303.772 154.099 304.159C153.473 304.546 152.713 304.739 151.819 304.739ZM152.199 303.139C152.613 303.139 152.999 303.086 153.359 302.979C153.733 302.859 154.059 302.692 154.339 302.479C154.619 302.252 154.839 301.979 154.999 301.659C155.159 301.339 155.239 300.966 155.239 300.539V299.819H152.099C151.446 299.819 150.933 299.952 150.559 300.219C150.186 300.472 149.999 300.879 149.999 301.439C149.999 301.932 150.173 302.339 150.519 302.659C150.879 302.979 151.439 303.139 152.199 303.139ZM163.813 304.639C162.679 304.639 161.859 304.386 161.353 303.879C160.859 303.359 160.613 302.579 160.613 301.539V295.499H159.013V293.939H160.613V291.539H162.373V293.939H165.213V295.499H162.373V301.339C162.373 301.939 162.499 302.372 162.753 302.639C163.006 302.906 163.493 303.039 164.213 303.039C164.613 303.039 165.013 303.019 165.413 302.979V304.539C165.159 304.566 164.906 304.586 164.653 304.599C164.399 304.626 164.119 304.639 163.813 304.639ZM168.12 293.939H169.88V304.539H168.12V293.939ZM169 292.539C168.654 292.539 168.367 292.426 168.14 292.199C167.914 291.972 167.8 291.686 167.8 291.339C167.8 290.992 167.914 290.706 168.14 290.479C168.367 290.252 168.654 290.139 169 290.139C169.347 290.139 169.634 290.252 169.86 290.479C170.087 290.706 170.2 290.992 170.2 291.339C170.2 291.686 170.087 291.972 169.86 292.199C169.634 292.426 169.347 292.539 169 292.539ZM173.272 293.939H174.912V295.939C175.032 295.646 175.199 295.366 175.412 295.099C175.625 294.832 175.879 294.599 176.172 294.399C176.479 294.199 176.825 294.039 177.212 293.919C177.612 293.799 178.052 293.739 178.532 293.739C179.865 293.739 180.852 294.099 181.492 294.819C182.145 295.526 182.472 296.566 182.472 297.939V304.539H180.712V298.339C180.712 297.352 180.505 296.606 180.092 296.099C179.679 295.592 178.985 295.339 178.012 295.339C177.492 295.339 177.039 295.426 176.652 295.599C176.279 295.772 175.972 295.999 175.732 296.279C175.492 296.559 175.312 296.879 175.192 297.239C175.085 297.599 175.032 297.966 175.032 298.339V304.539H173.272V293.939ZM189.777 308.739C189.003 308.739 188.343 308.659 187.797 308.499C187.25 308.352 186.797 308.146 186.437 307.879C186.09 307.612 185.823 307.292 185.637 306.919C185.45 306.559 185.33 306.166 185.277 305.739H187.117C187.183 305.952 187.277 306.146 187.397 306.319C187.517 306.492 187.677 306.639 187.877 306.759C188.077 306.879 188.33 306.972 188.637 307.039C188.957 307.106 189.337 307.139 189.777 307.139C190.857 307.139 191.65 306.879 192.157 306.359C192.663 305.839 192.917 305.099 192.917 304.139V302.439C192.61 303.146 192.137 303.672 191.497 304.019C190.87 304.366 190.13 304.539 189.277 304.539C188.623 304.539 188.023 304.426 187.477 304.199C186.943 303.972 186.483 303.639 186.097 303.199C185.71 302.759 185.41 302.212 185.197 301.559C184.983 300.892 184.877 300.119 184.877 299.239V298.839C184.877 298.026 184.983 297.306 185.197 296.679C185.423 296.039 185.73 295.506 186.117 295.079C186.503 294.639 186.963 294.306 187.497 294.079C188.043 293.852 188.637 293.739 189.277 293.739C190.183 293.739 190.97 293.946 191.637 294.359C192.303 294.759 192.77 295.286 193.037 295.939V293.939H194.677V304.139C194.677 305.579 194.257 306.706 193.417 307.519C192.577 308.332 191.363 308.739 189.777 308.739ZM189.677 302.979C190.157 302.979 190.597 302.906 190.997 302.759C191.397 302.599 191.737 302.379 192.017 302.099C192.297 301.819 192.517 301.486 192.677 301.099C192.837 300.712 192.917 300.292 192.917 299.839V298.239C192.917 297.839 192.837 297.459 192.677 297.099C192.517 296.739 192.297 296.426 192.017 296.159C191.737 295.892 191.397 295.686 190.997 295.539C190.597 295.379 190.157 295.299 189.677 295.299C189.25 295.299 188.85 295.379 188.477 295.539C188.103 295.699 187.777 295.932 187.497 296.239C187.23 296.546 187.017 296.919 186.857 297.359C186.71 297.786 186.637 298.279 186.637 298.839V299.239C186.637 299.839 186.71 300.372 186.857 300.839C187.017 301.306 187.23 301.699 187.497 302.019C187.777 302.339 188.103 302.579 188.477 302.739C188.85 302.899 189.25 302.979 189.677 302.979ZM197.881 293.939H199.521V295.939C199.748 295.312 200.121 294.792 200.641 294.379C201.175 293.952 201.821 293.739 202.581 293.739C202.848 293.739 203.061 293.752 203.221 293.779C203.395 293.806 203.548 293.839 203.681 293.879V295.519C203.508 295.452 203.335 295.406 203.161 295.379C203.001 295.352 202.775 295.339 202.481 295.339C202.081 295.339 201.708 295.412 201.361 295.559C201.015 295.706 200.715 295.912 200.461 296.179C200.208 296.432 200.008 296.746 199.861 297.119C199.715 297.492 199.641 297.899 199.641 298.339V304.539H197.881V293.939ZM209.414 304.739C208.134 304.739 207.174 304.372 206.534 303.639C205.894 302.906 205.574 301.772 205.574 300.239V293.939H207.334V300.139C207.334 301.126 207.534 301.872 207.934 302.379C208.348 302.886 209.014 303.139 209.934 303.139C210.428 303.139 210.854 303.052 211.214 302.879C211.588 302.706 211.888 302.479 212.114 302.199C212.354 301.919 212.528 301.599 212.634 301.239C212.754 300.879 212.814 300.512 212.814 300.139V293.939H214.574V304.539H212.934V302.539C212.814 302.832 212.648 303.112 212.434 303.379C212.234 303.646 211.981 303.879 211.674 304.079C211.381 304.279 211.041 304.439 210.654 304.559C210.281 304.679 209.868 304.739 209.414 304.739ZM217.784 293.939H219.424V295.939C219.544 295.646 219.71 295.366 219.924 295.099C220.137 294.832 220.39 294.599 220.684 294.399C220.99 294.199 221.337 294.039 221.724 293.919C222.124 293.799 222.564 293.739 223.044 293.739C224.377 293.739 225.364 294.099 226.004 294.819C226.657 295.526 226.984 296.566 226.984 297.939V304.539H225.224V298.339C225.224 297.352 225.017 296.606 224.604 296.099C224.19 295.592 223.497 295.339 222.524 295.339C222.004 295.339 221.55 295.426 221.164 295.599C220.79 295.772 220.484 295.999 220.244 296.279C220.004 296.559 219.824 296.879 219.704 297.239C219.597 297.599 219.544 297.966 219.544 298.339V304.539H217.784V293.939ZM234.488 304.739C233.808 304.739 233.162 304.632 232.548 304.419C231.935 304.206 231.395 303.879 230.928 303.439C230.462 302.986 230.088 302.419 229.808 301.739C229.528 301.059 229.388 300.259 229.388 299.339V298.939C229.388 298.059 229.522 297.299 229.788 296.659C230.055 296.006 230.408 295.466 230.848 295.039C231.302 294.599 231.822 294.272 232.408 294.059C233.008 293.846 233.635 293.739 234.288 293.739C235.848 293.739 237.055 294.166 237.908 295.019C238.762 295.872 239.188 297.079 239.188 298.639V299.759H231.148C231.148 300.386 231.248 300.912 231.448 301.339C231.648 301.766 231.908 302.112 232.228 302.379C232.548 302.646 232.902 302.839 233.288 302.959C233.688 303.079 234.088 303.139 234.488 303.139C235.288 303.139 235.902 303.006 236.328 302.739C236.768 302.472 237.082 302.106 237.268 301.639H238.988C238.882 302.146 238.688 302.592 238.408 302.979C238.142 303.366 237.808 303.692 237.408 303.959C237.022 304.212 236.575 304.406 236.068 304.539C235.575 304.672 235.048 304.739 234.488 304.739ZM234.388 295.339C233.975 295.339 233.575 295.399 233.188 295.519C232.802 295.626 232.455 295.806 232.148 296.059C231.855 296.299 231.615 296.606 231.428 296.979C231.242 297.352 231.148 297.799 231.148 298.319H237.528C237.515 297.772 237.422 297.312 237.248 296.939C237.088 296.552 236.868 296.246 236.588 296.019C236.308 295.779 235.975 295.606 235.588 295.499C235.215 295.392 234.815 295.339 234.388 295.339ZM245.59 304.639C244.457 304.639 243.637 304.386 243.13 303.879C242.637 303.359 242.39 302.579 242.39 301.539V295.499H240.79V293.939H242.39V291.539H244.15V293.939H246.99V295.499H244.15V301.339C244.15 301.939 244.277 302.372 244.53 302.639C244.783 302.906 245.27 303.039 245.99 303.039C246.39 303.039 246.79 303.019 247.19 302.979V304.539C246.937 304.566 246.683 304.586 246.43 304.599C246.177 304.626 245.897 304.639 245.59 304.639ZM252.718 304.739C252.131 304.739 251.611 304.659 251.158 304.499C250.718 304.326 250.344 304.092 250.038 303.799C249.731 303.506 249.498 303.159 249.338 302.759C249.178 302.359 249.098 301.919 249.098 301.439C249.098 300.386 249.404 299.626 250.018 299.159C250.644 298.692 251.538 298.459 252.698 298.459H256.138V297.739C256.138 296.832 255.931 296.206 255.518 295.859C255.118 295.512 254.511 295.339 253.698 295.339C252.938 295.339 252.384 295.486 252.038 295.779C251.691 296.059 251.498 296.379 251.458 296.739H249.698C249.724 296.312 249.838 295.919 250.038 295.559C250.251 295.186 250.531 294.866 250.878 294.599C251.238 294.332 251.664 294.126 252.158 293.979C252.651 293.819 253.198 293.739 253.798 293.739C255.051 293.739 256.044 294.039 256.778 294.639C257.524 295.226 257.898 296.192 257.898 297.539V301.839C257.898 302.399 257.898 302.892 257.898 303.319C257.911 303.732 257.944 304.139 257.998 304.539H256.458C256.418 304.232 256.391 303.946 256.378 303.679C256.364 303.399 256.358 303.086 256.358 302.739C256.078 303.299 255.624 303.772 254.998 304.159C254.371 304.546 253.611 304.739 252.718 304.739ZM253.098 303.139C253.511 303.139 253.898 303.086 254.258 302.979C254.631 302.859 254.958 302.692 255.238 302.479C255.518 302.252 255.738 301.979 255.898 301.659C256.058 301.339 256.138 300.966 256.138 300.539V299.819H252.998C252.344 299.819 251.831 299.952 251.458 300.219C251.084 300.472 250.898 300.879 250.898 301.439C250.898 301.932 251.071 302.339 251.418 302.659C251.778 302.979 252.338 303.139 253.098 303.139Z" fill="white"/>
</svg>
