<svg width="376" height="405" viewBox="0 0 376 405" fill="none" xmlns="http://www.w3.org/2000/svg">
<path d="M100.443 132.637H106.295V152.777H100.443V132.637ZM103.369 130.737C102.279 130.737 101.431 130.459 100.823 129.901C100.24 129.319 99.9486 128.584 99.9486 127.697C99.9486 126.811 100.24 126.089 100.823 125.531C101.431 124.949 102.279 124.657 103.369 124.657C104.458 124.657 105.294 124.949 105.877 125.531C106.485 126.089 106.789 126.811 106.789 127.697C106.789 128.584 106.485 129.319 105.877 129.901C105.294 130.459 104.458 130.737 103.369 130.737ZM110.49 132.637H115.886V135.373C116.393 134.487 117.178 133.727 118.242 133.093C119.332 132.46 120.776 132.143 122.574 132.143C124.981 132.143 126.792 132.802 128.008 134.119C129.25 135.411 129.87 137.261 129.87 139.667V152.777H124.018V140.997C124.018 139.68 123.727 138.692 123.144 138.033C122.587 137.349 121.662 137.007 120.37 137.007C119.661 137.007 119.053 137.121 118.546 137.349C118.04 137.552 117.622 137.831 117.292 138.185C116.963 138.54 116.722 138.971 116.57 139.477C116.418 139.959 116.342 140.465 116.342 140.997V152.777H110.49V132.637ZM142.618 147.153H148.508V133.055L142.618 137.235V130.395L148.546 126.177H155.348V147.153H160.098V152.777H142.618V147.153ZM173.005 153.271C171.51 153.271 170.117 153.031 168.825 152.549C167.533 152.043 166.405 151.245 165.443 150.155C164.48 149.066 163.72 147.647 163.163 145.899C162.631 144.126 162.365 141.985 162.365 139.477V138.717C162.365 136.387 162.631 134.398 163.163 132.751C163.72 131.105 164.48 129.762 165.443 128.723C166.405 127.659 167.533 126.887 168.825 126.405C170.117 125.924 171.51 125.683 173.005 125.683C174.499 125.683 175.893 125.924 177.185 126.405C178.477 126.887 179.604 127.659 180.567 128.723C181.529 129.762 182.277 131.105 182.809 132.751C183.366 134.398 183.645 136.387 183.645 138.717V139.477C183.645 141.985 183.366 144.126 182.809 145.899C182.277 147.647 181.529 149.066 180.567 150.155C179.604 151.245 178.477 152.043 177.185 152.549C175.893 153.031 174.499 153.271 173.005 153.271ZM173.005 147.647C173.511 147.647 173.993 147.521 174.449 147.267C174.93 147.014 175.335 146.583 175.665 145.975C176.019 145.342 176.298 144.506 176.501 143.467C176.703 142.403 176.805 141.073 176.805 139.477V138.717C176.805 137.324 176.703 136.159 176.501 135.221C176.298 134.259 176.019 133.486 175.665 132.903C175.335 132.321 174.93 131.915 174.449 131.687C173.993 131.434 173.511 131.307 173.005 131.307C172.498 131.307 172.004 131.434 171.523 131.687C171.067 131.915 170.661 132.321 170.307 132.903C169.977 133.486 169.711 134.259 169.509 135.221C169.306 136.159 169.205 137.324 169.205 138.717V139.477C169.205 141.073 169.306 142.403 169.509 143.467C169.711 144.506 169.977 145.342 170.307 145.975C170.661 146.583 171.067 147.014 171.523 147.267C172.004 147.521 172.498 147.647 173.005 147.647ZM186.32 139.325H198.86V144.949H186.32V139.325ZM207.733 131.801H199.563V126.177H222.743V131.801H214.573V152.777H207.733V131.801ZM237.777 153.271C236.029 153.271 234.37 153.018 232.799 152.511C231.228 152.005 229.848 151.207 228.657 150.117C227.492 149.003 226.567 147.597 225.883 145.899C225.199 144.177 224.857 142.099 224.857 139.667V138.907C224.857 136.577 225.199 134.575 225.883 132.903C226.567 131.231 227.492 129.863 228.657 128.799C229.848 127.735 231.228 126.95 232.799 126.443C234.37 125.937 236.029 125.683 237.777 125.683C239.525 125.683 241.184 125.937 242.755 126.443C244.326 126.95 245.694 127.735 246.859 128.799C248.05 129.863 248.987 131.231 249.671 132.903C250.355 134.575 250.697 136.577 250.697 138.907V139.667C250.697 142.099 250.355 144.177 249.671 145.899C248.987 147.597 248.05 149.003 246.859 150.117C245.694 151.207 244.326 152.005 242.755 152.511C241.184 153.018 239.525 153.271 237.777 153.271ZM237.777 147.571C238.537 147.571 239.272 147.457 239.981 147.229C240.69 146.976 241.311 146.558 241.843 145.975C242.375 145.367 242.806 144.557 243.135 143.543C243.464 142.53 243.629 141.238 243.629 139.667V138.907C243.629 137.438 243.464 136.222 243.135 135.259C242.806 134.271 242.375 133.499 241.843 132.941C241.311 132.359 240.69 131.953 239.981 131.725C239.272 131.497 238.537 131.383 237.777 131.383C237.017 131.383 236.282 131.497 235.573 131.725C234.864 131.953 234.243 132.359 233.711 132.941C233.179 133.499 232.748 134.271 232.419 135.259C232.09 136.222 231.925 137.438 231.925 138.907V139.667C231.925 141.238 232.09 142.53 232.419 143.543C232.748 144.557 233.179 145.367 233.711 145.975C234.243 146.558 234.864 146.976 235.573 147.229C236.282 147.457 237.017 147.571 237.777 147.571ZM255.049 126.177H265.879C269.578 126.177 272.301 126.988 274.049 128.609C275.822 130.205 276.709 132.422 276.709 135.259C276.709 138.097 275.822 140.326 274.049 141.947C272.301 143.543 269.578 144.341 265.879 144.341H261.889V152.777H255.049V126.177ZM265.119 138.717C266.867 138.717 268.096 138.426 268.805 137.843C269.514 137.261 269.869 136.399 269.869 135.259C269.869 134.119 269.514 133.258 268.805 132.675C268.096 132.093 266.867 131.801 265.119 131.801H261.889V138.717H265.119Z" fill="white"/>
<path d="M165.2 226.171L170.8 221.311C171.227 220.951 171.574 220.624 171.84 220.331C172.12 220.038 172.34 219.764 172.5 219.511C172.66 219.244 172.767 218.984 172.82 218.731C172.887 218.478 172.92 218.204 172.92 217.911C172.92 217.124 172.687 216.478 172.22 215.971C171.754 215.451 171.114 215.191 170.3 215.191C169.327 215.191 168.58 215.458 168.06 215.991C167.54 216.511 167.28 217.251 167.28 218.211H165.4C165.4 217.531 165.514 216.904 165.74 216.331C165.98 215.744 166.314 215.244 166.74 214.831C167.18 214.418 167.7 214.098 168.3 213.871C168.9 213.631 169.567 213.511 170.3 213.511C171.007 213.511 171.64 213.624 172.2 213.851C172.76 214.064 173.234 214.371 173.62 214.771C174.007 215.158 174.3 215.618 174.5 216.151C174.7 216.684 174.8 217.271 174.8 217.911C174.8 218.391 174.727 218.838 174.58 219.251C174.434 219.664 174.227 220.058 173.96 220.431C173.707 220.804 173.394 221.171 173.02 221.531C172.66 221.878 172.26 222.238 171.82 222.611L167.64 226.071H175V227.711H165.2V226.171ZM182.202 227.911C181.522 227.911 180.875 227.798 180.262 227.571C179.662 227.344 179.135 226.958 178.682 226.411C178.229 225.851 177.869 225.111 177.602 224.191C177.335 223.258 177.202 222.098 177.202 220.711V220.311C177.202 219.018 177.335 217.938 177.602 217.071C177.869 216.204 178.229 215.511 178.682 214.991C179.135 214.458 179.662 214.078 180.262 213.851C180.875 213.624 181.522 213.511 182.202 213.511C182.882 213.511 183.522 213.624 184.122 213.851C184.735 214.078 185.269 214.458 185.722 214.991C186.175 215.511 186.535 216.204 186.802 217.071C187.069 217.938 187.202 219.018 187.202 220.311V220.711C187.202 222.098 187.069 223.258 186.802 224.191C186.535 225.111 186.175 225.851 185.722 226.411C185.269 226.958 184.735 227.344 184.122 227.571C183.522 227.798 182.882 227.911 182.202 227.911ZM182.202 226.271C182.615 226.271 183.009 226.198 183.382 226.051C183.769 225.891 184.102 225.611 184.382 225.211C184.675 224.798 184.902 224.231 185.062 223.511C185.235 222.791 185.322 221.858 185.322 220.711V220.311C185.322 219.271 185.235 218.418 185.062 217.751C184.902 217.084 184.675 216.558 184.382 216.171C184.102 215.784 183.769 215.518 183.382 215.371C183.009 215.224 182.615 215.151 182.202 215.151C181.775 215.151 181.375 215.224 181.002 215.371C180.629 215.518 180.295 215.784 180.002 216.171C179.722 216.558 179.495 217.084 179.322 217.751C179.162 218.418 179.082 219.271 179.082 220.311V220.711C179.082 221.858 179.162 222.791 179.322 223.511C179.495 224.231 179.722 224.798 180.002 225.211C180.295 225.611 180.629 225.891 181.002 226.051C181.375 226.198 181.775 226.271 182.202 226.271ZM189.204 226.171L194.804 221.311C195.231 220.951 195.578 220.624 195.844 220.331C196.124 220.038 196.344 219.764 196.504 219.511C196.664 219.244 196.771 218.984 196.824 218.731C196.891 218.478 196.924 218.204 196.924 217.911C196.924 217.124 196.691 216.478 196.224 215.971C195.758 215.451 195.118 215.191 194.304 215.191C193.331 215.191 192.584 215.458 192.064 215.991C191.544 216.511 191.284 217.251 191.284 218.211H189.404C189.404 217.531 189.518 216.904 189.744 216.331C189.984 215.744 190.318 215.244 190.744 214.831C191.184 214.418 191.704 214.098 192.304 213.871C192.904 213.631 193.571 213.511 194.304 213.511C195.011 213.511 195.644 213.624 196.204 213.851C196.764 214.064 197.238 214.371 197.624 214.771C198.011 215.158 198.304 215.618 198.504 216.151C198.704 216.684 198.804 217.271 198.804 217.911C198.804 218.391 198.731 218.838 198.584 219.251C198.438 219.664 198.231 220.058 197.964 220.431C197.711 220.804 197.398 221.171 197.024 221.531C196.664 221.878 196.264 222.238 195.824 222.611L191.644 226.071H199.004V227.711H189.204V226.171ZM200.806 226.171L206.406 221.311C206.833 220.951 207.179 220.624 207.446 220.331C207.726 220.038 207.946 219.764 208.106 219.511C208.266 219.244 208.373 218.984 208.426 218.731C208.493 218.478 208.526 218.204 208.526 217.911C208.526 217.124 208.293 216.478 207.826 215.971C207.359 215.451 206.719 215.191 205.906 215.191C204.933 215.191 204.186 215.458 203.666 215.991C203.146 216.511 202.886 217.251 202.886 218.211H201.006C201.006 217.531 201.119 216.904 201.346 216.331C201.586 215.744 201.919 215.244 202.346 214.831C202.786 214.418 203.306 214.098 203.906 213.871C204.506 213.631 205.173 213.511 205.906 213.511C206.613 213.511 207.246 213.624 207.806 213.851C208.366 214.064 208.839 214.371 209.226 214.771C209.613 215.158 209.906 215.618 210.106 216.151C210.306 216.684 210.406 217.271 210.406 217.911C210.406 218.391 210.333 218.838 210.186 219.251C210.039 219.664 209.833 220.058 209.566 220.431C209.313 220.804 208.999 221.171 208.626 221.531C208.266 221.878 207.866 222.238 207.426 222.611L203.246 226.071H210.606V227.711H200.806V226.171Z" fill="white" fill-opacity="0.6"/>
<g clip-path="url(#clip0_1768_12337)">
<path fill-rule="evenodd" clip-rule="evenodd" d="M177.536 49.6758H102V96.0743H177.536V49.6758ZM123.901 73.7849L128.294 75.0898C127.999 76.3006 127.534 77.3119 126.9 78.1239C126.265 78.9358 125.476 79.5484 124.532 79.9616C123.595 80.375 122.4 80.5816 120.947 80.5816C119.184 80.5816 117.742 80.3314 116.62 79.8312C115.506 79.3236 114.544 78.4355 113.732 77.1669C112.921 75.8982 112.515 74.2743 112.515 72.2951C112.515 69.6561 113.227 67.6298 114.651 66.2161C116.082 64.7952 118.103 64.0847 120.714 64.0847C122.758 64.0847 124.362 64.4907 125.528 65.3026C126.7 66.1147 127.571 67.3616 128.139 69.0435L123.713 70.0113C123.646 69.802 123.578 69.6167 123.508 69.4559C123.417 69.2433 123.322 69.0735 123.226 68.9456C122.946 68.5686 122.603 68.2786 122.197 68.0757C121.791 67.8727 121.338 67.7712 120.836 67.7712C119.7 67.7712 118.83 68.2207 118.225 69.1197C117.767 69.7867 117.539 70.8342 117.539 72.2624C117.539 74.0313 117.812 75.2457 118.358 75.9054C118.903 76.5579 119.671 76.8841 120.659 76.8841C121.618 76.8841 122.341 76.6196 122.828 76.0903C123.322 75.5611 123.68 74.7925 123.901 73.7849ZM131.364 64.3565H137.958L140.503 74.0567L143.037 64.3565H149.609V80.2988H145.515V68.1409L142.34 80.2988H138.633L135.469 68.1409V80.2988H131.364V64.3565ZM157.393 74.731L152.624 75.0246C152.764 76.634 153.365 77.9608 154.428 79.0047C155.49 80.0487 157.4 80.5706 160.159 80.5706C161.73 80.5706 163.032 80.3495 164.065 79.9073C165.098 79.4578 165.902 78.8017 166.477 77.939C167.053 77.0763 167.34 76.1338 167.34 75.1115C167.34 74.2416 167.123 73.455 166.687 72.7518C166.26 72.0485 165.57 71.4614 164.618 70.9901C163.674 70.5116 162.106 70.0403 159.916 69.5764C159.031 69.3952 158.47 69.1994 158.234 68.9891C157.99 68.7862 157.869 68.5578 157.869 68.3041C157.869 67.9561 158.016 67.6625 158.311 67.4232C158.606 67.1767 159.045 67.0535 159.628 67.0535C160.336 67.0535 160.889 67.2166 161.288 67.5428C161.467 67.6874 161.619 67.87 161.744 68.0911C161.901 68.3697 162.015 68.7087 162.084 69.1087L166.809 68.8369C166.603 67.1839 165.953 65.9805 164.862 65.2266C163.777 64.4653 162.199 64.0847 160.126 64.0847C158.437 64.0847 157.105 64.2949 156.131 64.7154C155.165 65.1287 154.439 65.7013 153.952 66.4336C153.472 67.1586 153.233 67.9306 153.233 68.7499C153.233 69.9968 153.705 71.0227 154.649 71.8274C155.586 72.6321 157.153 73.2774 159.351 73.7632C160.694 74.0531 161.55 74.3612 161.918 74.6875C162.287 75.0137 162.472 75.3835 162.472 75.7967C162.472 76.2317 162.276 76.6159 161.885 76.9494C161.502 77.2756 160.952 77.4387 160.237 77.4387C159.278 77.4387 158.54 77.1162 158.024 76.4709C157.706 76.0722 157.496 75.4922 157.393 74.731Z" fill="white"/>
<path d="M186.136 63.2856H189.289V64.5498C189.743 64.0223 190.199 63.6472 190.658 63.4242C191.123 63.2013 191.682 63.0898 192.335 63.0898C193.038 63.0898 193.594 63.2121 194.003 63.4568C194.412 63.7015 194.747 64.0658 195.007 64.5498C195.538 63.9842 196.022 63.6009 196.459 63.3998C196.896 63.1931 197.436 63.0898 198.078 63.0898C199.024 63.0898 199.762 63.3671 200.293 63.9217C200.824 64.4709 201.09 65.3327 201.09 66.5071V71.9472H197.704V67.0128C197.704 66.6214 197.627 66.3305 197.472 66.1401C197.245 65.8411 196.963 65.6915 196.625 65.6915C196.227 65.6915 195.906 65.8329 195.663 66.1157C195.419 66.3984 195.298 66.8524 195.298 67.4778V71.9472H191.912V67.176C191.912 66.7953 191.889 66.5371 191.845 66.4011C191.773 66.1837 191.649 66.0097 191.472 65.8792C191.295 65.7432 191.087 65.6753 190.849 65.6753C190.462 65.6753 190.144 65.8194 189.895 66.1075C189.646 66.3957 189.522 66.8688 189.522 67.5267V71.9472H186.136V63.2856Z" fill="white"/>
<path d="M206.185 66.0912L202.957 65.7568C203.079 65.2023 203.253 64.7672 203.48 64.4519C203.712 64.131 204.044 63.8538 204.476 63.6199C204.785 63.4514 205.211 63.3209 205.754 63.2284C206.296 63.1361 206.882 63.0898 207.513 63.0898C208.525 63.0898 209.338 63.1469 209.952 63.2611C210.567 63.3698 211.079 63.6009 211.487 63.9544C211.775 64.1991 212.002 64.5471 212.168 64.9983C212.335 65.4441 212.417 65.871 212.417 66.2788V70.104C212.417 70.5118 212.442 70.8326 212.492 71.0664C212.547 71.2947 212.664 71.5883 212.841 71.9472H209.671C209.543 71.7243 209.461 71.5557 209.421 71.4415C209.383 71.3219 209.344 71.137 209.306 70.8869C208.863 71.3056 208.423 71.6046 207.986 71.7841C207.388 72.0234 206.694 72.143 205.903 72.143C204.852 72.143 204.052 71.9037 203.505 71.4253C202.962 70.9467 202.691 70.3568 202.691 69.6554C202.691 68.9975 202.888 68.4565 203.281 68.0324C203.673 67.6082 204.398 67.2929 205.455 67.0863C206.722 66.8361 207.543 66.6621 207.919 66.5642C208.296 66.4609 208.694 66.3278 209.114 66.1647C209.114 65.7568 209.028 65.4714 208.857 65.3083C208.685 65.1451 208.384 65.0636 207.953 65.0636C207.399 65.0636 206.985 65.1505 206.708 65.3246C206.492 65.4605 206.318 65.7161 206.185 66.0912ZM209.114 67.8366C208.649 67.9997 208.166 68.1438 207.662 68.2688C206.976 68.4483 206.542 68.625 206.359 68.799C206.171 68.9784 206.077 69.1823 206.077 69.4107C206.077 69.6717 206.168 69.8864 206.351 70.0551C206.539 70.2182 206.813 70.2997 207.173 70.2997C207.549 70.2997 207.897 70.21 208.218 70.0305C208.544 69.8512 208.775 69.6336 208.907 69.3781C209.045 69.1171 209.114 68.7799 209.114 68.3667V67.8366Z" fill="white"/>
<path d="M220.575 63.2856H223.737V71.4661L223.745 71.8493C223.745 72.3931 223.626 72.9096 223.389 73.399C223.156 73.8938 222.844 74.2935 222.451 74.5979C222.064 74.9024 221.569 75.1226 220.966 75.2586C220.368 75.3944 219.682 75.4625 218.907 75.4625C217.137 75.4625 215.919 75.2015 215.256 74.6794C214.597 74.1575 214.268 73.4588 214.268 72.5834C214.268 72.4747 214.274 72.3279 214.285 72.143L217.563 72.5099C217.646 72.809 217.773 73.0156 217.944 73.1299C218.194 73.2984 218.506 73.3827 218.883 73.3827C219.369 73.3827 219.732 73.2549 219.97 72.9993C220.213 72.7438 220.334 72.2979 220.334 71.6617V70.3486C220.003 70.7347 219.67 71.0147 219.339 71.1887C218.819 71.4605 218.257 71.5965 217.654 71.5965C216.476 71.5965 215.524 71.0908 214.799 70.0795C214.285 69.3618 214.027 68.4129 214.027 67.2331C214.027 65.8846 214.36 64.857 215.023 64.1501C215.687 63.4433 216.556 63.0898 217.629 63.0898C218.316 63.0898 218.879 63.204 219.322 63.4323C219.77 63.6607 220.187 64.0386 220.575 64.5661V63.2856ZM217.397 67.4859C217.397 68.1112 217.532 68.576 217.804 68.8805C218.075 69.1796 218.431 69.3291 218.874 69.3291C219.295 69.3291 219.646 69.1742 219.928 68.8642C220.215 68.5489 220.359 68.0758 220.359 67.4451C220.359 66.8143 220.21 66.3332 219.911 66.0015C219.612 65.6644 219.248 65.4958 218.816 65.4958C218.385 65.4958 218.039 65.6507 217.778 65.9608C217.524 66.2653 217.397 66.7736 217.397 67.4859Z" fill="white"/>
<path d="M228.857 66.0912L225.629 65.7568C225.751 65.2023 225.925 64.7672 226.152 64.4519C226.384 64.131 226.716 63.8538 227.148 63.6199C227.457 63.4514 227.884 63.3209 228.425 63.2284C228.968 63.1361 229.554 63.0898 230.185 63.0898C231.197 63.0898 232.011 63.1469 232.624 63.2611C233.239 63.3698 233.751 63.6009 234.16 63.9544C234.447 64.1991 234.675 64.5471 234.84 64.9983C235.006 65.4441 235.09 65.871 235.09 66.2788V70.104C235.09 70.5118 235.114 70.8326 235.164 71.0664C235.219 71.2947 235.335 71.5883 235.512 71.9472H232.342C232.216 71.7243 232.132 71.5557 232.094 71.4415C232.055 71.3219 232.016 71.137 231.978 70.8869C231.535 71.3056 231.094 71.6046 230.658 71.7841C230.06 72.0234 229.366 72.143 228.575 72.143C227.524 72.143 226.724 71.9037 226.177 71.4253C225.634 70.9467 225.363 70.3568 225.363 69.6554C225.363 68.9975 225.56 68.4565 225.953 68.0324C226.345 67.6082 227.071 67.2929 228.127 67.0863C229.394 66.8361 230.215 66.6621 230.591 66.5642C230.968 66.4609 231.366 66.3278 231.787 66.1647C231.787 65.7568 231.701 65.4714 231.529 65.3083C231.358 65.1451 231.056 65.0636 230.625 65.0636C230.071 65.0636 229.657 65.1505 229.38 65.3246C229.164 65.4605 228.99 65.7161 228.857 66.0912ZM231.787 67.8366C231.322 67.9997 230.838 68.1438 230.334 68.2688C229.648 68.4483 229.214 68.625 229.032 68.799C228.844 68.9784 228.749 69.1823 228.749 69.4107C228.749 69.6717 228.84 69.8864 229.023 70.0551C229.211 70.2182 229.485 70.2997 229.845 70.2997C230.221 70.2997 230.569 70.21 230.891 70.0305C231.217 69.8512 231.446 69.6336 231.579 69.3781C231.718 69.1171 231.787 68.7799 231.787 68.3667V67.8366Z" fill="white"/>
<path d="M236.733 63.2852H244.907V65.2262L240.459 69.6794H245.181V71.9468H236.401V69.7935L240.616 65.5524H236.733V63.2852Z" fill="white"/>
<path d="M246.698 59.9902H250.077V62.2495H246.698V59.9902ZM246.698 63.2853H250.077V71.9469H246.698V63.2853Z" fill="white"/>
<path d="M252.234 63.2856H255.379V64.6966C255.85 64.1202 256.325 63.7097 256.806 63.465C257.288 63.2149 257.874 63.0898 258.567 63.0898C259.501 63.0898 260.231 63.3644 260.757 63.9136C261.288 64.4573 261.553 65.3 261.553 66.4419V71.9472H258.16V67.1841C258.16 66.6404 258.057 66.257 257.852 66.0341C257.648 65.8057 257.36 65.6915 256.989 65.6915C256.58 65.6915 256.248 65.8438 255.993 66.1483C255.739 66.4528 255.612 66.9992 255.612 67.7877V71.9472H252.234V63.2856Z" fill="white"/>
<path d="M273.355 68.4402H266.583C266.644 68.973 266.79 69.3699 267.023 69.6309C267.35 70.0061 267.776 70.1936 268.301 70.1936C268.632 70.1936 268.949 70.1121 269.247 69.949C269.43 69.8456 269.626 69.6635 269.836 69.4026L273.164 69.7043C272.655 70.5743 272.041 71.1995 271.322 71.5802C270.603 71.9553 269.571 72.143 268.227 72.143C267.059 72.143 266.14 71.9826 265.472 71.6617C264.802 71.3355 264.245 70.8217 263.804 70.1203C263.366 69.4134 263.147 68.5842 263.147 67.6327C263.147 66.2788 263.587 65.1832 264.467 64.3459C265.353 63.5085 266.572 63.0898 268.127 63.0898C269.388 63.0898 270.384 63.2774 271.115 63.6526C271.844 64.0277 272.4 64.5715 272.783 65.2838C273.164 65.996 273.355 66.9232 273.355 68.0649V68.4402ZM269.919 66.8497C269.852 66.2081 269.676 65.7486 269.388 65.4714C269.106 65.194 268.732 65.0554 268.268 65.0554C267.731 65.0554 267.302 65.2648 266.981 65.6834C266.776 65.9444 266.647 66.3332 266.592 66.8497H269.919Z" fill="white"/>
<g opacity="0.9">
<path d="M186.515 86.7944V81.5166H188.396C189.047 81.5166 189.542 81.6398 189.878 81.8863C190.215 82.1304 190.384 82.4892 190.384 82.9629C190.384 83.2214 190.316 83.4499 190.181 83.648C190.046 83.8438 189.857 83.9876 189.616 84.0794C189.892 84.147 190.108 84.2836 190.266 84.489C190.425 84.6944 190.505 84.9457 190.505 85.243C190.505 85.7504 190.341 86.1346 190.011 86.3957C189.682 86.6567 189.212 86.7896 188.602 86.7944H186.515ZM187.621 84.4963V85.9208H188.569C188.83 85.9208 189.033 85.8604 189.178 85.7396C189.325 85.6163 189.399 85.4472 189.399 85.2321C189.399 84.7488 189.144 84.5035 188.635 84.4963H187.621ZM187.621 83.7277H188.44C188.998 83.718 189.277 83.4994 189.277 83.0716C189.277 82.8324 189.206 82.6608 189.063 82.5569C188.923 82.4506 188.701 82.3974 188.396 82.3974H187.621V83.7277Z" fill="white"/>
<path d="M197.216 85.0366C197.174 85.6045 196.96 86.0515 196.574 86.3778C196.191 86.704 195.684 86.8672 195.055 86.8672C194.366 86.8672 193.824 86.64 193.428 86.1857C193.035 85.729 192.838 85.1031 192.838 84.308V83.9854C192.838 83.4779 192.929 83.0308 193.111 82.6441C193.293 82.2575 193.552 81.9615 193.889 81.756C194.228 81.5483 194.622 81.4443 195.069 81.4443C195.689 81.4443 196.188 81.6074 196.567 81.9337C196.945 82.2599 197.164 82.7179 197.223 83.3075H196.117C196.09 82.9668 195.993 82.7203 195.825 82.5681C195.661 82.4134 195.409 82.3361 195.069 82.3361C194.7 82.3361 194.424 82.4665 194.239 82.7275C194.057 82.9861 193.964 83.3884 193.959 83.9346V84.3333C193.959 84.9037 194.046 85.3205 194.221 85.5839C194.398 85.8474 194.676 85.9791 195.055 85.9791C195.396 85.9791 195.651 85.9029 195.818 85.7507C195.988 85.596 196.085 85.358 196.109 85.0366H197.216Z" fill="white"/>
<path d="M202.835 84.5071H200.711V85.9208H203.204V86.7944H199.604V81.5166H203.197V82.3974H200.711V83.6552H202.835V84.5071Z" fill="white"/>
<path d="M213.469 84.2754C213.469 84.7949 213.376 85.2504 213.189 85.6419C213.002 86.0334 212.735 86.3355 212.385 86.5482C212.038 86.7609 211.64 86.8672 211.19 86.8672C210.745 86.8672 210.348 86.762 209.999 86.5517C209.65 86.3416 209.38 86.0419 209.187 85.6528C208.996 85.2613 208.899 84.8118 208.896 84.3044V84.0433C208.896 83.5238 208.991 83.067 209.18 82.6731C209.372 82.2768 209.641 81.9736 209.988 81.7633C210.337 81.5507 210.735 81.4443 211.182 81.4443C211.63 81.4443 212.028 81.5507 212.375 81.7633C212.723 81.9736 212.993 82.2768 213.182 82.6731C213.374 83.067 213.469 83.5226 213.469 84.0398V84.2754ZM212.348 84.0361C212.348 83.4827 212.247 83.0622 212.046 82.7747C211.844 82.4871 211.557 82.3433 211.182 82.3433C210.812 82.3433 210.525 82.4858 210.323 82.771C210.122 83.0538 210.02 83.4694 210.018 84.018V84.2754C210.018 84.8143 210.119 85.2324 210.32 85.5296C210.522 85.8268 210.812 85.9754 211.19 85.9754C211.561 85.9754 211.847 85.8329 212.046 85.5477C212.245 85.2601 212.346 84.842 212.348 84.2935V84.0361Z" fill="white"/>
<path d="M219.479 86.7944V81.5166H221.131C221.603 81.5166 222.025 81.6217 222.395 81.8319C222.769 82.0398 223.061 82.337 223.27 82.7237C223.479 83.1079 223.583 83.5453 223.583 84.0359V84.2787C223.583 84.7693 223.48 85.2055 223.273 85.5873C223.069 85.9691 222.78 86.2652 222.407 86.4754C222.033 86.6857 221.612 86.792 221.141 86.7944H219.479ZM220.585 82.3974V85.9208H221.119C221.552 85.9208 221.883 85.7818 222.112 85.5039C222.34 85.2261 222.457 84.8285 222.462 84.3114V84.0322C222.462 83.4958 222.348 83.0898 222.122 82.8143C221.896 82.5364 221.566 82.3974 221.131 82.3974H220.585Z" fill="white"/>
<path d="M227.229 86.7944H226.123V81.5166H227.229V86.7944Z" fill="white"/>
<path d="M234.169 86.1277C233.97 86.362 233.689 86.5445 233.325 86.675C232.961 86.8031 232.557 86.8672 232.114 86.8672C231.65 86.8672 231.242 86.7681 230.89 86.5699C230.541 86.3693 230.27 86.0794 230.079 85.7C229.89 85.3205 229.792 84.8747 229.787 84.3623V84.0035C229.787 83.4767 229.877 83.0211 230.057 82.6369C230.238 82.2502 230.5 81.9554 230.838 81.7525C231.18 81.547 231.58 81.4443 232.037 81.4443C232.674 81.4443 233.172 81.5942 233.531 81.8938C233.89 82.191 234.103 82.6248 234.169 83.1952H233.092C233.043 82.8931 232.934 82.672 232.764 82.5317C232.596 82.3916 232.366 82.3216 232.071 82.3216C231.694 82.3216 231.408 82.4605 231.211 82.7385C231.014 83.0163 230.915 83.4296 230.913 83.9781V84.3153C230.913 84.8686 231.02 85.2867 231.233 85.5694C231.448 85.8522 231.761 85.9936 232.174 85.9936C232.589 85.9936 232.885 85.9066 233.063 85.7325V84.8227H232.056V84.0216H234.169V86.1277Z" fill="white"/>
<path d="M237.907 86.7944H236.801V81.5166H237.907V86.7944Z" fill="white"/>
<path d="M244.53 82.3974H242.884V86.7944H241.778V82.3974H240.155V81.5166H244.53V82.3974Z" fill="white"/>
<path d="M249.415 85.7069H247.476L247.106 86.7944H245.93L247.929 81.5166H248.955L250.964 86.7944H249.788L249.415 85.7069ZM247.774 84.8261H249.117L248.442 82.8505L247.774 84.8261Z" fill="white"/>
<path d="M254.234 85.9208H256.584V86.7944H253.128V81.5166H254.234V85.9208Z" fill="white"/>
</g>
</g>
<path d="M22.0317 118.049C21.7812 120.323 21.6079 122.599 21.5117 124.873C21.5236 122.409 21.3558 118.435 17.8211 116.206C18.2292 116.999 18.4455 118.312 18.682 119.749C19.1129 122.365 19.6108 125.389 21.4584 126.414C21.4001 128.58 21.412 130.743 21.4941 132.9C21.0028 129.975 19.7793 126.526 16.1357 124.675C16.7408 125.636 17.1641 127.287 17.6269 129.092C18.454 132.319 19.4075 136.039 21.751 137.19C21.9435 139.544 22.2205 141.887 22.5823 144.215C21.5042 140.779 19.4724 136.277 14.3408 134.79C15.2278 135.742 16.0581 137.51 16.966 139.444C18.5567 142.831 20.3855 146.726 23.1749 147.626C23.7033 150.373 24.3514 153.097 25.1194 155.788C23.5092 152.285 20.7608 147.965 15.2471 147.037C16.3192 147.95 17.4319 149.747 18.6486 151.713C20.7798 155.155 23.23 159.114 26.3397 159.735C27.5689 163.423 29.0292 167.042 30.7212 170.572C28.1549 166.269 23.8085 160.113 15.8691 159.905C17.3805 160.863 19.1004 162.927 20.9811 165.183C24.3632 169.24 28.2651 173.922 32.4083 173.917C33.3817 175.753 34.4199 177.563 35.5232 179.342C36.3063 180.606 37.1175 181.85 37.956 183.074C34.0778 178.978 28.4076 174.656 20.5791 175.737C22.5267 176.563 24.9303 178.64 27.5586 180.911C32.1994 184.921 37.5407 189.537 42.3081 188.943C45.4974 192.924 48.9929 196.649 52.7591 200.082C50.9757 199.222 48.9553 197.992 46.8174 196.69C40.6846 192.956 33.5854 188.634 28.3466 190.77C28.9804 191.231 29.7659 191.917 30.6929 192.726C35.3811 196.819 43.6893 204.073 54.2997 201.457C58.2773 204.933 62.5403 208.09 67.0489 210.889C65.1851 210.336 63.005 209.471 60.6747 208.546C53.5728 205.729 45.0766 202.358 39.8909 205.579C40.6195 205.941 41.5425 206.505 42.6318 207.172C48.1967 210.576 58.1027 216.635 68.6187 211.843C71.3378 213.461 74.1423 214.95 77.0241 216.302C69.9954 215.222 61.0487 215.362 55.4968 218.799C57.3415 219.285 59.1609 219.848 60.9553 220.403C69.2196 222.959 76.9508 225.35 84.1517 219.304C87.7633 220.659 91.4767 221.804 95.2774 222.727L95.694 221.011C92.0527 220.127 88.4929 219.034 85.0279 217.746C85.4569 212.688 80.4997 205.677 76.8097 200.457C74.878 197.725 73.2936 195.484 73.0107 194.271C69.8655 203.081 74.5747 210.777 81.4651 216.34C77.4266 214.65 73.5286 212.692 69.7936 210.486C71.6597 205.323 68.155 198.081 65.1025 191.773C63.342 188.135 61.732 184.808 61.3896 182.37C56.6663 193.569 63.689 203.374 67.5886 208.818C67.7332 209.02 67.8734 209.216 68.0086 209.406C63.6913 206.728 59.6031 203.715 55.7801 200.404C58.2967 195.691 55.7683 188.266 53.5691 181.808C52.3132 178.12 51.1647 174.748 51.1242 172.375C45.2868 182.533 50.8507 192.74 53.9403 198.408C54.0746 198.654 54.2042 198.892 54.3279 199.121C50.5936 195.753 47.1263 192.094 43.9615 188.181C46.172 183.868 44.2007 177.077 42.4795 171.147C41.4665 167.658 40.5401 164.466 40.6035 162.254C35.4732 170.305 38.45 178.763 41.0427 184.381C39.6309 182.445 38.2902 180.454 37.0242 178.412C35.8876 176.579 34.8125 174.71 33.8003 172.812C36.1687 169.785 35.9018 164.219 35.6681 159.346C35.5273 156.411 35.3987 153.728 35.8643 152C30.3869 157.3 31.0513 164.397 32.0152 169.296C30.4373 166.029 29.0418 162.681 27.8362 159.271C30.152 157.096 30.4887 152.479 30.7829 148.444C30.9571 146.055 31.1165 143.87 31.6631 142.517C26.6062 146.347 26.5447 152.32 26.8674 156.39C25.8982 153.352 25.0785 150.269 24.4137 147.155C26.789 145.501 27.5879 141.345 28.2848 137.72C28.6916 135.603 29.0636 133.668 29.6942 132.517C24.6023 135.507 24.0484 141.111 23.9386 144.784C23.4567 142.211 23.0805 139.619 22.8128 137.015C24.9628 135.639 25.7284 131.978 26.3954 128.789C26.7804 126.948 27.1326 125.264 27.6992 124.268C23.6062 126.584 22.7788 130.851 22.5529 134.014C22.3726 131.456 22.2977 128.888 22.3309 126.319C24.2453 125.391 25.1748 122.41 25.9833 119.816C26.4453 118.334 26.8678 116.979 27.4121 116.206C23.8101 117.809 22.8175 121.334 22.393 123.927C22.47 121.958 22.611 119.989 22.8171 118.023C25.2851 115.219 24.9821 111.038 24.7088 107.269C24.6264 106.131 24.5466 105.03 24.5466 104.017C24.2542 104.862 23.8905 105.754 23.5141 106.678C22.0331 110.314 20.354 114.437 22.0317 118.049Z" fill="#DBFF00"/>
<path d="M353.967 118.048C354.218 120.322 354.391 122.599 354.487 124.873C354.475 122.409 354.643 118.435 358.178 116.206C357.77 116.999 357.553 118.312 357.317 119.749C356.886 122.365 356.388 125.389 354.541 126.414C354.599 128.581 354.587 130.746 354.505 132.904C354.996 129.977 356.219 126.527 359.864 124.675C359.259 125.636 358.835 127.287 358.373 129.092C357.545 132.319 356.592 136.039 354.248 137.19C354.056 139.544 353.778 141.887 353.417 144.215C354.495 140.779 356.527 136.277 361.658 134.79C360.771 135.742 359.941 137.51 359.033 139.444C357.442 142.831 355.614 146.726 352.824 147.626C352.296 150.373 351.648 153.096 350.88 155.788C352.49 152.284 355.238 147.965 360.752 147.037C359.68 147.95 358.567 149.747 357.35 151.713C355.219 155.155 352.769 159.114 349.659 159.735C348.43 163.425 346.968 167.045 345.275 170.577C347.841 166.274 352.188 160.113 360.13 159.905C358.619 160.863 356.899 162.927 355.018 165.183C351.636 169.241 347.734 173.922 343.591 173.917C342.617 175.753 341.579 177.563 340.476 179.342C339.692 180.606 338.881 181.85 338.042 183.075C341.92 178.979 347.591 174.655 355.42 175.737C353.473 176.563 351.069 178.64 348.441 180.911C343.8 184.921 338.458 189.537 333.691 188.943C330.502 192.924 327.006 196.649 323.24 200.082C325.023 199.222 327.044 197.992 329.182 196.69C335.315 192.956 342.414 188.634 347.652 190.77C347.019 191.231 346.233 191.917 345.306 192.727C340.618 196.82 332.31 204.073 321.699 201.457C317.722 204.932 313.459 208.089 308.95 210.888C310.814 210.336 312.994 209.471 315.324 208.546C322.426 205.729 330.922 202.358 336.108 205.579C335.379 205.941 334.456 206.505 333.367 207.172C327.802 210.575 317.896 216.635 307.38 211.843C304.661 213.461 301.857 214.95 298.975 216.302C306.004 215.221 314.95 215.362 320.502 218.799C318.658 219.285 316.84 219.847 315.046 220.402L315.045 220.402L315.044 220.403C306.78 222.959 299.048 225.35 291.847 219.304C288.236 220.658 284.522 221.804 280.722 222.727L280.305 221.011C283.946 220.127 287.506 219.034 290.971 217.746C290.543 212.688 295.5 205.677 299.19 200.457C301.121 197.725 302.706 195.484 302.989 194.271C306.134 203.081 301.425 210.776 294.535 216.34C298.573 214.65 302.47 212.692 306.205 210.486C304.339 205.323 307.844 198.081 310.896 191.773C312.657 188.135 314.267 184.808 314.609 182.37C319.332 193.569 312.31 203.374 308.41 208.818C308.265 209.02 308.125 209.216 307.99 209.406C312.307 206.728 316.396 203.715 320.219 200.404C317.702 195.691 320.231 188.266 322.43 181.808C323.686 178.12 324.834 174.748 324.875 172.375C330.712 182.533 325.148 192.74 322.059 198.408C321.924 198.654 321.795 198.892 321.671 199.121C325.405 195.753 328.873 192.094 332.038 188.18C329.827 183.868 331.799 177.077 333.52 171.147C334.533 167.658 335.459 164.466 335.396 162.254C340.526 170.304 337.55 178.762 334.957 184.38C336.369 182.444 337.709 180.454 338.975 178.412C340.111 176.578 341.187 174.71 342.199 172.811C339.831 169.784 340.098 164.219 340.331 159.345C340.472 156.411 340.601 153.728 340.135 152C345.612 157.299 344.948 164.395 343.985 169.294C345.562 166.028 346.957 162.681 348.163 159.271C345.847 157.096 345.511 152.479 345.216 148.444C345.042 146.055 344.883 143.87 344.336 142.517C349.393 146.346 349.455 152.319 349.132 156.389C350.101 153.351 350.921 150.269 351.585 147.155C349.21 145.501 348.411 141.345 347.714 137.72C347.307 135.603 346.935 133.668 346.305 132.517C351.397 135.507 351.951 141.111 352.06 144.784C352.542 142.211 352.919 139.619 353.186 137.015C351.037 135.639 350.271 131.978 349.604 128.789C349.219 126.948 348.867 125.264 348.3 124.268C352.392 126.583 353.22 130.848 353.446 134.011C353.626 131.454 353.701 128.887 353.668 126.319C351.753 125.391 350.824 122.41 350.015 119.816C349.553 118.334 349.131 116.979 348.586 116.206C352.19 117.81 353.182 121.337 353.606 123.931C353.529 121.961 353.388 119.991 353.182 118.024C350.714 115.22 351.017 111.038 351.29 107.269C351.372 106.131 351.452 105.03 351.452 104.017C351.744 104.862 352.108 105.754 352.485 106.678C353.965 110.314 355.644 114.437 353.967 118.048Z" fill="#DBFF00"/>
<path d="M67.2563 265.939H76.0563V276.539H74.2963V267.499H69.0163V276.539H67.2563V265.939ZM83.6484 276.739C82.9684 276.739 82.3218 276.632 81.7084 276.419C81.0951 276.192 80.5551 275.859 80.0884 275.419C79.6218 274.966 79.2484 274.399 78.9684 273.719C78.6884 273.039 78.5484 272.246 78.5484 271.339V270.939C78.5484 270.086 78.6884 269.332 78.9684 268.679C79.2484 268.026 79.6218 267.486 80.0884 267.059C80.5551 266.619 81.0951 266.292 81.7084 266.079C82.3218 265.852 82.9684 265.739 83.6484 265.739C84.3284 265.739 84.9751 265.852 85.5884 266.079C86.2018 266.292 86.7418 266.619 87.2084 267.059C87.6751 267.486 88.0484 268.026 88.3284 268.679C88.6084 269.332 88.7484 270.086 88.7484 270.939V271.339C88.7484 272.246 88.6084 273.039 88.3284 273.719C88.0484 274.399 87.6751 274.966 87.2084 275.419C86.7418 275.859 86.2018 276.192 85.5884 276.419C84.9751 276.632 84.3284 276.739 83.6484 276.739ZM83.6484 275.139C84.0484 275.139 84.4484 275.072 84.8484 274.939C85.2484 274.792 85.6018 274.572 85.9084 274.279C86.2151 273.972 86.4618 273.579 86.6484 273.099C86.8484 272.619 86.9484 272.032 86.9484 271.339V270.939C86.9484 270.299 86.8484 269.752 86.6484 269.299C86.4618 268.846 86.2151 268.472 85.9084 268.179C85.6018 267.886 85.2484 267.672 84.8484 267.539C84.4484 267.406 84.0484 267.339 83.6484 267.339C83.2484 267.339 82.8484 267.406 82.4484 267.539C82.0484 267.672 81.6951 267.886 81.3884 268.179C81.0818 268.472 80.8284 268.846 80.6284 269.299C80.4418 269.752 80.3484 270.299 80.3484 270.939V271.339C80.3484 272.032 80.4418 272.619 80.6284 273.099C80.8284 273.579 81.0818 273.972 81.3884 274.279C81.6951 274.572 82.0484 274.792 82.4484 274.939C82.8484 275.072 83.2484 275.139 83.6484 275.139ZM96.2406 265.939H100.841C102.147 265.939 103.107 266.212 103.721 266.759C104.334 267.292 104.641 267.986 104.641 268.839C104.641 269.066 104.601 269.299 104.521 269.539C104.441 269.766 104.327 269.979 104.181 270.179C104.047 270.379 103.881 270.552 103.681 270.699C103.494 270.846 103.281 270.959 103.041 271.039C103.694 271.199 104.187 271.506 104.521 271.959C104.867 272.399 105.041 272.919 105.041 273.519C105.041 274.439 104.734 275.172 104.121 275.719C103.507 276.266 102.547 276.539 101.241 276.539H96.2406V265.939ZM101.241 274.979C101.987 274.979 102.514 274.846 102.821 274.579C103.127 274.312 103.281 273.932 103.281 273.439C103.281 272.932 103.127 272.546 102.821 272.279C102.514 271.999 101.987 271.859 101.241 271.859H98.0006V274.979H101.241ZM100.841 270.419C101.601 270.419 102.127 270.286 102.421 270.019C102.727 269.752 102.881 269.386 102.881 268.919C102.881 268.479 102.727 268.132 102.421 267.879C102.127 267.626 101.601 267.499 100.841 267.499H98.0006V270.419H100.841ZM111.949 276.739C111.269 276.739 110.623 276.632 110.009 276.419C109.396 276.206 108.856 275.879 108.389 275.439C107.923 274.986 107.549 274.419 107.269 273.739C106.989 273.059 106.849 272.259 106.849 271.339V270.939C106.849 270.059 106.983 269.299 107.249 268.659C107.516 268.006 107.869 267.466 108.309 267.039C108.763 266.599 109.283 266.272 109.869 266.059C110.469 265.846 111.096 265.739 111.749 265.739C113.309 265.739 114.516 266.166 115.369 267.019C116.223 267.872 116.649 269.079 116.649 270.639V271.759H108.609C108.609 272.386 108.709 272.912 108.909 273.339C109.109 273.766 109.369 274.112 109.689 274.379C110.009 274.646 110.363 274.839 110.749 274.959C111.149 275.079 111.549 275.139 111.949 275.139C112.749 275.139 113.363 275.006 113.789 274.739C114.229 274.472 114.543 274.106 114.729 273.639H116.449C116.343 274.146 116.149 274.592 115.869 274.979C115.603 275.366 115.269 275.692 114.869 275.959C114.483 276.212 114.036 276.406 113.529 276.539C113.036 276.672 112.509 276.739 111.949 276.739ZM111.849 267.339C111.436 267.339 111.036 267.399 110.649 267.519C110.263 267.626 109.916 267.806 109.609 268.059C109.316 268.299 109.076 268.606 108.889 268.979C108.703 269.352 108.609 269.799 108.609 270.319H114.989C114.976 269.772 114.883 269.312 114.709 268.939C114.549 268.552 114.329 268.246 114.049 268.019C113.769 267.779 113.436 267.606 113.049 267.499C112.676 267.392 112.276 267.339 111.849 267.339ZM119.151 265.939H120.791V267.939C121.151 267.232 121.651 266.692 122.291 266.319C122.944 265.932 123.697 265.739 124.551 265.739C125.884 265.739 126.951 266.179 127.751 267.059C128.551 267.926 128.951 269.219 128.951 270.939V271.339C128.951 272.246 128.844 273.039 128.631 273.719C128.417 274.386 128.117 274.946 127.731 275.399C127.344 275.839 126.877 276.172 126.331 276.399C125.797 276.626 125.204 276.739 124.551 276.739C123.644 276.739 122.884 276.539 122.271 276.139C121.671 275.739 121.217 275.239 120.911 274.639V280.539H119.151V265.939ZM124.151 275.179C124.577 275.179 124.977 275.099 125.351 274.939C125.724 274.766 126.044 274.519 126.311 274.199C126.591 273.879 126.804 273.479 126.951 272.999C127.111 272.519 127.191 271.966 127.191 271.339V270.939C127.191 270.366 127.111 269.852 126.951 269.399C126.804 268.946 126.591 268.566 126.311 268.259C126.044 267.939 125.724 267.699 125.351 267.539C124.977 267.379 124.577 267.299 124.151 267.299C123.671 267.299 123.231 267.379 122.831 267.539C122.431 267.686 122.091 267.899 121.811 268.179C121.531 268.446 121.311 268.766 121.151 269.139C120.991 269.512 120.911 269.912 120.911 270.339V271.939C120.911 272.419 120.991 272.859 121.151 273.259C121.311 273.659 121.531 273.999 121.811 274.279C122.091 274.559 122.431 274.779 122.831 274.939C123.231 275.099 123.671 275.179 124.151 275.179ZM135.555 276.739C134.875 276.739 134.242 276.632 133.655 276.419C133.069 276.192 132.562 275.859 132.135 275.419C131.709 274.966 131.369 274.399 131.115 273.719C130.875 273.039 130.755 272.246 130.755 271.339V270.939C130.755 270.086 130.889 269.332 131.155 268.679C131.422 268.026 131.775 267.486 132.215 267.059C132.655 266.619 133.162 266.292 133.735 266.079C134.322 265.852 134.929 265.739 135.555 265.739C136.182 265.739 136.742 265.826 137.235 265.999C137.742 266.172 138.175 266.412 138.535 266.719C138.909 267.026 139.209 267.386 139.435 267.799C139.675 268.212 139.849 268.659 139.955 269.139H138.155C138.049 268.886 137.922 268.652 137.775 268.439C137.642 268.212 137.469 268.019 137.255 267.859C137.055 267.699 136.815 267.572 136.535 267.479C136.255 267.386 135.929 267.339 135.555 267.339C135.169 267.339 134.795 267.412 134.435 267.559C134.075 267.692 133.755 267.906 133.475 268.199C133.195 268.479 132.969 268.846 132.795 269.299C132.635 269.752 132.555 270.299 132.555 270.939V271.339C132.555 272.019 132.635 272.606 132.795 273.099C132.969 273.579 133.195 273.972 133.475 274.279C133.755 274.572 134.075 274.792 134.435 274.939C134.795 275.072 135.169 275.139 135.555 275.139C136.209 275.139 136.755 274.979 137.195 274.659C137.649 274.339 137.969 273.899 138.155 273.339H139.955C139.702 274.392 139.182 275.226 138.395 275.839C137.609 276.439 136.662 276.739 135.555 276.739ZM142.354 265.939H144.114V273.939L149.594 265.939H151.354V276.539H149.594V268.539L144.114 276.539H142.354V265.939ZM154.561 265.939H156.321V273.939L161.801 265.939H163.561V276.539H161.801V268.539L156.321 276.539H154.561V265.939ZM177.268 276.739C176.481 276.739 175.735 276.606 175.028 276.339C174.321 276.059 173.695 275.632 173.148 275.059C172.601 274.472 172.168 273.732 171.848 272.839C171.528 271.946 171.368 270.879 171.368 269.639V269.239C171.368 268.039 171.528 267.006 171.848 266.139C172.168 265.272 172.601 264.559 173.148 263.999C173.695 263.439 174.321 263.026 175.028 262.759C175.735 262.479 176.481 262.339 177.268 262.339C178.028 262.339 178.721 262.439 179.348 262.639C179.988 262.839 180.548 263.126 181.028 263.499C181.508 263.872 181.895 264.332 182.188 264.879C182.495 265.426 182.688 266.046 182.768 266.739H180.768C180.581 265.832 180.188 265.152 179.588 264.699C178.988 264.246 178.215 264.019 177.268 264.019C176.775 264.019 176.295 264.112 175.828 264.299C175.361 264.486 174.941 264.786 174.568 265.199C174.208 265.599 173.915 266.132 173.688 266.799C173.475 267.466 173.368 268.279 173.368 269.239V269.639C173.368 270.652 173.488 271.506 173.728 272.199C173.968 272.879 174.275 273.432 174.648 273.859C175.021 274.286 175.441 274.592 175.908 274.779C176.375 274.966 176.828 275.059 177.268 275.059C178.308 275.059 179.121 274.806 179.708 274.299C180.295 273.792 180.648 273.139 180.768 272.339H182.768C182.661 273.112 182.448 273.779 182.128 274.339C181.808 274.886 181.401 275.339 180.908 275.699C180.428 276.059 179.875 276.326 179.248 276.499C178.635 276.659 177.975 276.739 177.268 276.739ZM185.762 262.539H187.722L192.402 271.439L197.082 262.539H198.962V276.539H197.082V265.939L193.062 273.539H191.662L187.642 265.939V276.539H185.762V262.539ZM207.369 276.739C206.529 276.739 205.795 276.639 205.169 276.439C204.542 276.239 204.015 275.966 203.589 275.619C203.162 275.259 202.822 274.846 202.569 274.379C202.329 273.899 202.162 273.386 202.069 272.839H203.949C204.015 273.146 204.129 273.439 204.289 273.719C204.449 273.986 204.662 274.219 204.929 274.419C205.209 274.619 205.549 274.779 205.949 274.899C206.349 275.006 206.822 275.059 207.369 275.059C208.489 275.059 209.335 274.846 209.909 274.419C210.495 273.992 210.789 273.466 210.789 272.839C210.789 272.452 210.722 272.126 210.589 271.859C210.469 271.592 210.255 271.359 209.949 271.159C209.655 270.959 209.262 270.779 208.769 270.619C208.289 270.459 207.695 270.299 206.989 270.139C206.202 269.966 205.522 269.779 204.949 269.579C204.389 269.366 203.922 269.106 203.549 268.799C203.189 268.479 202.915 268.099 202.729 267.659C202.555 267.219 202.469 266.679 202.469 266.039C202.469 265.519 202.582 265.039 202.809 264.599C203.035 264.146 203.355 263.752 203.769 263.419C204.195 263.086 204.709 262.826 205.309 262.639C205.922 262.439 206.609 262.339 207.369 262.339C208.115 262.339 208.769 262.439 209.329 262.639C209.889 262.826 210.362 263.086 210.749 263.419C211.149 263.752 211.462 264.146 211.689 264.599C211.915 265.039 212.075 265.519 212.169 266.039H210.289C210.222 265.759 210.122 265.499 209.989 265.259C209.855 265.006 209.669 264.792 209.429 264.619C209.202 264.432 208.915 264.286 208.569 264.179C208.235 264.072 207.835 264.019 207.369 264.019C206.409 264.019 205.662 264.219 205.129 264.619C204.609 265.006 204.349 265.479 204.349 266.039C204.349 266.399 204.415 266.712 204.549 266.979C204.682 267.232 204.889 267.459 205.169 267.659C205.449 267.846 205.802 268.012 206.229 268.159C206.669 268.292 207.189 268.426 207.789 268.559C208.655 268.746 209.395 268.959 210.009 269.199C210.635 269.426 211.142 269.706 211.529 270.039C211.929 270.372 212.215 270.766 212.389 271.219C212.575 271.672 212.669 272.212 212.669 272.839C212.669 273.386 212.549 273.899 212.309 274.379C212.069 274.846 211.722 275.259 211.269 275.619C210.815 275.966 210.262 276.239 209.609 276.439C208.955 276.639 208.209 276.739 207.369 276.739ZM220.762 262.539H222.722L227.402 271.439L232.082 262.539H233.962V276.539H232.082V265.939L228.062 273.539H226.662L222.642 265.939V276.539H220.762V262.539ZM240.589 276.739C240.002 276.739 239.482 276.659 239.029 276.499C238.589 276.326 238.215 276.092 237.909 275.799C237.602 275.506 237.369 275.159 237.209 274.759C237.049 274.359 236.969 273.919 236.969 273.439C236.969 272.386 237.275 271.626 237.889 271.159C238.515 270.692 239.409 270.459 240.569 270.459H244.009V269.739C244.009 268.832 243.802 268.206 243.389 267.859C242.989 267.512 242.382 267.339 241.569 267.339C240.809 267.339 240.255 267.486 239.909 267.779C239.562 268.059 239.369 268.379 239.329 268.739H237.569C237.595 268.312 237.709 267.919 237.909 267.559C238.122 267.186 238.402 266.866 238.749 266.599C239.109 266.332 239.535 266.126 240.029 265.979C240.522 265.819 241.069 265.739 241.669 265.739C242.922 265.739 243.915 266.039 244.649 266.639C245.395 267.226 245.769 268.192 245.769 269.539V273.839C245.769 274.399 245.769 274.892 245.769 275.319C245.782 275.732 245.815 276.139 245.869 276.539H244.329C244.289 276.232 244.262 275.946 244.249 275.679C244.235 275.399 244.229 275.086 244.229 274.739C243.949 275.299 243.495 275.772 242.869 276.159C242.242 276.546 241.482 276.739 240.589 276.739ZM240.969 275.139C241.382 275.139 241.769 275.086 242.129 274.979C242.502 274.859 242.829 274.692 243.109 274.479C243.389 274.252 243.609 273.979 243.769 273.659C243.929 273.339 244.009 272.966 244.009 272.539V271.819H240.869C240.215 271.819 239.702 271.952 239.329 272.219C238.955 272.472 238.769 272.879 238.769 273.439C238.769 273.932 238.942 274.339 239.289 274.659C239.649 274.979 240.209 275.139 240.969 275.139ZM253.077 280.739C252.304 280.739 251.644 280.659 251.097 280.499C250.551 280.352 250.097 280.146 249.737 279.879C249.391 279.612 249.124 279.292 248.937 278.919C248.751 278.559 248.631 278.166 248.577 277.739H250.417C250.484 277.952 250.577 278.146 250.697 278.319C250.817 278.492 250.977 278.639 251.177 278.759C251.377 278.879 251.631 278.972 251.937 279.039C252.257 279.106 252.637 279.139 253.077 279.139C254.157 279.139 254.951 278.879 255.457 278.359C255.964 277.839 256.217 277.099 256.217 276.139V274.439C255.911 275.146 255.437 275.672 254.797 276.019C254.171 276.366 253.431 276.539 252.577 276.539C251.924 276.539 251.324 276.426 250.777 276.199C250.244 275.972 249.784 275.639 249.397 275.199C249.011 274.759 248.711 274.212 248.497 273.559C248.284 272.892 248.177 272.119 248.177 271.239V270.839C248.177 270.026 248.284 269.306 248.497 268.679C248.724 268.039 249.031 267.506 249.417 267.079C249.804 266.639 250.264 266.306 250.797 266.079C251.344 265.852 251.937 265.739 252.577 265.739C253.484 265.739 254.271 265.946 254.937 266.359C255.604 266.759 256.071 267.286 256.337 267.939V265.939H257.977V276.139C257.977 277.579 257.557 278.706 256.717 279.519C255.877 280.332 254.664 280.739 253.077 280.739ZM252.977 274.979C253.457 274.979 253.897 274.906 254.297 274.759C254.697 274.599 255.037 274.379 255.317 274.099C255.597 273.819 255.817 273.486 255.977 273.099C256.137 272.712 256.217 272.292 256.217 271.839V270.239C256.217 269.839 256.137 269.459 255.977 269.099C255.817 268.739 255.597 268.426 255.317 268.159C255.037 267.892 254.697 267.686 254.297 267.539C253.897 267.379 253.457 267.299 252.977 267.299C252.551 267.299 252.151 267.379 251.777 267.539C251.404 267.699 251.077 267.932 250.797 268.239C250.531 268.546 250.317 268.919 250.157 269.359C250.011 269.786 249.937 270.279 249.937 270.839V271.239C249.937 271.839 250.011 272.372 250.157 272.839C250.317 273.306 250.531 273.699 250.797 274.019C251.077 274.339 251.404 274.579 251.777 274.739C252.151 274.899 252.551 274.979 252.977 274.979ZM264.202 276.739C263.615 276.739 263.095 276.659 262.642 276.499C262.202 276.326 261.829 276.092 261.522 275.799C261.215 275.506 260.982 275.159 260.822 274.759C260.662 274.359 260.582 273.919 260.582 273.439C260.582 272.386 260.889 271.626 261.502 271.159C262.129 270.692 263.022 270.459 264.182 270.459H267.622V269.739C267.622 268.832 267.415 268.206 267.002 267.859C266.602 267.512 265.995 267.339 265.182 267.339C264.422 267.339 263.869 267.486 263.522 267.779C263.175 268.059 262.982 268.379 262.942 268.739H261.182C261.209 268.312 261.322 267.919 261.522 267.559C261.735 267.186 262.015 266.866 262.362 266.599C262.722 266.332 263.149 266.126 263.642 265.979C264.135 265.819 264.682 265.739 265.282 265.739C266.535 265.739 267.529 266.039 268.262 266.639C269.009 267.226 269.382 268.192 269.382 269.539V273.839C269.382 274.399 269.382 274.892 269.382 275.319C269.395 275.732 269.429 276.139 269.482 276.539H267.942C267.902 276.232 267.875 275.946 267.862 275.679C267.849 275.399 267.842 275.086 267.842 274.739C267.562 275.299 267.109 275.772 266.482 276.159C265.855 276.546 265.095 276.739 264.202 276.739ZM264.582 275.139C264.995 275.139 265.382 275.086 265.742 274.979C266.115 274.859 266.442 274.692 266.722 274.479C267.002 274.252 267.222 273.979 267.382 273.659C267.542 273.339 267.622 272.966 267.622 272.539V271.819H264.482C263.829 271.819 263.315 271.952 262.942 272.219C262.569 272.472 262.382 272.879 262.382 273.439C262.382 273.932 262.555 274.339 262.902 274.659C263.262 274.979 263.822 275.139 264.582 275.139ZM271.691 275.079L277.971 267.499H271.891V265.939H280.091V267.399L273.811 274.979H280.291V276.539H271.691V275.079ZM282.886 265.939H284.646V276.539H282.886V265.939ZM283.766 264.539C283.419 264.539 283.133 264.426 282.906 264.199C282.679 263.972 282.566 263.686 282.566 263.339C282.566 262.992 282.679 262.706 282.906 262.479C283.133 262.252 283.419 262.139 283.766 262.139C284.113 262.139 284.399 262.252 284.626 262.479C284.853 262.706 284.966 262.992 284.966 263.339C284.966 263.686 284.853 263.972 284.626 264.199C284.399 264.426 284.113 264.539 283.766 264.539ZM288.038 265.939H289.678V267.939C289.798 267.646 289.964 267.366 290.178 267.099C290.391 266.832 290.644 266.599 290.938 266.399C291.244 266.199 291.591 266.039 291.978 265.919C292.378 265.799 292.818 265.739 293.298 265.739C294.631 265.739 295.618 266.099 296.258 266.819C296.911 267.526 297.238 268.566 297.238 269.939V276.539H295.478V270.339C295.478 269.352 295.271 268.606 294.858 268.099C294.444 267.592 293.751 267.339 292.778 267.339C292.258 267.339 291.804 267.426 291.418 267.599C291.044 267.772 290.738 267.999 290.498 268.279C290.258 268.559 290.078 268.879 289.958 269.239C289.851 269.599 289.798 269.966 289.798 270.339V276.539H288.038V265.939ZM304.742 276.739C304.062 276.739 303.416 276.632 302.802 276.419C302.189 276.206 301.649 275.879 301.182 275.439C300.716 274.986 300.342 274.419 300.062 273.739C299.782 273.059 299.642 272.259 299.642 271.339V270.939C299.642 270.059 299.776 269.299 300.042 268.659C300.309 268.006 300.662 267.466 301.102 267.039C301.556 266.599 302.076 266.272 302.662 266.059C303.262 265.846 303.889 265.739 304.542 265.739C306.102 265.739 307.309 266.166 308.162 267.019C309.016 267.872 309.442 269.079 309.442 270.639V271.759H301.402C301.402 272.386 301.502 272.912 301.702 273.339C301.902 273.766 302.162 274.112 302.482 274.379C302.802 274.646 303.156 274.839 303.542 274.959C303.942 275.079 304.342 275.139 304.742 275.139C305.542 275.139 306.156 275.006 306.582 274.739C307.022 274.472 307.336 274.106 307.522 273.639H309.242C309.136 274.146 308.942 274.592 308.662 274.979C308.396 275.366 308.062 275.692 307.662 275.959C307.276 276.212 306.829 276.406 306.322 276.539C305.829 276.672 305.302 276.739 304.742 276.739ZM304.642 267.339C304.229 267.339 303.829 267.399 303.442 267.519C303.056 267.626 302.709 267.806 302.402 268.059C302.109 268.299 301.869 268.606 301.682 268.979C301.496 269.352 301.402 269.799 301.402 270.319H307.782C307.769 269.772 307.676 269.312 307.502 268.939C307.342 268.552 307.122 268.246 306.842 268.019C306.562 267.779 306.229 267.606 305.842 267.499C305.469 267.392 305.069 267.339 304.642 267.339ZM118.194 293.939H119.954V301.939L125.434 293.939H127.194V304.539H125.434V296.539L119.954 304.539H118.194V293.939ZM135.801 290.539H140.701C141.581 290.539 142.347 290.646 143.001 290.859C143.667 291.072 144.221 291.366 144.661 291.739C145.101 292.112 145.434 292.559 145.661 293.079C145.887 293.586 146.001 294.139 146.001 294.739C146.001 295.672 145.721 296.492 145.161 297.199C144.614 297.892 143.801 298.379 142.721 298.659L146.401 304.539H144.181L140.841 298.899H137.681V304.539H135.801V290.539ZM140.501 297.299C141.794 297.299 142.721 297.066 143.281 296.599C143.841 296.119 144.121 295.499 144.121 294.739C144.121 293.979 143.841 293.366 143.281 292.899C142.721 292.419 141.794 292.179 140.501 292.179H137.681V297.299H140.501ZM151.819 304.739C151.233 304.739 150.713 304.659 150.259 304.499C149.819 304.326 149.446 304.092 149.139 303.799C148.833 303.506 148.599 303.159 148.439 302.759C148.279 302.359 148.199 301.919 148.199 301.439C148.199 300.386 148.506 299.626 149.119 299.159C149.746 298.692 150.639 298.459 151.799 298.459H155.239V297.739C155.239 296.832 155.033 296.206 154.619 295.859C154.219 295.512 153.613 295.339 152.799 295.339C152.039 295.339 151.486 295.486 151.139 295.779C150.793 296.059 150.599 296.379 150.559 296.739H148.799C148.826 296.312 148.939 295.919 149.139 295.559C149.353 295.186 149.633 294.866 149.979 294.599C150.339 294.332 150.766 294.126 151.259 293.979C151.753 293.819 152.299 293.739 152.899 293.739C154.153 293.739 155.146 294.039 155.879 294.639C156.626 295.226 156.999 296.192 156.999 297.539V301.839C156.999 302.399 156.999 302.892 156.999 303.319C157.013 303.732 157.046 304.139 157.099 304.539H155.559C155.519 304.232 155.493 303.946 155.479 303.679C155.466 303.399 155.459 303.086 155.459 302.739C155.179 303.299 154.726 303.772 154.099 304.159C153.473 304.546 152.713 304.739 151.819 304.739ZM152.199 303.139C152.613 303.139 152.999 303.086 153.359 302.979C153.733 302.859 154.059 302.692 154.339 302.479C154.619 302.252 154.839 301.979 154.999 301.659C155.159 301.339 155.239 300.966 155.239 300.539V299.819H152.099C151.446 299.819 150.933 299.952 150.559 300.219C150.186 300.472 149.999 300.879 149.999 301.439C149.999 301.932 150.173 302.339 150.519 302.659C150.879 302.979 151.439 303.139 152.199 303.139ZM163.813 304.639C162.679 304.639 161.859 304.386 161.353 303.879C160.859 303.359 160.613 302.579 160.613 301.539V295.499H159.013V293.939H160.613V291.539H162.373V293.939H165.213V295.499H162.373V301.339C162.373 301.939 162.499 302.372 162.753 302.639C163.006 302.906 163.493 303.039 164.213 303.039C164.613 303.039 165.013 303.019 165.413 302.979V304.539C165.159 304.566 164.906 304.586 164.653 304.599C164.399 304.626 164.119 304.639 163.813 304.639ZM168.12 293.939H169.88V304.539H168.12V293.939ZM169 292.539C168.654 292.539 168.367 292.426 168.14 292.199C167.914 291.972 167.8 291.686 167.8 291.339C167.8 290.992 167.914 290.706 168.14 290.479C168.367 290.252 168.654 290.139 169 290.139C169.347 290.139 169.634 290.252 169.86 290.479C170.087 290.706 170.2 290.992 170.2 291.339C170.2 291.686 170.087 291.972 169.86 292.199C169.634 292.426 169.347 292.539 169 292.539ZM173.272 293.939H174.912V295.939C175.032 295.646 175.199 295.366 175.412 295.099C175.625 294.832 175.879 294.599 176.172 294.399C176.479 294.199 176.825 294.039 177.212 293.919C177.612 293.799 178.052 293.739 178.532 293.739C179.865 293.739 180.852 294.099 181.492 294.819C182.145 295.526 182.472 296.566 182.472 297.939V304.539H180.712V298.339C180.712 297.352 180.505 296.606 180.092 296.099C179.679 295.592 178.985 295.339 178.012 295.339C177.492 295.339 177.039 295.426 176.652 295.599C176.279 295.772 175.972 295.999 175.732 296.279C175.492 296.559 175.312 296.879 175.192 297.239C175.085 297.599 175.032 297.966 175.032 298.339V304.539H173.272V293.939ZM189.777 308.739C189.003 308.739 188.343 308.659 187.797 308.499C187.25 308.352 186.797 308.146 186.437 307.879C186.09 307.612 185.823 307.292 185.637 306.919C185.45 306.559 185.33 306.166 185.277 305.739H187.117C187.183 305.952 187.277 306.146 187.397 306.319C187.517 306.492 187.677 306.639 187.877 306.759C188.077 306.879 188.33 306.972 188.637 307.039C188.957 307.106 189.337 307.139 189.777 307.139C190.857 307.139 191.65 306.879 192.157 306.359C192.663 305.839 192.917 305.099 192.917 304.139V302.439C192.61 303.146 192.137 303.672 191.497 304.019C190.87 304.366 190.13 304.539 189.277 304.539C188.623 304.539 188.023 304.426 187.477 304.199C186.943 303.972 186.483 303.639 186.097 303.199C185.71 302.759 185.41 302.212 185.197 301.559C184.983 300.892 184.877 300.119 184.877 299.239V298.839C184.877 298.026 184.983 297.306 185.197 296.679C185.423 296.039 185.73 295.506 186.117 295.079C186.503 294.639 186.963 294.306 187.497 294.079C188.043 293.852 188.637 293.739 189.277 293.739C190.183 293.739 190.97 293.946 191.637 294.359C192.303 294.759 192.77 295.286 193.037 295.939V293.939H194.677V304.139C194.677 305.579 194.257 306.706 193.417 307.519C192.577 308.332 191.363 308.739 189.777 308.739ZM189.677 302.979C190.157 302.979 190.597 302.906 190.997 302.759C191.397 302.599 191.737 302.379 192.017 302.099C192.297 301.819 192.517 301.486 192.677 301.099C192.837 300.712 192.917 300.292 192.917 299.839V298.239C192.917 297.839 192.837 297.459 192.677 297.099C192.517 296.739 192.297 296.426 192.017 296.159C191.737 295.892 191.397 295.686 190.997 295.539C190.597 295.379 190.157 295.299 189.677 295.299C189.25 295.299 188.85 295.379 188.477 295.539C188.103 295.699 187.777 295.932 187.497 296.239C187.23 296.546 187.017 296.919 186.857 297.359C186.71 297.786 186.637 298.279 186.637 298.839V299.239C186.637 299.839 186.71 300.372 186.857 300.839C187.017 301.306 187.23 301.699 187.497 302.019C187.777 302.339 188.103 302.579 188.477 302.739C188.85 302.899 189.25 302.979 189.677 302.979ZM197.881 293.939H199.521V295.939C199.748 295.312 200.121 294.792 200.641 294.379C201.175 293.952 201.821 293.739 202.581 293.739C202.848 293.739 203.061 293.752 203.221 293.779C203.395 293.806 203.548 293.839 203.681 293.879V295.519C203.508 295.452 203.335 295.406 203.161 295.379C203.001 295.352 202.775 295.339 202.481 295.339C202.081 295.339 201.708 295.412 201.361 295.559C201.015 295.706 200.715 295.912 200.461 296.179C200.208 296.432 200.008 296.746 199.861 297.119C199.715 297.492 199.641 297.899 199.641 298.339V304.539H197.881V293.939ZM209.414 304.739C208.134 304.739 207.174 304.372 206.534 303.639C205.894 302.906 205.574 301.772 205.574 300.239V293.939H207.334V300.139C207.334 301.126 207.534 301.872 207.934 302.379C208.348 302.886 209.014 303.139 209.934 303.139C210.428 303.139 210.854 303.052 211.214 302.879C211.588 302.706 211.888 302.479 212.114 302.199C212.354 301.919 212.528 301.599 212.634 301.239C212.754 300.879 212.814 300.512 212.814 300.139V293.939H214.574V304.539H212.934V302.539C212.814 302.832 212.648 303.112 212.434 303.379C212.234 303.646 211.981 303.879 211.674 304.079C211.381 304.279 211.041 304.439 210.654 304.559C210.281 304.679 209.868 304.739 209.414 304.739ZM217.784 293.939H219.424V295.939C219.544 295.646 219.71 295.366 219.924 295.099C220.137 294.832 220.39 294.599 220.684 294.399C220.99 294.199 221.337 294.039 221.724 293.919C222.124 293.799 222.564 293.739 223.044 293.739C224.377 293.739 225.364 294.099 226.004 294.819C226.657 295.526 226.984 296.566 226.984 297.939V304.539H225.224V298.339C225.224 297.352 225.017 296.606 224.604 296.099C224.19 295.592 223.497 295.339 222.524 295.339C222.004 295.339 221.55 295.426 221.164 295.599C220.79 295.772 220.484 295.999 220.244 296.279C220.004 296.559 219.824 296.879 219.704 297.239C219.597 297.599 219.544 297.966 219.544 298.339V304.539H217.784V293.939ZM234.488 304.739C233.808 304.739 233.162 304.632 232.548 304.419C231.935 304.206 231.395 303.879 230.928 303.439C230.462 302.986 230.088 302.419 229.808 301.739C229.528 301.059 229.388 300.259 229.388 299.339V298.939C229.388 298.059 229.522 297.299 229.788 296.659C230.055 296.006 230.408 295.466 230.848 295.039C231.302 294.599 231.822 294.272 232.408 294.059C233.008 293.846 233.635 293.739 234.288 293.739C235.848 293.739 237.055 294.166 237.908 295.019C238.762 295.872 239.188 297.079 239.188 298.639V299.759H231.148C231.148 300.386 231.248 300.912 231.448 301.339C231.648 301.766 231.908 302.112 232.228 302.379C232.548 302.646 232.902 302.839 233.288 302.959C233.688 303.079 234.088 303.139 234.488 303.139C235.288 303.139 235.902 303.006 236.328 302.739C236.768 302.472 237.082 302.106 237.268 301.639H238.988C238.882 302.146 238.688 302.592 238.408 302.979C238.142 303.366 237.808 303.692 237.408 303.959C237.022 304.212 236.575 304.406 236.068 304.539C235.575 304.672 235.048 304.739 234.488 304.739ZM234.388 295.339C233.975 295.339 233.575 295.399 233.188 295.519C232.802 295.626 232.455 295.806 232.148 296.059C231.855 296.299 231.615 296.606 231.428 296.979C231.242 297.352 231.148 297.799 231.148 298.319H237.528C237.515 297.772 237.422 297.312 237.248 296.939C237.088 296.552 236.868 296.246 236.588 296.019C236.308 295.779 235.975 295.606 235.588 295.499C235.215 295.392 234.815 295.339 234.388 295.339ZM245.59 304.639C244.457 304.639 243.637 304.386 243.13 303.879C242.637 303.359 242.39 302.579 242.39 301.539V295.499H240.79V293.939H242.39V291.539H244.15V293.939H246.99V295.499H244.15V301.339C244.15 301.939 244.277 302.372 244.53 302.639C244.783 302.906 245.27 303.039 245.99 303.039C246.39 303.039 246.79 303.019 247.19 302.979V304.539C246.937 304.566 246.683 304.586 246.43 304.599C246.177 304.626 245.897 304.639 245.59 304.639ZM252.718 304.739C252.131 304.739 251.611 304.659 251.158 304.499C250.718 304.326 250.344 304.092 250.038 303.799C249.731 303.506 249.498 303.159 249.338 302.759C249.178 302.359 249.098 301.919 249.098 301.439C249.098 300.386 249.404 299.626 250.018 299.159C250.644 298.692 251.538 298.459 252.698 298.459H256.138V297.739C256.138 296.832 255.931 296.206 255.518 295.859C255.118 295.512 254.511 295.339 253.698 295.339C252.938 295.339 252.384 295.486 252.038 295.779C251.691 296.059 251.498 296.379 251.458 296.739H249.698C249.724 296.312 249.838 295.919 250.038 295.559C250.251 295.186 250.531 294.866 250.878 294.599C251.238 294.332 251.664 294.126 252.158 293.979C252.651 293.819 253.198 293.739 253.798 293.739C255.051 293.739 256.044 294.039 256.778 294.639C257.524 295.226 257.898 296.192 257.898 297.539V301.839C257.898 302.399 257.898 302.892 257.898 303.319C257.911 303.732 257.944 304.139 257.998 304.539H256.458C256.418 304.232 256.391 303.946 256.378 303.679C256.364 303.399 256.358 303.086 256.358 302.739C256.078 303.299 255.624 303.772 254.998 304.159C254.371 304.546 253.611 304.739 252.718 304.739ZM253.098 303.139C253.511 303.139 253.898 303.086 254.258 302.979C254.631 302.859 254.958 302.692 255.238 302.479C255.518 302.252 255.738 301.979 255.898 301.659C256.058 301.339 256.138 300.966 256.138 300.539V299.819H252.998C252.344 299.819 251.831 299.952 251.458 300.219C251.084 300.472 250.898 300.879 250.898 301.439C250.898 301.932 251.071 302.339 251.418 302.659C251.778 302.979 252.338 303.139 253.098 303.139Z" fill="white"/>
<defs>
<clipPath id="clip0_1768_12337">
<rect width="172" height="48" fill="white" transform="translate(102 48.9482)"/>
</clipPath>
</defs>
</svg>
