<svg width="376" height="405" viewBox="0 0 376 405" fill="none" xmlns="http://www.w3.org/2000/svg">
<path d="M110.978 132.637H116.83V152.777H110.978V132.637ZM113.904 130.737C112.814 130.737 111.966 130.459 111.358 129.901C110.775 129.319 110.484 128.584 110.484 127.697C110.484 126.811 110.775 126.089 111.358 125.531C111.966 124.949 112.814 124.657 113.904 124.657C114.993 124.657 115.829 124.949 116.412 125.531C117.02 126.089 117.324 126.811 117.324 127.697C117.324 128.584 117.02 129.319 116.412 129.901C115.829 130.459 114.993 130.737 113.904 130.737ZM121.025 132.637H126.421V135.373C126.928 134.487 127.713 133.727 128.777 133.093C129.867 132.46 131.311 132.143 133.109 132.143C135.516 132.143 137.327 132.802 138.543 134.119C139.785 135.411 140.405 137.261 140.405 139.667V152.777H134.553V140.997C134.553 139.68 134.262 138.692 133.679 138.033C133.122 137.349 132.197 137.007 130.905 137.007C130.196 137.007 129.588 137.121 129.081 137.349C128.575 137.552 128.157 137.831 127.827 138.185C127.498 138.54 127.257 138.971 127.105 139.477C126.953 139.959 126.877 140.465 126.877 140.997V152.777H121.025V132.637ZM163.223 153.271C161.399 153.271 159.867 153.043 158.625 152.587C157.384 152.106 156.371 151.473 155.585 150.687C154.825 149.902 154.268 148.99 153.913 147.951C153.559 146.887 153.369 145.773 153.343 144.607H159.955C160.006 145.621 160.323 146.444 160.905 147.077C161.488 147.685 162.261 147.989 163.223 147.989C164.414 147.989 165.263 147.622 165.769 146.887C166.301 146.127 166.567 145.063 166.567 143.695C166.567 142.251 166.251 141.251 165.617 140.693C164.984 140.111 164.186 139.819 163.223 139.819C161.881 139.819 160.842 140.339 160.107 141.377H153.913V126.177H172.001V131.763H160.487V135.487C161.551 134.702 163.008 134.309 164.857 134.309C166.124 134.309 167.289 134.512 168.353 134.917C169.417 135.297 170.329 135.88 171.089 136.665C171.849 137.451 172.432 138.426 172.837 139.591C173.268 140.731 173.483 142.074 173.483 143.619C173.483 145.089 173.243 146.419 172.761 147.609C172.28 148.8 171.596 149.813 170.709 150.649C169.823 151.485 168.746 152.131 167.479 152.587C166.213 153.043 164.794 153.271 163.223 153.271ZM175.777 139.325H188.317V144.949H175.777V139.325ZM197.19 131.801H189.02V126.177H212.2V131.801H204.03V152.777H197.19V131.801ZM227.234 153.271C225.486 153.271 223.827 153.018 222.256 152.511C220.685 152.005 219.305 151.207 218.114 150.117C216.949 149.003 216.024 147.597 215.34 145.899C214.656 144.177 214.314 142.099 214.314 139.667V138.907C214.314 136.577 214.656 134.575 215.34 132.903C216.024 131.231 216.949 129.863 218.114 128.799C219.305 127.735 220.685 126.95 222.256 126.443C223.827 125.937 225.486 125.683 227.234 125.683C228.982 125.683 230.641 125.937 232.212 126.443C233.783 126.95 235.151 127.735 236.316 128.799C237.507 129.863 238.444 131.231 239.128 132.903C239.812 134.575 240.154 136.577 240.154 138.907V139.667C240.154 142.099 239.812 144.177 239.128 145.899C238.444 147.597 237.507 149.003 236.316 150.117C235.151 151.207 233.783 152.005 232.212 152.511C230.641 153.018 228.982 153.271 227.234 153.271ZM227.234 147.571C227.994 147.571 228.729 147.457 229.438 147.229C230.147 146.976 230.768 146.558 231.3 145.975C231.832 145.367 232.263 144.557 232.592 143.543C232.921 142.53 233.086 141.238 233.086 139.667V138.907C233.086 137.438 232.921 136.222 232.592 135.259C232.263 134.271 231.832 133.499 231.3 132.941C230.768 132.359 230.147 131.953 229.438 131.725C228.729 131.497 227.994 131.383 227.234 131.383C226.474 131.383 225.739 131.497 225.03 131.725C224.321 131.953 223.7 132.359 223.168 132.941C222.636 133.499 222.205 134.271 221.876 135.259C221.547 136.222 221.382 137.438 221.382 138.907V139.667C221.382 141.238 221.547 142.53 221.876 143.543C222.205 144.557 222.636 145.367 223.168 145.975C223.7 146.558 224.321 146.976 225.03 147.229C225.739 147.457 226.474 147.571 227.234 147.571ZM244.506 126.177H255.336C259.035 126.177 261.758 126.988 263.506 128.609C265.28 130.205 266.166 132.422 266.166 135.259C266.166 138.097 265.28 140.326 263.506 141.947C261.758 143.543 259.035 144.341 255.336 144.341H251.346V152.777H244.506V126.177ZM254.576 138.717C256.324 138.717 257.553 138.426 258.262 137.843C258.972 137.261 259.326 136.399 259.326 135.259C259.326 134.119 258.972 133.258 258.262 132.675C257.553 132.093 256.324 131.801 254.576 131.801H251.346V138.717H254.576Z" fill="white"/>
<path d="M165.148 226.171L170.748 221.311C171.174 220.951 171.521 220.624 171.788 220.331C172.068 220.038 172.288 219.764 172.448 219.511C172.608 219.244 172.714 218.984 172.768 218.731C172.834 218.478 172.868 218.204 172.868 217.911C172.868 217.124 172.634 216.478 172.168 215.971C171.701 215.451 171.061 215.191 170.248 215.191C169.274 215.191 168.528 215.458 168.008 215.991C167.488 216.511 167.228 217.251 167.228 218.211H165.348C165.348 217.531 165.461 216.904 165.688 216.331C165.928 215.744 166.261 215.244 166.688 214.831C167.128 214.418 167.648 214.098 168.248 213.871C168.848 213.631 169.514 213.511 170.248 213.511C170.954 213.511 171.588 213.624 172.148 213.851C172.708 214.064 173.181 214.371 173.568 214.771C173.954 215.158 174.248 215.618 174.448 216.151C174.648 216.684 174.748 217.271 174.748 217.911C174.748 218.391 174.674 218.838 174.528 219.251C174.381 219.664 174.174 220.058 173.908 220.431C173.654 220.804 173.341 221.171 172.968 221.531C172.608 221.878 172.208 222.238 171.768 222.611L167.588 226.071H174.948V227.711H165.148V226.171ZM182.149 227.911C181.469 227.911 180.823 227.798 180.209 227.571C179.609 227.344 179.083 226.958 178.629 226.411C178.176 225.851 177.816 225.111 177.549 224.191C177.283 223.258 177.149 222.098 177.149 220.711V220.311C177.149 219.018 177.283 217.938 177.549 217.071C177.816 216.204 178.176 215.511 178.629 214.991C179.083 214.458 179.609 214.078 180.209 213.851C180.823 213.624 181.469 213.511 182.149 213.511C182.829 213.511 183.469 213.624 184.069 213.851C184.683 214.078 185.216 214.458 185.669 214.991C186.123 215.511 186.483 216.204 186.749 217.071C187.016 217.938 187.149 219.018 187.149 220.311V220.711C187.149 222.098 187.016 223.258 186.749 224.191C186.483 225.111 186.123 225.851 185.669 226.411C185.216 226.958 184.683 227.344 184.069 227.571C183.469 227.798 182.829 227.911 182.149 227.911ZM182.149 226.271C182.563 226.271 182.956 226.198 183.329 226.051C183.716 225.891 184.049 225.611 184.329 225.211C184.623 224.798 184.849 224.231 185.009 223.511C185.183 222.791 185.269 221.858 185.269 220.711V220.311C185.269 219.271 185.183 218.418 185.009 217.751C184.849 217.084 184.623 216.558 184.329 216.171C184.049 215.784 183.716 215.518 183.329 215.371C182.956 215.224 182.563 215.151 182.149 215.151C181.723 215.151 181.323 215.224 180.949 215.371C180.576 215.518 180.243 215.784 179.949 216.171C179.669 216.558 179.443 217.084 179.269 217.751C179.109 218.418 179.029 219.271 179.029 220.311V220.711C179.029 221.858 179.109 222.791 179.269 223.511C179.443 224.231 179.669 224.798 179.949 225.211C180.243 225.611 180.576 225.891 180.949 226.051C181.323 226.198 181.723 226.271 182.149 226.271ZM189.152 226.171L194.752 221.311C195.178 220.951 195.525 220.624 195.792 220.331C196.072 220.038 196.292 219.764 196.452 219.511C196.612 219.244 196.718 218.984 196.772 218.731C196.838 218.478 196.872 218.204 196.872 217.911C196.872 217.124 196.638 216.478 196.172 215.971C195.705 215.451 195.065 215.191 194.252 215.191C193.278 215.191 192.532 215.458 192.012 215.991C191.492 216.511 191.232 217.251 191.232 218.211H189.352C189.352 217.531 189.465 216.904 189.692 216.331C189.932 215.744 190.265 215.244 190.692 214.831C191.132 214.418 191.652 214.098 192.252 213.871C192.852 213.631 193.518 213.511 194.252 213.511C194.958 213.511 195.592 213.624 196.152 213.851C196.712 214.064 197.185 214.371 197.572 214.771C197.958 215.158 198.252 215.618 198.452 216.151C198.652 216.684 198.752 217.271 198.752 217.911C198.752 218.391 198.678 218.838 198.532 219.251C198.385 219.664 198.178 220.058 197.912 220.431C197.658 220.804 197.345 221.171 196.972 221.531C196.612 221.878 196.212 222.238 195.772 222.611L191.592 226.071H198.952V227.711H189.152V226.171ZM205.653 227.911C204.893 227.911 204.213 227.811 203.613 227.611C203.026 227.398 202.526 227.111 202.113 226.751C201.7 226.391 201.386 225.971 201.173 225.491C200.96 224.998 200.853 224.471 200.853 223.911H202.733C202.733 224.591 202.966 225.151 203.433 225.591C203.9 226.018 204.64 226.231 205.653 226.231C206.666 226.231 207.406 226.011 207.873 225.571C208.34 225.118 208.573 224.531 208.573 223.811C208.573 223.064 208.333 222.464 207.853 222.011C207.386 221.544 206.653 221.311 205.653 221.311H204.153V219.711H205.653C206.613 219.711 207.306 219.511 207.733 219.111C208.16 218.698 208.373 218.131 208.373 217.411C208.373 216.718 208.166 216.178 207.753 215.791C207.34 215.391 206.64 215.191 205.653 215.191C204.706 215.191 204.013 215.398 203.573 215.811C203.146 216.211 202.933 216.711 202.933 217.311H201.053C201.053 216.791 201.153 216.298 201.353 215.831C201.566 215.364 201.866 214.964 202.253 214.631C202.653 214.284 203.133 214.011 203.693 213.811C204.266 213.611 204.92 213.511 205.653 213.511C206.386 213.511 207.04 213.611 207.613 213.811C208.186 214.011 208.666 214.278 209.053 214.611C209.453 214.944 209.753 215.338 209.953 215.791C210.153 216.244 210.253 216.718 210.253 217.211C210.253 218.011 210.04 218.691 209.613 219.251C209.2 219.798 208.613 220.184 207.853 220.411C208.653 220.664 209.286 221.078 209.753 221.651C210.22 222.224 210.453 223.011 210.453 224.011C210.453 224.544 210.346 225.051 210.133 225.531C209.92 225.998 209.606 226.411 209.193 226.771C208.793 227.118 208.293 227.398 207.693 227.611C207.093 227.811 206.413 227.911 205.653 227.911Z" fill="white" fill-opacity="0.6"/>
<g clip-path="url(#clip0_1768_12038)">
<path d="M158.173 72.4454H157.266C157.187 72.1271 157.043 71.7514 156.832 71.3182C156.631 70.8761 156.403 70.4606 156.149 70.0716C155.886 69.6649 155.596 69.3113 155.281 69.0107C154.974 68.7013 154.676 68.5245 154.387 68.4803C154.115 68.4449 153.773 68.4184 153.362 68.4007C152.95 68.383 152.568 68.3742 152.218 68.3742H151.455V83.4255C151.455 83.7172 151.517 83.9869 151.639 84.2345C151.762 84.4731 151.977 84.6588 152.283 84.7914C152.441 84.8533 152.77 84.9373 153.269 85.0434C153.778 85.1495 154.172 85.207 154.453 85.2158V86.1573H145.644V85.2158C145.89 85.1981 146.262 85.1627 146.762 85.1097C147.27 85.0566 147.621 84.9904 147.814 84.9107C148.103 84.7958 148.313 84.6323 148.445 84.4201C148.585 84.1991 148.655 83.9074 148.655 83.5449V68.3742H147.892C147.621 68.3742 147.283 68.383 146.88 68.4007C146.477 68.4095 146.091 68.4361 145.723 68.4803C145.434 68.5156 145.132 68.6925 144.816 69.0107C144.509 69.3201 144.225 69.6738 143.962 70.0716C143.699 70.4694 143.466 70.8938 143.265 71.3446C143.063 71.7867 142.923 72.1536 142.844 72.4454H141.924V67.3398H158.173V72.4454Z" fill="white"/>
<path d="M177.079 86.1569H169.309V85.2154C169.993 85.1712 170.558 85.0828 171.005 84.9502C171.461 84.8176 171.689 84.654 171.689 84.4595C171.689 84.38 171.68 84.2827 171.663 84.1678C171.645 84.0529 171.619 83.9512 171.584 83.8627L170.032 79.6458H163.498C163.253 80.2646 163.051 80.8039 162.894 81.2635C162.745 81.7233 162.609 82.1477 162.486 82.5367C162.372 82.9168 162.293 83.2262 162.249 83.4649C162.206 83.7036 162.184 83.8981 162.184 84.0485C162.184 84.402 162.46 84.6761 163.012 84.8706C163.564 85.0651 164.186 85.18 164.879 85.2154V86.1569H157.858V85.2154C158.086 85.1977 158.371 85.1491 158.713 85.0695C159.055 84.9811 159.335 84.8662 159.554 84.7247C159.905 84.4861 160.177 84.2385 160.369 83.9821C160.562 83.7168 160.751 83.3544 160.935 82.8947C161.873 80.5342 162.907 77.882 164.037 74.938C165.168 71.9941 166.176 69.3728 167.061 67.0742H168.113L174.331 83.3058C174.463 83.6506 174.612 83.929 174.778 84.1412C174.945 84.3534 175.177 84.5612 175.475 84.7645C175.677 84.8883 175.94 84.9944 176.264 85.0828C176.588 85.1623 176.86 85.2066 177.079 85.2154V86.1569ZM169.559 78.4655L166.732 71.1719L163.958 78.4655H169.559Z" fill="white"/>
<path d="M195.799 78.6383C195.588 78.6648 195.304 78.709 194.944 78.7709C194.594 78.824 194.309 78.9035 194.09 79.0096C193.827 79.1422 193.638 79.3323 193.524 79.5798C193.419 79.8185 193.367 80.1014 193.367 80.4285V81.8873C193.367 82.9481 193.371 83.6642 193.38 84.0355C193.397 84.4068 193.415 84.7119 193.432 84.9505C192.267 85.481 191.105 85.8876 189.948 86.1705C188.792 86.4535 187.656 86.5949 186.543 86.5949C185.351 86.5949 184.203 86.3695 183.099 85.9186C181.995 85.4678 181.031 84.8268 180.207 83.9958C179.374 83.1559 178.712 82.1347 178.222 80.9324C177.731 79.7301 177.485 78.3864 177.485 76.901C177.485 75.4689 177.718 74.1428 178.182 72.9227C178.655 71.6939 179.321 70.6286 180.18 69.7269C181.013 68.8427 182.003 68.1576 183.152 67.6714C184.309 67.1763 185.544 66.9287 186.859 66.9287C187.911 66.9287 188.827 67.057 189.607 67.3133C190.387 67.5697 191.075 67.8791 191.671 68.2415L192.21 67.3398H193.261L193.38 73.9174H192.302C192.118 73.1924 191.89 72.4807 191.618 71.7823C191.346 71.075 190.996 70.4429 190.566 69.886C190.137 69.329 189.611 68.8869 188.989 68.5598C188.375 68.2239 187.639 68.0559 186.78 68.0559C185.842 68.0559 185.005 68.2505 184.269 68.6394C183.533 69.0196 182.893 69.5898 182.35 70.3501C181.815 71.0839 181.403 71.9989 181.114 73.0951C180.825 74.1914 180.68 75.4158 180.68 76.7685C180.68 77.962 180.82 79.0891 181.101 80.15C181.39 81.2021 181.806 82.1127 182.35 82.8818C182.893 83.6687 183.572 84.2875 184.387 84.7384C185.202 85.1892 186.127 85.4147 187.161 85.4147C187.933 85.4147 188.634 85.2953 189.265 85.0566C189.905 84.818 190.356 84.566 190.619 84.3007C190.689 83.8411 190.724 83.3769 190.724 82.9084C190.733 82.4398 190.737 82.042 190.737 81.7149V80.6805C190.737 80.3092 190.685 79.9821 190.579 79.6992C190.483 79.4074 190.277 79.1952 189.962 79.0626C189.672 78.9301 189.278 78.8328 188.778 78.7709C188.288 78.7001 187.902 78.656 187.621 78.6383V77.6702H195.799V78.6383Z" fill="white"/>
<path d="M212.26 80.5611L211.866 86.1573H197.286V85.2158C197.497 85.1981 197.799 85.1671 198.193 85.1229C198.596 85.0787 198.877 85.0212 199.035 84.9505C199.298 84.8356 199.486 84.6677 199.6 84.4466C199.723 84.2256 199.784 83.9427 199.784 83.5979V70.1247C199.784 69.824 199.731 69.5589 199.626 69.329C199.53 69.0991 199.333 68.9135 199.035 68.772C198.833 68.6659 198.548 68.5642 198.18 68.467C197.821 68.361 197.523 68.299 197.286 68.2814V67.3398H205.161V68.2814C204.916 68.2902 204.596 68.3344 204.201 68.414C203.816 68.4935 203.535 68.5642 203.36 68.6261C203.062 68.7322 202.856 68.9135 202.742 69.1698C202.637 69.4262 202.584 69.7003 202.584 69.992V82.6298C202.584 83.2133 202.611 83.6687 202.663 83.9958C202.725 84.314 202.86 84.5616 203.071 84.7384C203.272 84.8975 203.57 85.0036 203.965 85.0566C204.368 85.1009 204.929 85.1229 205.648 85.1229C205.972 85.1229 206.309 85.1141 206.66 85.0964C207.01 85.0787 207.343 85.0434 207.659 84.9904C207.966 84.9373 208.246 84.8666 208.5 84.7782C208.763 84.6809 208.956 84.5616 209.079 84.4201C209.439 84.0134 209.854 83.399 210.328 82.5769C210.81 81.7458 211.143 81.0739 211.327 80.5611H212.26Z" fill="white"/>
<path d="M221.685 86.1573H213.284V85.2158C213.521 85.1981 213.863 85.1716 214.309 85.1363C214.756 85.1009 215.072 85.0478 215.256 84.9771C215.545 84.8621 215.756 84.7075 215.887 84.5129C216.018 84.3096 216.084 84.0311 216.084 83.6775V70.045C216.084 69.7357 216.036 69.4793 215.939 69.2759C215.843 69.0637 215.616 68.8869 215.256 68.7455C214.993 68.6394 214.66 68.5422 214.257 68.4537C213.863 68.3565 213.538 68.299 213.284 68.2814V67.3398H221.685V68.2814C221.413 68.2902 221.089 68.3256 220.711 68.3874C220.335 68.4405 220.006 68.5112 219.726 68.5996C219.393 68.7057 219.169 68.8781 219.055 69.1168C218.942 69.3555 218.885 69.6208 218.885 69.9125V83.5316C218.885 83.8233 218.945 84.0841 219.068 84.314C219.2 84.535 219.419 84.7119 219.726 84.8445C219.909 84.9152 220.208 84.9948 220.62 85.0832C221.041 85.1627 221.396 85.207 221.685 85.2158V86.1573Z" fill="white"/>
<path d="M243.167 68.2814C242.922 68.2902 242.545 68.361 242.036 68.4935C241.528 68.6261 241.164 68.7632 240.945 68.9047C240.63 69.1257 240.415 69.55 240.301 70.1777C240.196 70.8054 240.143 71.6011 240.143 72.5647V86.343H238.999L227.693 70.9468V80.6539C227.693 81.7414 227.759 82.5769 227.89 83.1603C228.031 83.7438 228.241 84.1593 228.521 84.4068C228.723 84.6014 229.14 84.7826 229.771 84.9505C230.401 85.1185 230.818 85.207 231.019 85.2158V86.1573H223.368V85.2158C223.605 85.1981 224.004 85.1141 224.564 84.9638C225.126 84.8046 225.476 84.6632 225.616 84.5395C225.923 84.2919 226.133 83.9162 226.247 83.4123C226.361 82.8995 226.418 82.0287 226.418 80.7998V71.5304C226.418 71.1236 226.348 70.717 226.208 70.3103C226.067 69.9036 225.879 69.5898 225.642 69.3688C225.327 69.0771 224.897 68.8295 224.354 68.6261C223.819 68.414 223.386 68.299 223.053 68.2814V67.3398H228.377L238.868 81.6883V72.7371C238.868 71.6409 238.798 70.8009 238.658 70.2175C238.518 69.6252 238.316 69.2318 238.053 69.0372C237.807 68.8693 237.405 68.7057 236.843 68.5466C236.291 68.3874 235.871 68.299 235.582 68.2814V67.3398H243.167V68.2814Z" fill="white"/>
<path d="M260.376 80.6141L260.02 86.1573H244.534V85.2158C244.797 85.1981 245.147 85.1627 245.586 85.1097C246.024 85.0478 246.309 84.9859 246.441 84.9241C246.72 84.7914 246.913 84.619 247.019 84.4068C247.133 84.1947 247.189 83.925 247.189 83.5979V70.0716C247.189 69.7799 247.142 69.5235 247.045 69.3025C246.949 69.0726 246.747 68.8869 246.441 68.7455C246.204 68.6305 245.884 68.5289 245.48 68.4405C245.086 68.3521 244.771 68.299 244.534 68.2814V67.3398H258.969V71.8751H257.983C257.808 71.2032 257.426 70.4916 256.839 69.7401C256.261 68.9798 255.709 68.5642 255.183 68.4935C254.911 68.4581 254.587 68.4317 254.21 68.414C253.833 68.3963 253.404 68.3874 252.922 68.3874H249.99V75.8667H252.093C252.768 75.8667 253.26 75.8048 253.566 75.6811C253.881 75.5484 254.157 75.3319 254.394 75.0313C254.587 74.7748 254.75 74.4345 254.881 74.0101C255.021 73.5769 255.113 73.1703 255.157 72.7901H256.143V80.15H255.157C255.122 79.7257 255.026 79.2792 254.867 78.8106C254.719 78.3333 254.56 77.9885 254.394 77.7763C254.122 77.4315 253.811 77.2061 253.461 77.1C253.119 76.9939 252.663 76.9409 252.093 76.9409H249.99V82.5901C249.99 83.1559 250.03 83.6023 250.108 83.9294C250.187 84.2565 250.34 84.5041 250.569 84.6721C250.796 84.84 251.107 84.9505 251.502 85.0036C251.896 85.0478 252.457 85.0699 253.185 85.0699C253.474 85.0699 253.855 85.0699 254.328 85.0699C254.802 85.0699 255.201 85.0522 255.524 85.0168C255.858 84.9815 256.199 84.9197 256.55 84.8312C256.91 84.7339 257.164 84.6058 257.313 84.4466C257.716 84.0223 258.137 83.3813 258.575 82.5238C259.022 81.6574 259.306 81.0209 259.429 80.6141H260.376Z" fill="white"/>
<path d="M128.628 59.6706C128.628 59.6706 131.65 55.7037 131.277 52.3558C130.977 49.6971 127.683 47.2635 123.215 47.5026C119.062 47.7277 115.568 50.1754 115.11 52.3277C114.666 54.3673 115.439 57.0541 119.334 58.7141C123.215 60.36 127.282 60.1349 127.282 60.1349C127.282 60.1349 120.781 67.8718 120.222 74.5678C119.649 81.2637 121.167 91.9688 137.306 96.4281C137.306 96.4281 138.065 96.2451 137.564 95.6825C137.564 95.6825 129.931 94.0789 125.263 86.8905C120.595 79.7023 123.186 70.6571 123.186 70.6571C123.186 70.6571 124.447 66.0712 128.098 60.4303C128.098 60.4303 144.753 62.1324 160.577 61.0492V60.4303C160.562 60.4584 142.433 61.6963 128.628 59.6706ZM127.969 59.2768C116.055 58.067 116.427 54.8738 116.427 52.8903C116.427 50.6255 118.733 48.4592 122.012 48.0934C125.292 47.7277 129.444 49.7956 129.96 53.2701C130.361 56.0273 127.969 59.2768 127.969 59.2768Z" fill="white"/>
<path d="M168.509 39.9482L160.562 54.4374L163.268 61.063L171.846 60.5707L180.295 47.7414L168.509 39.9482ZM166.089 58.7137C164.958 58.7137 164.041 57.8135 164.041 56.7022C164.041 55.5909 164.958 54.6906 166.089 54.6906C167.22 54.6906 168.137 55.5909 168.137 56.7022C168.137 57.8135 167.22 58.7137 166.089 58.7137Z" fill="white"/>
</g>
<path d="M22.0317 118.049C21.7812 120.323 21.6079 122.599 21.5117 124.873C21.5236 122.409 21.3558 118.435 17.8211 116.206C18.2292 116.999 18.4455 118.312 18.682 119.749C19.1129 122.365 19.6108 125.389 21.4584 126.414C21.4001 128.58 21.412 130.743 21.4941 132.9C21.0028 129.975 19.7793 126.526 16.1357 124.675C16.7408 125.636 17.1641 127.287 17.6269 129.092C18.454 132.319 19.4075 136.039 21.751 137.19C21.9435 139.544 22.2205 141.887 22.5823 144.215C21.5042 140.779 19.4724 136.277 14.3408 134.79C15.2278 135.742 16.0581 137.51 16.966 139.444C18.5567 142.831 20.3855 146.726 23.1749 147.626C23.7033 150.373 24.3514 153.097 25.1194 155.788C23.5092 152.285 20.7608 147.965 15.2471 147.037C16.3192 147.95 17.4319 149.747 18.6486 151.713C20.7798 155.155 23.23 159.114 26.3397 159.735C27.5689 163.423 29.0292 167.042 30.7212 170.572C28.1549 166.269 23.8085 160.113 15.8691 159.905C17.3805 160.863 19.1004 162.927 20.9811 165.183C24.3632 169.24 28.2651 173.922 32.4083 173.917C33.3817 175.753 34.4199 177.563 35.5232 179.342C36.3063 180.606 37.1175 181.85 37.956 183.074C34.0778 178.978 28.4076 174.656 20.5791 175.737C22.5267 176.563 24.9303 178.64 27.5586 180.911C32.1994 184.921 37.5407 189.537 42.3081 188.943C45.4974 192.924 48.9929 196.649 52.7591 200.082C50.9757 199.222 48.9553 197.992 46.8174 196.69C40.6846 192.956 33.5854 188.634 28.3466 190.77C28.9804 191.231 29.7659 191.917 30.6929 192.726C35.3811 196.819 43.6893 204.073 54.2997 201.457C58.2773 204.933 62.5403 208.09 67.0489 210.889C65.1851 210.336 63.005 209.471 60.6747 208.546C53.5728 205.729 45.0766 202.358 39.8909 205.579C40.6195 205.941 41.5425 206.505 42.6318 207.172C48.1967 210.576 58.1027 216.635 68.6187 211.843C71.3378 213.461 74.1423 214.95 77.0241 216.302C69.9954 215.222 61.0487 215.362 55.4968 218.799C57.3415 219.285 59.1609 219.848 60.9553 220.403C69.2196 222.959 76.9508 225.35 84.1517 219.304C87.7633 220.659 91.4767 221.804 95.2774 222.727L95.694 221.011C92.0527 220.127 88.4929 219.034 85.0279 217.746C85.4569 212.688 80.4997 205.677 76.8097 200.457C74.878 197.725 73.2936 195.484 73.0107 194.271C69.8655 203.081 74.5747 210.777 81.4651 216.34C77.4266 214.65 73.5286 212.692 69.7936 210.486C71.6597 205.323 68.155 198.081 65.1025 191.773C63.342 188.135 61.732 184.808 61.3896 182.37C56.6663 193.569 63.689 203.374 67.5886 208.818C67.7332 209.02 67.8734 209.216 68.0086 209.406C63.6913 206.728 59.6031 203.715 55.7801 200.404C58.2967 195.691 55.7683 188.266 53.5691 181.808C52.3132 178.12 51.1647 174.748 51.1242 172.375C45.2868 182.533 50.8507 192.74 53.9403 198.408C54.0746 198.654 54.2042 198.892 54.3279 199.121C50.5936 195.753 47.1263 192.094 43.9615 188.181C46.172 183.868 44.2007 177.077 42.4795 171.147C41.4665 167.658 40.5401 164.466 40.6035 162.254C35.4732 170.305 38.45 178.763 41.0427 184.381C39.6309 182.445 38.2902 180.454 37.0242 178.412C35.8876 176.579 34.8125 174.71 33.8003 172.812C36.1687 169.785 35.9018 164.219 35.6681 159.346C35.5273 156.411 35.3987 153.728 35.8643 152C30.3869 157.3 31.0513 164.397 32.0152 169.296C30.4373 166.029 29.0418 162.681 27.8362 159.271C30.152 157.096 30.4887 152.479 30.7829 148.444C30.9571 146.055 31.1165 143.87 31.6631 142.517C26.6062 146.347 26.5447 152.32 26.8674 156.39C25.8982 153.352 25.0785 150.269 24.4137 147.155C26.789 145.501 27.5879 141.345 28.2848 137.72C28.6916 135.603 29.0636 133.668 29.6942 132.517C24.6023 135.507 24.0484 141.111 23.9386 144.784C23.4567 142.211 23.0805 139.619 22.8128 137.015C24.9628 135.639 25.7284 131.978 26.3954 128.789C26.7804 126.948 27.1326 125.264 27.6992 124.268C23.6062 126.584 22.7788 130.851 22.5529 134.014C22.3726 131.456 22.2977 128.888 22.3309 126.319C24.2453 125.391 25.1748 122.41 25.9833 119.816C26.4453 118.334 26.8678 116.979 27.4121 116.206C23.8101 117.809 22.8175 121.334 22.393 123.927C22.47 121.958 22.611 119.989 22.8171 118.023C25.2851 115.219 24.9821 111.038 24.7088 107.269C24.6264 106.131 24.5466 105.03 24.5466 104.017C24.2542 104.862 23.8905 105.754 23.5141 106.678C22.0331 110.314 20.354 114.437 22.0317 118.049Z" fill="#DBFF00"/>
<path d="M353.967 118.048C354.218 120.322 354.391 122.599 354.487 124.873C354.475 122.409 354.643 118.435 358.178 116.206C357.77 116.999 357.553 118.312 357.317 119.749C356.886 122.365 356.388 125.389 354.541 126.414C354.599 128.581 354.587 130.746 354.505 132.904C354.996 129.977 356.219 126.527 359.864 124.675C359.259 125.636 358.835 127.287 358.373 129.092C357.545 132.319 356.592 136.039 354.248 137.19C354.056 139.544 353.778 141.887 353.417 144.215C354.495 140.779 356.527 136.277 361.658 134.79C360.771 135.742 359.941 137.51 359.033 139.444C357.442 142.831 355.614 146.726 352.824 147.626C352.296 150.373 351.648 153.096 350.88 155.788C352.49 152.284 355.238 147.965 360.752 147.037C359.68 147.95 358.567 149.747 357.35 151.713C355.219 155.155 352.769 159.114 349.659 159.735C348.43 163.425 346.968 167.045 345.275 170.577C347.841 166.274 352.188 160.113 360.13 159.905C358.619 160.863 356.899 162.927 355.018 165.183C351.636 169.241 347.734 173.922 343.591 173.917C342.617 175.753 341.579 177.563 340.476 179.342C339.692 180.606 338.881 181.85 338.042 183.075C341.92 178.979 347.591 174.655 355.42 175.737C353.473 176.563 351.069 178.64 348.441 180.911C343.8 184.921 338.458 189.537 333.691 188.943C330.502 192.924 327.006 196.649 323.24 200.082C325.023 199.222 327.044 197.992 329.182 196.69C335.315 192.956 342.414 188.634 347.652 190.77C347.019 191.231 346.233 191.917 345.306 192.727C340.618 196.82 332.31 204.073 321.699 201.457C317.722 204.932 313.459 208.089 308.95 210.888C310.814 210.336 312.994 209.471 315.324 208.546C322.426 205.729 330.922 202.358 336.108 205.579C335.379 205.941 334.456 206.505 333.367 207.172C327.802 210.575 317.896 216.635 307.38 211.843C304.661 213.461 301.857 214.95 298.975 216.302C306.004 215.221 314.95 215.362 320.502 218.799C318.658 219.285 316.84 219.847 315.046 220.402L315.045 220.402L315.044 220.403C306.78 222.959 299.048 225.35 291.847 219.304C288.236 220.658 284.522 221.804 280.722 222.727L280.305 221.011C283.946 220.127 287.506 219.034 290.971 217.746C290.543 212.688 295.5 205.677 299.19 200.457C301.121 197.725 302.706 195.484 302.989 194.271C306.134 203.081 301.425 210.776 294.535 216.34C298.573 214.65 302.47 212.692 306.205 210.486C304.339 205.323 307.844 198.081 310.896 191.773C312.657 188.135 314.267 184.808 314.609 182.37C319.332 193.569 312.31 203.374 308.41 208.818C308.265 209.02 308.125 209.216 307.99 209.406C312.307 206.728 316.396 203.715 320.219 200.404C317.702 195.691 320.231 188.266 322.43 181.808C323.686 178.12 324.834 174.748 324.875 172.375C330.712 182.533 325.148 192.74 322.059 198.408C321.924 198.654 321.795 198.892 321.671 199.121C325.405 195.753 328.873 192.094 332.038 188.18C329.827 183.868 331.799 177.077 333.52 171.147C334.533 167.658 335.459 164.466 335.396 162.254C340.526 170.304 337.55 178.762 334.957 184.38C336.369 182.444 337.709 180.454 338.975 178.412C340.111 176.578 341.187 174.71 342.199 172.811C339.831 169.784 340.098 164.219 340.331 159.345C340.472 156.411 340.601 153.728 340.135 152C345.612 157.299 344.948 164.395 343.985 169.294C345.562 166.028 346.957 162.681 348.163 159.271C345.847 157.096 345.511 152.479 345.216 148.444C345.042 146.055 344.883 143.87 344.336 142.517C349.393 146.346 349.455 152.319 349.132 156.389C350.101 153.351 350.921 150.269 351.585 147.155C349.21 145.501 348.411 141.345 347.714 137.72C347.307 135.603 346.935 133.668 346.305 132.517C351.397 135.507 351.951 141.111 352.06 144.784C352.542 142.211 352.919 139.619 353.186 137.015C351.037 135.639 350.271 131.978 349.604 128.789C349.219 126.948 348.867 125.264 348.3 124.268C352.392 126.583 353.22 130.848 353.446 134.011C353.626 131.454 353.701 128.887 353.668 126.319C351.753 125.391 350.824 122.41 350.015 119.816C349.553 118.334 349.131 116.979 348.586 116.206C352.19 117.81 353.182 121.337 353.606 123.931C353.529 121.961 353.388 119.991 353.182 118.024C350.714 115.22 351.017 111.038 351.29 107.269C351.372 106.131 351.452 105.03 351.452 104.017C351.744 104.862 352.108 105.754 352.485 106.678C353.965 110.314 355.644 114.437 353.967 118.048Z" fill="#DBFF00"/>
<path d="M72.793 262.539H77.793C78.633 262.539 79.353 262.632 79.953 262.819C80.553 263.006 81.0463 263.266 81.433 263.599C81.833 263.919 82.1263 264.312 82.313 264.779C82.4996 265.232 82.593 265.732 82.593 266.279C82.593 266.999 82.393 267.619 81.993 268.139C81.593 268.646 81.0996 269.012 80.513 269.239C81.3396 269.426 81.993 269.806 82.473 270.379C82.953 270.939 83.193 271.672 83.193 272.579C83.193 273.152 83.0996 273.679 82.913 274.159C82.7263 274.639 82.433 275.059 82.033 275.419C81.633 275.766 81.113 276.039 80.473 276.239C79.8463 276.439 79.0863 276.539 78.193 276.539H72.793V262.539ZM78.193 274.899C78.793 274.899 79.293 274.846 79.693 274.739C80.093 274.619 80.413 274.459 80.653 274.259C80.893 274.046 81.0596 273.792 81.153 273.499C81.2596 273.206 81.313 272.879 81.313 272.519C81.313 272.159 81.2596 271.832 81.153 271.539C81.0596 271.232 80.893 270.979 80.653 270.779C80.413 270.566 80.0863 270.406 79.673 270.299C79.273 270.179 78.773 270.119 78.173 270.119H74.673V274.899H78.193ZM77.793 268.559C78.353 268.559 78.8196 268.506 79.193 268.399C79.5663 268.292 79.8663 268.139 80.093 267.939C80.3196 267.739 80.4796 267.506 80.573 267.239C80.6663 266.972 80.713 266.679 80.713 266.359C80.713 266.039 80.6663 265.746 80.573 265.479C80.4796 265.199 80.3196 264.966 80.093 264.779C79.8663 264.592 79.5663 264.446 79.193 264.339C78.8196 264.232 78.353 264.179 77.793 264.179H74.673V268.559H77.793ZM88.4761 271.159L84.6961 265.939H86.7361L89.5361 269.799L92.3361 265.939H94.2961L90.5161 271.059L94.4961 276.539H92.4161L89.4561 272.399L86.4961 276.539H84.4961L88.4761 271.159ZM100.602 276.739C99.9216 276.739 99.2749 276.632 98.6616 276.419C98.0482 276.192 97.5082 275.859 97.0416 275.419C96.5749 274.966 96.2016 274.399 95.9216 273.719C95.6416 273.039 95.5016 272.246 95.5016 271.339V270.939C95.5016 270.086 95.6416 269.332 95.9216 268.679C96.2016 268.026 96.5749 267.486 97.0416 267.059C97.5082 266.619 98.0482 266.292 98.6616 266.079C99.2749 265.852 99.9216 265.739 100.602 265.739C101.282 265.739 101.928 265.852 102.542 266.079C103.155 266.292 103.695 266.619 104.162 267.059C104.628 267.486 105.002 268.026 105.282 268.679C105.562 269.332 105.702 270.086 105.702 270.939V271.339C105.702 272.246 105.562 273.039 105.282 273.719C105.002 274.399 104.628 274.966 104.162 275.419C103.695 275.859 103.155 276.192 102.542 276.419C101.928 276.632 101.282 276.739 100.602 276.739ZM100.602 275.139C101.002 275.139 101.402 275.072 101.802 274.939C102.202 274.792 102.555 274.572 102.862 274.279C103.168 273.972 103.415 273.579 103.602 273.099C103.802 272.619 103.902 272.032 103.902 271.339V270.939C103.902 270.299 103.802 269.752 103.602 269.299C103.415 268.846 103.168 268.472 102.862 268.179C102.555 267.886 102.202 267.672 101.802 267.539C101.402 267.406 101.002 267.339 100.602 267.339C100.202 267.339 99.8016 267.406 99.4016 267.539C99.0016 267.672 98.6482 267.886 98.3416 268.179C98.0349 268.472 97.7816 268.846 97.5816 269.299C97.3949 269.752 97.3016 270.299 97.3016 270.939V271.339C97.3016 272.032 97.3949 272.619 97.5816 273.099C97.7816 273.579 98.0349 273.972 98.3416 274.279C98.6482 274.572 99.0016 274.792 99.4016 274.939C99.8016 275.072 100.202 275.139 100.602 275.139ZM106.798 274.979H108.098C108.245 274.779 108.378 274.472 108.498 274.059C108.618 273.646 108.725 273.159 108.818 272.599C108.912 272.039 108.978 271.432 109.018 270.779C109.072 270.112 109.098 269.432 109.098 268.739V265.939H116.498V274.979H117.998V279.039H116.318V276.539H108.478V279.039H106.798V274.979ZM114.738 274.979V267.499H110.818V269.139C110.818 269.699 110.798 270.259 110.758 270.819C110.718 271.366 110.658 271.892 110.578 272.399C110.498 272.892 110.398 273.366 110.278 273.819C110.172 274.259 110.045 274.646 109.898 274.979H114.738ZM120.108 265.939H121.868V273.939L127.348 265.939H129.108V276.539H127.348V268.539L121.868 276.539H120.108V265.939ZM132.315 265.939H134.195L137.975 272.539L141.755 265.939H143.515V276.539H141.755V268.839L138.615 274.239H137.215L134.075 268.839V276.539H132.315V265.939ZM151.709 265.939H156.309C157.616 265.939 158.576 266.212 159.189 266.759C159.803 267.292 160.109 267.986 160.109 268.839C160.109 269.066 160.069 269.299 159.989 269.539C159.909 269.766 159.796 269.979 159.649 270.179C159.516 270.379 159.349 270.552 159.149 270.699C158.963 270.846 158.749 270.959 158.509 271.039C159.163 271.199 159.656 271.506 159.989 271.959C160.336 272.399 160.509 272.919 160.509 273.519C160.509 274.439 160.203 275.172 159.589 275.719C158.976 276.266 158.016 276.539 156.709 276.539H151.709V265.939ZM156.709 274.979C157.456 274.979 157.983 274.846 158.289 274.579C158.596 274.312 158.749 273.932 158.749 273.439C158.749 272.932 158.596 272.546 158.289 272.279C157.983 271.999 157.456 271.859 156.709 271.859H153.469V274.979H156.709ZM156.309 270.419C157.069 270.419 157.596 270.286 157.889 270.019C158.196 269.752 158.349 269.386 158.349 268.919C158.349 268.479 158.196 268.132 157.889 267.879C157.596 267.626 157.069 267.499 156.309 267.499H153.469V270.419H156.309ZM172.118 276.739C171.438 276.739 170.805 276.632 170.218 276.419C169.631 276.192 169.125 275.859 168.698 275.419C168.271 274.966 167.931 274.399 167.678 273.719C167.438 273.039 167.318 272.246 167.318 271.339V270.939C167.318 270.086 167.451 269.332 167.718 268.679C167.985 268.026 168.338 267.486 168.778 267.059C169.218 266.619 169.725 266.292 170.298 266.079C170.885 265.852 171.491 265.739 172.118 265.739C172.745 265.739 173.305 265.826 173.798 265.999C174.305 266.172 174.738 266.412 175.098 266.719C175.471 267.026 175.771 267.386 175.998 267.799C176.238 268.212 176.411 268.659 176.518 269.139H174.718C174.611 268.886 174.485 268.652 174.338 268.439C174.205 268.212 174.031 268.019 173.818 267.859C173.618 267.699 173.378 267.572 173.098 267.479C172.818 267.386 172.491 267.339 172.118 267.339C171.731 267.339 171.358 267.412 170.998 267.559C170.638 267.692 170.318 267.906 170.038 268.199C169.758 268.479 169.531 268.846 169.358 269.299C169.198 269.752 169.118 270.299 169.118 270.939V271.339C169.118 272.019 169.198 272.606 169.358 273.099C169.531 273.579 169.758 273.972 170.038 274.279C170.318 274.572 170.638 274.792 170.998 274.939C171.358 275.072 171.731 275.139 172.118 275.139C172.771 275.139 173.318 274.979 173.758 274.659C174.211 274.339 174.531 273.899 174.718 273.339H176.518C176.265 274.392 175.745 275.226 174.958 275.839C174.171 276.439 173.225 276.739 172.118 276.739ZM183.316 276.739C182.636 276.739 181.99 276.632 181.376 276.419C180.763 276.192 180.223 275.859 179.756 275.419C179.29 274.966 178.916 274.399 178.636 273.719C178.356 273.039 178.216 272.246 178.216 271.339V270.939C178.216 270.086 178.356 269.332 178.636 268.679C178.916 268.026 179.29 267.486 179.756 267.059C180.223 266.619 180.763 266.292 181.376 266.079C181.99 265.852 182.636 265.739 183.316 265.739C183.996 265.739 184.643 265.852 185.256 266.079C185.87 266.292 186.41 266.619 186.876 267.059C187.343 267.486 187.716 268.026 187.996 268.679C188.276 269.332 188.416 270.086 188.416 270.939V271.339C188.416 272.246 188.276 273.039 187.996 273.719C187.716 274.399 187.343 274.966 186.876 275.419C186.41 275.859 185.87 276.192 185.256 276.419C184.643 276.632 183.996 276.739 183.316 276.739ZM183.316 275.139C183.716 275.139 184.116 275.072 184.516 274.939C184.916 274.792 185.27 274.572 185.576 274.279C185.883 273.972 186.13 273.579 186.316 273.099C186.516 272.619 186.616 272.032 186.616 271.339V270.939C186.616 270.299 186.516 269.752 186.316 269.299C186.13 268.846 185.883 268.472 185.576 268.179C185.27 267.886 184.916 267.672 184.516 267.539C184.116 267.406 183.716 267.339 183.316 267.339C182.916 267.339 182.516 267.406 182.116 267.539C181.716 267.672 181.363 267.886 181.056 268.179C180.75 268.472 180.496 268.846 180.296 269.299C180.11 269.752 180.016 270.299 180.016 270.939V271.339C180.016 272.032 180.11 272.619 180.296 273.099C180.496 273.579 180.75 273.972 181.056 274.279C181.363 274.572 181.716 274.792 182.116 274.939C182.516 275.072 182.916 275.139 183.316 275.139ZM193.133 267.499H189.513V265.939H198.513V267.499H194.893V276.539H193.133V267.499ZM200.518 265.939H202.278V270.359H207.758V265.939H209.518V276.539H207.758V271.919H202.278V276.539H200.518V265.939ZM212.725 265.939H214.485V270.359H215.985C216.038 269.599 216.205 268.932 216.485 268.359C216.765 267.772 217.118 267.286 217.545 266.899C217.985 266.512 218.485 266.226 219.045 266.039C219.605 265.839 220.198 265.739 220.825 265.739C221.505 265.739 222.138 265.852 222.725 266.079C223.325 266.292 223.845 266.619 224.285 267.059C224.725 267.486 225.072 268.026 225.325 268.679C225.592 269.332 225.725 270.086 225.725 270.939V271.339C225.725 272.246 225.592 273.039 225.325 273.719C225.072 274.399 224.725 274.966 224.285 275.419C223.845 275.859 223.325 276.192 222.725 276.419C222.138 276.632 221.505 276.739 220.825 276.739C220.198 276.739 219.598 276.646 219.025 276.459C218.465 276.259 217.965 275.959 217.525 275.559C217.098 275.159 216.745 274.659 216.465 274.059C216.198 273.446 216.038 272.732 215.985 271.919H214.485V276.539H212.725V265.939ZM220.825 275.139C221.225 275.139 221.612 275.072 221.985 274.939C222.358 274.792 222.685 274.572 222.965 274.279C223.258 273.972 223.492 273.579 223.665 273.099C223.838 272.619 223.925 272.032 223.925 271.339V270.939C223.925 270.299 223.838 269.752 223.665 269.299C223.492 268.846 223.258 268.472 222.965 268.179C222.685 267.886 222.358 267.672 221.985 267.539C221.612 267.406 221.225 267.339 220.825 267.339C220.425 267.339 220.038 267.406 219.665 267.539C219.292 267.672 218.958 267.886 218.665 268.179C218.385 268.472 218.158 268.846 217.985 269.299C217.812 269.752 217.725 270.299 217.725 270.939V271.339C217.725 272.032 217.812 272.619 217.985 273.099C218.158 273.579 218.385 273.972 218.665 274.279C218.958 274.572 219.292 274.792 219.665 274.939C220.038 275.072 220.425 275.139 220.825 275.139ZM232.733 276.739C232.533 276.739 232.333 276.719 232.133 276.679V274.919C232.199 274.932 232.299 274.939 232.433 274.939C232.726 274.939 232.979 274.846 233.193 274.659C233.419 274.472 233.599 274.146 233.733 273.679C233.866 273.212 233.966 272.579 234.033 271.779C234.099 270.979 234.133 269.966 234.133 268.739V265.939H241.733V276.539H239.973V267.499H235.893V269.139C235.893 270.619 235.826 271.846 235.693 272.819C235.559 273.792 235.359 274.572 235.093 275.159C234.839 275.732 234.513 276.139 234.113 276.379C233.713 276.619 233.253 276.739 232.733 276.739ZM246.332 280.739C246.132 280.739 245.932 280.719 245.732 280.679V279.079C245.932 279.119 246.132 279.139 246.332 279.139C246.532 279.139 246.705 279.106 246.852 279.039C246.999 278.972 247.139 278.846 247.272 278.659C247.405 278.472 247.545 278.206 247.692 277.859C247.852 277.526 248.032 277.086 248.232 276.539L243.732 265.939H245.692L249.132 274.539L252.252 265.939H254.132L250.132 276.539C249.852 277.286 249.585 277.926 249.332 278.459C249.079 278.992 248.805 279.426 248.512 279.759C248.232 280.106 247.919 280.352 247.572 280.499C247.225 280.659 246.812 280.739 246.332 280.739ZM262.459 272.319C262.152 272.506 261.779 272.672 261.339 272.819C260.912 272.966 260.372 273.039 259.719 273.039C259.105 273.039 258.552 272.972 258.059 272.839C257.579 272.706 257.172 272.492 256.839 272.199C256.505 271.906 256.252 271.526 256.079 271.059C255.905 270.592 255.819 270.019 255.819 269.339V265.939H257.579V269.039C257.579 269.492 257.619 269.872 257.699 270.179C257.792 270.486 257.939 270.732 258.139 270.919C258.339 271.106 258.592 271.239 258.899 271.319C259.205 271.399 259.579 271.439 260.019 271.439C260.619 271.439 261.132 271.379 261.559 271.259C261.985 271.139 262.285 271.012 262.459 270.879V265.939H264.219V276.539H262.459V272.319ZM267.413 265.939H269.173V274.979H273.033V265.939H274.793V274.979H278.653V265.939H280.413V276.539H267.413V265.939ZM283.604 265.939H285.364V273.939L290.844 265.939H292.604V276.539H290.844V268.539L285.364 276.539H283.604V265.939ZM298.691 271.159L294.911 265.939H296.951L299.751 269.799L302.551 265.939H304.511L300.731 271.059L304.711 276.539H302.631L299.671 272.399L296.711 276.539H294.711L298.691 271.159ZM77.4223 293.939H79.0623V295.939C79.4223 295.232 79.9223 294.692 80.5623 294.319C81.2156 293.932 81.9689 293.739 82.8223 293.739C84.1556 293.739 85.2223 294.179 86.0223 295.059C86.8223 295.926 87.2223 297.219 87.2223 298.939V299.339C87.2223 300.246 87.1156 301.039 86.9023 301.719C86.6889 302.386 86.3889 302.946 86.0023 303.399C85.6156 303.839 85.1489 304.172 84.6023 304.399C84.0689 304.626 83.4756 304.739 82.8223 304.739C81.9156 304.739 81.1556 304.539 80.5423 304.139C79.9423 303.739 79.4889 303.239 79.1823 302.639V308.539H77.4223V293.939ZM82.4223 303.179C82.8489 303.179 83.2489 303.099 83.6223 302.939C83.9956 302.766 84.3156 302.519 84.5823 302.199C84.8623 301.879 85.0756 301.479 85.2223 300.999C85.3823 300.519 85.4623 299.966 85.4623 299.339V298.939C85.4623 298.366 85.3823 297.852 85.2223 297.399C85.0756 296.946 84.8623 296.566 84.5823 296.259C84.3156 295.939 83.9956 295.699 83.6223 295.539C83.2489 295.379 82.8489 295.299 82.4223 295.299C81.9423 295.299 81.5023 295.379 81.1023 295.539C80.7023 295.686 80.3623 295.899 80.0823 296.179C79.8023 296.446 79.5823 296.766 79.4223 297.139C79.2623 297.512 79.1823 297.912 79.1823 298.339V299.939C79.1823 300.419 79.2623 300.859 79.4223 301.259C79.5823 301.659 79.8023 301.999 80.0823 302.279C80.3623 302.559 80.7023 302.779 81.1023 302.939C81.5023 303.099 81.9423 303.179 82.4223 303.179ZM92.747 304.739C92.1603 304.739 91.6403 304.659 91.187 304.499C90.747 304.326 90.3736 304.092 90.067 303.799C89.7603 303.506 89.527 303.159 89.367 302.759C89.207 302.359 89.127 301.919 89.127 301.439C89.127 300.386 89.4336 299.626 90.047 299.159C90.6736 298.692 91.567 298.459 92.727 298.459H96.167V297.739C96.167 296.832 95.9603 296.206 95.547 295.859C95.147 295.512 94.5403 295.339 93.727 295.339C92.967 295.339 92.4136 295.486 92.067 295.779C91.7203 296.059 91.527 296.379 91.487 296.739H89.727C89.7536 296.312 89.867 295.919 90.067 295.559C90.2803 295.186 90.5603 294.866 90.907 294.599C91.267 294.332 91.6936 294.126 92.187 293.979C92.6803 293.819 93.227 293.739 93.827 293.739C95.0803 293.739 96.0736 294.039 96.807 294.639C97.5536 295.226 97.927 296.192 97.927 297.539V301.839C97.927 302.399 97.927 302.892 97.927 303.319C97.9403 303.732 97.9736 304.139 98.027 304.539H96.487C96.447 304.232 96.4203 303.946 96.407 303.679C96.3936 303.399 96.387 303.086 96.387 302.739C96.107 303.299 95.6536 303.772 95.027 304.159C94.4003 304.546 93.6403 304.739 92.747 304.739ZM93.127 303.139C93.5403 303.139 93.927 303.086 94.287 302.979C94.6603 302.859 94.987 302.692 95.267 302.479C95.547 302.252 95.767 301.979 95.927 301.659C96.087 301.339 96.167 300.966 96.167 300.539V299.819H93.027C92.3736 299.819 91.8603 299.952 91.487 300.219C91.1136 300.472 90.927 300.879 90.927 301.439C90.927 301.932 91.1003 302.339 91.447 302.659C91.807 302.979 92.367 303.139 93.127 303.139ZM104.636 304.739C103.302 304.739 102.256 304.459 101.496 303.899C100.736 303.339 100.316 302.552 100.236 301.539H101.996C102.089 302.059 102.362 302.459 102.816 302.739C103.282 303.006 103.889 303.139 104.636 303.139C105.556 303.139 106.222 302.986 106.636 302.679C107.062 302.359 107.276 301.979 107.276 301.539C107.276 301.019 107.102 300.612 106.756 300.319C106.409 300.012 105.809 299.859 104.956 299.859H103.136V298.419H104.836C105.569 298.419 106.089 298.279 106.396 297.999C106.716 297.719 106.876 297.326 106.876 296.819C106.876 296.419 106.689 296.072 106.316 295.779C105.942 295.486 105.382 295.339 104.636 295.339C103.822 295.339 103.229 295.472 102.856 295.739C102.496 295.992 102.276 296.359 102.196 296.839H100.436C100.476 296.399 100.596 295.992 100.796 295.619C101.009 295.232 101.296 294.899 101.656 294.619C102.016 294.339 102.442 294.126 102.936 293.979C103.442 293.819 104.009 293.739 104.636 293.739C105.316 293.739 105.902 293.819 106.396 293.979C106.902 294.126 107.322 294.339 107.656 294.619C107.989 294.886 108.236 295.206 108.396 295.579C108.556 295.952 108.636 296.366 108.636 296.819C108.636 297.326 108.509 297.772 108.256 298.159C108.002 298.532 107.596 298.826 107.036 299.039C107.782 299.239 108.302 299.559 108.596 299.999C108.889 300.439 109.036 300.952 109.036 301.539C109.036 301.979 108.942 302.392 108.756 302.779C108.569 303.166 108.289 303.506 107.916 303.799C107.556 304.079 107.096 304.306 106.536 304.479C105.989 304.652 105.356 304.739 104.636 304.739ZM111.543 293.939H113.183V295.939C113.543 295.232 114.043 294.692 114.683 294.319C115.337 293.932 116.09 293.739 116.943 293.739C118.277 293.739 119.343 294.179 120.143 295.059C120.943 295.926 121.343 297.219 121.343 298.939V299.339C121.343 300.246 121.237 301.039 121.023 301.719C120.81 302.386 120.51 302.946 120.123 303.399C119.737 303.839 119.27 304.172 118.723 304.399C118.19 304.626 117.597 304.739 116.943 304.739C116.037 304.739 115.277 304.539 114.663 304.139C114.063 303.739 113.61 303.239 113.303 302.639V308.539H111.543V293.939ZM116.543 303.179C116.97 303.179 117.37 303.099 117.743 302.939C118.117 302.766 118.437 302.519 118.703 302.199C118.983 301.879 119.197 301.479 119.343 300.999C119.503 300.519 119.583 299.966 119.583 299.339V298.939C119.583 298.366 119.503 297.852 119.343 297.399C119.197 296.946 118.983 296.566 118.703 296.259C118.437 295.939 118.117 295.699 117.743 295.539C117.37 295.379 116.97 295.299 116.543 295.299C116.063 295.299 115.623 295.379 115.223 295.539C114.823 295.686 114.483 295.899 114.203 296.179C113.923 296.446 113.703 296.766 113.543 297.139C113.383 297.512 113.303 297.912 113.303 298.339V299.939C113.303 300.419 113.383 300.859 113.543 301.259C113.703 301.659 113.923 301.999 114.203 302.279C114.483 302.559 114.823 302.779 115.223 302.939C115.623 303.099 116.063 303.179 116.543 303.179ZM126.868 304.739C126.281 304.739 125.761 304.659 125.308 304.499C124.868 304.326 124.495 304.092 124.188 303.799C123.881 303.506 123.648 303.159 123.488 302.759C123.328 302.359 123.248 301.919 123.248 301.439C123.248 300.386 123.555 299.626 124.168 299.159C124.795 298.692 125.688 298.459 126.848 298.459H130.288V297.739C130.288 296.832 130.081 296.206 129.668 295.859C129.268 295.512 128.661 295.339 127.848 295.339C127.088 295.339 126.535 295.486 126.188 295.779C125.841 296.059 125.648 296.379 125.608 296.739H123.848C123.875 296.312 123.988 295.919 124.188 295.559C124.401 295.186 124.681 294.866 125.028 294.599C125.388 294.332 125.815 294.126 126.308 293.979C126.801 293.819 127.348 293.739 127.948 293.739C129.201 293.739 130.195 294.039 130.928 294.639C131.675 295.226 132.048 296.192 132.048 297.539V301.839C132.048 302.399 132.048 302.892 132.048 303.319C132.061 303.732 132.095 304.139 132.148 304.539H130.608C130.568 304.232 130.541 303.946 130.528 303.679C130.515 303.399 130.508 303.086 130.508 302.739C130.228 303.299 129.775 303.772 129.148 304.159C128.521 304.546 127.761 304.739 126.868 304.739ZM127.248 303.139C127.661 303.139 128.048 303.086 128.408 302.979C128.781 302.859 129.108 302.692 129.388 302.479C129.668 302.252 129.888 301.979 130.048 301.659C130.208 301.339 130.288 300.966 130.288 300.539V299.819H127.148C126.495 299.819 125.981 299.952 125.608 300.219C125.235 300.472 125.048 300.879 125.048 301.439C125.048 301.932 125.221 302.339 125.568 302.659C125.928 302.979 126.488 303.139 127.248 303.139ZM139.557 304.739C138.85 304.739 138.19 304.606 137.577 304.339C136.977 304.072 136.45 303.686 135.997 303.179C135.557 302.659 135.203 302.026 134.937 301.279C134.683 300.532 134.557 299.686 134.557 298.739V298.339C134.557 297.139 134.643 296.072 134.817 295.139C134.99 294.192 135.283 293.392 135.697 292.739C136.123 292.072 136.677 291.552 137.357 291.179C138.05 290.806 138.917 290.592 139.957 290.539C140.797 290.499 141.53 290.466 142.157 290.439C142.783 290.399 143.317 290.266 143.757 290.039V291.739C143.543 291.859 143.15 291.952 142.577 292.019C142.017 292.086 141.243 292.132 140.257 292.159C139.617 292.172 139.05 292.252 138.557 292.399C138.077 292.546 137.663 292.779 137.317 293.099C136.983 293.419 136.717 293.839 136.517 294.359C136.33 294.866 136.21 295.492 136.157 296.239C136.477 295.532 136.97 294.972 137.637 294.559C138.303 294.146 139.077 293.939 139.957 293.939C140.637 293.939 141.257 294.059 141.817 294.299C142.377 294.526 142.857 294.852 143.257 295.279C143.67 295.706 143.99 296.232 144.217 296.859C144.443 297.472 144.557 298.166 144.557 298.939V299.339C144.557 300.166 144.43 300.912 144.177 301.579C143.923 302.232 143.577 302.799 143.137 303.279C142.697 303.746 142.17 304.106 141.557 304.359C140.943 304.612 140.277 304.739 139.557 304.739ZM139.557 303.139C140.49 303.139 141.257 302.819 141.857 302.179C142.457 301.526 142.757 300.579 142.757 299.339V298.939C142.757 298.419 142.677 297.952 142.517 297.539C142.357 297.126 142.137 296.772 141.857 296.479C141.577 296.172 141.237 295.939 140.837 295.779C140.45 295.619 140.023 295.539 139.557 295.539C139.09 295.539 138.657 295.619 138.257 295.779C137.87 295.939 137.537 296.172 137.257 296.479C136.977 296.772 136.757 297.126 136.597 297.539C136.437 297.952 136.357 298.419 136.357 298.939V299.339C136.357 299.926 136.437 300.459 136.597 300.939C136.77 301.406 137.003 301.806 137.297 302.139C137.59 302.459 137.93 302.706 138.317 302.879C138.703 303.052 139.117 303.139 139.557 303.139ZM151.451 304.739C150.771 304.739 150.125 304.632 149.511 304.419C148.898 304.192 148.358 303.859 147.891 303.419C147.425 302.966 147.051 302.399 146.771 301.719C146.491 301.039 146.351 300.246 146.351 299.339V298.939C146.351 298.086 146.491 297.332 146.771 296.679C147.051 296.026 147.425 295.486 147.891 295.059C148.358 294.619 148.898 294.292 149.511 294.079C150.125 293.852 150.771 293.739 151.451 293.739C152.131 293.739 152.778 293.852 153.391 294.079C154.005 294.292 154.545 294.619 155.011 295.059C155.478 295.486 155.851 296.026 156.131 296.679C156.411 297.332 156.551 298.086 156.551 298.939V299.339C156.551 300.246 156.411 301.039 156.131 301.719C155.851 302.399 155.478 302.966 155.011 303.419C154.545 303.859 154.005 304.192 153.391 304.419C152.778 304.632 152.131 304.739 151.451 304.739ZM151.451 303.139C151.851 303.139 152.251 303.072 152.651 302.939C153.051 302.792 153.405 302.572 153.711 302.279C154.018 301.972 154.265 301.579 154.451 301.099C154.651 300.619 154.751 300.032 154.751 299.339V298.939C154.751 298.299 154.651 297.752 154.451 297.299C154.265 296.846 154.018 296.472 153.711 296.179C153.405 295.886 153.051 295.672 152.651 295.539C152.251 295.406 151.851 295.339 151.451 295.339C151.051 295.339 150.651 295.406 150.251 295.539C149.851 295.672 149.498 295.886 149.191 296.179C148.885 296.472 148.631 296.846 148.431 297.299C148.245 297.752 148.151 298.299 148.151 298.939V299.339C148.151 300.032 148.245 300.619 148.431 301.099C148.631 301.579 148.885 301.972 149.191 302.279C149.498 302.572 149.851 302.792 150.251 302.939C150.651 303.072 151.051 303.139 151.451 303.139ZM161.268 295.499H157.648V293.939H166.648V295.499H163.028V304.539H161.268V295.499ZM174.793 300.319C174.486 300.506 174.113 300.672 173.673 300.819C173.246 300.966 172.706 301.039 172.053 301.039C171.439 301.039 170.886 300.972 170.393 300.839C169.913 300.706 169.506 300.492 169.173 300.199C168.839 299.906 168.586 299.526 168.413 299.059C168.239 298.592 168.153 298.019 168.153 297.339V293.939H169.913V297.039C169.913 297.492 169.953 297.872 170.033 298.179C170.126 298.486 170.273 298.732 170.473 298.919C170.673 299.106 170.926 299.239 171.233 299.319C171.539 299.399 171.913 299.439 172.353 299.439C172.953 299.439 173.466 299.379 173.893 299.259C174.319 299.139 174.619 299.012 174.793 298.879V293.939H176.553V304.539H174.793V300.319ZM179.746 293.939H181.506V301.939L186.986 293.939H188.746V304.539H186.986V296.539L181.506 304.539H179.746V293.939ZM191.954 293.939H193.714V298.379H195.114L199.074 293.939H201.154L196.554 299.019L201.354 304.539H199.114L195.114 299.899H193.714V304.539H191.954V293.939ZM207.467 304.739C206.787 304.739 206.14 304.632 205.527 304.419C204.913 304.192 204.373 303.859 203.907 303.419C203.44 302.966 203.067 302.399 202.787 301.719C202.507 301.039 202.367 300.246 202.367 299.339V298.939C202.367 298.086 202.507 297.332 202.787 296.679C203.067 296.026 203.44 295.486 203.907 295.059C204.373 294.619 204.913 294.292 205.527 294.079C206.14 293.852 206.787 293.739 207.467 293.739C208.147 293.739 208.793 293.852 209.407 294.079C210.02 294.292 210.56 294.619 211.027 295.059C211.493 295.486 211.867 296.026 212.147 296.679C212.427 297.332 212.567 298.086 212.567 298.939V299.339C212.567 300.246 212.427 301.039 212.147 301.719C211.867 302.399 211.493 302.966 211.027 303.419C210.56 303.859 210.02 304.192 209.407 304.419C208.793 304.632 208.147 304.739 207.467 304.739ZM207.467 303.139C207.867 303.139 208.267 303.072 208.667 302.939C209.067 302.792 209.42 302.572 209.727 302.279C210.033 301.972 210.28 301.579 210.467 301.099C210.667 300.619 210.767 300.032 210.767 299.339V298.939C210.767 298.299 210.667 297.752 210.467 297.299C210.28 296.846 210.033 296.472 209.727 296.179C209.42 295.886 209.067 295.672 208.667 295.539C208.267 295.406 207.867 295.339 207.467 295.339C207.067 295.339 206.667 295.406 206.267 295.539C205.867 295.672 205.513 295.886 205.207 296.179C204.9 296.472 204.647 296.846 204.447 297.299C204.26 297.752 204.167 298.299 204.167 298.939V299.339C204.167 300.032 204.26 300.619 204.447 301.099C204.647 301.579 204.9 301.972 205.207 302.279C205.513 302.572 205.867 302.792 206.267 302.939C206.667 303.072 207.067 303.139 207.467 303.139ZM215.059 293.939H219.659C220.966 293.939 221.926 294.212 222.539 294.759C223.152 295.292 223.459 295.986 223.459 296.839C223.459 297.066 223.419 297.299 223.339 297.539C223.259 297.766 223.146 297.979 222.999 298.179C222.866 298.379 222.699 298.552 222.499 298.699C222.312 298.846 222.099 298.959 221.859 299.039C222.512 299.199 223.006 299.506 223.339 299.959C223.686 300.399 223.859 300.919 223.859 301.519C223.859 302.439 223.552 303.172 222.939 303.719C222.326 304.266 221.366 304.539 220.059 304.539H215.059V293.939ZM220.059 302.979C220.806 302.979 221.332 302.846 221.639 302.579C221.946 302.312 222.099 301.932 222.099 301.439C222.099 300.932 221.946 300.546 221.639 300.279C221.332 299.999 220.806 299.859 220.059 299.859H216.819V302.979H220.059ZM219.659 298.419C220.419 298.419 220.946 298.286 221.239 298.019C221.546 297.752 221.699 297.386 221.699 296.919C221.699 296.479 221.546 296.132 221.239 295.879C220.946 295.626 220.419 295.499 219.659 295.499H216.819V298.419H219.659ZM231.768 290.539H242.768V304.539H240.888V292.179H233.648V304.539H231.768V290.539ZM252.168 304.739C251.368 304.739 250.594 304.606 249.848 304.339C249.101 304.059 248.441 303.632 247.868 303.059C247.294 302.486 246.834 301.752 246.488 300.859C246.141 299.966 245.968 298.892 245.968 297.639V297.239C245.968 296.039 246.141 295.006 246.488 294.139C246.834 293.272 247.294 292.559 247.868 291.999C248.441 291.426 249.101 291.006 249.848 290.739C250.594 290.472 251.368 290.339 252.168 290.339C252.968 290.339 253.741 290.472 254.488 290.739C255.234 291.006 255.894 291.426 256.468 291.999C257.041 292.559 257.501 293.272 257.848 294.139C258.194 295.006 258.368 296.039 258.368 297.239V297.639C258.368 298.892 258.194 299.966 257.848 300.859C257.501 301.752 257.041 302.486 256.468 303.059C255.894 303.632 255.234 304.059 254.488 304.339C253.741 304.606 252.968 304.739 252.168 304.739ZM252.168 303.059C252.714 303.059 253.241 302.959 253.748 302.759C254.254 302.559 254.701 302.246 255.088 301.819C255.474 301.379 255.781 300.819 256.008 300.139C256.248 299.446 256.368 298.612 256.368 297.639V297.239C256.368 296.319 256.248 295.532 256.008 294.879C255.781 294.212 255.474 293.672 255.088 293.259C254.701 292.832 254.254 292.519 253.748 292.319C253.241 292.119 252.714 292.019 252.168 292.019C251.621 292.019 251.094 292.119 250.588 292.319C250.081 292.519 249.634 292.832 249.248 293.259C248.861 293.672 248.548 294.212 248.308 294.879C248.081 295.532 247.968 296.319 247.968 297.239V297.639C247.968 298.612 248.081 299.446 248.308 300.139C248.548 300.819 248.861 301.379 249.248 301.819C249.634 302.246 250.081 302.559 250.588 302.759C251.094 302.959 251.621 303.059 252.168 303.059ZM264.972 302.979H266.272C266.419 302.779 266.552 302.472 266.672 302.059C266.792 301.646 266.899 301.159 266.992 300.599C267.086 300.039 267.152 299.432 267.192 298.779C267.246 298.112 267.272 297.432 267.272 296.739V293.939H274.672V302.979H276.172V307.039H274.492V304.539H266.652V307.039H264.972V302.979ZM272.912 302.979V295.499H268.992V297.139C268.992 297.699 268.972 298.259 268.932 298.819C268.892 299.366 268.832 299.892 268.752 300.399C268.672 300.892 268.572 301.366 268.452 301.819C268.346 302.259 268.219 302.646 268.072 302.979H272.912ZM278.172 304.739C277.972 304.739 277.772 304.719 277.572 304.679V302.919C277.639 302.932 277.739 302.939 277.872 302.939C278.166 302.939 278.419 302.846 278.632 302.659C278.859 302.472 279.039 302.146 279.172 301.679C279.306 301.212 279.406 300.579 279.472 299.779C279.539 298.979 279.572 297.966 279.572 296.739V293.939H287.172V304.539H285.412V295.499H281.332V297.139C281.332 298.619 281.266 299.846 281.132 300.819C280.999 301.792 280.799 302.572 280.532 303.159C280.279 303.732 279.952 304.139 279.552 304.379C279.152 304.619 278.692 304.739 278.172 304.739ZM292.451 300.339C291.571 300.139 290.938 299.779 290.551 299.259C290.165 298.726 289.971 298.046 289.971 297.219C289.971 296.179 290.285 295.372 290.911 294.799C291.551 294.226 292.571 293.939 293.971 293.939H298.571V304.539H296.811V300.499H294.111L291.531 304.539H289.571L292.451 300.339ZM291.731 297.219C291.731 297.779 291.891 298.206 292.211 298.499C292.545 298.792 293.098 298.939 293.871 298.939H296.811V295.499H293.871C293.098 295.499 292.545 295.646 292.211 295.939C291.891 296.232 291.731 296.659 291.731 297.219ZM62.891 321.939H64.651V326.379H66.051L70.011 321.939H72.091L67.491 327.019L72.291 332.539H70.051L66.051 327.899H64.651V332.539H62.891V321.939ZM74.3949 321.939H76.0349V323.939C76.3949 323.232 76.8949 322.692 77.5349 322.319C78.1883 321.932 78.9416 321.739 79.7949 321.739C81.1283 321.739 82.1949 322.179 82.9949 323.059C83.7949 323.926 84.1949 325.219 84.1949 326.939V327.339C84.1949 328.246 84.0883 329.039 83.8749 329.719C83.6616 330.386 83.3616 330.946 82.9749 331.399C82.5883 331.839 82.1216 332.172 81.5749 332.399C81.0416 332.626 80.4483 332.739 79.7949 332.739C78.8883 332.739 78.1283 332.539 77.5149 332.139C76.9149 331.739 76.4616 331.239 76.1549 330.639V336.539H74.3949V321.939ZM79.3949 331.179C79.8216 331.179 80.2216 331.099 80.5949 330.939C80.9683 330.766 81.2883 330.519 81.5549 330.199C81.8349 329.879 82.0483 329.479 82.1949 328.999C82.3549 328.519 82.4349 327.966 82.4349 327.339V326.939C82.4349 326.366 82.3549 325.852 82.1949 325.399C82.0483 324.946 81.8349 324.566 81.5549 324.259C81.2883 323.939 80.9683 323.699 80.5949 323.539C80.2216 323.379 79.8216 323.299 79.3949 323.299C78.9149 323.299 78.4749 323.379 78.0749 323.539C77.6749 323.686 77.3349 323.899 77.0549 324.179C76.7749 324.446 76.5549 324.766 76.3949 325.139C76.2349 325.512 76.1549 325.912 76.1549 326.339V327.939C76.1549 328.419 76.2349 328.859 76.3949 329.259C76.5549 329.659 76.7749 329.999 77.0549 330.279C77.3349 330.559 77.6749 330.779 78.0749 330.939C78.4749 331.099 78.9149 331.179 79.3949 331.179ZM87.709 336.739C87.509 336.739 87.309 336.719 87.109 336.679V335.079C87.309 335.119 87.509 335.139 87.709 335.139C87.909 335.139 88.0823 335.106 88.229 335.039C88.3757 334.972 88.5157 334.846 88.649 334.659C88.7823 334.472 88.9223 334.206 89.069 333.859C89.229 333.526 89.409 333.086 89.609 332.539L85.109 321.939H87.069L90.509 330.539L93.629 321.939H95.509L91.509 332.539C91.229 333.286 90.9623 333.926 90.709 334.459C90.4557 334.992 90.1823 335.426 89.889 335.759C89.609 336.106 89.2957 336.352 88.949 336.499C88.6023 336.659 88.189 336.739 87.709 336.739ZM97.5004 321.939H106.3V332.539H104.54V323.499H99.2604V332.539H97.5004V321.939ZM109.493 321.939H111.253V326.359H116.733V321.939H118.493V332.539H116.733V327.919H111.253V332.539H109.493V321.939ZM126.1 332.739C125.42 332.739 124.773 332.632 124.16 332.419C123.546 332.206 123.006 331.879 122.54 331.439C122.073 330.986 121.7 330.419 121.42 329.739C121.14 329.059 121 328.259 121 327.339V326.939C121 326.059 121.133 325.299 121.4 324.659C121.666 324.006 122.02 323.466 122.46 323.039C122.913 322.599 123.433 322.272 124.02 322.059C124.62 321.846 125.246 321.739 125.9 321.739C127.46 321.739 128.666 322.166 129.52 323.019C130.373 323.872 130.8 325.079 130.8 326.639V327.759H122.76C122.76 328.386 122.86 328.912 123.06 329.339C123.26 329.766 123.52 330.112 123.84 330.379C124.16 330.646 124.513 330.839 124.9 330.959C125.3 331.079 125.7 331.139 126.1 331.139C126.9 331.139 127.513 331.006 127.94 330.739C128.38 330.472 128.693 330.106 128.88 329.639H130.6C130.493 330.146 130.3 330.592 130.02 330.979C129.753 331.366 129.42 331.692 129.02 331.959C128.633 332.212 128.186 332.406 127.68 332.539C127.186 332.672 126.66 332.739 126.1 332.739ZM126 323.339C125.586 323.339 125.186 323.399 124.8 323.519C124.413 323.626 124.066 323.806 123.76 324.059C123.466 324.299 123.226 324.606 123.04 324.979C122.853 325.352 122.76 325.799 122.76 326.319H129.14C129.126 325.772 129.033 325.312 128.86 324.939C128.7 324.552 128.48 324.246 128.2 324.019C127.92 323.779 127.586 323.606 127.2 323.499C126.826 323.392 126.426 323.339 126 323.339ZM133.301 321.939H135.061V329.939L140.541 321.939H142.301V332.539H140.541V324.539L135.061 332.539H133.301V321.939ZM137.801 320.639C136.761 320.639 136.001 320.419 135.521 319.979C135.041 319.526 134.801 318.879 134.801 318.039H136.521C136.521 318.946 136.948 319.399 137.801 319.399C138.681 319.399 139.121 318.946 139.121 318.039H140.801C140.801 318.879 140.561 319.526 140.081 319.979C139.601 320.419 138.841 320.639 137.801 320.639ZM145.508 321.939H147.268V330.979H151.128V321.939H152.888V330.979H156.748V321.939H158.508V332.539H145.508V321.939ZM161.7 321.939H163.46V329.939L168.94 321.939H170.7V332.539H168.94V324.539L163.46 332.539H161.7V321.939ZM176.787 327.159L173.007 321.939H175.047L177.847 325.799L180.647 321.939H182.607L178.827 327.059L182.807 332.539H180.727L177.767 328.399L174.807 332.539H172.807L176.787 327.159ZM189.903 321.939H191.663V326.379H193.063L197.023 321.939H199.103L194.503 327.019L199.303 332.539H197.063L193.063 327.899H191.663V332.539H189.903V321.939ZM205.416 332.739C204.736 332.739 204.089 332.632 203.476 332.419C202.863 332.192 202.323 331.859 201.856 331.419C201.389 330.966 201.016 330.399 200.736 329.719C200.456 329.039 200.316 328.246 200.316 327.339V326.939C200.316 326.086 200.456 325.332 200.736 324.679C201.016 324.026 201.389 323.486 201.856 323.059C202.323 322.619 202.863 322.292 203.476 322.079C204.089 321.852 204.736 321.739 205.416 321.739C206.096 321.739 206.743 321.852 207.356 322.079C207.969 322.292 208.509 322.619 208.976 323.059C209.443 323.486 209.816 324.026 210.096 324.679C210.376 325.332 210.516 326.086 210.516 326.939V327.339C210.516 328.246 210.376 329.039 210.096 329.719C209.816 330.399 209.443 330.966 208.976 331.419C208.509 331.859 207.969 332.192 207.356 332.419C206.743 332.632 206.096 332.739 205.416 332.739ZM205.416 331.139C205.816 331.139 206.216 331.072 206.616 330.939C207.016 330.792 207.369 330.572 207.676 330.279C207.983 329.972 208.229 329.579 208.416 329.099C208.616 328.619 208.716 328.032 208.716 327.339V326.939C208.716 326.299 208.616 325.752 208.416 325.299C208.229 324.846 207.983 324.472 207.676 324.179C207.369 323.886 207.016 323.672 206.616 323.539C206.216 323.406 205.816 323.339 205.416 323.339C205.016 323.339 204.616 323.406 204.216 323.539C203.816 323.672 203.463 323.886 203.156 324.179C202.849 324.472 202.596 324.846 202.396 325.299C202.209 325.752 202.116 326.299 202.116 326.939V327.339C202.116 328.032 202.209 328.619 202.396 329.099C202.596 329.579 202.849 329.972 203.156 330.279C203.463 330.572 203.816 330.792 204.216 330.939C204.616 331.072 205.016 331.139 205.416 331.139ZM213.008 321.939H214.888L218.668 328.539L222.448 321.939H224.208V332.539H222.448V324.839L219.308 330.239H217.908L214.768 324.839V332.539H213.008V321.939ZM227.403 321.939H236.203V332.539H234.443V323.499H229.163V332.539H227.403V321.939ZM242.415 332.739C241.828 332.739 241.308 332.659 240.855 332.499C240.415 332.326 240.042 332.092 239.735 331.799C239.428 331.506 239.195 331.159 239.035 330.759C238.875 330.359 238.795 329.919 238.795 329.439C238.795 328.386 239.102 327.626 239.715 327.159C240.342 326.692 241.235 326.459 242.395 326.459H245.835V325.739C245.835 324.832 245.628 324.206 245.215 323.859C244.815 323.512 244.208 323.339 243.395 323.339C242.635 323.339 242.082 323.486 241.735 323.779C241.388 324.059 241.195 324.379 241.155 324.739H239.395C239.422 324.312 239.535 323.919 239.735 323.559C239.948 323.186 240.228 322.866 240.575 322.599C240.935 322.332 241.362 322.126 241.855 321.979C242.348 321.819 242.895 321.739 243.495 321.739C244.748 321.739 245.742 322.039 246.475 322.639C247.222 323.226 247.595 324.192 247.595 325.539V329.839C247.595 330.399 247.595 330.892 247.595 331.319C247.608 331.732 247.642 332.139 247.695 332.539H246.155C246.115 332.232 246.088 331.946 246.075 331.679C246.062 331.399 246.055 331.086 246.055 330.739C245.775 331.299 245.322 331.772 244.695 332.159C244.068 332.546 243.308 332.739 242.415 332.739ZM242.795 331.139C243.208 331.139 243.595 331.086 243.955 330.979C244.328 330.859 244.655 330.692 244.935 330.479C245.215 330.252 245.435 329.979 245.595 329.659C245.755 329.339 245.835 328.966 245.835 328.539V327.819H242.695C242.042 327.819 241.528 327.952 241.155 328.219C240.782 328.472 240.595 328.879 240.595 329.439C240.595 329.932 240.768 330.339 241.115 330.659C241.475 330.979 242.035 331.139 242.795 331.139ZM250.704 321.939H252.464V326.359H257.944V321.939H259.704V332.539H257.944V327.919H252.464V332.539H250.704V321.939ZM262.911 321.939H264.671V329.939L270.151 321.939H271.911V332.539H270.151V324.539L264.671 332.539H262.911V321.939ZM275.118 321.939H276.878V329.939L282.358 321.939H284.118V332.539H282.358V324.539L276.878 332.539H275.118V321.939ZM279.618 320.639C278.578 320.639 277.818 320.419 277.338 319.979C276.858 319.526 276.618 318.879 276.618 318.039H278.338C278.338 318.946 278.764 319.399 279.618 319.399C280.498 319.399 280.938 318.946 280.938 318.039H282.618C282.618 318.879 282.378 319.526 281.898 319.979C281.418 320.419 280.658 320.639 279.618 320.639ZM292.325 321.939H301.125V332.539H299.365V323.499H294.085V332.539H292.325V321.939ZM308.717 332.739C308.037 332.739 307.39 332.632 306.777 332.419C306.163 332.192 305.623 331.859 305.157 331.419C304.69 330.966 304.317 330.399 304.037 329.719C303.757 329.039 303.617 328.246 303.617 327.339V326.939C303.617 326.086 303.757 325.332 304.037 324.679C304.317 324.026 304.69 323.486 305.157 323.059C305.623 322.619 306.163 322.292 306.777 322.079C307.39 321.852 308.037 321.739 308.717 321.739C309.397 321.739 310.043 321.852 310.657 322.079C311.27 322.292 311.81 322.619 312.277 323.059C312.743 323.486 313.117 324.026 313.397 324.679C313.677 325.332 313.817 326.086 313.817 326.939V327.339C313.817 328.246 313.677 329.039 313.397 329.719C313.117 330.399 312.743 330.966 312.277 331.419C311.81 331.859 311.27 332.192 310.657 332.419C310.043 332.632 309.397 332.739 308.717 332.739ZM308.717 331.139C309.117 331.139 309.517 331.072 309.917 330.939C310.317 330.792 310.67 330.572 310.977 330.279C311.283 329.972 311.53 329.579 311.717 329.099C311.917 328.619 312.017 328.032 312.017 327.339V326.939C312.017 326.299 311.917 325.752 311.717 325.299C311.53 324.846 311.283 324.472 310.977 324.179C310.67 323.886 310.317 323.672 309.917 323.539C309.517 323.406 309.117 323.339 308.717 323.339C308.317 323.339 307.917 323.406 307.517 323.539C307.117 323.672 306.763 323.886 306.457 324.179C306.15 324.472 305.897 324.846 305.697 325.299C305.51 325.752 305.417 326.299 305.417 326.939V327.339C305.417 328.032 305.51 328.619 305.697 329.099C305.897 329.579 306.15 329.972 306.457 330.279C306.763 330.572 307.117 330.792 307.517 330.939C307.917 331.072 308.317 331.139 308.717 331.139ZM89.0336 349.939H93.6336C94.9403 349.939 95.9003 350.212 96.5136 350.759C97.1269 351.292 97.4336 351.986 97.4336 352.839C97.4336 353.066 97.3936 353.299 97.3136 353.539C97.2336 353.766 97.1203 353.979 96.9736 354.179C96.8403 354.379 96.6736 354.552 96.4736 354.699C96.2869 354.846 96.0736 354.959 95.8336 355.039C96.4869 355.199 96.9803 355.506 97.3136 355.959C97.6603 356.399 97.8336 356.919 97.8336 357.519C97.8336 358.439 97.5269 359.172 96.9136 359.719C96.3003 360.266 95.3403 360.539 94.0336 360.539H89.0336V349.939ZM94.0336 358.979C94.7803 358.979 95.3069 358.846 95.6136 358.579C95.9203 358.312 96.0736 357.932 96.0736 357.439C96.0736 356.932 95.9203 356.546 95.6136 356.279C95.3069 355.999 94.7803 355.859 94.0336 355.859H90.7936V358.979H94.0336ZM93.6336 354.419C94.3936 354.419 94.9203 354.286 95.2136 354.019C95.5203 353.752 95.6736 353.386 95.6736 352.919C95.6736 352.479 95.5203 352.132 95.2136 351.879C94.9203 351.626 94.3936 351.499 93.6336 351.499H90.7936V354.419H93.6336ZM104.742 360.739C104.062 360.739 103.416 360.632 102.802 360.419C102.189 360.206 101.649 359.879 101.182 359.439C100.716 358.986 100.342 358.419 100.062 357.739C99.7822 357.059 99.6422 356.259 99.6422 355.339V354.939C99.6422 354.059 99.7755 353.299 100.042 352.659C100.309 352.006 100.662 351.466 101.102 351.039C101.556 350.599 102.076 350.272 102.662 350.059C103.262 349.846 103.889 349.739 104.542 349.739C106.102 349.739 107.309 350.166 108.162 351.019C109.016 351.872 109.442 353.079 109.442 354.639V355.759H101.402C101.402 356.386 101.502 356.912 101.702 357.339C101.902 357.766 102.162 358.112 102.482 358.379C102.802 358.646 103.156 358.839 103.542 358.959C103.942 359.079 104.342 359.139 104.742 359.139C105.542 359.139 106.156 359.006 106.582 358.739C107.022 358.472 107.336 358.106 107.522 357.639H109.242C109.136 358.146 108.942 358.592 108.662 358.979C108.396 359.366 108.062 359.692 107.662 359.959C107.276 360.212 106.829 360.406 106.322 360.539C105.829 360.672 105.302 360.739 104.742 360.739ZM104.642 351.339C104.229 351.339 103.829 351.399 103.442 351.519C103.056 351.626 102.709 351.806 102.402 352.059C102.109 352.299 101.869 352.606 101.682 352.979C101.496 353.352 101.402 353.799 101.402 354.319H107.782C107.769 353.772 107.676 353.312 107.502 352.939C107.342 352.552 107.122 352.246 106.842 352.019C106.562 351.779 106.229 351.606 105.842 351.499C105.469 351.392 105.069 351.339 104.642 351.339ZM111.944 349.939H113.584V351.939C113.944 351.232 114.444 350.692 115.084 350.319C115.737 349.932 116.49 349.739 117.344 349.739C118.677 349.739 119.744 350.179 120.544 351.059C121.344 351.926 121.744 353.219 121.744 354.939V355.339C121.744 356.246 121.637 357.039 121.424 357.719C121.21 358.386 120.91 358.946 120.524 359.399C120.137 359.839 119.67 360.172 119.124 360.399C118.59 360.626 117.997 360.739 117.344 360.739C116.437 360.739 115.677 360.539 115.064 360.139C114.464 359.739 114.01 359.239 113.704 358.639V364.539H111.944V349.939ZM116.944 359.179C117.37 359.179 117.77 359.099 118.144 358.939C118.517 358.766 118.837 358.519 119.104 358.199C119.384 357.879 119.597 357.479 119.744 356.999C119.904 356.519 119.984 355.966 119.984 355.339V354.939C119.984 354.366 119.904 353.852 119.744 353.399C119.597 352.946 119.384 352.566 119.104 352.259C118.837 351.939 118.517 351.699 118.144 351.539C117.77 351.379 117.37 351.299 116.944 351.299C116.464 351.299 116.024 351.379 115.624 351.539C115.224 351.686 114.884 351.899 114.604 352.179C114.324 352.446 114.104 352.766 113.944 353.139C113.784 353.512 113.704 353.912 113.704 354.339V355.939C113.704 356.419 113.784 356.859 113.944 357.259C114.104 357.659 114.324 357.999 114.604 358.279C114.884 358.559 115.224 358.779 115.624 358.939C116.024 359.099 116.464 359.179 116.944 359.179ZM128.348 360.739C127.668 360.739 127.035 360.632 126.448 360.419C125.862 360.192 125.355 359.859 124.928 359.419C124.502 358.966 124.162 358.399 123.908 357.719C123.668 357.039 123.548 356.246 123.548 355.339V354.939C123.548 354.086 123.682 353.332 123.948 352.679C124.215 352.026 124.568 351.486 125.008 351.059C125.448 350.619 125.955 350.292 126.528 350.079C127.115 349.852 127.722 349.739 128.348 349.739C128.975 349.739 129.535 349.826 130.028 349.999C130.535 350.172 130.968 350.412 131.328 350.719C131.702 351.026 132.002 351.386 132.228 351.799C132.468 352.212 132.642 352.659 132.748 353.139H130.948C130.842 352.886 130.715 352.652 130.568 352.439C130.435 352.212 130.262 352.019 130.048 351.859C129.848 351.699 129.608 351.572 129.328 351.479C129.048 351.386 128.722 351.339 128.348 351.339C127.962 351.339 127.588 351.412 127.228 351.559C126.868 351.692 126.548 351.906 126.268 352.199C125.988 352.479 125.762 352.846 125.588 353.299C125.428 353.752 125.348 354.299 125.348 354.939V355.339C125.348 356.019 125.428 356.606 125.588 357.099C125.762 357.579 125.988 357.972 126.268 358.279C126.548 358.572 126.868 358.792 127.228 358.939C127.588 359.072 127.962 359.139 128.348 359.139C129.002 359.139 129.548 358.979 129.988 358.659C130.442 358.339 130.762 357.899 130.948 357.339H132.748C132.495 358.392 131.975 359.226 131.188 359.839C130.402 360.439 129.455 360.739 128.348 360.739ZM135.147 349.939H136.907V357.939L142.387 349.939H144.147V360.539H142.387V352.539L136.907 360.539H135.147V349.939ZM147.354 349.939H149.114V357.939L154.594 349.939H156.354V360.539H154.594V352.539L149.114 360.539H147.354V349.939ZM164.961 346.539H169.861C170.741 346.539 171.508 346.646 172.161 346.859C172.828 347.072 173.381 347.366 173.821 347.739C174.261 348.112 174.594 348.559 174.821 349.079C175.048 349.586 175.161 350.139 175.161 350.739C175.161 351.672 174.881 352.492 174.321 353.199C173.774 353.892 172.961 354.379 171.881 354.659L175.561 360.539H173.341L170.001 354.899H166.841V360.539H164.961V346.539ZM169.661 353.299C170.954 353.299 171.881 353.066 172.441 352.599C173.001 352.119 173.281 351.499 173.281 350.739C173.281 349.979 173.001 349.366 172.441 348.899C171.881 348.419 170.954 348.179 169.661 348.179H166.841V353.299H169.661ZM180.979 360.739C180.393 360.739 179.873 360.659 179.419 360.499C178.979 360.326 178.606 360.092 178.299 359.799C177.993 359.506 177.759 359.159 177.599 358.759C177.439 358.359 177.359 357.919 177.359 357.439C177.359 356.386 177.666 355.626 178.279 355.159C178.906 354.692 179.799 354.459 180.959 354.459H184.399V353.739C184.399 352.832 184.193 352.206 183.779 351.859C183.379 351.512 182.773 351.339 181.959 351.339C181.199 351.339 180.646 351.486 180.299 351.779C179.953 352.059 179.759 352.379 179.719 352.739H177.959C177.986 352.312 178.099 351.919 178.299 351.559C178.513 351.186 178.793 350.866 179.139 350.599C179.499 350.332 179.926 350.126 180.419 349.979C180.913 349.819 181.459 349.739 182.059 349.739C183.313 349.739 184.306 350.039 185.039 350.639C185.786 351.226 186.159 352.192 186.159 353.539V357.839C186.159 358.399 186.159 358.892 186.159 359.319C186.173 359.732 186.206 360.139 186.259 360.539H184.719C184.679 360.232 184.653 359.946 184.639 359.679C184.626 359.399 184.619 359.086 184.619 358.739C184.339 359.299 183.886 359.772 183.259 360.159C182.633 360.546 181.873 360.739 180.979 360.739ZM181.359 359.139C181.773 359.139 182.159 359.086 182.519 358.979C182.893 358.859 183.219 358.692 183.499 358.479C183.779 358.252 183.999 357.979 184.159 357.659C184.319 357.339 184.399 356.966 184.399 356.539V355.819H181.259C180.606 355.819 180.093 355.952 179.719 356.219C179.346 356.472 179.159 356.879 179.159 357.439C179.159 357.932 179.333 358.339 179.679 358.659C180.039 358.979 180.599 359.139 181.359 359.139ZM192.973 360.639C191.839 360.639 191.019 360.386 190.513 359.879C190.019 359.359 189.773 358.579 189.773 357.539V351.499H188.173V349.939H189.773V347.539H191.533V349.939H194.373V351.499H191.533V357.339C191.533 357.939 191.659 358.372 191.913 358.639C192.166 358.906 192.653 359.039 193.373 359.039C193.773 359.039 194.173 359.019 194.573 358.979V360.539C194.319 360.566 194.066 360.586 193.813 360.599C193.559 360.626 193.279 360.639 192.973 360.639ZM197.28 349.939H199.04V360.539H197.28V349.939ZM198.16 348.539C197.814 348.539 197.527 348.426 197.3 348.199C197.074 347.972 196.96 347.686 196.96 347.339C196.96 346.992 197.074 346.706 197.3 346.479C197.527 346.252 197.814 346.139 198.16 346.139C198.507 346.139 198.794 346.252 199.02 346.479C199.247 346.706 199.36 346.992 199.36 347.339C199.36 347.686 199.247 347.972 199.02 348.199C198.794 348.426 198.507 348.539 198.16 348.539ZM202.432 349.939H204.072V351.939C204.192 351.646 204.359 351.366 204.572 351.099C204.785 350.832 205.039 350.599 205.332 350.399C205.639 350.199 205.985 350.039 206.372 349.919C206.772 349.799 207.212 349.739 207.692 349.739C209.025 349.739 210.012 350.099 210.652 350.819C211.305 351.526 211.632 352.566 211.632 353.939V360.539H209.872V354.339C209.872 353.352 209.665 352.606 209.252 352.099C208.839 351.592 208.145 351.339 207.172 351.339C206.652 351.339 206.199 351.426 205.812 351.599C205.439 351.772 205.132 351.999 204.892 352.279C204.652 352.559 204.472 352.879 204.352 353.239C204.245 353.599 204.192 353.966 204.192 354.339V360.539H202.432V349.939ZM218.937 364.739C218.163 364.739 217.503 364.659 216.957 364.499C216.41 364.352 215.957 364.146 215.597 363.879C215.25 363.612 214.983 363.292 214.797 362.919C214.61 362.559 214.49 362.166 214.437 361.739H216.277C216.343 361.952 216.437 362.146 216.557 362.319C216.677 362.492 216.837 362.639 217.037 362.759C217.237 362.879 217.49 362.972 217.797 363.039C218.117 363.106 218.497 363.139 218.937 363.139C220.017 363.139 220.81 362.879 221.317 362.359C221.823 361.839 222.077 361.099 222.077 360.139V358.439C221.77 359.146 221.297 359.672 220.657 360.019C220.03 360.366 219.29 360.539 218.437 360.539C217.783 360.539 217.183 360.426 216.637 360.199C216.103 359.972 215.643 359.639 215.257 359.199C214.87 358.759 214.57 358.212 214.357 357.559C214.143 356.892 214.037 356.119 214.037 355.239V354.839C214.037 354.026 214.143 353.306 214.357 352.679C214.583 352.039 214.89 351.506 215.277 351.079C215.663 350.639 216.123 350.306 216.657 350.079C217.203 349.852 217.797 349.739 218.437 349.739C219.343 349.739 220.13 349.946 220.797 350.359C221.463 350.759 221.93 351.286 222.197 351.939V349.939H223.837V360.139C223.837 361.579 223.417 362.706 222.577 363.519C221.737 364.332 220.523 364.739 218.937 364.739ZM218.837 358.979C219.317 358.979 219.757 358.906 220.157 358.759C220.557 358.599 220.897 358.379 221.177 358.099C221.457 357.819 221.677 357.486 221.837 357.099C221.997 356.712 222.077 356.292 222.077 355.839V354.239C222.077 353.839 221.997 353.459 221.837 353.099C221.677 352.739 221.457 352.426 221.177 352.159C220.897 351.892 220.557 351.686 220.157 351.539C219.757 351.379 219.317 351.299 218.837 351.299C218.41 351.299 218.01 351.379 217.637 351.539C217.263 351.699 216.937 351.932 216.657 352.239C216.39 352.546 216.177 352.919 216.017 353.359C215.87 353.786 215.797 354.279 215.797 354.839V355.239C215.797 355.839 215.87 356.372 216.017 356.839C216.177 357.306 216.39 357.699 216.657 358.019C216.937 358.339 217.263 358.579 217.637 358.739C218.01 358.899 218.41 358.979 218.837 358.979ZM227.041 349.939H228.681V351.939C228.908 351.312 229.281 350.792 229.801 350.379C230.335 349.952 230.981 349.739 231.741 349.739C232.008 349.739 232.221 349.752 232.381 349.779C232.555 349.806 232.708 349.839 232.841 349.879V351.519C232.668 351.452 232.495 351.406 232.321 351.379C232.161 351.352 231.935 351.339 231.641 351.339C231.241 351.339 230.868 351.412 230.521 351.559C230.175 351.706 229.875 351.912 229.621 352.179C229.368 352.432 229.168 352.746 229.021 353.119C228.875 353.492 228.801 353.899 228.801 354.339V360.539H227.041V349.939ZM238.574 360.739C237.294 360.739 236.334 360.372 235.694 359.639C235.054 358.906 234.734 357.772 234.734 356.239V349.939H236.494V356.139C236.494 357.126 236.694 357.872 237.094 358.379C237.508 358.886 238.174 359.139 239.094 359.139C239.588 359.139 240.014 359.052 240.374 358.879C240.748 358.706 241.048 358.479 241.274 358.199C241.514 357.919 241.688 357.599 241.794 357.239C241.914 356.879 241.974 356.512 241.974 356.139V349.939H243.734V360.539H242.094V358.539C241.974 358.832 241.808 359.112 241.594 359.379C241.394 359.646 241.141 359.879 240.834 360.079C240.541 360.279 240.201 360.439 239.814 360.559C239.441 360.679 239.028 360.739 238.574 360.739ZM246.944 349.939H248.584V351.939C248.704 351.646 248.87 351.366 249.084 351.099C249.297 350.832 249.55 350.599 249.844 350.399C250.15 350.199 250.497 350.039 250.884 349.919C251.284 349.799 251.724 349.739 252.204 349.739C253.537 349.739 254.524 350.099 255.164 350.819C255.817 351.526 256.144 352.566 256.144 353.939V360.539H254.384V354.339C254.384 353.352 254.177 352.606 253.764 352.099C253.35 351.592 252.657 351.339 251.684 351.339C251.164 351.339 250.71 351.426 250.324 351.599C249.95 351.772 249.644 351.999 249.404 352.279C249.164 352.559 248.984 352.879 248.864 353.239C248.757 353.599 248.704 353.966 248.704 354.339V360.539H246.944V349.939ZM263.648 360.739C262.968 360.739 262.322 360.632 261.708 360.419C261.095 360.206 260.555 359.879 260.088 359.439C259.622 358.986 259.248 358.419 258.968 357.739C258.688 357.059 258.548 356.259 258.548 355.339V354.939C258.548 354.059 258.682 353.299 258.948 352.659C259.215 352.006 259.568 351.466 260.008 351.039C260.462 350.599 260.982 350.272 261.568 350.059C262.168 349.846 262.795 349.739 263.448 349.739C265.008 349.739 266.215 350.166 267.068 351.019C267.922 351.872 268.348 353.079 268.348 354.639V355.759H260.308C260.308 356.386 260.408 356.912 260.608 357.339C260.808 357.766 261.068 358.112 261.388 358.379C261.708 358.646 262.062 358.839 262.448 358.959C262.848 359.079 263.248 359.139 263.648 359.139C264.448 359.139 265.062 359.006 265.488 358.739C265.928 358.472 266.242 358.106 266.428 357.639H268.148C268.042 358.146 267.848 358.592 267.568 358.979C267.302 359.366 266.968 359.692 266.568 359.959C266.182 360.212 265.735 360.406 265.228 360.539C264.735 360.672 264.208 360.739 263.648 360.739ZM263.548 351.339C263.135 351.339 262.735 351.399 262.348 351.519C261.962 351.626 261.615 351.806 261.308 352.059C261.015 352.299 260.775 352.606 260.588 352.979C260.402 353.352 260.308 353.799 260.308 354.319H266.688C266.675 353.772 266.582 353.312 266.408 352.939C266.248 352.552 266.028 352.246 265.748 352.019C265.468 351.779 265.135 351.606 264.748 351.499C264.375 351.392 263.975 351.339 263.548 351.339ZM274.75 360.639C273.617 360.639 272.797 360.386 272.29 359.879C271.797 359.359 271.55 358.579 271.55 357.539V351.499H269.95V349.939H271.55V347.539H273.31V349.939H276.15V351.499H273.31V357.339C273.31 357.939 273.437 358.372 273.69 358.639C273.943 358.906 274.43 359.039 275.15 359.039C275.55 359.039 275.95 359.019 276.35 358.979V360.539C276.097 360.566 275.843 360.586 275.59 360.599C275.337 360.626 275.057 360.639 274.75 360.639ZM281.878 360.739C281.291 360.739 280.771 360.659 280.318 360.499C279.878 360.326 279.504 360.092 279.198 359.799C278.891 359.506 278.658 359.159 278.498 358.759C278.338 358.359 278.258 357.919 278.258 357.439C278.258 356.386 278.564 355.626 279.178 355.159C279.804 354.692 280.698 354.459 281.858 354.459H285.298V353.739C285.298 352.832 285.091 352.206 284.678 351.859C284.278 351.512 283.671 351.339 282.858 351.339C282.098 351.339 281.544 351.486 281.198 351.779C280.851 352.059 280.658 352.379 280.618 352.739H278.858C278.884 352.312 278.998 351.919 279.198 351.559C279.411 351.186 279.691 350.866 280.038 350.599C280.398 350.332 280.824 350.126 281.318 349.979C281.811 349.819 282.358 349.739 282.958 349.739C284.211 349.739 285.204 350.039 285.938 350.639C286.684 351.226 287.058 352.192 287.058 353.539V357.839C287.058 358.399 287.058 358.892 287.058 359.319C287.071 359.732 287.104 360.139 287.158 360.539H285.618C285.578 360.232 285.551 359.946 285.538 359.679C285.524 359.399 285.518 359.086 285.518 358.739C285.238 359.299 284.784 359.772 284.158 360.159C283.531 360.546 282.771 360.739 281.878 360.739ZM282.258 359.139C282.671 359.139 283.058 359.086 283.418 358.979C283.791 358.859 284.118 358.692 284.398 358.479C284.678 358.252 284.898 357.979 285.058 357.659C285.218 357.339 285.298 356.966 285.298 356.539V355.819H282.158C281.504 355.819 280.991 355.952 280.618 356.219C280.244 356.472 280.058 356.879 280.058 357.439C280.058 357.932 280.231 358.339 280.578 358.659C280.938 358.979 281.498 359.139 282.258 359.139Z" fill="white"/>
<defs>
<clipPath id="clip0_1768_12038">
<rect width="146" height="57" fill="white" transform="translate(114.998 39.9482)"/>
</clipPath>
</defs>
</svg>
