<svg width="322" height="302" viewBox="0 0 322 302" fill="none" xmlns="http://www.w3.org/2000/svg">
<path d="M101.639 108.69C113.489 122.122 133.3 130.727 164.961 124.901" stroke="white" stroke-width="3" stroke-linecap="square"/>
<path d="M153.736 85.6323C150.058 90.8049 140.628 90.3381 137.188 85.6324" stroke="white" stroke-width="3" stroke-linecap="square"/>
<path d="M144.198 185.04H145.218L145.198 184.021C145.149 181.56 144.222 179.137 143.343 176.841L143.309 176.752C142.363 174.281 141.464 171.906 141.36 169.401C141.248 166.698 141.813 164.229 143.343 162.446C144.853 160.686 147.456 159.417 151.811 159.417C157.723 159.417 162.437 164.148 161.829 170.425C161.585 172.944 160.882 175.056 160.194 177.113L160.167 177.196C159.425 179.412 158.679 181.643 158.791 184.086L158.835 185.04H159.79H183.745C188.257 185.04 191.915 188.698 191.915 193.211V216.625V217.528L192.813 217.62C194.676 217.809 196.842 217.531 199.155 216.324C201.954 214.864 206.35 214.273 210.001 215.362C211.808 215.9 213.383 216.835 214.506 218.227C215.622 219.61 216.35 221.515 216.35 224.108C216.35 228.994 214.099 231.816 211.291 233.336C208.41 234.895 204.884 235.107 202.462 234.562C200.518 234.124 199.327 233.404 198.188 232.712L198.162 232.696C196.736 231.83 195.317 230.967 192.842 231.147L191.915 231.215V232.145V256.32C191.915 260.832 188.257 264.49 183.745 264.49H119.453C114.941 264.49 111.283 260.832 111.283 256.32V231.705C112.048 231.618 112.611 231.677 113.076 231.803C113.715 231.976 114.245 232.291 114.976 232.735L114.987 232.742C115.977 233.343 117.192 234.082 119.132 234.518C121.553 235.063 124.99 234.86 127.86 233.307C130.803 231.714 133.092 228.724 133.092 223.905C133.092 221.352 132.367 219.322 131.128 217.788C129.898 216.262 128.218 215.298 126.422 214.762C122.868 213.702 118.666 214.261 115.896 215.706C114.155 216.614 112.585 216.751 111.283 216.562V193.211C111.283 188.698 114.941 185.04 119.453 185.04H144.198Z" fill="#DBFF00" stroke="black" stroke-width="2"/>
<path d="M122.921 125.078L123.169 124.182L122.294 123.869C119.957 123.036 118.359 123.488 116.753 123.943L116.724 123.951C115.442 124.314 114.102 124.691 112.112 124.594C109.631 124.473 106.29 123.328 103.93 121.057C101.629 118.843 100.212 115.523 101.515 110.814C102.207 108.315 103.417 106.673 104.861 105.638C106.315 104.596 108.083 104.115 109.967 104.078C113.777 104.002 117.856 105.745 120.164 107.899C122.071 109.68 124.084 110.525 125.93 110.84L126.82 110.991L127.061 110.121L133.307 87.5548C134.511 83.206 139.012 80.6564 143.361 81.8601L205.322 99.0106C209.671 100.214 212.221 104.715 211.017 109.064L194.182 169.886C193.221 173.359 190.155 175.687 186.743 175.868C185.822 175.226 184.78 174.728 183.64 174.412L161.523 168.29C162.07 166.686 163.037 165.235 164.183 163.535L164.201 163.508C165.402 161.725 166.758 159.712 167.751 157.125C170.457 150.077 166.474 143.074 159.699 141.199C155.123 139.933 151.628 140.415 149.08 142.127C146.558 143.821 145.16 146.592 144.482 149.507C143.833 152.294 144.104 155.126 144.349 157.684L144.356 157.756C144.561 159.897 144.738 161.823 144.488 163.575L121.679 157.262C120.848 157.032 120.012 156.912 119.186 156.893C116.749 154.906 115.581 151.599 116.472 148.377L122.921 125.078Z" fill="#110545" stroke="#DBFF00" stroke-width="2"/>
<path d="M184.896 84.5404V76.5921C186.265 78.4761 193.236 80.6441 194.314 71.8067C195.661 60.7599 192.844 50.8611 187.59 51.3999C183.387 51.831 182.965 56.4294 183.279 58.6747" stroke="white" stroke-width="3" stroke-linecap="square"/>
<path d="M98.4166 52.4184C108.031 48.3638 109.537 54.1012 118.617 49.3068C134.938 40.6892 125.06 27.3068 143.809 23.5759C155.986 40.5178 164.605 23.1805 170.348 42.4363C172.637 50.1104 180.561 49.3078 189.864 48.3656L189.882 48.3638C192.074 36.5789 187.682 28.6951 183.281 24.7883C183.775 19.9834 182.904 13.6229 175.576 8.23426C168.247 2.84558 158.897 1.39247 155.125 3.63776C153.194 1.57208 142.15 -0.723135 131.65 0.582888C120.332 1.99076 107.913 7.17886 108.734 20.1954C97.0073 21.1336 94.695 40.0678 98.4166 52.4184Z" fill="white"/>
<path d="M75.5355 248.174C57.4072 229.476 67.6727 202.105 80.5187 190.367L3.4424 197.676C-7.18889 258.141 28.6917 288.042 65.2368 297.012C101.782 305.982 136.495 292.621 154.722 278.315C163.595 271.352 175.946 258.39 171.431 255.04C169.017 252.626 166.36 258.493 161.507 262.905C168.384 253.737 171.852 246.793 168.95 245.428C164.432 243.301 159.353 254.408 153.632 260.233C158.838 253.59 167.339 242.447 162.912 240.865C157.97 239.1 150.676 252.437 144.307 257.145C149.769 252.012 159.943 238.212 153.277 236.879C148.294 235.882 142.314 250.168 129.689 257.145C117.064 264.121 96.2813 269.572 75.5355 248.174Z" fill="#110545"/>
<path d="M80.5187 190.367C67.6727 202.105 57.4072 229.476 75.5355 248.174C96.2813 269.572 117.064 264.121 129.689 257.144C142.314 250.168 148.294 235.882 153.277 236.878C159.943 238.212 149.769 252.012 144.307 257.144C150.676 252.436 157.97 239.1 162.912 240.865C167.339 242.446 158.838 253.589 153.632 260.233C159.353 254.408 164.432 243.301 168.95 245.427C171.852 246.793 168.384 253.737 161.507 262.904C166.36 258.493 169.017 252.626 171.431 255.04C175.946 258.389 163.595 271.352 154.722 278.315C136.495 292.62 101.782 305.982 65.2368 297.012C28.6917 288.042 -7.18889 258.141 3.4424 197.676C14.0737 137.21 61.4917 120.255 83.5203 113.216C92.8499 110.235 107.087 110.748 108.308 97.0529C108.961 89.7308 107.319 81.9496 107.43 79.7347C105.314 81.7475 101.637 81.35 99.3372 77.5556C95.6904 71.5384 93.8144 54.3335 103.883 53.8847C108.007 53.7009 108.308 57.925 108.308 60.5544" stroke="white" stroke-width="3" stroke-linecap="round" stroke-linejoin="round"/>
<path d="M112.029 263.826C109.686 275.534 112.935 286.209 120.964 294.115" stroke="white" stroke-width="3" stroke-linecap="square"/>
<circle cx="132" cy="60.1914" r="3.41602" fill="white"/>
<circle cx="157.152" cy="60.1914" r="3.41602" fill="white"/>
<path d="M230.2 204.879C238.021 195.791 250.505 171.775 241.4 142.704C235.454 121.486 222.294 105.935 212.474 104.766C202.655 103.596 200.369 114.877 196.248 112.545C193.095 110.76 196.992 103.279 203.872 98.4306C196.526 102.965 192.438 112.476 187.965 111.238C185.257 110.155 186.022 106.65 189.018 102.539C185.385 106.728 182.525 110.095 179.834 108.987C176.537 107.629 177.435 104.424 179.702 101.169C178.574 101.841 175.282 105.402 173.314 102.495C170.854 98.8624 182.677 85.2475 197.302 82.4928C243.041 76.441 288.664 133.256 294.994 178.457L230.2 204.879Z" fill="white"/>
<path d="M230.2 204.879C238.021 195.791 250.505 171.775 241.4 142.704C235.454 121.486 222.294 105.935 212.474 104.766C202.655 103.596 200.369 114.877 196.248 112.545C193.095 110.76 196.992 103.279 203.872 98.4306C196.526 102.965 192.438 112.476 187.965 111.238C183.6 109.492 188.257 101.456 196.738 94.7314C188.966 100.894 184.18 110.777 179.834 108.987C172.762 106.074 184.992 94.6579 188.637 92.4892M179.702 101.169C178.574 101.841 175.282 105.402 173.314 102.495C170.854 98.8624 182.677 85.2475 197.302 82.4928C243.041 76.441 288.664 133.256 294.994 178.457C298.201 201.366 293.453 226.673 272.488 251.927C245.542 284.384 202.901 278.359 171.129 265.412" stroke="#110545" stroke-width="3" stroke-linecap="round" stroke-linejoin="round"/>
</svg>
