<svg width="380" height="449" viewBox="0 0 380 449" fill="none" xmlns="http://www.w3.org/2000/svg">
<path d="M4.56641 413.417C15.6457 422.459 21.8117 427.017 24.2341 433.495M4.56641 413.417C15.8659 413.417 22.2522 413.177 32.1619 408.784M4.56641 413.417C110.864 449.402 179.936 461.279 195.279 425.067C200.565 412.593 201.979 388.466 188.043 381.433C177.99 376.359 167.548 385.594 188.043 394.916C204.358 402.336 219.958 406.834 234.776 408.784C403.024 430.923 427.4 64.9673 283.759 56.1836" stroke="#110545" stroke-width="3" stroke-linecap="round"/>
<path d="M236.399 15.2745L251.737 33.9684L268.368 16.4163L265.995 40.48L290.167 39.8292L271.473 55.1665L289.025 71.7984L264.961 69.4249L265.612 93.5966L250.275 74.9027L233.643 92.4548L236.016 68.3911L211.845 69.0419L230.539 53.7046L212.986 37.0728L237.05 39.4462L236.399 15.2745Z" fill="#110545"/>
<path d="M245.382 39.3563L251.552 48.5057L259.288 40.6365L255.982 51.165L266.958 52.3074L256.665 56.2868L262.615 65.5806L253.087 60.0144L249.53 70.4611L247.941 59.5407L237.556 63.2737L245.103 55.2225L235.71 49.4308L246.71 50.3114L245.382 39.3563Z" fill="white"/>
</svg>
