<svg width="349" height="354" viewBox="0 0 349 354" fill="none" xmlns="http://www.w3.org/2000/svg">
<path d="M234.597 0.691406L245.302 33.2389L277.849 43.9432L245.302 54.6474L234.597 87.1949L223.893 54.6474L191.346 43.9432L223.893 33.2389L234.597 0.691406Z" fill="#DBFF00"/>
<path d="M234.596 29.1924L239.29 39.2495L249.347 43.9431L239.29 48.6368L234.596 58.6939L229.903 48.6368L219.846 43.9431L229.903 39.2495L234.596 29.1924Z" fill="#110545"/>
<path d="M4.70898 331.861C15.7883 340.903 21.9543 345.462 24.3767 351.939M4.70898 331.861C16.0085 331.861 22.3947 331.621 32.3044 327.228M4.70898 331.861C111.007 367.846 164.351 327.228 173.877 281.485C180.864 247.93 164.897 236.459 154.958 244.944C139.204 258.392 180.383 281.921 227.234 275.486C267.874 269.904 301.968 240.923 323.137 206.93C362.942 143.01 357.092 58.243 282.412 34.3457" stroke="#110545" stroke-width="3" stroke-linecap="round"/>
</svg>
