<svg width="91" height="91" viewBox="0 0 91 91" fill="none" xmlns="http://www.w3.org/2000/svg">
<path d="M43.5321 0.210938H47.6812C46.2093 35.9435 46.3497 55.5972 47.6812 90.1494H43.5321C44.6088 54.8856 44.6525 35.1808 43.5321 0.210938Z" fill="#DBFF00"/>
<path d="M90.5771 43.1064L90.5771 47.2555C54.8446 45.7836 35.1909 45.924 0.638674 47.2555L0.638674 43.1064C35.9024 44.1831 55.6073 44.2268 90.5771 43.1064Z" fill="#DBFF00"/>
<path d="M12.3418 14.8496L15.2756 11.9158C39.5016 38.2233 53.4981 52.0213 78.8717 75.5119L75.9379 78.4457C51.764 52.7491 37.8615 38.7848 12.3418 14.8496Z" fill="#DBFF00"/>
<path d="M75.9395 11.916L78.8733 14.8498C52.5657 39.0758 38.7678 53.0723 15.2771 78.4459L12.3433 75.5121C38.0399 51.3382 52.0043 37.4357 75.9395 11.916Z" fill="#DBFF00"/>
<path d="M45.6101 28.0264L48.5642 38.0487L57.7399 33.0507L52.7419 42.2264L62.7642 45.1804L52.7419 48.1345L57.7399 57.3102L48.5642 52.3122L45.6101 62.3345L42.6561 52.3122L33.4804 57.3102L38.4784 48.1345L28.4561 45.1804L38.4784 42.2264L33.4804 33.0507L42.6561 38.0487L45.6101 28.0264Z" fill="#DBFF00"/>
<path d="M45.6101 38.9062L47.0267 41.7604L50.0466 40.7439L49.03 43.7638L51.8842 45.1804L49.03 46.597L50.0466 49.6169L47.0267 48.6003L45.6101 51.4545L44.1935 48.6003L41.1736 49.6169L42.1901 46.597L39.3359 45.1804L42.1901 43.7638L41.1736 40.7439L44.1935 41.7604L45.6101 38.9062Z" fill="#110545"/>
</svg>
