<svg width="144" height="144" viewBox="0 0 144 144" fill="none" xmlns="http://www.w3.org/2000/svg">
<circle cx="72.2426" cy="71.5681" r="71.4678" transform="rotate(6.8195 72.2426 71.5681)" fill="url(#paint0_linear_1363_7865)"/>
<circle cx="72.2426" cy="71.5681" r="70.9283" transform="rotate(6.8195 72.2426 71.5681)" stroke="url(#paint1_linear_1363_7865)" stroke-width="1.07916"/>
<mask id="mask0_1363_7865" style="mask-type:alpha" maskUnits="userSpaceOnUse" x="27" y="27" width="90" height="89">
<circle cx="72.1527" cy="71.5681" r="44.4186" transform="rotate(6.8195 72.1527 71.5681)" fill="#8B8AFF"/>
</mask>
<g mask="url(#mask0_1363_7865)">
<circle cx="72.1527" cy="71.5681" r="44.4186" transform="rotate(6.8195 72.1527 71.5681)" fill="#3852CE"/>
</g>
<path d="M89.9876 67.5155L88.2486 67.3076L88.5251 64.9956L85.8442 64.675L86.0881 62.6362L82.0124 62.1488L82.2062 60.5286L77.7502 59.9957L75.7939 59.7618L75.3048 59.7033L75.5856 57.3549L71.4738 56.8632L72.9193 44.7756L70.5283 44.4897L70.7721 42.4508L64.9032 41.7489L64.6594 43.7878L62.1415 43.4867L59.1111 68.827L58.3322 68.7338L58.5957 66.5311L51.0059 65.6235L50.9929 65.7327L50.0147 65.6157L48.9654 74.3902L51.7912 74.7281L51.4341 77.7136L53.7165 77.9865L53.2223 82.1189L55.7401 82.42L55.1807 87.0985L56.9196 87.3064L56.334 92.2034L58.8518 92.5045L58.4904 95.5264L58.1029 98.7667L61.5808 99.1826L62.9031 99.3408L62.8945 99.413L77.3856 101.146L77.3942 101.074L77.992 101.145L80.6547 101.464L81.4336 101.557L82.57 92.0542L85.0516 92.351L85.9725 84.6506L87.9288 84.8845L90.0057 67.5177L89.9876 67.5155ZM61.9321 95.938L62.5111 91.0956L59.9933 90.7945L60.4766 86.7532L58.7377 86.5452L59.3233 81.6483L56.8055 81.3472L57.3649 76.6687L55.0826 76.3958L55.3613 74.0656L52.5536 73.7299L53.0978 69.1788L57.1191 69.6597L56.8557 71.8624L58.7215 72.0855L57.8115 79.6949L61.2893 80.1108L65.4735 45.1223L69.2956 45.5794L66.411 69.7L69.8889 70.1159L71.0841 60.1218L74.1997 60.4944L72.8782 71.5443L76.3561 71.9602L77.3967 63.2586L80.5304 63.6334L80.3367 65.2535L84.5029 65.7518L84.259 67.7906L86.4327 68.0506L84.5866 83.4878L82.6303 83.2538L81.7682 90.4627L79.3047 90.1681L78.3817 97.8867L61.9342 95.9198L61.9321 95.938Z" fill="#FFF6B3"/>
<path d="M92.2679 67.7882L90.5289 67.5803L90.8054 65.2683L88.1246 64.9477L88.3684 62.9088L84.2928 62.4215L84.4865 60.8013L80.0305 60.2684L78.0742 60.0344L77.5851 59.976L77.8659 57.6276L73.736 57.1337L75.1815 45.0461L72.7905 44.7602L73.0343 42.7213L67.1654 42.0194L66.9216 44.0583L64.4037 43.7572L61.3733 69.0975L60.5944 69.0044L60.8579 66.8016L53.2681 65.894L53.2551 66.0032L52.2769 65.8862L51.2276 74.6607L54.0534 74.9986L53.6963 77.9841L55.9787 78.257L55.4845 82.3894L58.0023 82.6905L57.4429 87.369L59.1818 87.577L58.5962 92.4739L61.114 92.775L60.7526 95.7969L60.3651 99.0372L63.843 99.4532L65.1653 99.6113L65.1567 99.6835L79.6478 101.417L79.6564 101.344L80.2542 101.416L82.935 101.736L83.7139 101.829L84.8503 92.3269L87.3138 92.6215L88.2347 84.9211L90.191 85.155L92.2679 67.7882ZM64.2124 96.2106L64.7915 91.3683L62.2736 91.0672L62.7569 87.0259L61.018 86.8179L61.6036 81.921L59.0858 81.6199L59.6453 76.9414L57.3629 76.6684L57.6416 74.3383L54.8158 74.0004L55.3601 69.4493L59.3813 69.9302L59.1179 72.1329L60.9837 72.3561L60.0737 79.9654L63.5515 80.3813L67.7357 45.3928L71.5578 45.8499L68.6732 69.9705L72.1511 70.3864L73.3463 60.3923L76.4619 60.7649L75.1404 71.8148L78.6183 72.2307L79.6589 63.5291L82.7926 63.9039L82.5989 65.524L86.7651 66.0223L86.5212 68.0611L88.6949 68.3211L86.8488 83.7583L84.8925 83.5243L84.0304 90.7332L81.5669 90.4386L80.6439 98.1572L64.2146 96.1924L64.2124 96.2106Z" fill="#AA7249"/>
<path d="M92.2679 67.7882L90.5289 67.5803L90.8054 65.2683L88.1246 64.9477L88.3684 62.9088L84.2928 62.4215L84.4865 60.8013L80.0305 60.2684L78.0742 60.0344L77.5851 59.976L77.8659 57.6276L73.736 57.1337L75.1815 45.0461L72.7905 44.7602L73.0343 42.7213L67.1654 42.0194L66.9216 44.0583L64.4037 43.7572L61.3733 69.0975L60.5944 69.0044L60.8579 66.8016L53.2681 65.894L53.2551 66.0032L52.2769 65.8862L51.2276 74.6607L54.0534 74.9986L53.6963 77.9841L55.9787 78.257L55.4845 82.3894L58.0023 82.6905L57.4429 87.369L59.1818 87.577L58.5962 92.4739L61.114 92.775L60.7526 95.7969L60.3651 99.0372L63.843 99.4532L65.1653 99.6113L65.1567 99.6835L79.6478 101.417L79.6564 101.344L80.2542 101.416L82.935 101.736L83.7139 101.829L84.8503 92.3269L87.3138 92.6215L88.2347 84.9211L90.191 85.155L92.2679 67.7882ZM64.2124 96.2106L64.7915 91.3683L62.2736 91.0672L62.7569 87.0259L61.018 86.8179L61.6036 81.921L59.0858 81.6199L59.6453 76.9414L57.3629 76.6684L57.6416 74.3383L54.8158 74.0004L55.3601 69.4493L59.3813 69.9302L59.1179 72.1329L60.9837 72.3561L60.0737 79.9654L63.5515 80.3813L67.7357 45.3928L71.5578 45.8499L68.6732 69.9705L72.1511 70.3864L73.3463 60.3923L76.4619 60.7649L75.1404 71.8148L78.6183 72.2307L79.6589 63.5291L82.7926 63.9039L82.5989 65.524L86.7651 66.0223L86.5212 68.0611L88.6949 68.3211L86.8488 83.7583L84.8925 83.5243L84.0304 90.7332L81.5669 90.4386L80.6439 98.1572L64.2146 96.1924L64.2124 96.2106Z" fill="url(#paint2_linear_1363_7865)"/>
<path d="M32.6154 36.4522L28.8681 35.4909L26.0202 38.1092L25.7764 34.2483L22.4062 32.3488L26.0028 30.9239L26.7679 27.1317L29.2345 30.1119L33.0775 29.6677L31.0054 32.9345L32.6154 36.4522Z" fill="#110545"/>
<path d="M60.4862 14.9417C59.7095 15.1814 58.9815 15.1265 58.3025 14.777C57.6311 14.413 57.1807 13.8592 56.9513 13.1158C56.7218 12.3723 56.7836 11.6666 57.1365 10.9986C57.4971 10.3162 58.0658 9.85506 58.8426 9.61536C59.6193 9.37567 60.3434 9.43783 61.0148 9.80185C61.6938 10.1514 62.1481 10.6978 62.3775 11.4413C62.6069 12.1848 62.5469 12.896 62.1974 13.5751C61.8445 14.2431 61.2741 14.6986 60.4862 14.9417ZM53.2001 11.5935L55.1143 11.0029L58.7098 22.6543L57.2118 23.1165L49.2792 16.9052L51.719 24.8115L49.8048 25.4022L46.2093 13.7508L47.7073 13.2885L55.64 19.4998L53.2001 11.5935ZM60.0239 13.4437C60.3679 13.3375 60.6111 13.141 60.7535 12.854C60.8958 12.567 60.9156 12.257 60.8129 11.9241C60.7102 11.5912 60.5136 11.3481 60.2232 11.1946C59.9438 11.0377 59.6377 11.0107 59.3048 11.1134C58.9719 11.2161 58.7288 11.4127 58.5753 11.7031C58.433 11.9901 58.4132 12.3001 58.5159 12.633C58.6186 12.9659 58.8096 13.2107 59.089 13.3676C59.3794 13.5211 59.691 13.5464 60.0239 13.4437ZM58.8216 18.4086L58.2977 16.7109L63.3244 15.1597L63.8483 16.8575L58.8216 18.4086Z" fill="#110545"/>
<path d="M68.9658 8.75718L70.7059 8.67666L71.2695 20.8572L69.2684 20.9498L68.8038 10.9095L66.3825 11.7191L65.8164 10.0364L68.9658 8.75718Z" fill="#110545"/>
<path d="M89.4119 17.1317C89.8601 17.5344 90.1698 18.0095 90.3411 18.5569C90.5124 19.1044 90.5186 19.6875 90.3599 20.3062C90.1117 21.2735 89.5623 21.9898 88.7117 22.455C87.861 22.9201 86.9408 23.0257 85.9509 22.7717L80.889 21.4732L83.919 9.66208L88.6097 10.8654C89.5771 11.1136 90.3118 11.6378 90.8139 12.438C91.3301 13.2298 91.4684 14.0925 91.2289 15.0262C90.9663 16.0498 90.3606 16.7516 89.4119 17.1317ZM88.1422 12.6877L85.3919 11.9822L84.5954 15.0868L87.3457 15.7923C87.7732 15.902 88.1707 15.8481 88.5382 15.6307C88.9085 15.402 89.15 15.0683 89.2625 14.6296C89.3751 14.1909 89.3226 13.7878 89.1052 13.4203C88.8907 13.0416 88.5697 12.7974 88.1422 12.6877ZM86.4184 20.9495C86.8683 21.0649 87.2855 21.0041 87.6701 20.767C88.0687 20.5216 88.3272 20.1683 88.4455 19.7071C88.5638 19.2459 88.5059 18.8175 88.2717 18.4217C88.0517 18.0176 87.7167 17.7578 87.2668 17.6424L84.1453 16.8416L83.2969 20.1487L86.4184 20.9495Z" fill="#110545"/>
<path d="M113.729 23.912L106.643 33.8355L105.013 32.6714L110.064 25.5974L103.481 28.4314L103.283 28.2897L103.836 21.1293L98.7751 28.2175L97.1448 27.0534L104.231 17.13L105.988 18.3851L105.437 25.4827L111.985 22.667L113.729 23.912Z" fill="#110545"/>
<path d="M115.983 42.5096C114.271 42.3087 112.867 41.5157 111.773 40.1306C110.679 38.7455 110.228 37.192 110.422 35.4702C110.632 33.7503 111.43 32.3433 112.815 31.2491C114.2 30.1549 115.749 29.7082 117.462 29.9092C119.191 30.112 120.602 30.906 121.696 32.2911C122.791 33.6762 123.233 35.2287 123.023 36.9486C122.829 38.6704 122.039 40.0784 120.654 41.1726C119.269 42.2668 117.712 42.7125 115.983 42.5096ZM112.363 35.7351C112.234 36.9023 112.548 37.9644 113.304 38.9212C114.06 39.878 115.017 40.4243 116.175 40.5602C117.349 40.698 118.428 40.3781 119.413 39.6007C120.397 38.8232 120.953 37.8509 121.082 36.6837C121.227 35.5184 120.921 34.4573 120.166 33.5005C119.41 32.5437 118.445 31.9964 117.27 31.8586C116.112 31.7227 115.041 32.0435 114.057 32.821C113.073 33.5985 112.508 34.5698 112.363 35.7351Z" fill="#110545"/>
<path d="M125.626 48.226C126.088 49.2534 126.148 50.2513 125.807 51.2196C125.465 52.1879 124.802 52.8934 123.817 53.336C122.832 53.7787 121.864 53.8063 120.913 53.4187C119.962 53.0311 119.256 52.3236 118.794 51.2961L116.902 47.0856L128.024 42.0876L131.095 48.9199L129.347 49.7052L127.098 44.7003L124.556 45.8426L125.626 48.226ZM120.51 50.525C120.734 51.0229 121.073 51.367 121.528 51.5573C121.998 51.7534 122.487 51.7373 122.996 51.5088C123.504 51.2803 123.836 50.9276 123.991 50.4506C124.161 49.9794 124.134 49.4949 123.911 48.9971L122.84 46.6137L119.439 48.1417L120.51 50.525Z" fill="#110545"/>
<path d="M122.683 64.5663L130.798 62.951L121.561 58.9285L121.255 57.3909L133.214 55.0105L133.605 56.9752L125.49 58.5905L134.727 62.613L135.033 64.1506L123.074 66.531L122.683 64.5663Z" fill="#110545"/>
<path d="M123.337 68.4825L125.182 68.5681C125.042 69.3289 125.201 69.9059 125.659 70.2992C126.117 70.704 127.019 70.9377 128.365 71.0001L135.412 71.3271L135.033 79.488L122.853 78.9229L122.946 76.9218L133.212 77.3981L133.405 73.2393L128.307 73.0028C127.239 72.9533 126.346 72.7956 125.626 72.5297C124.905 72.2754 124.369 71.9308 124.017 71.4959C123.677 71.0616 123.454 70.5979 123.349 70.1048C123.255 69.6238 123.251 69.083 123.337 68.4825Z" fill="#110545"/>
<path d="M128.946 87.7429C128.64 88.8511 128.01 89.6711 127.056 90.2029C126.11 90.749 125.095 90.8722 124.009 90.5725C122.912 90.2697 122.097 89.6414 121.565 88.6874C121.03 87.7447 120.916 86.7192 121.222 85.6109L122.418 81.2787L134.172 84.523L133.639 86.454L129.609 85.3417L128.946 87.7429ZM123.035 86.1115C122.878 86.6824 122.938 87.2051 123.217 87.6795C123.507 88.1571 123.948 88.4778 124.542 88.6415C125.135 88.8053 125.673 88.755 126.155 88.4906C126.649 88.2293 126.975 87.8132 127.132 87.2423L127.795 84.8411L123.698 83.7103L123.035 86.1115Z" fill="#110545"/>
<path d="M126.447 104.228L125.495 105.991L114.765 100.198L115.717 98.4357L120.362 100.943L122.844 96.3444L118.199 93.8371L119.151 92.0744L129.881 97.8667L128.929 99.6295L124.53 97.2546L122.048 101.853L126.447 104.228Z" fill="#110545"/>
<path d="M107.71 110.785C107.656 109.061 108.234 107.556 109.443 106.27C110.652 104.984 112.122 104.31 113.853 104.248C115.585 104.202 117.095 104.784 118.381 105.993C119.667 107.201 120.337 108.668 120.39 110.391C120.445 112.131 119.867 113.644 118.658 114.931C117.449 116.217 115.979 116.883 114.247 116.928C112.515 116.99 111.006 116.417 109.72 115.208C108.434 113.999 107.764 112.525 107.71 110.785ZM113.877 106.206C112.704 106.251 111.699 106.718 110.864 107.606C110.029 108.495 109.63 109.522 109.666 110.687C109.703 111.869 110.178 112.889 111.092 113.748C112.006 114.607 113.05 115.014 114.223 114.97C115.397 114.942 116.402 114.483 117.237 113.595C118.072 112.706 118.471 111.671 118.434 110.489C118.398 109.323 117.923 108.311 117.009 107.452C116.095 106.593 115.051 106.178 113.877 106.206Z" fill="#110545"/>
<path d="M108.323 125.155L109.189 126.545L105.049 129.124L104.183 127.735L108.323 125.155ZM96.9115 116.462L101.288 123.484L101.79 113.422L103.12 112.593L109.57 122.941L107.87 124L103.493 116.978L102.991 127.041L101.661 127.87L95.2114 117.522L96.9115 116.462Z" fill="#110545"/>
<path d="M85.7805 133.52C84.6583 133.77 83.6398 133.604 82.725 133.023C81.7989 132.444 81.2121 131.599 80.9646 130.488C80.7196 129.389 80.8922 128.374 81.4824 127.446C82.0638 126.531 82.9156 125.949 84.0378 125.699L86.4691 125.157L85.5599 121.076L87.5152 120.641L90.1671 132.542L85.7805 133.52ZM84.4469 127.535C83.8688 127.664 83.4357 127.962 83.1475 128.431C82.8619 128.911 82.786 129.452 82.9199 130.052C83.0537 130.653 83.3506 131.105 83.8105 131.407C84.273 131.72 84.7932 131.812 85.3713 131.683L87.8027 131.142L86.8783 126.993L84.4469 127.535Z" fill="#110545"/>
<path d="M68.2972 122.776L69.1276 125.24L74.3183 125.289L75.195 122.841L77.3723 122.861L72.833 135.013L70.4292 134.99L66.1373 122.755L68.2972 122.776ZM73.6387 127.164L69.7717 127.127L71.6533 132.65L73.6387 127.164Z" fill="#110545"/>
<path d="M56.611 127.024C55.5387 126.161 55.1607 125.062 55.477 123.729C55.7237 122.69 56.3202 121.936 57.2666 121.468C58.1991 121.009 59.2981 120.93 60.5636 121.23C62.733 121.745 63.9509 123 64.2172 124.997L62.31 125.565C62.2573 124.228 61.5304 123.393 60.1293 123.061C59.3836 122.884 58.7754 122.906 58.3049 123.129C57.8317 123.363 57.5307 123.751 57.402 124.293C57.276 124.824 57.3676 125.294 57.6767 125.701C57.9719 126.117 58.4641 126.407 59.1533 126.571L60.594 126.912L60.1758 128.675L59.1249 128.426C58.4583 128.268 57.9023 128.297 57.4571 128.514C57.0118 128.73 56.7289 129.093 56.6082 129.601C56.4876 130.11 56.5619 130.551 56.8312 130.925C57.0978 131.311 57.5475 131.578 58.1803 131.729C59.3554 132.007 60.2737 131.658 60.9351 130.681L62.3669 132.042C61.2072 133.509 59.6669 134.015 57.746 133.559C56.5822 133.283 55.7137 132.743 55.1407 131.938C54.565 131.145 54.3964 130.246 54.635 129.24C54.9004 128.122 55.5591 127.383 56.611 127.024Z" fill="#110545"/>
<path d="M45.2472 128.973C44.2072 128.483 43.5038 127.728 43.137 126.708C42.7597 125.683 42.8136 124.656 43.2986 123.627C43.7786 122.608 44.5363 121.912 45.5718 121.54C46.5918 121.173 47.6218 121.234 48.6618 121.724L50.9153 122.786L52.6969 119.004L54.5091 119.857L49.3129 130.888L45.2472 128.973ZM47.8602 123.426C47.3244 123.174 46.799 123.145 46.2841 123.339C45.7642 123.543 45.3731 123.923 45.1108 124.48C44.8485 125.037 44.8066 125.576 44.985 126.096C45.1585 126.627 45.5131 127.019 46.0489 127.271L48.3024 128.333L50.1136 124.488L47.8602 123.426Z" fill="#110545"/>
<path d="M37.8734 109.713L37.0213 112.17L41.0955 115.387L43.2874 113.988L44.9964 115.337L33.9676 122.166L32.081 120.676L36.1781 108.375L37.8734 109.713ZM39.4102 116.453L36.375 114.057L34.4815 119.575L39.4102 116.453Z" fill="#110545"/>
<path d="M26.4905 108.334C25.7855 107.456 25.4767 106.505 25.564 105.482C25.6514 104.459 26.1162 103.609 26.9585 102.933C27.8008 102.258 28.7308 101.988 29.7485 102.124C30.7661 102.26 31.6275 102.768 32.3325 103.646L35.2215 107.247L25.7114 114.878L21.0235 109.036L22.5179 107.837L25.9521 112.116L28.1259 110.372L26.4905 108.334ZM30.8652 104.824C30.5236 104.398 30.1088 104.15 29.6208 104.08C29.1165 104.008 28.647 104.147 28.2123 104.496C27.7775 104.845 27.5451 105.269 27.515 105.77C27.4686 106.269 27.6162 106.731 27.9578 107.157L29.5931 109.195L32.5005 106.862L30.8652 104.824Z" fill="#110545"/>
<path d="M22.8436 90.4281C24.4625 91.0218 25.6431 92.1195 26.3852 93.7211C27.1273 95.3227 27.2039 96.9382 26.615 98.5678C26.0108 100.192 24.9078 101.375 23.3062 102.117C21.7047 102.859 20.0944 102.933 18.4754 102.339C16.841 101.74 15.6527 100.639 14.9106 99.0378C14.1685 97.4362 14.0996 95.8234 14.7039 94.1996C15.2927 92.57 16.388 91.3842 17.9896 90.6421C19.5911 89.9 21.2091 89.8287 22.8436 90.4281ZM24.7891 97.8588C25.1856 96.7535 25.1276 95.6476 24.615 94.5413C24.1024 93.4349 23.2987 92.681 22.2039 92.2795C21.0938 91.8724 19.9697 91.9325 18.8317 92.4597C17.6938 92.987 16.9265 93.8033 16.5299 94.9086C16.1179 96.0082 16.1682 97.1112 16.6808 98.2176C17.1934 99.3239 18.0048 100.081 19.115 100.488C20.2097 100.889 21.3261 100.826 22.4641 100.299C23.602 99.7718 24.377 98.9584 24.7891 97.8588Z" fill="#110545"/>
<path d="M9.31314 79.7558L11.191 79.3746L11.8736 82.7376L21.9456 80.6931L22.3441 82.6563L12.2721 84.7008L12.9583 88.0809L11.0804 88.4621L9.31314 79.7558Z" fill="#110545"/>
<path d="M21.2628 66.0887L21.2315 68.4749L15.3682 73.2061L21.1684 73.2823L21.1421 75.2853L8.94957 75.1252L8.97587 73.1222L14.4451 73.194L9.0367 68.489L9.06803 66.1028L14.9428 71.11L21.2628 66.0887Z" fill="#110545"/>
<path d="M20.3616 61.181L21.5507 55.9135L23.4198 56.3355L21.7896 63.557L9.89531 60.8719L11.5063 53.7354L13.3754 54.1573L12.2055 59.3398L15.298 60.0379L16.372 55.2802L18.2241 55.6983L17.1501 60.456L20.3616 61.181Z" fill="#110545"/>
<defs>
<linearGradient id="paint0_linear_1363_7865" x1="23.1451" y1="50.733" x2="71.3013" y2="70.093" gradientUnits="userSpaceOnUse">
<stop stop-color="#D9D9D9"/>
<stop offset="1" stop-color="white"/>
</linearGradient>
<linearGradient id="paint1_linear_1363_7865" x1="125.299" y1="106.067" x2="37.9806" y2="34.2373" gradientUnits="userSpaceOnUse">
<stop stop-color="#EDEDED"/>
<stop offset="1" stop-color="white"/>
</linearGradient>
<linearGradient id="paint2_linear_1363_7865" x1="47.5314" y1="49.3062" x2="85.6051" y2="100.071" gradientUnits="userSpaceOnUse">
<stop stop-color="#C0A74B"/>
<stop offset="0.218592" stop-color="#CAB355"/>
<stop offset="0.359437" stop-color="#FFF59A"/>
<stop offset="0.517183" stop-color="#C5AD58"/>
<stop offset="0.779718" stop-color="#877238"/>
<stop offset="1" stop-color="#CDB066"/>
</linearGradient>
</defs>
</svg>
