<svg width="801" height="451" viewBox="0 0 801 451" fill="none" xmlns="http://www.w3.org/2000/svg">
<path d="M244.854 97.8301L254.162 121.198L271.703 103.171L271.36 128.321L294.465 118.379L284.522 141.484L309.673 141.141L291.646 158.682L315.014 167.989L291.646 177.297L309.673 194.838L284.522 194.495L294.465 217.599L271.36 207.657L271.703 232.808L254.162 214.781L244.854 238.148L235.547 214.781L218.006 232.808L218.349 207.657L195.244 217.599L205.187 194.495L180.036 194.838L198.063 177.297L174.695 167.989L198.063 158.682L180.036 141.141L205.187 141.484L195.244 118.379L218.349 128.321L218.006 103.171L235.547 121.198L244.854 97.8301Z" fill="#DBFF00"/>
<path d="M165.899 259.84L166.815 260.24L165.899 259.84ZM797.566 268.026L800.304 256.808L789.22 260.046L797.566 268.026ZM367.33 129.736L367.362 130.736L367.38 130.735L367.398 130.734L367.33 129.736ZM527.456 202.925L526.598 202.41L527.456 202.925ZM558.187 236.891L559.183 236.973L558.187 236.891ZM204.101 448.452C203.846 448.257 203.589 448.059 203.332 447.858L202.102 449.435C202.364 449.639 202.625 449.841 202.886 450.041L204.101 448.452ZM201.784 446.625C201.276 446.212 200.767 445.789 200.255 445.358L198.965 446.885C199.486 447.325 200.005 447.756 200.523 448.176L201.784 446.625ZM198.757 444.068C198.262 443.635 197.766 443.192 197.269 442.741L195.925 444.222C196.43 444.681 196.935 445.131 197.439 445.572L198.757 444.068ZM195.82 441.404C195.338 440.95 194.854 440.489 194.371 440.02L192.978 441.455C193.469 441.932 193.961 442.401 194.451 442.862L195.82 441.404ZM192.972 438.64C192.505 438.173 192.039 437.698 191.572 437.216L190.135 438.606C190.608 439.096 191.082 439.578 191.556 440.053L192.972 438.64ZM190.208 435.784C189.759 435.305 189.31 434.819 188.861 434.326L187.382 435.672C187.837 436.172 188.293 436.666 188.75 437.152L190.208 435.784ZM187.529 432.841C187.096 432.351 186.664 431.854 186.233 431.352L184.715 432.654C185.153 433.164 185.591 433.668 186.031 434.165L187.529 432.841ZM184.942 429.825C184.523 429.322 184.105 428.813 183.688 428.298L182.133 429.556C182.556 430.078 182.98 430.595 183.406 431.105L184.942 429.825ZM182.449 426.745C182.039 426.225 181.632 425.699 181.225 425.167L179.636 426.381C180.048 426.92 180.462 427.454 180.877 427.981L182.449 426.745ZM180.037 423.59C179.643 423.059 179.25 422.522 178.859 421.98L177.237 423.151C177.634 423.7 178.032 424.244 178.432 424.782L180.037 423.59ZM177.709 420.363C177.331 419.824 176.956 419.281 176.582 418.732L174.929 419.858C175.308 420.414 175.688 420.965 176.071 421.511L177.709 420.363ZM175.468 417.072C175.106 416.525 174.746 415.973 174.388 415.416L172.706 416.497C173.068 417.061 173.433 417.621 173.8 418.175L175.468 417.072ZM173.326 413.737C172.975 413.174 172.626 412.606 172.279 412.033L170.568 413.068C170.919 413.649 171.273 414.225 171.629 414.796L173.326 413.737ZM171.269 410.338C170.934 409.768 170.602 409.194 170.273 408.616L168.535 409.605C168.869 410.191 169.205 410.773 169.544 411.35L171.269 410.338ZM169.297 406.875C168.98 406.3 168.665 405.721 168.353 405.138L166.59 406.082C166.906 406.672 167.225 407.259 167.546 407.841L169.297 406.875ZM167.426 403.377C167.122 402.789 166.82 402.197 166.521 401.601L164.733 402.497C165.036 403.101 165.342 403.701 165.65 404.296L167.426 403.377ZM165.647 399.827C165.358 399.232 165.073 398.633 164.79 398.029L162.979 398.878C163.265 399.489 163.555 400.096 163.847 400.7L165.647 399.827ZM163.957 396.22C163.686 395.621 163.418 395.019 163.153 394.412L161.32 395.213C161.588 395.827 161.86 396.438 162.134 397.044L163.957 396.22ZM162.368 392.582C162.111 391.972 161.857 391.358 161.607 390.741L159.753 391.492C160.007 392.118 160.264 392.74 160.525 393.359L162.368 392.582ZM160.876 388.903C160.635 388.287 160.398 387.667 160.164 387.044L158.292 387.747C158.529 388.378 158.769 389.006 159.012 389.63L160.876 388.903ZM159.476 385.172C159.253 384.554 159.034 383.932 158.819 383.308L156.928 383.96C157.147 384.593 157.369 385.223 157.594 385.849L159.476 385.172ZM158.182 381.424C157.974 380.793 157.769 380.159 157.567 379.521L155.66 380.124C155.864 380.769 156.072 381.412 156.283 382.051L158.182 381.424ZM156.985 377.635C156.795 377.003 156.608 376.367 156.425 375.729L154.502 376.281C154.688 376.928 154.877 377.571 155.07 378.212L156.985 377.635ZM155.886 373.805C155.713 373.17 155.544 372.533 155.379 371.892L153.442 372.393C153.61 373.042 153.782 373.688 153.957 374.331L155.886 373.805ZM154.895 369.969C154.737 369.325 154.584 368.678 154.434 368.028L152.485 368.477C152.637 369.135 152.793 369.791 152.952 370.444L154.895 369.969ZM154.001 366.09C153.862 365.446 153.726 364.801 153.595 364.152L151.634 364.549C151.768 365.207 151.905 365.861 152.046 366.513L154.001 366.09ZM153.211 362.197C153.088 361.546 152.969 360.891 152.854 360.234L150.884 360.58C151.001 361.246 151.121 361.909 151.246 362.569L153.211 362.197ZM152.525 358.286C152.419 357.635 152.318 356.98 152.22 356.323L150.242 356.617C150.341 357.283 150.444 357.946 150.551 358.606L152.525 358.286ZM151.939 354.343C151.851 353.692 151.767 353.038 151.687 352.381L149.702 352.623C149.783 353.288 149.868 353.951 149.957 354.611L151.939 354.343ZM151.46 350.412C151.388 349.753 151.32 349.092 151.257 348.428L149.266 348.619C149.33 349.291 149.399 349.961 149.471 350.628L151.46 350.412ZM151.08 346.443C151.026 345.789 150.976 345.132 150.93 344.473L148.935 344.612C148.982 345.28 149.032 345.945 149.087 346.608L151.08 346.443ZM150.805 342.489C150.767 341.826 150.734 341.16 150.705 340.492L148.706 340.579C148.736 341.256 148.77 341.931 148.808 342.603L150.805 342.489ZM150.63 338.514C150.61 337.856 150.594 337.196 150.581 336.534L148.582 336.571C148.594 337.241 148.611 337.91 148.631 338.576L150.63 338.514ZM150.557 334.541C150.553 333.876 150.554 333.209 150.558 332.54L148.558 332.526C148.554 333.204 148.553 333.879 148.557 334.552L150.557 334.541ZM150.584 330.568C150.597 329.909 150.614 329.248 150.635 328.584L148.636 328.521C148.615 329.192 148.597 329.862 148.585 330.53L150.584 330.568ZM150.711 326.588C150.74 325.927 150.773 325.264 150.811 324.598L148.814 324.485C148.776 325.159 148.742 325.83 148.712 326.5L150.711 326.588ZM150.934 322.628C150.979 321.969 151.029 321.308 151.082 320.645L149.089 320.484C149.034 321.155 148.984 321.824 148.939 322.491L150.934 322.628ZM151.256 318.652C151.317 317.995 151.382 317.336 151.451 316.675L149.462 316.466C149.392 317.135 149.326 317.802 149.264 318.467L151.256 318.652ZM151.67 314.711C151.746 314.055 151.827 313.396 151.912 312.736L149.929 312.48C149.843 313.148 149.761 313.814 149.683 314.479L151.67 314.711ZM152.18 310.751C152.272 310.099 152.369 309.444 152.469 308.788L150.492 308.486C150.39 309.15 150.293 309.812 150.2 310.472L152.18 310.751ZM152.778 306.836C152.886 306.184 152.997 305.53 153.113 304.874L151.143 304.527C151.026 305.19 150.914 305.852 150.805 306.512L152.778 306.836ZM153.472 302.902C153.594 302.254 153.719 301.605 153.849 300.953L151.888 300.562C151.757 301.221 151.629 301.877 151.506 302.533L153.472 302.902ZM154.247 299.018C154.383 298.372 154.523 297.723 154.668 297.074L152.716 296.639C152.57 297.296 152.428 297.951 152.29 298.605L154.247 299.018ZM155.114 295.12C155.265 294.476 155.419 293.83 155.578 293.183L153.636 292.707C153.475 293.361 153.319 294.013 153.167 294.665L155.114 295.12ZM156.059 291.27C156.223 290.63 156.391 289.99 156.563 289.348L154.631 288.83C154.457 289.479 154.287 290.126 154.121 290.773L156.059 291.27ZM157.091 287.417C157.27 286.776 157.453 286.133 157.64 285.488L155.719 284.931C155.53 285.582 155.345 286.231 155.164 286.88L157.091 287.417ZM158.198 283.601C158.388 282.97 158.582 282.339 158.78 281.706L156.871 281.109C156.671 281.749 156.475 282.387 156.284 283.024L158.198 283.601ZM159.385 279.803C159.591 279.167 159.8 278.53 160.014 277.892L158.117 277.257C157.901 277.902 157.69 278.545 157.482 279.187L159.385 279.803ZM160.65 276.02C160.864 275.399 161.082 274.777 161.304 274.155L159.42 273.484C159.196 274.113 158.976 274.74 158.76 275.367L160.65 276.02ZM161.981 272.283C162.21 271.658 162.443 271.031 162.68 270.404L160.809 269.697C160.57 270.331 160.335 270.963 160.103 271.594L161.981 272.283ZM163.398 268.53C163.634 267.921 163.875 267.311 164.119 266.699L162.261 265.958C162.015 266.575 161.772 267.191 161.533 267.806L163.398 268.53ZM164.861 264.862C165.113 264.248 165.368 263.634 165.626 263.018L163.782 262.243C163.521 262.865 163.264 263.485 163.011 264.104L164.861 264.862ZM166.413 261.167C166.546 260.859 166.68 260.549 166.815 260.24L164.982 259.441C164.846 259.753 164.711 260.065 164.576 260.376L166.413 261.167ZM166.815 260.24C166.947 259.937 167.079 259.635 167.213 259.334L165.382 258.527C165.248 258.831 165.115 259.136 164.982 259.441L166.815 260.24ZM168.018 257.527C168.289 256.926 168.562 256.326 168.838 255.727L167.021 254.891C166.743 255.494 166.468 256.099 166.194 256.705L168.018 257.527ZM169.672 253.936C169.953 253.339 170.236 252.744 170.522 252.15L168.719 251.283C168.431 251.882 168.145 252.482 167.862 253.084L169.672 253.936ZM171.386 250.371C171.677 249.779 171.97 249.189 172.265 248.6L170.478 247.703C170.18 248.297 169.884 248.893 169.591 249.489L171.386 250.371ZM173.159 246.838C173.46 246.251 173.763 245.666 174.069 245.081L172.297 244.154C171.988 244.743 171.682 245.334 171.379 245.926L173.159 246.838ZM174.993 243.333C175.303 242.752 175.616 242.173 175.932 241.594L174.176 240.637C173.858 241.22 173.542 241.805 173.229 242.391L174.993 243.333ZM176.885 239.863C177.206 239.287 177.529 238.712 177.855 238.139L176.116 237.151C175.787 237.73 175.461 238.309 175.138 238.89L176.885 239.863ZM178.839 236.425C179.169 235.855 179.502 235.286 179.837 234.719L178.116 233.701C177.778 234.273 177.442 234.847 177.108 235.422L178.839 236.425ZM180.851 233.022C181.192 232.458 181.535 231.896 181.88 231.334L180.177 230.286C179.829 230.852 179.483 231.42 179.139 231.989L180.851 233.022ZM182.924 229.656C183.275 229.098 183.627 228.542 183.983 227.987L182.299 226.908C181.94 227.468 181.584 228.029 181.231 228.592L182.924 229.656ZM185.057 226.328C185.417 225.776 185.78 225.226 186.145 224.678L184.481 223.569C184.112 224.122 183.746 224.677 183.382 225.234L185.057 226.328ZM187.249 223.038C187.619 222.493 187.992 221.95 188.368 221.409L186.724 220.27C186.345 220.816 185.969 221.364 185.595 221.914L187.249 223.038ZM189.501 219.79C189.881 219.252 190.264 218.716 190.649 218.181L189.027 217.012C188.638 217.551 188.252 218.093 187.868 218.635L189.501 219.79ZM191.812 216.583C192.202 216.053 192.595 215.524 192.99 214.997L191.39 213.797C190.991 214.329 190.595 214.863 190.201 215.399L191.812 216.583ZM194.182 213.421C194.582 212.898 194.985 212.376 195.39 211.856L193.812 210.627C193.403 211.152 192.997 211.678 192.593 212.207L194.182 213.421ZM196.612 210.303C197.022 209.787 197.434 209.274 197.848 208.762L196.294 207.503C195.875 208.02 195.459 208.538 195.046 209.059L196.612 210.303ZM199.099 207.232C199.518 206.725 199.94 206.219 200.365 205.714L198.835 204.426C198.406 204.935 197.98 205.446 197.557 205.959L199.099 207.232ZM201.645 204.208C202.073 203.709 202.505 203.212 202.938 202.716L201.433 201.399C200.995 201.899 200.56 202.402 200.127 202.906L201.645 204.208ZM204.247 201.236C204.685 200.744 205.126 200.255 205.57 199.767L204.091 198.421C203.643 198.913 203.197 199.408 202.754 199.904L204.247 201.236ZM206.907 198.312C207.354 197.83 207.804 197.349 208.256 196.871L206.803 195.497C206.347 195.98 205.892 196.465 205.44 196.952L206.907 198.312ZM209.621 195.442C210.079 194.968 210.539 194.495 211.001 194.025L209.575 192.623C209.108 193.098 208.644 193.575 208.182 194.054L209.621 195.442ZM212.392 192.624C212.858 192.16 213.327 191.697 213.797 191.237L212.399 189.807C211.924 190.272 211.451 190.739 210.98 191.208L212.392 192.624ZM215.217 189.862C215.693 189.406 216.171 188.952 216.652 188.5L215.282 187.042C214.797 187.499 214.314 187.958 213.833 188.418L215.217 189.862ZM218.096 187.156C218.58 186.71 219.066 186.266 219.555 185.824L218.214 184.341C217.72 184.787 217.229 185.235 216.741 185.685L218.096 187.156ZM221.028 184.506C221.521 184.069 222.017 183.635 222.515 183.202L221.203 181.692C220.7 182.129 220.2 182.568 219.702 183.009L221.028 184.506ZM224.01 181.916C224.511 181.49 225.015 181.065 225.521 180.643L224.24 179.108C223.729 179.534 223.22 179.963 222.714 180.393L224.01 181.916ZM227.046 179.383C227.556 178.967 228.067 178.553 228.582 178.141L227.331 176.58C226.812 176.996 226.295 177.415 225.78 177.835L227.046 179.383ZM230.127 176.915C230.645 176.508 231.165 176.104 231.688 175.702L230.468 174.117C229.94 174.523 229.415 174.931 228.892 175.342L230.127 176.915ZM233.263 174.503C233.787 174.108 234.315 173.714 234.844 173.323L233.657 171.714C233.122 172.109 232.589 172.506 232.059 172.906L233.263 174.503ZM236.437 172.16C236.971 171.774 237.507 171.39 238.045 171.009L236.889 169.377C236.346 169.762 235.804 170.149 235.266 170.539L236.437 172.16ZM239.667 169.873C240.207 169.499 240.749 169.127 241.293 168.758L240.169 167.103C239.62 167.476 239.073 167.851 238.528 168.229L239.667 169.873ZM242.931 167.657C243.479 167.293 244.03 166.931 244.583 166.571L243.493 164.894C242.934 165.258 242.378 165.623 241.824 165.992L242.931 167.657ZM246.25 165.499C246.803 165.146 247.358 164.797 247.916 164.449L246.859 162.752C246.295 163.103 245.734 163.456 245.176 163.811L246.25 165.499ZM249.597 163.414C250.159 163.071 250.724 162.731 251.291 162.392L250.267 160.674C249.694 161.016 249.124 161.36 248.556 161.706L249.597 163.414ZM252.998 161.387C253.564 161.056 254.133 160.729 254.703 160.403L253.713 158.666C253.136 158.994 252.562 159.325 251.99 159.659L252.998 161.387ZM256.423 159.434C256.999 159.113 257.577 158.794 258.157 158.478L257.201 156.722C256.615 157.041 256.031 157.363 255.45 157.687L256.423 159.434ZM259.901 157.54C260.479 157.232 261.06 156.926 261.643 156.623L260.72 154.848C260.131 155.155 259.545 155.463 258.961 155.774L259.901 157.54ZM263.399 155.72C263.987 155.421 264.577 155.125 265.169 154.831L264.28 153.04C263.682 153.336 263.087 153.635 262.493 153.937L263.399 155.72ZM266.947 153.96C267.537 153.674 268.128 153.391 268.723 153.11L267.868 151.302C267.268 151.585 266.67 151.871 266.075 152.16L266.947 153.96ZM270.512 152.274C271.11 151.998 271.711 151.724 272.314 151.453L271.494 149.629C270.885 149.903 270.278 150.179 269.674 150.458L270.512 152.274ZM274.124 150.648C274.724 150.385 275.326 150.124 275.93 149.866L275.143 148.027C274.533 148.288 273.926 148.551 273.321 148.817L274.124 150.648ZM277.749 149.097C278.357 148.843 278.968 148.592 279.581 148.343L278.828 146.49C278.21 146.741 277.593 146.995 276.979 147.251L277.749 149.097ZM281.421 147.605C282.03 147.364 282.641 147.126 283.254 146.889L282.534 145.023C281.916 145.261 281.299 145.502 280.685 145.745L281.421 147.605ZM285.099 146.188C285.716 145.956 286.335 145.727 286.957 145.501L286.271 143.622C285.644 143.85 285.019 144.082 284.396 144.315L285.099 146.188ZM288.826 144.828C289.442 144.61 290.06 144.393 290.681 144.179L290.029 142.288C289.403 142.504 288.779 142.723 288.157 142.943L288.826 144.828ZM292.549 143.544C293.174 143.335 293.801 143.128 294.429 142.923L293.811 141.021C293.176 141.228 292.544 141.437 291.914 141.648L292.549 143.544ZM296.323 142.317C296.947 142.119 297.573 141.925 298.201 141.732L297.615 139.82C296.982 140.014 296.35 140.211 295.72 140.409L296.323 142.317ZM300.088 141.163C300.72 140.976 301.353 140.79 301.988 140.608L301.435 138.686C300.794 138.87 300.156 139.057 299.519 139.246L300.088 141.163ZM303.9 140.066C304.532 139.89 305.167 139.716 305.803 139.545L305.283 137.614C304.641 137.787 304.001 137.962 303.363 138.14L303.9 140.066ZM307.706 139.04C308.343 138.874 308.981 138.711 309.622 138.549L309.133 136.61C308.487 136.773 307.844 136.938 307.202 137.105L307.706 139.04ZM311.549 138.072C312.189 137.917 312.832 137.763 313.477 137.612L313.02 135.665C312.37 135.817 311.722 135.972 311.076 136.129L311.549 138.072ZM315.393 137.171C316.033 137.026 316.676 136.883 317.32 136.743L316.895 134.789C316.245 134.93 315.598 135.074 314.952 135.22L315.393 137.171ZM319.259 136.329C319.907 136.193 320.557 136.06 321.209 135.929L320.815 133.968C320.158 134.1 319.503 134.235 318.849 134.371L319.259 136.329ZM323.139 135.549C323.782 135.424 324.428 135.302 325.075 135.183L324.711 133.216C324.059 133.337 323.408 133.46 322.76 133.585L323.139 135.549ZM327.022 134.83C327.673 134.715 328.326 134.602 328.981 134.491L328.647 132.519C327.988 132.631 327.33 132.745 326.674 132.861L327.022 134.83ZM330.935 134.168C331.581 134.064 332.228 133.962 332.877 133.862L332.574 131.886C331.919 131.986 331.267 132.089 330.617 132.194L330.935 134.168ZM334.83 133.57C335.483 133.474 336.138 133.381 336.794 133.29L336.52 131.309C335.858 131.401 335.199 131.494 334.541 131.591L334.83 133.57ZM338.769 133.024C339.418 132.939 340.068 132.856 340.721 132.775L340.475 130.79C339.818 130.871 339.162 130.955 338.509 131.041L338.769 133.024ZM342.676 132.54C343.33 132.464 343.985 132.39 344.642 132.318L344.425 130.33C343.763 130.402 343.103 130.477 342.445 130.553L342.676 132.54ZM346.618 132.109C347.277 132.042 347.937 131.977 348.599 131.914L348.409 129.923C347.743 129.986 347.078 130.052 346.415 130.119L346.618 132.109ZM350.554 131.735C351.207 131.677 351.862 131.622 352.519 131.568L352.357 129.575C351.696 129.628 351.036 129.684 350.378 129.742L350.554 131.735ZM354.494 131.414C355.154 131.365 355.816 131.318 356.479 131.273L356.344 129.278C355.676 129.323 355.01 129.37 354.346 129.42L354.494 131.414ZM358.458 131.146C359.11 131.107 359.764 131.069 360.42 131.033L360.311 129.036C359.651 129.072 358.993 129.11 358.336 129.15L358.458 131.146ZM362.391 130.933C363.05 130.901 363.71 130.872 364.372 130.845L364.29 128.846C363.624 128.874 362.959 128.903 362.296 128.935L362.391 130.933ZM366.363 130.769C366.695 130.757 367.028 130.746 367.362 130.736L367.299 128.737C366.963 128.747 366.628 128.758 366.293 128.77L366.363 130.769ZM367.398 130.734C367.735 130.711 368.072 130.689 368.408 130.668L368.282 128.672C367.942 128.693 367.603 128.716 367.263 128.739L367.398 130.734ZM370.423 130.549C371.094 130.512 371.763 130.478 372.432 130.447L372.339 128.449C371.665 128.48 370.99 128.515 370.314 128.552L370.423 130.549ZM374.433 130.362C375.099 130.337 375.763 130.315 376.427 130.295L376.367 128.296C375.699 128.316 375.028 128.338 374.357 128.364L374.433 130.362ZM378.423 130.245C379.098 130.23 379.771 130.219 380.443 130.211L380.418 128.211C379.741 128.219 379.062 128.231 378.381 128.245L378.423 130.245ZM382.455 130.194C383.125 130.192 383.793 130.192 384.46 130.195L384.469 128.195C383.797 128.192 383.123 128.192 382.448 128.194L382.455 130.194ZM386.456 130.213C387.122 130.221 387.786 130.233 388.449 130.247L388.493 128.248C387.824 128.233 387.154 128.222 386.482 128.213L386.456 130.213ZM390.469 130.3C391.141 130.32 391.812 130.344 392.481 130.37L392.559 128.371C391.884 128.345 391.208 128.322 390.53 128.301L390.469 130.3ZM394.484 130.457C395.15 130.489 395.815 130.523 396.478 130.561L396.591 128.564C395.922 128.526 395.251 128.491 394.579 128.459L394.484 130.457ZM398.467 130.681C399.14 130.725 399.812 130.772 400.482 130.821L400.63 128.827C399.954 128.777 399.276 128.73 398.597 128.686L398.467 130.681ZM402.489 130.978C403.156 131.034 403.822 131.091 404.486 131.152L404.668 129.161C403.998 129.099 403.327 129.041 402.654 128.985L402.489 130.978ZM406.474 131.343C407.137 131.409 407.798 131.478 408.458 131.55L408.674 129.562C408.009 129.49 407.342 129.42 406.673 129.353L406.474 131.343ZM410.464 131.778C411.132 131.857 411.797 131.938 412.461 132.023L412.713 130.039C412.043 129.954 411.372 129.871 410.699 129.792L410.464 131.778ZM414.448 132.284C415.108 132.374 415.767 132.466 416.424 132.561L416.711 130.582C416.048 130.486 415.383 130.393 414.717 130.302L414.448 132.284ZM418.402 132.856C419.068 132.959 419.732 133.064 420.395 133.172L420.717 131.198C420.048 131.089 419.378 130.983 418.706 130.88L418.402 132.856ZM422.378 133.504C423.037 133.618 423.694 133.734 424.349 133.853L424.706 131.885C424.045 131.765 423.382 131.648 422.717 131.533L422.378 133.504ZM426.31 134.217C426.968 134.342 427.625 134.47 428.279 134.601L428.671 132.639C428.01 132.508 427.348 132.378 426.684 132.252L426.31 134.217ZM430.255 135.004C430.911 135.141 431.566 135.281 432.218 135.423L432.645 133.469C431.986 133.326 431.326 133.185 430.664 133.046L430.255 135.004ZM434.17 135.858C434.819 136.006 435.466 136.156 436.11 136.309L436.571 134.363C435.921 134.209 435.268 134.057 434.614 133.908L434.17 135.858ZM438.07 136.783C438.723 136.943 439.374 137.107 440.022 137.273L440.518 135.335C439.864 135.168 439.207 135.003 438.549 134.841L438.07 136.783ZM441.962 137.779C442.607 137.95 443.249 138.124 443.89 138.3L444.42 136.372C443.774 136.194 443.126 136.019 442.476 135.846L441.962 137.779ZM445.815 138.839C446.463 139.024 447.109 139.211 447.753 139.4L448.318 137.482C447.668 137.291 447.017 137.102 446.362 136.915L445.815 138.839ZM449.678 139.977C450.317 140.172 450.954 140.369 451.589 140.569L452.189 138.661C451.548 138.459 450.905 138.26 450.26 138.064L449.678 139.977ZM453.487 141.175C454.127 141.382 454.764 141.592 455.4 141.805L456.034 139.908C455.393 139.694 454.749 139.482 454.104 139.272L453.487 141.175ZM457.306 142.452C457.939 142.67 458.57 142.891 459.198 143.114L459.867 141.229C459.233 141.004 458.597 140.782 457.958 140.561L457.306 142.452ZM461.076 143.79C461.704 144.019 462.33 144.251 462.953 144.485L463.656 142.613C463.027 142.377 462.396 142.143 461.762 141.911L461.076 143.79ZM464.838 145.203C465.464 145.445 466.087 145.689 466.708 145.935L467.445 144.076C466.819 143.827 466.19 143.581 465.558 143.337L464.838 145.203ZM468.562 146.68C469.178 146.931 469.792 147.185 470.402 147.44L471.174 145.595C470.557 145.337 469.938 145.081 469.317 144.828L468.562 146.68ZM472.263 148.228C472.88 148.493 473.495 148.761 474.107 149.03L474.913 147.2C474.295 146.928 473.675 146.658 473.052 146.39L472.263 148.228ZM475.934 149.845C476.54 150.119 477.144 150.395 477.745 150.673L478.585 148.857C477.978 148.577 477.369 148.298 476.757 148.022L475.934 149.845ZM479.57 151.528C480.178 151.816 480.783 152.106 481.384 152.399L482.259 150.6C481.651 150.305 481.041 150.012 480.427 149.721L479.57 151.528ZM483.181 153.283C483.777 153.579 484.37 153.878 484.96 154.179L485.868 152.397C485.273 152.093 484.674 151.792 484.072 151.492L483.181 153.283ZM486.747 155.101C487.344 155.412 487.938 155.726 488.528 156.041L489.471 154.277C488.875 153.959 488.275 153.642 487.672 153.328L486.747 155.101ZM490.291 156.994C490.875 157.313 491.456 157.635 492.033 157.958L493.01 156.212C492.426 155.886 491.84 155.562 491.25 155.239L490.291 156.994ZM493.782 158.947C494.367 159.282 494.948 159.619 495.526 159.957L496.537 158.231C495.953 157.89 495.366 157.55 494.775 157.212L493.782 158.947ZM497.249 160.978C497.82 161.32 498.387 161.664 498.951 162.009L499.996 160.304C499.426 159.955 498.853 159.608 498.277 159.262L497.249 160.978ZM500.66 163.069C501.231 163.427 501.798 163.786 502.361 164.147L503.441 162.464C502.872 162.099 502.299 161.736 501.722 161.374L500.66 163.069ZM504.04 165.236C504.596 165.601 505.148 165.967 505.696 166.334L506.81 164.673C506.256 164.302 505.699 163.932 505.137 163.564L504.04 165.236ZM507.365 167.466C507.92 167.847 508.471 168.23 509.018 168.614L510.167 166.977C509.615 166.589 509.058 166.202 508.497 165.817L507.365 167.466ZM510.647 169.77C511.187 170.157 511.722 170.546 512.253 170.936L513.437 169.324C512.9 168.93 512.359 168.537 511.814 168.145L510.647 169.77ZM513.878 172.143C514.416 172.547 514.948 172.952 515.477 173.358L516.696 171.773C516.162 171.362 515.623 170.953 515.08 170.544L513.878 172.143ZM517.048 174.581C517.574 174.995 518.095 175.41 518.612 175.827L519.867 174.27C519.344 173.848 518.817 173.428 518.285 173.01L517.048 174.581ZM520.176 177.103C520.693 177.529 521.204 177.956 521.711 178.385L523.002 176.858C522.49 176.424 521.972 175.991 521.449 175.56L520.176 177.103ZM523.217 179.673C523.728 180.116 524.235 180.56 524.736 181.005L526.064 179.51C525.556 179.059 525.044 178.61 524.526 178.162L523.217 179.673ZM526.229 182.349C526.722 182.797 527.209 183.247 527.691 183.697L529.056 182.235C528.568 181.779 528.075 181.324 527.576 180.87L526.229 182.349ZM529.143 185.071C529.631 185.539 530.113 186.007 530.59 186.477L531.993 185.052C531.51 184.576 531.022 184.101 530.527 183.627L529.143 185.071ZM532.001 187.886C532.468 188.358 532.929 188.832 533.384 189.305L534.826 187.92C534.365 187.439 533.897 186.959 533.424 186.48L532.001 187.886ZM534.776 190.775C535.233 191.265 535.684 191.755 536.128 192.246L537.611 190.903C537.16 190.405 536.702 189.907 536.238 189.41L534.776 190.775ZM537.442 193.718C537.891 194.228 538.332 194.739 538.767 195.249L540.29 193.953C539.849 193.434 539.4 192.916 538.944 192.397L537.442 193.718ZM540.051 196.783C540.471 197.294 540.885 197.805 541.291 198.315L542.856 197.07C542.443 196.55 542.022 196.031 541.595 195.512L540.051 196.783ZM542.536 199.908C542.945 200.441 543.345 200.973 543.738 201.504L545.346 200.316C544.947 199.775 544.539 199.233 544.123 198.691L542.536 199.908ZM544.891 203.096C545.285 203.651 545.67 204.206 546.047 204.759L547.701 203.634C547.316 203.07 546.923 202.504 546.521 201.938L544.891 203.096ZM547.149 206.416C547.511 206.973 547.864 207.529 548.208 208.084L549.908 207.03C549.557 206.463 549.196 205.895 548.826 205.326L547.149 206.416ZM549.25 209.809C549.587 210.382 549.914 210.953 550.23 211.523L551.978 210.551C551.654 209.967 551.319 209.382 550.974 208.795L549.25 209.809ZM551.177 213.278C551.488 213.874 551.788 214.468 552.077 215.059L553.874 214.182C553.578 213.574 553.269 212.964 552.949 212.352L551.177 213.278ZM552.909 216.83C553.189 217.449 553.456 218.064 553.71 218.677L555.558 217.911C555.296 217.278 555.02 216.643 554.731 216.005L552.909 216.83ZM554.432 220.502C554.668 221.131 554.891 221.757 555.098 222.378L556.995 221.744C556.779 221.099 556.549 220.45 556.304 219.798L554.432 220.502ZM555.687 224.259C555.873 224.898 556.043 225.533 556.197 226.161L558.139 225.685C557.978 225.028 557.801 224.366 557.607 223.7L555.687 224.259ZM556.621 228.087C556.748 228.737 556.856 229.379 556.947 230.014L558.927 229.732C558.831 229.062 558.717 228.386 558.584 227.704L556.621 228.087ZM557.169 231.967C557.224 232.623 557.259 233.27 557.274 233.908L559.273 233.864C559.258 233.183 559.221 232.494 559.162 231.798L557.169 231.967ZM557.251 235.857C557.236 236.177 557.216 236.494 557.19 236.809L559.183 236.973C559.211 236.634 559.233 236.293 559.249 235.95L557.251 235.857ZM557.19 236.809C557.161 237.158 557.129 237.501 557.094 237.838L559.083 238.048C559.12 237.695 559.153 237.337 559.183 236.973L557.19 236.809ZM556.841 239.789C556.736 240.469 556.616 241.121 556.482 241.746L558.437 242.165C558.58 241.501 558.707 240.811 558.817 240.095L556.841 239.789ZM556.018 243.616C555.83 244.275 555.625 244.899 555.405 245.487L557.278 246.189C557.518 245.547 557.74 244.872 557.941 244.164L556.018 243.616ZM554.641 247.268C554.348 247.865 554.037 248.418 553.709 248.926L555.39 250.01C555.762 249.432 556.112 248.811 556.437 248.148L554.641 247.268ZM552.587 250.431C552.163 250.92 551.721 251.353 551.262 251.732L552.537 253.273C553.084 252.821 553.606 252.31 554.099 251.74L552.587 250.431ZM549.743 252.768C549.201 253.068 548.639 253.308 548.062 253.492L548.669 255.397C549.369 255.174 550.051 254.883 550.709 254.52L549.743 252.768ZM546.267 253.879C545.663 253.952 545.044 253.971 544.413 253.939L544.311 255.937C545.05 255.974 545.783 255.952 546.506 255.865L546.267 253.879ZM542.549 253.701C541.944 253.579 541.331 253.412 540.715 253.203L540.072 255.097C540.765 255.332 541.46 255.521 542.153 255.661L542.549 253.701ZM538.933 252.485C538.361 252.218 537.789 251.916 537.22 251.58L536.204 253.302C536.826 253.669 537.454 254.002 538.087 254.297L538.933 252.485ZM535.591 250.52C535.072 250.151 534.557 249.754 534.05 249.33L532.768 250.866C533.314 251.321 533.869 251.75 534.431 252.15L535.591 250.52ZM532.595 248.024C532.13 247.576 531.673 247.106 531.227 246.614L529.746 247.959C530.222 248.483 530.71 248.985 531.207 249.464L532.595 248.024ZM529.948 245.113C529.544 244.606 529.15 244.082 528.768 243.54L527.133 244.691C527.537 245.266 527.956 245.823 528.385 246.361L529.948 245.113ZM527.684 241.899C527.341 241.345 527.011 240.775 526.694 240.191L524.936 241.144C525.271 241.762 525.62 242.365 525.984 242.952L527.684 241.899ZM525.802 238.426C525.525 237.837 525.263 237.236 525.016 236.624L523.161 237.371C523.422 238.019 523.699 238.654 523.992 239.277L525.802 238.426ZM524.33 234.774C524.12 234.153 523.925 233.522 523.747 232.881L521.82 233.415C522.008 234.093 522.214 234.76 522.436 235.416L524.33 234.774ZM523.276 230.973C523.137 230.335 523.015 229.689 522.91 229.034L520.935 229.349C521.046 230.041 521.175 230.724 521.321 231.398L523.276 230.973ZM522.654 227.071C522.588 226.425 522.54 225.772 522.51 225.112L520.512 225.203C520.544 225.9 520.595 226.591 520.665 227.274L522.654 227.071ZM522.475 223.137C522.482 222.484 522.507 221.827 522.551 221.164L520.556 221.032C520.509 221.731 520.483 222.426 520.476 223.116L522.475 223.137ZM522.736 219.204C522.815 218.553 522.913 217.897 523.03 217.238L521.061 216.888C520.938 217.583 520.834 218.275 520.75 218.963L522.736 219.204ZM523.424 215.318C523.573 214.681 523.739 214.041 523.925 213.398L522.004 212.843C521.808 213.519 521.633 214.193 521.477 214.864L523.424 215.318ZM524.52 211.519C524.732 210.902 524.963 210.283 525.212 209.661L523.355 208.918C523.094 209.569 522.852 210.219 522.629 210.867L524.52 211.519ZM525.991 207.842C526.262 207.249 526.55 206.654 526.856 206.059L525.077 205.145C524.757 205.768 524.456 206.39 524.172 207.011L525.991 207.842ZM527.802 204.313C527.968 204.022 528.138 203.73 528.313 203.439L526.598 202.41C526.416 202.714 526.238 203.019 526.064 203.323L527.802 204.313ZM528.313 203.439C528.478 203.164 528.646 202.89 528.817 202.618L527.123 201.554C526.945 201.838 526.77 202.124 526.598 202.41L528.313 203.439ZM529.885 200.991C530.255 200.452 530.637 199.916 531.033 199.385L529.429 198.191C529.018 198.743 528.62 199.299 528.236 199.86L529.885 200.991ZM532.25 197.812C532.652 197.311 533.065 196.814 533.49 196.321L531.975 195.016C531.535 195.526 531.107 196.041 530.691 196.559L532.25 197.812ZM534.799 194.851C535.247 194.365 535.706 193.882 536.176 193.403L534.748 192.003C534.263 192.496 533.79 192.995 533.328 193.497L534.799 194.851ZM537.571 192.022C538.038 191.573 538.515 191.128 539.001 190.686L537.656 189.206C537.156 189.66 536.666 190.118 536.185 190.58L537.571 192.022ZM540.489 189.371C540.994 188.937 541.509 188.506 542.033 188.078L540.769 186.528C540.231 186.967 539.703 187.409 539.184 187.855L540.489 189.371ZM543.555 186.867C544.07 186.467 544.593 186.071 545.124 185.678L543.935 184.07C543.391 184.472 542.856 184.878 542.329 185.287L543.555 186.867ZM546.741 184.509C547.286 184.125 547.838 183.744 548.399 183.367L547.281 181.708C546.709 182.093 546.145 182.482 545.588 182.875L546.741 184.509ZM550.027 182.294C550.577 181.94 551.133 181.589 551.697 181.241L550.646 179.539C550.072 179.894 549.504 180.252 548.943 180.613L550.027 182.294ZM553.406 180.209C553.983 179.868 554.565 179.531 555.155 179.197L554.169 177.457C553.569 177.797 552.976 178.14 552.389 178.487L553.406 180.209ZM556.863 178.25C557.438 177.937 558.019 177.628 558.605 177.322L557.68 175.549C557.084 175.86 556.493 176.174 555.908 176.493L556.863 178.25ZM560.382 176.413C560.979 176.114 561.583 175.818 562.191 175.525L561.325 173.723C560.706 174.02 560.093 174.321 559.486 174.625L560.382 176.413ZM563.976 174.684C564.57 174.409 565.169 174.138 565.772 173.87L564.96 172.042C564.348 172.314 563.74 172.59 563.137 172.868L563.976 174.684ZM567.597 173.076C568.209 172.814 568.827 172.556 569.449 172.301L568.69 170.45C568.059 170.709 567.433 170.971 566.812 171.236L567.597 173.076ZM571.306 171.554C571.914 171.315 572.526 171.079 573.142 170.846L572.434 168.975C571.81 169.211 571.19 169.451 570.574 169.693L571.306 171.554ZM575.001 170.156C575.625 169.929 576.252 169.706 576.884 169.485L576.225 167.597C575.586 167.82 574.95 168.047 574.318 168.276L575.001 170.156ZM578.79 168.834C579.414 168.625 580.042 168.419 580.673 168.217L580.062 166.312C579.423 166.518 578.787 166.726 578.155 166.937L578.79 168.834ZM582.558 167.624C583.19 167.429 583.825 167.238 584.463 167.05L583.898 165.132C583.252 165.322 582.609 165.516 581.97 165.712L582.558 167.624ZM586.387 166.495C587.032 166.313 587.68 166.134 588.33 165.959L587.81 164.028C587.152 164.205 586.496 164.386 585.844 164.57L586.387 166.495ZM590.239 165.456C590.876 165.292 591.517 165.131 592.16 164.972L591.683 163.03C591.032 163.19 590.385 163.353 589.74 163.519L590.239 165.456ZM594.098 164.508C594.746 164.356 595.397 164.207 596.051 164.061L595.616 162.109C594.956 162.256 594.297 162.407 593.642 162.56L594.098 164.508ZM598.018 163.635C598.66 163.499 599.305 163.366 599.952 163.237L599.559 161.276C598.905 161.407 598.254 161.541 597.604 161.678L598.018 163.635ZM601.899 162.857C602.551 162.733 603.204 162.613 603.86 162.496L603.508 160.527C602.845 160.646 602.185 160.767 601.527 160.892L601.899 162.857ZM605.833 162.154C606.493 162.043 607.155 161.935 607.819 161.83L607.507 159.855C606.837 159.96 606.168 160.069 605.502 160.181L605.833 162.154ZM609.773 161.532C610.427 161.436 611.082 161.343 611.739 161.253L611.467 159.271C610.804 159.362 610.142 159.456 609.482 159.554L609.773 161.532ZM613.715 160.992C614.376 160.908 615.038 160.827 615.701 160.75L615.469 158.763C614.799 158.842 614.13 158.923 613.463 159.008L613.715 160.992ZM617.697 160.527C618.354 160.456 619.012 160.389 619.671 160.325L619.478 158.335C618.812 158.399 618.148 158.467 617.485 158.538L617.697 160.527ZM621.649 160.143C622.309 160.086 622.971 160.031 623.635 159.98L623.48 157.986C622.811 158.038 622.142 158.093 621.475 158.151L621.649 160.143ZM625.628 159.836C626.294 159.791 626.961 159.749 627.629 159.71L627.513 157.714C626.839 157.753 626.165 157.795 625.493 157.84L625.628 159.836ZM629.618 159.605C630.278 159.573 630.94 159.545 631.602 159.519L631.525 157.521C630.856 157.547 630.188 157.575 629.522 157.608L629.618 159.605ZM633.592 159.452C634.257 159.433 634.922 159.417 635.588 159.404L635.55 157.405C634.877 157.418 634.206 157.434 633.535 157.453L633.592 159.452ZM637.589 159.376C638.255 159.369 638.921 159.366 639.588 159.366L639.588 157.366C638.915 157.366 638.242 157.369 637.57 157.376L637.589 159.376ZM641.574 159.376C642.237 159.383 642.9 159.392 643.565 159.405L643.603 157.406C642.933 157.393 642.263 157.383 641.594 157.376L641.574 159.376ZM645.559 159.454C646.224 159.473 646.89 159.495 647.556 159.521L647.633 157.523C646.961 157.497 646.288 157.474 645.617 157.454L645.559 159.454ZM649.556 159.609C650.217 159.641 650.879 159.676 651.541 159.715L651.657 157.718C650.989 157.679 650.321 157.643 649.653 157.611L649.556 159.609ZM653.527 159.84C654.189 159.885 654.852 159.934 655.515 159.985L655.67 157.991C655.001 157.939 654.332 157.89 653.663 157.845L653.527 159.84ZM657.504 160.15C658.167 160.208 658.831 160.27 659.494 160.335L659.689 158.344C659.019 158.279 658.349 158.217 657.679 158.158L657.504 160.15ZM661.478 160.539C662.137 160.61 662.796 160.684 663.455 160.762L663.689 158.776C663.024 158.697 662.358 158.622 661.692 158.55L661.478 160.539ZM665.432 161.005C666.091 161.09 666.75 161.178 667.409 161.269L667.683 159.288C667.018 159.196 666.352 159.107 665.686 159.022L665.432 161.005ZM669.385 161.552C670.043 161.65 670.701 161.752 671.359 161.856L671.674 159.881C671.009 159.775 670.344 159.673 669.679 159.574L669.385 161.552ZM673.323 162.179C673.977 162.29 674.631 162.405 675.284 162.523L675.639 160.554C674.979 160.435 674.318 160.32 673.657 160.207L673.323 162.179ZM677.244 162.887C677.897 163.011 678.549 163.139 679.201 163.271L679.597 161.311C678.938 161.178 678.279 161.048 677.619 160.922L677.244 162.887ZM681.155 163.677C681.805 163.815 682.454 163.957 683.102 164.102L683.539 162.151C682.884 162.004 682.228 161.86 681.572 161.72L681.155 163.677ZM685.043 164.548C685.689 164.7 686.334 164.856 686.979 165.015L687.458 163.073C686.806 162.912 686.154 162.755 685.501 162.601L685.043 164.548ZM688.912 165.503C689.555 165.669 690.198 165.839 690.84 166.012L691.361 164.081C690.712 163.906 690.062 163.734 689.412 163.566L688.912 165.503ZM692.763 166.543C693.401 166.723 694.039 166.906 694.675 167.094L695.239 165.175C694.596 164.986 693.951 164.8 693.305 164.618L692.763 166.543ZM696.583 167.666C697.217 167.86 697.851 168.058 698.484 168.26L699.091 166.354C698.451 166.151 697.81 165.95 697.168 165.754L696.583 167.666ZM700.38 168.876C701.01 169.085 701.64 169.298 702.268 169.514L702.919 167.623C702.283 167.404 701.646 167.189 701.008 166.977L700.38 168.876ZM704.148 170.173C704.773 170.396 705.396 170.623 706.019 170.853L706.713 168.978C706.084 168.745 705.453 168.515 704.821 168.289L704.148 170.173ZM707.882 171.556C708.502 171.794 709.12 172.035 709.737 172.281L710.476 170.422C709.852 170.174 709.226 169.93 708.599 169.689L707.882 171.556ZM711.584 173.028C712.199 173.281 712.812 173.538 713.423 173.798L714.207 171.958C713.588 171.695 712.968 171.435 712.346 171.179L711.584 173.028ZM715.248 174.589C715.855 174.856 716.461 175.127 717.065 175.402L717.893 173.582C717.282 173.304 716.669 173.029 716.055 172.759L715.248 174.589ZM718.871 176.238C719.472 176.521 720.071 176.807 720.668 177.097L721.542 175.298C720.937 175.004 720.331 174.715 719.723 174.428L718.871 176.238ZM722.456 177.979C723.049 178.277 723.64 178.578 724.229 178.883L725.149 177.107C724.552 176.798 723.953 176.493 723.352 176.192L722.456 177.979ZM725.989 179.808C726.574 180.121 727.157 180.437 727.738 180.757L728.703 179.005C728.114 178.681 727.523 178.361 726.931 178.044L725.989 179.808ZM729.475 181.729C730.052 182.057 730.628 182.388 731.201 182.724L732.212 180.998C731.631 180.658 731.048 180.322 730.463 179.99L729.475 181.729ZM732.915 183.743C733.482 184.085 734.046 184.431 734.609 184.781L735.665 183.082C735.095 182.728 734.523 182.377 733.948 182.031L732.915 183.743ZM736.289 185.841C736.847 186.199 737.403 186.56 737.956 186.926L739.058 185.256C738.497 184.886 737.933 184.52 737.368 184.157L736.289 185.841ZM739.611 188.034C740.16 188.407 740.707 188.785 741.252 189.166L742.399 187.528C741.847 187.141 741.292 186.758 740.735 186.38L739.611 188.034ZM742.876 190.32C743.412 190.706 743.945 191.096 744.476 191.49L745.668 189.884C745.13 189.485 744.589 189.089 744.045 188.697L742.876 190.32ZM746.063 192.685C746.589 193.087 747.113 193.494 747.635 193.904L748.872 192.332C748.343 191.916 747.811 191.504 747.277 191.096L746.063 192.685ZM749.193 195.147C749.709 195.565 750.224 195.988 750.735 196.414L752.016 194.878C751.497 194.446 750.975 194.017 750.451 193.593L749.193 195.147ZM752.252 197.697C752.752 198.127 753.251 198.56 753.746 198.998L755.07 197.499C754.567 197.055 754.062 196.615 753.554 196.179L752.252 197.697ZM755.225 200.323C755.716 200.768 756.203 201.218 756.688 201.672L758.055 200.211C757.563 199.751 757.068 199.295 756.57 198.843L755.225 200.323ZM758.136 203.046C758.615 203.508 759.092 203.974 759.566 204.444L760.975 203.023C760.493 202.546 760.01 202.074 759.523 201.605L758.136 203.046ZM760.961 205.846C761.422 206.317 761.88 206.791 762.336 207.27L763.785 205.891C763.322 205.405 762.857 204.924 762.389 204.446L760.961 205.846ZM763.695 208.718C764.145 209.205 764.593 209.696 765.037 210.191L766.525 208.854C766.074 208.352 765.62 207.854 765.163 207.36L763.695 208.718ZM766.362 211.687C766.799 212.189 767.234 212.695 767.666 213.205L769.192 211.913C768.754 211.395 768.313 210.882 767.869 210.373L766.362 211.687ZM768.929 214.719C769.347 215.228 769.762 215.74 770.175 216.256L771.738 215.008C771.319 214.485 770.898 213.965 770.474 213.449L768.929 214.719ZM771.403 217.817C771.809 218.342 772.212 218.87 772.613 219.402L774.211 218.2C773.805 217.66 773.396 217.124 772.983 216.592L771.403 217.817ZM773.804 221.011C774.197 221.549 774.586 222.091 774.973 222.637L776.605 221.482C776.213 220.928 775.818 220.378 775.42 219.832L773.804 221.011ZM776.098 224.251C776.47 224.793 776.839 225.339 777.205 225.889L778.87 224.78C778.499 224.222 778.124 223.669 777.747 223.119L776.098 224.251ZM778.294 227.549C778.654 228.106 779.011 228.668 779.365 229.233L781.06 228.172C780.702 227.598 780.34 227.029 779.975 226.464L778.294 227.549ZM780.417 230.94C780.763 231.511 781.107 232.086 781.447 232.666L783.171 231.653C782.826 231.066 782.478 230.482 782.127 229.903L780.417 230.94ZM782.429 234.365C782.754 234.935 783.075 235.509 783.393 236.087L785.145 235.121C784.822 234.536 784.496 233.954 784.168 233.376L782.429 234.365ZM784.339 237.831C784.651 238.416 784.96 239.004 785.266 239.597L787.043 238.68C786.733 238.079 786.42 237.482 786.104 236.889L784.339 237.831ZM786.174 241.386C786.473 241.986 786.769 242.589 787.062 243.197L788.864 242.328C788.567 241.713 788.267 241.101 787.963 240.493L786.174 241.386ZM787.906 244.977C788.182 245.569 788.455 246.166 788.726 246.765L790.549 245.944C790.275 245.336 789.999 244.732 789.719 244.132L787.906 244.977ZM789.527 248.575C789.79 249.182 790.051 249.792 790.309 250.406L792.153 249.632C791.892 249.01 791.628 248.392 791.361 247.777L789.527 248.575ZM791.072 252.258C791.324 252.879 791.572 253.504 791.817 254.132L793.68 253.405C793.432 252.769 793.181 252.137 792.926 251.508L791.072 252.258ZM792.533 256.004C792.762 256.613 792.987 257.225 793.21 257.841L795.091 257.161C794.866 256.538 794.637 255.918 794.406 255.301L792.533 256.004ZM793.869 259.698C794.086 260.321 794.299 260.946 794.51 261.575L796.406 260.941C796.193 260.304 795.977 259.671 795.758 259.041L793.869 259.698ZM795.132 263.472C795.336 264.108 795.537 264.747 795.736 265.39L797.647 264.801C797.446 264.151 797.243 263.504 797.036 262.861L795.132 263.472Z" fill="#706D8D"/>
<path d="M239.787 207.396C239.787 207.396 259.839 211.536 283.513 225.658C283.513 225.658 287.583 229.131 284.611 231.87C284.611 231.87 282.642 234.488 278.95 235.018C278.95 235.018 259.752 230.732 243.968 228.164L237.188 212.728L239.787 207.396Z" fill="white"/>
<path d="M235.89 208.923C235.89 208.923 261.517 217.559 283.111 229.605C283.111 229.605 286.518 234.238 283.4 236.809C283.4 236.809 281.288 239.314 277.574 239.639C277.574 239.639 257.375 230.06 241.757 226.623L237.107 215.075L235.89 208.923Z" fill="#110545"/>
<path d="M230.996 211.943C230.996 211.943 261.251 221.129 282.305 234.506C282.305 234.506 285.298 239.092 282.196 241.37C282.196 241.37 280.673 244.053 275.326 243.939C275.326 243.939 256.758 240.528 244.671 236.426L234.114 216.378L230.996 211.943Z" fill="white"/>
<path d="M147.246 156.298C147.246 156.298 122.599 151.168 101.914 159.573C101.914 159.573 96.7509 162.578 98.4909 167.397C98.4909 167.397 99.698 171.135 103.679 172.389C103.679 172.389 116.61 176.569 125.592 178.715L147.246 156.298Z" fill="white"/>
<path d="M145.566 159.839C145.566 159.839 123.937 156.262 100.234 163.114C100.234 163.114 95.0712 166.119 96.8112 170.938C96.8112 170.938 98.0183 174.676 102 175.93C102 175.93 114.93 180.11 123.912 182.256L145.566 159.839Z" fill="#110545"/>
<path d="M143.398 163.697C143.398 163.697 118.941 161.36 98.0661 166.973C98.0661 166.973 92.426 169.379 94.6433 174.796C94.6433 174.796 96.4874 177.675 101.068 178.819C101.068 178.819 111.153 180.371 125.719 182.481L143.398 163.697Z" fill="white"/>
<path d="M115.017 189.28L121.857 205.9C123.725 211.148 128.15 213.306 128.15 213.306L202.271 251.805C210.12 255.397 218.208 252.368 218.208 252.368L233.988 249.273L157.615 213.193L115.017 189.28Z" fill="white"/>
<path d="M146.47 130.752C152.063 122.832 160.268 126.419 160.268 126.419L178.995 132.985C180.811 133.351 182.43 132.971 184.835 131.599C188.76 129.37 192.361 130.151 192.361 130.151L231.189 144.113C231.189 144.113 236.517 146.023 237.111 152.236C237.478 155.97 241.703 159.146 244.256 160.063L261.679 168.516C270.262 173.515 266.35 182.741 266.35 182.741L242.724 240.736C237.449 252.359 227.038 249.316 227.038 249.316L118.051 193.56C118.051 193.56 106.674 187.281 114.156 177.102L146.47 130.752Z" fill="#110545"/>
<g style="mix-blend-mode:screen">
<path d="M148.031 132.251C148.031 132.251 151.908 126.222 159.543 128.271L178.24 135.092C180.746 136.183 182.978 134.971 184.83 133.922C188.66 131.837 191.623 132.336 191.623 132.336L230.135 146.572C230.135 146.572 234.62 148.41 234.902 153.528C235.248 158.551 242.307 162.004 242.307 162.004L259.379 170.366C259.379 170.366 266.632 174.152 263.791 182.16L241.28 238.555C241.28 238.555 237.298 248.831 227.828 246.129L119.418 190.957C119.418 190.957 111.223 184.841 116.851 177.286L148.031 132.251Z" fill="white"/>
</g>
<path d="M184.964 166.659L189.497 157.787C196.282 159.908 202.25 162.246 207.83 166.267L205.821 173.871C201.044 170.815 193.482 167.892 184.964 166.659Z" fill="white" stroke="#110545" stroke-width="1.72683"/>
<path d="M135.541 145.316L135.858 144.833L136.398 145.039L140.17 146.479L147.374 136.951L142.32 135.368L142.3 135.362L142.281 135.354C140.561 134.705 139.308 135.147 138.464 135.733C138.03 136.033 137.699 136.378 137.477 136.649C137.366 136.784 137.284 136.898 137.231 136.976C137.205 137.014 137.186 137.044 137.175 137.062L137.164 137.081C137.163 137.081 137.163 137.082 137.163 137.082L137.162 137.083L137.144 137.114L137.121 137.146L131.95 144.214C131.301 145.261 131.092 146.212 131.041 146.892C131.015 147.235 131.03 147.51 131.049 147.693C131.059 147.785 131.07 147.853 131.078 147.895C131.082 147.916 131.085 147.931 131.086 147.938L131.087 147.942L131.087 147.943L131.087 147.944L131.104 148.008L131.107 148.081L131.278 151.808L135.541 145.316Z" fill="white" stroke="#110545" stroke-width="1.43727"/>
<path d="M148.263 137.221L142.417 135.433L142.409 135.43L142.4 135.428C140.617 134.834 139.35 135.283 138.517 135.853C138.089 136.145 137.768 136.476 137.554 136.735C137.448 136.864 137.37 136.972 137.32 137.046C137.295 137.082 137.277 137.11 137.267 137.127L137.256 137.144C137.256 137.144 137.256 137.144 137.256 137.145L137.255 137.145L137.238 137.176L137.215 137.208L133.898 141.768C134.624 141.459 135.31 141.305 135.836 141.229C136.144 141.184 136.401 141.165 136.584 141.157C136.676 141.154 136.75 141.153 136.802 141.153C136.829 141.153 136.85 141.153 136.865 141.153L136.884 141.154L136.891 141.154L136.893 141.154L136.894 141.154C136.895 141.154 136.895 141.154 136.868 141.872L136.895 141.154L137.003 141.158L137.104 141.193L141.845 142.841L148.263 137.221Z" fill="white" stroke="#110545" stroke-width="1.43727"/>
<path d="M258.057 197.124C258.712 196.827 258.712 196.827 258.712 196.828L258.712 196.828L258.713 196.829L258.714 196.833L258.718 196.842L258.731 196.872C258.742 196.896 258.756 196.93 258.773 196.973C258.806 197.059 258.851 197.18 258.9 197.33C258.997 197.629 259.111 198.051 259.18 198.545C259.313 199.503 259.283 200.808 258.535 201.999L257.207 205.487L261.345 202.563L265.749 190.803L265.752 190.793C265.758 190.768 265.769 190.727 265.781 190.673C265.806 190.566 265.839 190.408 265.871 190.212C265.934 189.817 265.987 189.283 265.954 188.713C265.888 187.579 265.496 186.441 264.315 185.825L257.807 183.836L256.671 183.866L254.244 194.69L258.343 196.465L258.597 196.575L258.712 196.827L258.057 197.124ZM265.743 190.826C265.743 190.826 265.743 190.826 265.743 190.826L265.743 190.826Z" fill="white" stroke="#110545" stroke-width="1.43727"/>
<path d="M255.997 192.151L256.087 192.172L256.169 192.216L260.69 194.626L260.735 194.65L260.775 194.679L260.352 195.26C260.775 194.679 260.776 194.68 260.776 194.68L260.777 194.68L260.779 194.682L260.783 194.685L260.797 194.695C260.807 194.703 260.821 194.714 260.838 194.727C260.872 194.754 260.919 194.792 260.975 194.841C261.088 194.938 261.241 195.079 261.415 195.264C261.764 195.633 262.202 196.182 262.571 196.91C262.756 197.275 262.921 197.682 263.048 198.129L265.797 190.789L265.811 190.751L265.828 190.718L265.828 190.718L265.828 190.717L265.829 190.717L265.829 190.716L265.838 190.696C265.848 190.676 265.862 190.644 265.88 190.601C265.917 190.513 265.967 190.382 266.019 190.216C266.122 189.881 266.223 189.423 266.224 188.915C266.227 187.95 265.88 186.754 264.309 185.822L258.543 183.593L253.964 191.666L255.997 192.151Z" fill="white" stroke="#110545" stroke-width="1.43727"/>
<path d="M207.719 167.471C201.485 176.998 206.236 191.474 218.85 199.727C231.464 207.98 246.63 206.537 252.864 197.009C259.098 187.482 254.347 173.006 241.733 164.753C229.119 156.5 213.952 157.943 207.719 167.471Z" fill="white" stroke="#110545" stroke-width="1.43727"/>
<path d="M210.469 162.28C204.296 171.715 208.981 186.107 221.558 194.336C234.134 202.565 249.199 201.095 255.372 191.661C261.545 182.226 256.859 167.833 244.283 159.605C231.706 151.376 216.642 152.846 210.469 162.28Z" fill="white" stroke="#110545" stroke-width="1.72683"/>
<g style="mix-blend-mode:screen">
<path d="M223.221 191.793C212.754 184.945 208.612 172.755 213.97 164.567C219.327 156.379 232.155 155.293 242.622 162.142C253.089 168.99 257.231 181.18 251.874 189.368C246.516 197.556 233.688 198.642 223.221 191.793Z" fill="#0180E3"/>
</g>
<path d="M214.571 164.961C209.516 172.687 213.334 184.465 223.615 191.192C233.895 197.918 246.217 196.701 251.272 188.974C256.328 181.247 252.509 169.47 242.229 162.743C231.948 156.016 219.627 157.234 214.571 164.961Z" fill="white" stroke="#110545" stroke-width="1.43727"/>
<path d="M239.922 166.268C230.374 160.021 218.816 160.407 212.812 166.756C213.107 165.99 213.53 165.239 213.97 164.567C219.338 156.363 232.163 155.298 242.622 162.142C253.082 168.985 257.242 181.163 251.874 189.368C251.403 190.087 250.915 190.728 250.332 191.305C253.745 183.261 249.47 172.515 239.922 166.268Z" fill="#110545"/>
<path d="M138.932 152.521C138.36 163.365 149.143 173.075 163.51 173.906C177.876 174.738 189.701 166.296 190.305 155.407C190.877 144.563 180.095 134.853 165.729 134.021C151.376 133.268 139.551 141.711 138.932 152.521Z" fill="white" stroke="#110545" stroke-width="1.43727"/>
<path d="M155.692 172.307L157.319 167.528" stroke="#110545" stroke-width="1.43727" stroke-linecap="round"/>
<path d="M220.033 200.417L222.813 195.222" stroke="#110545" stroke-width="1.43727" stroke-linecap="round"/>
<path d="M224.861 202.622L227.641 197.426" stroke="#110545" stroke-width="1.43727" stroke-linecap="round"/>
<path d="M229.884 204.22L232.665 199.024" stroke="#110545" stroke-width="1.43727" stroke-linecap="round"/>
<path d="M234.609 204.551L237.108 199.881" stroke="#110545" stroke-width="1.43727" stroke-linecap="round"/>
<path d="M240.095 202.937L241.567 200.186" stroke="#110545" stroke-width="1.43727" stroke-linecap="round"/>
<path d="M244.892 201.537L246.364 198.786" stroke="#110545" stroke-width="1.43727" stroke-linecap="round"/>
<path d="M215.985 196.726L218.688 192.276" stroke="#110545" stroke-width="1.43727" stroke-linecap="round"/>
<path d="M212.342 193.301L214.653 189.497" stroke="#110545" stroke-width="1.43727" stroke-linecap="round"/>
<path d="M209.055 188.876L211.758 184.427" stroke="#110545" stroke-width="1.43727" stroke-linecap="round"/>
<path d="M207.738 183.432L209.564 180.427" stroke="#110545" stroke-width="1.43727" stroke-linecap="round"/>
<path d="M160.095 173.299L161.722 168.52" stroke="#110545" stroke-width="1.43727" stroke-linecap="round"/>
<path d="M164.876 173.381L166.503 168.602" stroke="#110545" stroke-width="1.43727" stroke-linecap="round"/>
<path d="M169.701 171.749L170.923 168.158" stroke="#110545" stroke-width="1.43727" stroke-linecap="round"/>
<path d="M174.364 170.379L175.991 165.6" stroke="#110545" stroke-width="1.43727" stroke-linecap="round"/>
<path d="M151.731 170.492L153.358 165.712" stroke="#110545" stroke-width="1.43727" stroke-linecap="round"/>
<path d="M148.028 167.708L149.655 162.928" stroke="#110545" stroke-width="1.43727" stroke-linecap="round"/>
<path d="M145.301 164.365L146.599 160.552" stroke="#110545" stroke-width="1.43727" stroke-linecap="round"/>
<path d="M142.284 160.145L143.484 156.619" stroke="#110545" stroke-width="1.43727" stroke-linecap="round"/>
<path d="M140.757 155.777L141.678 153.069" stroke="#110545" stroke-width="1.43727" stroke-linecap="round"/>
<path d="M167.4 128.721C153.093 127.922 141.366 136.347 140.766 147.1C140.165 157.853 150.881 167.53 165.189 168.329C179.496 169.128 191.223 160.704 191.823 149.951C192.424 139.198 181.708 129.52 167.4 128.721Z" fill="white" stroke="#110545" stroke-width="1.72683"/>
<g style="mix-blend-mode:screen">
<path d="M144.765 147.324C145.284 138.029 155.342 131.032 167.23 131.696C179.118 132.359 188.334 140.433 187.815 149.728C187.296 159.023 177.238 166.02 165.35 165.357C153.462 164.693 144.246 156.619 144.765 147.324Z" fill="#0180E3"/>
</g>
<path d="M167.19 132.413C155.524 131.762 145.971 138.62 145.483 147.364C144.994 156.109 153.724 163.988 165.39 164.639C177.056 165.291 186.609 158.433 187.097 149.688C187.586 140.943 178.856 133.064 167.19 132.413Z" fill="white" stroke="#110545" stroke-width="1.43727"/>
<path d="M185.286 153.54C185.826 144.232 176.564 136.185 164.743 135.508C157.026 135.05 150.085 137.908 146.021 142.444C149.079 135.675 157.564 131.085 167.285 131.622C179.187 132.282 188.369 140.346 187.828 149.654C187.634 152.884 186.307 155.853 184.134 158.337C184.773 156.836 185.189 155.258 185.286 153.54Z" fill="#110545"/>
<path d="M219.339 179.521C219.483 179.615 219.658 179.661 219.865 179.66C233.47 178.763 240.143 189.091 240.16 189.17C240.449 189.565 240.927 189.672 241.339 189.462C241.734 189.172 241.841 188.694 241.631 188.283C241.567 188.172 234.377 176.958 219.755 177.943C219.262 177.963 218.931 178.364 218.952 178.856C218.97 179.143 219.147 179.396 219.339 179.521Z" fill="#110545"/>
<path d="M152.398 151.343C152.59 151.469 152.766 151.515 153.004 151.465C165.233 149.531 171.875 158.125 172.148 158.441C172.437 158.836 172.947 158.895 173.342 158.606C173.737 158.316 173.796 157.807 173.506 157.411C173.217 157.016 165.964 147.68 152.735 149.782C152.259 149.881 151.928 150.282 152.028 150.758C152.077 150.996 152.207 151.218 152.398 151.343Z" fill="#110545"/>
<path d="M217.353 256.307C217.353 256.307 211.014 261.859 202.951 258.159L125.901 212.463C125.901 212.463 122.408 216.189 120.501 210.83C117.116 202.798 122.588 198.744 149.915 211.589C164.731 218.554 233.793 252.872 217.353 256.307Z" fill="#110545"/>
<path d="M125.382 209.492C129.1 203.713 152.43 212.1 177.489 228.225C202.549 244.349 219.85 262.105 216.131 267.884C212.413 273.663 189.084 265.276 164.024 249.152C138.964 233.027 121.664 215.271 125.382 209.492Z" fill="white"/>
<path d="M175.362 231.268C162.87 223.23 150.832 217.136 141.48 213.775C136.798 212.091 132.834 211.11 129.846 210.892C128.351 210.784 127.145 210.87 126.233 211.125C125.328 211.379 124.766 211.782 124.448 212.277C124.13 212.772 123.996 213.45 124.14 214.379C124.285 215.315 124.706 216.448 125.425 217.763C126.861 220.393 129.397 223.593 132.869 227.157C139.804 234.275 150.339 242.705 162.831 250.743C175.323 258.781 187.361 264.875 196.712 268.237C201.395 269.92 205.358 270.901 208.347 271.119C209.842 271.227 211.047 271.141 211.959 270.886C212.864 270.632 213.427 270.229 213.745 269.734C214.063 269.24 214.197 268.561 214.053 267.632C213.908 266.696 213.487 265.563 212.768 264.248C211.332 261.618 208.796 258.418 205.323 254.854C198.388 247.736 187.854 239.306 175.362 231.268Z" fill="white" stroke="#110545" stroke-width="1.72683"/>
<path d="M193.987 203.787C188.684 208.967 173.398 202.099 171.34 192.675" stroke="#110545" stroke-width="2.27211" stroke-linecap="round"/>
<path fill-rule="evenodd" clip-rule="evenodd" d="M123.213 259.993C123.801 258.422 125.684 257.942 127.061 258.9C128.177 259.675 128.553 261.149 127.983 262.382C116.396 287.455 115.671 319.195 122.468 349.965C109.614 316.9 117.789 274.465 123.213 259.993Z" fill="#110545"/>
<path fill-rule="evenodd" clip-rule="evenodd" d="M139.387 267.402C140.046 266.146 141.694 265.841 142.784 266.749C143.632 267.456 143.846 268.67 143.297 269.628C135.774 282.764 129.321 296.593 130.28 331.826C126.713 305.128 129.906 285.472 139.387 267.402Z" fill="#110545"/>
<path d="M167.645 197.941L142.843 246.352L93.1631 218.684L110.332 159.163L125.28 165.963L124.645 176.854L167.645 197.941Z" fill="#110545"/>
<path d="M150.982 208.507L109.782 187.569L114.338 169.508L157.617 190.899L150.982 208.507Z" fill="white" stroke="#110545" stroke-width="2.02155"/>
<path d="M119.646 183.254L119.527 183.987L120.192 184.32L158.484 203.481L142.19 245.175L75.8956 212.541L96.8118 154.12L122.476 165.796L119.646 183.254Z" fill="white" stroke="#110545" stroke-width="2.02155"/>
<path d="M142.731 246.567L159.761 202.99L120.644 183.416L123.597 165.195L96.2305 152.745L74.6399 213.05L142.731 246.567Z" fill="#DBFF00"/>
<path d="M109.37 213.534C110.267 211.667 112.347 210.995 114.286 211.927C115.264 212.397 115.954 213.146 116.216 214.07L115.353 214.358C115.101 213.61 114.622 213.095 113.924 212.76C112.497 212.074 110.93 212.593 110.263 213.982C109.588 215.386 110.154 216.911 111.596 217.604C112.295 217.94 113.018 217.984 113.744 217.706L114.059 218.56C113.174 218.932 112.157 218.861 111.164 218.384C109.248 217.444 108.473 215.401 109.37 213.534Z" fill="#110545"/>
<path d="M98.8227 205.541L100.995 206.585L98.3405 212.108L99.2403 212.54L101.894 207.017L104.066 208.061L104.444 207.274L99.2008 204.754L98.8227 205.541Z" fill="#110545"/>
<path d="M107.156 216.344L107.527 215.573L103.834 213.798L104.813 211.762L107.993 213.29L108.364 212.519L105.184 210.99L106.118 209.047L109.686 210.761L110.064 209.974L105.58 207.82L102.548 214.13L107.156 216.344Z" fill="#110545"/>
<path d="M122.792 218.199L120.599 222.804L121.467 223.221L124.484 216.904L123.739 216.546L119.005 219.721L118.48 214.019L117.736 213.661L114.703 219.971L115.572 220.388L117.767 215.822L118.231 220.736L118.65 220.937L122.792 218.199Z" fill="#110545"/>
<path fill-rule="evenodd" clip-rule="evenodd" d="M128.122 224.482L124.756 222.864L123.301 224.103L122.371 223.655L128.273 218.724L129.173 219.157L129.026 226.853L128.08 226.399L128.122 224.482ZM128.16 223.608L128.278 219.866L125.43 222.296L128.16 223.608Z" fill="#110545"/>
<path d="M135.376 229.905L138.408 223.594L137.508 223.162L135.247 227.868L133.707 221.335L132.962 220.978L129.93 227.288L130.83 227.72L133.091 223.015L134.631 229.547L135.376 229.905Z" fill="#110545"/>
<path d="M109.37 213.534C110.267 211.667 112.347 210.995 114.286 211.927C115.264 212.397 115.954 213.146 116.216 214.07L115.353 214.358C115.101 213.61 114.622 213.095 113.924 212.76C112.497 212.074 110.93 212.593 110.263 213.982C109.588 215.386 110.154 216.911 111.596 217.604C112.295 217.94 113.018 217.984 113.744 217.706L114.059 218.56C113.174 218.932 112.157 218.861 111.164 218.384C109.248 217.444 108.473 215.401 109.37 213.534Z" stroke="#110545" stroke-width="0.336515"/>
<path d="M98.8227 205.541L100.995 206.585L98.3405 212.108L99.2403 212.54L101.894 207.017L104.066 208.061L104.444 207.274L99.2008 204.754L98.8227 205.541Z" stroke="#110545" stroke-width="0.336515"/>
<path d="M107.156 216.344L107.527 215.573L103.834 213.798L104.813 211.762L107.993 213.29L108.364 212.519L105.184 210.99L106.118 209.047L109.686 210.761L110.064 209.974L105.58 207.82L102.548 214.13L107.156 216.344Z" stroke="#110545" stroke-width="0.336515"/>
<path d="M122.792 218.199L120.599 222.804L121.467 223.221L124.484 216.904L123.739 216.546L119.005 219.721L118.48 214.019L117.736 213.661L114.703 219.971L115.572 220.388L117.767 215.822L118.231 220.736L118.65 220.937L122.792 218.199Z" stroke="#110545" stroke-width="0.336515"/>
<path fill-rule="evenodd" clip-rule="evenodd" d="M128.122 224.482L124.756 222.864L123.301 224.103L122.371 223.655L128.273 218.724L129.173 219.157L129.026 226.853L128.08 226.399L128.122 224.482ZM128.16 223.608L128.278 219.866L125.43 222.296L128.16 223.608Z" stroke="#110545" stroke-width="0.336515"/>
<path d="M135.376 229.905L138.408 223.594L137.508 223.162L135.247 227.868L133.707 221.335L132.962 220.978L129.93 227.288L130.83 227.72L133.091 223.015L134.631 229.547L135.376 229.905Z" stroke="#110545" stroke-width="0.336515"/>
<path fill-rule="evenodd" clip-rule="evenodd" d="M121.366 183.789L159.761 202.99L142.731 246.567L74.6399 213.05L96.2305 152.745L123.597 165.195L121.366 183.789ZM120.844 166.669L117.433 185.75L156.078 204.649L140.517 241.975L79.1317 212.224L97.6579 156.121L120.844 166.669Z" fill="#110545"/>
<path d="M98.8387 171.244C98.2291 168.5 95.5079 166.998 93.5078 166.5C91.5078 166.004 90.0078 165.748 87.3387 165.746C85.8359 168.744 85.8382 174.744 86.8387 177.744C87.1721 177.911 88.7387 178.244 92.3387 178.244C96.8387 178.244 99.8386 175.746 98.8387 171.244Z" fill="white"/>
<path fill-rule="evenodd" clip-rule="evenodd" d="M95.1067 173.481C96.6811 171.907 97.5014 170.502 97.9775 168.783C98.5362 171.298 97.9327 174.422 96.4572 175.897C95.0204 177.334 92.8504 178.002 90.4377 178.002C88.6089 178.002 87.2769 177.917 86.3456 177.808C85.8803 177.753 85.5073 177.691 85.2177 177.627C84.9513 177.569 84.6899 177.496 84.4905 177.396L84.4253 177.364L84.3655 177.322C84.1818 177.194 84.086 177.038 84.0477 176.97C84.0015 176.889 83.9724 176.814 83.9549 176.763C83.9195 176.661 83.897 176.56 83.8818 176.48C83.8503 176.314 83.8268 176.114 83.8087 175.906C83.7717 175.483 83.8125 173.93 83.8063 173.342C83.7941 172.184 84.3655 166.836 85.4961 165.501C88.9961 165.501 86.3194 172.404 86.4961 174.501C86.6936 174.539 86.9514 174.579 87.2771 174.617C88.1125 174.716 88.7301 175 90.5013 175C92.5886 175 94.1686 174.419 95.1067 173.481Z" fill="#110545"/>
<path d="M85.5 167.365C87.553 166.109 89.8395 166.234 94.1081 166.595C90.7178 165.148 87.5125 164.93 85.5 165.5L85.5 167.365Z" fill="#110545"/>
</svg>
