<svg width="551" height="635" viewBox="0 0 551 635" fill="none" xmlns="http://www.w3.org/2000/svg">
<circle cx="293.711" cy="354.112" r="247.455" fill="#DBFF00"/>
<path d="M500.242 136.565C498.867 148.794 501.143 158.004 504.899 162.082M500.242 136.565C496.724 144.78 492.524 151.171 483.713 157.391M500.242 136.565C482.291 215.143 439.478 255.424 403.567 255.409C381.714 255.4 343.253 229.35 342.849 189.483C342.563 161.2 364.666 170.883 366.423 200.922C368.551 237.285 359.872 295.651 324.977 327.789C261.256 386.476 183.676 221.254 195.401 172.179C200.482 150.915 216.918 155.418 223.376 187.635C231.822 229.771 229.483 293.686 224.321 326.127C203.409 457.569 113.284 442.132 72.4556 354.111C52.4586 310.999 44.9373 286.643 38.3354 252.061" stroke="#110545" stroke-width="3" stroke-linecap="round"/>
<path d="M441.629 419.365C441.629 419.365 463.218 404.8 497.109 395.811C497.109 395.811 503.887 395.195 503.738 400.333C503.738 400.333 504.369 404.452 501.571 408.281C501.571 408.281 480.608 421.941 464.241 434.02L444.171 426.469L441.629 419.365Z" fill="white"/>
<path d="M439.551 424.274C439.551 424.274 470.187 408.631 500.34 399.69C500.34 399.69 507.584 400.707 507.151 405.829C507.151 405.829 507.554 409.977 504.548 413.646C504.548 413.646 477.88 423.51 460.87 434.666L446.231 428.633L439.551 424.274Z" fill="#110545"/>
<path d="M437.966 431.405C437.966 431.405 473.215 412.041 504.099 404.773C504.099 404.773 510.932 406.126 510.248 410.972C510.248 410.972 511.335 414.743 506.48 419.507C506.48 419.507 486.873 433.37 472.397 440.722L444.772 432.509L437.966 431.405Z" fill="white"/>
<path d="M312.864 458.169C312.864 458.169 286.289 476.036 275.552 502.328C275.552 502.328 273.697 509.696 279.629 512.396C279.629 512.396 284.102 514.62 288.782 512.112C288.782 512.112 304.079 504.062 314.015 497.797L312.864 458.169Z" fill="white"/>
<path d="M314.592 462.842C314.592 462.842 292.113 479.343 277.281 507.001C277.281 507.001 275.426 514.369 281.357 517.069C281.357 517.069 285.831 519.293 290.511 516.785C290.511 516.785 305.807 508.735 315.743 502.47L314.592 462.842Z" fill="#110545"/>
<path d="M316.179 468.246C316.179 468.246 292.315 488.422 278.868 512.405C278.868 512.405 276.044 519.676 282.944 522.473C282.944 522.473 287.202 523.354 292.315 520.203C292.315 520.203 302.69 512.405 317.556 501.027L316.179 468.246Z" fill="white"/>
<path d="M314.248 516.788L335.45 525.337C341.885 528.302 347.782 526.193 347.782 526.193L448.69 492.969C458.935 489.02 463.368 478.969 463.368 478.969L474.578 461.859L373.867 499.282L314.248 516.788Z" fill="white"/>
<path d="M288.951 436.151C286.716 424.022 297.272 419.744 297.272 419.744L319.891 408.54C321.838 407.213 322.931 405.403 323.821 401.994C325.281 396.442 329.192 393.859 329.192 393.859L376.407 370.939C376.407 370.939 382.881 367.789 389.062 372.771C392.785 375.756 399.431 374.734 402.533 373.226L425.711 364.887C437.888 361.52 442.805 373.28 442.805 373.28L474.577 446.323C480.464 461.454 468.441 468.222 468.441 468.222L320.841 517.832C320.841 517.832 305.015 522.603 302.404 506.748L288.951 436.151Z" fill="#110545"/>
<g style="mix-blend-mode:screen">
<path d="M291.696 436.067C291.696 436.067 289.655 427.181 298.306 422.056L321.131 411.105C324.351 409.795 325.232 406.687 325.923 404.069C327.431 398.731 330.518 396.48 330.518 396.48L377.701 374.09C377.701 374.09 383.36 371.643 388.268 375.935C393.145 380.084 402.562 376.731 402.562 376.731L425.343 368.628C425.343 368.628 435.235 365.394 439.995 375.097L471.302 445.704C471.302 445.704 477.113 458.461 466.238 464.676L319.681 514.28C319.681 514.28 306.833 516.301 304.961 504.465L291.696 436.067Z" fill="white"/>
</g>
<path d="M375.8 411.891L380.934 420.477C373.906 422.107 364.526 426.39 355.833 433.046L351.788 421.035C359.749 416.746 367.182 413.395 375.8 411.891Z" fill="white" stroke="#110545" stroke-width="2.19646"/>
<path d="M295.388 440.845L289.456 444.036L289.433 444.048L289.409 444.059C287.29 445.048 286.578 446.58 286.36 447.869C286.249 448.531 286.268 449.138 286.317 449.582C286.341 449.802 286.372 449.978 286.396 450.095C286.408 450.154 286.418 450.197 286.425 450.224C286.428 450.237 286.43 450.246 286.431 450.25C286.432 450.251 286.432 450.252 286.432 450.253L286.432 450.254L286.445 450.298L286.453 450.347L288.288 461.334C288.664 462.855 289.344 463.891 289.917 464.541C290.206 464.87 290.47 465.101 290.654 465.246C290.746 465.319 290.818 465.369 290.863 465.4C290.872 465.406 290.88 465.412 290.887 465.416C290.897 465.423 290.904 465.427 290.909 465.43L290.914 465.433L290.914 465.433L290.989 465.477L291.057 465.538L294.601 468.696L292.482 459.046L292.324 458.328L292.992 458.02L297.655 455.869L295.388 440.845Z" fill="white" stroke="#110545" stroke-width="1.82816"/>
<path d="M296.426 440.272L289.604 444.002L289.594 444.007L289.584 444.012C287.459 445.107 286.741 446.659 286.519 447.924C286.405 448.573 286.421 449.159 286.466 449.584C286.489 449.795 286.518 449.963 286.54 450.073C286.552 450.128 286.561 450.169 286.567 450.194L286.573 450.218C286.574 450.219 286.574 450.219 286.574 450.22L286.574 450.221L286.574 450.221L286.586 450.264L286.595 450.313L287.797 457.384C288.16 456.449 288.63 455.688 289.028 455.141C289.261 454.821 289.472 454.571 289.628 454.397C289.706 454.31 289.771 454.242 289.817 454.195C289.841 454.171 289.86 454.152 289.874 454.138L289.891 454.121L289.897 454.115L289.899 454.113L289.9 454.112C289.901 454.112 289.901 454.111 290.531 454.774L289.901 454.111L290 454.017L290.123 453.956L295.836 451.106L296.426 440.272Z" fill="white" stroke="#110545" stroke-width="1.82816"/>
<path d="M448.52 393.613C448.831 392.754 448.831 392.754 448.831 392.754L448.832 392.754L448.834 392.755L448.838 392.757L448.85 392.761L448.889 392.776C448.921 392.788 448.964 392.806 449.018 392.828C449.126 392.874 449.276 392.94 449.456 393.029C449.814 393.207 450.299 393.478 450.81 393.855C451.8 394.585 452.961 395.772 453.38 397.512L455.373 401.82L456.391 395.456L449.605 380.997L449.598 380.986C449.58 380.956 449.553 380.911 449.515 380.852C449.44 380.734 449.325 380.563 449.175 380.36C448.872 379.951 448.433 379.428 447.885 378.952C446.794 378.005 445.411 377.35 443.801 377.877L436.206 382.031L435.224 383.091L442.915 394.92L448.173 392.767L448.499 392.634L448.831 392.754L448.52 393.613Z" fill="white" stroke="#110545" stroke-width="1.82816"/>
<path d="M442.165 391.064L442.264 391.002L442.376 390.966L448.588 388.994L448.649 388.975L448.712 388.964L448.864 389.866C448.712 388.964 448.713 388.964 448.713 388.964L448.715 388.964L448.718 388.963L448.725 388.962L448.746 388.959C448.763 388.956 448.785 388.953 448.812 388.95C448.867 388.943 448.942 388.934 449.037 388.926C449.225 388.91 449.49 388.896 449.813 388.902C450.459 388.913 451.348 389.002 452.338 389.313C452.834 389.469 453.351 389.681 453.872 389.962L449.636 380.937L449.614 380.891L449.599 380.846L449.599 380.846L449.598 380.845L449.598 380.844L449.598 380.843C449.596 380.839 449.593 380.83 449.588 380.817C449.578 380.791 449.562 380.749 449.538 380.694C449.491 380.583 449.417 380.42 449.311 380.226C449.099 379.835 448.772 379.336 448.311 378.883C447.435 378.023 446.038 377.275 443.794 377.876L436.641 381.141L439.917 392.484L442.165 391.064Z" fill="white" stroke="#110545" stroke-width="1.82816"/>
<path d="M376.801 413.055C379.929 427.195 397.323 435.738 416.044 431.596C434.765 427.454 446.932 412.371 443.804 398.231C440.675 384.09 423.281 375.548 404.56 379.689C385.839 383.831 373.672 398.914 376.801 413.055Z" fill="white" stroke="#110545" stroke-width="1.82816"/>
<path d="M374.519 405.941C377.617 419.943 394.877 428.472 413.543 424.342C432.208 420.212 444.26 405.198 441.162 391.196C438.064 377.194 420.804 368.665 402.138 372.795C383.473 376.925 371.421 391.938 374.519 405.941Z" fill="white" stroke="#110545" stroke-width="2.19646"/>
<g style="mix-blend-mode:screen">
<path d="M412.709 420.572C397.174 424.009 382.402 416.944 379.713 404.791C377.024 392.639 387.438 380.002 402.972 376.565C418.507 373.128 433.28 380.193 435.968 392.345C438.657 404.498 428.243 417.135 412.709 420.572Z" fill="#0180E3"/>
</g>
<path d="M380.605 404.594C383.143 416.062 397.253 423.055 412.511 419.679C427.769 416.304 437.613 404.011 435.076 392.543C432.539 381.075 418.428 374.082 403.17 377.457C387.912 380.833 378.068 393.126 380.605 404.594Z" fill="white" stroke="#110545" stroke-width="1.82816"/>
<path d="M404.327 382.689C390.157 385.824 380.235 396.684 380.675 407.79C380.241 406.841 379.934 405.788 379.713 404.791C377.019 392.615 387.449 379.999 402.972 376.565C418.496 373.13 433.274 380.169 435.968 392.345C436.204 393.414 436.354 394.426 436.361 395.47C432.075 385.214 418.498 379.554 404.327 382.689Z" fill="#110545"/>
<path d="M302.058 462.36C311.417 472.518 329.836 471.338 343.362 459.004C356.887 446.671 359.717 428.408 350.345 418.181C340.987 408.023 322.569 409.203 309.043 421.535C295.602 433.925 292.774 452.189 302.058 462.36Z" fill="white" stroke="#110545" stroke-width="1.82816"/>
<path d="M334.954 464.7L332.051 458.972" stroke="#110545" stroke-width="1.82816" stroke-linecap="round"/>
<path d="M417.721 431.138L415.464 423.99" stroke="#110545" stroke-width="1.82816" stroke-linecap="round"/>
<path d="M424.018 428.7L421.762 421.552" stroke="#110545" stroke-width="1.82816" stroke-linecap="round"/>
<path d="M429.94 425.551L427.684 418.404" stroke="#110545" stroke-width="1.82816" stroke-linecap="round"/>
<path d="M434.433 421.552L432.405 415.127" stroke="#110545" stroke-width="1.82816" stroke-linecap="round"/>
<path d="M437.84 415.127L436.646 411.343" stroke="#110545" stroke-width="1.82816" stroke-linecap="round"/>
<path d="M440.836 409.512L439.642 405.728" stroke="#110545" stroke-width="1.82816" stroke-linecap="round"/>
<path d="M410.763 431.541L409.117 425.126" stroke="#110545" stroke-width="1.82816" stroke-linecap="round"/>
<path d="M404.41 431.808L403.004 426.325" stroke="#110545" stroke-width="1.82816" stroke-linecap="round"/>
<path d="M397.458 430.871L395.812 424.457" stroke="#110545" stroke-width="1.82816" stroke-linecap="round"/>
<path d="M391.335 427.231L390.224 422.9" stroke="#110545" stroke-width="1.82816" stroke-linecap="round"/>
<path d="M339.769 461.576L336.866 455.848" stroke="#110545" stroke-width="1.82816" stroke-linecap="round"/>
<path d="M344.098 457.297L341.195 451.568" stroke="#110545" stroke-width="1.82816" stroke-linecap="round"/>
<path d="M346.897 451.455L344.717 447.151" stroke="#110545" stroke-width="1.82816" stroke-linecap="round"/>
<path d="M349.8 445.995L346.897 440.267" stroke="#110545" stroke-width="1.82816" stroke-linecap="round"/>
<path d="M329.787 466.686L326.884 460.957" stroke="#110545" stroke-width="1.82816" stroke-linecap="round"/>
<path d="M323.956 467.584L321.053 461.855" stroke="#110545" stroke-width="1.82816" stroke-linecap="round"/>
<path d="M318.495 467.089L316.179 462.519" stroke="#110545" stroke-width="1.82816" stroke-linecap="round"/>
<path d="M311.974 466.081L309.832 461.855" stroke="#110545" stroke-width="1.82816" stroke-linecap="round"/>
<path d="M306.638 463.599L304.993 460.354" stroke="#110545" stroke-width="1.82816" stroke-linecap="round"/>
<path d="M305.7 415.308C292.257 427.616 289.499 445.774 298.75 455.878C308 465.981 326.331 464.832 339.774 452.524C353.217 440.216 355.975 422.058 346.724 411.954C337.474 401.851 319.144 403 305.7 415.308Z" fill="white" stroke="#110545" stroke-width="2.19646"/>
<g style="mix-blend-mode:screen">
<path d="M302.512 452.431C294.515 443.697 297.088 428.326 308.258 418.1C319.428 407.873 334.965 406.663 342.962 415.397C350.958 424.131 348.386 439.501 337.216 449.728C326.046 459.955 310.508 461.165 302.512 452.431Z" fill="#0180E3"/>
</g>
<path d="M308.875 418.774C297.914 428.81 295.663 443.597 303.186 451.814C310.709 460.03 325.637 459.09 336.599 449.054C347.56 439.018 349.811 424.231 342.288 416.014C334.765 407.797 319.837 408.738 308.875 418.774Z" fill="white" stroke="#110545" stroke-width="1.82816"/>
<path d="M344.18 421.093C336.191 412.329 320.638 413.604 309.514 423.758C302.238 430.372 298.67 439.229 299.185 446.958C295.744 438.158 299.109 426.359 308.238 417.99C319.417 407.749 334.915 406.561 342.904 415.325C345.67 418.373 347.193 422.219 347.521 426.404C346.724 424.489 345.658 422.708 344.18 421.093Z" fill="#110545"/>
<path d="M398.082 413.202C398.295 413.154 398.493 413.036 398.675 412.846C409.952 399.67 425.28 402.777 425.367 402.833C425.984 402.92 426.506 402.581 426.681 402.019C426.768 401.402 426.428 400.88 425.867 400.705C425.709 400.666 409.116 397.241 397.015 411.421C396.596 411.887 396.666 412.544 397.133 412.963C397.409 413.201 397.797 413.265 398.082 413.202Z" fill="#110545"/>
<path d="M312.947 449.067C313.232 449.004 313.429 448.885 313.596 448.624C322.705 435.778 336.428 437.373 336.958 437.405C337.575 437.493 338.082 437.082 338.169 436.465C338.257 435.848 337.846 435.342 337.229 435.254C336.612 435.167 321.671 433.468 311.825 447.373C311.492 447.895 311.563 448.551 312.085 448.884C312.346 449.05 312.662 449.13 312.947 449.067Z" fill="#110545"/>
<path d="M466.191 483.255C466.191 483.255 465.608 493.957 455.076 498.005L345.014 527.498C345.014 527.498 345.299 533.988 338.729 530.96C328.412 526.901 329.586 518.319 365.563 504.871C385.068 497.58 477.677 465.243 466.191 483.255Z" fill="#110545"/>
<path d="M341.854 525.323C339.901 516.803 368.267 503.03 405.212 494.56C442.157 486.089 473.69 486.129 475.643 494.649C477.597 503.169 449.23 516.942 412.286 525.412C375.341 533.882 343.808 533.842 341.854 525.323Z" fill="white"/>
<path d="M406.084 499.207C387.668 503.43 371.424 508.967 360.053 514.488C354.359 517.252 349.943 519.986 347.089 522.512C345.661 523.776 344.669 524.949 344.091 526.006C343.517 527.055 343.384 527.925 343.551 528.655C343.719 529.384 344.217 530.109 345.191 530.803C346.171 531.503 347.576 532.126 349.411 532.642C353.081 533.672 358.247 534.21 364.576 534.218C377.217 534.234 394.251 532.141 412.667 527.919C431.083 523.696 447.327 518.159 458.698 512.638C464.392 509.874 468.808 507.14 471.662 504.614C473.089 503.35 474.082 502.177 474.66 501.12C475.234 500.071 475.367 499.201 475.199 498.472C475.032 497.742 474.534 497.017 473.56 496.323C472.579 495.623 471.175 495 469.339 494.484C465.67 493.454 460.504 492.916 454.175 492.908C441.534 492.892 424.5 494.985 406.084 499.207Z" fill="white" stroke="#110545" stroke-width="2.19646"/>
<path d="M397.632 457.833C397.632 467.263 377.798 475.067 367.393 468.564" stroke="#110545" stroke-width="2.89004" stroke-linecap="round"/>
</svg>
