<svg width="157" height="31" viewBox="0 0 157 31" fill="none" xmlns="http://www.w3.org/2000/svg">
<path d="M14.2257 22.4764L0.638672 30.4738L13.3321 18.1641C13.3321 18.1902 12.0444 21.4048 14.2257 22.4764Z" fill="#110545"/>
<path d="M19.0874 24.8021L8.60156 27.5985L17.2478 23.1816C17.2478 23.2078 17.2478 24.5145 19.0874 24.8021Z" fill="#110545"/>
<path d="M33.1476 25.2461C27.5761 25.2461 22.0046 26.4483 20.6644 27.9381C19.3503 29.4278 22.7931 30.63 28.3645 30.63C33.936 30.63 39.5074 29.4278 40.8478 27.9381C42.1618 26.4483 38.719 25.2461 33.1476 25.2461Z" fill="#110545"/>
<path d="M50.2569 11.2118C49.0743 9.01651 46.9718 7.76202 45.2373 8.04947L45.0271 7.97108C45.0271 7.97108 44.9482 6.32454 43.5554 5.6973L34.9616 1.67245C34.9616 1.67245 34.6726 1.51564 34.3309 1.46337C34.1732 1.43723 33.9893 1.43723 33.8316 1.4895C33.4637 1.54178 32.8855 1.69858 32.0708 2.09061L28.6806 0.52249C27.2615 -0.157031 25.3167 -0.130893 24.1867 0.966795L21.1645 3.94623C19.4562 5.3314 19.3774 7.91881 19.3774 7.91881V13.1459C18.5364 13.6948 17.6954 14.322 16.9859 15.0277C14.2001 17.7196 16.066 17.981 16.3814 18.0332C16.3814 18.0332 16.6442 18.0594 16.6705 18.0855C13.8847 20.9081 16.4865 20.9865 16.4865 20.9865L19.3774 19.1309V21.1172C19.4825 22.6591 20.7177 22.9467 20.7177 22.9467L23.7662 23.6262C26.2628 22.9989 30.0472 22.7115 33.8053 22.9728C35.934 23.1296 37.7474 23.4171 39.0877 23.8353C39.0877 23.8353 39.4294 23.9137 39.9024 24.0966C40.428 24.3057 40.8748 24.5409 41.1639 24.7761C41.926 25.325 42.5304 26.109 42.215 27.2067L47.8128 26.4488C49.8889 25.9 49.8101 24.2273 49.8101 24.2273C49.8101 24.2273 49.8364 17.5889 49.8364 17.4582C51.2818 16.3083 51.5446 13.6163 50.2569 11.2118ZM43.0035 6.84726C43.7393 7.21317 43.8707 8.18014 43.8707 8.65059C43.6342 8.70285 43.3714 8.78125 43.1612 8.91198C43.0035 8.99038 42.5304 9.30397 42.215 9.74829C41.9785 10.0881 41.4004 10.3755 41.0061 10.2187C41.0061 10.2187 39.5345 9.64376 39.3768 9.53923C39.2454 9.46083 39.0614 9.22557 39.0088 8.57219C39.0088 7.68362 38.7986 6.76885 38.3781 5.85411C38.0102 5.09618 37.5372 4.4428 36.9853 3.89395L43.0035 6.84726ZM32.3073 4.07691C33.8842 3.24058 36.0129 4.12918 37.0641 6.0632C38.1153 7.99721 37.6686 10.2449 36.0917 11.1073C34.5149 11.9437 32.3862 11.055 31.3349 9.12104C30.2838 7.1609 30.7305 4.91324 32.3073 4.07691ZM21.6637 5.20073L24.3181 2.53492C25.3167 1.54178 27.0775 1.22815 28.339 1.82926L31.2824 3.10989C31.1773 3.1883 31.0722 3.24057 30.9933 3.34511C29.9684 3.6326 28.4704 4.59961 28.0236 5.3314C26.368 4.86096 24.9488 5.90638 24.9488 5.90638C24.9488 5.90638 23.5296 7.00404 22.3207 8.04947C21.6375 8.65059 21.0067 9.30397 20.5074 9.82668V8.337C20.5337 8.31087 20.4286 6.55977 21.6637 5.20073ZM48.68 23.3387C48.68 23.3387 48.68 23.8876 48.4698 24.3841C48.4173 24.4887 47.9968 25.2205 47.0769 24.8807L28.6281 19.4706C28.6281 19.4706 27.1826 19.1309 26.9987 17.7718C26.9987 17.7457 26.9724 17.6412 26.9724 17.615C26.8936 17.3798 26.6571 17.1968 26.3942 17.1968C26.0789 17.1968 25.8161 17.4321 25.7898 17.7196C25.7898 17.7457 25.7898 17.798 25.7898 17.8502C25.7898 18.0594 25.7898 18.9741 25.0014 19.4706L21.8215 21.1695C21.8215 21.1695 21.1907 21.5354 20.7702 21.0911C20.6389 20.9081 20.56 20.5422 20.56 20.0718V18.3729L25.2904 15.3412V14.0606C25.2904 14.0606 25.3167 13.5118 24.87 13.6425C24.4232 13.7732 23.0567 14.2174 20.56 15.472V15.4196L25.2904 12.3618V11.1334C25.2904 11.1334 25.2642 10.5323 24.8437 10.6369C24.6334 10.6892 24.3444 10.7676 24.0027 10.8983C23.0567 11.2118 21.9003 11.63 20.56 12.3879V12.3357C21.1907 11.7346 22.2945 10.6892 22.9778 10.1403C24.0553 9.27783 25.2379 8.54606 25.2379 8.54606C26.184 7.91881 26.9724 7.99721 27.5506 8.07561C27.3929 9.43463 27.2615 10.8982 27.3666 11.2903C27.498 12.7277 28.6806 13.9822 30.7042 14.5049C32.5438 14.9754 34.7251 14.2435 36.302 13.172C36.8802 12.78 38.1416 12.5187 38.1416 12.5187C39.298 12.3357 40.2703 12.8323 40.6908 13.2243C40.6908 13.2243 40.9273 13.4856 41.1113 13.6948C41.2953 13.93 41.5055 14.2174 41.5055 14.2174C41.5055 14.2174 43.8182 18.0071 45.579 19.2355C46.052 19.549 46.6039 19.732 47.1821 19.8627C47.8391 19.9934 48.3122 19.9411 48.68 19.7582V23.3387ZM48.7852 16.256C47.55 16.9094 45.7366 15.9946 44.7643 14.1651C43.7919 12.3618 44.0021 10.3494 45.2373 9.66989C46.4725 9.01651 48.2859 9.93121 49.2582 11.7607C50.2306 13.5902 50.0203 15.6026 48.7852 16.256Z" fill="#110545"/>
<path d="M90.1535 15.8315C90.1535 11.3212 93.6018 8.04102 98.2871 8.04102C100.648 8.04102 102.71 8.86101 104.097 10.4266L102.673 11.8058C101.473 10.5757 100.049 10.0166 98.362 10.0166C94.9137 10.0166 92.3275 12.514 92.3275 15.8688C92.3275 19.2608 94.8762 21.721 98.362 21.721C100.049 21.721 101.511 21.1245 102.673 19.8945L104.097 21.2737C102.71 22.8393 100.648 23.6592 98.2496 23.6592C93.6018 23.622 90.1535 20.3418 90.1535 15.8315Z" fill="#110545"/>
<path d="M61.9121 10.0914H67.1596V23.4359H69.3335V10.0914H74.581V8.19036H61.9121V10.0914Z" fill="#110545"/>
<path d="M88.4576 23.4359V21.5722H79.5369V16.6519H87.2206V14.7881H79.5369V10.0914H88.1577V8.19036H77.3254V23.4359H88.4576Z" fill="#110545"/>
<path d="M120.898 12.3279L120.935 23.4359H123.034L122.997 8.19036H121.198L114.901 18.8884L108.491 8.19036H106.692V23.4359H108.791V12.4025L114.339 21.6094H115.351L120.898 12.3279Z" fill="#110545"/>
<path fill-rule="evenodd" clip-rule="evenodd" d="M137.286 19.6339H129.152L127.465 23.4359H125.217L132.151 8.19036H134.325L141.296 23.4359H139.01L137.286 19.6339ZM136.536 17.8819L133.238 10.4269L129.939 17.8819H136.536Z" fill="#110545"/>
<path d="M156.637 23.4359V8.19036H154.463V19.5593L145.279 8.19036H143.48V23.4359H145.654V12.067L154.837 23.4359H156.637Z" fill="#110545"/>
<path d="M90.1535 15.8315C90.1535 11.3212 93.6018 8.04102 98.2871 8.04102C100.648 8.04102 102.71 8.86101 104.097 10.4266L102.673 11.8058C101.473 10.5757 100.049 10.0166 98.362 10.0166C94.9137 10.0166 92.3275 12.514 92.3275 15.8688C92.3275 19.2608 94.8762 21.721 98.362 21.721C100.049 21.721 101.511 21.1245 102.673 19.8945L104.097 21.2737C102.71 22.8393 100.648 23.6592 98.2496 23.6592C93.6018 23.622 90.1535 20.3418 90.1535 15.8315Z" stroke="#110545" stroke-width="0.4"/>
<path d="M61.9121 10.0914H67.1596V23.4359H69.3335V10.0914H74.581V8.19036H61.9121V10.0914Z" stroke="#110545" stroke-width="0.4"/>
<path d="M88.4576 23.4359V21.5722H79.5369V16.6519H87.2206V14.7881H79.5369V10.0914H88.1577V8.19036H77.3254V23.4359H88.4576Z" stroke="#110545" stroke-width="0.4"/>
<path d="M120.898 12.3279L120.935 23.4359H123.034L122.997 8.19036H121.198L114.901 18.8884L108.491 8.19036H106.692V23.4359H108.791V12.4025L114.339 21.6094H115.351L120.898 12.3279Z" stroke="#110545" stroke-width="0.4"/>
<path fill-rule="evenodd" clip-rule="evenodd" d="M137.286 19.6339H129.152L127.465 23.4359H125.217L132.151 8.19036H134.325L141.296 23.4359H139.01L137.286 19.6339ZM136.536 17.8819L133.238 10.4269L129.939 17.8819H136.536Z" stroke="#110545" stroke-width="0.4"/>
<path d="M156.637 23.4359V8.19036H154.463V19.5593L145.279 8.19036H143.48V23.4359H145.654V12.067L154.837 23.4359H156.637Z" stroke="#110545" stroke-width="0.4"/>
</svg>
