<svg width="352" height="305" viewBox="0 0 352 305" fill="none" xmlns="http://www.w3.org/2000/svg">
<path d="M95.3532 247.667C76.4249 244.792 55.1007 253.896 45.2773 261.084L53.5404 210.104L118.252 109.303C153.758 100.993 224.877 90.8934 230.317 106.607C235.756 122.32 213.445 223.954 201.609 272.807C189.856 255.177 144.084 261.263 129.086 269.03C124.301 257.95 111.734 250.155 95.3532 247.667Z" fill="#3852CE" stroke="#110545" stroke-width="1.80219"/>
<path fill-rule="evenodd" clip-rule="evenodd" d="M225.786 101.058C228.432 102.323 230.379 104.03 231.169 106.312C231.908 108.445 232.145 111.899 232.032 116.279C231.918 120.698 231.443 126.179 230.686 132.443C229.171 144.974 226.517 160.701 223.327 177.449C216.946 210.947 208.406 248.584 202.486 273.019L202.002 275.019L200.861 273.307C198.087 269.147 193.251 266.31 187.179 264.553C181.116 262.799 173.922 262.153 166.583 262.296C151.879 262.583 136.837 266.031 129.501 269.83L128.643 270.275L128.26 269.387C110.425 237.846 63.8716 247.947 43.422 266.595L52.682 209.775L117.692 108.509L118.048 108.426C135.838 104.262 162.542 99.651 185.498 98.0475C196.969 97.2462 207.552 97.1923 215.633 98.3385C219.67 98.9112 223.134 99.7903 225.786 101.058ZM118.814 110.098L54.401 210.434L46.5083 259.129C51.502 255.805 58.6193 252.27 66.631 249.743C75.638 246.902 85.8462 245.311 95.4897 246.776C111.618 249.226 124.302 256.801 129.522 267.807C137.43 264.017 152.208 260.774 166.548 260.494C173.996 260.349 181.386 261.001 187.68 262.822C193.229 264.427 198.005 266.964 201.183 270.74C207.075 246.301 215.343 209.735 221.557 177.111C224.744 160.38 227.389 144.698 228.897 132.227C229.651 125.99 230.119 120.571 230.231 116.233C230.343 111.857 230.088 108.697 229.466 106.902C228.897 105.256 227.431 103.842 225.009 102.684C222.591 101.528 219.329 100.683 215.379 100.123C207.486 99.0031 197.05 99.0471 185.623 99.8453C162.935 101.43 136.529 105.973 118.814 110.098Z" fill="#110545"/>
<path d="M41.4549 288.678L2.17188 303.032C30.888 217.681 78.1635 152.436 118.77 108.784C81.7531 170.731 62.5894 215.039 41.4549 288.678Z" fill="#110545" stroke="#110545" stroke-width="1.80219"/>
<path d="M133.098 254.981L141.435 225.738" stroke="#110545" stroke-width="1.35165" stroke-linecap="round"/>
<path d="M280.838 70.836L280.874 70.7665L280.922 70.7043L300.791 44.9488C300.868 44.3412 300.95 43.4878 300.972 42.6709C300.984 42.2065 300.977 41.7711 300.943 41.4078C300.907 41.0224 300.848 40.8051 300.807 40.719C300.807 40.72 300.807 40.7197 300.806 40.7181C300.8 40.7096 300.771 40.6644 300.69 40.5828C300.597 40.4897 300.466 40.3779 300.295 40.2501C299.954 39.9943 299.504 39.7128 299 39.4282C298.166 38.9567 297.235 38.5056 296.518 38.183C294.439 39.4185 289.37 43.0053 283.189 49.1235C279.901 52.3778 276.915 55.8772 274.58 58.9298C272.569 61.5583 271.07 63.8183 270.272 65.288L280.128 72.1888L280.838 70.836Z" fill="white" stroke="#110545" stroke-width="1.80219"/>
<path d="M305.501 54.6599C304.768 54.1109 303.803 53.7133 302.386 53.5108C302.033 53.668 301.435 54.03 300.587 54.6355C299.624 55.3239 298.427 56.2592 297.062 57.3802C294.332 59.6206 290.965 62.5721 287.5 65.7013C280.877 71.6818 273.931 78.2821 270.457 81.7489L279.694 99.6814L306.938 60.2095C307.235 59.4691 307.428 58.1628 307.356 57.0058C306.808 55.9696 306.238 55.2126 305.501 54.6599Z" fill="white" stroke="#110545" stroke-width="1.80219"/>
<path d="M304.496 58.8879C304.88 58.9299 305.531 59.1763 306.374 60.1753L273.318 104.08C273.229 104.107 273.101 104.143 272.94 104.182C272.611 104.262 272.151 104.356 271.627 104.408C270.673 104.502 269.571 104.451 268.659 103.997C268.707 103.851 268.775 103.655 268.872 103.405C269.129 102.744 269.584 101.708 270.369 100.235C271.939 97.2881 274.827 92.5992 280.089 85.6702C285.348 78.7449 291.313 72.0654 295.967 67.1146C298.293 64.6399 300.29 62.5987 301.705 61.1764C302.412 60.4653 302.974 59.909 303.359 59.5307C303.552 59.3416 303.7 59.1969 303.8 59.0997L303.913 58.9898L303.919 58.9839C303.939 58.9725 303.975 58.9542 304.025 58.9362C304.124 58.9004 304.283 58.8645 304.496 58.8879Z" fill="#110545" stroke="#110545" stroke-width="0.948509"/>
<path d="M269.294 87.4787L269.239 87.5523L269.215 87.6411L268.771 89.315C268.699 89.3332 268.614 89.3543 268.516 89.377C268.193 89.4523 267.744 89.5455 267.239 89.6169C266.35 89.7425 265.355 89.7902 264.569 89.6034C264.592 89.479 264.624 89.3244 264.665 89.1396C264.797 88.5544 265.031 87.6652 265.437 86.4676C266.249 84.0723 267.747 80.443 270.493 75.5445C275.974 65.7667 286.929 53.3851 298.142 44.3162L298.179 44.2858L298.207 44.2524C298.207 44.252 298.208 44.2514 298.208 44.2507C298.212 44.2463 298.221 44.2374 298.233 44.2254C298.259 44.201 298.301 44.1649 298.357 44.1269C298.47 44.0509 298.635 43.9718 298.849 43.9546C299.221 43.9247 299.916 44.0762 300.89 45.2191L269.294 87.4787Z" fill="#110545" stroke="#110545" stroke-width="0.948509"/>
<g opacity="0.5" filter="url(#filter0_f_3588_11889)">
<path d="M133.926 68.263C133.926 68.263 132.657 64.8331 134.654 63.502C136.657 62.1687 137.996 63.403 138.978 66.1573L167.615 134.82C167.615 134.82 162.819 133.139 162.888 137.763L133.921 68.2651L133.926 68.263Z" fill="white"/>
<path d="M134.371 68.0989L134.414 68.2166L162.672 136.011C162.811 135.627 163.005 135.304 163.244 135.037C163.783 134.433 164.496 134.176 165.163 134.087C165.765 134.007 166.357 134.061 166.817 134.139L138.54 66.3399L138.535 66.3284L138.531 66.3166C138.046 64.9557 137.507 64.0839 136.93 63.6877C136.657 63.5001 136.376 63.4193 136.069 63.4402C135.752 63.4618 135.372 63.5939 134.917 63.8966L134.371 68.0989ZM134.371 68.0989L134.371 68.0988M134.371 68.0989L134.371 68.0988M134.371 68.0988L134.371 68.0987M134.371 68.0988L134.371 68.0987M134.371 68.0987L134.371 68.0984M134.371 68.0987L134.371 68.0984M134.371 68.0984L134.371 68.0982L134.369 68.0931L134.36 68.069C134.353 68.0469 134.341 68.013 134.327 67.9687C134.299 67.8798 134.26 67.7496 134.218 67.5885C134.135 67.2647 134.045 66.8245 134.014 66.3504C133.95 65.3725 134.139 64.4154 134.917 63.8967L134.371 68.0984Z" stroke="#110545" stroke-width="0.948509"/>
</g>
<path d="M258.205 159.524L258.205 159.524C258.611 158.339 258.663 157.369 258.443 156.589C258.227 155.817 257.731 155.177 256.938 154.67C255.32 153.635 252.511 153.185 248.638 153.408C240.928 153.853 229.372 156.94 215.799 162.598C202.237 168.25 189.272 175.381 179.277 182.336C174.279 185.814 170.033 189.241 166.827 192.412C163.612 195.593 161.486 198.476 160.668 200.86L258.205 159.524ZM258.205 159.524C257.388 161.907 255.263 164.79 252.048 167.971C248.843 171.141 244.597 174.569 239.6 178.046C229.606 185.001 216.64 192.132 203.078 197.784C189.508 203.441 177.952 206.528 170.24 206.973M258.205 159.524L170.24 206.973M170.24 206.973C166.367 207.197 163.557 206.747 161.938 205.712M170.24 206.973L161.938 205.712M161.938 205.712C161.145 205.205 160.648 204.566 160.431 203.794M161.938 205.712L160.431 203.794M160.431 203.794C160.211 203.014 160.262 202.044 160.668 200.86L160.431 203.794Z" fill="#110545" stroke="#110545" stroke-width="0.948509"/>
<path d="M258.008 159.453L258.007 159.454C257.206 161.792 255.108 164.648 251.899 167.823C248.706 170.982 244.469 174.403 239.478 177.876C229.496 184.821 216.544 191.946 202.994 197.593C188.332 203.705 176.066 206.796 168.466 206.819C168.457 206.263 168.56 205.626 168.808 204.898C169.61 202.56 171.709 199.704 174.918 196.529C178.113 193.369 182.35 189.949 187.341 186.475C197.323 179.529 210.276 172.405 223.826 166.757C238.488 160.646 250.755 157.56 258.349 157.534C258.359 158.09 258.258 158.726 258.008 159.453Z" fill="white" stroke="#110545" stroke-width="1.35165"/>
<path d="M167.022 58.9317C160.232 66.905 162.636 80.3102 172.682 88.8651C182.728 97.4199 196.345 97.6583 203.135 89.685C209.925 81.7117 207.52 68.3065 197.475 59.7516C187.429 51.1968 173.812 50.9584 167.022 58.9317Z" fill="white" stroke="#110545" stroke-width="0.931025"/>
<path d="M239.558 58.1349C236.625 61.6665 236.023 66.6367 237.51 71.8756C238.996 77.1121 242.56 82.5671 247.868 86.9763C253.177 91.3856 259.193 93.888 264.613 94.3879C270.036 94.8881 274.812 93.3846 277.745 89.8531C280.678 86.3215 281.28 81.3513 279.793 76.1123C278.307 70.8759 274.743 65.4209 269.435 61.0117C264.126 56.6024 258.11 54.1 252.689 53.6001C247.267 53.0999 242.491 54.6033 239.558 58.1349Z" fill="white" stroke="#110545" stroke-width="0.931025"/>
<path opacity="0.5" d="M143.997 88.1402C144.028 88.2931 144.052 88.4225 144.071 88.5226L141.53 91.1227C141.369 90.9207 141.159 90.626 140.939 90.2318C140.468 89.3853 139.949 88.0736 139.775 86.2227C139.809 86.1743 139.852 86.1137 139.904 86.043C140.051 85.8453 140.267 85.5703 140.542 85.2649C141.025 84.7305 141.676 84.1191 142.443 83.6615C142.959 84.4652 143.361 85.6093 143.644 86.6449C143.803 87.2271 143.92 87.7564 143.997 88.1402Z" fill="white" stroke="#110545" stroke-width="0.948509"/>
<g opacity="0.5" filter="url(#filter1_f_3588_11889)">
<path d="M286.338 123.079C286.338 123.079 287.642 129.082 283.878 129.95L181 141.135C181 141.135 174.846 141.878 171.68 135.078C168.513 128.278 172.045 124.818 176.34 125.182C180.634 125.547 282.692 121.791 282.692 121.791C282.692 121.791 286.145 121.503 286.338 123.079Z" fill="url(#paint0_linear_3588_11889)"/>
<path d="M285.87 123.158L285.868 123.136C285.844 122.942 285.725 122.776 285.457 122.628C285.18 122.474 284.796 122.373 284.376 122.314C283.963 122.256 283.551 122.243 283.238 122.245C283.082 122.246 282.953 122.251 282.864 122.255C282.82 122.258 282.785 122.26 282.763 122.261L282.737 122.263L282.732 122.264L282.731 122.264L285.87 123.158ZM285.87 123.158L285.875 123.179L285.875 123.179L285.875 123.179L285.875 123.181L285.878 123.192C285.88 123.202 285.883 123.217 285.887 123.237C285.895 123.278 285.906 123.339 285.92 123.418C285.947 123.576 285.981 123.805 286.012 124.082C286.073 124.639 286.116 125.383 286.047 126.146C285.908 127.7 285.341 129.112 283.798 129.482L180.949 140.664L180.949 140.664L180.945 140.664L180.944 140.664L180.944 140.664L285.87 123.158Z" stroke="#110545" stroke-width="0.948509"/>
</g>
<path d="M160.775 82.4937C160.775 82.4937 160.775 82.4937 160.775 82.4936L161.116 82.3226C160.938 82.4118 160.835 82.4636 160.775 82.4937ZM179.612 98.4055C192.24 102.084 203.195 98.7812 207.267 91.2959C207.28 91.2945 207.293 91.2932 207.306 91.292C207.459 91.2782 207.584 91.2892 207.651 91.3168C207.656 91.3187 207.659 91.3205 207.662 91.3219C207.664 91.3291 207.665 91.3407 207.665 91.3577C207.666 91.4836 207.596 91.774 207.261 92.313C206.582 93.4045 205.057 95.5356 203.034 97.6331C201.007 99.7367 198.519 101.765 195.92 102.708C190.554 104.656 183.587 106.405 176.075 103.695C168.488 100.957 164.29 97.0815 162.164 93.5121L162.163 93.5116C161.659 92.6668 161.294 91.4279 161.058 90.0387C160.823 88.659 160.721 87.1725 160.717 85.8617C160.713 84.6462 160.793 83.6097 160.92 82.9598C160.94 82.9964 160.962 83.0352 160.985 83.0762C161.178 83.4174 161.466 83.9064 161.851 84.5035C162.62 85.6975 163.779 87.3263 165.337 89.0714C168.45 92.5587 173.179 96.5314 179.612 98.4055ZM207.66 91.3122C207.66 91.3118 207.66 91.3123 207.66 91.314C207.66 91.3131 207.66 91.3125 207.66 91.3122Z" fill="#9371CA" stroke="#110545" stroke-width="0.948509"/>
<path d="M233.511 71.7722L233.506 71.827L233.514 71.8814L233.983 71.8168C233.514 71.8814 233.514 71.8817 233.514 71.8819L233.514 71.8827L233.514 71.885L233.515 71.8925L233.519 71.9189C233.522 71.9416 233.528 71.9744 233.535 72.0168C233.549 72.1016 233.571 72.225 233.602 72.3837C233.665 72.7011 233.767 73.1597 233.923 73.7329C234.234 74.879 234.761 76.4846 235.627 78.3357C237.359 82.0384 240.45 86.7268 245.881 90.6772C256.682 98.5359 265.735 99.0209 271.831 96.9926C274.854 95.987 276.606 94.7522 277.61 93.7385C278.026 93.3188 278.311 92.9392 278.504 92.633C278.536 92.6875 278.568 92.7453 278.598 92.8058C278.818 93.2486 278.937 93.7941 278.668 94.3658L278.668 94.3668C278.53 94.6616 278.128 95.1938 277.453 95.8596C276.79 96.5132 275.895 97.2638 274.811 97.9986C272.641 99.4696 269.74 100.86 266.455 101.299C259.861 102.181 251.332 99.384 244.184 94.471C237.061 89.5757 232.919 83.1239 231.607 78.4201C230.98 76.1741 231.697 73.9839 232.552 72.6602C232.764 72.3325 232.979 72.0674 233.174 71.8738C233.313 71.7353 233.43 71.6459 233.519 71.593C233.52 71.6387 233.518 71.6975 233.511 71.7722Z" fill="#9371CA" stroke="#110545" stroke-width="0.948509"/>
<path d="M160.651 101.48L160.651 101.48L160.651 101.48L160.651 101.48L160.643 101.455L160.632 101.432C160.514 101.169 160.457 100.907 160.449 100.687C160.442 100.508 160.468 100.385 160.494 100.316C160.565 100.358 160.692 100.46 160.868 100.693L160.868 100.693L160.869 100.694C161.91 102.057 163.626 103.424 165.424 104.638C167.231 105.858 169.161 106.949 170.665 107.751L170.665 107.751C173.288 109.148 176.391 109.774 179.091 110.004C181.791 110.234 184.134 110.072 185.261 109.863L185.31 109.854L185.357 109.835C185.783 109.657 186.032 109.852 186.102 109.976C186.105 109.982 186.108 109.987 186.11 109.991C186.081 109.998 186.034 110.004 185.965 110.003L185.866 110.002L185.775 110.04C183.291 111.075 177.59 112.882 170.497 110.772C166.714 109.644 164.252 107.321 162.731 105.27C161.971 104.245 161.448 103.291 161.117 102.595C160.951 102.247 160.833 101.964 160.757 101.77C160.72 101.674 160.692 101.599 160.675 101.55C160.666 101.525 160.66 101.507 160.656 101.495L160.652 101.482L160.651 101.48ZM186.123 110.033C186.123 110.033 186.123 110.031 186.123 110.028C186.124 110.031 186.124 110.033 186.123 110.033ZM186.152 109.977C186.154 109.974 186.156 109.973 186.156 109.973C186.156 109.973 186.155 109.975 186.152 109.977Z" fill="url(#paint1_linear_3588_11889)" stroke="#110545" stroke-width="0.948509"/>
<path d="M164.28 57.1736L164.28 57.1734C171.789 47.9488 187.202 47.8702 198.748 57.2758C210.293 66.681 213.327 81.7839 205.82 91.0141C198.307 100.229 182.891 100.314 171.351 90.907L171.35 90.9068C159.8 81.5036 156.769 66.3935 164.28 57.1736ZM203.697 89.285L203.698 89.2848C210.608 80.8006 207.686 67.1888 197.458 58.859C187.23 50.5295 173.305 50.4105 166.393 58.895C159.485 67.372 162.405 80.9909 172.633 89.3208C182.856 97.6528 196.784 97.7639 203.697 89.285Z" fill="url(#paint2_linear_3588_11889)" stroke="#110545" stroke-width="0.948509"/>
<path d="M275.163 88.089L275.163 88.0888C277.862 84.7736 278.305 80.2108 276.931 75.5739C275.557 70.9343 272.354 66.1685 267.667 62.3535C262.982 58.5348 257.668 56.362 252.846 55.9541C248.028 55.5465 243.65 56.9028 240.95 60.2153C238.247 63.529 237.802 68.0912 239.175 72.7285C240.549 77.3685 243.753 82.1356 248.44 85.9532C253.128 89.7707 258.444 91.9429 263.266 92.3505C268.085 92.7579 272.463 91.4015 275.163 88.089ZM236.84 72.1809C235.29 66.9446 235.837 61.9642 238.734 58.406L238.734 58.4059C241.63 54.8516 246.396 53.3107 251.837 53.7715C257.275 54.232 263.335 56.6932 268.708 61.0699C274.081 65.4466 277.715 70.8844 279.265 76.1184C280.816 81.3553 280.271 86.3365 277.376 89.8935C274.478 93.449 269.711 94.9915 264.27 94.5316C258.832 94.072 252.771 91.6108 247.398 87.2316C242.024 82.8524 238.389 77.4146 236.84 72.1809Z" fill="url(#paint3_linear_3588_11889)" stroke="#110545" stroke-width="0.948509"/>
<path opacity="0.5" d="M194.547 70.4306L194.547 70.4307C198.36 72.9154 199.871 74.9932 200.667 76.4708C200.856 76.8204 201.002 77.1327 201.125 77.3951L201.14 77.4268C201.27 77.7036 201.366 77.9044 201.462 78.0594C201.556 78.21 201.629 78.2797 201.691 78.3171C201.748 78.351 201.837 78.3825 202.009 78.3772C202.323 78.3673 202.451 78.2614 202.521 78.1595C202.607 78.0349 202.66 77.8345 202.663 77.5577C201.928 73.0114 199.312 68.3714 195.013 64.8685C188.365 59.4542 179.9 58.5082 174.16 61.8736C173.998 62.1306 173.823 62.5195 173.848 62.9693C173.875 63.4443 174.131 64.0963 175.127 64.8087L194.547 70.4306ZM194.547 70.4306C191.798 68.6404 187.529 67.7111 183.696 66.9845M194.547 70.4306L183.696 66.9845M183.696 66.9845C183.182 66.8871 182.676 66.7933 182.181 66.7016M183.696 66.9845L182.181 66.7016M182.181 66.7016C180.81 66.4476 179.526 66.2098 178.406 65.9546M182.181 66.7016L178.406 65.9546M178.406 65.9546C176.86 65.6026 175.726 65.2368 175.127 64.8088L178.406 65.9546Z" fill="white" stroke="#110545" stroke-width="0.948509"/>
<path opacity="0.5" d="M264.987 72.9137L264.987 72.9137C262.635 71.2985 259.018 70.416 255.787 69.72C255.353 69.6265 254.926 69.5364 254.509 69.4484C253.353 69.2046 252.272 68.9766 251.328 68.736C250.024 68.4037 249.077 68.0687 248.578 67.6934C247.74 67.0627 247.521 66.4985 247.492 66.0952C247.466 65.7252 247.594 65.4076 247.718 65.1931C252.436 62.3964 259.514 63.3406 265.173 68.1603C268.831 71.2807 271.1 75.366 271.792 79.338C271.794 79.574 271.752 79.7316 271.694 79.8203C271.655 79.8797 271.581 79.9565 271.346 79.9599C271.215 79.9615 271.155 79.9359 271.119 79.913C271.075 79.8854 271.017 79.8299 270.936 79.6986C270.854 79.5638 270.771 79.3888 270.657 79.1445L270.643 79.1155C270.536 78.8846 270.407 78.6092 270.243 78.3004C269.547 76.9921 268.239 75.1483 264.987 72.9137Z" fill="white" stroke="#110545" stroke-width="0.948509"/>
<path d="M229.62 71.2353L229.621 71.2259L229.622 71.2183L229.635 71.1533C229.646 71.0955 229.663 71.0097 229.687 70.899C229.733 70.6776 229.804 70.3572 229.902 69.9644C230.097 69.1781 230.397 68.1055 230.816 66.9587C231.234 65.8103 231.768 64.598 232.428 63.5271C232.722 63.0502 233.037 62.6067 233.375 62.2114C233.323 62.3911 233.271 62.5821 233.22 62.7837C232.87 64.1914 232.609 66.1234 232.93 68.2937C232.794 68.3773 232.624 68.495 232.42 68.6596C231.904 69.0766 231.171 69.7961 230.245 71.0267C230.027 71.3165 229.85 71.5201 229.709 71.6584C229.671 71.6951 229.637 71.7259 229.607 71.7517C229.602 71.6858 229.599 71.6095 229.601 71.5263C229.603 71.4384 229.608 71.3589 229.613 71.3013C229.616 71.2728 229.618 71.2502 229.62 71.2353ZM229.65 71.965C229.65 71.9651 229.65 71.9642 229.649 71.9624L229.65 71.965Z" fill="url(#paint4_linear_3588_11889)" stroke="#110545" stroke-width="0.948509"/>
<path d="M157.285 67.8309C157.036 70.5753 157.185 74.3566 158.743 78.5969C158.724 78.6137 158.704 78.6315 158.683 78.6503C158.476 78.8371 158.192 79.1186 157.869 79.5072C157.371 80.1067 156.779 80.96 156.234 82.112C156.148 81.8312 156.056 81.4931 155.965 81.0958C155.633 79.6499 155.317 77.4179 155.403 74.3132C155.493 71.2366 156.375 68.1069 157.254 65.9805C157.427 65.5628 157.597 65.1894 157.758 64.8664C157.581 65.624 157.395 66.6282 157.285 67.8309ZM158.607 63.5503C158.611 63.5479 158.612 63.5469 158.612 63.5471C158.612 63.5472 158.611 63.5484 158.607 63.5503Z" fill="url(#paint5_linear_3588_11889)" stroke="#110545" stroke-width="0.948509"/>
<path d="M207.549 78.6642C206.094 72.771 202.043 66.908 195.898 62.8187C184.826 55.4176 170.878 56.2654 164.919 65.1933C164.395 65.9752 163.96 66.7774 163.6 67.5983C163.829 65.0698 164.632 62.674 166.04 60.5538C171.601 52.2222 184.833 51.1261 195.726 58.4358C203.444 63.6185 207.723 71.5398 207.549 78.6642Z" fill="#110545" stroke="#110545" stroke-width="0.931025"/>
<path d="M270.016 68.8848C265.943 64.5266 260.8 61.4208 255.772 59.9403C250.754 58.4626 245.785 58.588 242.118 60.7962C241.505 61.1636 240.958 61.5701 240.468 62.0108C241.229 60.418 242.426 59.0776 244.064 58.0857C247.429 56.0593 252.093 55.8739 256.961 57.3005C261.82 58.7244 266.82 61.7392 270.802 66.0121C276.397 72.021 278.359 78.7625 276.769 83.5977C276.758 78.982 274.469 73.6324 270.016 68.8848Z" fill="#110545" stroke="#110545" stroke-width="0.931025"/>
<path d="M240.363 115.855C236.174 121.196 225.655 122.793 215.072 119.694" stroke="#110545" stroke-width="2.37127" stroke-linecap="round"/>
<path d="M152.564 39.6592C161.175 33.4622 170.799 34.1164 177.309 35.5537" stroke="#110545" stroke-width="2.37127" stroke-linecap="round"/>
<path d="M247.196 41.0182C256.076 38.5317 263.736 41.9404 268.621 45.0581" stroke="#110545" stroke-width="2.37127" stroke-linecap="round"/>
<path d="M127.083 62.8227L127.09 62.8069L127.097 62.7908C127.228 62.4781 127.362 62.1477 127.5 61.8042C128.036 60.4788 128.65 58.957 129.536 57.4932C130.64 55.6702 132.108 54.042 134.227 53.1572C137.955 51.6006 140.84 51.3169 142.552 51.3403L257.246 56.0869C260.387 56.2169 263.17 58.1503 264.387 61.0485L290.396 122.952C291.003 124.547 291.809 127.356 291.887 130.2C291.965 133.07 291.302 135.766 289.215 137.418C287.526 138.755 284.524 140.306 281.079 141.86C277.658 143.404 273.89 144.912 270.725 146.18L271.06 147.016L270.725 146.18L270.331 146.338C267.982 147.278 265.332 147.12 263.138 145.883L256.449 142.112C255.797 141.744 255.074 141.42 254.277 141.251C250.565 140.461 245.291 140.695 236.918 142.036C228.52 143.381 216.893 145.862 200.416 149.647C199.232 149.919 198.09 150.412 197.081 151.093L167.663 170.942C166.808 171.519 165.85 171.928 164.842 172.146L152.448 174.827C151.356 174.984 150.196 174.586 148.91 173.481C147.604 172.36 146.253 170.579 144.851 168.182C142.049 163.392 139.175 156.381 136.074 147.964L136.067 147.943L136.058 147.922L114.213 96.7845C113.307 94.6642 113.346 92.2586 114.321 90.1692L127.083 62.8227Z" fill="white" stroke="#110545" stroke-width="1.80219"/>
<path d="M113.862 91.3613L127.044 62.9487C128.363 60.1052 132.433 60.1847 133.64 63.0776L168.394 146.362C168.963 147.724 168.644 149.295 167.589 150.327L151.058 166.503C148.32 169.181 143.742 168.243 142.28 164.703L113.769 95.7014C113.192 94.3053 113.226 92.7316 113.862 91.3613Z" fill="white" stroke="#110545" stroke-width="1.80219"/>
<path d="M142.607 51.3834L257.457 55.7009C260.619 55.8198 263.424 57.7675 264.64 60.6894L290.214 122.147C292.257 127.058 289.099 132.574 283.829 133.297L177.268 147.919C173.633 148.418 170.116 146.414 168.692 143.032L134.828 62.6356C132.526 57.1689 136.679 51.1606 142.607 51.3834Z" fill="white" stroke="#110545" stroke-width="1.80219"/>
<path d="M151.646 165.586C154.228 164.036 167.412 151.854 168.258 149.317C169.291 146.218 164.815 133.829 162.405 126.426C168.71 138.35 169.374 146.017 176.451 146.466C178.99 146.628 209.661 143.292 215.773 142.172C221.884 141.053 283.343 133.22 287.389 131.499C290.625 130.122 291.033 126.162 290.832 124.354C291.09 124.9 291.658 126.644 291.865 129.261C292.072 131.878 291.262 134.081 290.832 134.856C290.344 134.54 288.973 133.892 287.389 133.823C285.409 133.737 229.459 140.021 221.884 142.172C214.309 144.324 177.815 149.317 158.123 162.296C153.741 165.185 152.449 168.225 148.546 171.955L146.137 170.664C145.276 169.516 144.071 167.307 146.137 167.651C148.719 168.082 149.064 167.135 151.646 165.586Z" fill="#110545"/>
<path d="M236.93 116.433C232.741 121.773 222.222 123.37 211.639 120.272" stroke="#110545" stroke-width="2.37127" stroke-linecap="round"/>
<path d="M151.586 175.052L159.368 165.559C159.368 165.559 181.215 150.476 216.891 144.972C252.568 139.474 281.732 136.673 281.732 136.673C281.732 136.673 289.664 134.785 289.313 138.243L263.591 153.345C263.591 153.345 263.868 148 257.11 144.858C250.351 141.716 240.033 141.624 215.319 149.319C190.604 157.009 173.153 167.63 166.862 172.288L151.586 175.052Z" fill="#110545"/>
<path d="M165.672 51.6023C167.561 49.0369 168.95 46.183 173.701 44.4592C178.453 42.7353 224.585 44.9365 229.736 47.346C233.413 49.0661 235.45 52.3934 236.942 54.4627" stroke="#110545" stroke-width="1.80219" stroke-linecap="round"/>
<path d="M255.161 154.894L255.177 154.896L255.192 154.898L255.192 154.898L255.193 154.898L255.193 154.898L255.193 154.898L255.194 154.898L255.203 154.899C255.212 154.9 255.227 154.902 255.246 154.904C255.284 154.909 255.342 154.917 255.412 154.93C255.514 154.948 255.641 154.974 255.779 155.011C255.067 155.053 254.105 155.131 252.894 155.275C249.994 155.622 245.666 156.351 239.926 157.883C229.317 160.709 206.673 168.538 181.199 186.633L173.475 189.388C173.503 189.365 173.532 189.342 173.56 189.319C174.956 188.194 177.036 186.582 179.767 184.639C185.229 180.754 193.297 175.545 203.708 170.261C214.117 164.978 224.968 160.796 234.238 158.105C238.873 156.76 243.107 155.789 246.688 155.239C250.279 154.688 253.178 154.566 255.161 154.894Z" fill="white" stroke="#110545" stroke-width="0.948509"/>
<path d="M140.749 77.801C139.93 75.8257 138.702 72.5365 137.03 67.4223C134.691 60.2668 134.928 58.504 135.988 56.5476C136.231 56.099 136.448 55.7732 136.825 55.292L138.403 56.0037C141.117 58.8584 146.608 64.8002 146.861 65.7306C147.115 66.661 154.4 90.3913 155.386 93.5631C152.32 95.8539 147.585 99.9231 146.861 100.361C142.543 102.975 136.43 84.409 134.809 84.1271C133.364 82.8231 130.411 80.0037 130.157 79.1579C129.84 78.1007 128.888 62.6646 129.522 62.2416C130.156 61.8187 131.865 61.9263 132.8 63.2989C133.778 64.7339 138.085 72.392 140.749 77.801Z" fill="white"/>
<path d="M166.72 145.63L151.434 105.252C151.848 104.619 151.943 104.384 152.358 103.966C160.594 122.114 161.72 127.737 171.272 140.973L170.125 136.552L156.508 97.4036L149.294 90.3521L142.809 93.1077L159.668 147.332L166.72 145.63Z" fill="white"/>
<path d="M165.029 143.969C164.33 140.972 162.115 133.98 161.096 130.859L161.096 129.36C163.031 132.69 166.94 139.449 167.089 139.849C167.277 140.348 169.337 145.155 169.274 145.905C169.225 146.504 168.754 149.442 168.525 150.837L160.035 156.455C163.468 153.209 164.579 151.96 165.528 150.212C166.103 149.153 165.904 147.715 165.029 143.969Z" fill="#110545"/>
<path d="M141.752 51.3706C139.136 51.9727 133.995 54.4967 134.36 59.7755C134.626 63.6197 134.925 65.5006 135.133 66.2885C135.201 66.4526 135.264 66.6101 135.322 66.7594C135.276 66.7245 135.211 66.5826 135.133 66.2885C134.102 63.8065 131.867 59.8472 129.807 60.7869C128.058 61.5845 127.364 62.2518 127.158 62.6285C127.132 62.7082 127.108 62.7848 127.086 62.858C127.084 62.8024 127.105 62.725 127.158 62.6285C127.826 60.5415 129.54 56.322 131.638 54.4292C133.816 52.4641 139.288 51.5713 141.752 51.3706Z" fill="#110545"/>
<path d="M124.27 70.2622L128.293 78.4801" stroke="#110545" stroke-width="1.35165" stroke-linecap="round"/>
<path d="M120.414 77.9038L126.282 89.8889" stroke="#110545" stroke-width="1.35165" stroke-linecap="round"/>
<path d="M116.762 85.418L120.785 93.6358" stroke="#110545" stroke-width="1.35165" stroke-linecap="round"/>
<path d="M143.701 78.8908C145.573 78.0176 147.273 77.2847 149.403 76.8091C151.428 76.3571 153.869 76.1322 157.228 76.2705L159.698 89.6868C159.52 89.6925 159.331 89.697 159.13 89.7017C156.891 89.7544 153.275 89.8395 149.53 92.0461C146.662 93.7361 144.706 96.4656 142.905 98.9782L142.866 99.0317C137.376 106.691 130.452 119.011 126.438 126.859L122.289 116.797C123.819 113.495 125.315 109.878 126.823 106.233C126.896 106.057 126.969 105.88 127.042 105.704C128.668 101.775 130.31 97.8273 132.039 94.1851C133.768 90.5411 135.572 87.2268 137.512 84.5602C139.458 81.8877 141.505 79.9161 143.701 78.8908Z" stroke="#110545" stroke-width="1.35165" stroke-linecap="round"/>
<path d="M122.243 121.691C122.243 121.691 129.83 103.209 136.765 90.798C136.765 90.798 141.211 80.4158 150.73 79.7719L152.449 86.3027C152.449 86.3027 145.867 86.9154 139.716 96.667C139.716 96.667 137.911 90.8842 133.562 100.33C129.208 109.778 125.02 118.712 123.064 123.646L122.249 121.689L122.243 121.691Z" fill="#110545"/>
<path d="M113.89 155.445C119.642 134.67 130.428 122.037 145.714 108.887L149.483 109.593L151.635 114.571C150.295 116.451 148.649 118.749 146.832 121.285C138.904 132.352 127.725 147.958 124.526 153.193C121.417 158.281 119.937 160.769 119.363 161.767C117.851 161.731 116.368 161.541 114.585 161.2C114.261 160.259 114.033 159.178 113.909 158.162C113.765 156.972 113.777 155.977 113.89 155.445Z" fill="white" stroke="#110545" stroke-width="1.80219"/>
<path d="M145.789 109.31L147.993 115.348" stroke="#110545" stroke-width="1.80219"/>
<mask id="path-51-inside-1_3588_11889" fill="white">
<path d="M155.699 122.972L150.858 122.339L150.855 122.341C147.699 125.047 138.241 133.154 131.484 142.163C124.893 150.952 119.77 162.137 117.968 166.943C117.668 168.295 117.969 171.234 118.869 175.289C121.573 177.092 123.826 177.092 126.981 176.641C127.131 176.341 128.423 174.118 132.388 167.63C136.353 161.142 151.742 140.081 158.8 130.169L155.699 122.972Z"/>
</mask>
<path d="M155.699 122.972L150.858 122.339L150.855 122.341C147.699 125.047 138.241 133.154 131.484 142.163C124.893 150.952 119.77 162.137 117.968 166.943C117.668 168.295 117.969 171.234 118.869 175.289C121.573 177.092 123.826 177.092 126.981 176.641C127.131 176.341 128.423 174.118 132.388 167.63C136.353 161.142 151.742 140.081 158.8 130.169L155.699 122.972Z" fill="white"/>
<path d="M150.858 122.339L151.092 120.552L150.295 120.448L149.685 120.97L150.858 122.339ZM155.699 122.972L157.354 122.259L156.949 121.318L155.933 121.185L155.699 122.972ZM158.8 130.169L160.268 131.215L160.857 130.388L160.455 129.456L158.8 130.169ZM126.981 176.641L127.236 178.425L128.171 178.292L128.593 177.447L126.981 176.641ZM118.869 175.289L117.11 175.68L117.267 176.387L117.87 176.789L118.869 175.289ZM117.968 166.943L116.281 166.31L116.236 166.429L116.209 166.552L117.968 166.943ZM131.484 142.163L132.926 143.244L132.926 143.244L131.484 142.163ZM150.855 122.341L149.683 120.972L149.682 120.973L150.855 122.341ZM150.624 124.126L155.465 124.759L155.933 121.185L151.092 120.552L150.624 124.126ZM154.044 123.686L157.145 130.882L160.455 129.456L157.354 122.259L154.044 123.686ZM157.332 129.124C150.327 138.961 134.859 160.13 130.85 166.69L133.926 168.57C137.846 162.154 153.157 141.201 160.268 131.215L157.332 129.124ZM130.85 166.69C126.913 173.133 125.564 175.446 125.369 175.835L128.593 177.447C128.59 177.452 128.608 177.419 128.665 177.317C128.717 177.224 128.791 177.095 128.891 176.923C129.09 176.579 129.385 176.077 129.802 175.379C130.635 173.982 131.945 171.81 133.926 168.57L130.85 166.69ZM126.727 174.857C125.187 175.077 124.033 175.159 122.989 175.023C121.988 174.892 121.008 174.549 119.869 173.79L117.87 176.789C119.434 177.832 120.933 178.39 122.523 178.597C124.07 178.799 125.62 178.656 127.236 178.425L126.727 174.857ZM120.629 174.899C120.188 172.914 119.901 171.235 119.76 169.912C119.614 168.535 119.644 167.708 119.727 167.334L116.209 166.552C115.991 167.53 116.022 168.848 116.176 170.293C116.336 171.791 116.65 173.61 117.11 175.68L120.629 174.899ZM119.655 167.576C121.419 162.874 126.468 151.855 132.926 143.244L130.043 141.082C123.317 150.049 118.122 161.401 116.281 166.31L119.655 167.576ZM132.926 143.244C139.549 134.414 148.863 126.422 152.028 123.709L149.682 120.973C146.535 123.671 136.933 131.895 130.043 141.082L132.926 143.244ZM152.028 123.71L152.03 123.708L149.685 120.97L149.683 120.972L152.028 123.71Z" fill="#110545" mask="url(#path-51-inside-1_3588_11889)"/>
<path d="M151.375 123.738L154.55 131" stroke="#110545" stroke-width="1.80219"/>
<path d="M153.48 128.959L157.919 129.919C153.135 136.671 142.517 151.6 138.322 157.303C134.127 163.006 128.27 172.08 125.867 175.904L120.41 174.958C132.496 151.203 139.547 142.725 153.48 128.959Z" fill="#110545"/>
<path d="M147.519 113.882L151.373 114.924C145.767 122.632 133.621 139.571 129.885 145.667C126.148 151.764 121.335 158.915 119.396 161.728L114.742 161.026C125.384 137.529 132.41 128.783 147.519 113.882Z" fill="#110545"/>
<path d="M231.207 72.2214L233.06 80.746C226.859 80.1307 217.963 81.0497 208.979 84.1227L208.979 73.0885C216.694 71.7679 223.718 71.0686 231.207 72.2214Z" fill="white" stroke="#110545" stroke-width="1.80219"/>
<path d="M199.113 98.2232L199.088 98.2461L199.065 98.2709C190.746 107.137 175.126 106.365 164.139 96.0564C153.153 85.7475 151.389 70.2087 159.708 61.3426C162.73 58.1226 165.854 55.2527 169.83 52.4877C173.562 51.9066 177.915 52.9416 182.283 55.0057C186.711 57.0982 191.06 60.2042 194.634 63.5571C198.229 66.931 201.109 72.2364 202.942 77.7765C204.732 83.1835 205.48 88.6793 204.995 92.6375C202.617 95.0122 201.77 95.7885 199.526 97.845C199.393 97.9664 199.256 98.0923 199.113 98.2232Z" fill="white" stroke="#110545" stroke-width="1.80219"/>
<path d="M194.437 98.8081L191.652 103.192" stroke="#110545" stroke-width="1.35165" stroke-linecap="round"/>
<path d="M197.08 98.3278L195.121 101.45" stroke="#110545" stroke-width="1.35165" stroke-linecap="round"/>
<path d="M191.436 99.5303L188.352 104.036" stroke="#110545" stroke-width="1.35165" stroke-linecap="round"/>
<path d="M188.113 99.5303L184.789 104.385" stroke="#110545" stroke-width="1.35165" stroke-linecap="round"/>
<path d="M184.512 99.083L180.957 104.326" stroke="#110545" stroke-width="1.35165" stroke-linecap="round"/>
<path d="M180.309 98.0353L176.849 103.342" stroke="#110545" stroke-width="1.35165" stroke-linecap="round"/>
<path d="M176.274 96.616L172.701 101.847" stroke="#110545" stroke-width="1.35165" stroke-linecap="round"/>
<path d="M172.105 94.0828L168.414 99.2313" stroke="#110545" stroke-width="1.35165" stroke-linecap="round"/>
<path d="M168.412 90.8954L164.328 95.9219" stroke="#110545" stroke-width="1.35165" stroke-linecap="round"/>
<path d="M165.603 87.1453L160.981 92.6328" stroke="#110545" stroke-width="1.35165" stroke-linecap="round"/>
<path d="M162.977 83.2778L158.271 88.6981" stroke="#110545" stroke-width="1.35165" stroke-linecap="round"/>
<path d="M159.579 80.3093L156.224 84.3939" stroke="#110545" stroke-width="1.35165" stroke-linecap="round"/>
<path d="M157.021 77.2625L155.161 79.528" stroke="#110545" stroke-width="1.35165" stroke-linecap="round"/>
<path d="M200.114 58.4443C211.101 68.7532 212.864 84.292 204.545 93.1581C196.226 102.024 180.607 101.253 169.62 90.9436C158.633 80.6347 156.87 65.0959 165.189 56.2298C173.508 47.3638 189.127 48.1354 200.114 58.4443Z" fill="white" stroke="#110545" stroke-width="1.80219"/>
<path d="M197.689 61.0262C206.916 69.6834 208.523 82.5969 201.691 89.8774C194.86 97.1579 181.87 96.3755 172.644 87.7184C163.418 79.0612 161.811 66.1477 168.642 58.8672C175.473 51.5867 188.463 52.369 197.689 61.0262Z" fill="white" stroke="#110545" stroke-width="1.35165"/>
<path d="M235.919 62.5432L235.934 62.5275L235.947 62.5111C236.461 61.9067 236.901 61.3853 237.304 60.9073C238.419 59.585 239.254 58.5948 240.597 57.0986C244.26 55.9549 249.002 56.2513 253.847 57.7597C258.777 59.2943 263.712 62.0536 267.565 65.6582C271.099 68.9633 273.994 73.4991 275.863 78.1574C277.698 82.7314 278.508 87.3293 278.035 90.9164C276.378 93.0939 275.063 94.5897 272.784 97.0264C265.623 104.682 251.484 103.589 241.138 93.9114C230.791 84.2335 228.758 70.1985 235.919 62.5432Z" fill="white" stroke="#110545" stroke-width="1.80219"/>
<path d="M271.339 95.8115L268.316 100.57" stroke="#110545" stroke-width="1.35165" stroke-linecap="round"/>
<path d="M273.868 95.5263C274.001 95.3155 273.937 95.0374 273.726 94.9052C273.516 94.7729 273.237 94.8366 273.105 95.0473L273.868 95.5263ZM273.105 95.0473L270.649 98.9625L271.412 99.4415L273.868 95.5263L273.105 95.0473Z" fill="#110545"/>
<path d="M268.082 97.0601L265.195 101.278" stroke="#110545" stroke-width="1.35165" stroke-linecap="round"/>
<path d="M264.76 97.5073L261.742 101.915" stroke="#110545" stroke-width="1.35165" stroke-linecap="round"/>
<path d="M261.157 97.0601L258.051 101.641" stroke="#110545" stroke-width="1.35165" stroke-linecap="round"/>
<path d="M256.953 96.0124L253.494 101.319" stroke="#110545" stroke-width="1.35165" stroke-linecap="round"/>
<path d="M252.919 94.5936L249.345 99.8244" stroke="#110545" stroke-width="1.35165" stroke-linecap="round"/>
<path d="M248.75 92.0603L245.059 97.2089" stroke="#110545" stroke-width="1.35165" stroke-linecap="round"/>
<path d="M245.057 88.8724L240.972 93.899" stroke="#110545" stroke-width="1.35165" stroke-linecap="round"/>
<path d="M241.707 85.7649L237.889 90.2983" stroke="#110545" stroke-width="1.35165" stroke-linecap="round"/>
<path d="M238.269 82.815L234.979 86.604" stroke="#110545" stroke-width="1.35165" stroke-linecap="round"/>
<path d="M235.282 79.4309L232.97 82.246" stroke="#110545" stroke-width="1.35165" stroke-linecap="round"/>
<path d="M272.032 60.4205C282.379 70.0984 284.412 84.1333 277.251 91.7887C270.09 99.444 255.951 98.3516 245.605 88.6737C235.258 78.9958 233.225 64.9608 240.386 57.3055C247.547 49.6502 261.686 50.7426 272.032 60.4205Z" fill="white" stroke="#110545" stroke-width="1.80219"/>
<path d="M269.873 62.7274C274.166 66.7432 276.804 71.6767 277.62 76.3841C278.436 81.091 277.43 85.5288 274.503 88.6576C271.577 91.7864 267.216 93.0865 262.465 92.586C257.713 92.0855 252.615 89.7829 248.322 85.7671C244.029 81.7514 241.391 76.8179 240.575 72.1105C239.759 67.4035 240.765 62.9657 243.692 59.8369C246.618 56.7081 250.979 55.4081 255.73 55.9085C260.481 56.4091 265.58 58.7117 269.873 62.7274Z" fill="white" stroke="#110545" stroke-width="1.35165"/>
<path fill-rule="evenodd" clip-rule="evenodd" d="M265.638 75.7311C263.144 73.3947 257.565 71.1981 251.323 74.3559L252.444 77.0444C257.744 73.6987 262.435 75.7311 265.079 77.0442L265.638 75.7311Z" fill="#110545"/>
<path fill-rule="evenodd" clip-rule="evenodd" d="M192.819 76.3233C190.007 73.6896 183.286 71.3692 176.928 75.3832L177.946 77.8036C183.92 74.0323 189.208 76.3233 192.188 77.8034L192.819 76.3233Z" fill="#110545"/>
<defs>
<filter id="filter0_f_3588_11889" x="128.884" y="58.3193" width="43.3731" height="84.0875" filterUnits="userSpaceOnUse" color-interpolation-filters="sRGB">
<feFlood flood-opacity="0" result="BackgroundImageFix"/>
<feBlend mode="normal" in="SourceGraphic" in2="BackgroundImageFix" result="shape"/>
<feGaussianBlur stdDeviation="2.3218" result="effect1_foregroundBlur_3588_11889"/>
</filter>
<filter id="filter1_f_3588_11889" x="165.817" y="117.127" width="125.385" height="28.6759" filterUnits="userSpaceOnUse" color-interpolation-filters="sRGB">
<feFlood flood-opacity="0" result="BackgroundImageFix"/>
<feBlend mode="normal" in="SourceGraphic" in2="BackgroundImageFix" result="shape"/>
<feGaussianBlur stdDeviation="2.3218" result="effect1_foregroundBlur_3588_11889"/>
</filter>
<linearGradient id="paint0_linear_3588_11889" x1="223.693" y1="142.758" x2="223.402" y2="121.338" gradientUnits="userSpaceOnUse">
<stop stop-color="white"/>
<stop offset="1" stop-color="white" stop-opacity="0"/>
</linearGradient>
<linearGradient id="paint1_linear_3588_11889" x1="163.369" y1="109.276" x2="182.931" y2="101.123" gradientUnits="userSpaceOnUse">
<stop stop-color="#A4EEFB"/>
<stop offset="1" stop-color="#808FDB"/>
</linearGradient>
<linearGradient id="paint2_linear_3588_11889" x1="163.444" y1="83.0947" x2="206.65" y2="65.0861" gradientUnits="userSpaceOnUse">
<stop stop-color="#7729F6"/>
<stop offset="1" stop-color="#9EFFEE"/>
</linearGradient>
<linearGradient id="paint3_linear_3588_11889" x1="240.113" y1="81.627" x2="275.992" y2="66.6723" gradientUnits="userSpaceOnUse">
<stop stop-color="#7729F6"/>
<stop offset="1" stop-color="#9EFFEE"/>
</linearGradient>
<linearGradient id="paint4_linear_3588_11889" x1="227.605" y1="68.2997" x2="236.212" y2="64.712" gradientUnits="userSpaceOnUse">
<stop stop-color="#6BD4E6"/>
<stop offset="1" stop-color="#80C4DB"/>
</linearGradient>
<linearGradient id="paint5_linear_3588_11889" x1="152.768" y1="75.144" x2="161.996" y2="71.2979" gradientUnits="userSpaceOnUse">
<stop stop-color="#C0F6FF"/>
<stop offset="1" stop-color="#8094DB"/>
</linearGradient>
</defs>
</svg>
