<svg width="102" height="102" viewBox="0 0 102 102" fill="none" xmlns="http://www.w3.org/2000/svg">
<circle cx="51.1758" cy="51.1133" r="50.5" fill="#DBFF00"/>
<circle cx="51.1758" cy="51.1133" r="50.5" fill="#DBFF00"/>
<path d="M91.6758 41.6133L92.4861 43.803L94.6758 44.6133L92.4861 45.4236L91.6758 47.6133L90.8655 45.4236L88.6758 44.6133L90.8655 43.803L91.6758 41.6133Z" fill="#110545"/>
<path d="M95.5031 53.3017L94.6364 59.5115L87.0103 58.4471L87.1928 57.1398L93.6858 58.046L94.1876 54.4509L87.6946 53.5446L87.877 52.2373L95.5031 53.3017Z" fill="black"/>
<path d="M84.7274 65.2255C84.9198 64.7974 85.1701 64.4195 85.4783 64.0917C85.7865 63.7639 86.1472 63.516 86.5604 63.3481C86.9803 63.1831 87.4535 63.1144 87.9798 63.1419C88.5128 63.1725 89.1003 63.3322 89.7424 63.6208L89.9431 63.7111C90.5584 63.9877 91.0443 64.3107 91.4009 64.6801C91.7642 65.0525 92.0201 65.4489 92.1687 65.8695C92.3173 66.2901 92.3679 66.7229 92.3206 67.168C92.2799 67.6161 92.1634 68.0541 91.9709 68.4822C91.7785 68.9103 91.5282 69.2882 91.22 69.616C90.9185 69.9468 90.5611 70.1962 90.1479 70.3641C89.7347 70.5321 89.2682 70.6039 88.7486 70.5793C88.2357 70.5577 87.6715 70.4086 87.0562 70.1319L86.8556 70.0417C86.2135 69.753 85.7041 69.4195 85.3275 69.0411C84.9575 68.6658 84.6949 68.2663 84.5396 67.8427C84.391 67.4221 84.3371 66.9878 84.3777 66.5397C84.4184 66.0916 84.5349 65.6535 84.7274 65.2255ZM85.7908 65.7036C85.6796 65.9511 85.6148 66.2114 85.5965 66.4846C85.5782 66.7578 85.6254 67.0283 85.7382 67.2961C85.8577 67.5669 86.0538 67.828 86.3268 68.0793C86.5967 68.3374 86.9624 68.5701 87.4239 68.7776L87.6246 68.8678C88.066 69.0663 88.4628 69.1763 88.8149 69.198C89.1706 69.2293 89.4828 69.1967 89.7512 69.1004C90.0264 69.007 90.2601 68.8628 90.4523 68.6678C90.6445 68.4728 90.7962 68.2515 90.9075 68.0041C91.0217 67.7499 91.088 67.4862 91.1063 67.2131C91.1246 66.9399 91.0774 66.6694 90.9646 66.4016C90.8585 66.1368 90.6757 65.8817 90.4162 65.6364C90.1633 65.394 89.8161 65.1736 89.3747 64.9752L89.1741 64.885C88.7126 64.6775 88.2972 64.5551 87.9281 64.5177C87.5589 64.4804 87.2334 64.5069 86.9516 64.5973C86.6764 64.6907 86.4427 64.8349 86.2505 65.0299C86.0583 65.2249 85.9051 65.4495 85.7908 65.7036Z" fill="black"/>
<path d="M79.6048 73.8191C79.9072 73.4506 80.2453 73.1542 80.6192 72.9298C80.9885 72.711 81.3903 72.5855 81.8248 72.5531C82.2593 72.5208 82.7223 72.5924 83.2138 72.7681C83.7062 72.954 84.2217 73.268 84.7603 73.71L84.9303 73.8495C85.4462 74.2729 85.8325 74.7038 86.0893 75.1422C86.3518 75.5853 86.5067 76.0208 86.5541 76.4486C86.5968 76.8821 86.5468 77.3012 86.4043 77.7061C86.2572 78.1165 86.0371 78.5004 85.744 78.8575C85.4741 79.1863 85.1804 79.4575 84.8628 79.6711C84.5508 79.8894 84.2265 80.036 83.89 80.1108C83.5488 80.1913 83.2029 80.1967 82.8521 80.1271C82.4967 80.0631 82.143 79.9103 81.7909 79.6688L82.6702 78.5975C83.0992 78.8262 83.4987 78.8884 83.8688 78.7842C84.2342 78.6857 84.5589 78.4636 84.8427 78.1178C84.9962 77.9307 85.1134 77.7186 85.1942 77.4813C85.2751 77.2441 85.2966 76.9867 85.2588 76.709C85.2164 76.437 85.1021 76.1487 84.9157 75.844C84.7247 75.545 84.4365 75.2373 84.0511 74.9209L83.881 74.7813C83.4728 74.4464 83.0955 74.2126 82.749 74.08C82.3978 73.953 82.0795 73.8958 81.7942 73.9083C81.5088 73.9208 81.26 73.9869 81.0478 74.1068C80.8309 74.2324 80.6503 74.3831 80.5061 74.5588C80.1711 74.9669 80.0065 75.3583 80.0121 75.7329C80.0187 76.1178 80.1678 76.4679 80.4594 76.7831L79.5801 77.8545C79.2566 77.532 79.0259 77.2004 78.8882 76.8597C78.7504 76.5189 78.6905 76.1757 78.7086 75.83C78.7277 75.4947 78.8167 75.155 78.9756 74.8111C79.1299 74.4729 79.3396 74.1422 79.6048 73.8191Z" fill="black"/>
<path d="M79.8625 85.0282L78.7393 85.8021L74.1293 83.4347L74.6994 88.5856L73.6124 89.3345L69.2437 82.9938L70.3307 82.2449L73.3888 86.6834L72.9114 82.4038L73.636 81.9045L77.4649 83.8749L74.4068 79.4365L75.4938 78.6875L79.8625 85.0282Z" fill="black"/>
<path d="M62.8879 85.5747C63.3354 85.4332 63.784 85.3683 64.2338 85.3799C64.6836 85.3915 65.1087 85.4955 65.5092 85.6918C65.9119 85.8952 66.2783 86.2024 66.6082 86.6134C66.9403 87.0314 67.2125 87.576 67.4248 88.2472L67.4911 88.457C67.6945 89.1002 67.7772 89.6779 67.7391 90.1898C67.7033 90.7088 67.5779 91.1637 67.3631 91.5547C67.1484 91.9457 66.8592 92.2717 66.4957 92.5328C66.1343 92.8008 65.7299 93.0056 65.2824 93.1471C64.8349 93.2887 64.3863 93.3536 63.9366 93.342C63.489 93.3374 63.065 93.2369 62.6645 93.0405C62.264 92.8441 61.8998 92.5439 61.5721 92.1399C61.2466 91.743 60.9821 91.2228 60.7787 90.5795L60.7124 90.3698C60.5001 89.6985 60.4097 89.0965 60.4412 88.5635C60.4748 88.0375 60.5979 87.5756 60.8105 87.1777C61.0253 86.7867 61.3134 86.4572 61.6747 86.1891C62.036 85.921 62.4404 85.7162 62.8879 85.5747ZM63.2395 86.6865C62.9808 86.7683 62.7434 86.8933 62.5274 87.0616C62.3115 87.2299 62.1411 87.4453 62.0165 87.7077C61.894 87.9772 61.8299 88.2974 61.8242 88.6684C61.8114 89.0416 61.8813 89.4694 62.0339 89.9519L62.1002 90.1617C62.2462 90.6231 62.4283 90.9924 62.6467 91.2695C62.8602 91.5557 63.0924 91.7669 63.3431 91.903C63.596 92.046 63.8592 92.1243 64.1326 92.1378C64.4061 92.1514 64.6722 92.1172 64.9309 92.0354C65.1966 91.9514 65.4374 91.8252 65.6534 91.657C65.8694 91.4887 66.0397 91.2733 66.1644 91.0108C66.2913 90.7553 66.3598 90.4491 66.3699 90.0921C66.3823 89.7421 66.3155 89.3363 66.1696 88.8748L66.1033 88.6651C65.9507 88.1826 65.7654 87.7913 65.5474 87.491C65.3294 87.1908 65.0929 86.9656 64.8378 86.8156C64.5849 86.6725 64.3217 86.5942 64.0482 86.5807C63.7747 86.5672 63.5052 86.6024 63.2395 86.6865Z" fill="black"/>
<path d="M54.4318 94.0767L57.0149 93.977L57.059 95.1201L50.5738 95.3706L50.5297 94.2274L53.1128 94.1277L52.8598 87.5765L54.1788 87.5256L54.4318 94.0767Z" fill="black"/>
<path d="M44.9074 95.0083L42.1694 94.3988C41.1601 94.1742 40.4642 93.7902 40.0818 93.2468C39.6978 92.7105 39.5871 92.0774 39.7496 91.3472C39.9121 90.6171 40.2818 90.0871 40.8585 89.7572C41.4337 89.4344 42.226 89.3854 43.2353 89.61L44.6848 89.9327L45.2918 87.2054L46.5803 87.4922L44.9074 95.0083ZM43.0941 90.7506C42.7577 90.6757 42.4694 90.6378 42.2291 90.637C41.9873 90.6432 41.7873 90.6814 41.629 90.7513C41.4691 90.8284 41.3429 90.9393 41.2506 91.0841C41.1567 91.2359 41.0859 91.4193 41.0381 91.634C40.9903 91.8488 40.9775 92.0412 40.9997 92.2115C41.0219 92.3817 41.0891 92.5356 41.2012 92.6733C41.3133 92.8109 41.4783 92.9303 41.6962 93.0314C41.9125 93.1396 42.1889 93.2312 42.5253 93.3061L43.8675 93.6048L44.4363 91.0493L43.0941 90.7506Z" fill="black"/>
<path d="M33.9437 92.0221L32.7786 91.4017L35.4154 86.45L29.4386 89.6231L28.3124 89.0234L31.9315 82.2269L33.0967 82.8474L30.4598 87.7991L36.4366 84.6259L37.5629 85.2257L33.9437 92.0221Z" fill="black"/>
<path d="M22.8541 83.5881L24.7344 85.3621L23.9493 86.1942L19.2287 81.7404L20.0138 80.9083L21.894 82.6823L26.3931 77.9137L27.3532 78.8196L22.8541 83.5881Z" fill="black"/>
<path d="M15.6335 77.6223L12.8741 73.2503L13.8416 72.6397L15.8964 75.8955L17.608 74.8153L15.7293 71.8385L16.6968 71.228L18.5755 74.2047L20.4731 73.007L18.4183 69.7512L19.3857 69.1406L22.1451 73.5127L15.6335 77.6223Z" fill="black"/>
<path d="M8.11311 61.8849L7.9106 60.5805L11.0411 60.0945L10.4673 56.3988L7.33684 56.8848L7.13434 55.5804L14.7432 54.3992L14.9457 55.7035L11.5978 56.2233L12.1716 59.919L15.5195 59.3993L15.722 60.7036L8.11311 61.8849Z" fill="black"/>
<path d="M13.2809 45.9153L12.9205 49.0185L14.572 49.8637L14.4197 51.1749L7.10742 47.391L7.25971 46.0798L15.2446 44.0726L15.0822 45.4712L13.2809 45.9153ZM11.8336 48.4604L12.095 46.2095L8.81874 46.9585L11.8336 48.4604Z" fill="black"/>
<path d="M8.61415 37.919L9.15991 36.7171L15.1293 39.4277L16.1299 37.2243L10.1605 34.5136L10.7062 33.3118L16.6756 36.0224L17.6762 33.8189L11.7068 31.1083L12.2526 29.9064L19.2636 33.09L15.6252 41.1026L8.61415 37.919Z" fill="black"/>
<path d="M27.1328 23.7932C26.7497 24.1123 26.382 24.347 26.0299 24.4971C25.6777 24.6473 25.3425 24.7261 25.0242 24.7335C24.7115 24.7363 24.42 24.6785 24.1496 24.5601C23.8746 24.4361 23.6225 24.2595 23.3934 24.0304L24.4077 23.1855C24.5288 23.2851 24.6546 23.3617 24.7851 23.4152C24.9212 23.4641 25.0705 23.4829 25.2329 23.4716C25.3954 23.4604 25.5691 23.4112 25.7541 23.3239C25.9447 23.2319 26.1555 23.0897 26.3866 22.8973C26.6232 22.7001 26.8068 22.5138 26.9374 22.3383C27.0689 22.1524 27.1572 21.9834 27.2023 21.8313C27.2483 21.6689 27.254 21.521 27.2193 21.3876C27.1855 21.244 27.1217 21.1158 27.0278 21.0031C26.7978 20.727 26.4946 20.6265 26.118 20.7015C25.7472 20.7718 25.2443 20.9759 24.6095 21.3138C24.2489 21.4996 23.9127 21.646 23.601 21.753C23.2845 21.8543 22.9911 21.9031 22.7207 21.8993C22.4456 21.8898 22.186 21.8245 21.9419 21.7033C21.6987 21.5718 21.4645 21.3709 21.2392 21.1004C21.0562 20.8806 20.9276 20.6346 20.8535 20.3623C20.785 20.0853 20.7799 19.7985 20.8382 19.5018C20.8965 19.2051 21.0228 18.9042 21.2173 18.5991C21.4173 18.2893 21.6949 17.9865 22.0498 17.6908C22.3936 17.4045 22.7279 17.1929 23.0528 17.0559C23.3777 16.9188 23.6885 16.8508 23.9852 16.8519C24.2828 16.8425 24.5617 16.8966 24.8217 17.014C25.0874 17.1267 25.3301 17.292 25.5498 17.5099L24.5355 18.3547C24.3121 18.1782 24.0534 18.1025 23.7595 18.1278C23.4666 18.1428 23.1454 18.2957 22.7961 18.5867C22.3904 18.9247 22.1561 19.2392 22.0931 19.5302C22.0357 19.8166 22.0892 20.0584 22.2535 20.2556C22.4788 20.526 22.7604 20.635 23.0985 20.5825C23.4365 20.53 23.8792 20.3569 24.4267 20.0631C24.8314 19.8501 25.2033 19.6835 25.5423 19.5634C25.8869 19.4386 26.2075 19.3767 26.5042 19.3777C26.7963 19.3731 27.0667 19.4342 27.3155 19.561C27.5699 19.6831 27.8121 19.8822 28.0421 20.1583C28.2439 20.4006 28.3837 20.6659 28.4616 20.9541C28.5394 21.2424 28.5431 21.5447 28.4726 21.8612C28.4078 22.1729 28.2641 22.493 28.0415 22.8216C27.8245 23.1455 27.5216 23.4693 27.1328 23.7932Z" fill="black"/>
<path d="M29.1991 12.5401L30.401 11.9944L31.7108 14.8789L35.1162 13.3326L33.8063 10.448L35.0082 9.90228L38.1918 16.9133L36.9899 17.4591L35.5891 14.3742L32.1838 15.9206L33.5846 19.0054L32.3827 19.5512L29.1991 12.5401Z" fill="black"/>
<path d="M45.0283 15.2399C44.5637 15.3065 44.1105 15.2975 43.6686 15.2127C43.2268 15.1279 42.8243 14.956 42.4612 14.697C42.097 14.4307 41.7856 14.0679 41.5271 13.6086C41.2675 13.1421 41.0878 12.5604 40.9878 11.8635L40.9565 11.6457C40.8607 10.9779 40.8733 10.3945 40.9943 9.89563C41.1143 9.38945 41.3121 8.96101 41.5878 8.61031C41.8634 8.2596 42.2019 7.98508 42.6031 7.78675C43.0033 7.58116 43.4357 7.44503 43.9003 7.37837C44.3648 7.31171 44.8181 7.32076 45.2599 7.40553C45.7007 7.48304 46.1027 7.65132 46.4658 7.91037C46.829 8.16942 47.1393 8.52495 47.3968 8.97696C47.6532 9.42171 47.8293 9.978 47.9252 10.6458L47.9564 10.8636C48.0564 11.5605 48.0474 12.1692 47.9295 12.6899C47.8106 13.2034 47.6138 13.6391 47.3392 13.997C47.0635 14.3477 46.7256 14.6259 46.3254 14.8315C45.9252 15.0371 45.4929 15.1732 45.0283 15.2399ZM44.8627 14.0857C45.1313 14.0471 45.3858 13.9625 45.6263 13.8316C45.8669 13.7008 46.07 13.5161 46.2358 13.2775C46.4006 13.0316 46.516 12.7261 46.5821 12.361C46.6556 11.9948 46.6563 11.5613 46.5845 11.0605L46.5532 10.8427C46.4845 10.3636 46.365 9.96957 46.1947 9.66063C46.0306 9.34338 45.836 9.09719 45.6109 8.92206C45.3847 8.73967 45.1378 8.61952 44.8702 8.56161C44.6026 8.5037 44.3345 8.49401 44.0659 8.53255C43.79 8.57213 43.5318 8.65733 43.2913 8.78815C43.0508 8.91897 42.8476 9.1037 42.6819 9.34233C42.515 9.57371 42.3975 9.86469 42.3293 10.2153C42.26 10.5586 42.2597 10.9698 42.3285 11.4489L42.3597 11.6667C42.4316 12.1675 42.5506 12.5838 42.7167 12.9156C42.8829 13.2474 43.0796 13.5081 43.3068 13.6977C43.533 13.8801 43.7799 14.0003 44.0475 14.0582C44.3151 14.1161 44.5868 14.1253 44.8627 14.0857Z" fill="black"/>
<path d="M52.9735 6.57422L54.318 6.8041L54.7961 12.6888L57.419 7.33432L58.5033 7.51971L59.2958 13.4582L61.691 8.06476L62.9488 8.27981L59.6452 15.5267L58.344 15.3042L57.5841 9.37128L54.9828 14.7295L53.6817 14.507L52.9735 6.57422Z" fill="black"/>
<path d="M67.884 10.029L70.4868 11.3416C70.9189 11.5596 71.269 11.8018 71.537 12.0684C71.8115 12.3383 72.009 12.6227 72.1293 12.9215C72.2496 13.2204 72.2994 13.5288 72.2786 13.8469C72.2578 14.1649 72.1682 14.4811 72.0097 14.7954C71.7719 15.2668 71.4378 15.6117 71.0075 15.8299C70.5804 16.0416 70.0735 16.094 69.4868 15.987L69.8186 19.6285L68.5221 18.9746L68.3273 15.5747L66.9228 14.8663L65.5953 17.4985L64.4167 16.9041L67.884 10.029ZM68.6458 14.5033C69.2482 14.8071 69.7168 14.9203 70.0516 14.8427C70.3929 14.7685 70.6527 14.5546 70.8311 14.201C71.0094 13.8474 71.027 13.5113 70.8838 13.1927C70.7471 12.8774 70.3776 12.5678 69.7752 12.264L68.5475 11.6448L67.4181 13.8842L68.6458 14.5033Z" fill="black"/>
<path d="M77.6379 15.5309L81.5248 18.9399L80.7705 19.7999L77.876 17.2614L76.5415 18.783L79.1879 21.104L78.4335 21.9641L75.7871 19.6431L74.3075 21.3302L77.202 23.8688L76.4477 24.7289L72.5608 21.3199L77.6379 15.5309Z" fill="black"/>
<path d="M85.6742 23.2525L88.5918 27.5205L87.6474 28.1661L85.4747 24.9878L83.8038 26.13L85.7903 29.0359L84.8459 29.6815L82.8594 26.7756L81.0069 28.042L83.1796 31.2204L82.2352 31.866L79.3175 27.5979L85.6742 23.2525Z" fill="black"/>
<path d="M91.5025 32.745L91.9663 33.9809L85.8281 36.284L87.142 39.7856L86.0709 40.1875L84.2933 35.4501L91.5025 32.745Z" fill="black"/>
<circle cx="51.1758" cy="51.1133" r="31.5" fill="#3852CE"/>
<path d="M61.6758 49.3812C63.0091 50.151 63.0091 52.0755 61.6758 52.8453L45.9258 61.9386C44.5924 62.7084 42.9258 61.7461 42.9258 60.2065L42.9258 42.02C42.9258 40.4804 44.5924 39.5182 45.9258 40.288L61.6758 49.3812Z" stroke="#DBFF00" stroke-width="2"/>
</svg>
