<svg width="306" height="190" viewBox="0 0 306 190" fill="none" xmlns="http://www.w3.org/2000/svg">
<path d="M94.0037 149.798L87.2715 153.88L87.8973 151.39L87.6318 149.115L90.5902 148.812L94.0037 149.798Z" fill="#110545"/>
<path d="M81.2215 149.805L75.1151 153.607L75.1151 151.397L74.8496 149.122L77.8079 148.818L81.2215 149.805Z" fill="#110545"/>
<path d="M196.059 125.212L198.257 134.629L199.203 134.276L199.286 134.245L199.373 134.229L226.359 129.232C226.74 128.9 227.242 128.434 227.69 127.961C227.956 127.679 228.19 127.409 228.366 127.172C228.453 127.054 228.519 126.953 228.566 126.871C228.589 126.831 228.605 126.799 228.616 126.774C228.621 126.762 228.625 126.754 228.627 126.748C228.626 126.748 228.626 126.743 228.625 126.731C228.625 126.686 228.622 126.547 228.567 126.274C228.499 125.934 228.378 125.514 228.223 125.055C227.983 124.345 227.68 123.597 227.423 123.01C225.355 122.62 220.222 122.05 213.039 122.407C209.144 122.601 205.299 123.118 202.115 123.721C199.507 124.215 197.389 124.758 196.059 125.212Z" fill="white" stroke="#110545" stroke-width="2.02155"/>
<path d="M223.712 138.289C223.573 137.595 223.225 136.853 222.498 135.974C222.204 135.889 221.667 135.789 220.847 135.698C219.859 135.589 218.584 135.503 217.093 135.439C214.115 135.31 210.332 135.268 206.385 135.284C198.949 135.312 190.976 135.543 186.785 135.763L182.632 151.695L221.643 142.312C222.195 142.032 222.992 141.374 223.572 140.653C223.796 139.734 223.852 138.991 223.712 138.289Z" fill="white" stroke="#110545" stroke-width="2.02155"/>
<path d="M220.84 140.425C221.023 140.629 221.278 141.09 221.265 142.101L175.806 151.071C175.741 151.039 175.655 150.996 175.555 150.943C175.307 150.81 174.97 150.613 174.617 150.354C173.999 149.902 173.386 149.302 173.067 148.582C173.164 148.528 173.284 148.464 173.429 148.39C173.959 148.121 174.825 147.727 176.147 147.243C178.791 146.276 183.249 144.954 190.47 143.561C197.686 142.168 205.208 141.328 210.932 140.836C213.793 140.59 216.202 140.432 217.895 140.334C218.741 140.286 219.409 140.253 219.864 140.232C220.092 140.221 220.267 140.214 220.384 140.209L220.507 140.204C220.52 140.208 220.54 140.214 220.564 140.223C220.631 140.25 220.734 140.307 220.84 140.425Z" fill="#110545" stroke="#110545" stroke-width="1.06396"/>
<path d="M182.595 138.346L182.494 138.366L182.408 138.423L181.248 139.184C181.21 139.164 181.168 139.141 181.123 139.117C180.879 138.983 180.547 138.79 180.192 138.553C179.602 138.157 179.007 137.675 178.626 137.173C178.69 137.126 178.762 137.073 178.844 137.015C179.253 136.723 179.899 136.298 180.826 135.774C182.682 134.728 185.667 133.291 190.155 131.757C199.107 128.698 212.979 127.083 225.149 127.699L225.203 127.701L225.249 127.694C225.252 127.694 225.259 127.693 225.269 127.693C225.292 127.692 225.331 127.693 225.38 127.7C225.477 127.713 225.603 127.75 225.726 127.843C225.925 127.995 226.258 128.414 226.248 129.58L182.595 138.346Z" fill="#110545" stroke="#110545" stroke-width="1.06396"/>
<g opacity="0.5" filter="url(#filter0_f_237_11333)">
<path d="M94.1192 57.1529C94.1192 57.1529 94.2602 54.0628 96.2548 53.6838C98.254 53.3049 98.8909 54.7076 98.7484 57.1768L98.438 120.1C98.438 120.1 95.2555 117.211 93.7863 120.836L94.1145 57.1529L94.1192 57.1529Z" fill="white"/>
<path d="M94.6506 57.178L94.6459 57.281L94.3273 119.09C94.5089 118.933 94.702 118.807 94.9054 118.711C95.5614 118.4 96.2365 118.44 96.8041 118.596C97.2212 118.71 97.6013 118.893 97.9111 119.074L98.2164 57.1742L98.2165 57.1602L98.2173 57.1462C98.2874 55.931 98.1518 55.1105 97.8566 54.6488C97.7201 54.4355 97.5507 54.3 97.3344 54.2254C97.1086 54.1475 96.7932 54.1233 96.3541 54.2065L94.6506 57.178ZM94.6506 57.178L94.6506 57.1777M94.6506 57.178L94.6506 57.1777M94.6506 57.1777L94.6506 57.1776M94.6506 57.1777L94.6506 57.1776M94.6506 57.1776L94.6506 57.1775M94.6506 57.1776L94.6506 57.1775M94.6506 57.1775L94.6508 57.1738L94.652 57.1536C94.6533 57.1349 94.6555 57.1057 94.6589 57.0676C94.6659 56.9912 94.678 56.8794 94.6985 56.7432C94.7397 56.4688 94.8132 56.1047 94.9416 55.7349C95.2092 54.9639 95.6487 54.3406 96.3539 54.2065L94.6506 57.1775Z" stroke="#110545" stroke-width="1.06396"/>
</g>
<path d="M160.209 168.595L160.208 168.596C158.927 170.026 156.479 171.51 152.962 172.915C149.483 174.304 145.098 175.563 140.092 176.619C130.082 178.73 117.696 180.009 105.327 179.945C92.933 179.881 83.0287 178.482 77.0119 176.337C73.9575 175.248 72.1476 174.05 71.3935 172.954C71.0463 172.449 70.9469 172.002 71.0005 171.578C71.0571 171.129 71.3054 170.552 71.9319 169.852C73.2142 168.421 75.6633 166.937 79.1812 165.532C82.6609 164.143 87.0461 162.884 92.0526 161.828C102.064 159.717 114.45 158.438 126.818 158.502C139.215 158.566 149.119 159.965 155.134 162.11C158.188 163.199 159.997 164.396 160.75 165.493C161.097 165.998 161.196 166.444 161.142 166.868C161.085 167.317 160.836 167.895 160.209 168.595Z" fill="#110545" stroke="#110545" stroke-width="2.57995"/>
<path d="M160.334 168.7L160.332 168.702C159.025 170.162 156.547 171.658 153.023 173.065C149.532 174.459 145.138 175.72 140.125 176.777C130.102 178.891 117.704 180.171 105.324 180.107C92.3158 180.04 82.0643 178.503 76.1437 176.184C76.2839 175.953 76.4643 175.709 76.693 175.453C78.002 173.992 80.4806 172.497 84.0044 171.09C87.4958 169.696 91.8909 168.435 96.9035 167.378C106.927 165.264 119.325 163.984 131.705 164.048C144.713 164.115 154.965 165.656 160.882 167.972C160.743 168.202 160.563 168.445 160.334 168.7Z" fill="white" stroke="#110545" stroke-width="2.24343"/>
<path d="M123.034 60.9014C115.202 64.8334 112.652 75.9782 117.64 85.9124C122.627 95.8466 133.089 100.458 140.921 96.526C148.752 92.5939 151.302 81.4491 146.315 71.5149C141.327 61.5807 130.865 56.9693 123.034 60.9014Z" fill="white" stroke="#110545" stroke-width="1.04435"/>
<path d="M179.807 84.1757C176.407 85.9355 174.318 89.5642 173.754 94.1071C173.19 98.647 174.163 104.045 176.835 109.208C179.508 114.372 183.353 118.283 187.385 120.444C191.42 122.607 195.589 122.996 198.989 121.237C202.389 119.477 204.479 115.848 205.043 111.305C205.607 106.765 204.634 101.367 201.961 96.2039C199.289 91.0402 195.443 87.1292 191.411 84.9679C187.377 82.8053 183.207 82.4159 179.807 84.1757Z" fill="white" stroke="#110545" stroke-width="1.04435"/>
<path opacity="0.5" d="M95.2854 75.9285C95.2656 76.0253 95.2474 76.1106 95.2317 76.1823L92.5975 77.2866C92.551 77.097 92.5042 76.8546 92.4725 76.5627C92.387 75.7734 92.4118 74.6148 92.8662 73.1554C92.8997 73.1347 92.9386 73.1111 92.9825 73.0852C93.1586 72.9812 93.4136 72.8401 93.7245 72.6952C94.2382 72.4556 94.8852 72.2143 95.5694 72.1026C95.6762 72.8573 95.6152 73.8046 95.5011 74.6561C95.4339 75.1584 95.3512 75.6063 95.2854 75.9285ZM92.753 77.7758L92.7531 77.7759L92.753 77.7758Z" fill="white" stroke="#110545" stroke-width="1.06396"/>
<g opacity="0.5" filter="url(#filter1_f_237_11333)">
<path d="M194.797 150.065C194.797 150.065 193.834 155.171 190.617 154.608L106.788 129.43C106.788 129.43 101.749 127.982 101.522 121.641C101.295 115.301 105.186 113.768 108.412 115.467C111.638 117.166 192.38 147.861 192.38 147.861C192.38 147.861 195.165 148.774 194.797 150.065Z" fill="url(#paint0_linear_237_11333)"/>
<path d="M194.285 149.919L194.279 149.943L194.274 149.966L194.274 149.966L194.274 149.966L194.274 149.968L194.272 149.976L194.265 150.013C194.26 150.035 194.254 150.065 194.245 150.101C194.241 150.12 194.236 150.14 194.231 150.161C194.201 150.291 194.153 150.478 194.086 150.702C193.952 151.151 193.743 151.736 193.444 152.298C192.831 153.448 191.969 154.289 190.738 154.089L106.941 128.921L106.941 128.921L106.936 128.92L106.936 128.919L106.936 128.919L106.935 128.919L106.93 128.918C106.923 128.916 106.912 128.912 106.897 128.907C106.867 128.897 106.82 128.881 106.758 128.858C106.634 128.811 106.453 128.737 106.232 128.628C105.79 128.41 105.196 128.056 104.595 127.517C103.404 126.449 102.161 124.634 102.054 121.622C101.944 118.548 102.835 116.792 103.982 115.972C105.125 115.155 106.68 115.157 108.164 115.938C108.6 116.167 110.251 116.846 112.749 117.841C115.268 118.844 118.688 120.183 122.7 121.741C130.725 124.858 141.121 128.855 151.415 132.798C161.71 136.741 171.904 140.631 179.524 143.535C183.334 144.987 186.501 146.193 188.715 147.036C189.822 147.457 190.691 147.788 191.283 148.013L191.959 148.27L192.132 148.336L192.176 148.352L192.187 148.357L192.19 148.358C192.191 148.358 192.191 148.358 192.38 147.861L192.191 148.358L192.202 148.362L192.214 148.366L192.214 148.366L192.214 148.366L192.214 148.366L192.214 148.366L192.218 148.368L192.238 148.374C192.255 148.38 192.282 148.39 192.317 148.402C192.386 148.427 192.486 148.465 192.606 148.515C192.847 148.615 193.158 148.758 193.453 148.935C193.755 149.116 194.005 149.311 194.156 149.504C194.3 149.688 194.315 149.814 194.285 149.919Z" stroke="#110545" stroke-width="1.06396"/>
</g>
<path d="M110.176 77.0959C110.176 77.0958 110.176 77.0958 110.176 77.0957L110.672 77.0637C110.357 77.084 110.228 77.0924 110.176 77.0959ZM109.315 79.7395C109.632 78.984 109.951 78.3394 110.222 77.8794C110.261 78.1846 110.317 78.5717 110.396 79.0271C110.604 80.2161 110.971 81.8732 111.612 83.7536C112.894 87.5102 115.28 92.1872 119.699 95.7869C128.32 102.809 137.981 103.898 143.695 99.4035C143.738 99.4189 143.773 99.4345 143.801 99.4487C143.737 99.5405 143.587 99.7049 143.253 99.9407C142.371 100.563 140.489 101.715 138.232 102.679C135.966 103.647 133.381 104.399 131.076 104.279C126.263 104.029 120.298 103.099 115.373 98.5447C110.383 93.9292 108.407 89.5537 107.931 86.1076L107.931 86.1069C107.819 85.3064 107.939 84.2398 108.212 83.0854C108.481 81.9415 108.889 80.7567 109.315 79.7395Z" fill="#9371CA" stroke="#110545" stroke-width="1.06396"/>
<path d="M173.839 111.564L174.295 111.289C180.065 120.879 186.851 124.148 192.118 124.565C195.879 124.862 197.751 123.961 198.514 123.422L173.839 111.564ZM173.839 111.564C170.896 106.674 170.028 101.981 169.898 98.5087C169.832 96.7728 169.951 95.3407 170.087 94.339C170.155 93.8381 170.228 93.4443 170.284 93.1736C170.312 93.0382 170.335 92.9335 170.353 92.8615C170.361 92.8255 170.368 92.7977 170.373 92.7783L170.379 92.7555L170.38 92.7506C170.353 92.7602 170.325 92.7709 170.295 92.7831C170.089 92.8655 169.843 92.9965 169.576 93.1778C168.495 93.9124 167.244 95.3529 166.998 97.2619C166.476 101.325 167.568 107.685 171.489 113.822C175.43 119.989 181.129 124.949 186.514 126.422C189.193 127.156 191.89 127.03 194.051 126.602C195.13 126.388 196.066 126.1 196.791 125.812C197.533 125.517 198.003 125.242 198.189 125.074L198.19 125.073C198.53 124.768 198.622 124.374 198.609 123.997C198.373 124.145 198.077 124.304 197.71 124.454C196.572 124.922 194.779 125.309 192.076 125.095C186.609 124.663 179.682 121.273 173.839 111.564ZM170.389 92.7477C170.389 92.7476 170.389 92.7476 170.389 92.7475L170.895 92.884C170.504 92.7785 170.411 92.7535 170.389 92.7477ZM199.107 123.634C199.19 124.152 199.17 124.909 198.545 125.469L199.107 123.634Z" fill="#9371CA" stroke="#110545" stroke-width="1.06396"/>
<path d="M104.13 91.846L104.13 91.8462L104.129 91.8476L104.129 91.8578C104.128 91.8675 104.127 91.8833 104.126 91.9047C104.123 91.9477 104.12 92.0134 104.117 92.0999C104.113 92.2729 104.111 92.5287 104.126 92.8508C104.155 93.4956 104.246 94.4027 104.499 95.4423C105.003 97.5209 106.143 100.114 108.692 102.216L104.13 91.846ZM104.13 91.846L104.13 91.846M104.13 91.846L104.13 91.846M104.13 91.846L104.13 91.846L104.132 91.8174M104.13 91.846L104.132 91.8174M104.132 91.8174L104.131 91.788M104.132 91.8174L104.131 91.788M104.131 91.788C104.126 91.5605 104.166 91.3545 104.225 91.1971C104.232 91.1784 104.239 91.1608 104.247 91.1442C104.265 91.1945 104.283 91.2545 104.301 91.3253L104.301 91.3253L104.302 91.3275C104.669 92.753 105.565 94.3982 106.568 95.9389C107.577 97.4902 108.724 98.9798 109.633 100.101L109.633 100.102C111.231 102.073 113.46 103.592 115.496 104.665C117.531 105.738 119.421 106.389 120.381 106.601L120.436 106.613L120.493 106.613C120.582 106.613 120.651 106.628 120.704 106.648M104.131 91.788L120.704 106.648M120.704 106.648C118.423 106.63 113.457 106.143 108.692 102.216L120.704 106.648ZM120.898 106.863C120.898 106.864 120.898 106.865 120.898 106.865C120.898 106.865 120.898 106.864 120.898 106.863ZM121.054 106.724C121.058 106.724 121.06 106.724 121.06 106.724C121.06 106.724 121.058 106.725 121.054 106.724Z" fill="url(#paint1_linear_237_11333)" stroke="#110545" stroke-width="1.06396"/>
<path d="M117.22 86.3698C122.461 96.2688 133.345 101.003 141.608 96.6298L141.609 96.6297C149.872 92.2519 152.071 80.5939 146.825 70.6949C141.58 60.7965 130.701 56.0572 122.437 60.4351C114.178 64.8083 111.974 76.4708 117.22 86.3698ZM117.22 86.3698L117.69 86.1209M117.22 86.3698L117.69 86.1209M117.69 86.1209C112.532 76.3861 114.772 65.0953 122.686 60.9053C130.604 56.7106 141.197 61.2092 146.355 70.944C151.514 80.6788 149.278 91.9649 141.36 96.1596C133.442 100.35 122.844 95.8557 117.69 86.1209ZM121.48 58.6292L121.48 58.6291C130.283 53.9616 142.245 58.9185 148.12 70.009C153.995 81.0989 151.374 93.7727 142.57 98.4451C133.766 103.103 121.8 98.1504 115.93 87.0607L115.93 87.0604C110.05 75.9704 112.676 63.2924 121.48 58.6292Z" fill="url(#paint2_linear_237_11333)" stroke="#110545" stroke-width="1.06396"/>
<path d="M197.678 119.242L197.677 119.242C194.433 120.959 190.528 120.561 186.883 118.643C183.235 116.723 179.791 113.259 177.387 108.721C174.982 104.182 174.049 99.3871 174.511 95.2904C174.972 91.1968 176.838 87.7431 180.084 86.026L197.678 119.242ZM197.678 119.242C200.922 117.522 202.786 114.068 203.247 109.974C203.708 105.877 202.775 101.083 200.37 96.5472M197.678 119.242L200.37 96.5472M200.37 96.5472C197.968 92.0089 194.526 88.545 190.878 86.6253M200.37 96.5472L190.878 86.6253M190.878 86.6253C187.233 84.707 183.329 84.3089 180.084 86.0259L190.878 86.6253ZM173.132 94.1238C173.646 89.5627 175.697 85.9092 179.077 84.1178L179.077 84.1178C182.454 82.3289 186.627 82.6859 190.689 84.8239C194.747 86.9603 198.64 90.8535 201.373 96.0128C204.106 101.172 205.139 106.579 204.625 111.138C204.112 115.7 202.062 119.354 198.685 121.146C195.305 122.935 191.131 122.579 187.069 120.441C183.01 118.305 179.117 114.412 176.384 109.251C173.651 104.089 172.618 98.6818 173.132 94.1238Z" fill="url(#paint3_linear_237_11333)" stroke="#110545" stroke-width="1.06396"/>
<path opacity="0.5" d="M140.739 78.7394L140.739 78.7395C142.902 81.9478 143.403 84.0847 143.539 85.5219C143.571 85.8601 143.582 86.1548 143.592 86.3996L143.593 86.4297C143.603 86.6902 143.611 86.8699 143.634 87.0132C143.656 87.1508 143.685 87.2062 143.704 87.2327C143.719 87.2529 143.755 87.2935 143.874 87.3396L140.739 78.7394ZM140.739 78.7394C139.171 76.4142 136.127 74.2702 133.386 72.4447M140.739 78.7394L133.386 72.4447M133.386 72.4447C133.016 72.1985 132.652 71.9581 132.296 71.7233M133.386 72.4447L132.296 71.7233M132.296 71.7233C131.312 71.0744 130.394 70.4684 129.608 69.9023M132.296 71.7233L129.608 69.9023M129.608 69.9023C128.517 69.1174 127.776 68.4725 127.466 67.9674L129.608 69.9023ZM127.466 67.9673C126.94 67.1094 126.968 66.5583 127.087 66.2255C127.198 65.9155 127.424 65.6954 127.617 65.5561C133.124 64.8518 139.342 68.3359 142.711 74.6946C144.89 78.8091 145.395 83.248 144.481 86.9963C144.394 87.193 144.302 87.302 144.226 87.3501C144.179 87.3806 144.089 87.4223 143.874 87.3396L127.466 67.9673Z" fill="white" stroke="#110545" stroke-width="1.06396"/>
<path opacity="0.5" d="M194.797 103.88L194.797 103.88C193.481 101.822 190.931 99.9286 188.648 98.3251C188.339 98.1083 188.035 97.8969 187.739 97.6905C186.919 97.1203 186.156 96.5891 185.502 96.0924C184.594 95.4026 183.987 94.844 183.737 94.4126C183.306 93.6702 183.333 93.1981 183.428 92.9181C183.514 92.6692 183.682 92.4898 183.83 92.3724C188.348 91.7776 193.485 94.7981 196.281 100.367C198.088 103.974 198.505 107.868 197.747 111.157C197.677 111.324 197.607 111.403 197.564 111.432C197.548 111.443 197.536 111.447 197.52 111.448C197.501 111.449 197.453 111.448 197.369 111.413C197.285 111.379 197.269 111.353 197.265 111.349C197.257 111.336 197.234 111.296 197.216 111.177C197.197 111.053 197.191 110.897 197.182 110.668L197.181 110.64C197.173 110.425 197.164 110.165 197.138 109.867C197.024 108.596 196.605 106.709 194.797 103.88Z" fill="white" stroke="#110545" stroke-width="1.06396"/>
<path d="M167.8 91.0562L167.801 91.0536L167.802 91.052L167.833 91.0062C167.861 90.9654 167.902 90.9048 167.956 90.8268C168.065 90.6708 168.225 90.446 168.429 90.1735C168.838 89.6279 169.422 88.8949 170.122 88.1436C170.823 87.3909 171.631 86.6289 172.489 86.0189C172.689 85.8763 172.89 85.7432 173.092 85.621C172.379 86.5918 171.586 87.9608 171.128 89.6758C171.005 89.6982 170.856 89.7319 170.68 89.7823C170.128 89.9407 169.31 90.2644 168.176 90.9224C168.01 91.0191 167.869 91.0934 167.75 91.1496C167.759 91.1323 167.767 91.1166 167.775 91.1027C167.785 91.0823 167.794 91.0664 167.8 91.0562ZM167.6 91.5628C167.6 91.5626 167.6 91.5624 167.6 91.5623C167.6 91.5644 167.6 91.5647 167.6 91.5628Z" fill="url(#paint4_linear_237_11333)" stroke="#110545" stroke-width="1.06396"/>
<path d="M109.006 73.6839C108.475 73.9588 107.819 74.3682 107.105 74.97C107.127 74.8064 107.154 74.6273 107.188 74.433C107.404 73.2085 107.89 71.3763 108.976 68.9959C110.027 66.6982 111.684 64.6058 113.044 63.2436C112.818 63.6012 112.581 64.0038 112.343 64.45C111.246 66.5035 110.118 69.4868 109.921 73.2838C109.694 73.3636 109.382 73.4901 109.006 73.6839Z" fill="url(#paint5_linear_237_11333)" stroke="#110545" stroke-width="1.06396"/>
<path d="M144.297 73.2555C138.088 63.8101 126.869 59.8173 119.203 64.8637C118.761 65.1539 118.346 65.4638 117.955 65.7916C118.92 64.21 120.189 62.8637 121.746 61.833C128.741 57.229 139.336 60.6762 145.392 69.926C149.446 76.121 150.302 83.1921 148.303 88.5469C148.821 83.6731 147.533 78.1571 144.297 73.2555Z" fill="#110545" stroke="#110545" stroke-width="1.04435"/>
<path d="M200.055 102.426C198.309 97.6682 195.313 93.5352 191.865 90.7107C188.427 87.8933 184.48 86.3327 180.847 86.8517C180.473 86.9044 180.114 86.9773 179.768 87.0686C180.768 86.3241 181.948 85.8312 183.292 85.6355C186.534 85.1725 190.193 86.5433 193.499 89.2449C196.797 91.9398 199.685 95.9161 201.372 100.535C203.591 106.619 203.117 112.118 200.766 115.418C201.981 111.869 201.832 107.246 200.055 102.426Z" fill="#110545" stroke="#110545" stroke-width="1.04435"/>
<path d="M161.355 129.291C156.333 132.072 147.612 129.85 140.389 123.95" stroke="#110545" stroke-width="2.6599" stroke-linecap="round"/>
<path d="M118.058 41.0087C126.808 39.0178 134.09 42.6978 138.687 45.9619" stroke="#110545" stroke-width="2.6599" stroke-linecap="round"/>
<path d="M191.333 73.243C199.071 74.2314 203.915 79.4103 206.693 83.4482" stroke="#110545" stroke-width="2.6599" stroke-linecap="round"/>
<path d="M90.744 50.8438L90.7585 50.8307L90.7725 50.817C90.9822 50.6126 91.1979 50.3962 91.4212 50.1724C92.2737 49.3175 93.2359 48.3527 94.3903 47.5171C95.8256 46.4783 97.4551 45.7233 99.3258 45.7317C102.704 45.7469 105.011 46.4673 106.308 47.0364L192.663 87.8412C195.851 89.3477 197.881 92.561 197.873 96.0872L197.745 151.296C197.693 152.722 197.398 155.143 196.536 157.347C195.663 159.58 194.301 161.373 192.242 161.942C190.607 162.394 187.976 162.615 184.966 162.701C181.983 162.786 178.727 162.737 175.889 162.684C173.053 162.63 170.381 161.302 168.654 159.064L165.61 155.12C165.099 154.458 164.486 153.793 163.712 153.277C161.003 151.471 156.769 149.938 149.888 148.256C142.983 146.568 133.297 144.705 119.6 142.29C118.257 142.054 116.869 142.065 115.529 142.328L86.9952 147.919C85.8595 148.142 84.6917 148.145 83.5546 147.93L73.4955 146.027C72.6889 145.811 71.9671 145.186 71.3501 143.945C70.7199 142.677 70.259 140.876 69.9577 138.557C69.356 133.927 69.4255 127.538 69.7827 119.96L69.7839 119.935L69.7838 119.909L69.6161 73.9864C69.6067 71.4001 70.6985 68.932 72.6187 67.1993L90.744 50.8438Z" fill="white" stroke="#110545" stroke-width="2.02155"/>
<path d="M69.617 72.6519C69.631 70.9576 70.3531 69.3463 71.6086 68.2084L88.5812 52.8247C91.1865 50.4633 95.3561 52.3233 95.3395 55.8395L94.9954 128.504C94.9876 130.159 93.9717 131.642 92.4313 132.248L77.4067 138.153C73.4082 139.724 69.0885 136.754 69.1239 132.458L69.617 72.6519Z" fill="white" stroke="#110545" stroke-width="2.02155"/>
<path d="M56.0896 128.918L0.667461 144.843L56.8686 112.776C56.8686 112.776 49.3819 123.023 56.0896 128.918Z" fill="#110545"/>
<path d="M71.1064 141.64L31.4466 141.951L66.1026 134.213C66.1026 134.213 64.8616 138.931 71.1064 141.64Z" fill="#110545"/>
<path d="M96.918 56.9681C96.9274 50.3142 103.844 45.9214 109.87 48.7413L192.943 87.6112C196.158 89.1157 198.205 92.3531 198.185 95.903L197.889 147.386C197.855 153.353 192.182 157.672 186.421 156.116L103.548 133.741C99.5744 132.668 96.8162 129.062 96.822 124.946L96.918 56.9681Z" stroke="#110545" stroke-width="2.02155"/>
<path d="M75.8655 138.809C78.3876 138.452 92.6713 133.305 94.1657 131.607C95.9912 129.534 96.5862 118.408 97.1467 111.847C98.1306 123.213 96.1227 129.404 101.488 132.086C103.412 133.048 128.405 140.553 133.534 141.694C138.664 142.836 189.123 156.98 192.841 156.972C195.816 156.965 197.438 154.015 197.877 152.54C197.899 153.05 197.767 154.596 197.066 156.703C196.364 158.809 195.008 160.259 194.418 160.721C194.142 160.314 193.287 159.358 192.076 158.782C190.562 158.063 144.905 144.526 138.295 143.708C131.685 142.889 101.611 134.756 81.9946 138.38C77.6297 139.186 75.6212 141.129 71.3522 142.75L69.9006 140.95C69.6081 139.772 69.3971 137.654 70.8931 138.603C72.763 139.789 73.3434 139.165 75.8655 138.809Z" fill="#110545"/>
<path d="M158.492 128.611C153.469 131.392 144.749 129.171 137.525 123.271" stroke="#110545" stroke-width="2.6599" stroke-linecap="round"/>
<path d="M72.6978 146.162L81.8872 141.331C81.8872 141.331 103.876 136.777 133.481 144.243C163.086 151.712 186.727 159.137 186.727 159.137C186.727 159.137 193.529 160.28 192.116 162.858L167.103 166.149C167.103 166.149 169.08 162.077 164.85 157.403C160.62 152.728 152.612 149.258 130.825 147.111C109.038 144.96 91.9442 147.485 85.5088 149.041L72.6978 146.162Z" fill="#110545"/>
<path d="M124.336 54.6318C126.652 53.2556 128.675 51.4901 132.944 51.7124C137.213 51.9346 172.427 68.8467 175.646 72.4206C177.944 74.972 178.434 78.2348 178.915 80.3384" stroke="#110545" stroke-width="2.02155" stroke-linecap="round"/>
<path d="M158.175 163.974C155.794 163.287 152.174 162.428 147.191 161.729C137.983 160.433 117.752 159.073 91.9358 164.777L85.9864 164.435C87.3846 164.05 89.2448 163.574 91.5239 163.069C97.0528 161.843 105.046 160.444 114.888 159.758C124.727 159.072 134.548 159.389 142.646 160.345C146.695 160.823 150.306 161.461 153.268 162.21C155.75 162.838 157.748 163.537 159.164 164.271C158.862 164.177 158.532 164.078 158.175 163.974Z" fill="#110545" stroke="#110545" stroke-width="1.12172"/>
<path d="M96.2913 66.8313C96.3041 65.0228 96.4306 62.0557 96.8131 57.5209C97.3482 51.1761 98.1136 49.8809 99.5835 48.7059C99.9206 48.4365 100.197 48.2544 100.649 48.0035L101.645 49.078C102.818 52.1958 105.138 58.6334 105.029 59.4418C104.921 60.2502 102.778 81.1364 102.502 83.9323C99.3587 84.7068 94.3292 86.3169 93.6212 86.4197C89.3957 87.0333 90.7497 70.5562 89.5797 69.8026C88.8837 68.3108 88.2706 55.8293 88.3515 55.0868C88.4807 53.9019 90.9194 52.1092 91.5529 51.9887C92.1864 51.8682 94.5997 51.5379 94.8762 52.9153C95.1653 54.3553 95.9977 61.7399 96.2913 66.8313Z" fill="white"/>
<path d="M94.1797 128.227L95.5728 83.884C96.1037 83.5271 96.2553 83.3754 96.7159 83.1865C97.1533 100.038 96.1782 112.641 99.2593 126.098L99.8222 122.277L102.111 87.2933L98.8143 79.4237L92.8539 79.4338L88.1246 127.229L94.1797 128.227Z" fill="white"/>
<path d="M93.408 126.376C93.8502 123.811 94.4287 117.635 94.6627 114.867L95.1563 113.7C95.5672 116.931 96.3852 123.484 96.3703 123.845C96.3517 124.296 96.3731 128.719 96.0776 129.283C95.8413 129.733 94.5069 131.867 93.8693 132.878L85.4043 134.458C89.1479 133.06 90.4252 132.453 91.74 131.404C92.5368 130.768 92.8554 129.583 93.408 126.376Z" fill="#110545"/>
<path d="M93.6478 52.1165C95.422 52.5226 96.0049 61.8684 96.3746 66.5826C97.4728 59.7479 99.6819 47.2831 109.42 48.9934C104.67 46.3084 99.6445 45.7774 96.9244 46.7214C94.2042 47.6654 89.442 51.7467 88.2863 54.335C90.6437 52.7173 91.3381 51.5877 93.6478 52.1165Z" fill="#110545"/>
<path d="M85.9375 55.5293L86.3646 63.2566" stroke="#110545" stroke-width="1.51617" stroke-linecap="round"/>
<path d="M80.4141 60.2109L81.0369 71.4806" stroke="#110545" stroke-width="1.51617" stroke-linecap="round"/>
<path d="M75.0977 64.8633L75.5247 72.5906" stroke="#110545" stroke-width="1.51617" stroke-linecap="round"/>
<path d="M98.2417 68.8395C99.9837 68.7758 101.533 68.7657 103.329 69.0933C105.006 69.3991 106.927 70.0054 109.421 71.1731L107.005 82.0799C106.931 82.0507 106.855 82.0205 106.776 81.9893C105.02 81.294 102.117 80.1441 98.4171 80.6367C95.5867 81.0135 93.1347 82.5131 90.9138 83.8714L90.8521 83.9092C84.1624 88.0001 74.9174 95.1364 69.1742 99.9324L69.2523 91.2118C71.5168 89.1549 73.8556 86.8481 76.2087 84.5272C76.3241 84.4134 76.4395 84.2996 76.555 84.1857C79.1162 81.66 81.6929 79.1293 84.235 76.865C86.7788 74.5991 89.2659 72.62 91.642 71.1907C94.025 69.7571 96.2373 68.9128 98.2417 68.8395Z" stroke="#110545" stroke-width="1.51617" stroke-linecap="round"/>
<path d="M69.0663 93.6724C69.0663 93.6724 79.4163 83.0279 88.9077 75.6439C88.9077 75.6439 95.7909 69.0203 103.419 71.6546L102.606 77.3086C102.606 77.3086 97.2768 75.6175 89.273 81.188C89.273 81.188 89.772 76.0885 83.2724 82.0144C76.7681 87.9402 72.2107 92.266 69.0617 95.4657L69.0709 93.6724L69.0663 93.6724Z" fill="#110545"/>
<path d="M92.7263 98.1503L89.7095 94.2051C88.2452 102.838 87.8863 107.253 87.6211 114.786L91.4539 114.786L92.7263 98.1503Z" fill="#110545"/>
<path d="M88.4858 96.0819C88.3191 97.5473 88.1488 98.9425 87.9822 100.308C86.8706 109.415 85.9229 117.18 87.2847 135.476C86.9108 135.473 86.5726 135.468 86.2465 135.464C85.3223 135.453 84.4966 135.442 83.2378 135.463C80.6912 120.279 81.9462 107.689 84.4939 98.5436L88.4858 96.0819Z" fill="white" stroke="#110545" stroke-width="2.02155"/>
<path d="M147.729 94.0093L151.147 85.926C157.441 87.4124 163.006 89.1536 168.326 92.4052L167.056 99.1546C162.451 96.7165 155.461 94.6023 147.729 94.0093Z" fill="white" stroke="#110545" stroke-width="2.02155"/>
<path d="M134.949 101.731L134.913 101.744L134.878 101.76C125.64 105.854 113.854 100.222 108.728 88.6557C103.603 77.0899 107.347 64.5753 116.585 60.4812C119.972 58.9805 123.319 57.7846 127.281 56.9451C130.293 57.7176 133.283 59.9094 135.973 62.9196C138.713 65.9863 141.065 69.8159 142.735 73.585C144.402 77.3464 144.898 82.3823 144.503 87.2788C144.121 92.0179 142.917 96.4703 141.282 99.3539C138.713 100.393 137.794 100.719 135.396 101.572C135.252 101.623 135.104 101.676 134.949 101.731Z" fill="white" stroke="#110545" stroke-width="2.02155"/>
<path d="M131.201 100.883L127.587 103.381" stroke="#110545" stroke-width="1.51617" stroke-linecap="round"/>
<path d="M133.418 101.381L130.864 103.168" stroke="#110545" stroke-width="1.51617" stroke-linecap="round"/>
<path d="M128.623 100.457L124.736 102.951" stroke="#110545" stroke-width="1.51617" stroke-linecap="round"/>
<path d="M126.038 99.3634L121.85 102.051" stroke="#110545" stroke-width="1.51617" stroke-linecap="round"/>
<path d="M123.379 97.8275L118.882 100.741" stroke="#110545" stroke-width="1.51617" stroke-linecap="round"/>
<path d="M120.449 95.6274L116.006 98.6219" stroke="#110545" stroke-width="1.51617" stroke-linecap="round"/>
<path d="M117.772 93.1923L113.265 96.0901" stroke="#110545" stroke-width="1.51617" stroke-linecap="round"/>
<path d="M115.363 89.8474L110.792 92.6424" stroke="#110545" stroke-width="1.51617" stroke-linecap="round"/>
<path d="M113.53 86.1442L108.692 88.7145" stroke="#110545" stroke-width="1.51617" stroke-linecap="round"/>
<path d="M112.582 82.3004L107.174 85.0528" stroke="#110545" stroke-width="1.51617" stroke-linecap="round"/>
<path d="M111.812 78.423L106.36 81.0952" stroke="#110545" stroke-width="1.51617" stroke-linecap="round"/>
<path d="M110.144 74.9905L106.184 77.0673" stroke="#110545" stroke-width="1.51617" stroke-linecap="round"/>
<path d="M109.151 71.7734L106.955 72.9253" stroke="#110545" stroke-width="1.51617" stroke-linecap="round"/>
<path d="M148.69 71.4083C153.816 82.9741 150.072 95.4887 140.833 99.5828C131.595 103.677 119.809 98.0447 114.683 86.479C109.558 74.9132 113.302 62.3985 122.54 58.3044C131.779 54.2103 143.565 59.8425 148.69 71.4083Z" fill="white" stroke="#110545" stroke-width="2.02155"/>
<path d="M146.008 72.5968C150.318 82.3208 147.311 92.7792 139.717 96.1449C132.122 99.5105 122.355 94.713 118.045 84.9889C113.736 75.2649 116.742 64.8065 124.337 61.4408C131.932 58.0752 141.699 62.8727 146.008 72.5968Z" fill="white" stroke="#110545" stroke-width="1.51617"/>
<path d="M175.563 86.5233L175.585 86.5135L175.606 86.5026C176.207 86.2001 176.722 85.9383 177.194 85.6986C178.48 85.0455 179.444 84.5556 180.943 83.8501C184.089 84.1774 187.612 85.9333 190.844 88.6656C194.152 91.4625 197.063 95.2081 198.862 99.249C200.508 102.949 201.265 107.399 201.187 111.614C201.111 115.726 200.244 119.503 198.743 122.091C196.773 123.217 195.269 123.942 192.72 125.076C184.796 128.603 174.263 123.23 169.421 112.351C164.579 101.471 167.639 90.0497 175.563 86.5233Z" fill="white" stroke="#110545" stroke-width="2.02155"/>
<path d="M192.308 123.519L188.386 126.23" stroke="#110545" stroke-width="1.51617" stroke-linecap="round"/>
<path d="M194.442 124.231C194.671 124.071 194.727 123.756 194.567 123.527C194.407 123.299 194.092 123.243 193.863 123.403L194.442 124.231ZM193.863 123.403L190.659 125.644L191.239 126.472L194.442 124.231L193.863 123.403Z" fill="#110545"/>
<path d="M189.357 123.418L185.718 125.752" stroke="#110545" stroke-width="1.51617" stroke-linecap="round"/>
<path d="M186.622 122.672L182.819 125.112" stroke="#110545" stroke-width="1.51617" stroke-linecap="round"/>
<path d="M183.963 121.138L180.034 123.683" stroke="#110545" stroke-width="1.51617" stroke-linecap="round"/>
<path d="M181.031 118.936L176.588 121.93" stroke="#110545" stroke-width="1.51617" stroke-linecap="round"/>
<path d="M178.356 116.501L173.849 119.399" stroke="#110545" stroke-width="1.51617" stroke-linecap="round"/>
<path d="M175.945 113.155L171.374 115.95" stroke="#110545" stroke-width="1.51617" stroke-linecap="round"/>
<path d="M174.116 109.455L169.278 112.025" stroke="#110545" stroke-width="1.51617" stroke-linecap="round"/>
<path d="M172.532 105.93L168.064 108.204" stroke="#110545" stroke-width="1.51617" stroke-linecap="round"/>
<path d="M170.824 102.499L167.013 104.367" stroke="#110545" stroke-width="1.51617" stroke-linecap="round"/>
<path d="M169.614 98.8801L166.886 100.311" stroke="#110545" stroke-width="1.51617" stroke-linecap="round"/>
<path d="M204.067 96.6405C208.908 107.52 205.849 118.942 197.925 122.468C190 125.994 179.467 120.622 174.626 109.742C169.784 98.8626 172.844 87.4412 180.768 83.9148C188.692 80.3883 199.225 85.7608 204.067 96.6405Z" fill="white" stroke="#110545" stroke-width="2.02155"/>
<path d="M201.682 97.7015C203.689 102.211 204.112 106.881 203.207 110.774C202.302 114.667 200.087 117.737 196.842 119.181C193.596 120.625 189.833 120.216 186.335 118.283C182.838 116.349 179.651 112.908 177.644 108.399C175.638 103.89 175.214 99.219 176.119 95.326C177.024 91.4335 179.239 88.3638 182.485 86.9195C185.73 85.4752 189.493 85.8843 192.991 87.8177C196.489 89.7515 199.675 93.1925 201.682 97.7015Z" fill="white" stroke="#110545" stroke-width="1.51617"/>
<path fill-rule="evenodd" clip-rule="evenodd" d="M194.267 106.359C193.093 103.717 189.471 100.168 183.568 100.572L183.556 103.036C188.786 102.175 191.771 105.304 193.399 107.198L194.267 106.359Z" fill="#110545"/>
<path fill-rule="evenodd" clip-rule="evenodd" d="M137.344 82.8327C136.021 79.8547 131.55 75.8332 125.275 76.8656L125.27 79.0865C131.166 78.1165 134.531 81.6431 136.365 83.7781L137.344 82.8327Z" fill="#110545"/>
<path d="M240.091 108.849L267.239 107.206L233.831 122.384L240.091 108.849Z" fill="#110545" stroke="#110545" stroke-width="2.02155"/>
<path fill-rule="evenodd" clip-rule="evenodd" d="M297.423 81.0782L299.996 73.7634C300.047 73.619 299.94 73.4678 299.787 73.4678H294.795C294.697 73.4678 294.61 73.5325 294.582 73.6267L292.415 80.9415C292.373 81.0837 292.479 81.2264 292.628 81.2264H297.213C297.307 81.2264 297.391 81.167 297.423 81.0782ZM301.903 74.4343L299.33 81.7492C299.014 82.6472 298.165 83.248 297.213 83.248H292.628C291.128 83.248 290.051 81.805 290.477 80.3672L292.644 73.0524C292.926 72.0998 293.802 71.4463 294.795 71.4463H299.787C301.334 71.4463 302.417 72.9751 301.903 74.4343Z" fill="#110545"/>
<path d="M222.079 26.9619H230.298C231.198 26.9619 231.913 27.7194 231.861 28.6181L230.889 45.2981C230.842 46.0978 230.199 46.7333 229.399 46.7705L222.152 47.1077C221.26 47.1492 220.514 46.4372 220.514 45.5443V28.527C220.514 27.6626 221.214 26.9619 222.079 26.9619Z" fill="white" stroke="#110545"/>
<path d="M237.825 61.6116C241.267 40.7298 243.726 25.1137 245.474 12.6562C263.062 12.6562 280.882 13.0932 299.677 16.8085C293.412 45.5843 281.1 95.7052 277.822 106.196C269.517 107.944 246.351 109.474 232.361 109.474C233.017 101.169 235.202 77.522 237.825 61.6116Z" fill="#110545"/>
<path d="M249.627 19.4316L293.993 22.2727L275.416 100.514L237.17 102.044L249.627 19.4316Z" fill="white"/>
<path fill-rule="evenodd" clip-rule="evenodd" d="M268.723 36.6575C268.745 36.0996 269.136 34.9806 269.694 35.0023L285.957 36.3147C286.515 36.3363 286.949 36.806 286.928 37.3639C286.906 37.9217 286.436 38.3563 285.878 38.3347L269.694 37.7067C269.136 37.685 268.702 37.2153 268.723 36.6575ZM251.021 46.0524C251.044 45.4946 251.431 44.274 251.989 44.2972L283.544 46.3958C284.102 46.4191 284.535 46.8901 284.512 47.4478C284.489 48.0056 284.018 48.4389 283.46 48.4156L251.989 47.1043C251.431 47.0811 250.998 46.6101 251.021 46.0524ZM249.097 56.4906C249.114 55.9326 249.519 54.8839 250.077 54.9007L281.472 56.4577C282.03 56.4746 282.469 56.9406 282.452 57.4985C282.435 58.0565 281.969 58.4952 281.411 58.4783L250.077 57.5314C249.519 57.5146 249.08 57.0485 249.097 56.4906ZM247.461 66.1341C247.477 65.5761 248.539 64.4394 249.097 64.455L279.318 66.0128C279.876 66.0284 280.315 66.4934 280.3 67.0514C280.284 67.6094 279.819 68.0491 279.261 68.0336L248.443 67.1727C247.885 67.1571 247.446 66.6921 247.461 66.1341Z" fill="#110545"/>
<path fill-rule="evenodd" clip-rule="evenodd" d="M243.371 92.8643C243.371 92.3061 243.824 91.4375 244.382 91.4375L261.647 91.8535C262.205 91.8535 262.658 92.3061 262.658 92.8643C262.658 93.4225 262.205 93.8751 261.647 93.8751H244.382C243.824 93.8751 243.371 93.4225 243.371 92.8643Z" fill="#110545"/>
<path d="M289.824 94.553L303.681 94.2428C305.176 94.2093 306.284 95.6193 305.899 97.0637L300.068 118.93C299.831 119.818 299.076 120.472 298.163 120.58L284.327 122.208C282.768 122.391 281.507 120.957 281.889 119.434L287.698 96.2506C287.944 95.2706 288.814 94.5756 289.824 94.553Z" fill="white"/>
<path fill-rule="evenodd" clip-rule="evenodd" d="M303.727 96.2638L290.035 96.7458C289.935 96.748 289.849 96.8167 289.824 96.9136L284.664 119.221C284.626 119.371 284.751 119.513 284.905 119.495L297.927 118.572C298.017 118.562 298.092 118.497 298.115 118.409L303.946 96.5428C303.984 96.4 303.874 96.2605 303.727 96.2638ZM303.681 94.2428L289.824 94.553C288.814 94.5756 287.944 95.2706 287.698 96.2506L281.889 119.434C281.507 120.957 282.768 122.391 284.327 122.208L298.163 120.58C299.076 120.472 299.831 119.818 300.068 118.93L305.899 97.0637C306.284 95.6193 305.176 94.2093 303.681 94.2428Z" fill="#110545"/>
<path d="M274.388 120.883L273.191 128.566C273.102 129.136 272.629 129.569 272.053 129.606L267.23 129.919C266.44 129.971 265.807 129.275 265.933 128.494L267.169 120.801C267.26 120.233 267.733 119.803 268.308 119.767L273.092 119.463C273.879 119.413 274.51 120.104 274.388 120.883Z" fill="#E4EDF1" stroke="#110545" stroke-width="2.02155"/>
<path d="M113.263 106.323L111.204 150.581L65.0382 146.825L57.6914 96.9043H71.0677L74.2701 105.193L113.263 106.323Z" fill="#110545"/>
<path d="M104.268 119.581L67.0184 117.97L64.3726 103.418L103.274 104.667L104.268 119.581Z" fill="white" stroke="#110545" stroke-width="2.02155"/>
<path d="M102.703 104.96L99.7734 109.096L96.8438 113.232" stroke="#110545" stroke-width="2.02155"/>
<path d="M96.845 103.967L90.6562 113.076" stroke="#110545" stroke-width="2.02155"/>
<path d="M90.7141 104.123L84.5254 113.232" stroke="#110545" stroke-width="2.02155"/>
<path d="M83.9719 104.123L77.7832 113.232" stroke="#110545" stroke-width="2.02155"/>
<path d="M77.7825 103.709L71.5938 112.818" stroke="#110545" stroke-width="2.02155"/>
<path d="M72.5407 111.676L72.7361 112.392L73.4784 112.42L108.161 113.704L110.123 149.737L50.3355 147.914L46.1688 97.9151H68.7878L72.5407 111.676Z" fill="white" stroke="#110545" stroke-width="2.02155"/>
<path d="M111.192 150.781L109.12 112.728L73.5158 111.41L69.5599 96.9043H45.0703L49.4031 148.897L111.192 150.781Z" fill="#DBFF00"/>
<path d="M75.3164 137.538C75.3518 135.852 76.6671 134.652 78.4192 134.689C79.3023 134.708 80.0667 135.03 80.573 135.627L80.0296 136.131C79.5907 135.662 79.0625 135.442 78.4317 135.428C77.1422 135.401 76.1554 136.315 76.129 137.569C76.1024 138.838 77.0362 139.778 78.3398 139.805C78.9705 139.819 79.5219 139.607 79.966 139.156L80.4878 139.683C79.9569 140.258 79.1796 140.548 78.2825 140.529C76.5447 140.479 75.2809 139.225 75.3164 137.538Z" fill="#110545"/>
<path d="M64.8003 135.17L66.7626 135.211L66.6578 140.202L67.4708 140.219L67.5756 135.228L69.538 135.27L69.5529 134.559L64.8152 134.459L64.8003 135.17Z" fill="#110545"/>
<path d="M74.6224 140.369L74.6371 139.672L71.3011 139.602L71.3397 137.762L74.2131 137.822L74.2278 137.125L71.3544 137.065L71.3913 135.309L74.6151 135.376L74.63 134.665L70.5792 134.58L70.4594 140.281L74.6224 140.369Z" fill="#110545"/>
<path d="M86.841 136.47L86.7678 140.624L87.5527 140.641L87.6585 134.939L86.9857 134.925L84.5468 138.876L82.234 134.825L81.5612 134.811L81.4415 140.512L82.2264 140.529L82.3131 136.403L84.3152 139.889L84.6937 139.897L86.841 136.47Z" fill="#110545"/>
<path fill-rule="evenodd" clip-rule="evenodd" d="M92.9121 139.331L89.8704 139.267L89.2098 140.675L88.3688 140.658L91.0816 135.011L91.8946 135.028L94.382 140.784L93.527 140.766L92.9121 139.331ZM92.6455 138.67L91.4706 135.856L90.1785 138.618L92.6455 138.67Z" fill="#110545"/>
<path d="M100.119 140.904L100.238 135.203L99.4255 135.186L99.3362 139.438L95.9913 135.114L95.3185 135.1L95.1987 140.801L96.0117 140.818L96.101 136.567L99.4458 140.89L100.119 140.904Z" fill="#110545"/>
<path d="M75.3164 137.538C75.3518 135.852 76.6671 134.652 78.4192 134.689C79.3023 134.708 80.0667 135.03 80.573 135.627L80.0296 136.131C79.5907 135.662 79.0625 135.442 78.4317 135.428C77.1422 135.401 76.1554 136.315 76.129 137.569C76.1024 138.838 77.0362 139.778 78.3398 139.805C78.9705 139.819 79.5219 139.607 79.966 139.156L80.4878 139.683C79.9569 140.258 79.1796 140.548 78.2825 140.529C76.5447 140.479 75.2809 139.225 75.3164 137.538Z" stroke="#110545" stroke-width="0.336515"/>
<path d="M64.8003 135.17L66.7626 135.211L66.6578 140.202L67.4708 140.219L67.5756 135.228L69.538 135.27L69.5529 134.559L64.8152 134.459L64.8003 135.17Z" stroke="#110545" stroke-width="0.336515"/>
<path d="M74.6224 140.369L74.6371 139.672L71.3011 139.602L71.3397 137.762L74.2131 137.822L74.2278 137.125L71.3544 137.065L71.3913 135.309L74.6151 135.376L74.63 134.665L70.5792 134.58L70.4594 140.281L74.6224 140.369Z" stroke="#110545" stroke-width="0.336515"/>
<path d="M86.841 136.47L86.7678 140.624L87.5527 140.641L87.6585 134.939L86.9857 134.925L84.5468 138.876L82.234 134.825L81.5612 134.811L81.4415 140.512L82.2264 140.529L82.3131 136.403L84.3152 139.889L84.6937 139.897L86.841 136.47Z" stroke="#110545" stroke-width="0.336515"/>
<path fill-rule="evenodd" clip-rule="evenodd" d="M92.9121 139.331L89.8704 139.267L89.2098 140.675L88.3688 140.658L91.0816 135.011L91.8946 135.028L94.382 140.784L93.527 140.766L92.9121 139.331ZM92.6455 138.67L91.4706 135.856L90.1785 138.618L92.6455 138.67Z" stroke="#110545" stroke-width="0.336515"/>
<path d="M100.119 140.904L100.238 135.203L99.4255 135.186L99.3362 139.438L95.9913 135.114L95.3185 135.1L95.1987 140.801L96.0117 140.818L96.101 136.567L99.4458 140.89L100.119 140.904Z" stroke="#110545" stroke-width="0.336515"/>
<path fill-rule="evenodd" clip-rule="evenodd" d="M74.1772 111.442L109.12 112.728L111.192 150.781L49.4031 148.897L45.0703 96.9043H69.5599L74.1772 111.442ZM68.0158 98.9259L71.9223 114.224L106.949 115.201L108.001 148.123L52.4547 146.77L47.2673 98.9259H68.0158Z" fill="#110545"/>
<path d="M100.395 7.00607L108.34 27.0781L98.3046 20.8056L89.7321 25.1964L78.2324 0.524414L93.0773 13.6967L100.395 7.00607Z" fill="#110545"/>
<path d="M89.0462 146.967L85.8223 146.558L87.1674 148.286L88.0991 150.383L89.8693 149.684L89.0462 146.967Z" fill="#110545"/>
<path d="M76.9095 146.736L73.6855 146.326L75.0306 148.055L75.9623 150.151L77.7326 149.452L76.9095 146.736Z" fill="#110545"/>
<path d="M87.8562 150.693L87.6631 149.438C87.4947 148.344 86.5531 147.536 85.4458 147.536H82.6674C81.3412 147.536 80.3044 148.68 80.4348 150L80.5491 151.157C80.6596 152.276 81.5812 153.14 82.7049 153.179L85.5621 153.276C86.9673 153.324 88.07 152.083 87.8562 150.693Z" fill="white" stroke="#110545" stroke-width="2.02155"/>
<path d="M75.6589 150.392L75.4659 149.138C75.2975 148.043 74.3558 147.235 73.2485 147.235H70.4701C69.1439 147.235 68.1072 148.38 68.2375 149.699L68.3518 150.856C68.4623 151.975 69.384 152.839 70.5076 152.878L73.3648 152.976C74.7701 153.024 75.8727 151.782 75.6589 150.392Z" fill="white" stroke="#110545" stroke-width="2.02155"/>
<defs>
<filter id="filter0_f_237_11333" x="88.5773" y="48.4133" width="15.399" height="77.6315" filterUnits="userSpaceOnUse" color-interpolation-filters="sRGB">
<feFlood flood-opacity="0" result="BackgroundImageFix"/>
<feBlend mode="normal" in="SourceGraphic" in2="BackgroundImageFix" result="shape"/>
<feGaussianBlur stdDeviation="2.6044" result="effect1_foregroundBlur_237_11333"/>
</filter>
<filter id="filter1_f_237_11333" x="96.3039" y="109.614" width="103.735" height="50.2457" filterUnits="userSpaceOnUse" color-interpolation-filters="sRGB">
<feFlood flood-opacity="0" result="BackgroundImageFix"/>
<feBlend mode="normal" in="SourceGraphic" in2="BackgroundImageFix" result="shape"/>
<feGaussianBlur stdDeviation="2.6044" result="effect1_foregroundBlur_237_11333"/>
</filter>
<linearGradient id="paint0_linear_237_11333" x1="139.512" y1="144.758" x2="146.342" y2="127.976" gradientUnits="userSpaceOnUse">
<stop stop-color="white"/>
<stop offset="1" stop-color="white" stop-opacity="0"/>
</linearGradient>
<linearGradient id="paint1_linear_237_11333" x1="103.549" y1="98.804" x2="121.474" y2="98.8964" gradientUnits="userSpaceOnUse">
<stop stop-color="#A4EEFB"/>
<stop offset="1" stop-color="#808FDB"/>
</linearGradient>
<linearGradient id="paint2_linear_237_11333" x1="112.229" y1="78.4314" x2="151.819" y2="78.6354" gradientUnits="userSpaceOnUse">
<stop stop-color="#7729F6"/>
<stop offset="1" stop-color="#9EFFEE"/>
</linearGradient>
<linearGradient id="paint3_linear_237_11333" x1="172.44" y1="102.546" x2="205.317" y2="102.716" gradientUnits="userSpaceOnUse">
<stop stop-color="#7729F6"/>
<stop offset="1" stop-color="#9EFFEE"/>
</linearGradient>
<linearGradient id="paint4_linear_237_11333" x1="167.083" y1="88.0414" x2="174.971" y2="88.082" gradientUnits="userSpaceOnUse">
<stop stop-color="#6BD4E6"/>
<stop offset="1" stop-color="#80C4DB"/>
</linearGradient>
<linearGradient id="paint5_linear_237_11333" x1="106.53" y1="68.7208" x2="114.986" y2="68.7644" gradientUnits="userSpaceOnUse">
<stop stop-color="#C0F6FF"/>
<stop offset="1" stop-color="#8094DB"/>
</linearGradient>
</defs>
</svg>
