<svg width="423" height="390" viewBox="0 0 423 390" fill="none" xmlns="http://www.w3.org/2000/svg">
<path d="M315.829 263.854C333.165 255.728 356.196 258.411 367.654 262.517L345.271 215.975L254.626 137.668C218.221 139.77 147.158 150.257 146.399 166.868C145.64 183.479 195.862 274.611 221.068 318.1C227.338 297.861 272.956 290.714 289.542 293.907C290.987 281.925 300.827 270.886 315.829 263.854Z" fill="#3852CE" stroke="#110545" stroke-width="1.80219"/>
<path fill-rule="evenodd" clip-rule="evenodd" d="M149.171 160.261C146.992 162.225 145.61 164.414 145.499 166.827C145.396 169.082 146.148 172.46 147.499 176.629C148.861 180.834 150.871 185.955 153.375 191.748C158.382 203.334 165.387 217.662 173.196 232.817C188.816 263.13 207.681 296.799 220.289 318.552L221.32 320.332L221.929 318.367C223.409 313.59 227.241 309.498 232.566 306.091C237.882 302.69 244.598 300.029 251.676 298.085C265.857 294.19 281.26 293.23 289.372 294.792L290.321 294.975L290.437 294.015C298.592 258.711 346.099 255.193 370.998 267.275L346.002 215.415L254.94 136.747L254.575 136.768C236.334 137.821 209.418 140.974 186.951 145.947C175.724 148.433 165.56 151.383 158.136 154.774C154.427 156.468 151.354 158.294 149.171 160.261ZM254.314 138.589L344.541 216.534L365.921 260.991C360.189 259.219 352.362 257.849 343.962 257.698C334.52 257.528 324.28 258.898 315.448 263.038C300.676 269.962 290.662 280.823 288.778 292.858C280.12 291.467 265.028 292.549 251.198 296.347C244.015 298.321 237.114 301.042 231.595 304.573C226.729 307.687 222.868 311.474 220.892 315.997C208.31 294.233 190.011 261.513 174.798 231.992C166.996 216.851 160.012 202.564 155.029 191.033C152.537 185.266 150.551 180.202 149.213 176.074C147.864 171.91 147.213 168.807 147.3 166.909C147.379 165.169 148.383 163.397 150.378 161.6C152.368 159.806 155.257 158.071 158.885 156.413C166.137 153.1 176.157 150.183 187.341 147.707C209.547 142.791 236.157 139.658 254.314 138.589Z" fill="#110545"/>
<path d="M379.148 287.895L420.889 290.517C369.143 216.815 305.304 167.659 253.983 137.318C307.051 186.221 337.994 223.274 379.148 287.895Z" fill="#110545" stroke="#110545" stroke-width="1.80219"/>
<path d="M281.71 281.573L265.421 255.896" stroke="#110545" stroke-width="1.35165" stroke-linecap="round"/>
<path d="M96.3636 138.578L88.8703 147.99L87.8058 146.894L87.7511 146.838L87.6875 146.792L61.3297 127.73C61.083 127.169 60.7629 126.374 60.5101 125.597C60.3664 125.155 60.2498 124.736 60.1792 124.377C60.1044 123.998 60.0994 123.773 60.1146 123.678C60.1145 123.679 60.1146 123.679 60.1151 123.677C60.1181 123.667 60.1337 123.616 60.1884 123.514C60.2509 123.399 60.3446 123.255 60.472 123.084C60.7272 122.741 61.0787 122.344 61.481 121.928C62.1475 121.239 62.9117 120.543 63.5079 120.03C65.8518 120.625 71.7301 122.627 79.3926 126.741C83.4683 128.929 87.3248 131.437 90.4298 133.702C93.1034 135.652 95.182 137.394 96.3636 138.578Z" fill="white" stroke="#110545" stroke-width="1.80219"/>
<path d="M59.568 138.378C60.1147 137.644 60.9275 136.989 62.2292 136.393C62.6118 136.443 63.2876 136.621 64.2724 136.961C65.392 137.348 66.8046 137.905 68.4319 138.593C71.6845 139.967 75.7509 141.842 79.9612 143.86C88.008 147.717 96.5415 152.076 100.856 154.415L97.0849 174.231L59.7633 144.107C59.2686 143.482 58.7133 142.284 58.4539 141.154C58.6857 140.005 59.0176 139.117 59.568 138.378Z" fill="white" stroke="#110545" stroke-width="1.80219"/>
<path d="M61.731 142.148C61.3751 142.297 60.8208 142.718 60.2957 143.915L104.448 176.641C104.54 176.641 104.673 176.639 104.838 176.631C105.177 176.615 105.644 176.574 106.161 176.476C107.103 176.295 108.146 175.934 108.891 175.24C108.804 175.113 108.683 174.945 108.519 174.733C108.085 174.172 107.355 173.307 106.185 172.117C103.843 169.737 99.744 166.059 92.7329 160.908C85.7255 155.758 78.1106 151.045 72.2439 147.618C69.3113 145.904 66.8174 144.513 65.057 143.551C64.1768 143.07 63.4801 142.696 63.0037 142.442C62.7655 142.315 62.5824 142.219 62.459 142.154L62.3193 142.08L62.3118 142.076C62.2895 142.071 62.2501 142.064 62.1969 142.061C62.0914 142.055 61.9288 142.065 61.731 142.148Z" fill="#110545" stroke="#110545" stroke-width="0.948509"/>
<path d="M103.598 159.58L103.672 159.634L103.719 159.713L104.62 161.192C104.694 161.189 104.782 161.185 104.882 161.179C105.213 161.16 105.67 161.122 106.175 161.047C107.063 160.915 108.031 160.679 108.731 160.277C108.674 160.164 108.6 160.025 108.507 159.859C108.215 159.336 107.738 158.549 107.009 157.516C105.552 155.449 103.085 152.394 99.0628 148.476C91.0341 140.654 77.0165 131.888 63.6921 126.372L63.6473 126.353L63.6116 126.329C63.6111 126.329 63.6104 126.329 63.6097 126.328C63.6046 126.325 63.594 126.319 63.5783 126.311C63.5469 126.295 63.4967 126.272 63.4319 126.252C63.3021 126.211 63.1216 126.182 62.9117 126.226C62.5458 126.303 61.9227 126.645 61.313 128.017L103.598 159.58Z" fill="#110545" stroke="#110545" stroke-width="0.948509"/>
<g opacity="0.5" filter="url(#filter0_f_2188_9311)">
<path d="M227.956 102.76C227.956 102.76 228.2 99.1107 225.907 98.4008C223.609 97.6903 222.674 99.2537 222.514 102.173L214.528 176.139C214.528 176.139 218.651 173.166 219.896 177.621L227.961 102.76L227.956 102.76Z" fill="white"/>
<path d="M227.483 102.729L227.474 102.854L219.606 175.879C219.364 175.55 219.087 175.296 218.782 175.107C218.093 174.681 217.336 174.636 216.672 174.741C216.072 174.835 215.519 175.054 215.1 175.259L222.986 102.224L222.987 102.212L222.988 102.199C223.067 100.757 223.336 99.768 223.777 99.2245C223.986 98.9671 224.233 98.8099 224.533 98.7428C224.843 98.6737 225.245 98.6925 225.767 98.8538L227.483 102.729ZM227.483 102.729L227.483 102.729M227.483 102.729L227.483 102.729M227.483 102.729L227.483 102.728M227.483 102.729L227.483 102.728M227.483 102.728L227.483 102.728M227.483 102.728L227.483 102.728M227.483 102.728L227.483 102.728L227.483 102.722L227.484 102.697C227.485 102.674 227.487 102.638 227.488 102.591C227.49 102.498 227.49 102.362 227.484 102.196C227.472 101.862 227.433 101.414 227.329 100.951C227.113 99.9947 226.66 99.1305 225.767 98.8539L227.483 102.728Z" stroke="#110545" stroke-width="0.948509"/>
</g>
<path d="M134.667 225.524L134.667 225.524C133.941 224.503 133.616 223.587 133.605 222.776C133.594 221.975 133.889 221.221 134.505 220.51C135.763 219.059 138.328 217.83 142.106 216.946C149.625 215.185 161.583 214.868 176.203 216.443C190.811 218.017 205.266 221.178 216.824 225.012C222.602 226.929 227.647 229.012 231.62 231.143C235.605 233.281 238.462 235.443 239.922 237.497L134.667 225.524ZM134.667 225.524C136.126 227.578 138.982 229.739 142.967 231.877C146.939 234.008 151.983 236.091 157.761 238.008C169.318 241.842 183.773 245.003 198.381 246.577C212.999 248.152 224.956 247.835 232.477 246.074M134.667 225.524L232.477 246.074M232.477 246.074C236.255 245.19 238.821 243.961 240.081 242.51M232.477 246.074L240.081 242.51M240.081 242.51C240.698 241.799 240.993 241.045 240.982 240.243M240.081 242.51L240.982 240.243M240.982 240.243C240.972 239.433 240.648 238.518 239.923 237.497L240.982 240.243Z" fill="#110545" stroke="#110545" stroke-width="0.948509"/>
<path d="M134.836 225.399L134.836 225.4C136.268 227.415 139.09 229.558 143.067 231.693C147.026 233.817 152.058 235.895 157.83 237.81C169.371 241.639 183.813 244.797 198.408 246.369C214.202 248.071 226.84 247.556 234.134 245.423C233.986 244.887 233.706 244.306 233.262 243.678C231.829 241.663 229.007 239.52 225.029 237.386C221.069 235.261 216.036 233.183 210.264 231.268C198.722 227.439 184.281 224.281 169.686 222.709C153.892 221.007 141.253 221.527 133.964 223.656C134.112 224.192 134.389 224.773 134.836 225.399Z" fill="white" stroke="#110545" stroke-width="1.35165"/>
<path d="M193.571 103.199C202.344 108.919 203.84 122.455 196.634 133.508C189.427 144.561 176.437 148.652 167.664 142.932C158.891 137.212 157.395 123.676 164.602 112.623C171.809 101.57 184.799 97.4788 193.571 103.199Z" fill="white" stroke="#110545" stroke-width="0.931025"/>
<path d="M123.791 123.008C127.605 125.563 129.592 130.158 129.652 135.604C129.712 141.047 127.842 147.289 124.002 153.022C120.162 158.756 115.103 162.862 110.047 164.879C104.989 166.897 99.9829 166.81 96.1684 164.255C92.3538 161.701 90.3672 157.105 90.3069 151.66C90.2468 146.217 92.1171 139.975 95.957 134.241C99.7969 128.507 104.856 124.401 109.912 122.384C114.97 120.367 119.976 120.454 123.791 123.008Z" fill="white" stroke="#110545" stroke-width="0.931025"/>
<path opacity="0.5" d="M223.939 124.676C223.953 124.832 223.967 124.963 223.978 125.064L227.151 126.836C227.249 126.597 227.366 126.255 227.465 125.815C227.677 124.869 227.803 123.464 227.445 121.64C227.398 121.603 227.34 121.557 227.27 121.504C227.073 121.356 226.788 121.154 226.437 120.939C225.823 120.563 225.025 120.162 224.159 119.941C223.892 120.858 223.832 122.069 223.854 123.142C223.867 123.745 223.905 124.286 223.939 124.676Z" fill="white" stroke="#110545" stroke-width="0.948509"/>
<g opacity="0.5" filter="url(#filter1_f_2188_9311)">
<path d="M97.3516 198.554C97.3516 198.554 97.8046 204.681 101.66 204.446L203.485 185.991C203.485 185.991 209.597 184.958 210.705 177.539C211.813 170.121 207.445 167.804 203.43 169.372C199.415 170.939 100.484 196.285 100.484 196.285C100.484 196.285 97.0905 196.989 97.3516 198.554Z" fill="url(#paint0_linear_2188_9311)"/>
<path d="M97.823 198.498L97.8194 198.476C97.7873 198.283 97.8537 198.091 98.0689 197.872C98.2912 197.646 98.6305 197.44 99.0162 197.264C99.3957 197.091 99.7878 196.962 100.089 196.875C100.238 196.832 100.363 196.8 100.45 196.78C100.472 196.774 100.491 196.77 100.508 196.766C100.524 196.762 100.538 196.759 100.549 196.756L100.573 196.751L100.579 196.75L100.58 196.75L97.823 198.498ZM97.823 198.498L97.8246 198.519L97.8246 198.519L97.8246 198.519L97.8248 198.521L97.8256 198.532C97.8265 198.542 97.8278 198.557 97.8298 198.578C97.8311 198.591 97.8326 198.607 97.8344 198.624C97.8381 198.661 97.8431 198.707 97.8495 198.761C97.8685 198.92 97.8999 199.149 97.9494 199.424C98.0487 199.976 98.2188 200.701 98.5009 201.414C99.0754 202.864 100.02 204.057 101.604 203.974L203.401 185.525L203.4 185.525L203.405 185.524L203.405 185.524L203.406 185.524L97.823 198.498Z" stroke="#110545" stroke-width="0.948509"/>
</g>
<path d="M206.247 124.021C206.247 124.021 206.247 124.021 206.247 124.021L205.872 123.953C206.067 123.988 206.181 124.009 206.247 124.021ZM192.697 144.622C181.631 151.731 170.189 151.671 164.161 145.648C164.149 145.651 164.136 145.653 164.123 145.656C163.972 145.686 163.856 145.732 163.799 145.777C163.795 145.78 163.792 145.783 163.79 145.785C163.79 145.793 163.792 145.804 163.797 145.82C163.832 145.941 163.982 146.2 164.456 146.622C165.416 147.476 167.484 149.087 170.018 150.525C172.559 151.967 175.52 153.206 178.279 153.374C183.978 153.719 191.154 153.42 197.589 148.691C204.088 143.913 207.014 139.006 208.041 134.98L208.041 134.98C208.286 134.027 208.283 132.735 208.116 131.336C207.95 129.946 207.626 128.492 207.259 127.234C206.918 126.067 206.546 125.096 206.24 124.509C206.231 124.55 206.221 124.593 206.211 124.639C206.123 125.021 205.985 125.571 205.786 126.253C205.386 127.616 204.738 129.507 203.739 131.622C201.742 135.849 198.335 141 192.697 144.622ZM163.783 145.792C163.783 145.792 163.784 145.792 163.784 145.791L163.783 145.792ZM163.789 145.777C163.789 145.776 163.789 145.776 163.789 145.775C163.789 145.775 163.789 145.775 163.789 145.777Z" fill="#9371CA" stroke="#110545" stroke-width="0.948509"/>
<path d="M133.456 134.369L133.476 134.42L133.485 134.475L133.016 134.546C133.485 134.475 133.485 134.475 133.485 134.475L133.485 134.476L133.485 134.478L133.486 134.486L133.49 134.512C133.493 134.535 133.497 134.568 133.503 134.611C133.513 134.696 133.527 134.821 133.542 134.982C133.571 135.304 133.604 135.773 133.617 136.366C133.644 137.554 133.594 139.243 133.289 141.263C132.677 145.306 131.044 150.678 126.956 156.007C118.828 166.606 110.284 169.639 103.863 169.423C100.679 169.316 98.6487 168.629 97.3984 167.942C96.8808 167.657 96.4996 167.374 96.2276 167.135C96.2122 167.197 96.1983 167.261 96.1866 167.327C96.1012 167.815 96.142 168.371 96.562 168.843L96.5627 168.844C96.7784 169.088 97.3142 169.484 98.1507 169.931C98.972 170.37 100.043 170.836 101.291 171.233C103.789 172.028 106.965 172.539 110.24 172.028C116.813 171.004 124.198 165.902 129.66 159.163C135.101 152.449 137.243 145.087 137.168 140.204C137.131 137.873 135.823 135.976 134.627 134.949C134.331 134.695 134.05 134.501 133.808 134.371C133.635 134.278 133.498 134.225 133.398 134.2C133.41 134.244 133.428 134.3 133.456 134.369Z" fill="#9371CA" stroke="#110545" stroke-width="0.948509"/>
<path d="M211.749 142.194L211.749 142.194L211.749 142.197L211.748 142.21C211.748 142.222 211.747 142.241 211.746 142.268C211.743 142.32 211.738 142.399 211.729 142.503C211.711 142.71 211.679 143.014 211.618 143.395C211.498 144.157 211.267 145.22 210.829 146.419C209.952 148.816 208.251 151.742 204.942 153.897L211.749 142.194ZM211.749 142.194L211.749 142.194M211.749 142.194L211.749 142.194M211.749 142.194L211.749 142.194M211.749 142.194L211.749 142.194M211.749 142.194L211.75 142.168M211.749 142.194L211.75 142.168M211.75 142.168L211.753 142.142M211.75 142.168L211.753 142.142M211.753 142.142C211.792 141.857 211.772 141.59 211.718 141.377C211.674 141.202 211.614 141.092 211.569 141.034C211.513 141.094 211.42 141.228 211.317 141.501L211.317 141.501L211.316 141.503C210.704 143.104 209.447 144.902 208.067 146.576C206.68 148.259 205.139 149.853 203.925 151.048L203.925 151.048C201.806 153.132 199.007 154.612 196.483 155.598C193.96 156.584 191.667 157.094 190.527 157.213L190.477 157.218L190.427 157.213C189.968 157.164 189.784 157.421 189.752 157.561C189.751 157.567 189.75 157.572 189.749 157.577C189.779 157.575 189.826 157.568 189.892 157.547L189.986 157.518M211.753 142.142L189.986 157.518M189.986 157.518L190.085 157.528M189.986 157.518L190.085 157.528M190.085 157.528C192.76 157.816 198.739 157.932 204.942 153.897L190.085 157.528ZM189.748 157.621C189.748 157.621 189.748 157.619 189.747 157.616C189.747 157.619 189.748 157.621 189.748 157.621ZM189.705 157.575C189.702 157.573 189.7 157.572 189.7 157.573C189.7 157.573 189.701 157.574 189.705 157.575Z" fill="url(#paint1_linear_2188_9311)" stroke="#110545" stroke-width="0.948509"/>
<path d="M195.703 100.735L195.703 100.735C185.886 94.0188 171.084 98.315 162.68 110.609C154.277 122.903 155.651 138.246 165.468 144.968C175.286 151.674 190.093 147.383 198.491 135.088L198.491 135.088C206.901 122.795 205.521 107.446 195.703 100.735ZM167.013 142.708L167.013 142.708C157.979 136.532 156.92 122.65 164.366 111.762C171.811 100.873 185.131 96.8093 194.165 102.985C203.194 109.155 204.257 123.042 196.812 133.931C189.372 144.821 176.047 148.878 167.013 142.708Z" fill="url(#paint2_linear_2188_9311)" stroke="#110545" stroke-width="0.948509"/>
<path d="M98.144 161.831L98.1438 161.831C94.615 159.417 92.8961 155.168 92.8983 150.331C92.9006 145.492 94.6203 140.014 98.0323 135.026C101.442 130.035 105.922 126.445 110.429 124.686C114.934 122.928 119.517 122.987 123.046 125.398C126.578 127.809 128.299 132.057 128.297 136.894C128.296 141.733 126.576 147.213 123.163 152.203C119.751 157.194 115.27 160.784 110.761 162.543C106.256 164.3 101.673 164.241 98.144 161.831ZM130.381 135.706C130.382 130.245 128.445 125.625 124.657 123.034L124.657 123.034C120.873 120.447 115.866 120.321 110.779 122.306C105.694 124.291 100.581 128.37 96.6703 134.091C92.7597 139.811 90.8164 146.057 90.8146 151.516C90.8129 156.977 92.749 161.599 96.5335 164.189C100.321 166.776 105.329 166.904 110.417 164.919C115.502 162.936 120.615 158.857 124.526 153.133C128.437 147.41 130.38 141.164 130.381 135.706Z" fill="url(#paint3_linear_2188_9311)" stroke="#110545" stroke-width="0.948509"/>
<path opacity="0.5" d="M170.441 122.032L170.441 122.032C167.489 125.496 166.63 127.917 166.285 129.56C166.203 129.949 166.152 130.29 166.108 130.576L166.103 130.611C166.057 130.913 166.022 131.133 165.973 131.309C165.926 131.48 165.876 131.567 165.827 131.621C165.782 131.67 165.706 131.725 165.539 131.769L170.441 122.032ZM170.441 122.032C172.569 119.536 176.399 117.434 179.868 115.65M170.441 122.032L179.868 115.65M179.868 115.65C180.333 115.41 180.792 115.177 181.241 114.949M179.868 115.65L181.241 114.949M181.241 114.949C182.484 114.316 183.647 113.724 184.649 113.162M181.241 114.949L184.649 113.162M184.649 113.162C186.031 112.386 187.015 111.713 187.468 111.133L184.649 113.162ZM187.468 111.133C188.221 110.167 188.282 109.469 188.173 109.006C188.069 108.568 187.791 108.244 187.563 108.044C181.104 106.445 173.255 109.753 168.416 116.831C165.287 121.409 164.094 126.6 164.679 131.168C164.761 131.433 164.868 131.61 164.986 131.705C165.082 131.783 165.235 131.848 165.538 131.769L187.468 111.133Z" fill="white" stroke="#110545" stroke-width="0.948509"/>
<path opacity="0.5" d="M103.595 144.393L103.595 144.393C101.11 147.459 100.379 149.598 100.083 151.05C100.013 151.392 99.9677 151.693 99.93 151.945L99.9253 151.976C99.8854 152.243 99.8554 152.434 99.8144 152.587C99.7746 152.736 99.7346 152.805 99.7006 152.844C99.6723 152.877 99.6216 152.918 99.4955 152.954C99.2688 153.017 99.1763 152.965 99.1221 152.919C99.0412 152.85 98.9567 152.711 98.8913 152.484C98.429 148.479 99.4458 143.917 102.068 139.888C106.128 133.661 112.648 130.748 117.965 132.092C118.144 132.262 118.357 132.53 118.437 132.893C118.524 133.287 118.474 133.891 117.85 134.733L103.595 144.393ZM103.595 144.393C105.392 142.177 108.61 140.305 111.511 138.721M103.595 144.393L111.511 138.721M111.511 138.721C111.901 138.509 112.285 138.301 112.66 138.098M111.511 138.721L112.66 138.098M112.66 138.098C113.699 137.537 114.671 137.011 115.508 136.513M112.66 138.098L115.508 136.513M115.508 136.513C116.664 135.824 117.477 135.235 117.85 134.733L115.508 136.513Z" fill="white" stroke="#110545" stroke-width="0.948509"/>
<path d="M137.036 132.752L137.032 132.744L137.029 132.737L136.998 132.678C136.971 132.626 136.93 132.548 136.876 132.449C136.769 132.25 136.61 131.963 136.405 131.614C135.994 130.915 135.402 129.972 134.676 128.991C133.949 128.008 133.093 126.997 132.157 126.157C131.739 125.783 131.311 125.448 130.875 125.164C130.977 125.322 131.081 125.49 131.186 125.669C131.921 126.92 132.719 128.698 133.028 130.871C133.181 130.912 133.378 130.977 133.62 131.077C134.233 131.33 135.14 131.812 136.377 132.73C136.668 132.946 136.896 133.091 137.07 133.183C137.117 133.208 137.158 133.228 137.194 133.244C137.181 133.179 137.161 133.106 137.136 133.026C137.11 132.942 137.082 132.868 137.061 132.814C137.05 132.787 137.042 132.766 137.036 132.752ZM137.213 133.461C137.213 133.461 137.214 133.46 137.214 133.458L137.213 133.461Z" fill="url(#paint4_linear_2188_9311)" stroke="#110545" stroke-width="0.948509"/>
<path d="M205.435 108.971C206.453 111.532 207.382 115.201 207.091 119.708C207.114 119.719 207.138 119.731 207.163 119.743C207.415 119.863 207.767 120.053 208.187 120.334C208.835 120.767 209.644 121.418 210.494 122.368C210.496 122.074 210.489 121.724 210.464 121.317C210.372 119.836 210.042 117.606 209.078 114.653C208.12 111.729 206.386 108.978 204.94 107.188C204.656 106.836 204.387 106.527 204.141 106.263C204.526 106.939 204.989 107.849 205.435 108.971ZM202.953 105.241C202.949 105.24 202.947 105.24 202.947 105.24C202.947 105.24 202.949 105.241 202.953 105.241Z" fill="url(#paint5_linear_2188_9311)" stroke="#110545" stroke-width="0.948509"/>
<path d="M166.985 115.117C175.504 104.88 189.119 101.737 197.366 108.608C198.09 109.209 198.734 109.855 199.313 110.54C198.375 108.18 196.926 106.11 194.975 104.476C187.279 98.0645 174.28 100.767 165.907 110.866C159.976 118.025 158.119 126.834 160.307 133.617C160.031 127.553 162.253 120.781 166.985 115.117Z" fill="#110545" stroke="#110545" stroke-width="0.931025"/>
<path d="M97.6316 141.957C100.302 136.622 104.353 132.185 108.754 129.339C113.147 126.499 117.947 125.21 122.09 126.287C122.782 126.466 123.421 126.701 124.017 126.984C122.835 125.673 121.307 124.727 119.455 124.24C115.653 123.252 111.128 124.397 106.865 127.145C102.609 129.889 98.6695 134.198 96.0635 139.425C92.402 146.774 92.4333 153.795 95.3292 157.981C94.0304 153.552 94.7078 147.773 97.6316 141.957Z" fill="#110545" stroke="#110545" stroke-width="0.931025"/>
<path d="M139.391 178.586C144.922 182.519 155.462 181.067 164.732 175.094" stroke="#110545" stroke-width="2.37127" stroke-linecap="round"/>
<path d="M201.973 80.6177C191.958 77.1175 182.915 80.4746 177.08 83.6992" stroke="#110545" stroke-width="2.37127" stroke-linecap="round"/>
<path d="M111.61 108.762C102.39 108.896 96.0107 114.338 92.2109 118.713" stroke="#110545" stroke-width="2.37127" stroke-linecap="round"/>
<path d="M232.977 95.6026L232.965 95.5895L232.954 95.576C232.739 95.3134 232.518 95.0345 232.287 94.7444C231.398 93.6253 230.377 92.3404 229.112 91.188C227.537 89.7527 225.667 88.6079 223.385 88.3605C219.368 87.925 216.521 88.4714 214.886 88.9794L106.249 126.063C103.274 127.078 101.153 129.721 100.808 132.846L93.4255 199.584C93.2955 201.286 93.3195 204.208 94.0517 206.957C94.7908 209.732 96.1914 212.128 98.6616 213.121C100.66 213.925 103.979 214.56 107.723 215.073C111.441 215.583 115.482 215.961 118.877 216.279L118.793 217.176L118.877 216.279L119.3 216.318C121.819 216.554 124.315 215.651 126.068 213.842L131.412 208.329C131.934 207.791 132.535 207.276 133.251 206.887C136.587 205.077 141.711 203.805 150.12 202.716C158.555 201.624 170.408 200.705 187.282 199.661C188.494 199.586 189.729 199.735 190.89 200.102L224.73 210.792C225.713 211.103 226.748 211.223 227.776 211.146L240.422 210.202C241.514 210.043 242.513 209.332 243.433 207.908C244.367 206.462 245.157 204.371 245.822 201.674C247.15 196.287 247.918 188.748 248.504 179.798L248.505 179.775L248.508 179.753L254.951 124.519C255.218 122.229 254.498 119.933 252.97 118.206L232.977 95.6026Z" fill="white" stroke="#110545" stroke-width="1.80219"/>
<path d="M255.07 123.353C255.227 121.851 254.748 120.351 253.75 119.217L233.05 95.7107C230.979 93.3581 227.099 94.5886 226.762 97.7051L217.057 187.427C216.898 188.894 217.65 190.31 218.954 191L239.394 201.823C242.779 203.615 246.903 201.417 247.302 197.607L255.07 123.353Z" fill="white" stroke="#110545" stroke-width="1.80219"/>
<path d="M225.496 97.6198C226.153 91.7244 220.466 87.141 214.845 89.036L105.936 125.752C102.937 126.763 100.801 129.426 100.463 132.573L93.3715 198.76C92.8048 204.05 97.3981 208.443 102.657 207.642L208.988 191.438C212.616 190.885 215.42 187.966 215.827 184.32L225.496 97.6198Z" fill="white" stroke="#110545" stroke-width="1.80219"/>
<path d="M238.568 201.111C235.652 200.358 219.554 192.415 218.024 190.223C216.154 187.544 216.932 174.394 217.144 166.612C214.48 179.835 216.017 187.375 209.358 189.813C206.97 190.688 176.612 196.188 170.434 196.849C164.256 197.509 103.099 207.43 98.7314 206.926C95.2372 206.524 93.7234 202.842 93.4033 201.052C93.3103 201.648 93.2603 203.482 93.8044 206.05C94.3485 208.618 95.7494 210.501 96.3819 211.122C96.7601 210.681 97.8913 209.67 99.3906 209.155C101.265 208.511 156.699 198.667 164.574 198.582C172.448 198.497 208.86 192.933 231.424 199.794C236.445 201.321 238.547 203.87 243.347 206.34L245.291 204.419C245.791 203.074 246.32 200.614 244.437 201.53C242.083 202.675 241.484 201.865 238.568 201.111Z" fill="#110545"/>
<path d="M142.846 178.168C148.377 182.101 158.917 180.649 168.187 174.676" stroke="#110545" stroke-width="2.37127" stroke-linecap="round"/>
<path d="M241.312 210.172L231.157 203.277C231.157 203.277 205.928 195.01 170.157 199.851C134.385 204.698 105.625 210.283 105.625 210.283C105.625 210.283 97.4827 210.723 98.8002 213.94L127.749 221.126C127.749 221.126 125.967 216.079 131.557 211.149C137.147 206.219 147.016 203.204 172.897 203.574C198.778 203.937 218.525 209.172 225.879 211.855L241.312 210.172Z" fill="#110545"/>
<path d="M192.79 95.7868C190.251 93.8626 188.109 91.52 183.064 91.2146C178.019 90.9092 134.405 106.105 130.149 109.876C127.111 112.569 126.102 116.337 125.258 118.745" stroke="#110545" stroke-width="1.80219" stroke-linecap="round"/>
<path d="M136.271 220.22L136.257 220.227L136.242 220.233L136.242 220.233L136.242 220.233L136.242 220.233L136.241 220.233L136.241 220.233L136.232 220.237C136.223 220.24 136.21 220.246 136.192 220.254C136.157 220.27 136.104 220.294 136.04 220.326C135.948 220.372 135.834 220.433 135.712 220.508C136.406 220.346 137.35 220.148 138.553 219.943C141.432 219.453 145.79 218.924 151.728 218.765C162.703 218.465 186.638 219.551 216.197 229.677L224.386 230.128C224.353 230.115 224.319 230.101 224.285 230.086C222.627 229.403 220.176 228.448 217.006 227.359C210.665 225.183 201.452 222.476 189.969 220.362C178.49 218.248 166.898 217.316 157.245 217.365C152.419 217.389 148.084 217.659 144.494 218.148C140.894 218.638 138.08 219.343 136.271 220.22Z" fill="white" stroke="#110545" stroke-width="0.948509"/>
<path d="M224.121 113.841C224.346 111.715 224.591 108.212 224.743 102.834C224.957 95.3088 224.229 93.6857 222.658 92.1102C222.298 91.7489 221.997 91.4982 221.5 91.1436L220.188 92.2738C218.395 95.7809 214.815 103.036 214.836 104C214.856 104.964 214.602 129.786 214.555 133.108C218.145 134.435 223.84 136.994 224.658 137.208C229.541 138.49 230.137 118.953 231.612 118.223C232.627 116.562 234.659 113.021 234.663 112.138C234.667 111.034 231.202 95.9621 230.474 95.7365C229.745 95.5108 228.138 96.0986 227.63 97.6801C227.099 99.3335 225.141 107.899 224.121 113.841Z" fill="white"/>
<path d="M218.454 186.251L221.66 143.196C221.084 142.706 220.926 142.507 220.41 142.224C217.659 161.963 218.175 167.675 212.769 183.076L212.615 178.511L214.568 137.109L219.486 128.301L226.487 129.103L225.7 185.882L218.454 186.251Z" fill="white"/>
<path d="M219.605 184.179C219.426 181.107 219.566 173.774 219.658 170.491L219.233 169.055C218.321 172.797 216.491 180.387 216.46 180.812C216.422 181.344 215.81 186.539 216.083 187.239C216.301 187.8 217.585 190.484 218.2 191.756L227.935 194.736C223.723 192.597 222.303 191.715 220.897 190.307C220.045 189.455 219.828 188.019 219.605 184.179Z" fill="#110545"/>
<path d="M215.661 88.7809C218.341 88.6162 223.986 89.5783 225.133 94.744C225.968 98.5058 226.215 100.394 226.239 101.209C226.22 101.386 226.205 101.554 226.192 101.714C226.226 101.667 226.248 101.513 226.239 101.209C226.524 98.5364 227.544 94.1056 229.786 94.4224C231.689 94.6913 232.544 95.1343 232.849 95.437C232.896 95.5062 232.94 95.5729 232.983 95.6368C232.969 95.5829 232.927 95.5146 232.849 95.437C231.616 93.6253 228.776 90.0652 226.227 88.8451C223.582 87.5784 218.081 88.2745 215.661 88.7809Z" fill="#110545"/>
<path d="M237.785 101.938L236.258 110.959" stroke="#110545" stroke-width="1.35165" stroke-linecap="round"/>
<path d="M243.648 108.172L241.421 121.329" stroke="#110545" stroke-width="1.35165" stroke-linecap="round"/>
<path d="M249.283 114.342L247.756 123.363" stroke="#110545" stroke-width="1.35165" stroke-linecap="round"/>
<path d="M221.596 115.725C219.554 115.418 217.716 115.197 215.538 115.346C213.468 115.487 211.064 115.963 207.882 117.048L209.318 130.614C209.49 130.569 209.674 130.52 209.868 130.467C212.029 129.883 215.521 128.939 219.738 129.993C222.968 130.8 225.618 132.862 228.058 134.761L228.11 134.801C235.547 140.589 245.681 150.439 251.756 156.826L252.881 146C250.477 143.268 248.016 140.224 245.537 137.157C245.417 137.008 245.296 136.86 245.176 136.711C242.503 133.404 239.808 130.085 237.118 127.083C234.426 124.079 231.756 121.412 229.139 119.406C226.516 117.395 223.994 116.085 221.596 115.725Z" stroke="#110545" stroke-width="1.35165" stroke-linecap="round"/>
<path d="M254.313 150.679C254.313 150.679 241.795 135.109 231.625 125.174C231.625 125.174 224.417 116.479 215.106 118.562L215.31 125.312C215.31 125.312 221.796 124.032 230.46 131.639C230.46 131.639 230.55 125.582 237.4 133.406C244.255 141.231 250.805 148.61 254.08 152.787L254.307 150.679L254.313 150.679Z" fill="#110545"/>
<path d="M271.9 180.678C260.491 162.388 246.565 153.333 228.177 145.058L224.763 146.805L224.111 152.188C225.93 153.611 228.16 155.348 230.621 157.265C241.363 165.629 256.509 177.423 261.062 181.536C265.486 185.532 267.611 187.499 268.444 188.293C269.884 187.83 271.252 187.227 272.866 186.394C272.91 185.4 272.822 184.299 272.651 183.289C272.452 182.107 272.158 181.156 271.9 180.678Z" fill="white" stroke="#110545" stroke-width="1.80219"/>
<path d="M228.225 145.486L227.824 151.902" stroke="#110545" stroke-width="1.80219"/>
<mask id="path-51-inside-1_2188_9311" fill="white">
<path d="M222.595 161.4L227.058 159.419L227.061 159.421C230.855 161.12 242.225 166.212 251.259 172.934C260.072 179.493 268.157 188.766 271.249 192.863C271.92 194.074 272.465 196.978 272.752 201.122C270.67 203.617 268.51 204.256 265.356 204.719C265.127 204.474 263.258 202.709 257.616 197.612C251.974 192.515 231.243 176.684 221.663 169.181L222.595 161.4Z"/>
</mask>
<path d="M222.595 161.4L227.058 159.419L227.061 159.421C230.855 161.12 242.225 166.212 251.259 172.934C260.072 179.493 268.157 188.766 271.249 192.863C271.92 194.074 272.465 196.978 272.752 201.122C270.67 203.617 268.51 204.256 265.356 204.719C265.127 204.474 263.258 202.709 257.616 197.612C251.974 192.515 231.243 176.684 221.663 169.181L222.595 161.4Z" fill="white"/>
<path d="M227.058 159.419L226.327 157.772L227.061 157.446L227.794 157.774L227.058 159.419ZM222.595 161.4L220.806 161.185L220.928 160.168L221.864 159.753L222.595 161.4ZM221.663 169.181L220.552 170.6L219.753 169.974L219.873 168.966L221.663 169.181ZM265.356 204.719L265.618 206.502L264.684 206.639L264.039 205.949L265.356 204.719ZM272.752 201.122L274.549 200.998L274.599 201.72L274.135 202.277L272.752 201.122ZM271.249 192.863L272.687 191.778L272.763 191.879L272.825 191.989L271.249 192.863ZM251.259 172.934L250.183 174.38L250.183 174.38L251.259 172.934ZM227.061 159.421L227.797 157.776L227.798 157.776L227.061 159.421ZM227.789 161.067L223.326 163.047L221.864 159.753L226.327 157.772L227.789 161.067ZM224.385 161.614L223.452 169.395L219.873 168.966L220.806 161.185L224.385 161.614ZM222.774 167.762C232.282 175.208 253.119 191.121 258.824 196.274L256.408 198.949C250.828 193.909 230.204 178.159 220.552 170.6L222.774 167.762ZM258.824 196.274C264.427 201.336 266.377 203.171 266.673 203.489L264.039 205.949C264.043 205.954 264.017 205.926 263.933 205.845C263.857 205.771 263.749 205.668 263.605 205.531C263.317 205.258 262.891 204.86 262.293 204.309C261.099 203.206 259.226 201.495 256.408 198.949L258.824 196.274ZM265.094 202.936C266.633 202.71 267.763 202.462 268.725 202.035C269.649 201.626 270.491 201.019 271.368 199.967L274.135 202.277C272.931 203.72 271.652 204.68 270.186 205.33C268.76 205.962 267.233 206.265 265.618 206.502L265.094 202.936ZM270.954 201.246C270.813 199.218 270.612 197.527 270.372 196.218C270.122 194.857 269.858 194.072 269.672 193.737L272.825 191.989C273.31 192.865 273.655 194.138 273.917 195.567C274.189 197.049 274.403 198.882 274.549 200.998L270.954 201.246ZM269.81 193.948C266.786 189.94 258.818 180.805 250.183 174.38L252.335 171.488C261.327 178.18 269.529 187.592 272.687 191.778L269.81 193.948ZM250.183 174.38C241.327 167.791 230.129 162.769 226.325 161.065L227.798 157.776C231.582 159.471 243.122 164.633 252.335 171.488L250.183 174.38ZM226.325 161.066L226.322 161.064L227.794 157.774L227.797 157.776L226.325 161.066Z" fill="#110545" mask="url(#path-51-inside-1_2188_9311)"/>
<path d="M226.961 160.906L225.976 168.77" stroke="#110545" stroke-width="1.80219"/>
<path d="M226.421 166.511L222.437 168.69C228.94 173.808 243.355 185.113 248.996 189.392C254.637 193.671 262.826 200.711 266.216 203.696L271.18 201.24C252.853 181.889 243.687 175.759 226.421 166.511Z" fill="#110545"/>
<path d="M227.864 150.361L224.464 152.453C232.026 158.254 248.477 171.053 253.79 175.839C259.102 180.625 265.745 186.117 268.403 188.265L272.667 186.272C255.798 166.758 246.579 160.364 227.864 150.361Z" fill="#110545"/>
<path d="M160.483 139.255L157.353 128.674C149.581 129.596 142.647 130.917 135.792 134.147L136.433 142.847C142.206 140.498 150.997 138.856 160.483 139.255Z" fill="white" stroke="#110545" stroke-width="1.80219"/>
<path d="M173.944 149.978L173.974 149.993L174.004 150.01C184.496 156.153 199.255 150.983 206.867 137.981C214.478 124.979 211.762 109.578 201.27 103.436C197.459 101.205 193.648 99.3393 189.052 97.8153C185.309 98.3166 181.428 100.544 177.825 103.762C174.172 107.025 170.882 111.237 168.407 115.465C165.916 119.721 164.659 125.625 164.472 131.458C164.29 137.15 165.131 142.632 166.719 146.291C169.673 147.893 170.706 148.397 173.441 149.733C173.602 149.812 173.77 149.893 173.944 149.978Z" fill="white" stroke="#110545" stroke-width="1.80219"/>
<path d="M178.593 149.214L182.507 152.627" stroke="#110545" stroke-width="1.35165" stroke-linecap="round"/>
<path d="M175.922 149.502L178.686 151.94" stroke="#110545" stroke-width="1.35165" stroke-linecap="round"/>
<path d="M181.675 149.054L185.911 152.5" stroke="#110545" stroke-width="1.35165" stroke-linecap="round"/>
<path d="M184.862 148.113L189.426 151.826" stroke="#110545" stroke-width="1.35165" stroke-linecap="round"/>
<path d="M188.188 146.661L193.085 150.68" stroke="#110545" stroke-width="1.35165" stroke-linecap="round"/>
<path d="M191.92 144.466L196.743 148.573" stroke="#110545" stroke-width="1.35165" stroke-linecap="round"/>
<path d="M195.389 141.959L200.299 145.962" stroke="#110545" stroke-width="1.35165" stroke-linecap="round"/>
<path d="M198.667 138.349L203.666 142.239" stroke="#110545" stroke-width="1.35165" stroke-linecap="round"/>
<path d="M201.303 134.244L206.645 137.905" stroke="#110545" stroke-width="1.35165" stroke-linecap="round"/>
<path d="M202.934 129.851L208.923 133.803" stroke="#110545" stroke-width="1.35165" stroke-linecap="round"/>
<path d="M204.354 125.398L210.405 129.261" stroke="#110545" stroke-width="1.35165" stroke-linecap="round"/>
<path d="M206.771 121.587L211.147 124.552" stroke="#110545" stroke-width="1.35165" stroke-linecap="round"/>
<path d="M208.36 117.941L210.787 119.586" stroke="#110545" stroke-width="1.35165" stroke-linecap="round"/>
<path d="M161.702 112.116C154.09 125.118 156.806 140.518 167.299 146.661C177.791 152.803 192.55 147.633 200.162 134.631C207.773 121.629 205.057 106.229 194.565 100.086C184.072 93.9439 169.313 99.114 161.702 112.116Z" fill="white" stroke="#110545" stroke-width="1.80219"/>
<path d="M164.76 113.905C158.368 124.823 160.49 137.662 169.106 142.706C177.722 147.75 189.956 143.315 196.348 132.397C202.74 121.478 200.618 108.639 192.002 103.595C183.386 98.5514 171.152 102.986 164.76 113.905Z" fill="white" stroke="#110545" stroke-width="1.35165"/>
<path d="M128.531 126.203L128.512 126.192L128.494 126.18C127.83 125.746 127.261 125.371 126.739 125.027C125.294 124.075 124.212 123.363 122.5 122.309C118.663 122.251 114.2 123.88 109.982 126.701C105.69 129.571 101.74 133.616 99.0675 138.166C96.6166 142.338 95.127 147.508 94.6557 152.506C94.193 157.412 94.721 162.051 96.1915 165.357C98.3985 166.975 100.083 168.036 102.96 169.726C111.998 175.036 125.247 169.978 132.423 157.763C139.6 145.548 137.569 131.513 128.531 126.203Z" fill="white" stroke="#110545" stroke-width="1.80219"/>
<path d="M103.996 168.152L108.244 171.858" stroke="#110545" stroke-width="1.35165" stroke-linecap="round"/>
<path d="M101.492 168.596C101.305 168.431 101.287 168.146 101.452 167.96C101.617 167.773 101.901 167.755 102.088 167.92L101.492 168.596ZM102.088 167.92L105.554 170.977L104.958 171.653L101.492 168.596L102.088 167.92Z" fill="#110545"/>
<path d="M107.476 168.424L111.44 171.65" stroke="#110545" stroke-width="1.35165" stroke-linecap="round"/>
<path d="M110.788 167.911L114.932 171.282" stroke="#110545" stroke-width="1.35165" stroke-linecap="round"/>
<path d="M114.117 166.461L118.395 169.973" stroke="#110545" stroke-width="1.35165" stroke-linecap="round"/>
<path d="M117.848 164.265L122.671 168.372" stroke="#110545" stroke-width="1.35165" stroke-linecap="round"/>
<path d="M121.317 161.758L126.227 165.761" stroke="#110545" stroke-width="1.35165" stroke-linecap="round"/>
<path d="M124.595 158.148L129.594 162.038" stroke="#110545" stroke-width="1.35165" stroke-linecap="round"/>
<path d="M127.232 154.043L132.575 157.704" stroke="#110545" stroke-width="1.35165" stroke-linecap="round"/>
<path d="M129.562 150.114L134.509 153.378" stroke="#110545" stroke-width="1.35165" stroke-linecap="round"/>
<path d="M132.025 146.309L136.254 149.01" stroke="#110545" stroke-width="1.35165" stroke-linecap="round"/>
<path d="M133.927 142.218L136.943 144.262" stroke="#110545" stroke-width="1.35165" stroke-linecap="round"/>
<path d="M93.2973 134.411C86.1208 146.626 88.1521 160.661 97.1901 165.971C106.228 171.281 119.477 166.223 126.653 154.008C133.83 141.793 131.798 127.758 122.76 122.448C113.723 117.138 100.474 122.196 93.2973 134.411Z" fill="white" stroke="#110545" stroke-width="1.80219"/>
<path d="M96.0204 136.01C93.0426 141.079 91.9127 146.558 92.4651 151.303C93.0174 156.048 95.2412 160.019 98.9351 162.189C102.629 164.359 107.179 164.369 111.593 162.541C116.007 160.714 120.243 157.06 123.221 151.991C126.199 146.922 127.329 141.443 126.777 136.698C126.224 131.953 124 127.983 120.307 125.812C116.613 123.642 112.062 123.632 107.648 125.46C103.234 127.288 98.9982 130.942 96.0204 136.01Z" fill="white" stroke="#110545" stroke-width="1.35165"/>
<path fill-rule="evenodd" clip-rule="evenodd" d="M103.773 147.28C105.502 144.332 110.229 140.643 117.11 141.901L116.798 144.796C110.767 143.091 106.845 146.371 104.682 148.38L103.773 147.28Z" fill="#110545"/>
<path fill-rule="evenodd" clip-rule="evenodd" d="M173.768 127.192C175.718 123.869 181.504 119.738 188.74 121.784L188.45 124.393C181.652 122.471 177.231 126.168 174.793 128.433L173.768 127.192Z" fill="#110545"/>
<defs>
<filter id="filter0_f_2188_9311" x="209.885" y="93.5869" width="22.7218" height="88.6778" filterUnits="userSpaceOnUse" color-interpolation-filters="sRGB">
<feFlood flood-opacity="0" result="BackgroundImageFix"/>
<feBlend mode="normal" in="SourceGraphic" in2="BackgroundImageFix" result="shape"/>
<feGaussianBlur stdDeviation="2.3218" result="effect1_foregroundBlur_2188_9311"/>
</filter>
<filter id="filter1_f_2188_9311" x="92.6933" y="164.263" width="122.83" height="44.8341" filterUnits="userSpaceOnUse" color-interpolation-filters="sRGB">
<feFlood flood-opacity="0" result="BackgroundImageFix"/>
<feBlend mode="normal" in="SourceGraphic" in2="BackgroundImageFix" result="shape"/>
<feGaussianBlur stdDeviation="2.3218" result="effect1_foregroundBlur_2188_9311"/>
</filter>
<linearGradient id="paint0_linear_2188_9311" x1="163.006" y1="199.657" x2="157.209" y2="179.034" gradientUnits="userSpaceOnUse">
<stop stop-color="white"/>
<stop offset="1" stop-color="white" stop-opacity="0"/>
</linearGradient>
<linearGradient id="paint1_linear_2188_9311" x1="211.353" y1="150.441" x2="190.282" y2="148.171" gradientUnits="userSpaceOnUse">
<stop stop-color="#A4EEFB"/>
<stop offset="1" stop-color="#808FDB"/>
</linearGradient>
<linearGradient id="paint2_linear_2188_9311" x1="203.857" y1="125.354" x2="157.317" y2="120.34" gradientUnits="userSpaceOnUse">
<stop stop-color="#7729F6"/>
<stop offset="1" stop-color="#9EFFEE"/>
</linearGradient>
<linearGradient id="paint3_linear_2188_9311" x1="129.922" y1="145.693" x2="91.2744" y2="141.529" gradientUnits="userSpaceOnUse">
<stop stop-color="#7729F6"/>
<stop offset="1" stop-color="#9EFFEE"/>
</linearGradient>
<linearGradient id="paint4_linear_2188_9311" x1="138.135" y1="129.366" x2="128.864" y2="128.367" gradientUnits="userSpaceOnUse">
<stop stop-color="#6BD4E6"/>
<stop offset="1" stop-color="#80C4DB"/>
</linearGradient>
<linearGradient id="paint5_linear_2188_9311" x1="211.841" y1="114.703" x2="201.901" y2="113.632" gradientUnits="userSpaceOnUse">
<stop stop-color="#C0F6FF"/>
<stop offset="1" stop-color="#8094DB"/>
</linearGradient>
</defs>
</svg>
