<svg width="915" height="242" viewBox="0 0 915 242" fill="none" xmlns="http://www.w3.org/2000/svg">
<path d="M5.63969 14.9H19.9917L35.1237 42.59L50.0997 14.9H64.1397V69.5H50.0997V38.222L38.7897 58.97H30.9897L19.6797 38.222V69.5H5.63969V14.9ZM92.9723 70.514C90.0603 70.514 87.3303 70.098 84.7823 69.266C82.2343 68.382 79.9983 67.056 78.0743 65.288C76.1503 63.52 74.6423 61.31 73.5503 58.658C72.4583 55.954 71.9123 52.808 71.9123 49.22V47.66C71.9123 44.28 72.4583 41.316 73.5503 38.768C74.6423 36.22 76.1503 34.088 78.0743 32.372C79.9983 30.656 82.2343 29.356 84.7823 28.472C87.3303 27.588 90.0603 27.146 92.9723 27.146C95.8843 27.146 98.6143 27.588 101.162 28.472C103.71 29.356 105.946 30.656 107.87 32.372C109.794 34.088 111.302 36.22 112.394 38.768C113.486 41.316 114.032 44.28 114.032 47.66V49.22C114.032 52.756 113.486 55.876 112.394 58.58C111.302 61.232 109.794 63.442 107.87 65.21C105.946 66.978 103.71 68.304 101.162 69.188C98.6143 70.072 95.8843 70.514 92.9723 70.514ZM92.9723 60.53C95.7803 60.53 97.9383 59.516 99.4463 57.488C100.954 55.46 101.708 52.704 101.708 49.22V47.66C101.708 44.54 100.954 42.018 99.4463 40.094C97.9383 38.118 95.7803 37.13 92.9723 37.13C90.1643 37.13 88.0063 38.118 86.4983 40.094C84.9903 42.018 84.2363 44.54 84.2363 47.66V49.22C84.2363 52.808 84.9903 55.59 86.4983 57.566C88.0063 59.542 90.1643 60.53 92.9723 60.53ZM140.132 70.514C137.116 70.514 134.308 70.02 131.708 69.032C129.16 67.992 126.95 66.484 125.078 64.508C123.206 62.48 121.724 59.984 120.632 57.02C119.592 54.004 119.072 50.494 119.072 46.49V44.93C119.072 40.302 119.436 36.168 120.164 32.528C120.944 28.888 122.192 25.794 123.908 23.246C125.676 20.646 127.964 18.644 130.772 17.24C133.58 15.784 137.064 14.952 141.224 14.744C142.836 14.692 144.448 14.64 146.06 14.588C147.724 14.536 149.284 14.458 150.74 14.354C152.248 14.25 153.626 14.094 154.874 13.886C156.122 13.678 157.188 13.366 158.072 12.95V23.246C157.656 23.506 157.058 23.74 156.278 23.948C155.55 24.104 154.562 24.26 153.314 24.416C152.066 24.572 150.558 24.702 148.79 24.806C147.022 24.91 144.89 24.988 142.394 25.04C140.106 25.04 138.13 25.274 136.466 25.742C134.854 26.21 133.476 26.964 132.332 28.004C131.24 28.992 130.382 30.292 129.758 31.904C129.134 33.464 128.692 35.362 128.432 37.598C129.576 35.518 131.37 33.776 133.814 32.372C136.258 30.968 139.534 30.266 143.642 30.266C146.19 30.266 148.53 30.656 150.662 31.436C152.846 32.164 154.718 33.282 156.278 34.79C157.838 36.246 159.034 38.118 159.866 40.406C160.75 42.642 161.192 45.242 161.192 48.206V49.688C161.192 52.964 160.646 55.902 159.554 58.502C158.462 61.102 156.98 63.286 155.108 65.054C153.236 66.822 151 68.174 148.4 69.11C145.852 70.046 143.096 70.514 140.132 70.514ZM140.132 60.53C142.94 60.53 145.098 59.646 146.606 57.878C148.114 56.058 148.868 53.692 148.868 50.78V49.142C148.868 46.074 148.088 43.708 146.528 42.044C144.968 40.328 142.836 39.47 140.132 39.47C137.48 39.47 135.348 40.302 133.736 41.966C132.176 43.63 131.396 46.022 131.396 49.142V50.468C131.396 53.484 132.228 55.928 133.892 57.8C135.556 59.62 137.636 60.53 140.132 60.53ZM167.468 28.16H179.168V53.12L196.718 28.16H207.248V69.5H195.548V44.54L177.998 69.5H167.468V28.16ZM216.246 70.514C215.83 70.514 215.232 70.488 214.452 70.436C213.724 70.436 213.152 70.384 212.736 70.28V59.828C212.996 59.88 213.386 59.906 213.906 59.906C214.79 59.906 215.57 59.646 216.246 59.126C216.922 58.554 217.494 57.644 217.962 56.396C218.43 55.096 218.768 53.432 218.976 51.404C219.236 49.324 219.366 46.776 219.366 43.76V28.16H253.686V69.5H241.674V37.988H230.598V45.32C230.598 50.468 230.286 54.68 229.662 57.956C229.038 61.232 228.128 63.806 226.932 65.678C225.736 67.55 224.228 68.824 222.408 69.5C220.64 70.176 218.586 70.514 216.246 70.514ZM262.244 28.16H274.256V41.576H282.524C287.932 41.576 292.014 42.72 294.77 45.008C297.526 47.296 298.904 50.806 298.904 55.538C298.904 57.618 298.592 59.516 297.968 61.232C297.396 62.948 296.434 64.43 295.082 65.678C293.782 66.874 292.092 67.81 290.012 68.486C287.984 69.162 285.488 69.5 282.524 69.5H262.244V28.16ZM280.964 60.452C283.096 60.452 284.604 60.062 285.488 59.282C286.424 58.45 286.892 57.202 286.892 55.538C286.892 53.822 286.424 52.574 285.488 51.794C284.604 51.014 283.096 50.624 280.964 50.624H274.256V60.452H280.964ZM304.349 28.16H316.361V43.526H332.117V28.16H344.129V69.5H332.117V53.354H316.361V69.5H304.349V28.16ZM371.457 70.514C368.545 70.514 365.815 70.098 363.267 69.266C360.719 68.382 358.483 67.056 356.559 65.288C354.635 63.52 353.127 61.31 352.035 58.658C350.943 55.954 350.397 52.808 350.397 49.22V47.66C350.397 44.28 350.943 41.316 352.035 38.768C353.127 36.22 354.635 34.088 356.559 32.372C358.483 30.656 360.719 29.356 363.267 28.472C365.815 27.588 368.545 27.146 371.457 27.146C374.369 27.146 377.099 27.588 379.647 28.472C382.195 29.356 384.431 30.656 386.355 32.372C388.279 34.088 389.787 36.22 390.879 38.768C391.971 41.316 392.517 44.28 392.517 47.66V49.22C392.517 52.756 391.971 55.876 390.879 58.58C389.787 61.232 388.279 63.442 386.355 65.21C384.431 66.978 382.195 68.304 379.647 69.188C377.099 70.072 374.369 70.514 371.457 70.514ZM371.457 60.53C374.265 60.53 376.423 59.516 377.931 57.488C379.439 55.46 380.193 52.704 380.193 49.22V47.66C380.193 44.54 379.439 42.018 377.931 40.094C376.423 38.118 374.265 37.13 371.457 37.13C368.649 37.13 366.491 38.118 364.983 40.094C363.475 42.018 362.721 44.54 362.721 47.66V49.22C362.721 52.808 363.475 55.59 364.983 57.566C366.491 59.542 368.649 60.53 371.457 60.53ZM418.616 70.514C415.6 70.514 412.766 70.098 410.114 69.266C407.514 68.382 405.252 67.056 403.328 65.288C401.404 63.52 399.896 61.31 398.804 58.658C397.712 55.954 397.166 52.808 397.166 49.22V47.66C397.166 44.228 397.686 41.238 398.726 38.69C399.818 36.142 401.274 34.01 403.094 32.294C404.966 30.578 407.15 29.304 409.646 28.472C412.194 27.588 414.924 27.146 417.836 27.146C424.648 27.146 429.796 28.914 433.28 32.45C436.764 35.934 438.506 41.004 438.506 47.66V51.95H409.49C409.542 53.562 409.828 54.94 410.348 56.084C410.868 57.176 411.544 58.086 412.376 58.814C413.208 59.542 414.144 60.088 415.184 60.452C416.276 60.764 417.42 60.92 418.616 60.92C420.904 60.92 422.698 60.582 423.998 59.906C425.35 59.178 426.234 58.216 426.65 57.02H437.726C436.894 61.544 434.84 64.924 431.564 67.16C428.288 69.396 423.972 70.514 418.616 70.514ZM418.226 36.662C417.134 36.662 416.068 36.792 415.028 37.052C414.04 37.312 413.13 37.754 412.298 38.378C411.518 38.95 410.868 39.704 410.348 40.64C409.88 41.576 409.62 42.72 409.568 44.072H426.728C426.728 42.616 426.494 41.42 426.026 40.484C425.558 39.548 424.934 38.794 424.154 38.222C423.426 37.65 422.542 37.26 421.502 37.052C420.462 36.792 419.37 36.662 418.226 36.662ZM4.07969 106.16H43.0797V147.5H31.0677V115.988H16.0917V147.5H4.07969V106.16ZM50.8492 106.16H61.9252V111.776C62.4452 110.944 63.0952 110.138 63.8752 109.358C64.7072 108.526 65.6692 107.798 66.7612 107.174C67.8532 106.55 69.0752 106.056 70.4272 105.692C71.7792 105.328 73.2352 105.146 74.7952 105.146C80.6192 105.146 85.0392 106.862 88.0552 110.294C91.0712 113.726 92.5792 118.848 92.5792 125.66V127.22C92.5792 130.756 92.1632 133.85 91.3312 136.502C90.4992 139.154 89.3032 141.364 87.7432 143.132C86.1832 144.9 84.3112 146.252 82.1272 147.188C79.9432 148.072 77.4992 148.514 74.7952 148.514C72.4552 148.514 70.2192 147.994 68.0872 146.954C66.0072 145.862 64.2652 144.302 62.8612 142.274V163.1H50.8492V106.16ZM71.9092 138.608C74.3012 138.608 76.2772 137.646 77.8372 135.722C79.4492 133.798 80.2552 130.964 80.2552 127.22V125.66C80.2552 122.072 79.4752 119.42 77.9152 117.704C76.4072 115.936 74.4052 115.052 71.9092 115.052C69.3612 115.052 67.2032 115.858 65.4352 117.47C63.7192 119.03 62.8612 121.37 62.8612 124.49V128.39C62.8612 131.666 63.7192 134.188 65.4352 135.956C67.2032 137.724 69.3612 138.608 71.9092 138.608ZM98.8375 106.16H110.538V131.12L128.088 106.16H138.618V147.5H126.918V122.54L109.368 147.5H98.8375V106.16ZM147.615 148.514C147.199 148.514 146.601 148.488 145.821 148.436C145.093 148.436 144.521 148.384 144.105 148.28V137.828C144.365 137.88 144.755 137.906 145.275 137.906C146.159 137.906 146.939 137.646 147.615 137.126C148.291 136.554 148.863 135.644 149.331 134.396C149.799 133.096 150.137 131.432 150.345 129.404C150.605 127.324 150.735 124.776 150.735 121.76V106.16H185.055V147.5H173.043V115.988H161.967V123.32C161.967 128.468 161.655 132.68 161.031 135.956C160.407 139.232 159.497 141.806 158.301 143.678C157.105 145.55 155.597 146.824 153.777 147.5C152.009 148.176 149.955 148.514 147.615 148.514ZM212.334 148.514C209.422 148.514 206.692 148.098 204.144 147.266C201.596 146.382 199.36 145.056 197.436 143.288C195.512 141.52 194.004 139.31 192.912 136.658C191.82 133.954 191.274 130.808 191.274 127.22V125.66C191.274 122.28 191.82 119.316 192.912 116.768C194.004 114.22 195.512 112.088 197.436 110.372C199.36 108.656 201.596 107.356 204.144 106.472C206.692 105.588 209.422 105.146 212.334 105.146C215.246 105.146 217.976 105.588 220.524 106.472C223.072 107.356 225.308 108.656 227.232 110.372C229.156 112.088 230.664 114.22 231.756 116.768C232.848 119.316 233.394 122.28 233.394 125.66V127.22C233.394 130.756 232.848 133.876 231.756 136.58C230.664 139.232 229.156 141.442 227.232 143.21C225.308 144.978 223.072 146.304 220.524 147.188C217.976 148.072 215.246 148.514 212.334 148.514ZM212.334 138.53C215.142 138.53 217.3 137.516 218.808 135.488C220.316 133.46 221.07 130.704 221.07 127.22V125.66C221.07 122.54 220.316 120.018 218.808 118.094C217.3 116.118 215.142 115.13 212.334 115.13C209.526 115.13 207.368 116.118 205.86 118.094C204.352 120.018 203.598 122.54 203.598 125.66V127.22C203.598 130.808 204.352 133.59 205.86 135.566C207.368 137.542 209.526 138.53 212.334 138.53ZM248.61 126.206L235.818 106.16H248.454L257.814 121.994H260.154V106.16H272.166V121.994H274.506L284.412 106.16H296.58L283.71 125.348L297.36 147.5H284.1L274.506 130.886H272.166V147.5H260.154V130.886H257.736L247.752 147.5H234.96L248.61 126.206ZM320.431 148.514C317.415 148.514 314.581 148.098 311.929 147.266C309.329 146.382 307.067 145.056 305.143 143.288C303.219 141.52 301.711 139.31 300.619 136.658C299.527 133.954 298.981 130.808 298.981 127.22V125.66C298.981 122.228 299.501 119.238 300.541 116.69C301.633 114.142 303.089 112.01 304.909 110.294C306.781 108.578 308.965 107.304 311.461 106.472C314.009 105.588 316.739 105.146 319.651 105.146C326.463 105.146 331.611 106.914 335.095 110.45C338.579 113.934 340.321 119.004 340.321 125.66V129.95H311.305C311.357 131.562 311.643 132.94 312.163 134.084C312.683 135.176 313.359 136.086 314.191 136.814C315.023 137.542 315.959 138.088 316.999 138.452C318.091 138.764 319.235 138.92 320.431 138.92C322.719 138.92 324.513 138.582 325.813 137.906C327.165 137.178 328.049 136.216 328.465 135.02H339.541C338.709 139.544 336.655 142.924 333.379 145.16C330.103 147.396 325.787 148.514 320.431 148.514ZM320.041 114.662C318.949 114.662 317.883 114.792 316.843 115.052C315.855 115.312 314.945 115.754 314.113 116.378C313.333 116.95 312.683 117.704 312.163 118.64C311.695 119.576 311.435 120.72 311.383 122.072H328.543C328.543 120.616 328.309 119.42 327.841 118.484C327.373 117.548 326.749 116.794 325.969 116.222C325.241 115.65 324.357 115.26 323.317 115.052C322.277 114.792 321.185 114.662 320.041 114.662ZM346.548 106.16H358.56V121.526H374.316V106.16H386.328V147.5H374.316V131.354H358.56V147.5H346.548V106.16ZM394.156 106.16H405.856V131.12L423.406 106.16H433.936V147.5H422.236V122.54L404.686 147.5H394.156V106.16ZM461.653 148.514C458.637 148.514 455.803 148.098 453.151 147.266C450.551 146.382 448.289 145.056 446.365 143.288C444.441 141.52 442.933 139.31 441.841 136.658C440.749 133.954 440.203 130.808 440.203 127.22V125.66C440.203 122.228 440.723 119.238 441.763 116.69C442.855 114.142 444.311 112.01 446.131 110.294C448.003 108.578 450.187 107.304 452.683 106.472C455.231 105.588 457.961 105.146 460.873 105.146C467.685 105.146 472.833 106.914 476.317 110.45C479.801 113.934 481.543 119.004 481.543 125.66V129.95H452.527C452.579 131.562 452.865 132.94 453.385 134.084C453.905 135.176 454.581 136.086 455.413 136.814C456.245 137.542 457.181 138.088 458.221 138.452C459.313 138.764 460.457 138.92 461.653 138.92C463.941 138.92 465.735 138.582 467.035 137.906C468.387 137.178 469.271 136.216 469.687 135.02H480.763C479.931 139.544 477.877 142.924 474.601 145.16C471.325 147.396 467.009 148.514 461.653 148.514ZM461.263 114.662C460.171 114.662 459.105 114.792 458.065 115.052C457.077 115.312 456.167 115.754 455.335 116.378C454.555 116.95 453.905 117.704 453.385 118.64C452.917 119.576 452.657 120.72 452.605 122.072H469.765C469.765 120.616 469.531 119.42 469.063 118.484C468.595 117.548 467.971 116.794 467.191 116.222C466.463 115.65 465.579 115.26 464.539 115.052C463.499 114.792 462.407 114.662 461.263 114.662ZM508.441 148.514C508.025 148.514 507.427 148.488 506.647 148.436C505.919 148.436 505.347 148.384 504.931 148.28V137.828C505.191 137.88 505.581 137.906 506.101 137.906C506.985 137.906 507.765 137.646 508.441 137.126C509.117 136.554 509.689 135.644 510.157 134.396C510.625 133.096 510.963 131.432 511.171 129.404C511.431 127.324 511.561 124.776 511.561 121.76V106.16H545.881V147.5H533.869V115.988H522.793V123.32C522.793 128.468 522.481 132.68 521.857 135.956C521.233 139.232 520.323 141.806 519.127 143.678C517.931 145.55 516.423 146.824 514.603 147.5C512.835 148.176 510.781 148.514 508.441 148.514ZM553.66 106.16H565.672V121.526H568.636C569 118.822 569.754 116.456 570.898 114.428C572.042 112.4 573.472 110.71 575.188 109.358C576.904 107.954 578.88 106.914 581.116 106.238C583.352 105.51 585.77 105.146 588.37 105.146C591.282 105.146 593.96 105.588 596.404 106.472C598.9 107.356 601.058 108.656 602.878 110.372C604.698 112.088 606.102 114.22 607.09 116.768C608.13 119.316 608.65 122.28 608.65 125.66V127.22C608.65 130.756 608.13 133.876 607.09 136.58C606.102 139.232 604.698 141.442 602.878 143.21C601.058 144.978 598.9 146.304 596.404 147.188C593.96 148.072 591.282 148.514 588.37 148.514C585.77 148.514 583.326 148.176 581.038 147.5C578.802 146.772 576.826 145.706 575.11 144.302C573.394 142.898 571.964 141.13 570.82 138.998C569.728 136.814 569 134.266 568.636 131.354H565.672V147.5H553.66V106.16ZM588.37 138.53C590.97 138.53 592.946 137.516 594.298 135.488C595.65 133.46 596.326 130.704 596.326 127.22V125.66C596.326 122.54 595.65 120.018 594.298 118.094C592.946 116.118 590.97 115.13 588.37 115.13C585.77 115.13 583.794 116.118 582.442 118.094C581.09 120.018 580.414 122.54 580.414 125.66V127.22C580.414 130.808 581.09 133.59 582.442 135.566C583.794 137.542 585.77 138.53 588.37 138.53ZM634.792 148.514C631.776 148.514 628.968 148.02 626.368 147.032C623.82 145.992 621.61 144.484 619.738 142.508C617.866 140.48 616.384 137.984 615.292 135.02C614.252 132.004 613.732 128.494 613.732 124.49V122.93C613.732 118.302 614.096 114.168 614.824 110.528C615.604 106.888 616.852 103.794 618.568 101.246C620.336 98.646 622.624 96.644 625.432 95.24C628.24 93.784 631.724 92.952 635.884 92.744C637.496 92.692 639.108 92.64 640.72 92.588C642.384 92.536 643.944 92.458 645.4 92.354C646.908 92.25 648.286 92.094 649.534 91.886C650.782 91.678 651.848 91.366 652.732 90.95V101.246C652.316 101.506 651.718 101.74 650.938 101.948C650.21 102.104 649.222 102.26 647.974 102.416C646.726 102.572 645.218 102.702 643.45 102.806C641.682 102.91 639.55 102.988 637.054 103.04C634.766 103.04 632.79 103.274 631.126 103.742C629.514 104.21 628.136 104.964 626.992 106.004C625.9 106.992 625.042 108.292 624.418 109.904C623.794 111.464 623.352 113.362 623.092 115.598C624.236 113.518 626.03 111.776 628.474 110.372C630.918 108.968 634.194 108.266 638.302 108.266C640.85 108.266 643.19 108.656 645.322 109.436C647.506 110.164 649.378 111.282 650.938 112.79C652.498 114.246 653.694 116.118 654.526 118.406C655.41 120.642 655.852 123.242 655.852 126.206V127.688C655.852 130.964 655.306 133.902 654.214 136.502C653.122 139.102 651.64 141.286 649.768 143.054C647.896 144.822 645.66 146.174 643.06 147.11C640.512 148.046 637.756 148.514 634.792 148.514ZM634.792 138.53C637.6 138.53 639.758 137.646 641.266 135.878C642.774 134.058 643.528 131.692 643.528 128.78V127.142C643.528 124.074 642.748 121.708 641.188 120.044C639.628 118.328 637.496 117.47 634.792 117.47C632.14 117.47 630.008 118.302 628.396 119.966C626.836 121.63 626.056 124.022 626.056 127.142V128.468C626.056 131.484 626.888 133.928 628.552 135.8C630.216 137.62 632.296 138.53 634.792 138.53ZM681.629 148.514C678.717 148.514 675.987 148.098 673.439 147.266C670.891 146.382 668.655 145.056 666.731 143.288C664.807 141.52 663.299 139.31 662.207 136.658C661.115 133.954 660.569 130.808 660.569 127.22V125.66C660.569 122.28 661.115 119.316 662.207 116.768C663.299 114.22 664.807 112.088 666.731 110.372C668.655 108.656 670.891 107.356 673.439 106.472C675.987 105.588 678.717 105.146 681.629 105.146C684.541 105.146 687.271 105.588 689.819 106.472C692.367 107.356 694.603 108.656 696.527 110.372C698.451 112.088 699.959 114.22 701.051 116.768C702.143 119.316 702.689 122.28 702.689 125.66V127.22C702.689 130.756 702.143 133.876 701.051 136.58C699.959 139.232 698.451 141.442 696.527 143.21C694.603 144.978 692.367 146.304 689.819 147.188C687.271 148.072 684.541 148.514 681.629 148.514ZM681.629 138.53C684.437 138.53 686.595 137.516 688.103 135.488C689.611 133.46 690.365 130.704 690.365 127.22V125.66C690.365 122.54 689.611 120.018 688.103 118.094C686.595 116.118 684.437 115.13 681.629 115.13C678.821 115.13 676.663 116.118 675.155 118.094C673.647 120.018 672.893 122.54 672.893 125.66V127.22C672.893 130.808 673.647 133.59 675.155 135.566C676.663 137.542 678.821 138.53 681.629 138.53ZM708.898 106.16H720.598V131.12L738.148 106.16H748.678V147.5H736.978V122.54L719.428 147.5H708.898V106.16ZM728.788 101.87C723.692 101.87 720.078 100.908 717.946 98.984C715.814 97.008 714.748 94.07 714.748 90.17H725.356C725.356 91.938 725.642 93.16 726.214 93.836C726.786 94.512 727.644 94.85 728.788 94.85C729.932 94.85 730.79 94.512 731.362 93.836C731.934 93.16 732.22 91.938 732.22 90.17H742.828C742.828 94.07 741.762 97.008 739.63 98.984C737.498 100.908 733.884 101.87 728.788 101.87ZM23.5797 226.514C20.5117 226.514 17.6777 226.072 15.0777 225.188C12.5297 224.304 10.3197 222.978 8.44769 221.21C6.57569 219.442 5.11969 217.232 4.07969 214.58C3.03969 211.928 2.51969 208.808 2.51969 205.22V203.66C2.51969 200.384 3.06569 197.472 4.15769 194.924C5.30169 192.376 6.80969 190.244 8.68169 188.528C10.6057 186.76 12.8417 185.434 15.3897 184.55C17.9377 183.614 20.6677 183.146 23.5797 183.146C26.6997 183.146 29.4297 183.562 31.7697 184.394C34.1617 185.226 36.1637 186.37 37.7757 187.826C39.3877 189.23 40.6357 190.894 41.5197 192.818C42.4037 194.742 42.9237 196.796 43.0797 198.98H30.7557C30.3397 197.108 29.5597 195.678 28.4157 194.69C27.3237 193.65 25.7117 193.13 23.5797 193.13C21.0317 193.13 18.9257 194.014 17.2617 195.782C15.6497 197.498 14.8437 200.124 14.8437 203.66V205.22C14.8437 209.068 15.6237 211.902 17.1837 213.722C18.7957 215.542 20.9277 216.452 23.5797 216.452C25.3997 216.452 26.9337 215.984 28.1817 215.048C29.4817 214.06 30.3397 212.604 30.7557 210.68H43.0797C42.9237 213.124 42.3517 215.334 41.3637 217.31C40.3757 219.234 39.0237 220.872 37.3077 222.224C35.6437 223.576 33.6417 224.642 31.3017 225.422C29.0137 226.15 26.4397 226.514 23.5797 226.514ZM50.1149 226.514C49.6989 226.514 49.1009 226.488 48.3209 226.436C47.5929 226.436 47.0209 226.384 46.6049 226.28V215.828C46.8649 215.88 47.2549 215.906 47.7749 215.906C48.6589 215.906 49.4389 215.646 50.1149 215.126C50.7909 214.554 51.3629 213.644 51.8309 212.396C52.2989 211.096 52.6369 209.432 52.8449 207.404C53.1049 205.324 53.2349 202.776 53.2349 199.76V184.16H87.5549V225.5H75.5429V193.988H64.4669V201.32C64.4669 206.468 64.1549 210.68 63.5309 213.956C62.9069 217.232 61.9969 219.806 60.8009 221.678C59.6049 223.55 58.0969 224.824 56.2769 225.5C54.5089 226.176 52.4549 226.514 50.1149 226.514ZM114.834 226.514C111.922 226.514 109.192 226.098 106.644 225.266C104.096 224.382 101.86 223.056 99.9356 221.288C98.0116 219.52 96.5036 217.31 95.4116 214.658C94.3196 211.954 93.7736 208.808 93.7736 205.22V203.66C93.7736 200.28 94.3196 197.316 95.4116 194.768C96.5036 192.22 98.0116 190.088 99.9356 188.372C101.86 186.656 104.096 185.356 106.644 184.472C109.192 183.588 111.922 183.146 114.834 183.146C117.746 183.146 120.476 183.588 123.024 184.472C125.572 185.356 127.808 186.656 129.732 188.372C131.656 190.088 133.164 192.22 134.256 194.768C135.348 197.316 135.894 200.28 135.894 203.66V205.22C135.894 208.756 135.348 211.876 134.256 214.58C133.164 217.232 131.656 219.442 129.732 221.21C127.808 222.978 125.572 224.304 123.024 225.188C120.476 226.072 117.746 226.514 114.834 226.514ZM114.834 216.53C117.642 216.53 119.8 215.516 121.308 213.488C122.816 211.46 123.57 208.704 123.57 205.22V203.66C123.57 200.54 122.816 198.018 121.308 196.094C119.8 194.118 117.642 193.13 114.834 193.13C112.026 193.13 109.868 194.118 108.36 196.094C106.852 198.018 106.098 200.54 106.098 203.66V205.22C106.098 208.808 106.852 211.59 108.36 213.566C109.868 215.542 112.026 216.53 114.834 216.53ZM151.11 204.206L138.318 184.16H150.954L160.314 199.994H162.654V184.16H174.666V199.994H177.006L186.912 184.16H199.08L186.21 203.348L199.86 225.5H186.6L177.006 208.886H174.666V225.5H162.654V208.886H160.236L150.252 225.5H137.46L151.11 204.206ZM204.564 184.16H216.576V199.526H232.332V184.16H244.344V225.5H232.332V209.354H216.576V225.5H204.564V184.16ZM271.671 226.514C268.759 226.514 266.029 226.098 263.481 225.266C260.933 224.382 258.697 223.056 256.773 221.288C254.849 219.52 253.341 217.31 252.249 214.658C251.157 211.954 250.611 208.808 250.611 205.22V203.66C250.611 200.28 251.157 197.316 252.249 194.768C253.341 192.22 254.849 190.088 256.773 188.372C258.697 186.656 260.933 185.356 263.481 184.472C266.029 183.588 268.759 183.146 271.671 183.146C274.583 183.146 277.313 183.588 279.861 184.472C282.409 185.356 284.645 186.656 286.569 188.372C288.493 190.088 290.001 192.22 291.093 194.768C292.185 197.316 292.731 200.28 292.731 203.66V205.22C292.731 208.756 292.185 211.876 291.093 214.58C290.001 217.232 288.493 219.442 286.569 221.21C284.645 222.978 282.409 224.304 279.861 225.188C277.313 226.072 274.583 226.514 271.671 226.514ZM271.671 216.53C274.479 216.53 276.637 215.516 278.145 213.488C279.653 211.46 280.407 208.704 280.407 205.22V203.66C280.407 200.54 279.653 198.018 278.145 196.094C276.637 194.118 274.479 193.13 271.671 193.13C268.863 193.13 266.705 194.118 265.197 196.094C263.689 198.018 262.935 200.54 262.935 203.66V205.22C262.935 208.808 263.689 211.59 265.197 213.566C266.705 215.542 268.863 216.53 271.671 216.53ZM318.441 226.514C315.373 226.514 312.539 226.072 309.939 225.188C307.391 224.304 305.181 222.978 303.309 221.21C301.437 219.442 299.981 217.232 298.941 214.58C297.901 211.928 297.381 208.808 297.381 205.22V203.66C297.381 200.384 297.927 197.472 299.019 194.924C300.163 192.376 301.671 190.244 303.543 188.528C305.467 186.76 307.703 185.434 310.251 184.55C312.799 183.614 315.529 183.146 318.441 183.146C321.561 183.146 324.291 183.562 326.631 184.394C329.023 185.226 331.025 186.37 332.637 187.826C334.249 189.23 335.497 190.894 336.381 192.818C337.265 194.742 337.785 196.796 337.941 198.98H325.617C325.201 197.108 324.421 195.678 323.277 194.69C322.185 193.65 320.573 193.13 318.441 193.13C315.893 193.13 313.787 194.014 312.123 195.782C310.511 197.498 309.705 200.124 309.705 203.66V205.22C309.705 209.068 310.485 211.902 312.045 213.722C313.657 215.542 315.789 216.452 318.441 216.452C320.261 216.452 321.795 215.984 323.043 215.048C324.343 214.06 325.201 212.604 325.617 210.68H337.941C337.785 213.124 337.213 215.334 336.225 217.31C335.237 219.234 333.885 220.872 332.169 222.224C330.505 223.576 328.503 224.642 326.163 225.422C323.875 226.15 321.301 226.514 318.441 226.514ZM354.18 193.988H341.466V184.16H378.906V193.988H366.192V225.5H354.18V193.988ZM384.33 184.16H396.03V209.12L413.58 184.16H424.11V225.5H412.41V200.54L394.86 225.5H384.33V184.16ZM451.437 184.16H473.589C476.293 184.16 478.607 184.446 480.531 185.018C482.507 185.538 484.093 186.292 485.289 187.28C486.537 188.268 487.447 189.438 488.019 190.79C488.591 192.09 488.877 193.52 488.877 195.08C488.877 197.056 488.305 198.902 487.161 200.618C486.017 202.282 484.379 203.4 482.247 203.972C484.795 204.596 486.797 205.792 488.253 207.56C489.709 209.328 490.437 211.382 490.437 213.722C490.437 217.31 489.163 220.17 486.615 222.302C484.067 224.434 480.245 225.5 475.149 225.5H451.437V184.16ZM472.185 216.452C476.345 216.452 478.425 215.178 478.425 212.63C478.425 210.03 476.345 208.73 472.185 208.73H463.449V216.452H472.185ZM471.483 200.306C473.563 200.306 474.967 199.994 475.695 199.37C476.475 198.694 476.865 197.81 476.865 196.718C476.865 195.574 476.475 194.716 475.695 194.144C474.915 193.52 473.511 193.208 471.483 193.208H463.449V200.306H471.483ZM535.683 226.514C532.615 226.514 529.781 226.072 527.181 225.188C524.633 224.304 522.423 222.978 520.551 221.21C518.679 219.442 517.223 217.232 516.183 214.58C515.143 211.928 514.623 208.808 514.623 205.22V203.66C514.623 200.384 515.169 197.472 516.261 194.924C517.405 192.376 518.913 190.244 520.785 188.528C522.709 186.76 524.945 185.434 527.493 184.55C530.041 183.614 532.771 183.146 535.683 183.146C538.803 183.146 541.533 183.562 543.873 184.394C546.265 185.226 548.267 186.37 549.879 187.826C551.491 189.23 552.739 190.894 553.623 192.818C554.507 194.742 555.027 196.796 555.183 198.98H542.859C542.443 197.108 541.663 195.678 540.519 194.69C539.427 193.65 537.815 193.13 535.683 193.13C533.135 193.13 531.029 194.014 529.365 195.782C527.753 197.498 526.947 200.124 526.947 203.66V205.22C526.947 209.068 527.727 211.902 529.287 213.722C530.899 215.542 533.031 216.452 535.683 216.452C537.503 216.452 539.037 215.984 540.285 215.048C541.585 214.06 542.443 212.604 542.859 210.68H555.183C555.027 213.124 554.455 215.334 553.467 217.31C552.479 219.234 551.127 220.872 549.411 222.224C547.747 223.576 545.745 224.642 543.405 225.422C541.117 226.15 538.543 226.514 535.683 226.514ZM561.048 184.16H572.124V189.776C572.644 188.944 573.294 188.138 574.074 187.358C574.906 186.526 575.868 185.798 576.96 185.174C578.052 184.55 579.274 184.056 580.626 183.692C581.978 183.328 583.434 183.146 584.994 183.146C590.818 183.146 595.238 184.862 598.254 188.294C601.27 191.726 602.778 196.848 602.778 203.66V205.22C602.778 208.756 602.362 211.85 601.53 214.502C600.698 217.154 599.502 219.364 597.942 221.132C596.382 222.9 594.51 224.252 592.326 225.188C590.142 226.072 587.698 226.514 584.994 226.514C582.654 226.514 580.418 225.994 578.286 224.954C576.206 223.862 574.464 222.302 573.06 220.274V241.1H561.048V184.16ZM582.108 216.608C584.5 216.608 586.476 215.646 588.036 213.722C589.648 211.798 590.454 208.964 590.454 205.22V203.66C590.454 200.072 589.674 197.42 588.114 195.704C586.606 193.936 584.604 193.052 582.108 193.052C579.56 193.052 577.402 193.858 575.634 195.47C573.918 197.03 573.06 199.37 573.06 202.49V206.39C573.06 209.666 573.918 212.188 575.634 213.956C577.402 215.724 579.56 216.608 582.108 216.608ZM628.537 226.514C625.625 226.514 622.895 226.098 620.347 225.266C617.799 224.382 615.563 223.056 613.639 221.288C611.715 219.52 610.207 217.31 609.115 214.658C608.023 211.954 607.477 208.808 607.477 205.22V203.66C607.477 200.28 608.023 197.316 609.115 194.768C610.207 192.22 611.715 190.088 613.639 188.372C615.563 186.656 617.799 185.356 620.347 184.472C622.895 183.588 625.625 183.146 628.537 183.146C631.449 183.146 634.179 183.588 636.727 184.472C639.275 185.356 641.511 186.656 643.435 188.372C645.359 190.088 646.867 192.22 647.959 194.768C649.051 197.316 649.597 200.28 649.597 203.66V205.22C649.597 208.756 649.051 211.876 647.959 214.58C646.867 217.232 645.359 219.442 643.435 221.21C641.511 222.978 639.275 224.304 636.727 225.188C634.179 226.072 631.449 226.514 628.537 226.514ZM628.537 216.53C631.345 216.53 633.503 215.516 635.011 213.488C636.519 211.46 637.273 208.704 637.273 205.22V203.66C637.273 200.54 636.519 198.018 635.011 196.094C633.503 194.118 631.345 193.13 628.537 193.13C625.729 193.13 623.571 194.118 622.063 196.094C620.555 198.018 619.801 200.54 619.801 203.66V205.22C619.801 208.808 620.555 211.59 622.063 213.566C623.571 215.542 625.729 216.53 628.537 216.53ZM655.806 184.16H667.818V199.838H670.938L682.482 184.16H695.586L680.376 203.582L696.366 225.5H682.17L670.938 209.042H667.818V225.5H655.806V184.16ZM703.626 170.9H715.638V206.78H703.626V170.9ZM709.632 226.514C707.552 226.514 705.784 225.812 704.328 224.408C702.924 222.952 702.222 221.184 702.222 219.104C702.222 217.024 702.924 215.282 704.328 213.878C705.784 212.422 707.552 211.694 709.632 211.694C711.712 211.694 713.454 212.422 714.858 213.878C716.314 215.282 717.042 217.024 717.042 219.104C717.042 221.184 716.314 222.952 714.858 224.408C713.454 225.812 711.712 226.514 709.632 226.514Z" fill="white"/>
<mask id="mask0_5836_14405" style="mask-type:alpha" maskUnits="userSpaceOnUse" x="2" y="12" width="747" height="230">
<path d="M5.63969 14.9H19.9917L35.1237 42.59L50.0997 14.9H64.1397V69.5H50.0997V38.222L38.7897 58.97H30.9897L19.6797 38.222V69.5H5.63969V14.9ZM92.9723 70.514C90.0603 70.514 87.3303 70.098 84.7823 69.266C82.2343 68.382 79.9983 67.056 78.0743 65.288C76.1503 63.52 74.6423 61.31 73.5503 58.658C72.4583 55.954 71.9123 52.808 71.9123 49.22V47.66C71.9123 44.28 72.4583 41.316 73.5503 38.768C74.6423 36.22 76.1503 34.088 78.0743 32.372C79.9983 30.656 82.2343 29.356 84.7823 28.472C87.3303 27.588 90.0603 27.146 92.9723 27.146C95.8843 27.146 98.6143 27.588 101.162 28.472C103.71 29.356 105.946 30.656 107.87 32.372C109.794 34.088 111.302 36.22 112.394 38.768C113.486 41.316 114.032 44.28 114.032 47.66V49.22C114.032 52.756 113.486 55.876 112.394 58.58C111.302 61.232 109.794 63.442 107.87 65.21C105.946 66.978 103.71 68.304 101.162 69.188C98.6143 70.072 95.8843 70.514 92.9723 70.514ZM92.9723 60.53C95.7803 60.53 97.9383 59.516 99.4463 57.488C100.954 55.46 101.708 52.704 101.708 49.22V47.66C101.708 44.54 100.954 42.018 99.4463 40.094C97.9383 38.118 95.7803 37.13 92.9723 37.13C90.1643 37.13 88.0063 38.118 86.4983 40.094C84.9903 42.018 84.2363 44.54 84.2363 47.66V49.22C84.2363 52.808 84.9903 55.59 86.4983 57.566C88.0063 59.542 90.1643 60.53 92.9723 60.53ZM140.132 70.514C137.116 70.514 134.308 70.02 131.708 69.032C129.16 67.992 126.95 66.484 125.078 64.508C123.206 62.48 121.724 59.984 120.632 57.02C119.592 54.004 119.072 50.494 119.072 46.49V44.93C119.072 40.302 119.436 36.168 120.164 32.528C120.944 28.888 122.192 25.794 123.908 23.246C125.676 20.646 127.964 18.644 130.772 17.24C133.58 15.784 137.064 14.952 141.224 14.744C142.836 14.692 144.448 14.64 146.06 14.588C147.724 14.536 149.284 14.458 150.74 14.354C152.248 14.25 153.626 14.094 154.874 13.886C156.122 13.678 157.188 13.366 158.072 12.95V23.246C157.656 23.506 157.058 23.74 156.278 23.948C155.55 24.104 154.562 24.26 153.314 24.416C152.066 24.572 150.558 24.702 148.79 24.806C147.022 24.91 144.89 24.988 142.394 25.04C140.106 25.04 138.13 25.274 136.466 25.742C134.854 26.21 133.476 26.964 132.332 28.004C131.24 28.992 130.382 30.292 129.758 31.904C129.134 33.464 128.692 35.362 128.432 37.598C129.576 35.518 131.37 33.776 133.814 32.372C136.258 30.968 139.534 30.266 143.642 30.266C146.19 30.266 148.53 30.656 150.662 31.436C152.846 32.164 154.718 33.282 156.278 34.79C157.838 36.246 159.034 38.118 159.866 40.406C160.75 42.642 161.192 45.242 161.192 48.206V49.688C161.192 52.964 160.646 55.902 159.554 58.502C158.462 61.102 156.98 63.286 155.108 65.054C153.236 66.822 151 68.174 148.4 69.11C145.852 70.046 143.096 70.514 140.132 70.514ZM140.132 60.53C142.94 60.53 145.098 59.646 146.606 57.878C148.114 56.058 148.868 53.692 148.868 50.78V49.142C148.868 46.074 148.088 43.708 146.528 42.044C144.968 40.328 142.836 39.47 140.132 39.47C137.48 39.47 135.348 40.302 133.736 41.966C132.176 43.63 131.396 46.022 131.396 49.142V50.468C131.396 53.484 132.228 55.928 133.892 57.8C135.556 59.62 137.636 60.53 140.132 60.53ZM167.468 28.16H179.168V53.12L196.718 28.16H207.248V69.5H195.548V44.54L177.998 69.5H167.468V28.16ZM216.246 70.514C215.83 70.514 215.232 70.488 214.452 70.436C213.724 70.436 213.152 70.384 212.736 70.28V59.828C212.996 59.88 213.386 59.906 213.906 59.906C214.79 59.906 215.57 59.646 216.246 59.126C216.922 58.554 217.494 57.644 217.962 56.396C218.43 55.096 218.768 53.432 218.976 51.404C219.236 49.324 219.366 46.776 219.366 43.76V28.16H253.686V69.5H241.674V37.988H230.598V45.32C230.598 50.468 230.286 54.68 229.662 57.956C229.038 61.232 228.128 63.806 226.932 65.678C225.736 67.55 224.228 68.824 222.408 69.5C220.64 70.176 218.586 70.514 216.246 70.514ZM262.244 28.16H274.256V41.576H282.524C287.932 41.576 292.014 42.72 294.77 45.008C297.526 47.296 298.904 50.806 298.904 55.538C298.904 57.618 298.592 59.516 297.968 61.232C297.396 62.948 296.434 64.43 295.082 65.678C293.782 66.874 292.092 67.81 290.012 68.486C287.984 69.162 285.488 69.5 282.524 69.5H262.244V28.16ZM280.964 60.452C283.096 60.452 284.604 60.062 285.488 59.282C286.424 58.45 286.892 57.202 286.892 55.538C286.892 53.822 286.424 52.574 285.488 51.794C284.604 51.014 283.096 50.624 280.964 50.624H274.256V60.452H280.964ZM304.349 28.16H316.361V43.526H332.117V28.16H344.129V69.5H332.117V53.354H316.361V69.5H304.349V28.16ZM371.457 70.514C368.545 70.514 365.815 70.098 363.267 69.266C360.719 68.382 358.483 67.056 356.559 65.288C354.635 63.52 353.127 61.31 352.035 58.658C350.943 55.954 350.397 52.808 350.397 49.22V47.66C350.397 44.28 350.943 41.316 352.035 38.768C353.127 36.22 354.635 34.088 356.559 32.372C358.483 30.656 360.719 29.356 363.267 28.472C365.815 27.588 368.545 27.146 371.457 27.146C374.369 27.146 377.099 27.588 379.647 28.472C382.195 29.356 384.431 30.656 386.355 32.372C388.279 34.088 389.787 36.22 390.879 38.768C391.971 41.316 392.517 44.28 392.517 47.66V49.22C392.517 52.756 391.971 55.876 390.879 58.58C389.787 61.232 388.279 63.442 386.355 65.21C384.431 66.978 382.195 68.304 379.647 69.188C377.099 70.072 374.369 70.514 371.457 70.514ZM371.457 60.53C374.265 60.53 376.423 59.516 377.931 57.488C379.439 55.46 380.193 52.704 380.193 49.22V47.66C380.193 44.54 379.439 42.018 377.931 40.094C376.423 38.118 374.265 37.13 371.457 37.13C368.649 37.13 366.491 38.118 364.983 40.094C363.475 42.018 362.721 44.54 362.721 47.66V49.22C362.721 52.808 363.475 55.59 364.983 57.566C366.491 59.542 368.649 60.53 371.457 60.53ZM418.616 70.514C415.6 70.514 412.766 70.098 410.114 69.266C407.514 68.382 405.252 67.056 403.328 65.288C401.404 63.52 399.896 61.31 398.804 58.658C397.712 55.954 397.166 52.808 397.166 49.22V47.66C397.166 44.228 397.686 41.238 398.726 38.69C399.818 36.142 401.274 34.01 403.094 32.294C404.966 30.578 407.15 29.304 409.646 28.472C412.194 27.588 414.924 27.146 417.836 27.146C424.648 27.146 429.796 28.914 433.28 32.45C436.764 35.934 438.506 41.004 438.506 47.66V51.95H409.49C409.542 53.562 409.828 54.94 410.348 56.084C410.868 57.176 411.544 58.086 412.376 58.814C413.208 59.542 414.144 60.088 415.184 60.452C416.276 60.764 417.42 60.92 418.616 60.92C420.904 60.92 422.698 60.582 423.998 59.906C425.35 59.178 426.234 58.216 426.65 57.02H437.726C436.894 61.544 434.84 64.924 431.564 67.16C428.288 69.396 423.972 70.514 418.616 70.514ZM418.226 36.662C417.134 36.662 416.068 36.792 415.028 37.052C414.04 37.312 413.13 37.754 412.298 38.378C411.518 38.95 410.868 39.704 410.348 40.64C409.88 41.576 409.62 42.72 409.568 44.072H426.728C426.728 42.616 426.494 41.42 426.026 40.484C425.558 39.548 424.934 38.794 424.154 38.222C423.426 37.65 422.542 37.26 421.502 37.052C420.462 36.792 419.37 36.662 418.226 36.662ZM4.07969 106.16H43.0797V147.5H31.0677V115.988H16.0917V147.5H4.07969V106.16ZM50.8492 106.16H61.9252V111.776C62.4452 110.944 63.0952 110.138 63.8752 109.358C64.7072 108.526 65.6692 107.798 66.7612 107.174C67.8532 106.55 69.0752 106.056 70.4272 105.692C71.7792 105.328 73.2352 105.146 74.7952 105.146C80.6192 105.146 85.0392 106.862 88.0552 110.294C91.0712 113.726 92.5792 118.848 92.5792 125.66V127.22C92.5792 130.756 92.1632 133.85 91.3312 136.502C90.4992 139.154 89.3032 141.364 87.7432 143.132C86.1832 144.9 84.3112 146.252 82.1272 147.188C79.9432 148.072 77.4992 148.514 74.7952 148.514C72.4552 148.514 70.2192 147.994 68.0872 146.954C66.0072 145.862 64.2652 144.302 62.8612 142.274V163.1H50.8492V106.16ZM71.9092 138.608C74.3012 138.608 76.2772 137.646 77.8372 135.722C79.4492 133.798 80.2552 130.964 80.2552 127.22V125.66C80.2552 122.072 79.4752 119.42 77.9152 117.704C76.4072 115.936 74.4052 115.052 71.9092 115.052C69.3612 115.052 67.2032 115.858 65.4352 117.47C63.7192 119.03 62.8612 121.37 62.8612 124.49V128.39C62.8612 131.666 63.7192 134.188 65.4352 135.956C67.2032 137.724 69.3612 138.608 71.9092 138.608ZM98.8375 106.16H110.538V131.12L128.088 106.16H138.618V147.5H126.918V122.54L109.368 147.5H98.8375V106.16ZM147.615 148.514C147.199 148.514 146.601 148.488 145.821 148.436C145.093 148.436 144.521 148.384 144.105 148.28V137.828C144.365 137.88 144.755 137.906 145.275 137.906C146.159 137.906 146.939 137.646 147.615 137.126C148.291 136.554 148.863 135.644 149.331 134.396C149.799 133.096 150.137 131.432 150.345 129.404C150.605 127.324 150.735 124.776 150.735 121.76V106.16H185.055V147.5H173.043V115.988H161.967V123.32C161.967 128.468 161.655 132.68 161.031 135.956C160.407 139.232 159.497 141.806 158.301 143.678C157.105 145.55 155.597 146.824 153.777 147.5C152.009 148.176 149.955 148.514 147.615 148.514ZM212.334 148.514C209.422 148.514 206.692 148.098 204.144 147.266C201.596 146.382 199.36 145.056 197.436 143.288C195.512 141.52 194.004 139.31 192.912 136.658C191.82 133.954 191.274 130.808 191.274 127.22V125.66C191.274 122.28 191.82 119.316 192.912 116.768C194.004 114.22 195.512 112.088 197.436 110.372C199.36 108.656 201.596 107.356 204.144 106.472C206.692 105.588 209.422 105.146 212.334 105.146C215.246 105.146 217.976 105.588 220.524 106.472C223.072 107.356 225.308 108.656 227.232 110.372C229.156 112.088 230.664 114.22 231.756 116.768C232.848 119.316 233.394 122.28 233.394 125.66V127.22C233.394 130.756 232.848 133.876 231.756 136.58C230.664 139.232 229.156 141.442 227.232 143.21C225.308 144.978 223.072 146.304 220.524 147.188C217.976 148.072 215.246 148.514 212.334 148.514ZM212.334 138.53C215.142 138.53 217.3 137.516 218.808 135.488C220.316 133.46 221.07 130.704 221.07 127.22V125.66C221.07 122.54 220.316 120.018 218.808 118.094C217.3 116.118 215.142 115.13 212.334 115.13C209.526 115.13 207.368 116.118 205.86 118.094C204.352 120.018 203.598 122.54 203.598 125.66V127.22C203.598 130.808 204.352 133.59 205.86 135.566C207.368 137.542 209.526 138.53 212.334 138.53ZM248.61 126.206L235.818 106.16H248.454L257.814 121.994H260.154V106.16H272.166V121.994H274.506L284.412 106.16H296.58L283.71 125.348L297.36 147.5H284.1L274.506 130.886H272.166V147.5H260.154V130.886H257.736L247.752 147.5H234.96L248.61 126.206ZM320.431 148.514C317.415 148.514 314.581 148.098 311.929 147.266C309.329 146.382 307.067 145.056 305.143 143.288C303.219 141.52 301.711 139.31 300.619 136.658C299.527 133.954 298.981 130.808 298.981 127.22V125.66C298.981 122.228 299.501 119.238 300.541 116.69C301.633 114.142 303.089 112.01 304.909 110.294C306.781 108.578 308.965 107.304 311.461 106.472C314.009 105.588 316.739 105.146 319.651 105.146C326.463 105.146 331.611 106.914 335.095 110.45C338.579 113.934 340.321 119.004 340.321 125.66V129.95H311.305C311.357 131.562 311.643 132.94 312.163 134.084C312.683 135.176 313.359 136.086 314.191 136.814C315.023 137.542 315.959 138.088 316.999 138.452C318.091 138.764 319.235 138.92 320.431 138.92C322.719 138.92 324.513 138.582 325.813 137.906C327.165 137.178 328.049 136.216 328.465 135.02H339.541C338.709 139.544 336.655 142.924 333.379 145.16C330.103 147.396 325.787 148.514 320.431 148.514ZM320.041 114.662C318.949 114.662 317.883 114.792 316.843 115.052C315.855 115.312 314.945 115.754 314.113 116.378C313.333 116.95 312.683 117.704 312.163 118.64C311.695 119.576 311.435 120.72 311.383 122.072H328.543C328.543 120.616 328.309 119.42 327.841 118.484C327.373 117.548 326.749 116.794 325.969 116.222C325.241 115.65 324.357 115.26 323.317 115.052C322.277 114.792 321.185 114.662 320.041 114.662ZM346.548 106.16H358.56V121.526H374.316V106.16H386.328V147.5H374.316V131.354H358.56V147.5H346.548V106.16ZM394.156 106.16H405.856V131.12L423.406 106.16H433.936V147.5H422.236V122.54L404.686 147.5H394.156V106.16ZM461.653 148.514C458.637 148.514 455.803 148.098 453.151 147.266C450.551 146.382 448.289 145.056 446.365 143.288C444.441 141.52 442.933 139.31 441.841 136.658C440.749 133.954 440.203 130.808 440.203 127.22V125.66C440.203 122.228 440.723 119.238 441.763 116.69C442.855 114.142 444.311 112.01 446.131 110.294C448.003 108.578 450.187 107.304 452.683 106.472C455.231 105.588 457.961 105.146 460.873 105.146C467.685 105.146 472.833 106.914 476.317 110.45C479.801 113.934 481.543 119.004 481.543 125.66V129.95H452.527C452.579 131.562 452.865 132.94 453.385 134.084C453.905 135.176 454.581 136.086 455.413 136.814C456.245 137.542 457.181 138.088 458.221 138.452C459.313 138.764 460.457 138.92 461.653 138.92C463.941 138.92 465.735 138.582 467.035 137.906C468.387 137.178 469.271 136.216 469.687 135.02H480.763C479.931 139.544 477.877 142.924 474.601 145.16C471.325 147.396 467.009 148.514 461.653 148.514ZM461.263 114.662C460.171 114.662 459.105 114.792 458.065 115.052C457.077 115.312 456.167 115.754 455.335 116.378C454.555 116.95 453.905 117.704 453.385 118.64C452.917 119.576 452.657 120.72 452.605 122.072H469.765C469.765 120.616 469.531 119.42 469.063 118.484C468.595 117.548 467.971 116.794 467.191 116.222C466.463 115.65 465.579 115.26 464.539 115.052C463.499 114.792 462.407 114.662 461.263 114.662Z" fill="#3852CE"/>
<path d="M508.441 148.514C508.025 148.514 507.427 148.488 506.647 148.436C505.919 148.436 505.347 148.384 504.931 148.28V137.828C505.191 137.88 505.581 137.906 506.101 137.906C506.985 137.906 507.765 137.646 508.441 137.126C509.117 136.554 509.689 135.644 510.157 134.396C510.625 133.096 510.963 131.432 511.171 129.404C511.431 127.324 511.561 124.776 511.561 121.76V106.16H545.881V147.5H533.869V115.988H522.793V123.32C522.793 128.468 522.481 132.68 521.857 135.956C521.233 139.232 520.323 141.806 519.127 143.678C517.931 145.55 516.423 146.824 514.603 147.5C512.835 148.176 510.781 148.514 508.441 148.514ZM553.66 106.16H565.672V121.526H568.636C569 118.822 569.754 116.456 570.898 114.428C572.042 112.4 573.472 110.71 575.188 109.358C576.904 107.954 578.88 106.914 581.116 106.238C583.352 105.51 585.77 105.146 588.37 105.146C591.282 105.146 593.96 105.588 596.404 106.472C598.9 107.356 601.058 108.656 602.878 110.372C604.698 112.088 606.102 114.22 607.09 116.768C608.13 119.316 608.65 122.28 608.65 125.66V127.22C608.65 130.756 608.13 133.876 607.09 136.58C606.102 139.232 604.698 141.442 602.878 143.21C601.058 144.978 598.9 146.304 596.404 147.188C593.96 148.072 591.282 148.514 588.37 148.514C585.77 148.514 583.326 148.176 581.038 147.5C578.802 146.772 576.826 145.706 575.11 144.302C573.394 142.898 571.964 141.13 570.82 138.998C569.728 136.814 569 134.266 568.636 131.354H565.672V147.5H553.66V106.16ZM588.37 138.53C590.97 138.53 592.946 137.516 594.298 135.488C595.65 133.46 596.326 130.704 596.326 127.22V125.66C596.326 122.54 595.65 120.018 594.298 118.094C592.946 116.118 590.97 115.13 588.37 115.13C585.77 115.13 583.794 116.118 582.442 118.094C581.09 120.018 580.414 122.54 580.414 125.66V127.22C580.414 130.808 581.09 133.59 582.442 135.566C583.794 137.542 585.77 138.53 588.37 138.53ZM634.792 148.514C631.776 148.514 628.968 148.02 626.368 147.032C623.82 145.992 621.61 144.484 619.738 142.508C617.866 140.48 616.384 137.984 615.292 135.02C614.252 132.004 613.732 128.494 613.732 124.49V122.93C613.732 118.302 614.096 114.168 614.824 110.528C615.604 106.888 616.852 103.794 618.568 101.246C620.336 98.646 622.624 96.644 625.432 95.24C628.24 93.784 631.724 92.952 635.884 92.744C637.496 92.692 639.108 92.64 640.72 92.588C642.384 92.536 643.944 92.458 645.4 92.354C646.908 92.25 648.286 92.094 649.534 91.886C650.782 91.678 651.848 91.366 652.732 90.95V101.246C652.316 101.506 651.718 101.74 650.938 101.948C650.21 102.104 649.222 102.26 647.974 102.416C646.726 102.572 645.218 102.702 643.45 102.806C641.682 102.91 639.55 102.988 637.054 103.04C634.766 103.04 632.79 103.274 631.126 103.742C629.514 104.21 628.136 104.964 626.992 106.004C625.9 106.992 625.042 108.292 624.418 109.904C623.794 111.464 623.352 113.362 623.092 115.598C624.236 113.518 626.03 111.776 628.474 110.372C630.918 108.968 634.194 108.266 638.302 108.266C640.85 108.266 643.19 108.656 645.322 109.436C647.506 110.164 649.378 111.282 650.938 112.79C652.498 114.246 653.694 116.118 654.526 118.406C655.41 120.642 655.852 123.242 655.852 126.206V127.688C655.852 130.964 655.306 133.902 654.214 136.502C653.122 139.102 651.64 141.286 649.768 143.054C647.896 144.822 645.66 146.174 643.06 147.11C640.512 148.046 637.756 148.514 634.792 148.514ZM634.792 138.53C637.6 138.53 639.758 137.646 641.266 135.878C642.774 134.058 643.528 131.692 643.528 128.78V127.142C643.528 124.074 642.748 121.708 641.188 120.044C639.628 118.328 637.496 117.47 634.792 117.47C632.14 117.47 630.008 118.302 628.396 119.966C626.836 121.63 626.056 124.022 626.056 127.142V128.468C626.056 131.484 626.888 133.928 628.552 135.8C630.216 137.62 632.296 138.53 634.792 138.53ZM681.629 148.514C678.717 148.514 675.987 148.098 673.439 147.266C670.891 146.382 668.655 145.056 666.731 143.288C664.807 141.52 663.299 139.31 662.207 136.658C661.115 133.954 660.569 130.808 660.569 127.22V125.66C660.569 122.28 661.115 119.316 662.207 116.768C663.299 114.22 664.807 112.088 666.731 110.372C668.655 108.656 670.891 107.356 673.439 106.472C675.987 105.588 678.717 105.146 681.629 105.146C684.541 105.146 687.271 105.588 689.819 106.472C692.367 107.356 694.603 108.656 696.527 110.372C698.451 112.088 699.959 114.22 701.051 116.768C702.143 119.316 702.689 122.28 702.689 125.66V127.22C702.689 130.756 702.143 133.876 701.051 136.58C699.959 139.232 698.451 141.442 696.527 143.21C694.603 144.978 692.367 146.304 689.819 147.188C687.271 148.072 684.541 148.514 681.629 148.514ZM681.629 138.53C684.437 138.53 686.595 137.516 688.103 135.488C689.611 133.46 690.365 130.704 690.365 127.22V125.66C690.365 122.54 689.611 120.018 688.103 118.094C686.595 116.118 684.437 115.13 681.629 115.13C678.821 115.13 676.663 116.118 675.155 118.094C673.647 120.018 672.893 122.54 672.893 125.66V127.22C672.893 130.808 673.647 133.59 675.155 135.566C676.663 137.542 678.821 138.53 681.629 138.53ZM708.898 106.16H720.598V131.12L738.148 106.16H748.678V147.5H736.978V122.54L719.428 147.5H708.898V106.16ZM728.788 101.87C723.692 101.87 720.078 100.908 717.946 98.984C715.814 97.008 714.748 94.07 714.748 90.17H725.356C725.356 91.938 725.642 93.16 726.214 93.836C726.786 94.512 727.644 94.85 728.788 94.85C729.932 94.85 730.79 94.512 731.362 93.836C731.934 93.16 732.22 91.938 732.22 90.17H742.828C742.828 94.07 741.762 97.008 739.63 98.984C737.498 100.908 733.884 101.87 728.788 101.87ZM23.5797 226.514C20.5117 226.514 17.6777 226.072 15.0777 225.188C12.5297 224.304 10.3197 222.978 8.44769 221.21C6.57569 219.442 5.11969 217.232 4.07969 214.58C3.03969 211.928 2.51969 208.808 2.51969 205.22V203.66C2.51969 200.384 3.06569 197.472 4.15769 194.924C5.30169 192.376 6.80969 190.244 8.68169 188.528C10.6057 186.76 12.8417 185.434 15.3897 184.55C17.9377 183.614 20.6677 183.146 23.5797 183.146C26.6997 183.146 29.4297 183.562 31.7697 184.394C34.1617 185.226 36.1637 186.37 37.7757 187.826C39.3877 189.23 40.6357 190.894 41.5197 192.818C42.4037 194.742 42.9237 196.796 43.0797 198.98H30.7557C30.3397 197.108 29.5597 195.678 28.4157 194.69C27.3237 193.65 25.7117 193.13 23.5797 193.13C21.0317 193.13 18.9257 194.014 17.2617 195.782C15.6497 197.498 14.8437 200.124 14.8437 203.66V205.22C14.8437 209.068 15.6237 211.902 17.1837 213.722C18.7957 215.542 20.9277 216.452 23.5797 216.452C25.3997 216.452 26.9337 215.984 28.1817 215.048C29.4817 214.06 30.3397 212.604 30.7557 210.68H43.0797C42.9237 213.124 42.3517 215.334 41.3637 217.31C40.3757 219.234 39.0237 220.872 37.3077 222.224C35.6437 223.576 33.6417 224.642 31.3017 225.422C29.0137 226.15 26.4397 226.514 23.5797 226.514ZM50.1149 226.514C49.6989 226.514 49.1009 226.488 48.3209 226.436C47.5929 226.436 47.0209 226.384 46.6049 226.28V215.828C46.8649 215.88 47.2549 215.906 47.7749 215.906C48.6589 215.906 49.4389 215.646 50.1149 215.126C50.7909 214.554 51.3629 213.644 51.8309 212.396C52.2989 211.096 52.6369 209.432 52.8449 207.404C53.1049 205.324 53.2349 202.776 53.2349 199.76V184.16H87.5549V225.5H75.5429V193.988H64.4669V201.32C64.4669 206.468 64.1549 210.68 63.5309 213.956C62.9069 217.232 61.9969 219.806 60.8009 221.678C59.6049 223.55 58.0969 224.824 56.2769 225.5C54.5089 226.176 52.4549 226.514 50.1149 226.514ZM114.834 226.514C111.922 226.514 109.192 226.098 106.644 225.266C104.096 224.382 101.86 223.056 99.9356 221.288C98.0116 219.52 96.5036 217.31 95.4116 214.658C94.3196 211.954 93.7736 208.808 93.7736 205.22V203.66C93.7736 200.28 94.3196 197.316 95.4116 194.768C96.5036 192.22 98.0116 190.088 99.9356 188.372C101.86 186.656 104.096 185.356 106.644 184.472C109.192 183.588 111.922 183.146 114.834 183.146C117.746 183.146 120.476 183.588 123.024 184.472C125.572 185.356 127.808 186.656 129.732 188.372C131.656 190.088 133.164 192.22 134.256 194.768C135.348 197.316 135.894 200.28 135.894 203.66V205.22C135.894 208.756 135.348 211.876 134.256 214.58C133.164 217.232 131.656 219.442 129.732 221.21C127.808 222.978 125.572 224.304 123.024 225.188C120.476 226.072 117.746 226.514 114.834 226.514ZM114.834 216.53C117.642 216.53 119.8 215.516 121.308 213.488C122.816 211.46 123.57 208.704 123.57 205.22V203.66C123.57 200.54 122.816 198.018 121.308 196.094C119.8 194.118 117.642 193.13 114.834 193.13C112.026 193.13 109.868 194.118 108.36 196.094C106.852 198.018 106.098 200.54 106.098 203.66V205.22C106.098 208.808 106.852 211.59 108.36 213.566C109.868 215.542 112.026 216.53 114.834 216.53ZM151.11 204.206L138.318 184.16H150.954L160.314 199.994H162.654V184.16H174.666V199.994H177.006L186.912 184.16H199.08L186.21 203.348L199.86 225.5H186.6L177.006 208.886H174.666V225.5H162.654V208.886H160.236L150.252 225.5H137.46L151.11 204.206ZM204.564 184.16H216.576V199.526H232.332V184.16H244.344V225.5H232.332V209.354H216.576V225.5H204.564V184.16ZM271.671 226.514C268.759 226.514 266.029 226.098 263.481 225.266C260.933 224.382 258.697 223.056 256.773 221.288C254.849 219.52 253.341 217.31 252.249 214.658C251.157 211.954 250.611 208.808 250.611 205.22V203.66C250.611 200.28 251.157 197.316 252.249 194.768C253.341 192.22 254.849 190.088 256.773 188.372C258.697 186.656 260.933 185.356 263.481 184.472C266.029 183.588 268.759 183.146 271.671 183.146C274.583 183.146 277.313 183.588 279.861 184.472C282.409 185.356 284.645 186.656 286.569 188.372C288.493 190.088 290.001 192.22 291.093 194.768C292.185 197.316 292.731 200.28 292.731 203.66V205.22C292.731 208.756 292.185 211.876 291.093 214.58C290.001 217.232 288.493 219.442 286.569 221.21C284.645 222.978 282.409 224.304 279.861 225.188C277.313 226.072 274.583 226.514 271.671 226.514ZM271.671 216.53C274.479 216.53 276.637 215.516 278.145 213.488C279.653 211.46 280.407 208.704 280.407 205.22V203.66C280.407 200.54 279.653 198.018 278.145 196.094C276.637 194.118 274.479 193.13 271.671 193.13C268.863 193.13 266.705 194.118 265.197 196.094C263.689 198.018 262.935 200.54 262.935 203.66V205.22C262.935 208.808 263.689 211.59 265.197 213.566C266.705 215.542 268.863 216.53 271.671 216.53ZM318.441 226.514C315.373 226.514 312.539 226.072 309.939 225.188C307.391 224.304 305.181 222.978 303.309 221.21C301.437 219.442 299.981 217.232 298.941 214.58C297.901 211.928 297.381 208.808 297.381 205.22V203.66C297.381 200.384 297.927 197.472 299.019 194.924C300.163 192.376 301.671 190.244 303.543 188.528C305.467 186.76 307.703 185.434 310.251 184.55C312.799 183.614 315.529 183.146 318.441 183.146C321.561 183.146 324.291 183.562 326.631 184.394C329.023 185.226 331.025 186.37 332.637 187.826C334.249 189.23 335.497 190.894 336.381 192.818C337.265 194.742 337.785 196.796 337.941 198.98H325.617C325.201 197.108 324.421 195.678 323.277 194.69C322.185 193.65 320.573 193.13 318.441 193.13C315.893 193.13 313.787 194.014 312.123 195.782C310.511 197.498 309.705 200.124 309.705 203.66V205.22C309.705 209.068 310.485 211.902 312.045 213.722C313.657 215.542 315.789 216.452 318.441 216.452C320.261 216.452 321.795 215.984 323.043 215.048C324.343 214.06 325.201 212.604 325.617 210.68H337.941C337.785 213.124 337.213 215.334 336.225 217.31C335.237 219.234 333.885 220.872 332.169 222.224C330.505 223.576 328.503 224.642 326.163 225.422C323.875 226.15 321.301 226.514 318.441 226.514ZM354.18 193.988H341.466V184.16H378.906V193.988H366.192V225.5H354.18V193.988ZM384.33 184.16H396.03V209.12L413.58 184.16H424.11V225.5H412.41V200.54L394.86 225.5H384.33V184.16ZM451.437 184.16H473.589C476.293 184.16 478.607 184.446 480.531 185.018C482.507 185.538 484.093 186.292 485.289 187.28C486.537 188.268 487.447 189.438 488.019 190.79C488.591 192.09 488.877 193.52 488.877 195.08C488.877 197.056 488.305 198.902 487.161 200.618C486.017 202.282 484.379 203.4 482.247 203.972C484.795 204.596 486.797 205.792 488.253 207.56C489.709 209.328 490.437 211.382 490.437 213.722C490.437 217.31 489.163 220.17 486.615 222.302C484.067 224.434 480.245 225.5 475.149 225.5H451.437V184.16ZM472.185 216.452C476.345 216.452 478.425 215.178 478.425 212.63C478.425 210.03 476.345 208.73 472.185 208.73H463.449V216.452H472.185ZM471.483 200.306C473.563 200.306 474.967 199.994 475.695 199.37C476.475 198.694 476.865 197.81 476.865 196.718C476.865 195.574 476.475 194.716 475.695 194.144C474.915 193.52 473.511 193.208 471.483 193.208H463.449V200.306H471.483ZM535.683 226.514C532.615 226.514 529.781 226.072 527.181 225.188C524.633 224.304 522.423 222.978 520.551 221.21C518.679 219.442 517.223 217.232 516.183 214.58C515.143 211.928 514.623 208.808 514.623 205.22V203.66C514.623 200.384 515.169 197.472 516.261 194.924C517.405 192.376 518.913 190.244 520.785 188.528C522.709 186.76 524.945 185.434 527.493 184.55C530.041 183.614 532.771 183.146 535.683 183.146C538.803 183.146 541.533 183.562 543.873 184.394C546.265 185.226 548.267 186.37 549.879 187.826C551.491 189.23 552.739 190.894 553.623 192.818C554.507 194.742 555.027 196.796 555.183 198.98H542.859C542.443 197.108 541.663 195.678 540.519 194.69C539.427 193.65 537.815 193.13 535.683 193.13C533.135 193.13 531.029 194.014 529.365 195.782C527.753 197.498 526.947 200.124 526.947 203.66V205.22C526.947 209.068 527.727 211.902 529.287 213.722C530.899 215.542 533.031 216.452 535.683 216.452C537.503 216.452 539.037 215.984 540.285 215.048C541.585 214.06 542.443 212.604 542.859 210.68H555.183C555.027 213.124 554.455 215.334 553.467 217.31C552.479 219.234 551.127 220.872 549.411 222.224C547.747 223.576 545.745 224.642 543.405 225.422C541.117 226.15 538.543 226.514 535.683 226.514ZM561.048 184.16H572.124V189.776C572.644 188.944 573.294 188.138 574.074 187.358C574.906 186.526 575.868 185.798 576.96 185.174C578.052 184.55 579.274 184.056 580.626 183.692C581.978 183.328 583.434 183.146 584.994 183.146C590.818 183.146 595.238 184.862 598.254 188.294C601.27 191.726 602.778 196.848 602.778 203.66V205.22C602.778 208.756 602.362 211.85 601.53 214.502C600.698 217.154 599.502 219.364 597.942 221.132C596.382 222.9 594.51 224.252 592.326 225.188C590.142 226.072 587.698 226.514 584.994 226.514C582.654 226.514 580.418 225.994 578.286 224.954C576.206 223.862 574.464 222.302 573.06 220.274V241.1H561.048V184.16ZM582.108 216.608C584.5 216.608 586.476 215.646 588.036 213.722C589.648 211.798 590.454 208.964 590.454 205.22V203.66C590.454 200.072 589.674 197.42 588.114 195.704C586.606 193.936 584.604 193.052 582.108 193.052C579.56 193.052 577.402 193.858 575.634 195.47C573.918 197.03 573.06 199.37 573.06 202.49V206.39C573.06 209.666 573.918 212.188 575.634 213.956C577.402 215.724 579.56 216.608 582.108 216.608ZM628.537 226.514C625.625 226.514 622.895 226.098 620.347 225.266C617.799 224.382 615.563 223.056 613.639 221.288C611.715 219.52 610.207 217.31 609.115 214.658C608.023 211.954 607.477 208.808 607.477 205.22V203.66C607.477 200.28 608.023 197.316 609.115 194.768C610.207 192.22 611.715 190.088 613.639 188.372C615.563 186.656 617.799 185.356 620.347 184.472C622.895 183.588 625.625 183.146 628.537 183.146C631.449 183.146 634.179 183.588 636.727 184.472C639.275 185.356 641.511 186.656 643.435 188.372C645.359 190.088 646.867 192.22 647.959 194.768C649.051 197.316 649.597 200.28 649.597 203.66V205.22C649.597 208.756 649.051 211.876 647.959 214.58C646.867 217.232 645.359 219.442 643.435 221.21C641.511 222.978 639.275 224.304 636.727 225.188C634.179 226.072 631.449 226.514 628.537 226.514ZM628.537 216.53C631.345 216.53 633.503 215.516 635.011 213.488C636.519 211.46 637.273 208.704 637.273 205.22V203.66C637.273 200.54 636.519 198.018 635.011 196.094C633.503 194.118 631.345 193.13 628.537 193.13C625.729 193.13 623.571 194.118 622.063 196.094C620.555 198.018 619.801 200.54 619.801 203.66V205.22C619.801 208.808 620.555 211.59 622.063 213.566C623.571 215.542 625.729 216.53 628.537 216.53ZM655.806 184.16H667.818V199.838H670.938L682.482 184.16H695.586L680.376 203.582L696.366 225.5H682.17L670.938 209.042H667.818V225.5H655.806V184.16ZM703.626 170.9H715.638V206.78H703.626V170.9ZM709.632 226.514C707.552 226.514 705.784 225.812 704.328 224.408C702.924 222.952 702.222 221.184 702.222 219.104C702.222 217.024 702.924 215.282 704.328 213.878C705.784 212.422 707.552 211.694 709.632 211.694C711.712 211.694 713.454 212.422 714.858 213.878C716.314 215.282 717.042 217.024 717.042 219.104C717.042 221.184 716.314 222.952 714.858 224.408C713.454 225.812 711.712 226.514 709.632 226.514Z" fill="#110545"/>
</mask>
<g mask="url(#mask0_5836_14405)">
<path d="M12.6484 94.2879C67.3862 143.104 125.429 62.3352 142.78 64.7021C164.469 67.6607 56.0251 162.335 90.1076 154.199C124.19 146.063 165.502 60.2642 192.355 64.7021C219.208 69.14 136.851 144.584 167.185 143.104C197.519 141.625 258.454 35.1165 272.913 33.6372C287.373 32.158 177.896 165.294 207.847 154.199C237.798 143.104 264.651 72.8382 279.11 78.0157C293.569 83.1932 246.061 132.01 256.389 143.104C266.717 154.199 325.586 64.7021 339.013 64.7021C352.439 64.7021 290.585 156.418 322.545 143.104C354.505 129.791 407.178 38.0751 436.096 72.8382C465.015 107.601 475.343 147.542 505.294 118.696C535.245 89.85 539.376 56.5661 564.164 78.0157C595.92 105.496 635.86 80.1218 647.82 56.5661" stroke="#DBFF00" stroke-width="20" stroke-linecap="round"/>
</g>
</svg>
