<svg width="397" height="300" viewBox="0 0 397 300" fill="none" xmlns="http://www.w3.org/2000/svg">
<path d="M247.764 1.03366C261.388 -1.77131 273.305 3.77225 274.807 7.61237C298.802 -6.09803 326.629 31.7369 308.384 60.844C307.466 59.4248 306.063 55.3469 304.861 54.9462C303.658 54.5455 300.186 56.7828 298.6 57.9516C295.678 56.5324 288.782 52.5921 284.575 48.1843C280.367 43.7765 276.31 28.9836 274.807 22.1382C272.637 24.3087 265.892 30.5531 256.275 38.1665C244.253 47.6834 226.769 50.2852 220.006 57.1537C214.421 33.1607 223.697 5.98841 247.764 1.03366Z" fill="white"/>
<path d="M168.46 223.628C167.239 219.573 180.936 216.792 187.795 217.098C180.335 216.765 166.289 219.605 163.929 215.575C161.931 212.163 173.855 210.421 181.779 209.367C172.656 210.337 168.73 208.915 167.99 206.459C166.868 202.732 195.725 197.975 211.745 202.36C229.384 207.187 298.537 232.524 296.017 191.526L355.347 178.376C367.423 214.938 343.246 254.179 286.279 251.426C258.603 250.089 233.12 233.886 201.428 232.357C187.767 231.698 173.518 232.191 172.587 229.1C171.858 226.678 182.631 224.116 187.046 223.272C180.392 224.27 169.299 226.413 168.46 223.628Z" fill="white"/>
<path d="M321.581 188.365C324.101 229.363 229.383 207.187 211.745 202.36C195.724 197.976 166.867 202.732 167.99 206.459C168.855 209.333 174.086 210.792 186.903 208.657C181.157 209.614 161.4 211.259 163.928 215.575C166.289 219.605 180.334 216.765 187.795 217.098C180.935 216.792 167.239 219.573 168.46 223.629C169.298 226.413 180.391 224.27 187.045 223.272C182.63 224.117 171.857 226.679 172.586 229.1C173.517 232.191 187.766 231.699 201.427 232.358C249.365 234.669 287.153 268.672 337.955 254.636C410.162 234.685 402.96 138.623 277.813 121.262" stroke="#110545" stroke-width="3" stroke-linecap="round" stroke-linejoin="round"/>
<path d="M199.899 117.674C187.758 115.218 149.767 113.016 143.381 122.45L206.974 139.122L274.473 134.766L302.048 120.995C283.741 111.842 291.62 96.9265 297.987 78.5675C300.778 81.49 303.135 79.9741 304.77 77.271C307.678 72.4653 310.408 59.2319 304.77 55.9825C301.125 53.8818 298.537 56.5367 297.699 58.1267L293.991 39.3481C291.368 30.4262 281.633 17.1668 260.191 17.4694C242.01 17.726 229.227 30.7112 227.028 49.9817C224.325 73.6611 230.774 90.9872 229.138 102.427C227.763 112.041 212.44 120.21 199.899 117.674Z" fill="#110545"/>
<path d="M146.173 124.404C180.762 117.878 219.519 129.067 229.138 102.427C233.063 91.5575 224.325 73.661 227.028 49.9815C229.227 30.7111 242.01 17.7259 260.191 17.4693C281.633 17.1666 291.369 30.426 293.991 39.348L297.699 58.1266C298.537 56.5365 301.125 53.8817 304.77 55.9824C310.408 59.2318 307.678 72.4652 304.77 77.2709C303.135 79.974 300.778 81.4898 297.987 78.5674C291.62 96.9264 283.741 111.841 302.048 120.995C303.514 121.728 305.33 122.451 307.388 123.189" stroke="white" stroke-width="3" stroke-linecap="round" stroke-linejoin="round"/>
<path d="M306.502 124.524L300.588 122.404C299.756 122.788 298.407 123.326 294.489 125.784C290.572 128.242 277.942 134.106 272.117 136.73L272.117 153.246L306.502 124.524Z" fill="#110545"/>
<path d="M235.411 21.8002C234.463 22.9849 225.064 49.5888 225.064 53.1429C240.502 38.9458 243.672 21.8002 270.688 19.7866C265.238 13.8631 252.992 13.839 250.338 14.2181C247.021 14.692 236.359 20.6155 235.411 21.8002Z" fill="white"/>
<circle cx="272.119" cy="59.625" r="3.41602" fill="white"/>
<path d="M265.122 82.3847C255.685 83.3817 253.468 83.2036 249.451 81.8213C250.3 84.6444 253.051 89.3011 256.472 89.3011C260.964 89.3011 263.421 85.8493 265.122 82.3847Z" fill="white"/>
<circle cx="243.279" cy="57.4277" r="3.41602" fill="white"/>
<path d="M218.582 116.185C220.552 122.81 225.364 136.61 246.975 139.773C264.885 142.394 287.231 129.287 299.228 121.318" stroke="white" stroke-width="3" stroke-linecap="round" stroke-linejoin="round"/>
<path d="M291.437 27.4605C292.198 30.8419 287.88 39.2953 285.626 43.0994C282.05 32.6123 278.097 24.4623 267.979 18.7957V18.373C275.481 19.9933 290.676 24.0791 291.437 27.4605Z" fill="white"/>
<path d="M125.124 107.418L125.123 107.419L117.341 112.427C117.341 112.428 117.34 112.428 117.34 112.428C113.919 114.642 109.721 115.303 105.785 114.248C101.849 113.194 98.5433 110.521 96.6875 106.893L96.6874 106.893L92.4833 98.671C92.4833 98.6709 92.4832 98.6708 92.4832 98.6707C90.2835 94.3815 85.6227 91.9407 80.8443 92.5756C76.0659 93.2105 72.204 96.7839 71.2008 101.499L71.2003 101.501L69.2661 110.526C69.266 110.526 69.2659 110.527 69.2659 110.527C68.4147 114.511 65.9149 117.948 62.3867 119.985C58.8581 122.022 54.6314 122.469 50.7552 121.213L41.9808 118.372C41.9796 118.371 41.9784 118.371 41.9772 118.371C37.399 116.918 32.4012 118.49 29.4798 122.303C26.5576 126.117 26.3402 131.353 28.936 135.396C28.9361 135.396 28.9361 135.396 28.9362 135.397L33.9441 143.177C33.9442 143.177 33.9443 143.177 33.9443 143.177C36.1583 146.597 36.8201 150.795 35.7657 154.73C34.7112 158.666 32.0391 161.97 28.4115 163.825L20.1953 168.031C20.1937 168.032 20.1922 168.033 20.1906 168.034C15.9389 170.247 13.5256 174.884 14.1523 179.636C14.779 184.389 18.3119 188.242 22.9921 189.277C22.9938 189.277 22.9955 189.278 22.9971 189.278L32.0131 191.21C32.0135 191.211 32.0138 191.211 32.0142 191.211C35.9983 192.062 39.4351 194.562 41.4722 198.09C43.5092 201.618 43.9556 205.844 42.7007 209.72L125.124 107.418ZM125.124 107.418C129.167 104.814 134.409 105.028 138.226 107.954C142.042 110.88 143.611 115.886 142.146 120.466C142.146 120.467 142.146 120.467 142.146 120.468L139.311 129.245C138.048 133.127 138.494 137.363 140.537 140.898C142.579 144.431 146.025 146.931 150.018 147.777C150.019 147.777 150.021 147.777 150.022 147.778L159.038 149.737C163.735 150.762 167.284 154.623 167.91 159.389C168.536 164.155 166.107 168.801 161.835 171.006C161.835 171.006 161.835 171.006 161.834 171.006L153.636 175.213C153.635 175.213 153.635 175.214 153.635 175.214C150.004 177.065 147.329 180.37 146.274 184.307C145.219 188.243 145.883 192.441 148.101 195.86C148.101 195.861 148.102 195.862 148.103 195.863L153.088 203.642L153.092 203.648C155.711 207.697 155.5 212.956 152.563 216.781C149.627 220.607 144.602 222.171 140.013 220.687L140.013 220.687L131.229 217.85L131.228 217.849C127.359 216.602 123.143 217.048 119.621 219.078C116.1 221.107 113.6 224.532 112.741 228.505L112.74 228.508L110.806 237.532C109.79 242.242 105.921 245.805 101.143 246.431C96.3658 247.057 91.7105 244.611 89.5147 240.322C89.5146 240.322 89.5145 240.322 89.5144 240.322L85.3118 232.093L85.3114 232.092C83.4556 228.464 80.1501 225.791 76.2139 224.737C72.2776 223.682 68.0788 224.344 64.6576 226.558L64.6568 226.558L56.9028 231.583L125.124 107.418ZM39.863 218.504L42.7004 209.721L56.9018 231.584C52.8529 234.203 47.5943 233.991 43.7691 231.055C39.9437 228.119 38.3795 223.093 39.8629 218.505L39.863 218.504ZM60.939 161.442C56.4888 178.05 66.345 195.121 82.9535 199.572C99.5619 204.022 116.633 194.166 121.084 177.557C125.534 160.949 115.678 143.877 99.0691 139.427C82.4607 134.977 65.3893 144.833 60.939 161.442Z" fill="#DBFF00" stroke="#110545" stroke-width="3"/>
<rect x="21.0137" y="57.5171" width="21" height="12.3199" fill="#DBFF00"/>
<rect x="58.0781" y="47.5122" width="21" height="22.3255" fill="#DBFF00"/>
<rect x="95.1445" y="28.2139" width="21" height="41.6239" fill="#DBFF00"/>
<rect x="132.211" y="8.06445" width="21" height="61.7727" fill="#DBFF00"/>
</svg>
