<svg width="922" height="278" viewBox="0 0 922 278" fill="none" xmlns="http://www.w3.org/2000/svg">
<path d="M6.3 16.6133H31.95C40.71 16.6133 47.16 18.5333 51.3 22.3733C55.5 26.1533 57.6 31.4033 57.6 38.1233C57.6 44.8433 55.5 50.1233 51.3 53.9633C47.16 57.7433 40.71 59.6333 31.95 59.6333H22.5V79.6133H6.3V16.6133ZM30.15 46.3133C34.29 46.3133 37.2 45.6233 38.88 44.2433C40.56 42.8633 41.4 40.8233 41.4 38.1233C41.4 35.4233 40.56 33.3833 38.88 32.0033C37.2 30.6233 34.29 29.9333 30.15 29.9333H22.5V46.3133H30.15ZM78.3246 80.7833C75.7446 80.7833 73.4346 80.3933 71.3946 79.6133C69.4146 78.8333 67.7346 77.7833 66.3546 76.4633C64.9746 75.0833 63.9246 73.4933 63.2046 71.6933C62.4846 69.8333 62.1246 67.8233 62.1246 65.6633C62.1246 60.9233 63.5646 57.2933 66.4446 54.7733C69.3846 52.2533 73.7946 50.9933 79.6746 50.9933H93.2646V49.0133C93.2646 46.1333 92.5746 44.1533 91.1946 43.0733C89.8146 41.9333 87.9246 41.3633 85.5246 41.3633C83.2446 41.3633 81.5646 41.7233 80.4846 42.4433C79.4046 43.1633 78.8046 44.3033 78.6846 45.8633H64.8246C64.9446 43.7033 65.4846 41.7233 66.4446 39.9233C67.4046 38.0633 68.7546 36.4733 70.4946 35.1533C72.2946 33.7733 74.4846 32.6933 77.0646 31.9133C79.6446 31.1333 82.6146 30.7433 85.9746 30.7433C89.0946 30.7433 91.9446 31.1033 94.5246 31.8233C97.1646 32.4833 99.4146 33.5933 101.275 35.1533C103.135 36.6533 104.575 38.6333 105.595 41.0933C106.615 43.4933 107.125 46.4333 107.125 49.9133V67.4633C107.125 69.9833 107.185 72.2033 107.305 74.1233C107.425 75.9833 107.605 77.8133 107.845 79.6133H94.7046C94.5846 78.5933 94.4646 77.6933 94.3446 76.9133C94.2846 76.1333 94.2546 75.1733 94.2546 74.0333C92.8146 75.9533 90.8046 77.5733 88.2246 78.8933C85.7046 80.1533 82.4046 80.7833 78.3246 80.7833ZM82.8246 71.0633C85.7646 71.0633 88.2246 70.2233 90.2046 68.5433C92.2446 66.8633 93.2646 64.5533 93.2646 61.6133V59.6333H82.3746C80.3346 59.6333 78.8046 60.1733 77.7846 61.2533C76.8246 62.3333 76.3446 63.5933 76.3446 65.0333C76.3446 66.7733 76.8246 68.2133 77.7846 69.3533C78.8046 70.4933 80.4846 71.0633 82.8246 71.0633ZM136.022 80.7833C128.282 80.7833 122.642 79.2833 119.102 76.2833C115.562 73.2833 113.672 68.9933 113.432 63.4133H127.652C127.772 64.3133 127.922 65.1233 128.102 65.8433C128.342 66.5633 128.732 67.1933 129.272 67.7333C129.872 68.2733 130.682 68.6933 131.702 68.9933C132.722 69.2333 134.102 69.3533 135.842 69.3533C138.842 69.3533 141.002 68.8733 142.322 67.9133C143.642 66.8933 144.302 65.7833 144.302 64.5833C144.302 63.0233 143.702 61.8833 142.502 61.1633C141.302 60.3833 139.352 59.9933 136.652 59.9933H130.442V50.8133H135.932C140.552 50.8133 142.862 49.3433 142.862 46.4033C142.862 45.2033 142.292 44.1833 141.152 43.3433C140.012 42.5033 138.272 42.0833 135.932 42.0833C133.352 42.0833 131.522 42.5633 130.442 43.5233C129.362 44.4833 128.732 45.8633 128.552 47.6633H114.332C114.632 42.0233 116.612 37.7933 120.272 34.9733C123.992 32.1533 129.212 30.7433 135.932 30.7433C142.652 30.7433 147.782 32.0033 151.322 34.5233C154.862 36.9833 156.632 40.4033 156.632 44.7833C156.632 47.0633 156.092 49.1033 155.012 50.9033C153.932 52.7033 152.132 54.0233 149.612 54.8633C153.092 55.6433 155.432 56.9633 156.632 58.8233C157.892 60.6833 158.522 62.8733 158.522 65.3933C158.522 67.6133 158.012 69.6833 156.992 71.6033C155.972 73.4633 154.502 75.0833 152.582 76.4633C150.662 77.7833 148.292 78.8333 145.472 79.6133C142.712 80.3933 139.562 80.7833 136.022 80.7833ZM165.691 31.9133H178.471V38.3933C179.071 37.4333 179.821 36.5033 180.721 35.6033C181.681 34.6433 182.791 33.8033 184.051 33.0833C185.311 32.3633 186.721 31.7933 188.281 31.3733C189.841 30.9533 191.521 30.7433 193.321 30.7433C200.041 30.7433 205.141 32.7233 208.621 36.6833C212.101 40.6433 213.841 46.5533 213.841 54.4133V56.2133C213.841 60.2933 213.361 63.8633 212.401 66.9233C211.441 69.9833 210.061 72.5333 208.261 74.5733C206.461 76.6133 204.301 78.1733 201.781 79.2533C199.261 80.2733 196.441 80.7833 193.321 80.7833C190.621 80.7833 188.041 80.1833 185.581 78.9833C183.181 77.7233 181.171 75.9233 179.551 73.5833V97.6133H165.691V31.9133ZM189.991 69.3533C192.751 69.3533 195.031 68.2433 196.831 66.0233C198.691 63.8033 199.621 60.5333 199.621 56.2133V54.4133C199.621 50.2733 198.721 47.2133 196.921 45.2333C195.181 43.1933 192.871 42.1733 189.991 42.1733C187.051 42.1733 184.561 43.1033 182.521 44.9633C180.541 46.7633 179.551 49.4633 179.551 53.0633V57.5633C179.551 61.3433 180.541 64.2533 182.521 66.2933C184.561 68.3333 187.051 69.3533 189.991 69.3533ZM235.913 80.7833C233.333 80.7833 231.023 80.3933 228.983 79.6133C227.003 78.8333 225.323 77.7833 223.943 76.4633C222.563 75.0833 221.513 73.4933 220.793 71.6933C220.073 69.8333 219.713 67.8233 219.713 65.6633C219.713 60.9233 221.153 57.2933 224.033 54.7733C226.973 52.2533 231.383 50.9933 237.263 50.9933H250.853V49.0133C250.853 46.1333 250.163 44.1533 248.783 43.0733C247.403 41.9333 245.513 41.3633 243.113 41.3633C240.833 41.3633 239.153 41.7233 238.073 42.4433C236.993 43.1633 236.393 44.3033 236.273 45.8633H222.413C222.533 43.7033 223.073 41.7233 224.033 39.9233C224.993 38.0633 226.343 36.4733 228.083 35.1533C229.883 33.7733 232.073 32.6933 234.653 31.9133C237.233 31.1333 240.203 30.7433 243.563 30.7433C246.683 30.7433 249.533 31.1033 252.113 31.8233C254.753 32.4833 257.003 33.5933 258.863 35.1533C260.723 36.6533 262.163 38.6333 263.183 41.0933C264.203 43.4933 264.713 46.4333 264.713 49.9133V67.4633C264.713 69.9833 264.773 72.2033 264.893 74.1233C265.013 75.9833 265.193 77.8133 265.433 79.6133H252.293C252.173 78.5933 252.053 77.6933 251.933 76.9133C251.873 76.1333 251.843 75.1733 251.843 74.0333C250.403 75.9533 248.393 77.5733 245.813 78.8933C243.293 80.1533 239.993 80.7833 235.913 80.7833ZM240.413 71.0633C243.353 71.0633 245.813 70.2233 247.793 68.5433C249.833 66.8633 250.853 64.5533 250.853 61.6133V59.6333H239.963C237.923 59.6333 236.393 60.1733 235.373 61.2533C234.413 62.3333 233.933 63.5933 233.933 65.0333C233.933 66.7733 234.413 68.2133 235.373 69.3533C236.393 70.4933 238.073 71.0633 240.413 71.0633ZM296.22 80.7833C292.74 80.7833 289.5 80.2133 286.5 79.0733C283.56 77.8733 281.01 76.1333 278.85 73.8533C276.69 71.5133 274.98 68.6333 273.72 65.2133C272.52 61.7333 271.92 57.6833 271.92 53.0633V51.2633C271.92 45.9233 272.34 41.1533 273.18 36.9533C274.08 32.7533 275.52 29.1833 277.5 26.2433C279.54 23.2433 282.18 20.9333 285.42 19.3133C288.66 17.6333 292.68 16.6733 297.48 16.4333C299.34 16.3733 301.2 16.3133 303.06 16.2533C304.98 16.1933 306.78 16.1033 308.46 15.9833C310.2 15.8633 311.79 15.6833 313.23 15.4433C314.67 15.2033 315.9 14.8433 316.92 14.3633V26.2433C316.44 26.5433 315.75 26.8133 314.85 27.0533C314.01 27.2333 312.87 27.4133 311.43 27.5933C309.99 27.7733 308.25 27.9233 306.21 28.0433C304.17 28.1633 301.71 28.2533 298.83 28.3133C296.19 28.3133 293.91 28.5833 291.99 29.1233C290.13 29.6633 288.54 30.5333 287.22 31.7333C285.96 32.8733 284.97 34.3733 284.25 36.2333C283.53 38.0333 283.02 40.2233 282.72 42.8033C284.04 40.4033 286.11 38.3933 288.93 36.7733C291.75 35.1533 295.53 34.3433 300.27 34.3433C303.21 34.3433 305.91 34.7933 308.37 35.6933C310.89 36.5333 313.05 37.8233 314.85 39.5633C316.65 41.2433 318.03 43.4033 318.99 46.0433C320.01 48.6233 320.52 51.6233 320.52 55.0433V56.7533C320.52 60.5333 319.89 63.9233 318.63 66.9233C317.37 69.9233 315.66 72.4433 313.5 74.4833C311.34 76.5233 308.76 78.0833 305.76 79.1633C302.82 80.2433 299.64 80.7833 296.22 80.7833ZM296.22 69.2633C299.46 69.2633 301.95 68.2433 303.69 66.2033C305.43 64.1033 306.3 61.3733 306.3 58.0133V56.1233C306.3 52.5833 305.4 49.8533 303.6 47.9333C301.8 45.9533 299.34 44.9633 296.22 44.9633C293.16 44.9633 290.7 45.9233 288.84 47.8433C287.04 49.7633 286.14 52.5233 286.14 56.1233V57.6533C286.14 61.1333 287.1 63.9533 289.02 66.1133C290.94 68.2133 293.34 69.2633 296.22 69.2633ZM350.262 80.7833C346.902 80.7833 343.752 80.3033 340.812 79.3433C337.872 78.3233 335.292 76.7933 333.072 74.7533C330.852 72.7133 329.112 70.1633 327.852 67.1033C326.592 63.9833 325.962 60.3533 325.962 56.2133V54.4133C325.962 50.5133 326.592 47.0933 327.852 44.1533C329.112 41.2133 330.852 38.7533 333.072 36.7733C335.292 34.7933 337.872 33.2933 340.812 32.2733C343.752 31.2533 346.902 30.7433 350.262 30.7433C353.622 30.7433 356.772 31.2533 359.712 32.2733C362.652 33.2933 365.232 34.7933 367.452 36.7733C369.672 38.7533 371.412 41.2133 372.672 44.1533C373.932 47.0933 374.562 50.5133 374.562 54.4133V56.2133C374.562 60.2933 373.932 63.8933 372.672 67.0133C371.412 70.0733 369.672 72.6233 367.452 74.6633C365.232 76.7033 362.652 78.2333 359.712 79.2533C356.772 80.2733 353.622 80.7833 350.262 80.7833ZM350.262 69.2633C353.502 69.2633 355.992 68.0933 357.732 65.7533C359.472 63.4133 360.342 60.2333 360.342 56.2133V54.4133C360.342 50.8133 359.472 47.9033 357.732 45.6833C355.992 43.4033 353.502 42.2633 350.262 42.2633C347.022 42.2633 344.532 43.4033 342.792 45.6833C341.052 47.9033 340.182 50.8133 340.182 54.4133V56.2133C340.182 60.3533 341.052 63.5633 342.792 65.8433C344.532 68.1233 347.022 69.2633 350.262 69.2633ZM392.818 43.2533H378.148V31.9133H421.348V43.2533H406.678V79.6133H392.818V43.2533ZM455.595 62.8733C454.215 63.6533 452.625 64.3733 450.825 65.0333C449.025 65.6933 446.685 66.0233 443.805 66.0233C437.745 66.0233 433.305 64.5833 430.485 61.7033C427.665 58.8233 426.255 54.4433 426.255 48.5633V31.9133H440.115V47.2133C440.115 49.8533 440.685 51.7433 441.825 52.8833C442.965 53.9633 444.975 54.5033 447.855 54.5033C449.895 54.5033 451.575 54.2633 452.895 53.7833C454.215 53.2433 455.115 52.7333 455.595 52.2533V31.9133H469.455V79.6133H455.595V62.8733ZM479.373 31.9133H492.873V60.7133L513.123 31.9133H525.273V79.6133H511.773V50.8133L491.523 79.6133H479.373V31.9133ZM534.305 31.9133H548.165V50.0033H551.765L565.085 31.9133H580.205L562.655 54.3233L581.105 79.6133H564.725L551.765 60.6233H548.165V79.6133H534.305V31.9133ZM27 170.783C23.64 170.783 20.49 170.303 17.55 169.343C14.61 168.323 12.03 166.793 9.81 164.753C7.59 162.713 5.85 160.163 4.59 157.103C3.33 153.983 2.7 150.353 2.7 146.213V144.413C2.7 140.513 3.33 137.093 4.59 134.153C5.85 131.213 7.59 128.753 9.81 126.773C12.03 124.793 14.61 123.293 17.55 122.273C20.49 121.253 23.64 120.743 27 120.743C30.36 120.743 33.51 121.253 36.45 122.273C39.39 123.293 41.97 124.793 44.19 126.773C46.41 128.753 48.15 131.213 49.41 134.153C50.67 137.093 51.3 140.513 51.3 144.413V146.213C51.3 150.293 50.67 153.893 49.41 157.013C48.15 160.073 46.41 162.623 44.19 164.663C41.97 166.703 39.39 168.233 36.45 169.253C33.51 170.273 30.36 170.783 27 170.783ZM27 159.263C30.24 159.263 32.73 158.093 34.47 155.753C36.21 153.413 37.08 150.233 37.08 146.213V144.413C37.08 140.813 36.21 137.903 34.47 135.683C32.73 133.403 30.24 132.263 27 132.263C23.76 132.263 21.27 133.403 19.53 135.683C17.79 137.903 16.92 140.813 16.92 144.413V146.213C16.92 150.353 17.79 153.563 19.53 155.843C21.27 158.123 23.76 159.263 27 159.263ZM58.4648 121.913H72.3248V139.643H90.5048V121.913H104.365V169.613H90.5048V150.983H72.3248V169.613H58.4648V121.913ZM114.746 170.783C114.266 170.783 113.576 170.753 112.676 170.693C111.836 170.693 111.176 170.633 110.696 170.513V158.453C110.996 158.513 111.446 158.543 112.046 158.543C113.066 158.543 113.966 158.243 114.746 157.643C115.526 156.983 116.186 155.933 116.726 154.493C117.266 152.993 117.656 151.073 117.896 148.733C118.196 146.333 118.346 143.393 118.346 139.913V121.913H157.946V169.613H144.086V133.253H131.306V141.713C131.306 147.653 130.946 152.513 130.226 156.293C129.506 160.073 128.456 163.043 127.076 165.203C125.696 167.363 123.956 168.833 121.856 169.613C119.816 170.393 117.446 170.783 114.746 170.783ZM181.772 170.783C179.192 170.783 176.882 170.393 174.842 169.613C172.862 168.833 171.182 167.783 169.802 166.463C168.422 165.083 167.372 163.493 166.652 161.693C165.932 159.833 165.572 157.823 165.572 155.663C165.572 150.923 167.012 147.293 169.892 144.773C172.832 142.253 177.242 140.993 183.122 140.993H196.712V139.013C196.712 136.133 196.022 134.153 194.642 133.073C193.262 131.933 191.372 131.363 188.972 131.363C186.692 131.363 185.012 131.723 183.932 132.443C182.852 133.163 182.252 134.303 182.132 135.863H168.272C168.392 133.703 168.932 131.723 169.892 129.923C170.852 128.063 172.202 126.473 173.942 125.153C175.742 123.773 177.932 122.693 180.512 121.913C183.092 121.133 186.062 120.743 189.422 120.743C192.542 120.743 195.392 121.103 197.972 121.823C200.612 122.483 202.862 123.593 204.722 125.153C206.582 126.653 208.022 128.633 209.042 131.093C210.062 133.493 210.572 136.433 210.572 139.913V157.463C210.572 159.983 210.632 162.203 210.752 164.123C210.872 165.983 211.052 167.813 211.292 169.613H198.152C198.032 168.593 197.912 167.693 197.792 166.913C197.732 166.133 197.702 165.173 197.702 164.033C196.262 165.953 194.252 167.573 191.672 168.893C189.152 170.153 185.852 170.783 181.772 170.783ZM186.272 161.063C189.212 161.063 191.672 160.223 193.652 158.543C195.692 156.863 196.712 154.553 196.712 151.613V149.633H185.822C183.782 149.633 182.252 150.173 181.232 151.253C180.272 152.333 179.792 153.593 179.792 155.033C179.792 156.773 180.272 158.213 181.232 159.353C182.252 160.493 183.932 161.063 186.272 161.063ZM219.129 121.913H232.629V150.713L252.879 121.913H265.029V169.613H251.529V140.813L231.279 169.613H219.129V121.913ZM242.079 116.963C236.199 116.963 232.029 115.853 229.569 113.633C227.109 111.353 225.879 107.963 225.879 103.463H238.119C238.119 105.503 238.449 106.913 239.109 107.693C239.769 108.473 240.759 108.863 242.079 108.863C243.399 108.863 244.389 108.473 245.049 107.693C245.709 106.913 246.039 105.503 246.039 103.463H258.279C258.279 107.963 257.049 111.353 254.589 113.633C252.129 115.853 247.959 116.963 242.079 116.963ZM274.061 121.913H287.921V139.643H306.101V121.913H319.961V169.613H306.101V150.983H287.921V169.613H274.061V121.913ZM326.742 137.753H356.442V151.073H326.742V137.753ZM385.682 170.783C382.142 170.783 378.872 170.273 375.872 169.253C372.932 168.233 370.382 166.703 368.222 164.663C366.062 162.623 364.382 160.073 363.182 157.013C361.982 153.953 361.382 150.353 361.382 146.213V144.413C361.382 140.633 362.012 137.273 363.272 134.333C364.592 131.393 366.332 128.933 368.492 126.953C370.712 124.913 373.292 123.383 376.232 122.363C379.172 121.283 382.322 120.743 385.682 120.743C389.282 120.743 392.432 121.223 395.132 122.183C397.892 123.143 400.202 124.463 402.062 126.143C403.922 127.763 405.362 129.683 406.382 131.903C407.402 134.123 408.002 136.493 408.182 139.013H393.962C393.482 136.853 392.582 135.203 391.262 134.063C390.002 132.863 388.142 132.263 385.682 132.263C382.742 132.263 380.312 133.283 378.392 135.323C376.532 137.303 375.602 140.333 375.602 144.413V146.213C375.602 150.653 376.502 153.923 378.302 156.023C380.162 158.123 382.622 159.173 385.682 159.173C387.782 159.173 389.552 158.633 390.992 157.553C392.492 156.413 393.482 154.733 393.962 152.513H408.182C408.002 155.333 407.342 157.883 406.202 160.163C405.062 162.383 403.502 164.273 401.522 165.833C399.602 167.393 397.292 168.623 394.592 169.523C391.952 170.363 388.982 170.783 385.682 170.783ZM437.899 170.783C434.419 170.783 431.149 170.303 428.089 169.343C425.089 168.323 422.479 166.793 420.259 164.753C418.039 162.713 416.299 160.163 415.039 157.103C413.779 153.983 413.149 150.353 413.149 146.213V144.413C413.149 140.453 413.749 137.003 414.949 134.063C416.209 131.123 417.889 128.663 419.989 126.683C422.149 124.703 424.669 123.233 427.549 122.273C430.489 121.253 433.639 120.743 436.999 120.743C444.859 120.743 450.799 122.783 454.819 126.863C458.839 130.883 460.849 136.733 460.849 144.413V149.363H427.369C427.429 151.223 427.759 152.813 428.359 154.133C428.959 155.393 429.739 156.443 430.699 157.283C431.659 158.123 432.739 158.753 433.939 159.173C435.199 159.533 436.519 159.713 437.899 159.713C440.539 159.713 442.609 159.323 444.109 158.543C445.669 157.703 446.689 156.593 447.169 155.213H459.949C458.989 160.433 456.619 164.333 452.839 166.913C449.059 169.493 444.079 170.783 437.899 170.783ZM437.449 131.723C436.189 131.723 434.959 131.873 433.759 132.173C432.619 132.473 431.569 132.983 430.609 133.703C429.709 134.363 428.959 135.233 428.359 136.313C427.819 137.393 427.519 138.713 427.459 140.273H447.259C447.259 138.593 446.989 137.213 446.449 136.133C445.909 135.053 445.189 134.183 444.289 133.523C443.449 132.863 442.429 132.413 441.229 132.173C440.029 131.873 438.769 131.723 437.449 131.723ZM468.035 121.913H480.815V128.393C481.415 127.433 482.165 126.503 483.065 125.603C484.025 124.643 485.135 123.803 486.395 123.083C487.655 122.363 489.065 121.793 490.625 121.373C492.185 120.953 493.865 120.743 495.665 120.743C502.385 120.743 507.485 122.723 510.965 126.683C514.445 130.643 516.185 136.553 516.185 144.413V146.213C516.185 150.293 515.705 153.863 514.745 156.923C513.785 159.983 512.405 162.533 510.605 164.573C508.805 166.613 506.645 168.173 504.125 169.253C501.605 170.273 498.785 170.783 495.665 170.783C492.965 170.783 490.385 170.183 487.925 168.983C485.525 167.723 483.515 165.923 481.895 163.583V187.613H468.035V121.913ZM492.335 159.353C495.095 159.353 497.375 158.243 499.175 156.023C501.035 153.803 501.965 150.533 501.965 146.213V144.413C501.965 140.273 501.065 137.213 499.265 135.233C497.525 133.193 495.215 132.173 492.335 132.173C489.395 132.173 486.905 133.103 484.865 134.963C482.885 136.763 481.895 139.463 481.895 143.063V147.563C481.895 151.343 482.885 154.253 484.865 156.293C486.905 158.333 489.395 159.353 492.335 159.353ZM523.406 121.913H548.966C552.086 121.913 554.756 122.243 556.976 122.903C559.256 123.503 561.086 124.373 562.466 125.513C563.906 126.653 564.956 128.003 565.616 129.563C566.276 131.063 566.606 132.713 566.606 134.513C566.606 136.793 565.946 138.923 564.626 140.903C563.306 142.823 561.416 144.113 558.956 144.773C561.896 145.493 564.206 146.873 565.886 148.913C567.566 150.953 568.406 153.323 568.406 156.023C568.406 160.163 566.936 163.463 563.996 165.923C561.056 168.383 556.646 169.613 550.766 169.613H523.406V121.913ZM547.346 159.173C552.146 159.173 554.546 157.703 554.546 154.763C554.546 151.763 552.146 150.263 547.346 150.263H537.266V159.173H547.346ZM546.536 140.543C548.936 140.543 550.556 140.183 551.396 139.463C552.296 138.683 552.746 137.663 552.746 136.403C552.746 135.083 552.296 134.093 551.396 133.433C550.496 132.713 548.876 132.353 546.536 132.353H537.266V140.543H546.536ZM575.613 121.913H589.113V150.713L609.363 121.913H621.513V169.613H608.013V140.813L587.763 169.613H575.613V121.913ZM653.045 170.783C649.505 170.783 646.235 170.273 643.235 169.253C640.295 168.233 637.745 166.703 635.585 164.663C633.425 162.623 631.745 160.073 630.545 157.013C629.345 153.953 628.745 150.353 628.745 146.213V144.413C628.745 140.633 629.375 137.273 630.635 134.333C631.955 131.393 633.695 128.933 635.855 126.953C638.075 124.913 640.655 123.383 643.595 122.363C646.535 121.283 649.685 120.743 653.045 120.743C656.645 120.743 659.795 121.223 662.495 122.183C665.255 123.143 667.565 124.463 669.425 126.143C671.285 127.763 672.725 129.683 673.745 131.903C674.765 134.123 675.365 136.493 675.545 139.013H661.325C660.845 136.853 659.945 135.203 658.625 134.063C657.365 132.863 655.505 132.263 653.045 132.263C650.105 132.263 647.675 133.283 645.755 135.323C643.895 137.303 642.965 140.333 642.965 144.413V146.213C642.965 150.653 643.865 153.923 645.665 156.023C647.525 158.123 649.985 159.173 653.045 159.173C655.145 159.173 656.915 158.633 658.355 157.553C659.855 156.413 660.845 154.733 661.325 152.513H675.545C675.365 155.333 674.705 157.883 673.565 160.163C672.425 162.383 670.865 164.273 668.885 165.833C666.965 167.393 664.655 168.623 661.955 169.523C659.315 170.363 656.345 170.783 653.045 170.783ZM704.813 170.783C701.453 170.783 698.303 170.303 695.363 169.343C692.423 168.323 689.843 166.793 687.623 164.753C685.403 162.713 683.663 160.163 682.403 157.103C681.143 153.983 680.513 150.353 680.513 146.213V144.413C680.513 140.513 681.143 137.093 682.403 134.153C683.663 131.213 685.403 128.753 687.623 126.773C689.843 124.793 692.423 123.293 695.363 122.273C698.303 121.253 701.453 120.743 704.813 120.743C708.173 120.743 711.323 121.253 714.263 122.273C717.203 123.293 719.783 124.793 722.003 126.773C724.223 128.753 725.963 131.213 727.223 134.153C728.483 137.093 729.113 140.513 729.113 144.413V146.213C729.113 150.293 728.483 153.893 727.223 157.013C725.963 160.073 724.223 162.623 722.003 164.663C719.783 166.703 717.203 168.233 714.263 169.253C711.323 170.273 708.173 170.783 704.813 170.783ZM704.813 159.263C708.053 159.263 710.543 158.093 712.283 155.753C714.023 153.413 714.893 150.233 714.893 146.213V144.413C714.893 140.813 714.023 137.903 712.283 135.683C710.543 133.403 708.053 132.263 704.813 132.263C701.573 132.263 699.083 133.403 697.343 135.683C695.603 137.903 694.733 140.813 694.733 144.413V146.213C694.733 150.353 695.603 153.563 697.343 155.843C699.083 158.123 701.573 159.263 704.813 159.263ZM736.277 121.913H761.837C764.957 121.913 767.627 122.243 769.847 122.903C772.127 123.503 773.957 124.373 775.337 125.513C776.777 126.653 777.827 128.003 778.487 129.563C779.147 131.063 779.477 132.713 779.477 134.513C779.477 136.793 778.817 138.923 777.497 140.903C776.177 142.823 774.287 144.113 771.827 144.773C774.767 145.493 777.077 146.873 778.757 148.913C780.437 150.953 781.277 153.323 781.277 156.023C781.277 160.163 779.807 163.463 776.867 165.923C773.927 168.383 769.517 169.613 763.637 169.613H736.277V121.913ZM760.217 159.173C765.017 159.173 767.417 157.703 767.417 154.763C767.417 151.763 765.017 150.263 760.217 150.263H750.137V159.173H760.217ZM759.407 140.543C761.807 140.543 763.427 140.183 764.267 139.463C765.167 138.683 765.617 137.663 765.617 136.403C765.617 135.083 765.167 134.093 764.267 133.433C763.367 132.713 761.747 132.353 759.407 132.353H750.137V140.543H759.407ZM4.5 211.913H18V240.713L38.25 211.913H50.4V259.613H36.9V230.813L16.65 259.613H4.5V211.913ZM81.9316 211.913H126.932V259.613H113.072V223.253H95.7916V259.613H81.9316V211.913ZM135.896 211.913H148.676V218.393C149.276 217.433 150.026 216.503 150.926 215.603C151.886 214.643 152.996 213.803 154.256 213.083C155.516 212.363 156.926 211.793 158.486 211.373C160.046 210.953 161.726 210.743 163.526 210.743C170.246 210.743 175.346 212.723 178.826 216.683C182.306 220.643 184.046 226.553 184.046 234.413V236.213C184.046 240.293 183.566 243.863 182.606 246.923C181.646 249.983 180.266 252.533 178.466 254.573C176.666 256.613 174.506 258.173 171.986 259.253C169.466 260.273 166.646 260.783 163.526 260.783C160.826 260.783 158.246 260.183 155.786 258.983C153.386 257.723 151.376 255.923 149.756 253.583V277.613H135.896V211.913ZM160.196 249.353C162.956 249.353 165.236 248.243 167.036 246.023C168.896 243.803 169.826 240.533 169.826 236.213V234.413C169.826 230.273 168.926 227.213 167.126 225.233C165.386 223.193 163.076 222.173 160.196 222.173C157.256 222.173 154.766 223.103 152.726 224.963C150.746 226.763 149.756 229.463 149.756 233.063V237.563C149.756 241.343 150.746 244.253 152.726 246.293C154.766 248.333 157.256 249.353 160.196 249.353ZM191.268 211.913H204.768V240.713L225.018 211.913H237.168V259.613H223.668V230.813L203.418 259.613H191.268V211.913ZM247.549 260.783C247.069 260.783 246.379 260.753 245.479 260.693C244.639 260.693 243.979 260.633 243.499 260.513V248.453C243.799 248.513 244.249 248.543 244.849 248.543C245.869 248.543 246.769 248.243 247.549 247.643C248.329 246.983 248.989 245.933 249.529 244.493C250.069 242.993 250.459 241.073 250.699 238.733C250.999 236.333 251.149 233.393 251.149 229.913V211.913H290.749V259.613H276.889V223.253H264.109V231.713C264.109 237.653 263.749 242.513 263.029 246.293C262.309 250.073 261.259 253.043 259.879 255.203C258.499 257.363 256.759 258.833 254.659 259.613C252.619 260.393 250.249 260.783 247.549 260.783ZM322.225 260.783C318.865 260.783 315.715 260.303 312.775 259.343C309.835 258.323 307.255 256.793 305.035 254.753C302.815 252.713 301.075 250.163 299.815 247.103C298.555 243.983 297.925 240.353 297.925 236.213V234.413C297.925 230.513 298.555 227.093 299.815 224.153C301.075 221.213 302.815 218.753 305.035 216.773C307.255 214.793 309.835 213.293 312.775 212.273C315.715 211.253 318.865 210.743 322.225 210.743C325.585 210.743 328.735 211.253 331.675 212.273C334.615 213.293 337.195 214.793 339.415 216.773C341.635 218.753 343.375 221.213 344.635 224.153C345.895 227.093 346.525 230.513 346.525 234.413V236.213C346.525 240.293 345.895 243.893 344.635 247.013C343.375 250.073 341.635 252.623 339.415 254.663C337.195 256.703 334.615 258.233 331.675 259.253C328.735 260.273 325.585 260.783 322.225 260.783ZM322.225 249.263C325.465 249.263 327.955 248.093 329.695 245.753C331.435 243.413 332.305 240.233 332.305 236.213V234.413C332.305 230.813 331.435 227.903 329.695 225.683C327.955 223.403 325.465 222.263 322.225 222.263C318.985 222.263 316.495 223.403 314.755 225.683C313.015 227.903 312.145 230.813 312.145 234.413V236.213C312.145 240.353 313.015 243.563 314.755 245.843C316.495 248.123 318.985 249.263 322.225 249.263ZM364.082 235.043L349.322 211.913H363.902L374.702 230.183H377.402V211.913H391.262V230.183H393.962L405.392 211.913H419.432L404.582 234.053L420.332 259.613H405.032L393.962 240.443H391.262V259.613H377.402V240.443H374.612L363.092 259.613H348.332L364.082 235.043ZM446.952 260.783C443.472 260.783 440.202 260.303 437.142 259.343C434.142 258.323 431.532 256.793 429.312 254.753C427.092 252.713 425.352 250.163 424.092 247.103C422.832 243.983 422.202 240.353 422.202 236.213V234.413C422.202 230.453 422.802 227.003 424.002 224.063C425.262 221.123 426.942 218.663 429.042 216.683C431.202 214.703 433.722 213.233 436.602 212.273C439.542 211.253 442.692 210.743 446.052 210.743C453.912 210.743 459.852 212.783 463.872 216.863C467.892 220.883 469.902 226.733 469.902 234.413V239.363H436.422C436.482 241.223 436.812 242.813 437.412 244.133C438.012 245.393 438.792 246.443 439.752 247.283C440.712 248.123 441.792 248.753 442.992 249.173C444.252 249.533 445.572 249.713 446.952 249.713C449.592 249.713 451.662 249.323 453.162 248.543C454.722 247.703 455.742 246.593 456.222 245.213H469.002C468.042 250.433 465.672 254.333 461.892 256.913C458.112 259.493 453.132 260.783 446.952 260.783ZM446.502 221.723C445.242 221.723 444.012 221.873 442.812 222.173C441.672 222.473 440.622 222.983 439.662 223.703C438.762 224.363 438.012 225.233 437.412 226.313C436.872 227.393 436.572 228.713 436.512 230.273H456.312C456.312 228.593 456.042 227.213 455.502 226.133C454.962 225.053 454.242 224.183 453.342 223.523C452.502 222.863 451.482 222.413 450.282 222.173C449.082 221.873 447.822 221.723 446.502 221.723ZM477.088 211.913H490.948V229.643H509.128V211.913H522.988V259.613H509.128V240.983H490.948V259.613H477.088V211.913ZM532.02 211.913H545.52V240.713L565.77 211.913H577.92V259.613H564.42V230.813L544.17 259.613H532.02V211.913ZM586.951 211.913H600.451V240.713L620.701 211.913H632.851V259.613H619.351V230.813L599.101 259.613H586.951V211.913ZM609.901 206.963C604.021 206.963 599.851 205.853 597.391 203.633C594.931 201.353 593.701 197.963 593.701 193.463H605.941C605.941 195.503 606.271 196.913 606.931 197.693C607.591 198.473 608.581 198.863 609.901 198.863C611.221 198.863 612.211 198.473 612.871 197.693C613.531 196.913 613.861 195.503 613.861 193.463H626.101C626.101 197.963 624.871 201.353 622.411 203.633C619.951 205.853 615.781 206.963 609.901 206.963Z" fill="#110545"/>
<mask id="mask0_1307_7611" style="mask-type:alpha" maskUnits="userSpaceOnUse" x="2" y="14" width="780" height="264">
<path d="M6.3 16.6133H31.95C40.71 16.6133 47.16 18.5333 51.3 22.3733C55.5 26.1533 57.6 31.4033 57.6 38.1233C57.6 44.8433 55.5 50.1233 51.3 53.9633C47.16 57.7433 40.71 59.6333 31.95 59.6333H22.5V79.6133H6.3V16.6133ZM30.15 46.3133C34.29 46.3133 37.2 45.6233 38.88 44.2433C40.56 42.8633 41.4 40.8233 41.4 38.1233C41.4 35.4233 40.56 33.3833 38.88 32.0033C37.2 30.6233 34.29 29.9333 30.15 29.9333H22.5V46.3133H30.15ZM78.3246 80.7833C75.7446 80.7833 73.4346 80.3933 71.3946 79.6133C69.4146 78.8333 67.7346 77.7833 66.3546 76.4633C64.9746 75.0833 63.9246 73.4933 63.2046 71.6933C62.4846 69.8333 62.1246 67.8233 62.1246 65.6633C62.1246 60.9233 63.5646 57.2933 66.4446 54.7733C69.3846 52.2533 73.7946 50.9933 79.6746 50.9933H93.2646V49.0133C93.2646 46.1333 92.5746 44.1533 91.1946 43.0733C89.8146 41.9333 87.9246 41.3633 85.5246 41.3633C83.2446 41.3633 81.5646 41.7233 80.4846 42.4433C79.4046 43.1633 78.8046 44.3033 78.6846 45.8633H64.8246C64.9446 43.7033 65.4846 41.7233 66.4446 39.9233C67.4046 38.0633 68.7546 36.4733 70.4946 35.1533C72.2946 33.7733 74.4846 32.6933 77.0646 31.9133C79.6446 31.1333 82.6146 30.7433 85.9746 30.7433C89.0946 30.7433 91.9446 31.1033 94.5246 31.8233C97.1646 32.4833 99.4146 33.5933 101.275 35.1533C103.135 36.6533 104.575 38.6333 105.595 41.0933C106.615 43.4933 107.125 46.4333 107.125 49.9133V67.4633C107.125 69.9833 107.185 72.2033 107.305 74.1233C107.425 75.9833 107.605 77.8133 107.845 79.6133H94.7046C94.5846 78.5933 94.4646 77.6933 94.3446 76.9133C94.2846 76.1333 94.2546 75.1733 94.2546 74.0333C92.8146 75.9533 90.8046 77.5733 88.2246 78.8933C85.7046 80.1533 82.4046 80.7833 78.3246 80.7833ZM82.8246 71.0633C85.7646 71.0633 88.2246 70.2233 90.2046 68.5433C92.2446 66.8633 93.2646 64.5533 93.2646 61.6133V59.6333H82.3746C80.3346 59.6333 78.8046 60.1733 77.7846 61.2533C76.8246 62.3333 76.3446 63.5933 76.3446 65.0333C76.3446 66.7733 76.8246 68.2133 77.7846 69.3533C78.8046 70.4933 80.4846 71.0633 82.8246 71.0633ZM136.022 80.7833C128.282 80.7833 122.642 79.2833 119.102 76.2833C115.562 73.2833 113.672 68.9933 113.432 63.4133H127.652C127.772 64.3133 127.922 65.1233 128.102 65.8433C128.342 66.5633 128.732 67.1933 129.272 67.7333C129.872 68.2733 130.682 68.6933 131.702 68.9933C132.722 69.2333 134.102 69.3533 135.842 69.3533C138.842 69.3533 141.002 68.8733 142.322 67.9133C143.642 66.8933 144.302 65.7833 144.302 64.5833C144.302 63.0233 143.702 61.8833 142.502 61.1633C141.302 60.3833 139.352 59.9933 136.652 59.9933H130.442V50.8133H135.932C140.552 50.8133 142.862 49.3433 142.862 46.4033C142.862 45.2033 142.292 44.1833 141.152 43.3433C140.012 42.5033 138.272 42.0833 135.932 42.0833C133.352 42.0833 131.522 42.5633 130.442 43.5233C129.362 44.4833 128.732 45.8633 128.552 47.6633H114.332C114.632 42.0233 116.612 37.7933 120.272 34.9733C123.992 32.1533 129.212 30.7433 135.932 30.7433C142.652 30.7433 147.782 32.0033 151.322 34.5233C154.862 36.9833 156.632 40.4033 156.632 44.7833C156.632 47.0633 156.092 49.1033 155.012 50.9033C153.932 52.7033 152.132 54.0233 149.612 54.8633C153.092 55.6433 155.432 56.9633 156.632 58.8233C157.892 60.6833 158.522 62.8733 158.522 65.3933C158.522 67.6133 158.012 69.6833 156.992 71.6033C155.972 73.4633 154.502 75.0833 152.582 76.4633C150.662 77.7833 148.292 78.8333 145.472 79.6133C142.712 80.3933 139.562 80.7833 136.022 80.7833ZM165.691 31.9133H178.471V38.3933C179.071 37.4333 179.821 36.5033 180.721 35.6033C181.681 34.6433 182.791 33.8033 184.051 33.0833C185.311 32.3633 186.721 31.7933 188.281 31.3733C189.841 30.9533 191.521 30.7433 193.321 30.7433C200.041 30.7433 205.141 32.7233 208.621 36.6833C212.101 40.6433 213.841 46.5533 213.841 54.4133V56.2133C213.841 60.2933 213.361 63.8633 212.401 66.9233C211.441 69.9833 210.061 72.5333 208.261 74.5733C206.461 76.6133 204.301 78.1733 201.781 79.2533C199.261 80.2733 196.441 80.7833 193.321 80.7833C190.621 80.7833 188.041 80.1833 185.581 78.9833C183.181 77.7233 181.171 75.9233 179.551 73.5833V97.6133H165.691V31.9133ZM189.991 69.3533C192.751 69.3533 195.031 68.2433 196.831 66.0233C198.691 63.8033 199.621 60.5333 199.621 56.2133V54.4133C199.621 50.2733 198.721 47.2133 196.921 45.2333C195.181 43.1933 192.871 42.1733 189.991 42.1733C187.051 42.1733 184.561 43.1033 182.521 44.9633C180.541 46.7633 179.551 49.4633 179.551 53.0633V57.5633C179.551 61.3433 180.541 64.2533 182.521 66.2933C184.561 68.3333 187.051 69.3533 189.991 69.3533ZM235.913 80.7833C233.333 80.7833 231.023 80.3933 228.983 79.6133C227.003 78.8333 225.323 77.7833 223.943 76.4633C222.563 75.0833 221.513 73.4933 220.793 71.6933C220.073 69.8333 219.713 67.8233 219.713 65.6633C219.713 60.9233 221.153 57.2933 224.033 54.7733C226.973 52.2533 231.383 50.9933 237.263 50.9933H250.853V49.0133C250.853 46.1333 250.163 44.1533 248.783 43.0733C247.403 41.9333 245.513 41.3633 243.113 41.3633C240.833 41.3633 239.153 41.7233 238.073 42.4433C236.993 43.1633 236.393 44.3033 236.273 45.8633H222.413C222.533 43.7033 223.073 41.7233 224.033 39.9233C224.993 38.0633 226.343 36.4733 228.083 35.1533C229.883 33.7733 232.073 32.6933 234.653 31.9133C237.233 31.1333 240.203 30.7433 243.563 30.7433C246.683 30.7433 249.533 31.1033 252.113 31.8233C254.753 32.4833 257.003 33.5933 258.863 35.1533C260.723 36.6533 262.163 38.6333 263.183 41.0933C264.203 43.4933 264.713 46.4333 264.713 49.9133V67.4633C264.713 69.9833 264.773 72.2033 264.893 74.1233C265.013 75.9833 265.193 77.8133 265.433 79.6133H252.293C252.173 78.5933 252.053 77.6933 251.933 76.9133C251.873 76.1333 251.843 75.1733 251.843 74.0333C250.403 75.9533 248.393 77.5733 245.813 78.8933C243.293 80.1533 239.993 80.7833 235.913 80.7833ZM240.413 71.0633C243.353 71.0633 245.813 70.2233 247.793 68.5433C249.833 66.8633 250.853 64.5533 250.853 61.6133V59.6333H239.963C237.923 59.6333 236.393 60.1733 235.373 61.2533C234.413 62.3333 233.933 63.5933 233.933 65.0333C233.933 66.7733 234.413 68.2133 235.373 69.3533C236.393 70.4933 238.073 71.0633 240.413 71.0633ZM296.22 80.7833C292.74 80.7833 289.5 80.2133 286.5 79.0733C283.56 77.8733 281.01 76.1333 278.85 73.8533C276.69 71.5133 274.98 68.6333 273.72 65.2133C272.52 61.7333 271.92 57.6833 271.92 53.0633V51.2633C271.92 45.9233 272.34 41.1533 273.18 36.9533C274.08 32.7533 275.52 29.1833 277.5 26.2433C279.54 23.2433 282.18 20.9333 285.42 19.3133C288.66 17.6333 292.68 16.6733 297.48 16.4333C299.34 16.3733 301.2 16.3133 303.06 16.2533C304.98 16.1933 306.78 16.1033 308.46 15.9833C310.2 15.8633 311.79 15.6833 313.23 15.4433C314.67 15.2033 315.9 14.8433 316.92 14.3633V26.2433C316.44 26.5433 315.75 26.8133 314.85 27.0533C314.01 27.2333 312.87 27.4133 311.43 27.5933C309.99 27.7733 308.25 27.9233 306.21 28.0433C304.17 28.1633 301.71 28.2533 298.83 28.3133C296.19 28.3133 293.91 28.5833 291.99 29.1233C290.13 29.6633 288.54 30.5333 287.22 31.7333C285.96 32.8733 284.97 34.3733 284.25 36.2333C283.53 38.0333 283.02 40.2233 282.72 42.8033C284.04 40.4033 286.11 38.3933 288.93 36.7733C291.75 35.1533 295.53 34.3433 300.27 34.3433C303.21 34.3433 305.91 34.7933 308.37 35.6933C310.89 36.5333 313.05 37.8233 314.85 39.5633C316.65 41.2433 318.03 43.4033 318.99 46.0433C320.01 48.6233 320.52 51.6233 320.52 55.0433V56.7533C320.52 60.5333 319.89 63.9233 318.63 66.9233C317.37 69.9233 315.66 72.4433 313.5 74.4833C311.34 76.5233 308.76 78.0833 305.76 79.1633C302.82 80.2433 299.64 80.7833 296.22 80.7833ZM296.22 69.2633C299.46 69.2633 301.95 68.2433 303.69 66.2033C305.43 64.1033 306.3 61.3733 306.3 58.0133V56.1233C306.3 52.5833 305.4 49.8533 303.6 47.9333C301.8 45.9533 299.34 44.9633 296.22 44.9633C293.16 44.9633 290.7 45.9233 288.84 47.8433C287.04 49.7633 286.14 52.5233 286.14 56.1233V57.6533C286.14 61.1333 287.1 63.9533 289.02 66.1133C290.94 68.2133 293.34 69.2633 296.22 69.2633ZM350.262 80.7833C346.902 80.7833 343.752 80.3033 340.812 79.3433C337.872 78.3233 335.292 76.7933 333.072 74.7533C330.852 72.7133 329.112 70.1633 327.852 67.1033C326.592 63.9833 325.962 60.3533 325.962 56.2133V54.4133C325.962 50.5133 326.592 47.0933 327.852 44.1533C329.112 41.2133 330.852 38.7533 333.072 36.7733C335.292 34.7933 337.872 33.2933 340.812 32.2733C343.752 31.2533 346.902 30.7433 350.262 30.7433C353.622 30.7433 356.772 31.2533 359.712 32.2733C362.652 33.2933 365.232 34.7933 367.452 36.7733C369.672 38.7533 371.412 41.2133 372.672 44.1533C373.932 47.0933 374.562 50.5133 374.562 54.4133V56.2133C374.562 60.2933 373.932 63.8933 372.672 67.0133C371.412 70.0733 369.672 72.6233 367.452 74.6633C365.232 76.7033 362.652 78.2333 359.712 79.2533C356.772 80.2733 353.622 80.7833 350.262 80.7833ZM350.262 69.2633C353.502 69.2633 355.992 68.0933 357.732 65.7533C359.472 63.4133 360.342 60.2333 360.342 56.2133V54.4133C360.342 50.8133 359.472 47.9033 357.732 45.6833C355.992 43.4033 353.502 42.2633 350.262 42.2633C347.022 42.2633 344.532 43.4033 342.792 45.6833C341.052 47.9033 340.182 50.8133 340.182 54.4133V56.2133C340.182 60.3533 341.052 63.5633 342.792 65.8433C344.532 68.1233 347.022 69.2633 350.262 69.2633ZM392.818 43.2533H378.148V31.9133H421.348V43.2533H406.678V79.6133H392.818V43.2533ZM455.595 62.8733C454.215 63.6533 452.625 64.3733 450.825 65.0333C449.025 65.6933 446.685 66.0233 443.805 66.0233C437.745 66.0233 433.305 64.5833 430.485 61.7033C427.665 58.8233 426.255 54.4433 426.255 48.5633V31.9133H440.115V47.2133C440.115 49.8533 440.685 51.7433 441.825 52.8833C442.965 53.9633 444.975 54.5033 447.855 54.5033C449.895 54.5033 451.575 54.2633 452.895 53.7833C454.215 53.2433 455.115 52.7333 455.595 52.2533V31.9133H469.455V79.6133H455.595V62.8733ZM479.373 31.9133H492.873V60.7133L513.123 31.9133H525.273V79.6133H511.773V50.8133L491.523 79.6133H479.373V31.9133ZM534.305 31.9133H548.165V50.0033H551.765L565.085 31.9133H580.205L562.655 54.3233L581.105 79.6133H564.725L551.765 60.6233H548.165V79.6133H534.305V31.9133ZM27 170.783C23.64 170.783 20.49 170.303 17.55 169.343C14.61 168.323 12.03 166.793 9.81 164.753C7.59 162.713 5.85 160.163 4.59 157.103C3.33 153.983 2.7 150.353 2.7 146.213V144.413C2.7 140.513 3.33 137.093 4.59 134.153C5.85 131.213 7.59 128.753 9.81 126.773C12.03 124.793 14.61 123.293 17.55 122.273C20.49 121.253 23.64 120.743 27 120.743C30.36 120.743 33.51 121.253 36.45 122.273C39.39 123.293 41.97 124.793 44.19 126.773C46.41 128.753 48.15 131.213 49.41 134.153C50.67 137.093 51.3 140.513 51.3 144.413V146.213C51.3 150.293 50.67 153.893 49.41 157.013C48.15 160.073 46.41 162.623 44.19 164.663C41.97 166.703 39.39 168.233 36.45 169.253C33.51 170.273 30.36 170.783 27 170.783ZM27 159.263C30.24 159.263 32.73 158.093 34.47 155.753C36.21 153.413 37.08 150.233 37.08 146.213V144.413C37.08 140.813 36.21 137.903 34.47 135.683C32.73 133.403 30.24 132.263 27 132.263C23.76 132.263 21.27 133.403 19.53 135.683C17.79 137.903 16.92 140.813 16.92 144.413V146.213C16.92 150.353 17.79 153.563 19.53 155.843C21.27 158.123 23.76 159.263 27 159.263ZM58.4648 121.913H72.3248V139.643H90.5048V121.913H104.365V169.613H90.5048V150.983H72.3248V169.613H58.4648V121.913ZM114.746 170.783C114.266 170.783 113.576 170.753 112.676 170.693C111.836 170.693 111.176 170.633 110.696 170.513V158.453C110.996 158.513 111.446 158.543 112.046 158.543C113.066 158.543 113.966 158.243 114.746 157.643C115.526 156.983 116.186 155.933 116.726 154.493C117.266 152.993 117.656 151.073 117.896 148.733C118.196 146.333 118.346 143.393 118.346 139.913V121.913H157.946V169.613H144.086V133.253H131.306V141.713C131.306 147.653 130.946 152.513 130.226 156.293C129.506 160.073 128.456 163.043 127.076 165.203C125.696 167.363 123.956 168.833 121.856 169.613C119.816 170.393 117.446 170.783 114.746 170.783ZM181.772 170.783C179.192 170.783 176.882 170.393 174.842 169.613C172.862 168.833 171.182 167.783 169.802 166.463C168.422 165.083 167.372 163.493 166.652 161.693C165.932 159.833 165.572 157.823 165.572 155.663C165.572 150.923 167.012 147.293 169.892 144.773C172.832 142.253 177.242 140.993 183.122 140.993H196.712V139.013C196.712 136.133 196.022 134.153 194.642 133.073C193.262 131.933 191.372 131.363 188.972 131.363C186.692 131.363 185.012 131.723 183.932 132.443C182.852 133.163 182.252 134.303 182.132 135.863H168.272C168.392 133.703 168.932 131.723 169.892 129.923C170.852 128.063 172.202 126.473 173.942 125.153C175.742 123.773 177.932 122.693 180.512 121.913C183.092 121.133 186.062 120.743 189.422 120.743C192.542 120.743 195.392 121.103 197.972 121.823C200.612 122.483 202.862 123.593 204.722 125.153C206.582 126.653 208.022 128.633 209.042 131.093C210.062 133.493 210.572 136.433 210.572 139.913V157.463C210.572 159.983 210.632 162.203 210.752 164.123C210.872 165.983 211.052 167.813 211.292 169.613H198.152C198.032 168.593 197.912 167.693 197.792 166.913C197.732 166.133 197.702 165.173 197.702 164.033C196.262 165.953 194.252 167.573 191.672 168.893C189.152 170.153 185.852 170.783 181.772 170.783ZM186.272 161.063C189.212 161.063 191.672 160.223 193.652 158.543C195.692 156.863 196.712 154.553 196.712 151.613V149.633H185.822C183.782 149.633 182.252 150.173 181.232 151.253C180.272 152.333 179.792 153.593 179.792 155.033C179.792 156.773 180.272 158.213 181.232 159.353C182.252 160.493 183.932 161.063 186.272 161.063ZM219.129 121.913H232.629V150.713L252.879 121.913H265.029V169.613H251.529V140.813L231.279 169.613H219.129V121.913ZM242.079 116.963C236.199 116.963 232.029 115.853 229.569 113.633C227.109 111.353 225.879 107.963 225.879 103.463H238.119C238.119 105.503 238.449 106.913 239.109 107.693C239.769 108.473 240.759 108.863 242.079 108.863C243.399 108.863 244.389 108.473 245.049 107.693C245.709 106.913 246.039 105.503 246.039 103.463H258.279C258.279 107.963 257.049 111.353 254.589 113.633C252.129 115.853 247.959 116.963 242.079 116.963ZM274.061 121.913H287.921V139.643H306.101V121.913H319.961V169.613H306.101V150.983H287.921V169.613H274.061V121.913ZM326.742 137.753H356.442V151.073H326.742V137.753Z" fill="#110545"/>
<path d="M385.682 170.783C382.142 170.783 378.872 170.273 375.872 169.253C372.932 168.233 370.382 166.703 368.222 164.663C366.062 162.623 364.382 160.073 363.182 157.013C361.982 153.953 361.382 150.353 361.382 146.213V144.413C361.382 140.633 362.012 137.273 363.272 134.333C364.592 131.393 366.332 128.933 368.492 126.953C370.712 124.913 373.292 123.383 376.232 122.363C379.172 121.283 382.322 120.743 385.682 120.743C389.282 120.743 392.432 121.223 395.132 122.183C397.892 123.143 400.202 124.463 402.062 126.143C403.922 127.763 405.362 129.683 406.382 131.903C407.402 134.123 408.002 136.493 408.182 139.013H393.962C393.482 136.853 392.582 135.203 391.262 134.063C390.002 132.863 388.142 132.263 385.682 132.263C382.742 132.263 380.312 133.283 378.392 135.323C376.532 137.303 375.602 140.333 375.602 144.413V146.213C375.602 150.653 376.502 153.923 378.302 156.023C380.162 158.123 382.622 159.173 385.682 159.173C387.782 159.173 389.552 158.633 390.992 157.553C392.492 156.413 393.482 154.733 393.962 152.513H408.182C408.002 155.333 407.342 157.883 406.202 160.163C405.062 162.383 403.502 164.273 401.522 165.833C399.602 167.393 397.292 168.623 394.592 169.523C391.952 170.363 388.982 170.783 385.682 170.783ZM437.899 170.783C434.419 170.783 431.149 170.303 428.089 169.343C425.089 168.323 422.479 166.793 420.259 164.753C418.039 162.713 416.299 160.163 415.039 157.103C413.779 153.983 413.149 150.353 413.149 146.213V144.413C413.149 140.453 413.749 137.003 414.949 134.063C416.209 131.123 417.889 128.663 419.989 126.683C422.149 124.703 424.669 123.233 427.549 122.273C430.489 121.253 433.639 120.743 436.999 120.743C444.859 120.743 450.799 122.783 454.819 126.863C458.839 130.883 460.849 136.733 460.849 144.413V149.363H427.369C427.429 151.223 427.759 152.813 428.359 154.133C428.959 155.393 429.739 156.443 430.699 157.283C431.659 158.123 432.739 158.753 433.939 159.173C435.199 159.533 436.519 159.713 437.899 159.713C440.539 159.713 442.609 159.323 444.109 158.543C445.669 157.703 446.689 156.593 447.169 155.213H459.949C458.989 160.433 456.619 164.333 452.839 166.913C449.059 169.493 444.079 170.783 437.899 170.783ZM437.449 131.723C436.189 131.723 434.959 131.873 433.759 132.173C432.619 132.473 431.569 132.983 430.609 133.703C429.709 134.363 428.959 135.233 428.359 136.313C427.819 137.393 427.519 138.713 427.459 140.273H447.259C447.259 138.593 446.989 137.213 446.449 136.133C445.909 135.053 445.189 134.183 444.289 133.523C443.449 132.863 442.429 132.413 441.229 132.173C440.029 131.873 438.769 131.723 437.449 131.723ZM468.035 121.913H480.815V128.393C481.415 127.433 482.165 126.503 483.065 125.603C484.025 124.643 485.135 123.803 486.395 123.083C487.655 122.363 489.065 121.793 490.625 121.373C492.185 120.953 493.865 120.743 495.665 120.743C502.385 120.743 507.485 122.723 510.965 126.683C514.445 130.643 516.185 136.553 516.185 144.413V146.213C516.185 150.293 515.705 153.863 514.745 156.923C513.785 159.983 512.405 162.533 510.605 164.573C508.805 166.613 506.645 168.173 504.125 169.253C501.605 170.273 498.785 170.783 495.665 170.783C492.965 170.783 490.385 170.183 487.925 168.983C485.525 167.723 483.515 165.923 481.895 163.583V187.613H468.035V121.913ZM492.335 159.353C495.095 159.353 497.375 158.243 499.175 156.023C501.035 153.803 501.965 150.533 501.965 146.213V144.413C501.965 140.273 501.065 137.213 499.265 135.233C497.525 133.193 495.215 132.173 492.335 132.173C489.395 132.173 486.905 133.103 484.865 134.963C482.885 136.763 481.895 139.463 481.895 143.063V147.563C481.895 151.343 482.885 154.253 484.865 156.293C486.905 158.333 489.395 159.353 492.335 159.353ZM523.406 121.913H548.966C552.086 121.913 554.756 122.243 556.976 122.903C559.256 123.503 561.086 124.373 562.466 125.513C563.906 126.653 564.956 128.003 565.616 129.563C566.276 131.063 566.606 132.713 566.606 134.513C566.606 136.793 565.946 138.923 564.626 140.903C563.306 142.823 561.416 144.113 558.956 144.773C561.896 145.493 564.206 146.873 565.886 148.913C567.566 150.953 568.406 153.323 568.406 156.023C568.406 160.163 566.936 163.463 563.996 165.923C561.056 168.383 556.646 169.613 550.766 169.613H523.406V121.913ZM547.346 159.173C552.146 159.173 554.546 157.703 554.546 154.763C554.546 151.763 552.146 150.263 547.346 150.263H537.266V159.173H547.346ZM546.536 140.543C548.936 140.543 550.556 140.183 551.396 139.463C552.296 138.683 552.746 137.663 552.746 136.403C552.746 135.083 552.296 134.093 551.396 133.433C550.496 132.713 548.876 132.353 546.536 132.353H537.266V140.543H546.536ZM575.613 121.913H589.113V150.713L609.363 121.913H621.513V169.613H608.013V140.813L587.763 169.613H575.613V121.913ZM653.045 170.783C649.505 170.783 646.235 170.273 643.235 169.253C640.295 168.233 637.745 166.703 635.585 164.663C633.425 162.623 631.745 160.073 630.545 157.013C629.345 153.953 628.745 150.353 628.745 146.213V144.413C628.745 140.633 629.375 137.273 630.635 134.333C631.955 131.393 633.695 128.933 635.855 126.953C638.075 124.913 640.655 123.383 643.595 122.363C646.535 121.283 649.685 120.743 653.045 120.743C656.645 120.743 659.795 121.223 662.495 122.183C665.255 123.143 667.565 124.463 669.425 126.143C671.285 127.763 672.725 129.683 673.745 131.903C674.765 134.123 675.365 136.493 675.545 139.013H661.325C660.845 136.853 659.945 135.203 658.625 134.063C657.365 132.863 655.505 132.263 653.045 132.263C650.105 132.263 647.675 133.283 645.755 135.323C643.895 137.303 642.965 140.333 642.965 144.413V146.213C642.965 150.653 643.865 153.923 645.665 156.023C647.525 158.123 649.985 159.173 653.045 159.173C655.145 159.173 656.915 158.633 658.355 157.553C659.855 156.413 660.845 154.733 661.325 152.513H675.545C675.365 155.333 674.705 157.883 673.565 160.163C672.425 162.383 670.865 164.273 668.885 165.833C666.965 167.393 664.655 168.623 661.955 169.523C659.315 170.363 656.345 170.783 653.045 170.783ZM704.813 170.783C701.453 170.783 698.303 170.303 695.363 169.343C692.423 168.323 689.843 166.793 687.623 164.753C685.403 162.713 683.663 160.163 682.403 157.103C681.143 153.983 680.513 150.353 680.513 146.213V144.413C680.513 140.513 681.143 137.093 682.403 134.153C683.663 131.213 685.403 128.753 687.623 126.773C689.843 124.793 692.423 123.293 695.363 122.273C698.303 121.253 701.453 120.743 704.813 120.743C708.173 120.743 711.323 121.253 714.263 122.273C717.203 123.293 719.783 124.793 722.003 126.773C724.223 128.753 725.963 131.213 727.223 134.153C728.483 137.093 729.113 140.513 729.113 144.413V146.213C729.113 150.293 728.483 153.893 727.223 157.013C725.963 160.073 724.223 162.623 722.003 164.663C719.783 166.703 717.203 168.233 714.263 169.253C711.323 170.273 708.173 170.783 704.813 170.783ZM704.813 159.263C708.053 159.263 710.543 158.093 712.283 155.753C714.023 153.413 714.893 150.233 714.893 146.213V144.413C714.893 140.813 714.023 137.903 712.283 135.683C710.543 133.403 708.053 132.263 704.813 132.263C701.573 132.263 699.083 133.403 697.343 135.683C695.603 137.903 694.733 140.813 694.733 144.413V146.213C694.733 150.353 695.603 153.563 697.343 155.843C699.083 158.123 701.573 159.263 704.813 159.263ZM736.277 121.913H761.837C764.957 121.913 767.627 122.243 769.847 122.903C772.127 123.503 773.957 124.373 775.337 125.513C776.777 126.653 777.827 128.003 778.487 129.563C779.147 131.063 779.477 132.713 779.477 134.513C779.477 136.793 778.817 138.923 777.497 140.903C776.177 142.823 774.287 144.113 771.827 144.773C774.767 145.493 777.077 146.873 778.757 148.913C780.437 150.953 781.277 153.323 781.277 156.023C781.277 160.163 779.807 163.463 776.867 165.923C773.927 168.383 769.517 169.613 763.637 169.613H736.277V121.913ZM760.217 159.173C765.017 159.173 767.417 157.703 767.417 154.763C767.417 151.763 765.017 150.263 760.217 150.263H750.137V159.173H760.217ZM759.407 140.543C761.807 140.543 763.427 140.183 764.267 139.463C765.167 138.683 765.617 137.663 765.617 136.403C765.617 135.083 765.167 134.093 764.267 133.433C763.367 132.713 761.747 132.353 759.407 132.353H750.137V140.543H759.407ZM4.5 211.913H18V240.713L38.25 211.913H50.4V259.613H36.9V230.813L16.65 259.613H4.5V211.913ZM81.9316 211.913H126.932V259.613H113.072V223.253H95.7916V259.613H81.9316V211.913ZM135.896 211.913H148.676V218.393C149.276 217.433 150.026 216.503 150.926 215.603C151.886 214.643 152.996 213.803 154.256 213.083C155.516 212.363 156.926 211.793 158.486 211.373C160.046 210.953 161.726 210.743 163.526 210.743C170.246 210.743 175.346 212.723 178.826 216.683C182.306 220.643 184.046 226.553 184.046 234.413V236.213C184.046 240.293 183.566 243.863 182.606 246.923C181.646 249.983 180.266 252.533 178.466 254.573C176.666 256.613 174.506 258.173 171.986 259.253C169.466 260.273 166.646 260.783 163.526 260.783C160.826 260.783 158.246 260.183 155.786 258.983C153.386 257.723 151.376 255.923 149.756 253.583V277.613H135.896V211.913ZM160.196 249.353C162.956 249.353 165.236 248.243 167.036 246.023C168.896 243.803 169.826 240.533 169.826 236.213V234.413C169.826 230.273 168.926 227.213 167.126 225.233C165.386 223.193 163.076 222.173 160.196 222.173C157.256 222.173 154.766 223.103 152.726 224.963C150.746 226.763 149.756 229.463 149.756 233.063V237.563C149.756 241.343 150.746 244.253 152.726 246.293C154.766 248.333 157.256 249.353 160.196 249.353ZM191.268 211.913H204.768V240.713L225.018 211.913H237.168V259.613H223.668V230.813L203.418 259.613H191.268V211.913ZM247.549 260.783C247.069 260.783 246.379 260.753 245.479 260.693C244.639 260.693 243.979 260.633 243.499 260.513V248.453C243.799 248.513 244.249 248.543 244.849 248.543C245.869 248.543 246.769 248.243 247.549 247.643C248.329 246.983 248.989 245.933 249.529 244.493C250.069 242.993 250.459 241.073 250.699 238.733C250.999 236.333 251.149 233.393 251.149 229.913V211.913H290.749V259.613H276.889V223.253H264.109V231.713C264.109 237.653 263.749 242.513 263.029 246.293C262.309 250.073 261.259 253.043 259.879 255.203C258.499 257.363 256.759 258.833 254.659 259.613C252.619 260.393 250.249 260.783 247.549 260.783ZM322.225 260.783C318.865 260.783 315.715 260.303 312.775 259.343C309.835 258.323 307.255 256.793 305.035 254.753C302.815 252.713 301.075 250.163 299.815 247.103C298.555 243.983 297.925 240.353 297.925 236.213V234.413C297.925 230.513 298.555 227.093 299.815 224.153C301.075 221.213 302.815 218.753 305.035 216.773C307.255 214.793 309.835 213.293 312.775 212.273C315.715 211.253 318.865 210.743 322.225 210.743C325.585 210.743 328.735 211.253 331.675 212.273C334.615 213.293 337.195 214.793 339.415 216.773C341.635 218.753 343.375 221.213 344.635 224.153C345.895 227.093 346.525 230.513 346.525 234.413V236.213C346.525 240.293 345.895 243.893 344.635 247.013C343.375 250.073 341.635 252.623 339.415 254.663C337.195 256.703 334.615 258.233 331.675 259.253C328.735 260.273 325.585 260.783 322.225 260.783ZM322.225 249.263C325.465 249.263 327.955 248.093 329.695 245.753C331.435 243.413 332.305 240.233 332.305 236.213V234.413C332.305 230.813 331.435 227.903 329.695 225.683C327.955 223.403 325.465 222.263 322.225 222.263C318.985 222.263 316.495 223.403 314.755 225.683C313.015 227.903 312.145 230.813 312.145 234.413V236.213C312.145 240.353 313.015 243.563 314.755 245.843C316.495 248.123 318.985 249.263 322.225 249.263ZM364.082 235.043L349.322 211.913H363.902L374.702 230.183H377.402V211.913H391.262V230.183H393.962L405.392 211.913H419.432L404.582 234.053L420.332 259.613H405.032L393.962 240.443H391.262V259.613H377.402V240.443H374.612L363.092 259.613H348.332L364.082 235.043ZM446.952 260.783C443.472 260.783 440.202 260.303 437.142 259.343C434.142 258.323 431.532 256.793 429.312 254.753C427.092 252.713 425.352 250.163 424.092 247.103C422.832 243.983 422.202 240.353 422.202 236.213V234.413C422.202 230.453 422.802 227.003 424.002 224.063C425.262 221.123 426.942 218.663 429.042 216.683C431.202 214.703 433.722 213.233 436.602 212.273C439.542 211.253 442.692 210.743 446.052 210.743C453.912 210.743 459.852 212.783 463.872 216.863C467.892 220.883 469.902 226.733 469.902 234.413V239.363H436.422C436.482 241.223 436.812 242.813 437.412 244.133C438.012 245.393 438.792 246.443 439.752 247.283C440.712 248.123 441.792 248.753 442.992 249.173C444.252 249.533 445.572 249.713 446.952 249.713C449.592 249.713 451.662 249.323 453.162 248.543C454.722 247.703 455.742 246.593 456.222 245.213H469.002C468.042 250.433 465.672 254.333 461.892 256.913C458.112 259.493 453.132 260.783 446.952 260.783ZM446.502 221.723C445.242 221.723 444.012 221.873 442.812 222.173C441.672 222.473 440.622 222.983 439.662 223.703C438.762 224.363 438.012 225.233 437.412 226.313C436.872 227.393 436.572 228.713 436.512 230.273H456.312C456.312 228.593 456.042 227.213 455.502 226.133C454.962 225.053 454.242 224.183 453.342 223.523C452.502 222.863 451.482 222.413 450.282 222.173C449.082 221.873 447.822 221.723 446.502 221.723ZM477.088 211.913H490.948V229.643H509.128V211.913H522.988V259.613H509.128V240.983H490.948V259.613H477.088V211.913ZM532.02 211.913H545.52V240.713L565.77 211.913H577.92V259.613H564.42V230.813L544.17 259.613H532.02V211.913ZM586.951 211.913H600.451V240.713L620.701 211.913H632.851V259.613H619.351V230.813L599.101 259.613H586.951V211.913ZM609.901 206.963C604.021 206.963 599.851 205.853 597.391 203.633C594.931 201.353 593.701 197.963 593.701 193.463H605.941C605.941 195.503 606.271 196.913 606.931 197.693C607.591 198.473 608.581 198.863 609.901 198.863C611.221 198.863 612.211 198.473 612.871 197.693C613.531 196.913 613.861 195.503 613.861 193.463H626.101C626.101 197.963 624.871 201.353 622.411 203.633C619.951 205.853 615.781 206.963 609.901 206.963Z" fill="#3852CE"/>
</mask>
<g mask="url(#mask0_1307_7611)">
<path d="M13.8281 76.7488C68.5659 125.565 126.609 44.7961 143.96 47.163C165.649 50.1216 57.2048 144.796 91.2873 136.66C125.37 128.524 166.682 42.7251 193.535 47.163C220.387 51.6009 138.031 127.045 168.365 125.565C198.699 124.086 259.634 17.5775 274.093 16.0982C288.552 14.6189 179.075 147.754 209.027 136.66C238.978 125.565 265.831 55.2992 280.29 60.4767C294.749 65.6542 247.24 114.471 257.568 125.565C267.896 136.66 326.766 47.163 340.193 47.163C353.619 47.163 291.765 138.879 323.725 125.565C355.685 112.252 408.357 20.536 437.276 55.2992C466.194 90.0624 476.522 130.003 506.474 101.157C536.425 72.311 540.556 39.027 565.343 60.4767C597.1 87.9573 637.039 62.5827 649 39.027" stroke="#3852CE" stroke-width="20" stroke-linecap="round"/>
</g>
</svg>
