<svg width="916" height="241" viewBox="0 0 916 241" fill="none" xmlns="http://www.w3.org/2000/svg">
<path d="M6.31938 14.4H53.8994V69H39.8594V25.944H20.3594V69H6.31938V14.4ZM63.2594 27.66H74.3354V33.276C74.8554 32.444 75.5054 31.638 76.2854 30.858C77.1174 30.026 78.0794 29.298 79.1714 28.674C80.2634 28.05 81.4854 27.556 82.8374 27.192C84.1894 26.828 85.6454 26.646 87.2054 26.646C93.0294 26.646 97.4494 28.362 100.465 31.794C103.481 35.226 104.989 40.348 104.989 47.16V48.72C104.989 52.256 104.573 55.35 103.741 58.002C102.909 60.654 101.713 62.864 100.153 64.632C98.5934 66.4 96.7214 67.752 94.5374 68.688C92.3534 69.572 89.9094 70.014 87.2054 70.014C84.8654 70.014 82.6294 69.494 80.4974 68.454C78.4174 67.362 76.6754 65.802 75.2714 63.774V84.6H63.2594V27.66ZM84.3194 60.108C86.7114 60.108 88.6874 59.146 90.2474 57.222C91.8594 55.298 92.6654 52.464 92.6654 48.72V47.16C92.6654 43.572 91.8854 40.92 90.3254 39.204C88.8174 37.436 86.8154 36.552 84.3194 36.552C81.7714 36.552 79.6134 37.358 77.8454 38.97C76.1294 40.53 75.2714 42.87 75.2714 45.99V49.89C75.2714 53.166 76.1294 55.688 77.8454 57.456C79.6134 59.224 81.7714 60.108 84.3194 60.108ZM130.748 70.014C127.836 70.014 125.106 69.598 122.558 68.766C120.01 67.882 117.774 66.556 115.85 64.788C113.926 63.02 112.418 60.81 111.326 58.158C110.234 55.454 109.688 52.308 109.688 48.72V47.16C109.688 43.78 110.234 40.816 111.326 38.268C112.418 35.72 113.926 33.588 115.85 31.872C117.774 30.156 120.01 28.856 122.558 27.972C125.106 27.088 127.836 26.646 130.748 26.646C133.66 26.646 136.39 27.088 138.938 27.972C141.486 28.856 143.722 30.156 145.646 31.872C147.57 33.588 149.078 35.72 150.17 38.268C151.262 40.816 151.808 43.78 151.808 47.16V48.72C151.808 52.256 151.262 55.376 150.17 58.08C149.078 60.732 147.57 62.942 145.646 64.71C143.722 66.478 141.486 67.804 138.938 68.688C136.39 69.572 133.66 70.014 130.748 70.014ZM130.748 60.03C133.556 60.03 135.714 59.016 137.222 56.988C138.73 54.96 139.484 52.204 139.484 48.72V47.16C139.484 44.04 138.73 41.518 137.222 39.594C135.714 37.618 133.556 36.63 130.748 36.63C127.94 36.63 125.782 37.618 124.274 39.594C122.766 41.518 122.012 44.04 122.012 47.16V48.72C122.012 52.308 122.766 55.09 124.274 57.066C125.782 59.042 127.94 60.03 130.748 60.03ZM178.141 70.014C171.121 70.014 165.739 68.22 161.995 64.632C158.303 60.992 156.457 55.688 156.457 48.72V47.16C156.457 40.504 158.303 35.434 161.995 31.95C165.739 28.414 171.121 26.646 178.141 26.646V14.4H190.153V26.646C197.121 26.646 202.477 28.414 206.221 31.95C209.965 35.434 211.837 40.504 211.837 47.16V48.72C211.837 55.688 209.965 60.992 206.221 64.632C202.477 68.22 197.121 70.014 190.153 70.014V84.6H178.141V70.014ZM199.669 47.16C199.669 43.676 198.863 41.05 197.251 39.282C195.639 37.514 193.117 36.63 189.685 36.63V60.03C193.117 60.03 195.639 59.068 197.251 57.144C198.863 55.168 199.669 52.36 199.669 48.72V47.16ZM168.625 48.72C168.625 52.412 169.431 55.22 171.043 57.144C172.655 59.068 175.177 60.03 178.609 60.03V36.63C175.073 36.63 172.525 37.54 170.965 39.36C169.405 41.18 168.625 43.78 168.625 47.16V48.72ZM237.931 70.014C234.915 70.014 232.081 69.598 229.429 68.766C226.829 67.882 224.567 66.556 222.643 64.788C220.719 63.02 219.211 60.81 218.119 58.158C217.027 55.454 216.481 52.308 216.481 48.72V47.16C216.481 43.728 217.001 40.738 218.041 38.19C219.133 35.642 220.589 33.51 222.409 31.794C224.281 30.078 226.465 28.804 228.961 27.972C231.509 27.088 234.239 26.646 237.151 26.646C243.963 26.646 249.111 28.414 252.595 31.95C256.079 35.434 257.821 40.504 257.821 47.16V51.45H228.805C228.857 53.062 229.143 54.44 229.663 55.584C230.183 56.676 230.859 57.586 231.691 58.314C232.523 59.042 233.459 59.588 234.499 59.952C235.591 60.264 236.735 60.42 237.931 60.42C240.219 60.42 242.013 60.082 243.313 59.406C244.665 58.678 245.549 57.716 245.965 56.52H257.041C256.209 61.044 254.155 64.424 250.879 66.66C247.603 68.896 243.287 70.014 237.931 70.014ZM237.541 36.162C236.449 36.162 235.383 36.292 234.343 36.552C233.355 36.812 232.445 37.254 231.613 37.878C230.833 38.45 230.183 39.204 229.663 40.14C229.195 41.076 228.935 42.22 228.883 43.572H246.043C246.043 42.116 245.809 40.92 245.341 39.984C244.873 39.048 244.249 38.294 243.469 37.722C242.741 37.15 241.857 36.76 240.817 36.552C239.777 36.292 238.685 36.162 237.541 36.162ZM283.548 70.014C280.48 70.014 277.646 69.572 275.046 68.688C272.498 67.804 270.288 66.478 268.416 64.71C266.544 62.942 265.088 60.732 264.048 58.08C263.008 55.428 262.488 52.308 262.488 48.72V47.16C262.488 43.884 263.034 40.972 264.126 38.424C265.27 35.876 266.778 33.744 268.65 32.028C270.574 30.26 272.81 28.934 275.358 28.05C277.906 27.114 280.636 26.646 283.548 26.646C286.668 26.646 289.398 27.062 291.738 27.894C294.13 28.726 296.132 29.87 297.744 31.326C299.356 32.73 300.604 34.394 301.488 36.318C302.372 38.242 302.892 40.296 303.048 42.48H290.724C290.308 40.608 289.528 39.178 288.384 38.19C287.292 37.15 285.68 36.63 283.548 36.63C281 36.63 278.894 37.514 277.23 39.282C275.618 40.998 274.812 43.624 274.812 47.16V48.72C274.812 52.568 275.592 55.402 277.152 57.222C278.764 59.042 280.896 59.952 283.548 59.952C285.368 59.952 286.902 59.484 288.15 58.548C289.45 57.56 290.308 56.104 290.724 54.18H303.048C302.892 56.624 302.32 58.834 301.332 60.81C300.344 62.734 298.992 64.372 297.276 65.724C295.612 67.076 293.61 68.142 291.27 68.922C288.982 69.65 286.408 70.014 283.548 70.014ZM328.414 70.014C325.346 70.014 322.512 69.572 319.912 68.688C317.364 67.804 315.154 66.478 313.282 64.71C311.41 62.942 309.954 60.732 308.914 58.08C307.874 55.428 307.354 52.308 307.354 48.72V47.16C307.354 43.884 307.9 40.972 308.992 38.424C310.136 35.876 311.644 33.744 313.516 32.028C315.44 30.26 317.676 28.934 320.224 28.05C322.772 27.114 325.502 26.646 328.414 26.646C331.534 26.646 334.264 27.062 336.604 27.894C338.996 28.726 340.998 29.87 342.61 31.326C344.222 32.73 345.47 34.394 346.354 36.318C347.238 38.242 347.758 40.296 347.914 42.48H335.59C335.174 40.608 334.394 39.178 333.25 38.19C332.158 37.15 330.546 36.63 328.414 36.63C325.866 36.63 323.76 37.514 322.096 39.282C320.484 40.998 319.678 43.624 319.678 47.16V48.72C319.678 52.568 320.458 55.402 322.018 57.222C323.63 59.042 325.762 59.952 328.414 59.952C330.234 59.952 331.768 59.484 333.016 58.548C334.316 57.56 335.174 56.104 335.59 54.18H347.914C347.758 56.624 347.186 58.834 346.198 60.81C345.21 62.734 343.858 64.372 342.142 65.724C340.478 67.076 338.476 68.142 336.136 68.922C333.848 69.65 331.274 70.014 328.414 70.014ZM353.779 27.66H365.479V52.62L383.029 27.66H393.559V69H381.859V44.04L364.309 69H353.779V27.66ZM420.886 70.014C417.974 70.014 415.244 69.598 412.696 68.766C410.148 67.882 407.912 66.556 405.988 64.788C404.064 63.02 402.556 60.81 401.464 58.158C400.372 55.454 399.826 52.308 399.826 48.72V47.16C399.826 43.78 400.372 40.816 401.464 38.268C402.556 35.72 404.064 33.588 405.988 31.872C407.912 30.156 410.148 28.856 412.696 27.972C415.244 27.088 417.974 26.646 420.886 26.646C423.798 26.646 426.528 27.088 429.076 27.972C431.624 28.856 433.86 30.156 435.784 31.872C437.708 33.588 439.216 35.72 440.308 38.268C441.4 40.816 441.946 43.78 441.946 47.16V48.72C441.946 52.256 441.4 55.376 440.308 58.08C439.216 60.732 437.708 62.942 435.784 64.71C433.86 66.478 431.624 67.804 429.076 68.688C426.528 69.572 423.798 70.014 420.886 70.014ZM420.886 60.03C423.694 60.03 425.852 59.016 427.36 56.988C428.868 54.96 429.622 52.204 429.622 48.72V47.16C429.622 44.04 428.868 41.518 427.36 39.594C425.852 37.618 423.694 36.63 420.886 36.63C418.078 36.63 415.92 37.618 414.412 39.594C412.904 41.518 412.15 44.04 412.15 47.16V48.72C412.15 52.308 412.904 55.09 414.412 57.066C415.92 59.042 418.078 60.03 420.886 60.03ZM448.156 27.66H460.168V43.026H475.924V27.66H487.936V69H475.924V52.854H460.168V69H448.156V27.66ZM508.633 70.014C506.397 70.014 504.395 69.676 502.627 69C500.911 68.324 499.455 67.414 498.259 66.27C497.063 65.074 496.153 63.696 495.529 62.136C494.905 60.524 494.593 58.782 494.593 56.91C494.593 52.802 495.841 49.656 498.337 47.472C500.885 45.288 504.707 44.196 509.803 44.196H521.581V42.48C521.581 39.984 520.983 38.268 519.787 37.332C518.591 36.344 516.953 35.85 514.873 35.85C512.897 35.85 511.441 36.162 510.505 36.786C509.569 37.41 509.049 38.398 508.945 39.75H496.933C497.037 37.878 497.505 36.162 498.337 34.602C499.169 32.99 500.339 31.612 501.847 30.468C503.407 29.272 505.305 28.336 507.541 27.66C509.777 26.984 512.351 26.646 515.263 26.646C517.967 26.646 520.437 26.958 522.673 27.582C524.961 28.154 526.911 29.116 528.523 30.468C530.135 31.768 531.383 33.484 532.267 35.616C533.151 37.696 533.593 40.244 533.593 43.26V58.47C533.593 60.654 533.645 62.578 533.749 64.242C533.853 65.854 534.009 67.44 534.217 69H522.829C522.725 68.116 522.621 67.336 522.517 66.66C522.465 65.984 522.439 65.152 522.439 64.164C521.191 65.828 519.449 67.232 517.213 68.376C515.029 69.468 512.169 70.014 508.633 70.014ZM512.533 61.59C515.081 61.59 517.213 60.862 518.929 59.406C520.697 57.95 521.581 55.948 521.581 53.4V51.684H512.143C510.375 51.684 509.049 52.152 508.165 53.088C507.333 54.024 506.917 55.116 506.917 56.364C506.917 57.872 507.333 59.12 508.165 60.108C509.049 61.096 510.505 61.59 512.533 61.59ZM542.179 70.014C541.763 70.014 541.165 69.988 540.385 69.936C539.657 69.936 539.085 69.884 538.669 69.78V59.328C538.929 59.38 539.319 59.406 539.839 59.406C540.723 59.406 541.503 59.146 542.179 58.626C542.855 58.054 543.427 57.144 543.895 55.896C544.363 54.596 544.701 52.932 544.909 50.904C545.169 48.824 545.299 46.276 545.299 43.26V27.66H579.619V69H567.607V37.488H556.531V44.82C556.531 49.968 556.219 54.18 555.595 57.456C554.971 60.732 554.061 63.306 552.865 65.178C551.669 67.05 550.161 68.324 548.341 69C546.573 69.676 544.519 70.014 542.179 70.014ZM588.178 27.66H600.19V41.076H608.458C613.866 41.076 617.948 42.22 620.704 44.508C623.46 46.796 624.838 50.306 624.838 55.038C624.838 57.118 624.526 59.016 623.902 60.732C623.33 62.448 622.368 63.93 621.016 65.178C619.716 66.374 618.026 67.31 615.946 67.986C613.918 68.662 611.422 69 608.458 69H588.178V27.66ZM606.898 59.952C609.03 59.952 610.538 59.562 611.422 58.782C612.358 57.95 612.826 56.702 612.826 55.038C612.826 53.322 612.358 52.074 611.422 51.294C610.538 50.514 609.03 50.124 606.898 50.124H600.19V59.952H606.898ZM630.283 27.66H642.295V43.026H658.051V27.66H670.063V69H658.051V52.854H642.295V69H630.283V27.66ZM690.76 70.014C688.524 70.014 686.522 69.676 684.754 69C683.038 68.324 681.582 67.414 680.386 66.27C679.19 65.074 678.28 63.696 677.656 62.136C677.032 60.524 676.72 58.782 676.72 56.91C676.72 52.802 677.968 49.656 680.464 47.472C683.012 45.288 686.834 44.196 691.93 44.196H703.708V42.48C703.708 39.984 703.11 38.268 701.914 37.332C700.718 36.344 699.08 35.85 697 35.85C695.024 35.85 693.568 36.162 692.632 36.786C691.696 37.41 691.176 38.398 691.072 39.75H679.06C679.164 37.878 679.632 36.162 680.464 34.602C681.296 32.99 682.466 31.612 683.974 30.468C685.534 29.272 687.432 28.336 689.668 27.66C691.904 26.984 694.478 26.646 697.39 26.646C700.094 26.646 702.564 26.958 704.8 27.582C707.088 28.154 709.038 29.116 710.65 30.468C712.262 31.768 713.51 33.484 714.394 35.616C715.278 37.696 715.72 40.244 715.72 43.26V58.47C715.72 60.654 715.772 62.578 715.876 64.242C715.98 65.854 716.136 67.44 716.344 69H704.956C704.852 68.116 704.748 67.336 704.644 66.66C704.592 65.984 704.566 65.152 704.566 64.164C703.318 65.828 701.576 67.232 699.34 68.376C697.156 69.468 694.296 70.014 690.76 70.014ZM694.66 61.59C697.208 61.59 699.34 60.862 701.056 59.406C702.824 57.95 703.708 55.948 703.708 53.4V51.684H694.27C692.502 51.684 691.176 52.152 690.292 53.088C689.46 54.024 689.044 55.116 689.044 56.364C689.044 57.872 689.46 59.12 690.292 60.108C691.176 61.096 692.632 61.59 694.66 61.59ZM731.716 53.712C728.596 52.672 726.308 51.138 724.852 49.11C723.448 47.03 722.746 44.638 722.746 41.934C722.746 39.906 723.084 38.034 723.76 36.318C724.488 34.55 725.58 33.042 727.036 31.794C728.492 30.494 730.338 29.48 732.574 28.752C734.862 28.024 737.566 27.66 740.686 27.66H760.966V69H748.954V55.038H743.026L734.29 69H721.186L731.716 53.712ZM734.758 41.934C734.758 43.39 735.278 44.456 736.318 45.132C737.41 45.808 738.736 46.146 740.296 46.146H748.954V37.488H740.296C738.736 37.488 737.41 37.852 736.318 38.58C735.278 39.308 734.758 40.426 734.758 41.934ZM15.1334 115.488H2.41938V105.66H39.8594V115.488H27.1454V147H15.1334V115.488ZM64.4111 148.014C61.3951 148.014 58.5611 147.598 55.9091 146.766C53.3091 145.882 51.0471 144.556 49.1231 142.788C47.1991 141.02 45.6911 138.81 44.5991 136.158C43.5071 133.454 42.9611 130.308 42.9611 126.72V125.16C42.9611 121.728 43.4811 118.738 44.5211 116.19C45.6131 113.642 47.0691 111.51 48.8891 109.794C50.7611 108.078 52.9451 106.804 55.4411 105.972C57.9891 105.088 60.7191 104.646 63.6311 104.646C70.4431 104.646 75.5911 106.414 79.0751 109.95C82.5591 113.434 84.3011 118.504 84.3011 125.16V129.45H55.2851C55.3371 131.062 55.6231 132.44 56.1431 133.584C56.6631 134.676 57.3391 135.586 58.1711 136.314C59.0031 137.042 59.9391 137.588 60.9791 137.952C62.0711 138.264 63.2151 138.42 64.4111 138.42C66.6991 138.42 68.4931 138.082 69.7931 137.406C71.1451 136.678 72.0291 135.716 72.4451 134.52H83.5211C82.6891 139.044 80.6351 142.424 77.3591 144.66C74.0831 146.896 69.7671 148.014 64.4111 148.014ZM64.0211 114.162C62.9291 114.162 61.8631 114.292 60.8231 114.552C59.8351 114.812 58.9251 115.254 58.0931 115.878C57.3131 116.45 56.6631 117.204 56.1431 118.14C55.6751 119.076 55.4151 120.22 55.3631 121.572H72.5231C72.5231 120.116 72.2891 118.92 71.8211 117.984C71.3531 117.048 70.7291 116.294 69.9491 115.722C69.2211 115.15 68.3371 114.76 67.2971 114.552C66.2571 114.292 65.1651 114.162 64.0211 114.162ZM99.0675 125.472L86.6655 105.66H99.9255L108.037 118.296L115.837 105.66H128.785L116.461 125.082L129.565 147H116.227L107.569 132.258L98.9115 147H85.8855L99.0675 125.472ZM134.252 105.66H146.264V121.026H162.02V105.66H174.032V147H162.02V130.854H146.264V147H134.252V105.66ZM181.859 105.66H193.559V130.62L211.109 105.66H221.639V147H209.939V122.04L192.389 147H181.859V105.66ZM253.724 132.492C252.528 133.168 251.15 133.792 249.59 134.364C248.03 134.936 246.002 135.222 243.506 135.222C238.254 135.222 234.406 133.974 231.962 131.478C229.518 128.982 228.296 125.186 228.296 120.09V105.66H240.308V118.92C240.308 121.208 240.802 122.846 241.79 123.834C242.778 124.77 244.52 125.238 247.016 125.238C248.784 125.238 250.24 125.03 251.384 124.614C252.528 124.146 253.308 123.704 253.724 123.288V105.66H265.736V147H253.724V132.492ZM294.222 148.014C291.206 148.014 288.372 147.598 285.72 146.766C283.12 145.882 280.858 144.556 278.934 142.788C277.01 141.02 275.502 138.81 274.41 136.158C273.318 133.454 272.772 130.308 272.772 126.72V125.16C272.772 121.728 273.292 118.738 274.332 116.19C275.424 113.642 276.88 111.51 278.7 109.794C280.572 108.078 282.756 106.804 285.252 105.972C287.8 105.088 290.53 104.646 293.442 104.646C300.254 104.646 305.402 106.414 308.886 109.95C312.37 113.434 314.112 118.504 314.112 125.16V129.45H285.096C285.148 131.062 285.434 132.44 285.954 133.584C286.474 134.676 287.15 135.586 287.982 136.314C288.814 137.042 289.75 137.588 290.79 137.952C291.882 138.264 293.026 138.42 294.222 138.42C296.51 138.42 298.304 138.082 299.604 137.406C300.956 136.678 301.84 135.716 302.256 134.52H313.332C312.5 139.044 310.446 142.424 307.17 144.66C303.894 146.896 299.578 148.014 294.222 148.014ZM293.832 114.162C292.74 114.162 291.674 114.292 290.634 114.552C289.646 114.812 288.736 115.254 287.904 115.878C287.124 116.45 286.474 117.204 285.954 118.14C285.486 119.076 285.226 120.22 285.174 121.572H302.334C302.334 120.116 302.1 118.92 301.632 117.984C301.164 117.048 300.54 116.294 299.76 115.722C299.032 115.15 298.148 114.76 297.108 114.552C296.068 114.292 294.976 114.162 293.832 114.162ZM339.839 148.014C336.771 148.014 333.937 147.572 331.337 146.688C328.789 145.804 326.579 144.478 324.707 142.71C322.835 140.942 321.379 138.732 320.339 136.08C319.299 133.428 318.779 130.308 318.779 126.72V125.16C318.779 121.884 319.325 118.972 320.417 116.424C321.561 113.876 323.069 111.744 324.941 110.028C326.865 108.26 329.101 106.934 331.649 106.05C334.197 105.114 336.927 104.646 339.839 104.646C342.959 104.646 345.689 105.062 348.029 105.894C350.421 106.726 352.423 107.87 354.035 109.326C355.647 110.73 356.895 112.394 357.779 114.318C358.663 116.242 359.183 118.296 359.339 120.48H347.015C346.599 118.608 345.819 117.178 344.675 116.19C343.583 115.15 341.971 114.63 339.839 114.63C337.291 114.63 335.185 115.514 333.521 117.282C331.909 118.998 331.103 121.624 331.103 125.16V126.72C331.103 130.568 331.883 133.402 333.443 135.222C335.055 137.042 337.187 137.952 339.839 137.952C341.659 137.952 343.193 137.484 344.441 136.548C345.741 135.56 346.599 134.104 347.015 132.18H359.339C359.183 134.624 358.611 136.834 357.623 138.81C356.635 140.734 355.283 142.372 353.567 143.724C351.903 145.076 349.901 146.142 347.561 146.922C345.273 147.65 342.699 148.014 339.839 148.014ZM365.205 105.66H377.217V121.338H380.337L391.881 105.66H404.985L389.775 125.082L405.765 147H391.569L380.337 130.542H377.217V147H365.205V105.66ZM422.559 148.014C420.323 148.014 418.321 147.676 416.553 147C414.837 146.324 413.381 145.414 412.185 144.27C410.989 143.074 410.079 141.696 409.455 140.136C408.831 138.524 408.519 136.782 408.519 134.91C408.519 130.802 409.767 127.656 412.263 125.472C414.811 123.288 418.633 122.196 423.729 122.196H435.507V120.48C435.507 117.984 434.909 116.268 433.713 115.332C432.517 114.344 430.879 113.85 428.799 113.85C426.823 113.85 425.367 114.162 424.431 114.786C423.495 115.41 422.975 116.398 422.871 117.75H410.859C410.963 115.878 411.431 114.162 412.263 112.602C413.095 110.99 414.265 109.612 415.773 108.468C417.333 107.272 419.231 106.336 421.467 105.66C423.703 104.984 426.277 104.646 429.189 104.646C431.893 104.646 434.363 104.958 436.599 105.582C438.887 106.154 440.837 107.116 442.449 108.468C444.061 109.768 445.309 111.484 446.193 113.616C447.077 115.696 447.519 118.244 447.519 121.26V136.47C447.519 138.654 447.571 140.578 447.675 142.242C447.779 143.854 447.935 145.44 448.143 147H436.755C436.651 146.116 436.547 145.336 436.443 144.66C436.391 143.984 436.365 143.152 436.365 142.164C435.117 143.828 433.375 145.232 431.139 146.376C428.955 147.468 426.095 148.014 422.559 148.014ZM426.459 139.59C429.007 139.59 431.139 138.862 432.855 137.406C434.623 135.95 435.507 133.948 435.507 131.4V129.684H426.069C424.301 129.684 422.975 130.152 422.091 131.088C421.259 132.024 420.843 133.116 420.843 134.364C420.843 135.872 421.259 137.12 422.091 138.108C422.975 139.096 424.431 139.59 426.459 139.59ZM463.515 131.712C460.395 130.672 458.107 129.138 456.651 127.11C455.247 125.03 454.545 122.638 454.545 119.934C454.545 117.906 454.883 116.034 455.559 114.318C456.287 112.55 457.379 111.042 458.835 109.794C460.291 108.494 462.137 107.48 464.373 106.752C466.661 106.024 469.365 105.66 472.485 105.66H492.765V147H480.753V133.038H474.825L466.089 147H452.985L463.515 131.712ZM466.557 119.934C466.557 121.39 467.077 122.456 468.117 123.132C469.209 123.808 470.535 124.146 472.095 124.146H480.753V115.488H472.095C470.535 115.488 469.209 115.852 468.117 116.58C467.077 117.308 466.557 118.426 466.557 119.934ZM4.75938 183.66H43.7594V225H31.7474V193.488H16.7714V225H4.75938V183.66ZM71.0289 226.014C68.1169 226.014 65.3869 225.598 62.8389 224.766C60.2909 223.882 58.0549 222.556 56.1309 220.788C54.2069 219.02 52.6989 216.81 51.6069 214.158C50.5149 211.454 49.9689 208.308 49.9689 204.72V203.16C49.9689 199.78 50.5149 196.816 51.6069 194.268C52.6989 191.72 54.2069 189.588 56.1309 187.872C58.0549 186.156 60.2909 184.856 62.8389 183.972C65.3869 183.088 68.1169 182.646 71.0289 182.646C73.9409 182.646 76.6709 183.088 79.2189 183.972C81.7669 184.856 84.0029 186.156 85.9269 187.872C87.8509 189.588 89.3589 191.72 90.4509 194.268C91.5429 196.816 92.0889 199.78 92.0889 203.16V204.72C92.0889 208.256 91.5429 211.376 90.4509 214.08C89.3589 216.732 87.8509 218.942 85.9269 220.71C84.0029 222.478 81.7669 223.804 79.2189 224.688C76.6709 225.572 73.9409 226.014 71.0289 226.014ZM71.0289 216.03C73.8369 216.03 75.9949 215.016 77.5029 212.988C79.0109 210.96 79.7649 208.204 79.7649 204.72V203.16C79.7649 200.04 79.0109 197.518 77.5029 195.594C75.9949 193.618 73.8369 192.63 71.0289 192.63C68.2209 192.63 66.0629 193.618 64.5549 195.594C63.0469 197.518 62.2929 200.04 62.2929 203.16V204.72C62.2929 208.308 63.0469 211.09 64.5549 213.066C66.0629 215.042 68.2209 216.03 71.0289 216.03ZM95.1876 215.172H99.5556C100.648 213.56 101.428 211.35 101.896 208.542C102.364 205.682 102.598 201.808 102.598 196.92V183.66H136.528V215.172H141.208V234.75H131.068V225H105.328V234.75H95.1876V215.172ZM124.516 215.172V193.488H113.674V198.48C113.674 202.38 113.466 205.682 113.05 208.386C112.686 211.09 112.114 213.352 111.334 215.172H124.516ZM146.299 215.172H150.667C151.759 213.56 152.539 211.35 153.007 208.542C153.475 205.682 153.709 201.808 153.709 196.92V183.66H187.639V215.172H192.319V234.75H182.179V225H156.439V234.75H146.299V215.172ZM175.627 215.172V193.488H164.785V198.48C164.785 202.38 164.577 205.682 164.161 208.386C163.797 211.09 163.225 213.352 162.445 215.172H175.627ZM217.288 226.014C214.272 226.014 211.438 225.598 208.786 224.766C206.186 223.882 203.924 222.556 202 220.788C200.076 219.02 198.568 216.81 197.476 214.158C196.384 211.454 195.838 208.308 195.838 204.72V203.16C195.838 199.728 196.358 196.738 197.398 194.19C198.49 191.642 199.946 189.51 201.766 187.794C203.638 186.078 205.822 184.804 208.318 183.972C210.866 183.088 213.596 182.646 216.508 182.646C223.32 182.646 228.468 184.414 231.952 187.95C235.436 191.434 237.178 196.504 237.178 203.16V207.45H208.162C208.214 209.062 208.5 210.44 209.02 211.584C209.54 212.676 210.216 213.586 211.048 214.314C211.88 215.042 212.816 215.588 213.856 215.952C214.948 216.264 216.092 216.42 217.288 216.42C219.576 216.42 221.37 216.082 222.67 215.406C224.022 214.678 224.906 213.716 225.322 212.52H236.398C235.566 217.044 233.512 220.424 230.236 222.66C226.96 224.896 222.644 226.014 217.288 226.014ZM216.898 192.162C215.806 192.162 214.74 192.292 213.7 192.552C212.712 192.812 211.802 193.254 210.97 193.878C210.19 194.45 209.54 195.204 209.02 196.14C208.552 197.076 208.292 198.22 208.24 199.572H225.4C225.4 198.116 225.166 196.92 224.698 195.984C224.23 195.048 223.606 194.294 222.826 193.722C222.098 193.15 221.214 192.76 220.174 192.552C219.134 192.292 218.042 192.162 216.898 192.162ZM243.406 183.66H254.482V189.276C255.002 188.444 255.652 187.638 256.432 186.858C257.264 186.026 258.226 185.298 259.318 184.674C260.41 184.05 261.632 183.556 262.984 183.192C264.336 182.828 265.792 182.646 267.352 182.646C273.176 182.646 277.596 184.362 280.612 187.794C283.628 191.226 285.136 196.348 285.136 203.16V204.72C285.136 208.256 284.72 211.35 283.888 214.002C283.056 216.654 281.86 218.864 280.3 220.632C278.74 222.4 276.868 223.752 274.684 224.688C272.5 225.572 270.056 226.014 267.352 226.014C265.012 226.014 262.776 225.494 260.644 224.454C258.564 223.362 256.822 221.802 255.418 219.774V240.6H243.406V183.66ZM264.466 216.108C266.858 216.108 268.834 215.146 270.394 213.222C272.006 211.298 272.812 208.464 272.812 204.72V203.16C272.812 199.572 272.032 196.92 270.472 195.204C268.964 193.436 266.962 192.552 264.466 192.552C261.918 192.552 259.76 193.358 257.992 194.97C256.276 196.53 255.418 198.87 255.418 201.99V205.89C255.418 209.166 256.276 211.688 257.992 213.456C259.76 215.224 261.918 216.108 264.466 216.108ZM300.401 203.706L287.609 183.66H300.245L309.605 199.494H311.945V183.66H323.957V199.494H326.297L336.203 183.66H348.371L335.501 202.848L349.151 225H335.891L326.297 208.386H323.957V225H311.945V208.386H309.527L299.543 225H286.751L300.401 203.706ZM353.855 183.66H365.867V199.338H368.987L380.531 183.66H393.635L378.425 203.082L394.415 225H380.219L368.987 208.542H365.867V225H353.855V183.66ZM411.209 226.014C408.973 226.014 406.971 225.676 405.203 225C403.487 224.324 402.031 223.414 400.835 222.27C399.639 221.074 398.729 219.696 398.105 218.136C397.481 216.524 397.169 214.782 397.169 212.91C397.169 208.802 398.417 205.656 400.913 203.472C403.461 201.288 407.283 200.196 412.379 200.196H424.157V198.48C424.157 195.984 423.559 194.268 422.363 193.332C421.167 192.344 419.529 191.85 417.449 191.85C415.473 191.85 414.017 192.162 413.081 192.786C412.145 193.41 411.625 194.398 411.521 195.75H399.509C399.613 193.878 400.081 192.162 400.913 190.602C401.745 188.99 402.915 187.612 404.423 186.468C405.983 185.272 407.881 184.336 410.117 183.66C412.353 182.984 414.927 182.646 417.839 182.646C420.543 182.646 423.013 182.958 425.249 183.582C427.537 184.154 429.487 185.116 431.099 186.468C432.711 187.768 433.959 189.484 434.843 191.616C435.727 193.696 436.169 196.244 436.169 199.26V214.47C436.169 216.654 436.221 218.578 436.325 220.242C436.429 221.854 436.585 223.44 436.793 225H425.405C425.301 224.116 425.197 223.336 425.093 222.66C425.041 221.984 425.015 221.152 425.015 220.164C423.767 221.828 422.025 223.232 419.789 224.376C417.605 225.468 414.745 226.014 411.209 226.014ZM415.109 217.59C417.657 217.59 419.789 216.862 421.505 215.406C423.273 213.95 424.157 211.948 424.157 209.4V207.684H414.719C412.951 207.684 411.625 208.152 410.741 209.088C409.909 210.024 409.493 211.116 409.493 212.364C409.493 213.872 409.909 215.12 410.741 216.108C411.625 217.096 413.081 217.59 415.109 217.59Z" fill="#110545"/>
<mask id="mask0_5519_15059" style="mask-type:alpha" maskUnits="userSpaceOnUse" x="2" y="14" width="759" height="227">
<path d="M6.31938 14.4H53.8994V69H39.8594V25.944H20.3594V69H6.31938V14.4ZM63.2594 27.66H74.3354V33.276C74.8554 32.444 75.5054 31.638 76.2854 30.858C77.1174 30.026 78.0794 29.298 79.1714 28.674C80.2634 28.05 81.4854 27.556 82.8374 27.192C84.1894 26.828 85.6454 26.646 87.2054 26.646C93.0294 26.646 97.4494 28.362 100.465 31.794C103.481 35.226 104.989 40.348 104.989 47.16V48.72C104.989 52.256 104.573 55.35 103.741 58.002C102.909 60.654 101.713 62.864 100.153 64.632C98.5934 66.4 96.7214 67.752 94.5374 68.688C92.3534 69.572 89.9094 70.014 87.2054 70.014C84.8654 70.014 82.6294 69.494 80.4974 68.454C78.4174 67.362 76.6754 65.802 75.2714 63.774V84.6H63.2594V27.66ZM84.3194 60.108C86.7114 60.108 88.6874 59.146 90.2474 57.222C91.8594 55.298 92.6654 52.464 92.6654 48.72V47.16C92.6654 43.572 91.8854 40.92 90.3254 39.204C88.8174 37.436 86.8154 36.552 84.3194 36.552C81.7714 36.552 79.6134 37.358 77.8454 38.97C76.1294 40.53 75.2714 42.87 75.2714 45.99V49.89C75.2714 53.166 76.1294 55.688 77.8454 57.456C79.6134 59.224 81.7714 60.108 84.3194 60.108ZM130.748 70.014C127.836 70.014 125.106 69.598 122.558 68.766C120.01 67.882 117.774 66.556 115.85 64.788C113.926 63.02 112.418 60.81 111.326 58.158C110.234 55.454 109.688 52.308 109.688 48.72V47.16C109.688 43.78 110.234 40.816 111.326 38.268C112.418 35.72 113.926 33.588 115.85 31.872C117.774 30.156 120.01 28.856 122.558 27.972C125.106 27.088 127.836 26.646 130.748 26.646C133.66 26.646 136.39 27.088 138.938 27.972C141.486 28.856 143.722 30.156 145.646 31.872C147.57 33.588 149.078 35.72 150.17 38.268C151.262 40.816 151.808 43.78 151.808 47.16V48.72C151.808 52.256 151.262 55.376 150.17 58.08C149.078 60.732 147.57 62.942 145.646 64.71C143.722 66.478 141.486 67.804 138.938 68.688C136.39 69.572 133.66 70.014 130.748 70.014ZM130.748 60.03C133.556 60.03 135.714 59.016 137.222 56.988C138.73 54.96 139.484 52.204 139.484 48.72V47.16C139.484 44.04 138.73 41.518 137.222 39.594C135.714 37.618 133.556 36.63 130.748 36.63C127.94 36.63 125.782 37.618 124.274 39.594C122.766 41.518 122.012 44.04 122.012 47.16V48.72C122.012 52.308 122.766 55.09 124.274 57.066C125.782 59.042 127.94 60.03 130.748 60.03ZM178.141 70.014C171.121 70.014 165.739 68.22 161.995 64.632C158.303 60.992 156.457 55.688 156.457 48.72V47.16C156.457 40.504 158.303 35.434 161.995 31.95C165.739 28.414 171.121 26.646 178.141 26.646V14.4H190.153V26.646C197.121 26.646 202.477 28.414 206.221 31.95C209.965 35.434 211.837 40.504 211.837 47.16V48.72C211.837 55.688 209.965 60.992 206.221 64.632C202.477 68.22 197.121 70.014 190.153 70.014V84.6H178.141V70.014ZM199.669 47.16C199.669 43.676 198.863 41.05 197.251 39.282C195.639 37.514 193.117 36.63 189.685 36.63V60.03C193.117 60.03 195.639 59.068 197.251 57.144C198.863 55.168 199.669 52.36 199.669 48.72V47.16ZM168.625 48.72C168.625 52.412 169.431 55.22 171.043 57.144C172.655 59.068 175.177 60.03 178.609 60.03V36.63C175.073 36.63 172.525 37.54 170.965 39.36C169.405 41.18 168.625 43.78 168.625 47.16V48.72ZM237.931 70.014C234.915 70.014 232.081 69.598 229.429 68.766C226.829 67.882 224.567 66.556 222.643 64.788C220.719 63.02 219.211 60.81 218.119 58.158C217.027 55.454 216.481 52.308 216.481 48.72V47.16C216.481 43.728 217.001 40.738 218.041 38.19C219.133 35.642 220.589 33.51 222.409 31.794C224.281 30.078 226.465 28.804 228.961 27.972C231.509 27.088 234.239 26.646 237.151 26.646C243.963 26.646 249.111 28.414 252.595 31.95C256.079 35.434 257.821 40.504 257.821 47.16V51.45H228.805C228.857 53.062 229.143 54.44 229.663 55.584C230.183 56.676 230.859 57.586 231.691 58.314C232.523 59.042 233.459 59.588 234.499 59.952C235.591 60.264 236.735 60.42 237.931 60.42C240.219 60.42 242.013 60.082 243.313 59.406C244.665 58.678 245.549 57.716 245.965 56.52H257.041C256.209 61.044 254.155 64.424 250.879 66.66C247.603 68.896 243.287 70.014 237.931 70.014ZM237.541 36.162C236.449 36.162 235.383 36.292 234.343 36.552C233.355 36.812 232.445 37.254 231.613 37.878C230.833 38.45 230.183 39.204 229.663 40.14C229.195 41.076 228.935 42.22 228.883 43.572H246.043C246.043 42.116 245.809 40.92 245.341 39.984C244.873 39.048 244.249 38.294 243.469 37.722C242.741 37.15 241.857 36.76 240.817 36.552C239.777 36.292 238.685 36.162 237.541 36.162ZM283.548 70.014C280.48 70.014 277.646 69.572 275.046 68.688C272.498 67.804 270.288 66.478 268.416 64.71C266.544 62.942 265.088 60.732 264.048 58.08C263.008 55.428 262.488 52.308 262.488 48.72V47.16C262.488 43.884 263.034 40.972 264.126 38.424C265.27 35.876 266.778 33.744 268.65 32.028C270.574 30.26 272.81 28.934 275.358 28.05C277.906 27.114 280.636 26.646 283.548 26.646C286.668 26.646 289.398 27.062 291.738 27.894C294.13 28.726 296.132 29.87 297.744 31.326C299.356 32.73 300.604 34.394 301.488 36.318C302.372 38.242 302.892 40.296 303.048 42.48H290.724C290.308 40.608 289.528 39.178 288.384 38.19C287.292 37.15 285.68 36.63 283.548 36.63C281 36.63 278.894 37.514 277.23 39.282C275.618 40.998 274.812 43.624 274.812 47.16V48.72C274.812 52.568 275.592 55.402 277.152 57.222C278.764 59.042 280.896 59.952 283.548 59.952C285.368 59.952 286.902 59.484 288.15 58.548C289.45 57.56 290.308 56.104 290.724 54.18H303.048C302.892 56.624 302.32 58.834 301.332 60.81C300.344 62.734 298.992 64.372 297.276 65.724C295.612 67.076 293.61 68.142 291.27 68.922C288.982 69.65 286.408 70.014 283.548 70.014ZM328.414 70.014C325.346 70.014 322.512 69.572 319.912 68.688C317.364 67.804 315.154 66.478 313.282 64.71C311.41 62.942 309.954 60.732 308.914 58.08C307.874 55.428 307.354 52.308 307.354 48.72V47.16C307.354 43.884 307.9 40.972 308.992 38.424C310.136 35.876 311.644 33.744 313.516 32.028C315.44 30.26 317.676 28.934 320.224 28.05C322.772 27.114 325.502 26.646 328.414 26.646C331.534 26.646 334.264 27.062 336.604 27.894C338.996 28.726 340.998 29.87 342.61 31.326C344.222 32.73 345.47 34.394 346.354 36.318C347.238 38.242 347.758 40.296 347.914 42.48H335.59C335.174 40.608 334.394 39.178 333.25 38.19C332.158 37.15 330.546 36.63 328.414 36.63C325.866 36.63 323.76 37.514 322.096 39.282C320.484 40.998 319.678 43.624 319.678 47.16V48.72C319.678 52.568 320.458 55.402 322.018 57.222C323.63 59.042 325.762 59.952 328.414 59.952C330.234 59.952 331.768 59.484 333.016 58.548C334.316 57.56 335.174 56.104 335.59 54.18H347.914C347.758 56.624 347.186 58.834 346.198 60.81C345.21 62.734 343.858 64.372 342.142 65.724C340.478 67.076 338.476 68.142 336.136 68.922C333.848 69.65 331.274 70.014 328.414 70.014ZM353.779 27.66H365.479V52.62L383.029 27.66H393.559V69H381.859V44.04L364.309 69H353.779V27.66ZM420.886 70.014C417.974 70.014 415.244 69.598 412.696 68.766C410.148 67.882 407.912 66.556 405.988 64.788C404.064 63.02 402.556 60.81 401.464 58.158C400.372 55.454 399.826 52.308 399.826 48.72V47.16C399.826 43.78 400.372 40.816 401.464 38.268C402.556 35.72 404.064 33.588 405.988 31.872C407.912 30.156 410.148 28.856 412.696 27.972C415.244 27.088 417.974 26.646 420.886 26.646C423.798 26.646 426.528 27.088 429.076 27.972C431.624 28.856 433.86 30.156 435.784 31.872C437.708 33.588 439.216 35.72 440.308 38.268C441.4 40.816 441.946 43.78 441.946 47.16V48.72C441.946 52.256 441.4 55.376 440.308 58.08C439.216 60.732 437.708 62.942 435.784 64.71C433.86 66.478 431.624 67.804 429.076 68.688C426.528 69.572 423.798 70.014 420.886 70.014ZM420.886 60.03C423.694 60.03 425.852 59.016 427.36 56.988C428.868 54.96 429.622 52.204 429.622 48.72V47.16C429.622 44.04 428.868 41.518 427.36 39.594C425.852 37.618 423.694 36.63 420.886 36.63C418.078 36.63 415.92 37.618 414.412 39.594C412.904 41.518 412.15 44.04 412.15 47.16V48.72C412.15 52.308 412.904 55.09 414.412 57.066C415.92 59.042 418.078 60.03 420.886 60.03ZM448.156 27.66H460.168V43.026H475.924V27.66H487.936V69H475.924V52.854H460.168V69H448.156V27.66ZM508.633 70.014C506.397 70.014 504.395 69.676 502.627 69C500.911 68.324 499.455 67.414 498.259 66.27C497.063 65.074 496.153 63.696 495.529 62.136C494.905 60.524 494.593 58.782 494.593 56.91C494.593 52.802 495.841 49.656 498.337 47.472C500.885 45.288 504.707 44.196 509.803 44.196H521.581V42.48C521.581 39.984 520.983 38.268 519.787 37.332C518.591 36.344 516.953 35.85 514.873 35.85C512.897 35.85 511.441 36.162 510.505 36.786C509.569 37.41 509.049 38.398 508.945 39.75H496.933C497.037 37.878 497.505 36.162 498.337 34.602C499.169 32.99 500.339 31.612 501.847 30.468C503.407 29.272 505.305 28.336 507.541 27.66C509.777 26.984 512.351 26.646 515.263 26.646C517.967 26.646 520.437 26.958 522.673 27.582C524.961 28.154 526.911 29.116 528.523 30.468C530.135 31.768 531.383 33.484 532.267 35.616C533.151 37.696 533.593 40.244 533.593 43.26V58.47C533.593 60.654 533.645 62.578 533.749 64.242C533.853 65.854 534.009 67.44 534.217 69H522.829C522.725 68.116 522.621 67.336 522.517 66.66C522.465 65.984 522.439 65.152 522.439 64.164C521.191 65.828 519.449 67.232 517.213 68.376C515.029 69.468 512.169 70.014 508.633 70.014ZM512.533 61.59C515.081 61.59 517.213 60.862 518.929 59.406C520.697 57.95 521.581 55.948 521.581 53.4V51.684H512.143C510.375 51.684 509.049 52.152 508.165 53.088C507.333 54.024 506.917 55.116 506.917 56.364C506.917 57.872 507.333 59.12 508.165 60.108C509.049 61.096 510.505 61.59 512.533 61.59ZM542.179 70.014C541.763 70.014 541.165 69.988 540.385 69.936C539.657 69.936 539.085 69.884 538.669 69.78V59.328C538.929 59.38 539.319 59.406 539.839 59.406C540.723 59.406 541.503 59.146 542.179 58.626C542.855 58.054 543.427 57.144 543.895 55.896C544.363 54.596 544.701 52.932 544.909 50.904C545.169 48.824 545.299 46.276 545.299 43.26V27.66H579.619V69H567.607V37.488H556.531V44.82C556.531 49.968 556.219 54.18 555.595 57.456C554.971 60.732 554.061 63.306 552.865 65.178C551.669 67.05 550.161 68.324 548.341 69C546.573 69.676 544.519 70.014 542.179 70.014ZM588.178 27.66H600.19V41.076H608.458C613.866 41.076 617.948 42.22 620.704 44.508C623.46 46.796 624.838 50.306 624.838 55.038C624.838 57.118 624.526 59.016 623.902 60.732C623.33 62.448 622.368 63.93 621.016 65.178C619.716 66.374 618.026 67.31 615.946 67.986C613.918 68.662 611.422 69 608.458 69H588.178V27.66ZM606.898 59.952C609.03 59.952 610.538 59.562 611.422 58.782C612.358 57.95 612.826 56.702 612.826 55.038C612.826 53.322 612.358 52.074 611.422 51.294C610.538 50.514 609.03 50.124 606.898 50.124H600.19V59.952H606.898ZM630.283 27.66H642.295V43.026H658.051V27.66H670.063V69H658.051V52.854H642.295V69H630.283V27.66ZM690.76 70.014C688.524 70.014 686.522 69.676 684.754 69C683.038 68.324 681.582 67.414 680.386 66.27C679.19 65.074 678.28 63.696 677.656 62.136C677.032 60.524 676.72 58.782 676.72 56.91C676.72 52.802 677.968 49.656 680.464 47.472C683.012 45.288 686.834 44.196 691.93 44.196H703.708V42.48C703.708 39.984 703.11 38.268 701.914 37.332C700.718 36.344 699.08 35.85 697 35.85C695.024 35.85 693.568 36.162 692.632 36.786C691.696 37.41 691.176 38.398 691.072 39.75H679.06C679.164 37.878 679.632 36.162 680.464 34.602C681.296 32.99 682.466 31.612 683.974 30.468C685.534 29.272 687.432 28.336 689.668 27.66C691.904 26.984 694.478 26.646 697.39 26.646C700.094 26.646 702.564 26.958 704.8 27.582C707.088 28.154 709.038 29.116 710.65 30.468C712.262 31.768 713.51 33.484 714.394 35.616C715.278 37.696 715.72 40.244 715.72 43.26V58.47C715.72 60.654 715.772 62.578 715.876 64.242C715.98 65.854 716.136 67.44 716.344 69H704.956C704.852 68.116 704.748 67.336 704.644 66.66C704.592 65.984 704.566 65.152 704.566 64.164C703.318 65.828 701.576 67.232 699.34 68.376C697.156 69.468 694.296 70.014 690.76 70.014ZM694.66 61.59C697.208 61.59 699.34 60.862 701.056 59.406C702.824 57.95 703.708 55.948 703.708 53.4V51.684H694.27C692.502 51.684 691.176 52.152 690.292 53.088C689.46 54.024 689.044 55.116 689.044 56.364C689.044 57.872 689.46 59.12 690.292 60.108C691.176 61.096 692.632 61.59 694.66 61.59ZM731.716 53.712C728.596 52.672 726.308 51.138 724.852 49.11C723.448 47.03 722.746 44.638 722.746 41.934C722.746 39.906 723.084 38.034 723.76 36.318C724.488 34.55 725.58 33.042 727.036 31.794C728.492 30.494 730.338 29.48 732.574 28.752C734.862 28.024 737.566 27.66 740.686 27.66H760.966V69H748.954V55.038H743.026L734.29 69H721.186L731.716 53.712ZM734.758 41.934C734.758 43.39 735.278 44.456 736.318 45.132C737.41 45.808 738.736 46.146 740.296 46.146H748.954V37.488H740.296C738.736 37.488 737.41 37.852 736.318 38.58C735.278 39.308 734.758 40.426 734.758 41.934ZM15.1334 115.488H2.41938V105.66H39.8594V115.488H27.1454V147H15.1334V115.488ZM64.4111 148.014C61.3951 148.014 58.5611 147.598 55.9091 146.766C53.3091 145.882 51.0471 144.556 49.1231 142.788C47.1991 141.02 45.6911 138.81 44.5991 136.158C43.5071 133.454 42.9611 130.308 42.9611 126.72V125.16C42.9611 121.728 43.4811 118.738 44.5211 116.19C45.6131 113.642 47.0691 111.51 48.8891 109.794C50.7611 108.078 52.9451 106.804 55.4411 105.972C57.9891 105.088 60.7191 104.646 63.6311 104.646C70.4431 104.646 75.5911 106.414 79.0751 109.95C82.5591 113.434 84.3011 118.504 84.3011 125.16V129.45H55.2851C55.3371 131.062 55.6231 132.44 56.1431 133.584C56.6631 134.676 57.3391 135.586 58.1711 136.314C59.0031 137.042 59.9391 137.588 60.9791 137.952C62.0711 138.264 63.2151 138.42 64.4111 138.42C66.6991 138.42 68.4931 138.082 69.7931 137.406C71.1451 136.678 72.0291 135.716 72.4451 134.52H83.5211C82.6891 139.044 80.6351 142.424 77.3591 144.66C74.0831 146.896 69.7671 148.014 64.4111 148.014ZM64.0211 114.162C62.9291 114.162 61.8631 114.292 60.8231 114.552C59.8351 114.812 58.9251 115.254 58.0931 115.878C57.3131 116.45 56.6631 117.204 56.1431 118.14C55.6751 119.076 55.4151 120.22 55.3631 121.572H72.5231C72.5231 120.116 72.2891 118.92 71.8211 117.984C71.3531 117.048 70.7291 116.294 69.9491 115.722C69.2211 115.15 68.3371 114.76 67.2971 114.552C66.2571 114.292 65.1651 114.162 64.0211 114.162ZM99.0675 125.472L86.6655 105.66H99.9255L108.037 118.296L115.837 105.66H128.785L116.461 125.082L129.565 147H116.227L107.569 132.258L98.9115 147H85.8855L99.0675 125.472ZM134.252 105.66H146.264V121.026H162.02V105.66H174.032V147H162.02V130.854H146.264V147H134.252V105.66ZM181.859 105.66H193.559V130.62L211.109 105.66H221.639V147H209.939V122.04L192.389 147H181.859V105.66ZM253.724 132.492C252.528 133.168 251.15 133.792 249.59 134.364C248.03 134.936 246.002 135.222 243.506 135.222C238.254 135.222 234.406 133.974 231.962 131.478C229.518 128.982 228.296 125.186 228.296 120.09V105.66H240.308V118.92C240.308 121.208 240.802 122.846 241.79 123.834C242.778 124.77 244.52 125.238 247.016 125.238C248.784 125.238 250.24 125.03 251.384 124.614C252.528 124.146 253.308 123.704 253.724 123.288V105.66H265.736V147H253.724V132.492ZM294.222 148.014C291.206 148.014 288.372 147.598 285.72 146.766C283.12 145.882 280.858 144.556 278.934 142.788C277.01 141.02 275.502 138.81 274.41 136.158C273.318 133.454 272.772 130.308 272.772 126.72V125.16C272.772 121.728 273.292 118.738 274.332 116.19C275.424 113.642 276.88 111.51 278.7 109.794C280.572 108.078 282.756 106.804 285.252 105.972C287.8 105.088 290.53 104.646 293.442 104.646C300.254 104.646 305.402 106.414 308.886 109.95C312.37 113.434 314.112 118.504 314.112 125.16V129.45H285.096C285.148 131.062 285.434 132.44 285.954 133.584C286.474 134.676 287.15 135.586 287.982 136.314C288.814 137.042 289.75 137.588 290.79 137.952C291.882 138.264 293.026 138.42 294.222 138.42C296.51 138.42 298.304 138.082 299.604 137.406C300.956 136.678 301.84 135.716 302.256 134.52H313.332C312.5 139.044 310.446 142.424 307.17 144.66C303.894 146.896 299.578 148.014 294.222 148.014ZM293.832 114.162C292.74 114.162 291.674 114.292 290.634 114.552C289.646 114.812 288.736 115.254 287.904 115.878C287.124 116.45 286.474 117.204 285.954 118.14C285.486 119.076 285.226 120.22 285.174 121.572H302.334C302.334 120.116 302.1 118.92 301.632 117.984C301.164 117.048 300.54 116.294 299.76 115.722C299.032 115.15 298.148 114.76 297.108 114.552C296.068 114.292 294.976 114.162 293.832 114.162ZM339.839 148.014C336.771 148.014 333.937 147.572 331.337 146.688C328.789 145.804 326.579 144.478 324.707 142.71C322.835 140.942 321.379 138.732 320.339 136.08C319.299 133.428 318.779 130.308 318.779 126.72V125.16C318.779 121.884 319.325 118.972 320.417 116.424C321.561 113.876 323.069 111.744 324.941 110.028C326.865 108.26 329.101 106.934 331.649 106.05C334.197 105.114 336.927 104.646 339.839 104.646C342.959 104.646 345.689 105.062 348.029 105.894C350.421 106.726 352.423 107.87 354.035 109.326C355.647 110.73 356.895 112.394 357.779 114.318C358.663 116.242 359.183 118.296 359.339 120.48H347.015C346.599 118.608 345.819 117.178 344.675 116.19C343.583 115.15 341.971 114.63 339.839 114.63C337.291 114.63 335.185 115.514 333.521 117.282C331.909 118.998 331.103 121.624 331.103 125.16V126.72C331.103 130.568 331.883 133.402 333.443 135.222C335.055 137.042 337.187 137.952 339.839 137.952C341.659 137.952 343.193 137.484 344.441 136.548C345.741 135.56 346.599 134.104 347.015 132.18H359.339C359.183 134.624 358.611 136.834 357.623 138.81C356.635 140.734 355.283 142.372 353.567 143.724C351.903 145.076 349.901 146.142 347.561 146.922C345.273 147.65 342.699 148.014 339.839 148.014ZM365.205 105.66H377.217V121.338H380.337L391.881 105.66H404.985L389.775 125.082L405.765 147H391.569L380.337 130.542H377.217V147H365.205V105.66ZM422.559 148.014C420.323 148.014 418.321 147.676 416.553 147C414.837 146.324 413.381 145.414 412.185 144.27C410.989 143.074 410.079 141.696 409.455 140.136C408.831 138.524 408.519 136.782 408.519 134.91C408.519 130.802 409.767 127.656 412.263 125.472C414.811 123.288 418.633 122.196 423.729 122.196H435.507V120.48C435.507 117.984 434.909 116.268 433.713 115.332C432.517 114.344 430.879 113.85 428.799 113.85C426.823 113.85 425.367 114.162 424.431 114.786C423.495 115.41 422.975 116.398 422.871 117.75H410.859C410.963 115.878 411.431 114.162 412.263 112.602C413.095 110.99 414.265 109.612 415.773 108.468C417.333 107.272 419.231 106.336 421.467 105.66C423.703 104.984 426.277 104.646 429.189 104.646C431.893 104.646 434.363 104.958 436.599 105.582C438.887 106.154 440.837 107.116 442.449 108.468C444.061 109.768 445.309 111.484 446.193 113.616C447.077 115.696 447.519 118.244 447.519 121.26V136.47C447.519 138.654 447.571 140.578 447.675 142.242C447.779 143.854 447.935 145.44 448.143 147H436.755C436.651 146.116 436.547 145.336 436.443 144.66C436.391 143.984 436.365 143.152 436.365 142.164C435.117 143.828 433.375 145.232 431.139 146.376C428.955 147.468 426.095 148.014 422.559 148.014ZM426.459 139.59C429.007 139.59 431.139 138.862 432.855 137.406C434.623 135.95 435.507 133.948 435.507 131.4V129.684H426.069C424.301 129.684 422.975 130.152 422.091 131.088C421.259 132.024 420.843 133.116 420.843 134.364C420.843 135.872 421.259 137.12 422.091 138.108C422.975 139.096 424.431 139.59 426.459 139.59ZM463.515 131.712C460.395 130.672 458.107 129.138 456.651 127.11C455.247 125.03 454.545 122.638 454.545 119.934C454.545 117.906 454.883 116.034 455.559 114.318C456.287 112.55 457.379 111.042 458.835 109.794C460.291 108.494 462.137 107.48 464.373 106.752C466.661 106.024 469.365 105.66 472.485 105.66H492.765V147H480.753V133.038H474.825L466.089 147H452.985L463.515 131.712ZM466.557 119.934C466.557 121.39 467.077 122.456 468.117 123.132C469.209 123.808 470.535 124.146 472.095 124.146H480.753V115.488H472.095C470.535 115.488 469.209 115.852 468.117 116.58C467.077 117.308 466.557 118.426 466.557 119.934ZM4.75938 183.66H43.7594V225H31.7474V193.488H16.7714V225H4.75938V183.66ZM71.0289 226.014C68.1169 226.014 65.3869 225.598 62.8389 224.766C60.2909 223.882 58.0549 222.556 56.1309 220.788C54.2069 219.02 52.6989 216.81 51.6069 214.158C50.5149 211.454 49.9689 208.308 49.9689 204.72V203.16C49.9689 199.78 50.5149 196.816 51.6069 194.268C52.6989 191.72 54.2069 189.588 56.1309 187.872C58.0549 186.156 60.2909 184.856 62.8389 183.972C65.3869 183.088 68.1169 182.646 71.0289 182.646C73.9409 182.646 76.6709 183.088 79.2189 183.972C81.7669 184.856 84.0029 186.156 85.9269 187.872C87.8509 189.588 89.3589 191.72 90.4509 194.268C91.5429 196.816 92.0889 199.78 92.0889 203.16V204.72C92.0889 208.256 91.5429 211.376 90.4509 214.08C89.3589 216.732 87.8509 218.942 85.9269 220.71C84.0029 222.478 81.7669 223.804 79.2189 224.688C76.6709 225.572 73.9409 226.014 71.0289 226.014ZM71.0289 216.03C73.8369 216.03 75.9949 215.016 77.5029 212.988C79.0109 210.96 79.7649 208.204 79.7649 204.72V203.16C79.7649 200.04 79.0109 197.518 77.5029 195.594C75.9949 193.618 73.8369 192.63 71.0289 192.63C68.2209 192.63 66.0629 193.618 64.5549 195.594C63.0469 197.518 62.2929 200.04 62.2929 203.16V204.72C62.2929 208.308 63.0469 211.09 64.5549 213.066C66.0629 215.042 68.2209 216.03 71.0289 216.03ZM95.1876 215.172H99.5556C100.648 213.56 101.428 211.35 101.896 208.542C102.364 205.682 102.598 201.808 102.598 196.92V183.66H136.528V215.172H141.208V234.75H131.068V225H105.328V234.75H95.1876V215.172ZM124.516 215.172V193.488H113.674V198.48C113.674 202.38 113.466 205.682 113.05 208.386C112.686 211.09 112.114 213.352 111.334 215.172H124.516ZM146.299 215.172H150.667C151.759 213.56 152.539 211.35 153.007 208.542C153.475 205.682 153.709 201.808 153.709 196.92V183.66H187.639V215.172H192.319V234.75H182.179V225H156.439V234.75H146.299V215.172ZM175.627 215.172V193.488H164.785V198.48C164.785 202.38 164.577 205.682 164.161 208.386C163.797 211.09 163.225 213.352 162.445 215.172H175.627ZM217.288 226.014C214.272 226.014 211.438 225.598 208.786 224.766C206.186 223.882 203.924 222.556 202 220.788C200.076 219.02 198.568 216.81 197.476 214.158C196.384 211.454 195.838 208.308 195.838 204.72V203.16C195.838 199.728 196.358 196.738 197.398 194.19C198.49 191.642 199.946 189.51 201.766 187.794C203.638 186.078 205.822 184.804 208.318 183.972C210.866 183.088 213.596 182.646 216.508 182.646C223.32 182.646 228.468 184.414 231.952 187.95C235.436 191.434 237.178 196.504 237.178 203.16V207.45H208.162C208.214 209.062 208.5 210.44 209.02 211.584C209.54 212.676 210.216 213.586 211.048 214.314C211.88 215.042 212.816 215.588 213.856 215.952C214.948 216.264 216.092 216.42 217.288 216.42C219.576 216.42 221.37 216.082 222.67 215.406C224.022 214.678 224.906 213.716 225.322 212.52H236.398C235.566 217.044 233.512 220.424 230.236 222.66C226.96 224.896 222.644 226.014 217.288 226.014ZM216.898 192.162C215.806 192.162 214.74 192.292 213.7 192.552C212.712 192.812 211.802 193.254 210.97 193.878C210.19 194.45 209.54 195.204 209.02 196.14C208.552 197.076 208.292 198.22 208.24 199.572H225.4C225.4 198.116 225.166 196.92 224.698 195.984C224.23 195.048 223.606 194.294 222.826 193.722C222.098 193.15 221.214 192.76 220.174 192.552C219.134 192.292 218.042 192.162 216.898 192.162ZM243.406 183.66H254.482V189.276C255.002 188.444 255.652 187.638 256.432 186.858C257.264 186.026 258.226 185.298 259.318 184.674C260.41 184.05 261.632 183.556 262.984 183.192C264.336 182.828 265.792 182.646 267.352 182.646C273.176 182.646 277.596 184.362 280.612 187.794C283.628 191.226 285.136 196.348 285.136 203.16V204.72C285.136 208.256 284.72 211.35 283.888 214.002C283.056 216.654 281.86 218.864 280.3 220.632C278.74 222.4 276.868 223.752 274.684 224.688C272.5 225.572 270.056 226.014 267.352 226.014C265.012 226.014 262.776 225.494 260.644 224.454C258.564 223.362 256.822 221.802 255.418 219.774V240.6H243.406V183.66ZM264.466 216.108C266.858 216.108 268.834 215.146 270.394 213.222C272.006 211.298 272.812 208.464 272.812 204.72V203.16C272.812 199.572 272.032 196.92 270.472 195.204C268.964 193.436 266.962 192.552 264.466 192.552C261.918 192.552 259.76 193.358 257.992 194.97C256.276 196.53 255.418 198.87 255.418 201.99V205.89C255.418 209.166 256.276 211.688 257.992 213.456C259.76 215.224 261.918 216.108 264.466 216.108ZM300.401 203.706L287.609 183.66H300.245L309.605 199.494H311.945V183.66H323.957V199.494H326.297L336.203 183.66H348.371L335.501 202.848L349.151 225H335.891L326.297 208.386H323.957V225H311.945V208.386H309.527L299.543 225H286.751L300.401 203.706ZM353.855 183.66H365.867V199.338H368.987L380.531 183.66H393.635L378.425 203.082L394.415 225H380.219L368.987 208.542H365.867V225H353.855V183.66ZM411.209 226.014C408.973 226.014 406.971 225.676 405.203 225C403.487 224.324 402.031 223.414 400.835 222.27C399.639 221.074 398.729 219.696 398.105 218.136C397.481 216.524 397.169 214.782 397.169 212.91C397.169 208.802 398.417 205.656 400.913 203.472C403.461 201.288 407.283 200.196 412.379 200.196H424.157V198.48C424.157 195.984 423.559 194.268 422.363 193.332C421.167 192.344 419.529 191.85 417.449 191.85C415.473 191.85 414.017 192.162 413.081 192.786C412.145 193.41 411.625 194.398 411.521 195.75H399.509C399.613 193.878 400.081 192.162 400.913 190.602C401.745 188.99 402.915 187.612 404.423 186.468C405.983 185.272 407.881 184.336 410.117 183.66C412.353 182.984 414.927 182.646 417.839 182.646C420.543 182.646 423.013 182.958 425.249 183.582C427.537 184.154 429.487 185.116 431.099 186.468C432.711 187.768 433.959 189.484 434.843 191.616C435.727 193.696 436.169 196.244 436.169 199.26V214.47C436.169 216.654 436.221 218.578 436.325 220.242C436.429 221.854 436.585 223.44 436.793 225H425.405C425.301 224.116 425.197 223.336 425.093 222.66C425.041 221.984 425.015 221.152 425.015 220.164C423.767 221.828 422.025 223.232 419.789 224.376C417.605 225.468 414.745 226.014 411.209 226.014ZM415.109 217.59C417.657 217.59 419.789 216.862 421.505 215.406C423.273 213.95 424.157 211.948 424.157 209.4V207.684H414.719C412.951 207.684 411.625 208.152 410.741 209.088C409.909 210.024 409.493 211.116 409.493 212.364C409.493 213.872 409.909 215.12 410.741 216.108C411.625 217.096 413.081 217.59 415.109 217.59Z" fill="#110545"/>
</mask>
<g mask="url(#mask0_5519_15059)">
<path d="M22.8711 129.663C81.7161 173.441 132.38 87.8501 149.873 88.6715C171.738 89.6981 72.1023 193.602 105.33 182.48C138.559 171.359 172.112 82.2392 199.252 84.2822C226.393 86.3251 151.039 168.764 181.123 164.605C211.207 160.446 262.473 48.9604 276.744 46.2067C291.015 43.453 193.756 185.759 222.607 172.056C251.459 158.353 271.985 85.9853 286.846 89.8622C301.707 93.7392 258.706 146.57 269.976 156.707C281.246 166.844 331.961 72.4859 345.334 71.2971C358.708 70.1083 305.217 166.94 335.873 150.849C366.528 134.758 410.874 38.7394 442.757 70.8056C474.639 102.872 488.463 141.741 515.743 110.357C543.022 78.9719 544.191 45.453 570.78 64.6237C604.845 89.1847 642.381 60.3735 652.209 35.8514" stroke="#3852CE" stroke-width="20" stroke-linecap="round"/>
</g>
</svg>
