<svg width="277" height="223" viewBox="0 0 277 223" fill="none" xmlns="http://www.w3.org/2000/svg"><path fill-rule="evenodd" clip-rule="evenodd" d="M83.887 36.703C63.43 46.037 46.217 63.57 37.317 86.88c-17.358 45.476 3.53 95.587 46.512 111.994 20.532 7.838 42.415 6.585 61.577-1.818a1 1 0 11.803 1.831c-19.288 9.523-43.816 9.949-64.872 1.912-47.304-18.057-65.711-69.205-47.995-115.617C42.43 61.375 60.913 42.89 81.843 33.34c33.813-15.428 74.843-8.508 94.086 26.52l.326-14.064a1 1 0 012 0v20.17L159.654 58.4a1 1 0 11.753-1.853l13.283 4.666c-18.444-33.877-56.275-39.808-89.803-24.51z" fill="#110545"/><path d="M136.502 52.517l-17.083-5.524-3.119 3.051c-25.346 1.333-50.682 18.548-63.864 46.234-16.237 34.103-8.517 72.507 16.705 91.214l-.85 2.807 15.567 5.038c31.511 11.199 69.114-7.097 86.228-43.043 18.098-38.011 6.433-81.365-26.056-96.833a56.538 56.538 0 00-4.845-2.037l.013-.036-1.437-.464a52.663 52.663 0 00-1.259-.407z" fill="#110545"/><path d="M153.379 146.742c-17.926 37.65-58.4 55.514-90.262 40.344-31.862-15.17-43.51-57.85-25.583-95.5 17.926-37.651 58.4-55.515 90.262-40.345 31.862 15.17 43.509 57.85 25.583 95.501z" fill="#3852CE" stroke="#110545" stroke-width="2"/><path fill-rule="evenodd" clip-rule="evenodd" d="M68.856 175.032c25.99 12.375 59.286-2.133 74.102-33.253 14.817-31.119 5.09-66.11-20.901-78.485-25.99-12.375-56.952 2.536-71.769 33.656-14.816 31.119-7.422 65.708 18.568 78.082zm-.82 1.724c27.186 12.944 61.501-2.349 76.645-34.156 15.145-31.808 5.383-68.086-21.803-81.03-27.186-12.944-61.502 2.349-76.646 34.156-15.144 31.808-5.382 68.086 21.804 81.03z" fill="#110545"/><path fill-rule="evenodd" clip-rule="evenodd" d="M100.435 89.367l5.863 1.516-10.538 25.874 15.39 5.46-2.096 6.233-21.232-7.962 12.613-31.12zm-9.046-21.312l.877 14.322-3.993.245-.877-14.323 3.993-.244zm36.316 7.127l-8.622 12.13-3.26-2.318 8.622-12.13 3.26 2.318zM58.836 90.044l9.353 8.038-2.607 3.033-9.353-8.038 2.607-3.033zm87.237 23.082l-14.03 1.9-.537-3.964 14.03-1.9.537 3.964zm-98.557 14.76l12.422-2.339.74 3.931-12.422 2.339-.74-3.931zm84.422 27.601l-10.961-9.354 2.596-3.042 10.961 9.353-2.596 3.043zm-69.64 5.7l7.6-11.4 3.329 2.219-7.6 11.399-3.328-2.218zm31.524 11.778v-14.323h4v14.323h-4z" fill="#fff"/><path d="M218.101 112.471c4.282 6.196 13.6 10.152 17.01 11.233 0 23.291-6.813 51.991-26.989 70.752-6.396 5.947-14.134 10.895-23.424 14.356-9.375-3.452-17.165-8.4-23.59-14.356-20.138-18.674-26.848-47.261-26.848-70.752l.112-.033c4.151-1.216 12.114-3.549 16.516-9.193 4.657-5.971 5.125-12.679 5.467-16.172 14.949-.805 41.179 0 57.57 0 .114 2.923-.107 7.97 4.176 14.165z" fill="#fff"/><path fill-rule="evenodd" clip-rule="evenodd" d="M216.455 113.608c-3.771-5.456-4.329-10.169-4.466-13.305-4.812-.017-10.308-.088-16.035-.163-13.215-.173-27.66-.362-37.777.08-.404 3.812-1.384 9.94-5.712 15.488-2.469 3.165-5.869 5.326-9.077 6.836-2.587 1.218-5.141 2.055-7.119 2.651.28 22.904 7.051 50.039 26.199 67.794 6.074 5.632 13.416 9.376 22.23 12.721 8.731-3.353 15.632-7.872 21.679-13.495 19.207-17.86 25.925-44.293 26.199-67.02-5.916-2.201-12.526-6.386-16.121-11.587zm18.656 10.096c-3.41-1.081-12.728-5.037-17.01-11.233-3.936-5.693-4.068-10.416-4.152-13.413a48.691 48.691 0 00-.024-.752c-5.184 0-11.354-.08-17.839-.165-14.017-.183-29.511-.385-39.731.165l-.043.445c-.344 3.595-.957 10.001-5.424 15.727-4.402 5.644-12.365 7.977-16.516 9.193l-.112.033c0 23.491 6.71 52.078 26.848 70.752 6.425 5.956 14.215 10.904 23.59 14.356 9.29-3.461 17.211-8.409 23.607-14.356 20.176-18.761 26.806-47.461 26.806-70.752z" fill="#110545"/><path d="M227.856 127.975c0 26.261-10.118 60.552-43.159 72.862-33.188-12.219-43.181-46.336-43.181-72.862l.096-.028c10.062-2.948 18.541-10.343 20.819-21.716h45.287c1.143 10.524 11.186 18.909 20.138 21.744z" fill="#fff"/><path fill-rule="evenodd" clip-rule="evenodd" d="M141.516 127.975c0 26.526 9.993 60.643 43.181 72.862 33.041-12.31 43.159-46.601 43.159-72.862-8.952-2.835-18.995-11.22-20.138-21.744h-45.287c-2.278 11.373-10.757 18.768-20.819 21.716l-.096.028zm22.51-19.744c-2.772 10.819-10.921 17.996-20.5 21.21.361 25.776 10.311 56.42 41.171 68.197 30.741-11.871 39.16-42.664 39.518-68.197-4.348-1.62-7.393-4.239-11.001-7.84-3.584-3.578-6.619-8.271-7.627-13.37h-41.561z" fill="#110545"/><path d="M172.87 146.404c0-2.768 2.116-4.782 4.993-4.782 1.449 0 2.715.503 3.566 1.464l-.874.847c-.737-.755-1.611-1.098-2.646-1.098-2.117 0-3.373 1.51-3.373 3.569-.183 1.877 1.164 3.341 3.304 3.341.679 0 2.001-.091 2.715-.846l.874.846c-.851.961-2.117 1.465-3.589 1.465-2.854-.023-4.97-2.037-4.97-4.806zm-17.337-3.523h3.221v8.191h1.593v-8.191h2.963v-1.167h-7.777v1.167zm16.296 8.191v-1.144l-5.349-.046v-3.02l4.589.046v-1.144l-4.589-.046v-2.883l5.165.046v-1.167h-6.65v9.358h6.834zm19.914-6.818l.023 6.818h1.583v-9.45h-1.606l-3.682 6.659-3.934-6.567h-1.105v9.358h1.289v-6.773l3.405 5.652h.621l3.406-5.697z" fill="#110545"/><path fill-rule="evenodd" clip-rule="evenodd" d="M201.803 148.739h-4.993l-1.036 2.333h-1.38l4.256-9.358 1.794-.092 4.028 9.45h-1.611l-1.058-2.333zm-.461-1.076l-2.024-4.576-2.025 4.576h4.049z" fill="#110545"/><path d="M214.254 151.072l-.169-9.45-1.738.092v6.979l-5.637-6.979h-1.105v9.358h1.685v-6.678l5.287 6.678h1.677z" fill="#110545"/><path d="M172.87 146.404c0-2.768 2.116-4.782 4.993-4.782 1.449 0 2.715.503 3.566 1.464l-.874.847c-.737-.755-1.611-1.098-2.646-1.098-2.117 0-3.373 1.51-3.373 3.569-.183 1.877 1.164 3.341 3.304 3.341.679 0 2.001-.091 2.715-.846l.874.846c-.851.961-2.117 1.465-3.589 1.465-2.854-.023-4.97-2.037-4.97-4.806zm-17.337-3.523h3.221v8.191h1.593v-8.191h2.963v-1.167h-7.777v1.167zm16.296 8.191v-1.144l-5.349-.046v-3.02l4.589.046v-1.144l-4.589-.046v-2.883l5.165.046v-1.167h-6.65v9.358h6.834zm19.914-6.818l.023 6.818h1.583v-9.45h-1.606l-3.682 6.659-3.934-6.567h-1.105v9.358h1.289v-6.773l3.405 5.652h.621l3.406-5.697z" stroke="#110545" stroke-width=".5"/><path clip-rule="evenodd" d="M201.803 148.739h-4.993l-1.036 2.333h-1.38l4.256-9.358 1.794-.092 4.028 9.45h-1.611l-1.058-2.333zm-.461-1.076l-2.024-4.576-2.025 4.576h4.049z" stroke="#110545" stroke-width=".5"/><path d="M214.254 151.072l-.169-9.45-1.738.092v6.979l-5.637-6.979h-1.105v9.358h1.685v-6.678l5.287 6.678h1.677z" stroke="#110545" stroke-width=".5"/><path fill-rule="evenodd" clip-rule="evenodd" d="M234.196 194.538c.35-.428 1.833-.006 2.26.343l15.632 12.962a1 1 0 01-1.265 1.55l-16.484-13.448a1 1 0 01-.143-1.407zm18.192-114.102c-.349-.428-1.521-.35-1.949 0l-16.243 13.002c-.428.35-.349 1.761 0 2.19.349.427 1.347.882 2.782 0l14.94-12.63c.428-.35.819-2.134.47-2.562zm-7.105 93.617a1 1 0 011.333-.473l19.674 7.53c.499.238.238 2.463 0 2.961a1 1 0 01-1.333.472l-19.202-9.157a1 1 0 01-.472-1.333zm5.189-55.254c.238.499 1.567 1.025 2.065.787l18.942-8.662c.499-.237.238-1.645 0-2.144-.237-.498-1.514-1.116-2.013-.878l-18.521 9.564a1 1 0 00-.473 1.333zm2.458 29.541c.014-.552 1.362-1.874 1.914-1.86l19.872.648c.552.014 1.495 1.232 1.481 1.784a1 1 0 01-1.024.975l-21.268-.523a1 1 0 01-.975-1.024z" fill="#110545"/></svg>