<svg width="376" height="301" viewBox="0 0 376 301" fill="none" xmlns="http://www.w3.org/2000/svg"><path d="M203.97 174.468l59.689 32.08a1 1 0 01.025 1.748l-61.255 35.199a1 1 0 01-.985.007l-62.281-34.712a1 1 0 01.032-1.764l63.847-32.568a.998.998 0 01.928.01z" fill="#110545" stroke="#110545" stroke-width="2"/><path d="M212.397 224.968l-25.676-6.187c10.372-33.997 35.612-56.184 69.913-64.653l11.755 22.273c-21.817 0-51.042 18.87-55.992 48.567z" fill="#fff"/><path fill-rule="evenodd" clip-rule="evenodd" d="M257.154 152.97l12.894 24.431h-1.659c-10.645 0-23.192 4.616-33.7 12.931-10.496 8.306-18.878 20.241-21.305 34.8l-.176 1.06-27.753-6.687.31-1.016c10.483-34.36 36.015-56.785 70.63-65.332l.759-.187zm-65.182 65.519l17.527 4.358c2.744-14.656 12.207-25.904 22.763-34.258 10.272-8.129 23.701-12.711 34.487-13.154l-10.633-20.146c-33.259 8.443-53.773 30.389-64.144 63.2z" fill="#110545"/><path d="M152.468 180.037c-2.334-15.622 1.066-27.672 2.637-32.236h23.396c-2.544 4.938-5.325 20.698-2.092 36.14 3.232 15.443 17.53 47.869 26.059 62.01l-32.492-15.862c-4.864-10.175-15.174-34.43-17.508-50.052z" fill="#fff"/><path fill-rule="evenodd" clip-rule="evenodd" d="M180.141 146.801l-.751 1.458c-1.185 2.299-2.501 7.324-3.106 13.766-.601 6.409-.488 14.107 1.103 21.711 1.595 7.618 5.943 19.509 10.984 31.305 5.037 11.785 10.723 23.379 14.953 30.393l1.75 2.902-35.85-17.501-.151-.314c-4.863-10.176-15.235-34.551-17.594-50.336-2.366-15.835 1.078-28.056 2.68-32.71l.232-.674h25.75zm-24.318 2c-8.932 27.207 4.719 55.283 16.345 79.737l23.901 12.747c-4.047-7.174-6.615-15.889-11.04-26.244-8.595-20.112-16.496-44.437-8.062-66.24h-21.144z" fill="#110545"/><path d="M165.609 257.767l23.169-.085c6.79-45.334-19.829-69.709-45.749-83.572l-12.641 23.544c3.838-.28 13.759 3.464 23.606 13.989 11.428 12.215 13.281 33.43 11.615 46.124z" fill="#fff"/><path fill-rule="evenodd" clip-rule="evenodd" d="M142.619 172.757l.88.471c13.039 6.974 26.329 16.629 35.5 30.31 9.189 13.706 14.197 31.386 10.767 54.292l-.128.849-25.171.092.149-1.134c.819-6.244.775-14.61-.886-22.915-1.663-8.313-4.926-16.472-10.468-22.395-4.85-5.185-9.704-8.683-13.793-10.846-4.134-2.187-7.371-2.949-9.009-2.829l-1.814.132 13.973-26.027zm0 4.189l-10.597 19.778c2.173.278 5.612-.553 8.898 1.185 12.752 6.745 23.103 22.307 25.816 35.873 1.608 8.038.698 16.676 0 22.981l21.175-.078c3.111-22.013-1.783-38.922-10.573-52.034-8.718-13.004-22.128-20.858-34.719-27.705z" fill="#110545"/><path d="M166.446 211.561c3.739-9.349 13.811-15.812 18.798-18.797l1.476 26.572c-3.741 1.378-4.528 4.527-4.922 6.889-.393 2.362 1.871 7.546 3.446 8.759l-20.111-11.121c-.459-.492-1.9-4.268 1.313-12.302z" fill="#fff"/><path fill-rule="evenodd" clip-rule="evenodd" d="M186.151 191.056l1.609 28.963-.694.256c-3.191 1.175-3.896 3.804-4.281 6.115-.068.408-.029 1.031.141 1.818.167.769.443 1.62.782 2.449.34.828.734 1.614 1.129 2.254.408.663.769 1.09 1.017 1.282l-1.094 1.667-20.249-11.198-.109-.116c-.284-.305-.512-.826-.674-1.42-.175-.641-.307-1.497-.315-2.577-.018-2.164.459-5.246 2.104-9.359 1.952-4.879 5.531-8.955 9.202-12.167 3.676-3.216 7.502-5.615 10.011-7.117l1.421-.85zm-18.395 32.606l14.417 8.482c-.109-.24-.215-.483-.316-.729a17.06 17.06 0 01-.885-2.783c-.192-.887-.289-1.798-.16-2.571.379-2.277 1.175-5.674 4.87-7.377l-1.344-24.198c-8.475 5.257-19.827 14.809-16.582 29.176z" fill="#110545"/><path d="M266.068 223.163v39.936l-63.739 36.225-65.72-36.225v-39.936l65.72 20.339 63.739-20.339z" fill="#110545"/><path d="M202.329 299.324l63.739-36.225v-39.936l-63.739 20.339m0 55.822l-65.72-36.225v-39.936l65.72 20.339m0 55.822v-55.822" stroke="#110545" stroke-width="2"/><path d="M266.068 223.163v39.936l-63.739 36.225m0 0l-65.72-36.225v-39.936m65.72 76.161v-55.822" stroke="#fff" stroke-width="2"/><path d="M217.301 262.754l-14.961-19.3 61.939-36.223 15.772 18.507-62.75 37.016zm-28.278-.454l13.163-18.827-64.589-35.602-13.501 16.225 64.927 38.204z" fill="#3852CE" stroke="#110545" stroke-width="2"/><path d="M116.752 135.824c3.087 7.756 1.409 14.508.185 16.914-1.226.616-4.821 2.114-9.39 3.17-4.569 1.056-9.958-1.663-12.081-3.154l-9.573-10.804c-.11-3.989-.493-12.599-1.163-15.124-.837-3.157-1.382-8.41-6.23-9.42-4.846-1.01-5.185 2.735-6.445 11.477-1.008 6.994-.245 11.052.263 12.207.037.35-.594 1.787-3.407 4.732-3.517 3.682-7.272 4.362-9.176 8.72-1.524 3.487.966 7.067 2.401 8.421l-1.263.437c-1.931.22-5.828 1.673-5.966 5.725-.138 4.053 10.752 9.877 16.214 12.282.11.881.389 3.015.613 4.505.28 1.862 5.638 5.815 9.434 9.873 3.796 4.057 16.246 6.285 28.708 7.494 9.969.967 16.497-2.508 18.516-4.366.45.884 2.405 2.826 6.62 3.517 5.268.864 9.805-5.745 13.249-16.984 2.756-8.991-2.272-15.116-5.13-17.055.167-1.617.077-6.266-1.616-11.92-2.115-7.069-7.508-10.393-10.014-14.497-2.506-4.104-4.201-8.38-2.203-16.035 1.999-7.655 3.211-8.872 2.717-10.407-.494-1.534-6.225-6.991-11.869-.543-5.644 6.449-7.252 11.14-3.394 20.835z" fill="#fff"/><path d="M76.07 29.798c10.609-2.497 27.717-1.727 39.996 14.852 15.895 21.46-2.003 43.576-6.693 65.592l-24.033 6.7c-12.304-18.38-37.742-24.509-38.05-50.047-.275-22.902 18.17-34.6 28.778-37.097z" fill="#fff"/><path fill-rule="evenodd" clip-rule="evenodd" d="M46.29 66.907c-.282-23.538 18.67-35.522 29.55-38.082 10.859-2.556 28.438-1.77 41.029 15.23 8.206 11.079 7.648 22.337 4.532 33.453-1.354 4.829-3.202 9.67-5.033 14.466l-.801 2.104c-2.089 5.505-4.062 10.951-5.216 16.372l-.127.593-25.313 7.057-.403-.601c-3.004-4.487-6.824-8.248-10.915-11.782-1.888-1.631-3.824-3.205-5.762-4.781l-.488-.396c-2.096-1.705-4.189-3.417-6.19-5.188-8.022-7.099-14.704-15.261-14.862-28.445zM74.9 31.47c-10.34 2.433-26.877 13.147-26.61 35.413.149 12.355 6.34 20.026 14.188 26.971 1.967 1.74 4.03 3.428 6.127 5.134l.491.4c1.934 1.572 3.892 3.164 5.804 4.815 3.97 3.429 7.781 7.147 10.861 11.584l22.988-6.932c3.388-16.88 6.755-20.161 9.892-31.347 3.031-10.812 2.486-22.502-5.203-32.883C102.548 29.922 85.259 29.032 74.9 31.47z" fill="#110545"/><path fill-rule="evenodd" clip-rule="evenodd" d="M73.075 61.251c.99-.68 2.18-.898 3.446-.686.787.132 1.468.498 2.05.995 1.403-1.14 3.088-1.999 4.815-2.527 1.971-.602 4.134-.816 6.159-.492.463-.887 1.167-1.649 2.191-2.103 2.136-.947 4.33-.206 6.08 1.512 1.738 1.704 3.161 4.45 4.005 7.927.855 3.518 1.627 11.848 2.213 20.735.588 8.927.995 18.539 1.101 24.698l-2 .034c-.105-6.12-.51-15.699-1.097-24.6-.589-8.944-1.355-17.081-2.16-20.395-.79-3.248-2.076-5.611-3.462-6.971-1.372-1.346-2.715-1.623-3.869-1.111a2.433 2.433 0 00-.984.802c1.512.567 2.862 1.51 3.882 2.905 1.101 1.505 1.536 2.962 1.367 4.23-.172 1.284-.958 2.259-2.026 2.693-1.06.43-2.311.297-3.38-.428-1.069-.724-1.906-1.995-2.322-3.782-.309-1.326-.416-2.833-.173-4.22-1.562-.2-3.27-.032-4.94.479-1.548.473-2.96 1.208-4.106 2.135l.049.076c.791 1.257 1.344 2.811 1.675 4.294.427 1.91.346 3.461-.16 4.591-.524 1.167-1.512 1.869-2.668 1.863-2.26-.011-3.97-2.497-3.792-5.821.105-1.965.918-3.693 2.152-5.123a2.15 2.15 0 00-.93-.424c-.827-.138-1.478.016-1.984.363-.52.357-.986.986-1.296 1.966-.627 1.985-.53 5.191.845 9.433 1.24 3.829 4.557 11.284 8.264 19.093 3.697 7.788 7.747 15.856 10.424 20.877l-2.9.913c-2.694-5.054-7.074-13.981-10.781-21.79-3.697-7.787-6.472-15.12-7.76-19.093-1.434-4.429-.804-7.485.001-10.035.406-1.288 1.093-2.341 2.07-3.013zm5.337 3.292c-.85 1.085-1.375 2.324-1.446 3.648-.153 2.85 1.26 3.712 1.805 3.714.247.001.582-.124.832-.68.266-.595.408-1.665.034-3.337-.268-1.2-.684-2.387-1.225-3.345zm12.447-3.597c-.157 1.03-.08 2.203.173 3.288.331 1.422.94 2.203 1.496 2.58.555.376 1.106.392 1.504.23.39-.158.719-.519.797-1.106.081-.604-.098-1.553-.998-2.783-.75-1.026-1.779-1.757-2.972-2.209z" fill="#110545"/><path d="M109.483 110.533l-24.26 6.539c1.736 6.778 3.27 11.577 5.529 14.102 2.9 3.241 6.615 4.269 11.661 2.73 5.359-1.634 7.539-3.187 8.933-5.937 2.128-4.199.5-9.845-1.863-17.434z" fill="#110545" stroke="#110545" stroke-width="2"/><path d="M82.926 118.824c9.44.861 19.905-1.27 28.892-4.114m-27.533 8.862c9.441.861 19.906-1.27 28.892-4.114m-27.542 8.708c9.06.826 19.101-1.219 27.724-3.948" stroke="#3852CE" stroke-width="2"/><path fill-rule="evenodd" clip-rule="evenodd" d="M122.888 111.959c1.772-.786 3.742-.899 5.814-.012 1.847.79 3.119 1.622 3.807 2.685.736 1.135.688 2.334.395 3.509-.193.773-.529 1.66-.886 2.605-.156.412-.316.836-.471 1.265-.527 1.47-1.058 3.187-1.362 5.27-.634 4.355-.866 6.917.148 9.832 1.036 2.978 3.4 6.405 8.291 12.305 8.173 9.856 5.231 22.147 2.773 27.049a1 1 0 11-1.788-.896c2.285-4.557 3.642-15.712-3.806-24.696-4.872-5.875-6.427-9.845-7.597-13.21-1.192-3.427-.633-6.331 0-10.672.33-2.263.906-4.118 1.459-5.657a86.71 86.71 0 01.536-1.442c.33-.872.599-1.58.762-2.237.23-.92.173-1.466-.132-1.938-.352-.543-1.154-1.18-2.915-1.933-2.433-.807-5.483 1.424-7.396 3.871-4.512 5.771-5.138 11.074-2.131 17.779 1.464 3.266 3.144 6.788 1.915 10.63-1.511 4.728-1.687 10.34-.34 15.215 1.344 4.865 3.19 9.546 7.865 11.82a1 1 0 11-.874 1.799c-5.302-2.579-8.498-7.306-9.959-12.593-1.458-5.276-1.211-11.169.41-16.241.961-3.006-.252-6.082-1.766-9.46l-.236-.523c-.663-1.472-1.349-2.994-1.798-4.489-.507-1.685-.751-3.443-.294-5.193.807-3.09 2.558-7.447 5.077-10.668 1.26-1.613 2.763-3.005 4.499-3.774zm-48.202 29.539c1.325.165 2.523.989 3.626 2.428 1.922 2.505 1.604 5.463.621 7.934-.983 2.474-2.704 4.676-3.992 5.963a1 1 0 01-1.413-1.415c1.153-1.152 2.69-3.133 3.547-5.287.857-2.157.96-4.27-.35-5.978-.915-1.194-1.682-1.585-2.287-1.66-.622-.078-1.323.145-2.174.716-.851.57-1.725 1.401-2.67 2.344l-.445.447c-.79.793-1.623 1.631-2.468 2.336-.555.462-1.079.889-1.571 1.289-1.27 1.033-2.329 1.895-3.162 2.767-1.114 1.167-1.665 2.199-1.678 3.447-.011 1.039.392 2.195.971 3.27.573 1.063 1.264 1.95 1.706 2.422a1 1 0 11-1.46 1.366c-.552-.589-1.347-1.615-2.007-2.839-.652-1.213-1.226-2.718-1.21-4.239.02-1.953.931-3.447 2.232-4.809.926-.969 2.131-1.949 3.444-3.017.473-.385.96-.782 1.454-1.193.767-.64 1.523-1.399 2.314-2.193l.468-.47c.937-.935 1.935-1.897 2.968-2.589 1.033-.693 2.228-1.203 3.536-1.04z" fill="#110545"/><path fill-rule="evenodd" clip-rule="evenodd" d="M94.998 157.347a1 1 0 01-.878 1.108c-1.374.16-5.07.151-9.536-1.015l-7.887-2.059a1 1 0 11.505-1.935l7.887 2.059c4.246 1.108 7.693 1.092 8.8.964a1 1 0 011.11.878zm46.866 11.156a1 1 0 011.358-.398c3.77 2.062 9.247 9.379 4.332 22.498-2.399 6.403-5.24 10.44-8.58 11.985-3.483 1.611-7.107.363-10.578-2.735a1 1 0 111.332-1.492c8.683 4.19 12.771-2.259 15.669-9.994 4.613-12.313-.352-16.985-3.135-18.507a1.001 1.001 0 01-.398-1.357z" fill="#110545"/><path fill-rule="evenodd" clip-rule="evenodd" d="M100.223 174.375c-.284.031-.575.063-.872.094-4.958.514-7.183.176-10.734-.363l-.247-.037c-.79-.12-1.382-.065-1.883.083-.512.151-.985.416-1.526.797-.275.194-.574.426-.904.682-.91.705-2.05 1.591-3.553 2.349-1.098.554-2.14.82-3.071.992-.378.07-.747.126-1.086.177l-.214.032a14.47 14.47 0 00-1.084.197c-.642.15-1.101.354-1.47.707-.372.357-.744.956-1.033 2.063-.515 1.97.458 3.008 2.047 4.821 10.186 11.625 23.968 13.316 38.531 13.78 10.088.322 14.962-4.374 16.672-7.173.288-.471 2.141-.288 2.612 0a1 1 0 01.332 1.375c-2.024 3.312-8.698 9.575-19.616 9.227-6.626-.212-13.876-1.141-20.054-2.653-3.09-.755-5.931-1.661-8.302-2.706-2.354-1.038-4.323-2.247-5.59-3.646-1.099-1.215-2.237-2.296-3.332-3.333l-.092-.087c-1.051-.994-2.075-1.963-2.928-2.936-1.772-2.022-2.975-4.263-2.215-7.175.348-1.334.862-2.309 1.585-3.001.726-.696 1.57-1.017 2.397-1.211.408-.095.83-.163 1.238-.226l.228-.034c.337-.051.668-.101 1.01-.165.827-.152 1.667-.373 2.533-.81 1.319-.666 2.216-1.362 3.083-2.036.37-.287.734-.57 1.124-.845.627-.442 1.304-.842 2.11-1.08.817-.241 1.708-.301 2.751-.143l.266.041c3.469.527 5.504.836 10.209.347.266-.027.537-.057.809-.087.952-.104 1.924-.211 2.811-.241 1.128-.038 2.302.035 3.266.5 1.052.508 1.743 1.428 1.948 2.779.193 1.27-.042 2.912-.69 5.003-.986 3.179-3.785 4.569-6.801 5.027-2.865.435-6.153.082-8.963-.505l-4.31 3.087a1 1 0 01-1.165-1.626l2.916-2.088a32.648 32.648 0 01-1.525-.47 1 1 0 01-.63-1.267c.176-.523 1.036-1.125 1.56-.949 4.007 1.347 6.813 1.583 10.98.949 2.721-.413 4.688-1.25 5.622-3.213 1.123-2.362.985-5.334-2.14-5.228-.804.027-1.673.122-2.61.225z" fill="#110545"/><path fill-rule="evenodd" clip-rule="evenodd" d="M105.252 185.392c2.523-2.777 7.864-4.747 11.509-5.106 2.23-.22 4.503-.189 6.56.114 2.045.302 3.943.884 5.374 1.816.463.301.545 1.346.243 1.808-.301.463-1.165.865-1.627.563-1.1-.716-2.687-1.233-4.575-1.512-2.084-.308-8.631-.506-17.484 2.317zm-24.647-26.625c2.49.411 2.127 2.542 1.764 4.489-.894 4.805-4.739 7.011-9.023 7.584-3.547.474-5.37.278-6.297.278-1.288 0-1.66.567-1.799 1.101a1 1 0 00.715 1.221c1.081.282 4.006.651 7.774.147 4.86-.65 10.154-4.02 11.253-9.926.445-2.39-.1-4.123-1.134-5.276-.996-1.11-2.334-1.556-3.283-1.635l-.216-.018-.204.072c-1.62.579-5.492 1.92-8.069 2.675-1.126.33-2.053.439-3.02.553-.354.042-.713.084-1.09.138-1.395.2-2.829.551-4.547 1.645-.616.392-1.324.59-2.144.726-.347.057-.695.101-1.063.147l-.212.026a18.3 18.3 0 00-1.359.212c-.92.188-1.89.516-2.732 1.252-.85.74-1.476 1.81-1.868 3.313-.402 1.539.28 3.062 1.273 4.368 1.013 1.333 2.503 2.647 4.146 3.863 3.297 2.437 7.414 4.62 10.201 5.89a1 1 0 10.83-1.82c-2.71-1.234-6.694-3.352-9.842-5.679-1.578-1.167-2.896-2.35-3.743-3.464-.867-1.141-1.097-2.014-.93-2.653.318-1.22.774-1.898 1.247-2.311.479-.417 1.07-.646 1.82-.8.376-.077.774-.131 1.208-.186l.2-.026c.368-.046.761-.095 1.15-.159.93-.154 1.945-.409 2.892-1.012 1.41-.898 2.548-1.179 3.757-1.352.29-.042.598-.078.921-.116 1.007-.118 2.166-.254 3.468-.635 2.521-.739 6.218-2.015 7.956-2.632z" fill="#110545"/><path fill-rule="evenodd" clip-rule="evenodd" d="M91.978 171.181a1 1 0 01-.855 1.127c-1.747.24-3.203.367-4.79.265-1.585-.102-3.257-.43-5.45-1.056a1 1 0 11.548-1.923c2.115.604 3.638.893 5.03.983 1.392.089 2.696-.018 4.39-.251a1 1 0 011.127.855zm-8.534-51.723c-1.636-2.117-3.85-3.251-5.917-3.345-2.084-.094-4.061.893-4.867 3.004-.679 1.776-1.032 4.415-1.274 6.972a182.583 182.583 0 00-.288 3.508c-.1 1.317-.19 2.528-.307 3.555-.36 3.166.228 7.267.65 9.367a1.001 1.001 0 001.96-.394c-.41-2.046-.946-5.898-.623-8.748.117-1.03.216-2.327.32-3.701.085-1.117.174-2.284.28-3.399.243-2.582.582-4.959 1.15-6.447.44-1.154 1.514-1.782 2.908-1.719 1.411.064 3.103.86 4.425 2.57.45.582.9 1.75 1.3 3.431.388 1.638.696 3.624.935 5.721.479 4.192.673 8.739.705 11.643l.004.367 9.763 11.231a.99.99 0 00.397.277.978.978 0 00.105.063c3.64 1.885 7.376 3.047 11.19 3.032 3.828-.015 7.662-1.216 11.48-3.942a1 1 0 10-1.162-1.628c-3.509 2.505-6.945 3.557-10.326 3.57-3.397.014-6.812-1.021-10.262-2.808l-.034-.017-9.16-10.536c-.044-2.959-.244-7.376-.713-11.479-.244-2.137-.563-4.21-.977-5.956-.403-1.702-.93-3.243-1.662-4.192z" fill="#110545"/><path fill-rule="evenodd" clip-rule="evenodd" d="M100.085 155.323c-2.883-.142-5.602 4.278-6.425 6.034-2.278 4.858-1.943 8.528-1.6 9.579a1 1 0 11-1.9.622c-.53-1.624-.762-5.823 1.69-11.05 1.229-2.623 2.198-3.589 3.423-4.547 1.2-.938 2.856-1.654 3.735-1.502.544.095 1.172.32 1.077.864z" fill="#110545"/><path d="M256.479 185.028c5.559 2.459 7.493-.725 7.765-2.623 1.942 1.158 6.922 3.304 11.3 2.623 4.378-.68 10.992-5.142 13.751-7.287 3.414 1.309 10.889 3.845 13.471 3.508 3.227-.421 16.697-13.611 17.679-16.838.786-2.582-2.198-5.098-3.788-6.034 1.216-.889 3.676-3.76 3.788-8.138.113-4.378-4.162-5.566-6.314-5.613 1.684-2.713 4.799-8.868 3.789-11.787-1.011-2.918-6.688-2.712-9.401-2.245.374-.187 1.319-1.347 2.105-4.49.982-3.929.14-6.454-2.105-7.857-2.245-1.404-23.574-5.052-31.712-4.21-6.511.674-11.089 3.087-12.563 4.21 0 .467-.799 1.122-3.994 0-3.994-1.404-10.805 3.227-15.857 14.592-4.041 9.093-1.116 17.872.851 21.125-3.108-1.69-9.391-2.743-9.658 6.569-.334 11.64 13.945 21.423 20.893 24.495z" fill="#fff"/><path fill-rule="evenodd" clip-rule="evenodd" d="M245.884 154.736a1 1 0 01-1.356.401c-4.881-2.655-6.898 1.889-7.019 6.123-.155 5.402 1.997 9.321 6.321 13.535 1.458 1.42 16.769 13.194 19.423 7.467a1 1 0 011.98.284c-.165 1.154-.833 2.738-2.376 3.661-1.585.95-3.824 1.043-6.782-.265-3.572-1.579-8.981-4.857-13.471-9.233-4.47-4.356-8.197-9.968-8.018-16.206.14-4.87 1.89-7.445 4.437-8.326 2.381-.824 4.803.301 6.46 1.203a1 1 0 01.401 1.356z" fill="#110545"/><path fill-rule="evenodd" clip-rule="evenodd" d="M270.02 124.483c-5.678-1.805-8.485-5.391-12.077-4.57-6.508 1.488-11.257 12.33-12.885 17.968-1.491 5.165-1.538 10.595.845 15.628 1.289 2.721 2.842 4.952 4.141 6.415a1 1 0 01-1.495 1.328c-2.223-2.504-5.061-6.974-6.436-12.338-1.381-5.385-1.295-11.723 2.437-17.838 4.461-7.31 7.836-11.05 10.685-12.696 1.458-.841 2.792-1.144 4.053-1.084 1.241.059 2.335.466 3.307.916 1.92.888 3.392 1.712 5.695 2.52 2.284.8 5.377 1.575 10.379 2.261 4.999.686 8.645 1.231 11.105 2.245 1.26.519 2.281 1.187 3.031 2.118.754.936 1.17 2.061 1.348 3.385.396 2.95-1.551 5.426-4.127 7.14-2.613 1.739-6.135 2.895-9.562 3.19-3.589.309-6.665-1.064-9.142-2.435a74.36 74.36 0 01-1.691-.973l-.078-.045a49.793 49.793 0 00-1.556-.889c-.999-.537-1.733-.825-2.296-.861-2.216-.142-3.144.878-3.273 1.109a1 1 0 01-1.746-.976c1.653-2.954 5.786-2.366 8.263-1.033 3.581 1.928 6.538 4.038 10.836 3.668 3.816-.329 12.813-2.535 12.093-7.895 0-5.359-8.103-1.887-21.854-6.258zm20.438 53.062a1 1 0 01-.158 1.406c-12.778 10.205-24.812 9.602-35.226-3.439a1 1 0 01.157-1.406c.432-.345 1.361-.431 1.706 0 10.193 9.868 20.413 12.628 32.115 3.282a1 1 0 011.406.157z" fill="#110545"/><path fill-rule="evenodd" clip-rule="evenodd" d="M297.078 116.965c-5.341-.867-11.38-1.499-15.87-1.951-3.409-.343-7.075.308-10.308 1.293-3.228.983-5.951 2.276-7.448 3.149a1 1 0 01-1.008-1.727c1.631-.952 4.498-2.307 7.873-3.335 3.37-1.027 7.32-1.749 11.092-1.37 4.486.451 10.581 1.089 15.989 1.967 2.703.438 5.256.941 7.362 1.516 2.058.563 3.846 1.234 4.884 2.083 1.987 1.624 2.643 3.615 2.5 5.656-.137 1.966-1.009 3.94-1.955 5.676-.098.18-.195.362-.294.547-.827 1.55-1.752 3.283-4.118 5.373-2.606 2.303-6.937 5.028-14.816 8.626-7.819 3.571-13.062 5.645-16.833 6.152-1.916.257-3.532.123-4.945-.479-1.415-.604-2.522-1.633-3.496-2.977-1.701-2.344-1.555-4.812-.74-6.842.798-1.99 2.255-3.626 3.359-4.541a.999.999 0 111.276 1.54c-4.94 4.095-2.607 10.849 4.882 9.843 3.425-.46 7.133-1.603 15.006-5.199 7.814-3.568 12.375-6.996 14.763-9.105 2.663-2.353 5.66-5.087 5.916-8.753.101-1.443-.324-2.786-1.77-3.969-.679-.554-2.09-1.14-4.146-1.701-2.008-.549-4.483-1.038-7.155-1.472z" fill="#110545"/><path fill-rule="evenodd" clip-rule="evenodd" d="M312.929 131.637a55.442 55.442 0 00-4.172-1.153 1 1 0 11.442-1.95c.951.216 2.689.668 4.341 1.199.826.265 1.647.554 2.343.849.662.28 1.328.611 1.75.988.901.803 1.799 2.106 1.606 4.249-.184 2.04-1.351 4.733-4.171 8.429-2.82 3.694-5.154 6.011-8.266 7.739-3.075 1.707-6.85 2.803-12.452 4.187-5.576 1.377-9.493 2.24-12.313 2.243-1.434.002-2.664-.215-3.719-.752-1.067-.543-1.872-1.371-2.523-2.445-1.943-3.209-1.705-5.631-.898-6.689a1 1 0 111.59 1.213l-.004.005-.009.016a1.273 1.273 0 00-.108.296 2.898 2.898 0 00-.056.869c.052.75.341 1.842 1.196 3.254 4.137 3.481 12.348.379 16.595-.67 5.621-1.389 8.919-1.715 11.73-3.275 2.773-1.54 4.909-3.618 7.647-7.205 2.737-3.587 3.636-5.914 3.769-7.395.125-1.379-.408-2.098-.945-2.577-.153-.136-.543-.361-1.198-.638a27.152 27.152 0 00-2.175-.787z" fill="#110545"/><path fill-rule="evenodd" clip-rule="evenodd" d="M316.607 146.325c-1.194-.64-2.367-.992-2.858-1.086a1 1 0 11.374-1.964c.698.132 2.062.555 3.428 1.287 1.35.723 2.861 1.832 3.637 3.416.583 1.191.358 2.732-.124 4.185-.501 1.513-1.372 3.196-2.433 4.853-2.116 3.302-5.11 6.678-7.809 8.542-2.762 1.908-6.508 2.804-10.163 3.16-3.677.359-7.384.184-10.166-.14-2.751-.321-5.151-.829-6.907-1.831-1.839-1.05-2.966-2.643-3.087-4.949-.098-1.867.641-3.274 1.585-4.214.908-.904 2.045-1.418 2.875-1.504a1 1 0 11.207 1.989c-.314.033-1.04.305-1.67.932-.594.591-1.065 1.462-1 2.692.083 1.568.648 1.895 1.948 2.637 1.383.79 4.146 1.616 6.856 1.932 11.066 1.29 19.5-.732 25.647-10.325 1.008-1.573 1.788-3.102 2.219-4.403.451-1.361.442-2.234.225-2.676-.503-1.027-1.575-1.886-2.784-2.533z" fill="#110545"/><path fill-rule="evenodd" clip-rule="evenodd" d="M318.572 161.314c-.655-.945-1.565-1.555-2.163-1.813a1 1 0 11.792-1.836c.894.385 2.118 1.217 3.015 2.509.917 1.323 1.481 3.119.997 5.33-.17.781-.605 1.603-1.155 2.409-.56.821-1.286 1.691-2.113 2.576-1.654 1.769-3.767 3.651-5.899 5.369-2.134 1.719-4.311 3.291-6.104 4.437a26.914 26.914 0 01-2.385 1.385 8.712 8.712 0 01-.941.409c-.265.093-.587.183-.903.18-.675-.005-2.111-.239-3.813-.631a50.584 50.584 0 01-5.91-1.74c-2.053-.75-4.106-1.685-5.696-2.796-1.549-1.082-2.884-2.491-3.049-4.249-.183-1.939.627-3.557 1.671-4.69 1.019-1.105 2.366-1.865 3.481-2.014a1 1 0 11.266 1.982c-1.994.268-3.607 2.622-3.427 4.535.56 3.192 11.569 6.68 17.429 7.223.588-.292 1.337-.727 2.199-1.279 1.723-1.101 3.841-2.629 5.927-4.31 2.089-1.682 4.124-3.499 5.693-5.177.785-.839 1.439-1.629 1.922-2.337.493-.722.763-1.295.854-1.709.352-1.612-.053-2.848-.688-3.763zm-42.97-9.877c.547-.073 1.358 1.909 1.431 2.457.143 1.06.288 1.872-.15 3.66-1.377 5.628-5.104 8.865-9.873 11.8-.47.29-.951.188-1.24-.282-.144-.234.257-.841.506-1.113 3.136-2.479 6.702-5.952 8.1-11.663.4-1.636.467-3 .368-3.734a1.001 1.001 0 01.858-1.125zm23.958-29.088a1 1 0 01-1.27.622 22.412 22.412 0 00-3.599-.885 11.581 11.581 0 00-1.935-.151c-.596.013-1.033.099-1.313.227-1.671.764-4.092 2.767-5.122 3.712l-1.352-1.474c1.035-.949 3.657-3.15 5.642-4.057.633-.29 1.38-.392 2.102-.407a13.36 13.36 0 012.281.174c1.517.232 3.015.651 3.944.969a1 1 0 01.622 1.27z" fill="#110545"/><path d="M274.59 88.611l6.455-1.132c2.387 5.41 7.608 19.164 11.642 32.883-3.363 1.544-4.736 2.656-7.003 4.72l-8.001-1.264c-1.904-13.248-2.595-25.931-3.093-35.207z" fill="#3852CE" stroke="#110545" stroke-width="2"/><path d="M292.687 120.362c-4.034-13.719-9.255-27.472-11.642-32.883l-6.455 1.132c.498 9.276 1.189 21.959 3.093 35.207" stroke="#110545" stroke-width="2"/><path d="M283.19 70.008c2.867 7.967-.41 14.99-2.407 17.505l-6.456 1.132c-1.966-1.19-6.053-4.527-6.673-8.356-.774-4.786 1.574-10.916 4.833-15.187 2.608-3.416.353-8.198-1.101-10.161 2.74 1.702 8.936 7.1 11.804 15.067z" fill="#110545"/><path fill-rule="evenodd" clip-rule="evenodd" d="M272.199 62.879a1 1 0 01.413 1.352c-.669 1.259-.747 2.359-.409 3.54.358 1.246 1.188 2.616 2.452 4.343 2.187 2.99 3.134 5.501 3.18 7.484.047 2.023-.862 3.527-2.307 4.164-1.401.617-3.074.31-4.342-.763-1.699-1.44-2.927-4.536-1.1-6.356.084 2.147.91 3.573 2.393 4.83.761.644 1.629.729 2.242.459.568-.25 1.146-.913 1.114-2.287-.033-1.414-.732-3.53-2.795-6.35-1.277-1.747-2.297-3.36-2.759-4.973-.481-1.679-.348-3.313.565-5.03a1 1 0 011.353-.413z" fill="#fff"/><path d="M287.646 106.02c-4.19 2.812-7.632 3.07-11.443 2.464" stroke="#fff" stroke-width="2"/><path d="M308.229 212.648l-4.18-31.992c-.718.325-2.412.929-3.433.748-1.022-.18-5.774-1.524-8.022-2.174l13.593 33.951c.465 1.16 2.204.706 2.042-.533z" fill="#3852CE" stroke="#110545" stroke-width="2"/><path d="M304.05 180.657l4.244 32.489c.152 1.166-1.483 1.593-1.92.502l-13.78-34.416" stroke="#110545" stroke-width="2"/><path d="M171.269 158.286c10.383.279 12.788-4.008 12.692-6.187 2.862.945 10.222 1.512 16.768-3.779 8.183-6.613 7.387-11.476 14.841-13.418 7.377-1.922 12.729-.313 15.691.577l.092.028c2.942.884 7.935 1.942 7.528-4.143-.324-4.868-8.23-8.96-12.142-10.398 2.821-.184 8.487-1.279 8.58-4.181.093-2.901-7.237-28.833-10.914-41.436 2.672-3.173 5.526-9.706-4.435-10.46-9.96-.754-19.589 4.848-23.159 7.743-2.489-2.614-7.898-7.776-9.623-7.516-1.724.261-6.144 1.915-8.138 2.71-.607-3.084-2.925-8.6-7.338-5.989-4.414 2.613-8.654 13.556-10.222 18.701-1.593-.076-5.569 1.168-8.735 6.757-3.958 6.986-5.428 10.848-6.492 20.795-1.064 9.947-2.794 16.883-.822 21.735 1.577 3.881 5.315 9.228 6.987 11.417-5.748.785-5.186 7.704-.626 11.353 5.509 4.41 16.156 5.602 19.467 5.691z" fill="#fff"/><path fill-rule="evenodd" clip-rule="evenodd" d="M227.821 69.02c.927 2.643-.658 5.527-3.7 7.887a1 1 0 11-1.226-1.58c6.619-10.18-7.741-8.538-13.571-6.306-3.531 1.352-6.878 2.473-11.802 5.144a1 1 0 01-.954-1.757c4.922-2.671 9.088-4.815 12.756-6.219 3.67-1.405 6.921-2.102 10.002-1.807 4.492.431 7.586 2.045 8.495 4.639z" fill="#110545"/><path fill-rule="evenodd" clip-rule="evenodd" d="M194.414 69.48c.673.672 1.371 1.37 2.096 2.063 1.897 1.814 3.009 2.53 3.765 3.018.113.073.219.141.318.207.409.272.803.565 1.134 1.053.314.46.528 1.03.744 1.776.523 1.8.077 3.664-1.325 5.106-1.378 1.415-3.604 2.36-6.575 2.603-2.563.21-4.783-.754-6.476-1.975-1.688-1.218-2.926-2.739-3.566-3.803a1 1 0 011.713-1.031c6.919 6.81 16.229 2 12.568-1.999-1.802-1.463-1.65-1.566-3.682-3.51a129.822 129.822 0 01-2.253-2.218c-1.276-1.277-2.37-2.373-3.442-3.212-1.601-1.255-2.837-1.672-4.161-1.261-2.69.835-4.587 2.172-5.564 2.861l-.018.013a1 1 0 01-1.152-1.635l.032-.023c1.011-.712 3.117-2.197 6.109-3.126 2.258-.701 4.19.188 5.987 1.596 1.165.912 2.407 2.155 3.748 3.496z" fill="#110545"/><path fill-rule="evenodd" clip-rule="evenodd" d="M181.66 71.682c.412 1.1.83 2.219 1.257 3.31a84.213 84.213 0 001.405 3.321c.176.4.351.797.521 1.19.619 1.43 1.186 2.83 1.508 4.14.322 1.309.425 2.63.008 3.862-.427 1.263-1.351 2.284-2.793 3.07-2.816 1.535-5.481 1.493-7.759.481-2.232-.991-4.015-2.876-5.241-4.913-1.038-1.725-1.525-4.02-1.739-6.095-.217-2.098-.168-4.097-.053-5.317a1 1 0 011.992.187c.449 5.13 1.781 11.246 5.614 12.587 5.676 1.985 9.434-.724 6.628-7.207l-.501-1.144a86.733 86.733 0 01-1.453-3.434 253.67 253.67 0 01-1.301-3.426c-.753-2.014-1.461-3.907-2.175-5.509-.551-1.236-1.074-2.224-1.579-2.907-.531-.72-.9-.907-1.087-.932-1.095-.14-2.354-.119-3.697.704-1.368.84-2.958 2.594-4.497 6.22-2.539 5.983-3.813 9.6-4.198 11.391a1 1 0 01-1.955-.42c.43-2.003 1.779-5.784 4.312-11.752 1.631-3.843 3.442-6.009 5.292-7.143 1.876-1.15 3.653-1.157 4.998-.983 1.033.133 1.831.9 2.441 1.726.636.86 1.229 2.006 1.797 3.283.737 1.653 1.485 3.651 2.255 5.71zm-28.501 69.445a1 1 0 01-.859 1.124c-1.963.263-2.305 1.577-2.318 3.595-.011 1.937 1.104 3.687 3.177 5.354 6.517 5.244 20.976 8.097 27.596 3.802 1.644-1.135 1.946-2.057 1.917-2.761a1.001 1.001 0 011.999-.083c.061 1.475-.722 3.399-2.858 4.873-2.127 1.468-5.564 2.479-10.879 2.322-1.719-.05-5.273-.388-9.101-1.274-3.806-.88-8.021-2.332-10.948-4.688-2.479-1.994-3.925-4.914-3.909-7.545.009-1.329.393-2.62 1.259-3.647.871-1.033 2.156-1.71 3.8-1.93a1 1 0 011.124.858z" fill="#110545"/><path fill-rule="evenodd" clip-rule="evenodd" d="M161.119 82.049c-1.568-1.584-4.033 1.248-4.89 2.281-7.643 9.208-7.326 19.443-8.777 30.919-1.375 10.88 0 17.323 8.093 26.965a1 1 0 01-1.231 1.576c-1.569-1.225-3.932-3.446-5.993-6.178-2.051-2.718-3.883-6.046-4.235-9.472-.418-4.073-.032-8.58.513-12.891.199-1.574.418-3.113.629-4.599.375-2.638.726-5.111.904-7.328.568-7.11 1.736-10.6 4.599-14.79l.189-.275c1.294-1.894 2.559-3.745 3.77-5.204.637-.768 1.281-1.454 1.931-1.994.644-.535 1.344-.968 2.094-1.162 2.11-.544 3.551.24 4.086 1.068a1 1 0 01-.296 1.383c-.531.343-1.003.088-1.386-.3z" fill="#110545"/><rect x="234.206" y="73.084" width="41.145" height="82.592" rx="7" transform="rotate(72.326 234.206 73.084)" fill="#3852CE" stroke="#110545" stroke-width="2"/><path d="M213.877 94.162l8.999 4.99-4.99 8.998m-24.991-7.974l-4.99 8.998 8.999 4.99m9.981-17.997L203.9 112.16" stroke="#fff" stroke-width="1.724" stroke-linecap="round" stroke-linejoin="round"/><path d="M234.459 117.318l.138.44a1 1 0 01-.653 1.254l-4.977 1.568a1 1 0 01-1.254-.654l-.138-.44m-6.95-42.054l-.142-.439a1 1 0 00-1.26-.643l-4.963 1.609a.999.999 0 00-.643 1.26l.142.438m-2.107.623l-.142-.44a1 1 0 00-1.259-.642l-4.964 1.608a1 1 0 00-.643 1.26l.142.438" stroke="#110545" stroke-width="2"/><path fill-rule="evenodd" clip-rule="evenodd" d="M233.746 125.71c-2.114-1.69-6.003-3.578-10.41-4.024a1 1 0 01.201-1.99c4.803.487 9.053 2.53 11.458 4.452 2.116 1.692 3.587 3.94 4.137 6.181.552 2.247.19 4.597-1.545 6.233-.945.891-2.073 1.166-3.236 1.119-1.12-.046-2.331-.394-3.539-.793-.42-.139-.845-.285-1.276-.434-2.135-.736-4.418-1.523-6.94-1.662-2.626-.145-5.754.483-8.659 1.822-2.904 1.338-5.511 3.352-7.162 5.912-1.858 2.88-4.676 5.693-7.762 7.801-3.071 2.098-6.525 3.576-9.663 3.623-2.442.036-5.308-.586-7.848-1.344-2.555-.763-4.864-1.69-6.224-2.318a1 1 0 01.839-1.816c1.278.59 3.498 1.483 5.957 2.217 2.475.739 5.109 1.293 7.247 1.261 2.586-.038 5.655-1.287 8.564-3.274 2.893-1.976 5.512-4.604 7.209-7.234 1.904-2.952 4.845-5.188 8.006-6.644 3.159-1.456 6.611-2.168 9.606-2.003 2.827.156 5.418 1.053 7.552 1.791.411.142.805.279 1.181.403 1.203.398 2.179.66 2.994.693.771.032 1.324-.143 1.782-.575 1.069-1.008 1.407-2.541.975-4.301-.434-1.764-1.631-3.646-3.444-5.096zm-53.217 7.222c.462.304.589.924.286 1.386-1.177 1.788-1.931 3.505-2.315 4.667a1 1 0 11-1.899-.628c.437-1.322 1.266-3.199 2.543-5.139a1.001 1.001 0 011.385-.286z" fill="#110545"/><path d="M163.316 83.511c-1.745-2.86-5.017-.758-5.769-.468l-.812 3.675.813 9.572 3.621 4.282c-.251 2.282-.546 7.369.28 9.457 1.033 2.611 6.584 8.661 11.398 6.269 4.813-2.392 1.982-8.495 1.226-10.17-.755-1.675-.265-3.959-.922-8.321s-2.098-5.07-4.104-6.854c-2.007-1.785-3.551-3.868-5.731-7.442z" fill="#fff"/><path fill-rule="evenodd" clip-rule="evenodd" d="M160.657 81.8c-.01-.002-.013-.002-.007-.003a1 1 0 01-.385-1.963c1.155-.226 2.881.537 4.049 2.977 1.28 2.675 2.255 4.45 5.237 7.017 1.594 1.372 2.653 2.505 3.37 3.685.727 1.197 1.065 2.377 1.315 3.771.34 1.888.39 3.511.434 4.904.011.355.021.695.036 1.021.074 1.62.247 2.934.981 4.318.942 1.779 1.277 4.002.947 5.907-.327 1.886-1.381 3.747-3.474 4.217-2.361.531-5.386-.127-7.883-1.606-2.514-1.488-4.688-3.929-5.085-7.151-.324-2.631-.226-5.345-.003-7.542l-3.049-3.992a1 1 0 011.589-1.214l1.845 2.415c.084-.475.168-.883.245-1.209a1 1 0 111.947.457c-.847 3.608-.448 7.014 0 10.654 1.09 8.848 15.993 9.132 11.154 0-.943-1.777-1.134-3.448-1.212-5.163a99.297 99.297 0 01-.04-1.11c-.043-1.38-.089-2.823-.4-4.552-.228-1.27-.507-2.183-1.056-3.086-.559-.92-1.438-1.893-2.966-3.208-3.263-2.81-4.385-4.847-5.736-7.67-.853-1.782-1.747-1.865-1.853-1.875z" fill="#110545"/><path d="M195.763 162.331c3.434 9.669 2.715 18.041-3.939 23.686-1.727 1.465-3.41 3.728-4.957 6.305l-2.716.152c-2.182-.001-7.021 1.852-8.925 9.269-2.38 9.271-.318 19.588 1.698 23.611 1.613 3.218 4.711 3.624 6.058 3.425.307.333 1.909 2.115 5.865 6.585 4.944 5.587 13.143 10.867 18.464 12.173 5.321 1.306 8.361 7.061 12.868 8.166 4.508 1.105 17.526-6.727 23.57-12.315 4.836-4.47 4.896-9.185 4.321-10.985 1.005-.797 3.671-3.441 6.3-7.639 2.628-4.198 1.439-8.806.516-10.586 1.015-1.333 3.091-4.964 3.269-8.827.178-3.862-2.678-5.899-4.128-6.435.239-.507.775-1.822 1.004-3.02.286-1.497-.235-3.073-.95-3.712-.715-.639-3.068-1.865-7.057-4.727-3.989-2.863-11.413-5.347-14.745-3.122-3.54 2.364-2.542 6.791-1.929 8.504-6.59-1.913-14.765-4.087-17.333-7.421-3.43-4.453 3.469-14.39.409-26.46-3.059-12.07-8.927-13.611-15.189-13.089-6.261.523-5.909 6.794-2.474 16.462z" fill="#fff"/><path fill-rule="evenodd" clip-rule="evenodd" d="M206.462 148.513c-2.351-1.633-5.103-1.9-8.142-1.647-1.399.117-2.298.542-2.879 1.135-.584.599-.962 1.489-1.081 2.763-.243 2.602.629 6.403 2.345 11.233 3.504 9.864 2.87 18.756-4.235 24.783-1.603 1.361-3.22 3.515-4.746 6.057l-.273.454-3.273.184h-.028c-1.691-.001-6.157 1.509-7.956 8.517-1.152 4.489-1.234 9.26-.774 13.415.462 4.169 1.46 7.628 2.398 9.499 1.362 2.717 3.954 3.042 5.017 2.884l.523-.077.359.388c.315.342 1.925 2.134 5.878 6.6 2.402 2.714 5.616 5.375 8.89 7.518 3.286 2.151 6.558 3.732 9.064 4.347 2.931.719 5.192 2.655 7.16 4.377l.149.131c1.987 1.74 3.642 3.188 5.559 3.658.826.203 2.245.012 4.173-.647 1.875-.641 4.058-1.662 6.315-2.905 4.519-2.488 9.214-5.798 12.165-8.525 4.568-4.222 4.497-8.539 4.048-9.947l-.211-.658.541-.43c.903-.716 3.497-3.27 6.074-7.386 2.377-3.796 1.3-8.006.476-9.595l-.292-.562.384-.504c.945-1.24 2.901-4.68 3.066-8.267.151-3.269-2.262-5.003-3.475-5.452l-1.023-.377.465-.987c.22-.467.718-1.697.925-2.781a3.86 3.86 0 00-.08-1.723c-.153-.548-.386-.906-.553-1.056-.115-.103-.336-.262-.723-.513-.259-.169-.565-.361-.925-.588l-.522-.33a94.783 94.783 0 01-4.804-3.23c-1.887-1.354-4.625-2.64-7.281-3.311-1.325-.335-2.594-.508-3.703-.477-1.117.032-2 .27-2.623.686-1.448.967-1.979 2.341-2.08 3.736-.102 1.427.257 2.815.537 3.6l.659 1.843-1.879-.546-1.324-.383c-2.932-.845-6.118-1.764-8.924-2.819-1.621-.61-3.143-1.275-4.437-2.014-1.285-.733-2.405-1.573-3.162-2.555-1.078-1.401-1.28-3.156-1.158-4.993.108-1.609.48-3.444.873-5.384.055-.266.109-.534.163-.804.911-4.539 1.824-9.846.355-15.644-1.499-5.914-3.639-9.054-5.995-10.691zm1.141-1.642c2.908 2.02 5.232 5.685 6.792 11.841 1.59 6.272.584 11.969-.332 16.53l-.163.807c-.398 1.965-.74 3.655-.838 5.12-.111 1.657.111 2.813.747 3.639.527.685 1.392 1.367 2.568 2.039 1.167.666 2.582 1.289 4.15 1.879 2.613.983 5.571 1.845 8.4 2.662a10.326 10.326 0 01-.167-2.628c.132-1.838.872-3.86 2.964-5.257 1.043-.696 2.338-.982 3.675-1.021 1.345-.038 2.805.171 4.251.537 2.887.73 5.856 2.117 7.957 3.626a93.222 93.222 0 004.708 3.164l.503.318c.367.231.692.436.965.613.38.248.721.482.964.698.547.489.932 1.239 1.148 2.012.22.793.293 1.718.118 2.634-.158.825-.443 1.684-.696 2.344 1.736 1.003 4.008 3.248 3.837 6.97-.171 3.722-1.966 7.191-3.116 8.888.949 2.253 1.814 6.802-.821 11.009-2.34 3.737-4.725 6.296-6.029 7.469.459 2.449-.118 7.068-4.76 11.359-3.094 2.86-7.929 6.26-12.558 8.809-2.316 1.275-4.611 2.354-6.633 3.045-1.969.674-3.868 1.048-5.296.698-2.406-.59-4.402-2.342-6.239-3.955l-.31-.272c-2.009-1.758-3.928-3.353-6.319-3.94-2.815-.69-6.303-2.403-9.683-4.615-3.391-2.22-6.75-4.993-9.292-7.866a1089.063 1089.063 0 00-5.525-6.21c-1.791.06-4.868-.673-6.543-4.015-1.079-2.151-2.12-5.862-2.598-10.175-.479-4.328-.402-9.351.825-14.133 2.002-7.796 7.184-10.004 9.864-10.019l2.164-.122c1.497-2.431 3.15-4.62 4.892-6.098 6.203-5.263 7.008-13.115 3.643-22.588-1.718-4.839-2.739-9.008-2.452-12.089.147-1.568.64-2.948 1.643-3.974 1.007-1.031 2.412-1.586 4.143-1.731 3.223-.269 6.536-.026 9.449 1.998z" fill="#110545"/><path fill-rule="evenodd" clip-rule="evenodd" d="M206.464 148.513c-3.308-2.298-10.559-2.864-11.083 2.747-.243 2.603.547 5.992 2.263 10.822 3.503 9.864 3.822 18.077-3.283 24.104-5.931 5.032-10.377 12.011-12.787 19.402-.171.525-1.552 3.652-2.077 3.481-.525-.171.097-2.956.268-3.481.907-2.781 1.012-5.282 3.152-9.606 2.122-4.288 5.432-8.326 8.261-10.727 6.204-5.262 7.009-13.115 3.644-22.588-1.719-4.838-3.051-7.562-3.051-11.407 0-8.838 11.173-9.221 16.982-5.894 10.092 5.779 8.099 23.808 4.197 35.167-.192 1.643-.086 2.879.435 3.849.386.719 1.395 1.575 3.026 2.484 1.586.884 3.602 1.735 5.783 2.515 4.358 1.56 9.262 2.801 12.442 3.464a1 1 0 11-.408 1.958c-7.868 0-19.745-2.992-23.265-9.548-.808-1.506-.209-3.163 0-4.954.166-1.411.516-2.978.885-4.624.096-.433.195-.871.291-1.313.938-4.311 1.79-9.358.319-15.16-1.499-5.914-3.638-9.054-5.994-10.691z" fill="#110545"/><path fill-rule="evenodd" clip-rule="evenodd" d="M240 185.195c-1.804-.588-3.5-.842-4.969-.611-2.336.367-3.472 1.592-4.025 2.946-.581 1.425-.535 3.067-.3 4.131a1 1 0 11-1.953.432c-.914-1.904-1.689-4.278-.914-6.179.806-1.973 3.121-3.772 6.179-4.253 7.984-1.254 13.38 5.75 19.783 9.018 1.515.773 2.222 2.506 2.209 4.396-.014 1.921-.749 4.192-2.338 6.449-2.403 3.413-2.993 3.389-3.596 4.125-.35.428-2.169 2.811-2.597 2.461-.427-.349.359-1.858.708-2.286.564-.689 1.465-2.065 3.849-5.451 1.403-1.992 1.964-3.874 1.974-5.312.01-1.47-.532-2.302-1.118-2.601-.483-.247-1.284-.791-2.233-1.437l-.696-.472c-1.298-.876-2.883-1.921-4.605-2.897-1.724-.978-3.561-1.873-5.358-2.459z" fill="#110545"/><path fill-rule="evenodd" clip-rule="evenodd" d="M253.714 198.309a1 1 0 011.413-.053c.125.116.268.242.424.381.712.63 1.693 1.498 2.422 2.65.934 1.476 1.475 3.407.975 6.023-1.607 8.404-7.186 14.189-17.634 18.765-.49.254-2.604 1.579-2.859 1.089-.254-.49 1.851-1.957 2.341-2.212 9.851-5.116 14.762-10.562 16.187-18.017.404-2.116-.037-3.531-.7-4.578-.562-.889-1.277-1.525-1.979-2.15a42.003 42.003 0 01-.538-.485 1 1 0 01-.052-1.413z" fill="#110545"/><path fill-rule="evenodd" clip-rule="evenodd" d="M254.552 213.273a1 1 0 011.315.521c1.302 3.014 2.147 10.132-4.066 16.419-5.966 6.036-11.563 8.953-14.506 10.319-.501.233-2.793 1.301-3.026.8-.232-.501 2.525-2.011 3.026-2.244 2.781-1.29 7.322-4.452 13.084-10.281 5.514-5.58 4.707-11.777 3.652-14.22a1 1 0 01.521-1.314z" fill="#110545"/><path fill-rule="evenodd" clip-rule="evenodd" d="M179.672 222.29a1 1 0 011.31.532c.371.879 2.39 2.704 5.22 6.665 1.702 2.383 5.476 5.7 9.46 8.81 5.988 4.675 12.542 5.008 18.565 9.45 4.302 3.172 6.633 7.819 11.83 5.742 3.268-1.306 7.599-3.659 12.808-7.371 8.206-5.847 8.656-11.403 8.164-13.073a1 1 0 011.918-.565c.82 2.784-.311 9.132-8.921 15.267-5.301 3.778-9.773 6.218-13.226 7.599-1.726.689-3.219 1.123-4.449 1.32-1.195.191-2.277.181-3.085-.168-.679-.293-1.591-.957-2.556-1.691-.347-.264-.709-.544-1.087-.836-.73-.564-1.518-1.173-2.363-1.796-2.573-1.898-5.434-3.738-8.02-4.377-1.544-.382-3.411-1.285-5.355-2.449-1.96-1.174-4.063-2.651-6.091-4.235-4.036-3.151-7.882-6.804-9.751-9.42-2.884-4.037-4.458-7.038-4.904-8.094a1 1 0 01.533-1.31z" fill="#110545"/><path fill-rule="evenodd" clip-rule="evenodd" d="M178.265 197.43c-1.619 2.749-2.28 6.509-2.564 10.087-.327 4.131.358 7.109 1.38 12.067.371 1.8 2.184 8.658 5.425 8.017a1 1 0 11.388 1.962c-1.165.23-2.858-.01-4.439-1.244-1.591-1.242-2.998-3.43-3.733-6.995-1.055-5.118-1.359-9.622-1.015-13.965.289-3.637.973-7.782 2.834-10.944.941-1.598 2.198-2.972 3.878-3.888 1.684-.918 3.724-1.337 6.166-1.132a1 1 0 01.912 1.081c-.046.55-.879.097-1.43.051-2.11-.178-3.399 1.052-4.691 1.756-1.296.707-2.312 1.789-3.111 3.147zm62.559-5.589a59.53 59.53 0 014.836-.488 1 1 0 01.112 1.997 57.489 57.489 0 00-4.661.47c-1.804.261-3.443.612-4.328 1.025-1.948.909-2.796 1.911-2.922 2.124a1 1 0 01-1.724-1.014c.391-.664 1.61-1.901 3.8-2.923 1.184-.552 3.095-.932 4.887-1.191zm-10.502 9.397a1 1 0 011.376-.323c1.466.908 3.55 3.715 2.083 8.079-1.278 3.802-2.272 7.313-2.595 9.686-.075.547-.554 3.094-1.101 3.019-1.582-.215-.893-7.271-.753-8.623.115-1.115.359-2.428.99-4.305 1.151-3.424 1.055-5.702.323-6.156a1 1 0 01-.323-1.377zm-.59 23.803c.551-.026 1.429 5.306 1.454 5.858.343 7.481-2.482 8.351-5.675 16.7a.999.999 0 11-1.629-1.159c1.629-6.765 5.155-9.833 4.822-17.098-.025-.552.476-4.276 1.028-4.301z" fill="#110545"/><path fill-rule="evenodd" clip-rule="evenodd" d="M245.088 207.567c-1.116 1.98-4.763 4.309-5.743 4.827-2.183 1.152-4.685 2.169-7.019 2.3a1 1 0 01-.112-1.997c1.898-.107 4.09-.96 6.197-2.072.57-.301 5.137-2.608 6.677-3.058z" fill="#110545"/></svg>