<svg width="272" height="246" viewBox="0 0 272 246" fill="none" xmlns="http://www.w3.org/2000/svg"><circle cx="130.861" cy="124.716" r="71.422" fill="#3852CE"/><path d="M54.813 120.385c-3.698-7.427-17.614-11.26-24.21-15.457v-9.3l24.21-47.733c6.89 4.094 34.662 13.738 39.606 15.553 6.18 2.27 35.596 10.789 42.841 15.793 7.245 5.005 9.014 14.523 9.246 18.566.231 4.044-13.174 30.494-13.994 34.179-.82 3.685-8.385 17.508-10.046 20.168-3.233 3.327-18.08 2.928-35.25 2.928-12.158-5.4-20.3-10.581-25.326-15.702-1.62-3.253-3.378-11.569-7.077-18.995z" fill="#fff" stroke="#110545" stroke-width="2" stroke-linecap="round" stroke-linejoin="round"/><path fill-rule="evenodd" clip-rule="evenodd" d="M143.582 89.25c-1.331-3.393-3.483-6.832-6.891-9.186-1.707-1.18-4.806-2.614-8.682-4.153-3.849-1.529-8.379-3.127-12.888-4.644-4.501-1.515-9.006-2.956-12.769-4.16-3.734-1.194-6.736-2.154-8.278-2.72-.715-.263-1.925-.695-3.49-1.255-3.782-1.351-9.637-3.444-15.588-5.67-7.727-2.889-15.774-6.06-19.762-8.185l-23.63 46.59.81 8.098c5.516 2.843 21.504 8.372 23.804 14.873 3.012 6.048 4.4 13.607 7.285 19.653 4.881 4.928 11.803 9.518 23.713 14.825 8.409.001 26.945 0 34.463-1.79.858-1.394 3.092-5.391 5.237-9.532 1.097-2.117 2.163-4.258 3.005-6.093.855-1.866 1.436-3.329 1.615-4.133.124-.557.457-1.451.897-2.523.45-1.098 1.046-2.461 1.731-3.994.776-1.736 1.677-3.71 2.622-5.782.721-1.58 1.468-3.217 2.206-4.85 1.712-3.788 3.383-7.571 4.611-10.654.614-1.542 1.111-2.894 1.446-3.975.351-1.132.476-1.825.458-2.126-.111-1.938-.594-5.22-1.925-8.614zm1.862-.73c1.423 3.627 1.94 7.125 2.06 9.23.041.71-.203 1.728-.544 2.831-.358 1.154-.876 2.561-1.499 4.124-1.246 3.129-2.934 6.947-4.647 10.738-.745 1.649-1.494 3.29-2.214 4.87a800.441 800.441 0 00-2.61 5.754 147.498 147.498 0 00-1.707 3.937c-.449 1.096-.714 1.835-.795 2.199-.231 1.039-.904 2.686-1.749 4.531-.86 1.876-1.943 4.049-3.047 6.18-2.205 4.256-4.526 8.405-5.378 9.77a.954.954 0 01-.131.167c-1.036 1.067-2.841 1.71-4.975 2.144-2.188.446-4.942.711-8.09.87-5.057.255-11.242.24-17.917.225-1.635-.004-3.3-.008-4.985-.008a.996.996 0 01-.406-.086c-12.205-5.421-20.48-10.663-25.634-15.916a1.012 1.012 0 01-.181-.254c-.683-1.372-1.384-3.576-2.19-6.113-.201-.634-.41-1.289-.626-1.958-1.1-3.404-2.446-7.281-4.261-10.925-.831-1.668-2.266-3.19-4.127-4.608-1.857-1.416-4.088-2.691-6.448-3.885-1.79-.905-3.625-1.75-5.413-2.574-.574-.264-1.142-.526-1.703-.787-2.288-1.065-4.45-2.116-6.16-3.205a.998.998 0 01-.463-.843v-9.3a1 1 0 01.108-.452l24.21-47.733a1 1 0 011.402-.408c3.35 1.99 11.915 5.392 20.372 8.554 5.94 2.221 11.732 4.292 15.512 5.642 1.585.567 2.816 1.007 3.555 1.278 1.526.56 4.455 1.497 8.128 2.671 3.749 1.199 8.272 2.645 12.868 4.191 4.522 1.522 9.091 3.133 12.988 4.681 3.871 1.537 7.166 3.043 9.081 4.367 3.838 2.65 6.193 6.473 7.616 10.1z" fill="#110545"/><path d="M113.008 150.146l-26.427-9.76-5.971-14.798c.588-1.675 3.122-4.996 8.552-4.888 5.43.109 7.24 4.48 7.467 6.653" stroke="#110545" stroke-width="2" stroke-linecap="round" stroke-linejoin="round"/><path fill-rule="evenodd" clip-rule="evenodd" d="M87.757 117.463c-5.898.526-7.683 5.262-8.397 7.295-.08.229.215 1.978.306 2.204l5.988 13.798a1 1 0 00.58.564l26.427 9.76a1 1 0 001.285-.591c.191-.518-.767-1.984-1.285-2.175l-24.083-9.149-5.76-13.207c.674-1.428 1.753-4.353 6.324-4.262 2.413.048 3.957 1.028 4.94 2.196 1.012 1.203 1.457 2.642 1.552 3.56a1 1 0 001.99-.207c-.13-1.254-.193-3.996-1.5-5.549-1.335-1.587-4.022-4.624-8.367-4.237zm49.926-15.451c-.543.103-1.071.543-1.174 0-.556-2.937-1.23-5.838-3.42-8.767-1.652-2.21-3.665-3.704-5.776-4.138a1 1 0 01.403-1.96c2.745.566 5.141 2.447 6.975 4.9 1.841 2.463 3.473 5.186 4.082 8.401.103.542-.547 1.462-1.09 1.564zm-9.076 7.525c-.543.103-1.052.543-1.155 0-.556-2.937-1.794-6.566-3.439-8.767-1.652-2.21-3.666-3.704-5.776-4.138a1 1 0 11.403-1.96c2.745.566 5.141 2.447 6.975 4.9 1.841 2.463 3.36 5.387 3.968 8.602.103.542-.434 1.261-.976 1.363zm-10.772 8.682c-.542.103-.803.543-.906 0-.582-3.075-2.126-6.838-3.849-9.143-1.731-2.315-3.843-3.885-6.062-4.341a1 1 0 11.403-1.959c5.832 1.2 10.722 8.38 11.771 13.922.103.543-.814 1.418-1.357 1.521z" fill="#110545"/><path d="M45.489 41.252l32.21 13.318c-24.08 0-46.315 39.77-43.808 62.285L7.383 103.286c-.01-24.724 12.797-53.57 38.106-62.034z" fill="#110545" stroke="#110545" stroke-width="2" stroke-linecap="round" stroke-linejoin="round"/><path d="M45.489 41.252l32.21 13.318c-24.08 0-46.315 39.77-43.808 62.285L7.383 103.286m70.371-48.462c1.739 1.242 2.081 1.99 2.14 3.364" stroke="#110545" stroke-width="2" stroke-linecap="round" stroke-linejoin="round"/><path d="M33.169 105.609c-1.43 4.579-2.213 10.022 2.003 11.924 4.866 2.194 8.64-.48 11.697-3.691" stroke="#110545" stroke-width="2" stroke-linecap="round" stroke-linejoin="round"/><path d="M202.126 110.209c1.597 1.785 18.514 10.686 26.772 14.913l-28.767 60.122c-1.253-.508-4.486-1.761-7.398-2.7-3.64-1.175-13.622-3.875-20.198-4.228-6.576-.352-18.553 1.879-24.072 1.879-5.519 0-17.262-4.58-22.076-7.28-3.852-2.161-5.519-10.999-5.872-15.148-.704.039-5.53-.627-6.469-1.661-1.175-1.291-2.599-17.275-2.012-22.794.587-5.519 1.788-9.247 4.489-13.357 2.701-4.11 14.913-13.621 20.902-18.201 5.989-4.58 8.924-6.693 15.148-9.394 6.223-2.701 13.504-1.057 15.618 0 2.113 1.057 31.938 15.618 33.935 17.849z" fill="#fff"/><path d="M194.403 183.461c-5.339-1.909-18.084-5.534-26.345-4.769l-21.183 1.963c-7-1.576-21.532-5.855-23.659-10.358-2.126-4.503-3.067-10.042-3.271-12.248m107.795-32.69c-7.109-3.703-22.362-11.92-26.509-15.168-5.183-4.059-25.304-13.677-33.374-17.202-8.069-3.525-17.092-.018-20.652 1.914-3.559 1.932-25.471 19.672-28.848 22.969-9.042 8.83-6.381 28.245-3.7 38.759l18.49 5.088 12.108-5.088c-.892-9.632-1.295-12.788-5.351-14.952-4.056-2.164-8.853.408-10.652 4.438" stroke="#110545" stroke-width="2" stroke-linecap="round" stroke-linejoin="round"/><path fill-rule="evenodd" clip-rule="evenodd" d="M156.021 92.883c3.585-.655 7.642-.636 11.437 1.022 4.016 1.755 11.048 5.033 17.721 8.378 6.714 3.366 12.94 6.74 15.436 8.695 2.147 1.682 7.072 4.587 12.272 7.499a582.693 582.693 0 0014.391 7.769 1 1 0 10.924-1.773 580.984 580.984 0 01-14.338-7.741c-5.24-2.934-10.015-5.762-12.015-7.328-2.687-2.104-9.113-5.569-15.773-8.908-6.701-3.36-13.764-6.653-17.817-8.424-4.275-1.867-8.764-1.856-12.598-1.156-3.833.7-7.079 2.102-8.932 3.108-.973.528-3.079 2.055-5.663 4.024a474.896 474.896 0 00-8.978 7.048c-6.331 5.077-12.697 10.37-14.428 12.061-4.81 4.696-6.417 12.094-6.548 19.445-.132 7.391 1.223 14.967 2.577 20.276a1 1 0 00.704.717l4.637 1.276c.322 2.602 1.296 7.645 3.283 11.853.667 1.413 2.203 2.653 4 3.728 1.84 1.1 4.134 2.13 6.548 3.055 4.831 1.852 10.263 3.328 13.795 4.124.103.023.208.03.312.02l21.183-1.963c3.976-.368 9.107.32 13.966 1.363 4.84 1.04 9.319 2.411 11.95 3.351a1 1 0 001.279-.605c.186-.52.52-3.923 0-4.109-2.708-.968-8.297-1.932-13.229-2.991-4.913-1.056-10.373-1.397-14.659-1l-20.516 2.948c-3.47-.789-8.718-2.224-13.365-4.005-2.361-.905-4.536-1.887-6.237-2.905-1.745-1.043-2.823-2.027-3.219-2.865-1.679-3.556-2.602-6.811-2.993-9.422l11.754 3.236c.217.059.446.044.653-.043l12.109-5.088c.402-.17 1.125-1.266 1.085-1.701-.442-4.772-.799-7.752-1.558-10.142-.628-1.975-2.341-5.541-4.105-6.482-4.396-2.942-13.726-2.626-14.198 4.747-.225.504 1.473 2.83 1.977 3.055a1 1 0 001.321-.505c1.642-3.678 5.881-5.771 9.268-3.964 1.706.91 2.795 2.256 3.38 4.096.644 2.027.471 4.149.887 8.59l-10.819 4.201c-5.81-1.056-11.159-3.676-16.84-5.239-2.353-10.858-4.353-27.564 4.309-36.022 1.646-1.607 6.629-6.431 12.988-11.531a473.188 473.188 0 018.939-7.017c2.631-2.004 4.598-3.42 5.405-3.857 1.706-.926 4.752-2.244 8.338-2.899z" fill="#110545"/><path d="M234.401 122.205l30.98 13.685c-25.242 7.146-42.614 45.596-42.601 68.686l-28.299-14.486c-.01-26.395 14.457-56.904 39.92-67.885z" fill="#110545"/><path d="M199.891 185.945c-.009 1.213.289 2.291.751 3.049.467.766 1.051 1.14 1.612 1.144.562.004 1.151-.362 1.628-1.122.472-.752.785-1.825.793-3.038.008-1.214-.29-2.291-.752-3.05-.466-.766-1.05-1.14-1.612-1.144-.561-.004-1.15.362-1.627 1.122-.472.752-.785 1.825-.793 3.039zM24.992 99.449c-.008 1.213.29 2.29.752 3.049.466.766 1.05 1.14 1.612 1.144.561.004 1.15-.362 1.627-1.122.473-.752.785-1.825.793-3.038.009-1.214-.289-2.291-.751-3.05-.467-.766-1.05-1.14-1.612-1.144-.561-.004-1.15.362-1.628 1.122-.472.752-.785 1.825-.793 3.039z" fill="#fff" stroke="#110545"/><path d="M265.381 135.89l-30.98-13.685c-25.463 10.981-39.93 41.49-39.92 67.885l28.299 14.486" stroke="#110545" stroke-width="2" stroke-linecap="round" stroke-linejoin="round"/><path fill-rule="evenodd" clip-rule="evenodd" d="M124.233 113.196c-1.65.094-2.75.925-3.929 1.993a1 1 0 001.343 1.482c.735-.666 1.778-1.039 3.136-1.117 5.411-.307 11.063 2.753 15.608 5.281a1 1 0 10.972-1.748c-4.513-3.049-11.319-6.221-17.13-5.891zm12.341-10.052c-1.513.086-3.419.948-4.51 1.936a.999.999 0 101.342 1.482c4.273-3.87 13.146 1.691 16.934 3.797a1 1 0 10.972-1.747c-3.924-2.764-9.437-5.769-14.738-5.468zm9.843-7.972c-1.471.084-2.443.614-3.508 1.578a1.001 1.001 0 001.343 1.482c.621-.562 1.51-.886 2.689-.953 4.744-.27 9.704 2.422 13.687 4.638a1 1 0 00.973-1.748c-3.954-2.89-10.041-5.29-15.184-4.997z" fill="#110545"/><path d="M84.791 32.02a.935.935 0 00.311 1.263c3.813 1.867 7.049 4.068 10.092 6.26.67.482 1.328.962 1.98 1.438 2.34 1.707 4.602 3.358 7.025 4.836a.935.935 0 001.285-.31c.141-.233.202-.709-.097-1.574-.286-.825-.825-1.784-1.495-2.764-1.334-1.953-3.049-3.797-3.776-4.503-2.844-2.764-6.447-4.837-10.112-6.946a387.45 387.45 0 01-1.557-.899 2.145 2.145 0 00-.271.127c-.368.199-.834.538-1.326.953-.484.409-.96.863-1.343 1.267-.404.425-.645.731-.716.853zm3.761-3.23l-.008.002a.039.039 0 00.008-.001zm41.936 9.791c.008.028.014.056.02.084v.002c.006.015.055.14.253.36.197.217.472.45.786.66a4.4 4.4 0 00.914.477c.138.05.251.079.337.092a.617.617 0 00.097.008l.014-.008a2.11 2.11 0 00.403-.33c.276-.27.58-.647.859-1.063a7.15 7.15 0 00.659-1.202 2.132 2.132 0 00.16-.525l-4.143-20.396h0l-.002-.012a.934.934 0 00-1.093-.742c.002 0-.006 0-.025.006a3.952 3.952 0 00-.321.12 11.46 11.46 0 00-.726.351c-.56.293-1.218.68-1.838 1.093-.626.416-1.181.837-1.556 1.195a2.94 2.94 0 00-.298.322l5.5 19.508zm-5.577-19.39l.007-.015c-.006.01-.008.015-.007.015zm35.814 22.152a1.376 1.376 0 01-.023.11.934.934 0 00.654 1.143c-.012-.003-.009-.004.01-.006.049-.005.198-.022.48-.123a6.74 6.74 0 001.201-.597 7.09 7.09 0 001.088-.812 2.15 2.15 0 00.364-.413c.008-.012.01-.015.008-.007h0l.001-.005 6.251-22.885c-.004-.004-.006-.115-.115-.37a5.058 5.058 0 00-.6-.992 6.386 6.386 0 00-.829-.91 2.958 2.958 0 00-.353-.273.796.796 0 00-.149-.079h-.001a20.79 20.79 0 00-2.729-.526c-.534-.06-.973-.071-1.267-.033l-3.991 26.778zm28 15.459c1.146-2.462 3.265-5.346 5.65-7.956 3.334-3.65 7.235-6.694 10.482-7.824 1.619-.563 2.934-.602 3.918-.177.841.364 1.615 1.148 2.14 2.66-3.224 2.78-7.575 6.6-12.085 11.024a166.86 166.86 0 00-1.576 1.57c-1.604 1.61-3.149 3.16-4.613 4.277-.963.734-1.801 1.207-2.508 1.394-.663.175-1.165.092-1.614-.242l.206-4.726zm0 0c-.576 1.237-.869 2.291-.881 3.111m.881-3.11l-.881 3.11m0 0c-.011.781.227 1.28.675 1.615l-.675-1.615zm43.75 31.647l.009-.046c.176-.829.027-1.813-.303-2.622a3.5 3.5 0 00-.527-.919c-.136-.16-.217-.202-.226-.208a.983.983 0 01-.201-.062c-1.901-.812-7.762-2.55-13.285-3.14-2.767-.295-5.346-.29-7.268.205-1.899.488-2.909 1.37-3.136 2.689.005.02.023.08.09.19.11.18.3.397.556.619.543.47 1.14.76 1.409.804l.019.004 20.679 3.793.078.012c.579.095.994.163 1.341.05a.741.741 0 00.385-.286c.132-.178.286-.502.38-1.082zm-48.489 130.472a.933.933 0 00-.051-1.299c-3.36-2.595-6.088-5.401-8.628-8.16a347.9 347.9 0 01-1.651-1.806c-1.95-2.143-3.834-4.214-5.911-6.15a.935.935 0 00-1.321.047c-.185.199-.34.653-.22 1.561.113.865.449 1.913.908 3.008.915 2.181 2.225 4.332 2.795 5.17 2.231 3.279 5.344 6.033 8.51 8.835.448.397.897.794 1.345 1.194a2.17 2.17 0 00.291-.07c.401-.121.925-.359 1.491-.667a17.516 17.516 0 001.57-.971c.481-.336.778-.587.872-.692zm-4.333 2.408l.008.001-.008-.001zm-45.431-11.888a.809.809 0 01.007-.086v-.002c-.001-.016-.009-.15-.13-.42a4.37 4.37 0 00-.545-.87 4.396 4.396 0 00-.724-.735 1.856 1.856 0 00-.292-.19.603.603 0 00-.09-.038l-.016.004a2.142 2.142 0 00-.485.189c-.345.174-.75.438-1.144.749a7.098 7.098 0 00-.996.942 2.15 2.15 0 00-.304.437c-.007.014-.009.018-.009.013l-2.32 20.683h0l-.002.011a.936.936 0 00.813 1.043l.025.001a3.507 3.507 0 00.342-.016c.216-.02.488-.057.799-.111a21.226 21.226 0 002.085-.475c.724-.204 1.381-.434 1.847-.66.175-.084.3-.157.384-.215l.755-20.254zm-.646 20.166a.055.055 0 00-.012.012l.012-.012zM98.896 202.22c.013-.035.029-.069.046-.103a.934.934 0 00-.393-1.256c.01.005.008.005-.012.003-.048-.005-.198-.021-.494.017a6.646 6.646 0 00-1.302.325 7.08 7.08 0 00-1.237.558 2.19 2.19 0 00-.445.325c-.01.01-.012.012-.008.005h0l-.003.005-11.03 21.003c.002.005-.02.113.032.385.06.312.19.698.373 1.099.182.398.4.775.614 1.067.106.146.204.26.286.342.079.079.123.106.128.11 0 0 0 0 0 0 .452.234 1.54.757 2.553 1.101.508.173.935.279 1.23.305l9.662-25.291zm-29.957-16.526a.851.851 0 01.076-.084.66.66 0 00.038-.904c-.014-.003-.113-.055-.365-.103a5.574 5.574 0 00-1.119-.083 5.94 5.94 0 00-1.13.119c-.297.066-.4.13-.403.126 0-.001.004-.006.015-.016l-.004.004-14.607 14.122c-.01.025-.036.101-.057.26-.034.255-.032.593.008.961.04.365.115.721.207 1.006.09.279.167.399.181.421l.002.003a17.64 17.64 0 001.767 1.569c.314.237.586.413.795.517l14.596-17.918zm-41.124-21.576a.993.993 0 01.008.048c.107.84.573 1.72 1.151 2.375.285.323.568.557.8.693.182.106.271.12.282.122.07-.01.14-.012.21-.008 2.063.14 8.17-.153 13.577-1.418 2.71-.633 5.143-1.489 6.795-2.59 1.63-1.087 2.294-2.252 2.073-3.573a.686.686 0 00-.147-.149 2.847 2.847 0 00-.73-.401c-.667-.265-1.327-.342-1.595-.295l-.02.003-20.771 3.24-.079.014c-.578.101-.992.174-1.282.395a.738.738 0 00-.27.397c-.065.212-.104.569-.002 1.147z" fill="#110545" stroke="#110545" stroke-width="2" stroke-linecap="round" stroke-linejoin="round"/></svg>