<svg width="196" height="290" viewBox="0 0 196 290" fill="none" xmlns="http://www.w3.org/2000/svg"><path d="M.386 162.491c0-19.421 15.743-35.164 35.164-35.164h64.13c19.419 0 35.163 15.743 35.163 35.164.836 28.607-5.152 59.227-13.028 86.886-.925 3.249-2.45 5.513-4.609 7.09-8.433 6.161-25.867 11.995-48.55 12.242-22.715.247-40.86-5.103-50.633-12.242-2.16-1.577-3.684-3.841-4.61-7.09C5.622 222.01-.098 190.75.387 162.491z" fill="#fff"/><path fill-rule="evenodd" clip-rule="evenodd" d="M99.68 129.327H35.55c-14.78 0-26.326 9.097-30.503 22.648-2.4 7.786-2.092 17.168-1.662 25.179 1.277 23.806 5.55 49.19 11.952 71.676.826 2.899 2.128 4.753 3.866 6.022 9.3 6.795 26.966 12.101 49.43 11.857 22.43-.244 32.959-6.023 40.945-11.857 1.738-1.269 3.04-3.123 3.865-6.022 7.765-27.269 44.328-119.503-13.764-119.503zm35.163 33.164c0-19.421-15.744-35.164-35.164-35.164H35.55c-19.42 0-35.163 15.743-35.163 35.164-.485 28.259 5.235 59.519 13.028 86.886.925 3.249 2.45 5.513 4.609 7.09 9.773 7.139 27.918 14.021 50.633 13.774 22.683-.247 40.117-7.613 48.55-13.774 2.159-1.577 3.684-3.841 4.609-7.09 7.876-27.659 13.864-58.279 13.028-86.886z" fill="#110545"/><path fill-rule="evenodd" clip-rule="evenodd" d="M106.054 124.918h8.686c2.277 1.925 2 6.004-.318 7.774-3.729 4.902-23.253 8.64-46.778 8.64-23.547 0-43.085-3.745-46.789-8.653-2.69-2.038-1.997-6.332-.332-7.761h8.71c8.617-2.592 22.612-4.277 38.41-4.277 15.8 0 29.794 1.685 38.411 4.277z" fill="#fff"/><path fill-rule="evenodd" clip-rule="evenodd" d="M105.76 126.918l-.282-.085c-8.355-2.513-22.132-4.192-37.834-4.192-15.702 0-29.48 1.679-37.835 4.192l-.282.085h-8.05a4 4 0 00-.422 1.712c-.032 1.058.319 1.933 1.008 2.455l.221.168.168.222c.567.751 2.02 1.741 4.68 2.759 2.569.983 5.967 1.884 10.044 2.646 8.144 1.522 18.788 2.452 30.468 2.452 11.668 0 22.304-.928 30.446-2.448 4.074-.76 7.473-1.66 10.045-2.642 2.66-1.016 4.121-2.006 4.695-2.76l.164-.215.214-.164c.606-.463 1.048-1.329 1.099-2.34.036-.727-.136-1.367-.446-1.845h-8.101zm8.98-2c1.229 1.039 1.714 2.707 1.535 4.3-.545 4.853-6.94 7.003-10.797 8.217-8.657 2.724-22.383 4.67-37.834 4.67-18.218 0-34.036-2.704-41.978-6.201-2.764-1.217-6.337-3.316-6.596-6.686-.133-1.732.502-3.484 1.453-4.3h8.71c8.617-2.592 22.612-4.277 38.41-4.277 15.8 0 29.794 1.685 38.411 4.277h8.686z" fill="#110545"/><path d="M115.1 123.561c0 5.714-21.23 10.346-47.42 10.346s-47.42-4.632-47.42-10.346c0-5.713 21.23-10.345 47.42-10.345s47.42 4.632 47.42 10.345z" fill="#fff"/><path fill-rule="evenodd" clip-rule="evenodd" d="M112.678 124.278c.408-.435.422-.667.422-.717 0-.049-.014-.281-.422-.716-.417-.445-1.131-.971-2.221-1.533-2.175-1.122-5.454-2.192-9.672-3.112-8.404-1.833-20.11-2.984-33.105-2.984-12.996 0-24.701 1.151-33.105 2.984-4.218.92-7.497 1.99-9.672 3.112-1.09.562-1.804 1.088-2.221 1.533-.408.435-.422.667-.422.716 0 .05.014.282.422.717.417.445 1.13.971 2.221 1.533 2.175 1.122 5.454 2.191 9.672 3.112 8.404 1.833 20.11 2.984 33.105 2.984 12.996 0 24.7-1.151 33.105-2.984 4.218-.921 7.497-1.99 9.672-3.112 1.09-.562 1.804-1.088 2.221-1.533zM67.68 134.402c26.19 0 47.42-5.127 47.42-10.841 0-5.713-21.23-10.345-47.42-10.345s-47.42 4.632-47.42 10.345c0 5.714 21.23 10.841 47.42 10.841z" fill="#110545"/><path d="M119.593 102.758H15.628c-2.479 3.333-3.43 11.873-.498 16.937.266.461.576.941.914 1.349 3.867 4.682 25.436 8.266 51.463 8.266 25.295 0 46.379-3.385 51.095-7.874.876-.833 1.527-1.711 1.994-2.868 1.905-4.713 1.788-12.566-1.003-15.81z" fill="#fff"/><path fill-rule="evenodd" clip-rule="evenodd" d="M16.742 104.758c-.695 1.365-1.256 3.492-1.395 5.933-.168 2.959.312 5.927 1.513 8.002a8.2 8.2 0 00.725 1.077c.577.698 2.157 1.658 5.106 2.644 2.833.948 6.59 1.814 11.095 2.545 9 1.46 20.788 2.351 33.721 2.351 12.568 0 24.057-.842 32.957-2.23 4.452-.694 8.216-1.52 11.126-2.429 2.988-.934 4.808-1.878 5.634-2.664.705-.671 1.175-1.319 1.518-2.168.823-2.036 1.245-4.879 1.116-7.613-.109-2.307-.595-4.221-1.298-5.448H16.743zm102.851-2H15.628c-2.479 3.333-3.43 11.873-.498 16.937.266.461.576.941.914 1.349 3.867 4.682 24.976 9.021 51.003 9.021 25.296 0 46.839-4.14 51.555-8.629.876-.833 1.527-1.711 1.994-2.868 1.905-4.713 1.788-12.566-1.003-15.81z" fill="#110545"/><path d="M120.226 104.504c0 7.355-23.526 13.318-52.548 13.318-29.02 0-52.547-5.963-52.547-13.318 0-7.355 23.526-13.318 52.547-13.318 29.022 0 52.548 5.963 52.548 13.318z" fill="#fff"/><path fill-rule="evenodd" clip-rule="evenodd" d="M115.068 107.972c2.547-1.526 3.158-2.759 3.158-3.468 0-.708-.611-1.942-3.158-3.468-2.42-1.45-6.056-2.827-10.724-4.01-9.307-2.359-22.27-3.84-36.666-3.84-14.394 0-27.358 1.481-36.665 3.84-4.669 1.183-8.304 2.56-10.725 4.01-2.547 1.526-3.157 2.76-3.157 3.468 0 .709.61 1.942 3.157 3.468 2.42 1.451 6.056 2.827 10.725 4.01 9.307 2.359 22.27 3.84 36.665 3.84s27.36-1.481 36.666-3.84c4.668-1.183 8.304-2.559 10.724-4.01zm-47.39 11.152c29.022 0 52.548-7.265 52.548-14.62 0-7.355-23.526-13.318-52.548-13.318-29.02 0-52.547 5.963-52.547 13.318 0 7.355 23.526 14.62 52.547 14.62z" fill="#110545"/><path d="M111.376 104.337c0 4.935-19.564 8.934-43.699 8.934-24.134 0-43.699-3.999-43.699-8.934 0-4.934 19.565-8.934 43.7-8.934 24.134 0 43.698 4 43.698 8.934z" fill="#fff"/><path fill-rule="evenodd" clip-rule="evenodd" d="M109.379 104.307l-.002.01a.065.065 0 01.002-.01zm-.009.03c-.022-.054-.091-.182-.295-.385-.362-.362-1.001-.807-2.003-1.291-1.994-.964-5.009-1.887-8.895-2.681-7.74-1.583-18.525-2.577-30.5-2.577-11.974 0-22.758.994-30.499 2.576-3.886.795-6.9 1.718-8.895 2.682-1.002.484-1.64.929-2.003 1.291-.204.203-.273.331-.295.385.022.055.091.182.295.386.362.362 1.001.807 2.003 1.291 1.994.964 5.008 1.887 8.895 2.681 7.74 1.583 18.525 2.576 30.5 2.576 11.974 0 22.758-.993 30.499-2.576 3.886-.794 6.901-1.717 8.895-2.681 1.002-.484 1.641-.929 2.003-1.291.204-.204.273-.331.295-.386zm-83.395-.03s.002.003.002.01a.054.054 0 01-.002-.01zm0 .061l.002-.01c0 .007-.002.01-.002.01zm83.402-.01l.002.01-.002-.01zm-41.7 9.392c24.135 0 43.699-4.478 43.699-9.413 0-4.934-19.564-8.934-43.699-8.934-24.134 0-43.699 4-43.699 8.934 0 4.935 19.565 9.413 43.7 9.413z" fill="#110545"/><path d="M26.387 145.5c-1.516 2.772-2.48 13.337-2.774 18.273-3.923 1.917-15.805 7.006-16.702 11.103-.468 2.135 2.907 3.971 6.686 5.874 3.78 1.903 9.744 4.497 11.115 5.757 1.372 1.261 1.127 4.051 2.853 10.47 1.727 6.419 2.451 10.533 4.674 10.928 2.358.418 2.983-1.361 5.66-3.748 2.68-2.388 8.54-10.556 8.971-11.432.432-.877 1.458-.478 3.37.039 1.911.517 13.346 1.729 14.842.326 2.397-2.247-3.311-13.26-5.721-17.105-2.41-3.846-1.74-3.745-.201-8.006 1.165-3.226 3.592-9.45 1.703-11.785-1.888-2.332-10.238-.091-13.493.783l-.011.003c-3.247.871-4.71-3.322-8.712-6.912-5.454-4.895-10.366-8.033-12.26-4.568z" fill="#3852CE" stroke="#110545" stroke-width="2"/><path fill-rule="evenodd" clip-rule="evenodd" d="M28.193 143.074c-1.153.165-2.074.831-2.684 1.946-.455.834-.823 2.143-1.132 3.604-.316 1.493-.591 3.257-.827 5.073a155.423 155.423 0 00-.899 9.43c-.35.167-.746.354-1.178.557-2.112.995-5.094 2.399-7.838 3.953-1.808 1.025-3.559 2.139-4.927 3.277-1.323 1.102-2.472 2.373-2.773 3.748-.374 1.707.845 3.056 2.118 4.032 1.345 1.031 3.22 2.005 5.095 2.949 1.1.554 2.405 1.176 3.717 1.801.938.448 1.88.897 2.754 1.324a64.768 64.768 0 012.824 1.45c.814.452 1.348.8 1.593 1.026.405.372.65 1.034.99 2.757.06.31.123.647.192 1.01.29 1.548.674 3.592 1.382 6.226.234.87.452 1.708.66 2.505.543 2.088 1.013 3.898 1.515 5.296.35.973.742 1.836 1.24 2.497.51.678 1.174 1.199 2.05 1.355.724.128 1.379.097 1.995-.111.606-.203 1.104-.553 1.55-.945.384-.338.774-.748 1.172-1.168l.16-.168a26.63 26.63 0 011.623-1.594c1.425-1.27 3.616-3.989 5.46-6.426a125.61 125.61 0 002.456-3.357c.603-.857 1.09-1.581 1.264-1.911.035-.001.085 0 .156.007.343.035.782.156 1.447.34l.63.173c1.066.288 4.494.723 7.78.916 1.66.097 3.332.135 4.7.056.682-.039 1.317-.109 1.848-.225.485-.105 1.062-.283 1.46-.657.528-.495.763-1.166.849-1.822.086-.659.036-1.396-.09-2.153-.254-1.515-.85-3.301-1.575-5.084-1.453-3.577-3.511-7.343-4.742-9.307-1.23-1.963-1.467-2.635-1.43-3.257.02-.336.126-.725.363-1.361.079-.213.18-.472.295-.767.195-.498.43-1.098.665-1.75l.203-.56c.57-1.566 1.354-3.717 1.828-5.783.267-1.164.448-2.352.425-3.43-.022-1.063-.244-2.15-.917-2.981-.738-.912-1.97-1.241-3.134-1.351-1.212-.114-2.625-.014-4.023.181-2.79.387-5.734 1.177-7.356 1.612l-.027.007c-.567.153-1.017.086-1.464-.136-.487-.243-1-.687-1.612-1.356-.4-.437-.798-.917-1.24-1.45-.245-.294-.502-.605-.781-.934-.764-.899-1.639-1.873-2.688-2.814-2.733-2.453-5.423-4.555-7.723-5.587-1.149-.516-2.316-.819-3.4-.663zm2.58 2.488c1.993.894 4.485 2.808 7.207 5.25.952.854 1.76 1.751 2.498 2.62.242.286.483.576.72.862.466.562.92 1.108 1.351 1.579.659.719 1.372 1.385 2.196 1.795.867.431 1.817.562 2.873.278 1.63-.438 4.476-1.201 7.14-1.57 1.334-.186 2.571-.264 3.56-.171 1.039.098 1.56.363 1.768.618.272.337.454.904.472 1.765.017.846-.127 1.854-.376 2.941-.444 1.936-1.181 3.963-1.756 5.542l-.207.569c-.237.658-.436 1.165-.616 1.624-.119.303-.23.585-.337.875-.246.663-.446 1.288-.485 1.94-.08 1.354.553 2.554 1.733 4.437 1.179 1.882 3.18 5.545 4.584 8.998.703 1.731 1.236 3.36 1.454 4.662.109.651.13 1.173.08 1.562-.052.391-.163.556-.234.623.006-.005.005-.005-.006.001-.035.017-.175.088-.511.161-.388.085-.907.146-1.538.183-1.257.072-2.842.038-4.468-.057-3.282-.192-6.658-1.034-7.505-1.263l-.508-.14c-.697-.194-1.363-.379-1.893-.432-.352-.035-.77-.03-1.174.139-.44.183-.753.512-.953.917l-.024.045-.07.117c-.061.097-.141.221-.242.372-.2.302-.469.694-.791 1.153-2.882 4.094-5.834 8.462-9.712 11.701-.799.666-1.666 1.069-2.514.651-.835-.411-1.29-1.621-1.596-2.475-1.71-4.769-1.878-8.912-2.94-13.789-.36-1.655-.936-3.146-1.942-4.07-.44-.404-1.167-.853-1.975-1.302-4.352-2.416-9.686-3.961-13.67-7.014-2.2-1.686-1.139-3.109.718-4.655 4.671-3.887 9.188-4.511 14.45-7.082l.524-.257.035-.583c.145-2.451-1.023-7.152-.56-10.728.232-1.789.5-3.495.8-4.916.308-1.454.63-2.506.931-3.058.338-.617.742-.859 1.213-.926.541-.078 1.298.06 2.296.508z" fill="#110545"/><path d="M96.09 172.855c1.043 1.91 1.708 9.186 1.91 12.585 2.702 1.321 10.885 4.826 11.503 7.647.322 1.471-2.002 2.735-4.605 4.046-2.603 1.31-6.71 3.097-7.655 3.965-.945.868-.776 2.79-1.965 7.21-1.189 4.421-1.688 7.255-3.219 7.527-1.624.288-2.054-.937-3.898-2.581-1.845-1.645-5.881-7.27-6.179-7.874-.297-.604-1.003-.329-2.32.027-1.317.356-9.192 1.191-10.222.225-1.65-1.548 2.28-9.133 3.94-11.781 1.66-2.649 1.198-2.579.138-5.514-.802-2.222-2.474-6.509-1.172-8.116 1.3-1.606 7.05-.063 9.292.539l.008.002c2.236.6 3.244-2.288 6-4.761 3.756-3.371 7.14-5.532 8.444-3.146z" fill="#fff"/><path fill-rule="evenodd" clip-rule="evenodd" d="M94.89 170.876c.9.13 1.614.654 2.077 1.5.338.618.598 1.559.811 2.567.22 1.039.411 2.263.574 3.518.29 2.24.496 4.625.61 6.332l.635.3c1.455.685 3.527 1.661 5.429 2.738 1.251.709 2.476 1.487 3.438 2.289.919.764 1.784 1.697 2.016 2.754.301 1.374-.692 2.414-1.574 3.09-.954.731-2.272 1.415-3.558 2.062-.759.382-1.665.814-2.573 1.247-.646.308-1.293.616-1.887.907a43.28 43.28 0 00-1.931.991c-.562.312-.899.536-1.038.664-.19.175-.349.522-.586 1.729-.042.211-.085.441-.132.69a53.436 53.436 0 01-.958 4.314c-.158.591-.307 1.162-.45 1.708-.375 1.445-.705 2.713-1.055 3.69-.244.68-.528 1.309-.898 1.801-.384.51-.904.928-1.606 1.053-.542.096-1.046.075-1.528-.088-.472-.158-.85-.427-1.174-.712-.276-.243-.555-.537-.828-.824l-.11-.115c-.32-.337-.67-.698-1.1-1.081-1.007-.898-2.534-2.795-3.8-4.47a86.883 86.883 0 01-1.698-2.32 24.564 24.564 0 01-.787-1.168 5.293 5.293 0 00-.42.094c-.146.038-.292.078-.457.124a27.49 27.49 0 01-.41.113c-.767.207-3.156.508-5.42.641-1.148.067-2.314.094-3.273.039a8.748 8.748 0 01-1.321-.162c-.342-.074-.812-.211-1.153-.53-.434-.407-.615-.948-.68-1.441-.065-.496-.026-1.037.064-1.574.18-1.077.6-2.332 1.103-3.568 1.009-2.483 2.435-5.092 3.29-6.458.856-1.365.957-1.745.939-2.059-.011-.182-.07-.414-.231-.848-.05-.134-.118-.308-.197-.509-.136-.349-.304-.779-.466-1.227l-.139-.384c-.392-1.077-.939-2.577-1.27-4.021-.187-.813-.317-1.659-.301-2.438.016-.764.175-1.593.701-2.242.59-.729 1.548-.967 2.368-1.045.869-.082 1.867-.01 2.84.125 1.942.269 3.988.818 5.105 1.118l.024.006c.314.085.546.048.788-.072.284-.141.605-.412 1.02-.865.27-.296.537-.616.837-.979.17-.204.35-.421.547-.654a19.909 19.909 0 011.88-1.969c1.885-1.69 3.769-3.167 5.4-3.9.815-.365 1.683-.6 2.513-.481zm-1.694 2.306c-1.324.594-3.01 1.884-4.883 3.564a17.83 17.83 0 00-1.69 1.774c-.162.19-.325.387-.488.583-.324.39-.645.777-.947 1.107-.46.503-.983.996-1.603 1.305a3.025 3.025 0 01-2.199.213l-.008-.002c-1.127-.303-3.067-.822-4.877-1.073-.908-.126-1.731-.176-2.376-.114-.695.065-.943.237-1.002.311-.126.155-.245.464-.256 1.026-.012.546.082 1.213.25 1.949.302 1.313.803 2.691 1.199 3.78l.143.393c.164.455.296.791.417 1.101.082.208.16.405.238.617.172.461.323.928.353 1.426.062 1.047-.435 1.956-1.24 3.24-.804 1.283-2.174 3.79-3.132 6.149-.482 1.184-.839 2.281-.983 3.145-.073.432-.083.758-.054.984a.804.804 0 00.053.216c.037.013.107.036.222.061a6.79 6.79 0 001.01.119c.849.049 1.928.026 3.042-.039 2.26-.132 4.466-.426 5.016-.575.11-.029.22-.06.333-.092.481-.134.976-.272 1.37-.311.266-.027.613-.027.96.118.382.159.65.444.815.781-.004-.008.007.014.051.085l.16.249c.136.204.32.472.541.787.442.628 1.026 1.43 1.657 2.265 1.287 1.7 2.102 2.964 2.939 3.711.711.634 1.313 1.382 2.027 2.01 1.087.956 1.68-.331 2.003-1.228 1.164-3.244 1.852-6.74 2.515-10.111.211-1.076.441-2.124 1.195-2.817.334-.306.865-.631 1.42-.939 3.143-1.745 6.831-2.845 9.703-5.046 1.34-1.027.636-1.771-.504-2.72-.83-.691-1.936-1.401-3.145-2.085-1.827-1.036-3.185-1.484-4.637-2.168a97.26 97.26 0 01-1.243-.592l-.525-.256-.034-.583c-.1-1.683-.315-4.328-.633-6.782a44.555 44.555 0 00-.547-3.362c-.212-1-.426-1.684-.61-2.021-.19-.347-.388-.447-.606-.479-.289-.041-.746.028-1.41.326z" fill="#110545"/><path d="M104.42 149.202c.627-2.251 3.474-2.953 5.075-1.251l3.135 3.33a2.999 2.999 0 002.312.942l4.57-.196c2.335-.099 3.882 2.391 2.758 4.44l-2.199 4.01a3 3 0 00-.18 2.491l1.597 4.285c.817 2.19-1.074 4.431-3.37 3.995l-4.493-.852a3 3 0 00-2.424.598l-3.582 2.844c-1.831 1.453-4.546.348-4.841-1.971l-.579-4.536a3 3 0 00-1.317-2.121l-3.812-2.528c-1.947-1.292-1.735-4.216.378-5.213l4.136-1.952a3 3 0 001.61-1.909l1.226-4.406z" fill="#110545"/><path d="M95.852 220.163c2.012-1.189 4.551.277 4.527 2.614l-.084 8.074a5.002 5.002 0 001.693 3.802l6.056 5.34c1.753 1.546 1.143 4.414-1.087 5.113l-7.704 2.415a5 5 0 00-3.093 2.785l-3.208 7.41c-.928 2.145-3.844 2.451-5.198.546l-4.678-6.581a5.002 5.002 0 00-3.604-2.081l-8.039-.761c-2.327-.22-3.52-2.898-2.126-4.775l4.813-6.482a5.001 5.001 0 00.866-4.071l-1.76-7.88c-.51-2.281 1.668-4.243 3.884-3.498l7.653 2.575a5.003 5.003 0 004.138-.435l6.951-4.11z" fill="#fff" stroke="#110545" stroke-width="2"/><path d="M33.793 214.219c.252-2.474 3.232-3.584 5.042-1.879l6.156 5.8a3 3 0 002.69.749l8.268-1.783c2.43-.524 4.407 1.966 3.344 4.215l-3.614 7.647a2.999 2.999 0 00.12 2.789l4.25 7.313c1.25 2.15-.508 4.799-2.975 4.483l-8.39-1.074a3 3 0 00-2.616.975l-5.64 6.303c-1.66 1.852-4.722.999-5.184-1.444l-1.571-8.311a3 3 0 00-1.736-2.187l-7.737-3.417c-2.274-1.005-2.41-4.182-.229-5.376l7.419-4.062a3.002 3.002 0 001.544-2.327l.859-8.414z" fill="#110545"/><path d="M167.385 246.992c-10.515 21.315-33.639 31.08-51.516 22.261-17.876-8.818-24.199-33.11-13.684-54.425 10.515-21.315 33.639-31.08 51.516-22.261 17.876 8.819 24.199 33.111 13.684 54.425z" fill="#110545" stroke="#110545" stroke-width="2"/><path d="M174.789 249.702c-10.515 21.315-33.639 31.08-51.515 22.261-17.877-8.818-24.2-33.11-13.684-54.425 10.515-21.315 33.638-31.08 51.515-22.261 17.876 8.819 24.199 33.111 13.684 54.425z" fill="#3852CE" stroke="#110545" stroke-width="2"/><path fill-rule="evenodd" clip-rule="evenodd" d="M158.095 228.84l-15.579 22.963-15.536-8.989.001-8.675 14.083 7.802 17.031-24.673v11.572z" fill="#fff"/><path fill-rule="evenodd" clip-rule="evenodd" d="M176.381 76.635c.933.915 2.333 3.797.462 8.006-4.047 9.105-20.996 13.423-22.701 6.658-1.183.165-4.535.106-8.481-1.458-3.701-1.466-6.169-3.94-8.225-5.999-.684-.685-1.323-1.325-1.945-1.866-2.496-2.17-5.946-2.828-9.4-3.224-1.101-.127-2.197-.114-3.253-.102-2.256.027-4.332.051-5.9-1.287-1.842-1.572-2.377-4.363-1.289-5.407-.294-.334-.995-1.545-1.114-2.719-.119-1.168-.189-2.199 2.003-5.525 2.191-3.326 4.545-5.324 4.085-9.597-.461-4.272 3.31-4.292 5.638-3.931 1.862.288 6.138-.2 8.043-.48-.267-.413-1.475-1.417-4.171-2.131-1.441-.382-2.172-.36-3.076-.334-1.211.035-2.731.08-6.682-.825-6.899-1.578-9.404-5.764-10.611-8.629-.965-2.292 1.862-4.322 3.397-5.05-.264-.762-.642-2.777-.038-4.74.754-2.456 6.201-2.25 14.157-1.71 6.364.432 13.825 4.012 16.76 5.749 2.453.082 7.774.512 9.441 1.574.731.466 1.525 1.061 2.416 1.73 1.651 1.236 3.636 2.724 6.174 4.106 3.909 2.128 6.405 4.297 11.723 16.101 4.254 9.443 3.497 17.995 2.587 21.09zm-48.856-10.063c1.195-2.808 2.092-3.848 3.421-7.077l6.906.793c-.082 1.43-.016 4.844.908 7.052.923 2.207 3.756 5.723 4.811 6.902-6.256-.395-12.822-4.48-16.046-7.67z" fill="#110545" stroke="#fff" stroke-width="1.5" stroke-linecap="round" stroke-linejoin="round"/><path d="M176.382 76.636c.934.915 2.334 3.796.463 8.005-4.048 9.105-20.996 13.424-22.702 6.659" stroke="#fff" stroke-width="2" stroke-linecap="round" stroke-linejoin="round"/><path d="M167.586 80.566c3.179.915 9.535.354 9.533-9.206-.003-11.95-6.405-27.342-13.863-31.594-7.458-4.252-7.328-3.85-9.71-6.005-2.382-2.155-9.861-.886-16.462-2.437-6.601-1.55-10.55-1.479-7.998 5.639 2.552 7.117 16.517 8.518 19.717 8.546 3.201.028 3.714-.688 5.43 1.327 1.373 1.613 2.847 2.879 3.412 3.31" stroke="#fff" stroke-width="1.5" stroke-linecap="round" stroke-linejoin="round"/><path d="M143.375 31.698c-3.178-1.565-10.925-4.746-16.493-4.944-6.96-.247-12.632-1.39-13.858 1.667-1.227 3.057 2.248 8.261 5.918 9.52 2.937 1.008 8.292 1.477 10.602 1.586m25.39 9.423c-4.282-1.048-11.744.964-14.487 6.622" stroke="#fff" stroke-width="1.5" stroke-linecap="round" stroke-linejoin="round"/><path d="M144.348 45.497l3.572 3.365" stroke="#fff" stroke-width="2" stroke-linecap="round" stroke-linejoin="round"/><path d="M159.285 54.988c-.114 1.893.04 6.595 1.566 10.257 1.525 3.661 4.265 7.407 5.444 8.822m-53.393-40.872c-2.106.942-4.868 3.647-.511 7.995 5.389 5.377 9.786 6.194 13.899 5.882a13 13 0 019.473 3.07c1.652 1.423 3.048 3.353 3.444 3.845" stroke="#fff" stroke-width="1.5" stroke-linecap="round" stroke-linejoin="round"/><path d="M133.401 49.856c-2.678.27-8.716.277-9.888.16-1.465-.146-3.196 1.564-3.516 5.849-.356 4.769-3.578 7.962-4.823 10.031-1.245 2.07-.838 4.79.3 5.894 1.137 1.104 5.885 4.159 9.351-1.786 2.772-4.755 6.077-8.7 6.093-10.567l6.716.698c.068 1.361.391 4.735 1.136 7.345.746 2.61 2.446 3.655 4.428 6.353" stroke="#fff" stroke-width="1.5" stroke-linecap="round" stroke-linejoin="round"/><path d="M156.859 70.118c-1.298-.98-4.796-2.287-8.404.328-4.51 3.268-3.649 5.436-11.039 2.544-5.912-2.313-9.135-5.78-9.442-6.36" stroke="#fff" stroke-width="1.5" stroke-linecap="round" stroke-linejoin="round"/><path fill-rule="evenodd" clip-rule="evenodd" d="M161.892 85.605a.75.75 0 01.241 1.033c-.792 1.275-3.195 4.012-6.666 4.968-2.205.607-5.356.346-8.276-.473-2.917-.818-5.805-2.25-7.399-4.168-2.856-3.436-7.254-6.777-11.493-7.064-.705-.047-1.566-.048-2.533-.05-.555 0-1.144 0-1.76-.01-1.645-.026-3.428-.116-4.953-.472-1.497-.35-2.94-1-3.641-2.304-.717-1.335-.508-3.062.593-5.19.191-.368.532-.073.9.118.367.19.623.204.433.572-1.016 1.96-.972 3.106-.605 3.79.384.715 1.275 1.23 2.661 1.553 1.358.317 3.004.407 4.635.433.556.008 1.117.01 1.661.01 1.009.002 1.959.003 2.71.054 4.852.328 9.595 4.052 12.546 7.601 1.309 1.575 3.852 2.898 6.65 3.683 2.794.784 5.64.975 7.473.47 2.988-.823 5.121-3.236 5.79-4.313a.75.75 0 011.033-.241z" fill="#fff"/><path d="M172.439 90.834c.232 20.842-10.504 43.34-24.711 58.346m14.411-54.57c.027 4.36-1.821 15.507-9.432 25.216-7.611 9.71-14.524 16.597-17.029 18.826" stroke="#110545" stroke-width="2" stroke-linecap="round" stroke-linejoin="round"/><mask id="a" style="mask-type:alpha" maskUnits="userSpaceOnUse" x="26" y="27" width="98" height="85"><path d="M42.32 73.394c-.118-2.24-20.863-17.805-13.585-25.417H65.95l20.097-19.3 13.945 14.78 20.059 21.75 2.622 17.932-16.817 23.674c-2.204 1.028-9.04 2.372-19.81 3.654-9.094 1.083-42.757.874-48.112.001-6.197-11.257 4.505-34.832 4.386-37.074z" fill="#D9D9D9" stroke="#000"/></mask><g mask="url(#a)"><path d="M96.572 41.342c1.967 3.599 3.22 17.316 3.601 23.725 5.093 2.489 20.52 9.096 21.685 14.415.607 2.772-3.774 5.156-8.681 7.626-4.907 2.47-12.65 5.839-14.431 7.476-1.782 1.637-1.463 5.258-3.705 13.592-2.241 8.335-3.182 13.677-6.067 14.189-3.062.543-3.873-1.766-7.35-4.866-3.478-3.1-11.086-13.705-11.647-14.843-.561-1.138-1.892-.62-4.374.051-2.482.671-17.329 2.245-19.271.423-3.112-2.917 4.3-17.215 7.428-22.209 3.13-4.993 2.259-4.861.26-10.393-1.512-4.19-4.663-12.27-2.21-15.302 2.45-3.027 13.291-.117 17.518 1.017l.015.004c6.178-5.07 12.551-11.271 19.496-15.237 3.495-1.996 6.289-2.31 7.733.332z" fill="#3852CE"/><path fill-rule="evenodd" clip-rule="evenodd" d="M86.49 40.221c2.398-1.617 5.348-2.921 8.16-1.846 2.337.894 3.43 3.182 4.017 5.343.435 1.6.648 3.365.819 4.782.06.501.115.959.173 1.35.289 1.952.372 4.035.452 6.064.016.401.032.8.05 1.196.014.322.011.762.008 1.239l-.001.272a40.92 40.92 0 00.026 1.948c.058 1.414.232 2.682.61 3.418.122.238.333.432.697.632.184.101.389.195.625.297l.165.07c.185.08.389.167.581.257 1.323.623 2.899 1.365 4.572 2.191a113.65 113.65 0 015.251 2.747 58.888 58.888 0 014.199 2.568l.173.117c.93.63 2.385 1.613 3.587 2.788.794.776 1.547 1.699 1.951 2.732.147.376.248.767.288 1.167a3.816 3.816 0 01-.487 2.285c-.529.947-1.425 1.787-2.455 2.546-1.043.768-2.304 1.51-3.646 2.233-2.253 1.213-4.554 2.316-6.838 3.402l-.538.256c-2.027.963-4.036 1.917-6.01 2.939-1.65.854-2.672 1.515-3.386 2.35-.695.812-1.17 1.874-1.52 3.67-.069.358-.14.74-.217 1.148-.377 2.01-.873 4.647-1.789 8.054-.306 1.139-.59 2.232-.86 3.27-.704 2.704-1.31 5.034-1.956 6.835-.45 1.254-.949 2.341-1.568 3.164-.632.84-1.434 1.459-2.474 1.644-.901.16-1.699.119-2.445-.132-.734-.247-1.346-.673-1.91-1.168-.487-.429-.983-.951-1.502-1.499l-.208-.218a35.2 35.2 0 00-2.126-2.087c-1.383-1.233-3.329-3.532-5.21-5.919a161.054 161.054 0 01-5.495-7.41c-.573-.829-1.02-1.508-1.173-1.818a.45.45 0 00-.038-.066l-.015-.017-.018-.007c-.067-.021-.243-.043-.636.022-1.09.18-2.148.383-3.219.587-.595.114-1.194.229-1.804.341-1.635.3-3.305.57-5.044.716-2.074.174-4.291.298-6.27.305-1.4.005-2.706-.048-3.766-.19a8.872 8.872 0 01-1.448-.302c-.406-.127-.843-.317-1.174-.627-.712-.668-.985-1.621-1.048-2.576-.064-.967.076-2.079.336-3.245.18-.806.421-1.66.708-2.536a44.352 44.352 0 011.803-4.625 48.674 48.674 0 013.525-6.38c.934-1.435 1.864-2.877 2.585-4.292.724-1.422 1.19-2.732 1.258-3.896.03-.511-.083-1.046-.39-1.906a48.632 48.632 0 00-.573-1.5 80.552 80.552 0 01-.771-2.037l-.265-.729c-.741-2.035-1.752-4.809-2.362-7.472-.344-1.5-.574-3.015-.546-4.38.028-1.35.311-2.684 1.125-3.689 1.005-1.242 2.78-1.485 4.44-1.446 1.74.04 3.784.408 5.76.811.555.114 1.103.23 1.642.344 1.027.217 2.018.427 2.954.597 1.286.234 2.365.372 3.176.357 3.056-2.184 5.91-4.827 8.712-7.422.894-.828 1.783-1.651 2.672-2.453.282-.255.597-.547.938-.864 1.383-1.285 3.21-2.981 5.163-4.3zm-3.745 5.713c-.36.334-.699.65-1.016.935a285.16 285.16 0 00-2.584 2.373c-2.893 2.68-5.96 5.521-9.226 7.822l-.23.161-.278.02c-1.105.075-2.497-.112-3.94-.374-.963-.175-2.004-.396-3.05-.617-.532-.112-1.065-.225-1.589-.332-1.978-.404-3.864-.736-5.406-.772-1.622-.038-2.482.265-2.838.705-.413.51-.656 1.324-.68 2.472-.024 1.134.169 2.47.495 3.892.581 2.533 1.546 5.183 2.29 7.23l.269.739c.273.758.526 1.41.752 1.988l.07.176c.196.503.376.962.525 1.38.332.931.558 1.775.503 2.697-.093 1.567-.7 3.167-1.473 4.684-.776 1.525-1.766 3.055-2.69 4.475a46.683 46.683 0 00-3.382 6.12c-1.28 2.81-2.88 6.292-2.671 9.444.085 1.283 1.087 1.726 2.273 1.856 5.164.562 10.834-.384 15.871-1.348 1.442-.276 3.39-1.019 4.862-.562 1.122.348 1.678 1.786 2.297 2.681 4.159 6.019 8.35 9.919 13.86 14.762 1.147 1.009 2.859 1.354 3.91-.044.439-.583.857-1.449 1.283-2.636.614-1.711 1.185-3.906 1.877-6.565.973-3.742 1.06-5.549 1.775-9.352.384-2.044.791-4.135 2.186-5.764.983-1.149 2.308-1.956 3.986-2.825 5.436-2.813 11.64-4.767 16.503-8.525 1.957-1.513 3.172-3.465.754-5.828-4.002-3.91-10.248-6.369-15.366-8.72-1.842-.846-3.598-.846-4.653-2.698-.703-1.233-.82-2.833-.878-4.264-.224-5.401 1.033-11.809-.399-17.077-.549-2.02-1.406-3.466-2.801-4-1.822-.697-4.007.07-6.327 1.636-1.81 1.222-3.483 2.774-4.864 4.055z" fill="#000"/></g><mask id="b" style="mask-type:alpha" maskUnits="userSpaceOnUse" x="61" y="63" width="15" height="16"><circle cx="68.558" cy="70.989" r="7.23" fill="#D9D9D9"/></mask><g mask="url(#b)"><circle cx="68.558" cy="70.989" r="7.23" fill="#fff"/><circle cx="71.278" cy="68.9" r="6.497" fill="#110545"/><path d="M69.46 66.383c2 .17 3.605 1.724 3.854 3.7" stroke="#fff" stroke-linecap="round"/></g><mask id="c" style="mask-type:alpha" maskUnits="userSpaceOnUse" x="82" y="70" width="16" height="15"><circle cx="90.212" cy="77.311" r="7.23" fill="#D9D9D9"/></mask><g mask="url(#c)"><circle cx="90.212" cy="77.311" r="7.23" fill="#fff"/><circle cx="92.932" cy="75.221" r="6.497" fill="#110545"/><path d="M91.115 72.704c2 .17 3.604 1.724 3.853 3.7" stroke="#fff" stroke-linecap="round"/></g><path d="M72.06 85.412l-.112.33a3.746 3.746 0 002.336 4.754v0a3.746 3.746 0 004.754-2.336l.113-.33" stroke="#fff" stroke-width="2" stroke-linecap="round"/><path d="M27.696 79.098a1.01 1.01 0 00-.11.029L4.378 86.565a5.53 5.53 0 01-.43-.958 18.7 18.7 0 01-.66-2.402m24.41-4.107l-24.41 4.103a.17.17 0 010 .004m24.41-4.107a.747.747 0 00.591-.848c-.004.001-.057-.107-.276-.319a5.984 5.984 0 00-.948-.721 6.284 6.284 0 00-1.075-.549 2.032 2.032 0 00-.432-.121c-.022-.004-.022-.004-.003-.008l-.005.001-21.01 4.073c-.018.013-.093.064-.219.212a4.48 4.48 0 00-.551.863 5.602 5.602 0 00-.4 1.017 2.525 2.525 0 00-.076.38c-.01.088-.005.127-.005.127s0 0 0 0m24.408-4.107L3.288 83.205m20.444-37.458c2.332 1.593 4.839 2.939 6.895 3.563 1.034.314 1.872.42 2.484.342.575-.073.879-.29 1.056-.616.181-.33.197-.673.002-1.135-.212-.504-.66-1.094-1.344-1.769-1.04-1.026-2.429-2.065-3.883-3.155-.474-.355-.956-.715-1.434-1.082-3.97-3.044-7.453-6.03-10.013-8.268-1.022.554-1.481 1.193-1.65 1.81-.21.762-.052 1.747.565 2.946 1.24 2.406 4.063 5.137 7.322 7.364zm62.085-20.86c.065-2.532.806-5.789 1.878-8.916.242-.707.48-1.414.716-2.113.51-1.515 1.01-2.998 1.52-4.388.747-2.034 1.49-3.784 2.268-5.046.811-1.317 1.498-1.831 2.027-1.906.41-.057 1.093.115 2.096 1.228-.343.888-.558 1.872-.713 2.89-.169 1.105-.275 2.309-.383 3.53l-.044.498c-.251 2.824-.567 5.765-1.666 8.477-.262.647-.517 1.297-.769 1.94-.775 1.978-1.52 3.878-2.357 5.378-.551.987-1.089 1.697-1.616 2.113-.492.387-.933.496-1.42.381l-1.537-4.066zm0 0c-.032 1.272.109 2.275.4 2.97m-.4-2.97l.4 2.97m0 0c.276.661.652.982 1.137 1.096l-1.137-1.095zM53.268 8.523a.967.967 0 01-.045.016c-.738.24-1.456.814-1.95 1.452-.244.315-.405.61-.487.84a.855.855 0 00-.06.249.991.991 0 01.044.194c.232 1.912 1.569 7.467 3.676 12.21 1.056 2.377 2.264 4.455 3.558 5.772 1.271 1.294 2.428 1.683 3.565 1.27a.682.682 0 00.09-.137c.09-.167.175-.416.235-.723.125-.654.079-1.26-.006-1.483l-.007-.018-6.615-18.522-.023-.059c-.198-.523-.332-.877-.574-1.094a.63.63 0 00-.376-.162c-.193-.022-.517.002-1.025.195z" fill="#110545" stroke="#110545" stroke-width="2" stroke-linecap="round" stroke-linejoin="round"/></svg>