<svg width="228" height="230" viewBox="0 0 228 230" fill="none" xmlns="http://www.w3.org/2000/svg"><path fill-rule="evenodd" clip-rule="evenodd" d="M61.435 87.851c-21.907 32.864-38.76 94.607-1.675 125.37l-4.933-1.165c-36.026-32.593-16.223-90.729 6.208-124.378l.4.173z" fill="#110545"/><path fill-rule="evenodd" clip-rule="evenodd" d="M61.139 87.712c-17.952 11.823-31.475 32.017-39.077 51.978-6.525 17.13-6.469 33.225-1.505 44.604l.369.846-1.692.737-.369-.845c-5.204-11.931-5.176-28.542 1.472-45.999 7.74-20.321 22.529-39.856 40.802-51.89v.569zm51.472-4.209c-16.69-2.496-33.567-1.456-49.619 3.518v-.504c16.317-5.056 32.929-7.377 49.892-4.839 14.603 2.185 24.479 6.443 31.477 11.236 5.887 4.03 8.972 6.844 13.135 12.568v3.496c-4.039-5.554-8.466-10.63-14.177-14.542-6.736-4.613-16.34-8.783-30.708-10.933z" fill="#110545"/><path fill-rule="evenodd" clip-rule="evenodd" d="M96.534 58.536c-13.918 3.014-26.569 16.094-33.75 27.79 18.145-11.377 41.646-21.356 63.453-17.052l1.081.238-.317 1.572-.905-.179c-22.944-4.528-43.35 3.549-63.527 15.995-.128-.138-.192-.138-.317-.212 7.135-14.454 20.581-26.725 32.723-29.354l1.559 1.202zM61.19 87.566C47.413 91.049 32.943 99 22.806 109.138c-10.004 10.003-17.313 20.989-18.139 35.433l-1.09-2.393c.852-14.905 7.597-24.019 17.924-34.345C31.874 97.46 47.09 90.627 61.19 87.063v.503z" fill="#110545"/><path fill-rule="evenodd" clip-rule="evenodd" d="M61.384 87.086c-19.793.281-38.875 7.718-52.466 22.703v-2.202c13.933-15.361 32.228-20.464 52.529-20.752l-.063.251z" fill="#110545"/><path fill-rule="evenodd" clip-rule="evenodd" d="M61.508 86.78l-.155.327c-10.481-6.167-23.389-7.44-35.365-4.645l.429-1.775c12.433-2.901 24.204-.313 35.09 6.092zM46.025 65.999c6.912 5.99 11.148 12.944 15.944 20.657l-.364.18c-4.736-7.617-10.652-14.104-17.478-20.02L46.025 66z" fill="#110545"/><path fill-rule="evenodd" clip-rule="evenodd" d="M70.321 58.647c-6.348 7.618-7.27 18.6-8.031 28.06h-.407c.55-9.506.761-20.47 6.495-28.326l1.943.266zm-8.039 28.899c28.026 46.089 49.082 75.236 57.959 120.968l-3.426 1.414c-6.935-36.984-28.085-78.684-54.96-122.113l.427-.27zm-.582.292c-1.41 35.302.147 105.148 35.51 128.427l-3.057.739c-35.951-21.395-36.093-92.38-32.908-129.166h.454zm1.208-.836c27.342 12.3 96.351 54.384 83.161 99.382l-2.567 2.106c12.035-41.061-54.55-90.486-80.992-101.127l.398-.361z" fill="#110545"/><path fill-rule="evenodd" clip-rule="evenodd" d="M62.56 86.598c29.035 3.11 56.432 13.206 79.339 31.531 11.012 8.81 19.164 18.657 20.545 32.745l-1.493 4.554c-1.333-13.597-9.579-27.357-20.205-35.858-22.633-18.106-49.5-29.388-78.185-32.46v-.512z" fill="#110545"/><path fill-rule="evenodd" clip-rule="evenodd" d="M23.468 87.861c-5.535 9.647-6.073 20.274-2.12 29.547 3.951 9.273 12.528 15.611 23.32 18.299 10.792 2.689 23.745 1.706 36.28-3.636 12.535-5.343 22.214-14.005 27.749-23.652 5.534-9.647 6.902-20.224 2.951-29.496-3.952-9.273-12.71-16.632-23.502-19.32-10.793-2.689-23.564-.685-36.099 4.657-12.535 5.342-23.044 13.954-28.579 23.601zm-.77-.867c5.752-10.027 15.918-17.91 28.788-23.395 12.87-5.484 26.07-7.56 37.287-4.766 11.218 2.794 20.344 9.445 24.572 19.366 4.229 9.922 2.706 21.11-3.047 31.138-5.753 10.027-15.757 18.946-28.627 24.431-12.87 5.485-26.232 6.524-37.449 3.73-11.218-2.795-20.344-9.445-24.572-19.366-4.229-9.922-2.706-21.11 3.047-31.138z" fill="#110545"/><path d="M163.366 137.204c0 44.064-35.72 79.784-79.784 79.784-44.063 0-79.783-35.72-79.783-79.784 0-44.063 35.72-79.783 79.783-79.783 44.064 0 79.784 35.72 79.784 79.783z" stroke="#110545" stroke-width="2" stroke-linecap="square" stroke-linejoin="round"/><path fill-rule="evenodd" clip-rule="evenodd" d="M158.079 168.117c-10.203 17.574-25.681 31.628-44.425 39.616-18.658 7.953-39.357 9.791-59.067 5l.436-1.794c19.325 4.698 39.614 2.894 57.908-4.903 18.379-7.833 33.548-21.615 43.552-38.845l1.596.926z" fill="#110545"/><path fill-rule="evenodd" clip-rule="evenodd" d="M160.691 115.765c.322 34.043-24.505 62.361-54.51 75.149-29.282 12.48-66.12 11.725-90.706-10.362l.544-1.011c24.052 21.607 60.403 21.088 89.024 8.89 29.317-12.494 54.944-39.371 54.629-72.666h1.019z" fill="#110545"/><path fill-rule="evenodd" clip-rule="evenodd" d="M129.84 72.08c15.597 16.03 16.939 37.342 5.609 57.012-8.181 14.203-22.404 26.864-40.708 34.665-18.303 7.801-37.286 9.292-53.198 5.357-15.912-3.935-28.807-13.319-34.766-27.299-1.878-4.409-2.876-9.039-3.298-13.797h.697c3.828 43.12 58.725 46.638 89.769 33.407 27.684-11.799 58.016-43.165 44.194-75.596-2.112-4.955-5.223-9.266-8.963-13.11l.664-.638z" fill="#110545"/><path fill-rule="evenodd" clip-rule="evenodd" d="M45.474 96.302c1.414 3.32 4.975 5.557 8.978 6.533 4.004.977 8.847.602 13.56-1.406 4.712-2.009 8.336-5.243 10.404-8.807 2.069-3.564 2.73-7.64 1.314-10.96-3.594-8.433-15.021-9.174-22.542-5.969-7.649 3.26-15.405 11.949-11.715 20.609zm0-11.715c2.287-3.94 6.234-7.428 11.277-9.578 5.044-2.15 10.293-2.582 14.72-1.502 4.428 1.08 8.09 3.695 9.785 7.67 1.695 3.976 1.044 8.43-1.243 12.371-2.288 3.942-6.235 7.429-11.278 9.578-5.043 2.15-10.293 2.582-14.72 1.502-4.427-1.079-8.09-3.694-9.785-7.67-1.694-3.976-1.044-8.43 1.244-12.37z" fill="#110545"/><path d="M125.46 3.203a3 3 0 014.643 0l7.482 9.14a3 3 0 003.381.905l11.049-4.173a3 3 0 014.021 2.321l1.91 11.656a3.001 3.001 0 002.476 2.475l11.655 1.91a3 3 0 012.322 4.021l-4.174 11.05a3 3 0 00.906 3.38l9.139 7.483a3 3 0 010 4.643l-9.139 7.482a3 3 0 00-.906 3.381l4.174 11.05a3 3 0 01-2.322 4.02l-11.655 1.91a3.002 3.002 0 00-2.476 2.476l-1.91 11.656a3 3 0 01-4.021 2.321l-11.049-4.174a3 3 0 00-3.381.906l-7.482 9.139a3 3 0 01-4.643 0l-7.482-9.139a3 3 0 00-3.382-.906l-11.049 4.174a3 3 0 01-4.02-2.321l-1.91-11.656a3 3 0 00-2.476-2.475l-11.656-1.91a3 3 0 01-2.321-4.021l4.173-11.05a3 3 0 00-.906-3.381l-9.139-7.482a3 3 0 010-4.643l9.14-7.482a3 3 0 00.905-3.382l-4.173-11.049a3 3 0 012.321-4.02l11.656-1.91a3 3 0 002.475-2.476l1.91-11.656a3 3 0 014.021-2.321l11.049 4.173a3.001 3.001 0 003.382-.906l7.482-9.139z" fill="#3852CE"/><path d="M127.678 50.525c3.822 0 7.04 1.154 9.651 3.463 2.612 2.271 3.917 5.45 3.917 9.538s-1.381 7.286-4.144 9.595c-2.725 2.309-6.075 3.463-10.049 3.463-3.217 0-6.056-.72-8.516-2.157-2.46-1.439-4.239-3.558-5.336-6.36l6.699-3.916c.984 3.179 3.368 4.769 7.153 4.769 2.006 0 3.558-.474 4.656-1.42 1.135-.984 1.703-2.309 1.703-3.974 0-1.627-.549-2.933-1.647-3.917-1.097-.984-2.592-1.476-4.485-1.476h-12.036l1.59-22.085h22.539v7.324h-15.272l-.511 7.153h4.088z" fill="#fff"/><path d="M35.184 146.611c3.663 0 6.767-2.324 8.881-5.636 2.125-3.329 3.39-7.838 3.39-12.74 0-4.903-1.265-9.411-3.39-12.741-2.114-3.312-5.218-5.636-8.881-5.636-3.663 0-6.767 2.324-8.881 5.636-2.126 3.33-3.39 7.838-3.39 12.741 0 4.902 1.264 9.411 3.39 12.74 2.114 3.312 5.218 5.636 8.88 5.636zm46.311 3.626c4.067 0 7.536-2.58 9.915-6.307 2.39-3.744 3.819-8.825 3.819-14.359 0-5.535-1.43-10.616-3.82-14.36-2.378-3.727-5.847-6.307-9.914-6.307-4.067 0-7.536 2.58-9.915 6.307-2.39 3.744-3.818 8.825-3.818 14.36 0 5.534 1.429 10.615 3.818 14.359 2.38 3.727 5.848 6.307 9.915 6.307z" fill="#110545" stroke="#fff" stroke-width="3"/><ellipse cx="76.826" cy="123.684" rx="3.727" ry="4.288" fill="#fff"/><path fill-rule="evenodd" clip-rule="evenodd" d="M80.87 182.87c-14.032 7.085-25.833 3.78-32.852-2.828l.487-1.896c4.68 3.382 17.641 8.76 31.588 2.881l.777 1.843z" fill="#110545"/><ellipse cx="29.997" cy="121.232" rx="3.706" ry="4.264" fill="#fff"/><path d="M191.26 122.519l.021-.194h-9.254c0 4.315-2.775 18.061-10.795 21.673-8.02 3.612-14.395-4.315-16.965-6.622-1.457-.803-5.295-.903-8.997 5.117-1.606 2.613-1.754 5.056-1.203 7.131.719 2.707 2.625 4.79 4.031 5.812 5.569 4.214 20.461 10.355 30.331 2.408 9.789-7.881 11.96-27.465 12.831-35.325z" fill="#FCFCFC"/><path d="M192.398 121.325h-11.371v1c0 2.019-.665 6.413-2.324 10.742-1.67 4.36-4.244 8.38-7.882 10.019-3.597 1.62-6.834.688-9.586-1.028-2.089-1.302-3.765-2.957-5.067-4.242-.457-.45-.867-.856-1.233-1.185l-.085-.076-.101-.055c-1.06-.584-2.7-.786-4.561-.032l.012.005c-1.293.431-1.157 1.845.153 2.117 1.58-.832 2.812-.626 3.341-.384.256.236.566.543.924.897 1.308 1.292 3.256 3.217 5.559 4.652 9.121 5.686 17.094-1.361 20.394-9.972 1.51-3.942 2.253-7.968 2.419-10.458h7.174c-.451 4.018-1.225 10.306-2.94 16.585-5.077 18.584-22.675 26.72-38.523 14.729l-.007-.006-.008-.006c-1.274-.926-3.008-2.831-3.652-5.259a7.421 7.421 0 01-.134-3.279c-.071-1.994-1.787-1.636-1.979-.263l-.005-.004a9.432 9.432 0 00.185 4.059c.791 2.98 2.863 5.238 4.401 6.358 2.906 2.196 8.159 4.847 13.963 5.944 5.813 1.099 12.343.665 17.591-3.56 5.151-4.147 8.209-11.276 10.097-18.186 1.896-6.939 2.663-13.863 3.099-17.792l.146-1.32z" fill="#110545"/><path d="M210.595 116.436c-1.776 1.783-3.986 3.089-5.277 3.723a4.595 4.595 0 01-.513 2.827c-.71 1.307-2.135 2.443-4.599 3.005-5.836 1.331-11.398 1.207-15.357-1.955-2.384-1.904-3.193-3.727-3.198-4.986-2.528-.577-6.803-2.91-9.225-8.801-1.388-3.376-1.782-6.039-2.13-8.385a86.362 86.362 0 00-.205-1.343c-.431-2.643-1.059-5.044-3.445-8.099-2.208-2.827-4.583-4.501-6.506-5.857a168.28 168.28 0 01-.513-.363c-.98-.696-1.885-1.37-2.482-2.125-.635-.804-.944-1.725-.705-2.85.24-1.134.982-1.953 1.988-2.464.986-.502 2.238-.72 3.603-.706 2.736.028 6.135.982 9.352 2.819 2.961 1.69 4.845 3.875 5.97 5.817-.028-5.018-.581-12.954-2.617-20.935-.835-3.272-1.724-6.108-2.511-8.55l-.354-1.094c-.636-1.964-1.19-3.67-1.55-5.107-.419-1.672-.624-3.14-.291-4.303a3.09 3.09 0 01.986-1.547c.483-.408 1.096-.68 1.814-.854 2.965-.714 6.444.933 9.263 4.29 2.847 3.391 5.146 8.645 5.804 15.543.682 7.14 1.12 12.93 1.371 16.772a20.07 20.07 0 011.479-3.032c1.447-2.389 3.601-4.529 6.562-4.454 2.695.067 4.435.905 5.478 2.046a4.71 4.71 0 011.124 2.129c1.455-.628 3.734-1.082 5.974.059 1.522.775 2.424 2.21 2.944 3.585.376.994.572 2.008.653 2.836 1.918-.124 4.903.764 6.927 4.651 1.423 2.734 2.002 4.867 1.986 7.046-.016 2.145-.612 4.278-1.407 6.966-.81 2.739-1.77 5.038-2.878 6.709-1.098 1.654-2.428 2.82-4.015 3.016-.78.096-1.447.038-2.004-.112.126 1.246-.165 2.746-1.496 4.083z" fill="#110545" stroke="#fff" stroke-width="1.5"/><path fill-rule="evenodd" clip-rule="evenodd" d="M211.878 111.936c-1.165-1.193-2.329-3.104-2.825-4.828l-1.01.291c.414 1.439 1.292 4.206 3.835 4.537zm-4.814 6.726c-3.573 4.186-11.239 1.319-12.875-3.335 3.395 3.312 8.305 5.59 12.875 3.335zm-15.333-1.545c-3.166 4.66-8.188 3.429-11.194.237 4.869 1.687 7.081 1.429 11.194-.237zM177.523 88.64c.475 1.854.6 3.967 2.599 4.313 1.573.205 3.159-.354 4.729-.428 4.351-.205 7.956 3.322 8.278 7.567.861-3.175-1.828-6.449-2.921-7.384-1.763-1.507-3.628-1.98-5.357-1.9-.627.03-1.253.103-1.841.17-3.051.353-4.448.841-5.487-2.338z" fill="#fff"/><path fill-rule="evenodd" clip-rule="evenodd" d="M187.777 87.246c-1.498.005-4.416.288-7.599 3.145.902-.694 4.597-2.074 7.711-2.083 3.465-.01 6.246.628 7.228.941-2.825-1.811-5.691-2.007-7.34-2.002z" fill="#fff"/><path fill-rule="evenodd" clip-rule="evenodd" d="M203.221 78.768c1.05 4.719 3.003 9.076 3.724 13.854.371 2.462.287 5.344-.798 9.243-1.089 3.912-2.567 6.434-4.051 7.804-1.472 1.359-2.532 1.165-3.151.854-3.073-1.546-3.426-7.33-2.927-10.215.742-4.296 3.547-7.18 5.132-9.1-.485.223-1.691.878-2.064.991-2.901.884-3.58-4.3-3.981-6.21-.201 1.546.254 5.474 1.229 6.633.154.182.353.366.604.457.268.098.54.123.804.1-1.313 1.737-2.685 4.025-3.221 7.129-.312 1.802-.2 4.232.339 6.391.27 1.082.653 2.117 1.158 2.981.503.861 1.148 1.586 1.958 1.993 1.626.818 3.509.414 5.203-1.15 1.683-1.553 3.234-4.282 4.351-8.295 1.12-4.025 1.56-6.9 1.164-9.524-.754-5.006-3.32-9.958-4.423-14.915l-1.05.979z" fill="#fff"/><path fill-rule="evenodd" clip-rule="evenodd" d="M213.244 86.808c1.185 4.931 1.593 10.103-1.105 15.02-1.901 3.462-3.58 5.03-4.838 5.637-1.231.592-2.048.27-2.415-.074l-.719.766c.721.677 2.018 1.012 3.59.254 1.545-.744 4.196-2.684 6.141-6.229 2.905-5.292 2.169-11.212.982-16.123a155.75 155.75 0 01-.463-1.956l-1.64.722c.153.675.312 1.335.467 1.983z" fill="#fff"/></svg>