<svg width="223" height="214" viewBox="0 0 223 214" fill="none" xmlns="http://www.w3.org/2000/svg"><circle cx="116.153" cy="129.392" r="83.307" fill="#110545" stroke="#110545" stroke-width="2"/><path d="M191.61 123.112c0 46.009-37.298 83.307-83.307 83.307-46.01 0-83.307-37.298-83.307-83.307 0-46.01 37.298-83.307 83.307-83.307s83.307 37.298 83.307 83.307z" fill="#fff" stroke="#110545" stroke-width="2"/><path d="M125.484 123.112c0 9.489-7.693 17.181-17.182 17.181-9.489 0-17.18-7.692-17.18-17.181s7.692-17.181 17.18-17.181c9.489 0 17.182 7.692 17.182 17.181z" fill="#110545" stroke="#110545" stroke-width="2"/><path fill-rule="evenodd" clip-rule="evenodd" d="M108.303 204.133c45.497 0 82.379-35.525 82.379-81.021 0-45.497-36.882-82.38-82.379-82.38-45.497 0-80.988 36.883-80.988 82.38 0 45.496 35.491 81.021 80.988 81.021zm0 3.286c46.561 0 84.307-37.746 84.307-84.307 0-46.562-37.746-84.307-84.307-84.307S23.996 76.55 23.996 123.112c0 46.561 37.746 84.307 84.307 84.307zm-96.286-60.293a.964.964 0 011.175.691c4.837 18.673 14.778 33.222 28.589 45.849.392.36 1.131 1.664.709 2.591-.423.927-1.598.932-1.991.573-14.08-12.873-24.24-29.487-29.173-48.529a.964.964 0 01.691-1.175zm.229 30.793a.964.964 0 011.317.353c5.212 9.033 11.792 16.337 19.15 23.63.379.375.582 1.282.15 1.991-.381.627-1.32.717-1.697.342a118.846 118.846 0 01-19.273-24.999.964.964 0 01.353-1.317z" fill="#110545"/><path d="M164.872 123.112c0 31.242-25.327 56.569-56.57 56.569s-56.57-25.327-56.57-56.569c0-31.243 25.328-56.57 56.57-56.57 31.243 0 56.57 25.327 56.57 56.57zm-56.57 27.219c15.033 0 27.219-12.186 27.219-27.219 0-15.033-12.186-27.22-27.219-27.22-15.033 0-27.22 12.187-27.22 27.22s12.187 27.219 27.22 27.219z" fill="#3852CE" stroke="#110545" stroke-width="2"/><path fill-rule="evenodd" clip-rule="evenodd" d="M107.164 177.974c30.73 0 56.114-24.132 56.114-54.862S139.032 67.47 108.302 67.47 52.66 92.382 52.66 123.112c0 30.73 23.774 54.862 54.504 54.862zm29.285-54.862c0 15.545-12.602 28.147-28.147 28.147-15.546 0-28.148-12.602-28.148-28.147 0-15.546 12.602-28.148 28.148-28.148 15.545 0 28.147 12.602 28.147 28.148zm29.423 0c0 31.794-25.775 57.569-57.57 57.569s-57.57-25.775-57.57-57.569c0-31.795 25.775-57.57 57.57-57.57s57.57 25.775 57.57 57.57zm-31.773 0c0 14.48-12.454 25.963-26.935 25.963-14.48 0-25.082-11.483-25.082-25.963 0-14.481 11.739-26.22 26.22-26.22 14.48 0 25.797 11.739 25.797 26.22z" fill="#110545"/><path d="M166.388 5.707a4 4 0 016.19 0l4.622 5.645a6 6 0 006.763 1.812l6.826-2.578a4 4 0 015.36 3.095l1.18 7.2a6 6 0 004.951 4.95l7.2 1.181a4 4 0 013.095 5.36l-2.578 6.827a6 6 0 001.812 6.762l5.646 4.622a4 4 0 010 6.19l-5.646 4.622a6 6 0 00-1.812 6.763l2.578 6.826a4 4 0 01-3.095 5.36l-7.2 1.18a6 6 0 00-4.951 4.951l-1.18 7.2a4 4 0 01-5.36 3.096l-6.826-2.579a6 6 0 00-6.763 1.813l-4.622 5.645a4 4 0 01-6.19 0l-4.622-5.646a6 6 0 00-6.763-1.812l-6.826 2.579a4 4 0 01-5.36-3.095l-1.18-7.2a6 6 0 00-4.951-4.951l-7.2-1.18a4 4 0 01-3.095-5.361l2.578-6.826a6 6 0 00-1.812-6.763l-5.646-4.622-.633.774.633-.774a4 4 0 010-6.19l5.646-4.622a6 6 0 001.812-6.762l-2.578-6.826a4 4 0 013.095-5.36l7.2-1.181a6 6 0 004.951-4.95l1.18-7.201a4 4 0 015.36-3.095l6.826 2.578a6 6 0 006.763-1.812l4.622-5.645z" fill="#110545" stroke="#fff" stroke-width="2"/><path d="M105.734 120.043l4.635 4.231" stroke="#fff" stroke-width="2" stroke-linecap="round"/><path d="M101.551 108.38c5.639 4.898 6.003 9.631 4.452 12.021-1.55 2.389-8.162 1.929-12.614-2.226S40.798 67.436 23.653 48.618c-1.164-1.427-.138-2.637 1.436-1.64 19.74 13.867 70.823 56.505 76.462 61.402z" fill="#fff" stroke="#110545" stroke-width="2"/><path d="M101.551 108.38c5.639 4.898 6.003 9.631 4.452 12.021-1.55 2.389-8.162 1.929-12.614-2.226S40.798 67.436 23.653 48.618c-1.164-1.427-.138-2.637 1.436-1.64 19.74 13.867 70.823 56.505 76.462 61.402z" fill="#fff"/><path d="M26.179 45.346l.02.014.018.013-.54.768.54-.768c19.83 13.929 70.98 56.626 76.621 61.525 5.98 5.193 7.139 10.985 4.812 14.573-1.365 2.103-3.779 2.557-5.946 2.405-2.193-.154-4.44-.937-5.949-1.693a15.85 15.85 0 01-3.707-2.572c-4.46-4.163-52.647-50.79-69.847-69.67 0 0 0 0 0 0m3.978-4.595l-3.24 3.922-.738.674m3.978-4.596l-.02-.013-.02-.012-.527.832.528-.832c-.582-.369-1.307-.649-2.06-.67-.782-.023-1.604.239-2.222.955-.61.704-.755 1.543-.636 2.306.115.738.476 1.418.908 1.948l4.049-4.514zM22.2 49.942l-.018-.02-.019-.02-.017-.021-.017-.02.07.08zm73.392 66.233c-3.98-3.715-43.377-40.71-63.954-61.957 22.834 17.241 63.618 51.299 68.623 55.646 5.107 4.434 4.893 8.014 4.172 9.335-.37.254-.898.383-1.616.346-.797-.041-1.724-.285-2.683-.663-1.929-.76-3.754-1.971-4.542-2.707z" fill="#110545" stroke="#fff" stroke-width="2"/><path d="M32.56 33.906c-.398 6.72-.54 9.989-1.172 17.285l15.257 12.053V47.576c-4.077-4.116-7.335-7.001-14.086-13.669zm10 34.506L29.053 54.71c-2.705.736-11.876 2.12-18.914 3.035 6.044 5.128 11.168 9.918 16.001 13.919 7.001-1.417 8.743-1.85 16.42-3.25z" fill="#110545"/><path d="M32.56 33.906c-.398 6.72-.54 9.989-1.172 17.285l15.257 12.053V47.576c-4.077-4.116-7.335-7.001-14.086-13.669zm10 34.506L29.053 54.71c-2.705.736-11.876 2.12-18.914 3.035 6.044 5.128 11.168 9.918 16.001 13.919 7.001-1.417 8.743-1.85 16.42-3.25zm48.287 30.902c.431 1.723.406 3.995-1.14 6.103-1.723 2.349-4.42 2.981-6.887 2.511" stroke="#110545" stroke-width="2"/><path d="M139.132 65.321v-3.053l7.084-7.291c1.581-1.66 2.371-3.043 2.371-4.15 0-.81-.256-1.462-.77-1.956-.494-.494-1.136-.74-1.927-.74-1.561 0-2.717.81-3.468 2.43l-3.438-2.016c.652-1.423 1.591-2.51 2.816-3.26a7.567 7.567 0 014.031-1.127c1.877 0 3.488.593 4.831 1.779 1.344 1.166 2.016 2.746 2.016 4.742 0 2.154-1.136 4.367-3.409 6.64l-4.06 4.06h7.795v3.942h-13.872zm30.424-13.96c0 1.6-.415 3.003-1.245 4.209h.03l-6.462 9.751h-4.683l4.624-6.758c-2.154-.04-3.913-.72-5.276-2.045-1.344-1.343-2.016-3.063-2.016-5.157 0-2.114.692-3.843 2.075-5.187 1.403-1.344 3.211-2.016 5.424-2.016 2.233 0 4.041.672 5.425 2.016 1.402 1.324 2.104 3.053 2.104 5.187zm-10.967 0c0 1.027.326 1.847.978 2.46.672.613 1.492.919 2.46.919 1.008 0 1.838-.306 2.49-.92.652-.612.978-1.432.978-2.46 0-1.027-.326-1.837-.978-2.43-.652-.612-1.482-.919-2.49-.919-.968 0-1.788.307-2.46.92-.652.612-.978 1.422-.978 2.43zm12.21 13.96v-3.053l7.084-7.291c1.58-1.66 2.371-3.043 2.371-4.15 0-.81-.257-1.462-.771-1.956-.494-.494-1.136-.74-1.927-.74-1.561 0-2.717.81-3.467 2.43l-3.439-2.016c.652-1.423 1.591-2.51 2.816-3.26a7.567 7.567 0 014.031-1.127c1.877 0 3.488.593 4.832 1.779 1.343 1.166 2.015 2.746 2.015 4.742 0 2.154-1.136 4.367-3.409 6.64l-4.06 4.06h7.795v3.942h-13.871zm29.854-12.182v3.587h-4.89v4.89h-3.587v-4.89h-4.861v-3.587h4.861v-4.86h3.587v4.86h4.89z" fill="#fff"/></svg>