<svg width="376" height="405" viewBox="0 0 376 405" fill="none" xmlns="http://www.w3.org/2000/svg"><path d="M75.998 114.177h3.976l8.624 12.6v-12.6h4.2v19.6h-3.976l-8.624-12.6v12.6h-4.2v-19.6zm23.24 9.296c-.728 0-1.381-.112-1.96-.336a4.518 4.518 0 01-1.512-.952 4.276 4.276 0 01-.952-1.456c-.224-.578-.336-1.222-.336-1.932v-.28c0-.69.112-1.325.336-1.904a4.235 4.235 0 01.952-1.484c.43-.41.934-.728 1.512-.952.579-.224 1.232-.336 1.96-.336s1.382.112 1.96.336a4.227 4.227 0 011.484.952c.43.411.756.906.98 1.484.224.579.336 1.214.336 1.904v.28c0 .71-.112 1.354-.336 1.932a4.08 4.08 0 01-.98 1.456c-.41.411-.905.728-1.484.952-.578.224-1.232.336-1.96.336zm0-2.912c.374 0 .672-.13.896-.392.224-.28.336-.737.336-1.372v-.28c0-.634-.112-1.082-.336-1.344a1.088 1.088 0 00-.896-.42c-.373 0-.672.14-.896.42-.224.262-.336.71-.336 1.344v.28c0 .635.112 1.092.336 1.372.224.262.523.392.896.392zm-4.48 4.228h8.96v2.856h-8.96v-2.856zm11.213 5.516h4.48v-11.872l-4.48 3.192v-4.088l4.732-3.36h3.948v16.128h3.64v3.472h-12.32v-3.472zm21.557-11.368h7.448c.952 0 1.764.103 2.436.308.691.187 1.26.458 1.708.812.448.355.775.775.98 1.26.205.486.308 1.018.308 1.596 0 .691-.215 1.344-.644 1.96-.411.598-.98.999-1.708 1.204.915.224 1.624.654 2.128 1.288.523.616.784 1.344.784 2.184 0 1.288-.448 2.315-1.344 3.08-.896.766-2.259 1.148-4.088 1.148h-8.008v-14.84zm7.28 11.872c.84 0 1.456-.121 1.848-.364.411-.261.616-.672.616-1.232 0-.56-.196-.961-.588-1.204-.373-.261-.999-.392-1.876-.392h-3.584v3.192h3.584zm-.364-5.936c.859 0 1.447-.121 1.764-.364.336-.242.504-.616.504-1.12 0-.485-.168-.849-.504-1.092-.336-.261-.924-.392-1.764-.392h-3.22v2.968h3.22zm16.19-5.936h4.368l4.116 8.008 4.116-8.008h4.2v14.84h-3.528v-9.66l-3.612 6.72h-2.52l-3.612-6.72v9.66h-3.528v-14.84zm26.872 15.176a9.224 9.224 0 01-2.884-.448 6.576 6.576 0 01-2.352-1.428c-.672-.634-1.204-1.428-1.596-2.38-.392-.952-.588-2.072-.588-3.36v-.56c0-1.213.196-2.277.588-3.192.392-.914.924-1.68 1.596-2.296a6.463 6.463 0 012.352-1.372 8.746 8.746 0 012.884-.476 8.5 8.5 0 012.856.476c.896.299 1.68.756 2.352 1.372.691.616 1.232 1.382 1.624 2.296.392.915.588 1.979.588 3.192v.56c0 1.27-.196 2.38-.588 3.332-.392.952-.933 1.746-1.624 2.38a6.576 6.576 0 01-2.352 1.428 8.475 8.475 0 01-2.856.476zm0-3.136c1.045 0 1.913-.373 2.604-1.12.709-.746 1.064-1.866 1.064-3.36v-.56c0-1.362-.355-2.398-1.064-3.108-.691-.728-1.559-1.092-2.604-1.092-1.064 0-1.941.364-2.632 1.092-.691.71-1.036 1.746-1.036 3.108v.56c0 1.512.345 2.642 1.036 3.388.691.728 1.568 1.092 2.632 1.092zm16.789 3.136a7.836 7.836 0 01-2.912-.532 6.282 6.282 0 01-2.296-1.596c-.653-.728-1.167-1.614-1.54-2.66-.355-1.064-.532-2.296-.532-3.696v-.644c0-1.68.121-3.173.364-4.48.261-1.306.681-2.417 1.26-3.332a6.147 6.147 0 012.352-2.128c.989-.522 2.221-.821 3.696-.896l1.708-.056c.56-.018 1.092-.046 1.596-.084.504-.037.961-.093 1.372-.168a5.275 5.275 0 001.092-.364v3.276c-.299.168-.859.308-1.68.42-.803.112-2.025.178-3.668.196-.84.019-1.568.122-2.184.308a3.537 3.537 0 00-1.512.84c-.392.374-.709.868-.952 1.484-.224.616-.383 1.372-.476 2.268.429-.84 1.073-1.521 1.932-2.044.859-.522 1.979-.784 3.36-.784.933 0 1.783.15 2.548.448.765.28 1.428.7 1.988 1.26s.989 1.251 1.288 2.072c.317.822.476 1.774.476 2.856v.532c0 1.176-.187 2.231-.56 3.164-.355.934-.859 1.727-1.512 2.38a6.627 6.627 0 01-2.324 1.456c-.877.336-1.839.504-2.884.504zm0-3.136c1.12 0 1.988-.364 2.604-1.092.616-.746.924-1.801.924-3.164v-.56c0-1.176-.317-2.1-.952-2.772-.635-.672-1.493-1.008-2.576-1.008-1.064 0-1.923.336-2.576 1.008-.635.672-.952 1.596-.952 2.772v.504c0 .672.084 1.279.252 1.82.187.542.439.999.756 1.372.317.355.691.635 1.12.84.429.187.896.28 1.4.28zm9.932-12.04h3.696v9.52l6.608-9.52h3.416v14.84h-3.696v-9.52l-6.608 9.52h-3.416v-14.84zm17.23 15.176c-.149 0-.336-.009-.56-.028-.224 0-.41-.018-.56-.056v-3.332c.094.019.234.028.42.028.355 0 .663-.102.924-.308.262-.224.476-.597.644-1.12.187-.522.318-1.213.392-2.072.094-.877.14-1.96.14-3.248v-5.04h11.76v14.84h-3.696v-11.76h-4.648v2.52c0 1.923-.102 3.51-.308 4.76-.186 1.232-.485 2.203-.896 2.912-.392.71-.896 1.204-1.512 1.484-.597.28-1.297.42-2.1.42zm16.513-15.176h3.696v4.984h3.164c3.826 0 5.74 1.643 5.74 4.928 0 .728-.112 1.4-.336 2.016a3.7 3.7 0 01-1.008 1.54c-.467.43-1.064.766-1.792 1.008-.728.243-1.596.364-2.604.364h-6.86v-14.84zm6.44 11.872c.896 0 1.53-.158 1.904-.476.373-.336.56-.83.56-1.484 0-.653-.196-1.138-.588-1.456-.374-.336-.999-.504-1.876-.504h-2.744v3.92h2.744zm8.544-11.872h3.696v5.74h6.328v-5.74h3.696v14.84h-3.696v-6.02h-6.328v6.02h-3.696v-14.84zm23.81 15.176a9.22 9.22 0 01-2.884-.448 6.576 6.576 0 01-2.352-1.428c-.672-.634-1.204-1.428-1.596-2.38-.392-.952-.588-2.072-.588-3.36v-.56c0-1.213.196-2.277.588-3.192.392-.914.924-1.68 1.596-2.296a6.463 6.463 0 012.352-1.372 8.742 8.742 0 012.884-.476 8.5 8.5 0 012.856.476c.896.299 1.68.756 2.352 1.372.69.616 1.232 1.382 1.624 2.296.392.915.588 1.979.588 3.192v.56c0 1.27-.196 2.38-.588 3.332-.392.952-.934 1.746-1.624 2.38a6.576 6.576 0 01-2.352 1.428 8.475 8.475 0 01-2.856.476zm0-3.136c1.045 0 1.913-.373 2.604-1.12.709-.746 1.064-1.866 1.064-3.36v-.56c0-1.362-.355-2.398-1.064-3.108-.691-.728-1.559-1.092-2.604-1.092-1.064 0-1.942.364-2.632 1.092-.691.71-1.036 1.746-1.036 3.108v.56c0 1.512.345 2.642 1.036 3.388.69.728 1.568 1.092 2.632 1.092zm10.069-12.04h3.696v9.52l6.608-9.52h3.416v14.84h-3.696v-9.52l-6.608 9.52h-3.416v-14.84zm6.86-1.54c-1.662 0-2.875-.354-3.64-1.064-.747-.709-1.12-1.754-1.12-3.136h3.276c0 .728.121 1.242.364 1.54.261.28.634.42 1.12.42.522 0 .905-.14 1.148-.42.261-.298.392-.812.392-1.54h3.22c0 1.382-.383 2.427-1.148 3.136-.747.71-1.951 1.064-3.612 1.064zm-184.595 32.54h3.444v2.184c.374-.672.962-1.26 1.764-1.764.803-.504 1.82-.756 3.052-.756 1.979 0 3.519.616 4.62 1.848 1.12 1.214 1.68 3.043 1.68 5.488v.56c0 2.558-.569 4.471-1.708 5.74-1.12 1.251-2.65 1.876-4.592 1.876-1.008 0-1.904-.214-2.688-.644a5.775 5.775 0 01-1.876-1.736v7.644h-3.696v-20.44zm7.392 12.04c.971 0 1.783-.364 2.436-1.092.654-.746.98-1.876.98-3.388v-.56c0-1.4-.317-2.445-.952-3.136-.634-.709-1.456-1.064-2.464-1.064-1.064 0-1.95.308-2.66.924-.69.598-1.036 1.503-1.036 2.716v1.68c0 1.326.336 2.315 1.008 2.968.691.635 1.587.952 2.688.952zm14.287 3.136c-.803 0-1.512-.112-2.128-.336a4.743 4.743 0 01-1.568-.98 4.38 4.38 0 01-.98-1.484 5.15 5.15 0 01-.336-1.876c0-2.986 1.773-4.48 5.32-4.48h4.424v-.7c0-.97-.224-1.652-.672-2.044-.429-.392-1.12-.588-2.072-.588-.84 0-1.447.15-1.82.448-.373.28-.588.635-.644 1.064h-3.696a4.562 4.562 0 01.476-1.792 4.297 4.297 0 011.232-1.428c.541-.41 1.195-.728 1.96-.952.765-.242 1.643-.364 2.632-.364.952 0 1.811.103 2.576.308.784.206 1.447.542 1.988 1.008.56.448.989 1.036 1.288 1.764.299.728.448 1.606.448 2.632v5.684c0 .784.009 1.475.028 2.072.037.579.093 1.148.168 1.708h-3.444c-.075-.41-.121-.718-.14-.924v-.98c-.411.598-1.036 1.12-1.876 1.568-.821.448-1.876.672-3.164.672zm1.148-2.856a5.19 5.19 0 001.316-.168c.429-.13.812-.317 1.148-.56.336-.261.607-.588.812-.98.205-.392.308-.849.308-1.372v-.7h-3.724c-.709 0-1.269.168-1.68.504-.392.318-.588.756-.588 1.316 0 .598.205 1.074.616 1.428.411.355 1.008.532 1.792.532zm16.385 2.856c-2.146 0-3.78-.438-4.9-1.316-1.12-.877-1.726-2.137-1.82-3.78h3.752c.038.318.112.598.224.84.112.243.28.448.504.616.224.168.514.299.868.392.374.075.831.112 1.372.112 1.083 0 1.848-.158 2.296-.476.448-.336.672-.737.672-1.204 0-.56-.186-.98-.56-1.26-.373-.28-1.036-.42-1.988-.42h-2.24v-2.744h2.044c.71 0 1.251-.149 1.624-.448.374-.298.56-.69.56-1.176 0-.429-.186-.784-.56-1.064-.354-.298-.97-.448-1.848-.448-.914 0-1.577.159-1.988.476-.392.299-.625.747-.7 1.344h-3.752c.094-1.605.682-2.828 1.764-3.668 1.083-.858 2.642-1.288 4.676-1.288 1.083 0 2.007.103 2.772.308.784.206 1.428.504 1.932.896.504.374.868.831 1.092 1.372.243.523.364 1.111.364 1.764 0 .71-.186 1.344-.56 1.904-.354.56-.924.971-1.708 1.232 1.064.262 1.802.691 2.212 1.288.411.579.616 1.27.616 2.072 0 .672-.14 1.298-.42 1.876-.261.56-.672 1.055-1.232 1.484-.541.411-1.232.738-2.072.98-.84.224-1.838.336-2.996.336zm9.378-15.176h3.444v2.184c.374-.672.962-1.26 1.764-1.764.803-.504 1.82-.756 3.052-.756 1.979 0 3.519.616 4.62 1.848 1.12 1.214 1.68 3.043 1.68 5.488v.56c0 2.558-.569 4.471-1.708 5.74-1.12 1.251-2.65 1.876-4.592 1.876-1.008 0-1.904-.214-2.688-.644a5.775 5.775 0 01-1.876-1.736v7.644h-3.696v-20.44zm7.392 12.04c.971 0 1.783-.364 2.436-1.092.654-.746.98-1.876.98-3.388v-.56c0-1.4-.317-2.445-.952-3.136-.634-.709-1.456-1.064-2.464-1.064-1.064 0-1.95.308-2.66.924-.69.598-1.036 1.503-1.036 2.716v1.68c0 1.326.336 2.315 1.008 2.968.691.635 1.587.952 2.688.952zm14.287 3.136c-.803 0-1.512-.112-2.128-.336a4.743 4.743 0 01-1.568-.98 4.38 4.38 0 01-.98-1.484 5.15 5.15 0 01-.336-1.876c0-2.986 1.773-4.48 5.32-4.48h4.424v-.7c0-.97-.224-1.652-.672-2.044-.429-.392-1.12-.588-2.072-.588-.84 0-1.447.15-1.82.448-.373.28-.588.635-.644 1.064h-3.696a4.562 4.562 0 01.476-1.792 4.297 4.297 0 011.232-1.428c.541-.41 1.195-.728 1.96-.952.765-.242 1.643-.364 2.632-.364.952 0 1.811.103 2.576.308.784.206 1.447.542 1.988 1.008.56.448.989 1.036 1.288 1.764.299.728.448 1.606.448 2.632v5.684c0 .784.009 1.475.028 2.072.037.579.093 1.148.168 1.708h-3.444c-.075-.41-.121-.718-.14-.924v-.98c-.411.598-1.036 1.12-1.876 1.568-.821.448-1.876.672-3.164.672zm1.148-2.856a5.19 5.19 0 001.316-.168c.429-.13.812-.317 1.148-.56.336-.261.607-.588.812-.98.205-.392.308-.849.308-1.372v-.7h-3.724c-.709 0-1.269.168-1.68.504-.392.318-.588.756-.588 1.316 0 .598.205 1.074.616 1.428.411.355 1.008.532 1.792.532zm17.225 2.856a7.836 7.836 0 01-2.912-.532 6.29 6.29 0 01-2.296-1.596c-.653-.728-1.166-1.614-1.54-2.66-.354-1.064-.532-2.296-.532-3.696v-.644c0-1.68.122-3.173.364-4.48.262-1.306.682-2.417 1.26-3.332a6.161 6.161 0 012.352-2.128c.99-.522 2.222-.821 3.696-.896l1.708-.056c.56-.018 1.092-.046 1.596-.084.504-.037.962-.093 1.372-.168a5.275 5.275 0 001.092-.364v3.276c-.298.168-.858.308-1.68.42-.802.112-2.025.178-3.668.196-.84.019-1.568.122-2.184.308a3.537 3.537 0 00-1.512.84c-.392.374-.709.868-.952 1.484-.224.616-.382 1.372-.476 2.268.43-.84 1.074-1.521 1.932-2.044.859-.522 1.979-.784 3.36-.784.934 0 1.783.15 2.548.448.766.28 1.428.7 1.988 1.26s.99 1.251 1.288 2.072c.318.822.476 1.774.476 2.856v.532c0 1.176-.186 2.231-.56 3.164-.354.934-.858 1.727-1.512 2.38a6.627 6.627 0 01-2.324 1.456c-.877.336-1.838.504-2.884.504zm0-3.136c1.12 0 1.988-.364 2.604-1.092.616-.746.924-1.801.924-3.164v-.56c0-1.176-.317-2.1-.952-2.772-.634-.672-1.493-1.008-2.576-1.008-1.064 0-1.922.336-2.576 1.008-.634.672-.952 1.596-.952 2.772v.504c0 .672.084 1.279.252 1.82.187.542.439.999.756 1.372.318.355.691.635 1.12.84.43.187.896.28 1.4.28zm16.653 3.136a9.22 9.22 0 01-2.884-.448 6.576 6.576 0 01-2.352-1.428c-.672-.634-1.204-1.428-1.596-2.38-.392-.952-.588-2.072-.588-3.36v-.56c0-1.213.196-2.277.588-3.192.392-.914.924-1.68 1.596-2.296a6.463 6.463 0 012.352-1.372 8.742 8.742 0 012.884-.476 8.5 8.5 0 012.856.476c.896.299 1.68.756 2.352 1.372.69.616 1.232 1.382 1.624 2.296.392.915.588 1.979.588 3.192v.56c0 1.27-.196 2.38-.588 3.332-.392.952-.934 1.746-1.624 2.38a6.576 6.576 0 01-2.352 1.428 8.475 8.475 0 01-2.856.476zm0-3.136c1.045 0 1.913-.373 2.604-1.12.709-.746 1.064-1.866 1.064-3.36v-.56c0-1.362-.355-2.398-1.064-3.108-.691-.728-1.559-1.092-2.604-1.092-1.064 0-1.942.364-2.632 1.092-.691.71-1.036 1.746-1.036 3.108v.56c0 1.512.345 2.642 1.036 3.388.69.728 1.568 1.092 2.632 1.092zm13.407-8.96h-4.732v-3.08h13.16v3.08h-4.732v11.76H227.8v-11.76zm10.662-3.08h3.696v5.824h1.4l4.536-5.824h4.088l-5.6 7.028 5.88 7.812h-4.424l-4.48-6.104h-1.4v6.104h-3.696v-14.84zm22.278 15.176a9.224 9.224 0 01-2.884-.448 6.791 6.791 0 01-2.352-1.4c-.672-.634-1.204-1.428-1.596-2.38-.392-.97-.588-2.1-.588-3.388v-.56c0-1.232.187-2.305.56-3.22.374-.914.887-1.67 1.54-2.268a6.286 6.286 0 012.268-1.372 7.944 7.944 0 012.772-.476c2.334 0 4.107.616 5.32 1.848 1.214 1.232 1.82 3.015 1.82 5.348v1.568h-10.5c.019.654.131 1.223.336 1.708.206.467.476.85.812 1.148.336.299.719.523 1.148.672.448.131.896.196 1.344.196.952 0 1.671-.14 2.156-.42.486-.28.831-.69 1.036-1.232h3.388c-.298 1.55-1.036 2.716-2.212 3.5-1.176.784-2.632 1.176-4.368 1.176zm-.14-12.488a5.09 5.09 0 00-1.288.168c-.41.112-.774.29-1.092.532-.317.243-.578.57-.784.98-.205.411-.317.906-.336 1.484h6.916c-.018-.616-.121-1.129-.308-1.54a2.298 2.298 0 00-.728-.98 2.57 2.57 0 00-1.064-.504 5.94 5.94 0 00-1.316-.14z" fill="#fff"/><path fill-rule="evenodd" clip-rule="evenodd" d="M22.032 118.049c-.25 2.274-.424 4.55-.52 6.824.012-2.464-.156-6.438-3.69-8.667.407.793.623 2.106.86 3.543.43 2.616.929 5.64 2.776 6.665a99.873 99.873 0 00.036 6.486c-.491-2.925-1.715-6.374-5.358-8.225.605.961 1.028 2.612 1.49 4.417.828 3.227 1.781 6.947 4.125 8.098.192 2.354.47 4.697.831 7.025-1.078-3.436-3.11-7.938-8.241-9.425.887.952 1.717 2.72 2.625 4.654 1.59 3.387 3.42 7.282 6.209 8.182a95.417 95.417 0 001.944 8.162c-1.61-3.503-4.358-7.823-9.872-8.751 1.072.913 2.185 2.71 3.402 4.676 2.13 3.442 4.581 7.401 7.69 8.022a93.37 93.37 0 004.382 10.837c-2.566-4.303-6.913-10.459-14.852-10.667 1.512.958 3.231 3.022 5.112 5.278 3.382 4.058 7.284 8.739 11.427 8.734a92.518 92.518 0 003.115 5.425 96.937 96.937 0 002.433 3.732c-3.878-4.096-9.548-8.418-17.377-7.337 1.948.826 4.351 2.903 6.98 5.174 4.64 4.01 9.982 8.626 14.75 8.032a97.887 97.887 0 0010.45 11.139c-1.783-.86-3.804-2.09-5.942-3.392-6.133-3.734-13.232-8.056-18.47-5.92.633.461 1.419 1.147 2.346 1.956v.001c4.689 4.093 12.996 11.346 23.607 8.73a97.637 97.637 0 0012.749 9.432c-1.864-.553-4.044-1.418-6.374-2.343-7.102-2.817-15.598-6.188-20.784-2.967.729.362 1.651.926 2.74 1.593 5.566 3.404 15.472 9.463 25.988 4.671a97.021 97.021 0 008.405 4.459c-7.029-1.08-15.975-.94-21.527 2.497 1.845.486 3.664 1.049 5.458 1.604 8.265 2.556 15.996 4.947 23.197-1.099a96.49 96.49 0 0011.125 3.423l.417-1.716a94.793 94.793 0 01-10.666-3.265c.429-5.058-4.528-12.069-8.218-17.289-1.932-2.732-3.516-4.973-3.8-6.186-3.145 8.81 1.565 16.506 8.455 22.069a95.257 95.257 0 01-11.671-5.854c1.866-5.163-1.639-12.405-4.691-18.713-1.761-3.638-3.371-6.965-3.713-9.403-4.724 11.199 2.299 21.004 6.199 26.448l.42.588a95.886 95.886 0 01-12.229-9.002c2.517-4.713-.012-12.138-2.21-18.596-1.257-3.688-2.405-7.06-2.446-9.433-5.837 10.158-.273 20.365 2.816 26.033l.388.713a96.203 96.203 0 01-10.367-10.94c2.211-4.313.24-11.104-1.481-17.034-1.013-3.489-1.94-6.681-1.877-8.893-5.13 8.051-2.153 16.509.44 22.127a95.842 95.842 0 01-4.019-5.969 99.269 99.269 0 01-3.224-5.6c2.369-3.027 2.102-8.593 1.868-13.466-.14-2.935-.27-5.618.196-7.346-5.477 5.3-4.813 12.397-3.849 17.296a98.71 98.71 0 01-4.179-10.025c2.316-2.175 2.653-6.792 2.947-10.827.174-2.389.333-4.574.88-5.927-5.057 3.83-5.118 9.803-4.796 13.873a97.076 97.076 0 01-2.453-9.235c2.375-1.654 3.174-5.81 3.87-9.435.408-2.117.78-4.052 1.41-5.203-5.092 2.99-5.646 8.594-5.755 12.267a94.95 94.95 0 01-1.126-7.769c2.15-1.376 2.915-5.037 3.582-8.226.385-1.841.738-3.525 1.304-4.521-4.093 2.316-4.92 6.583-5.146 9.746a92.466 92.466 0 01-.222-7.695c1.914-.928 2.844-3.909 3.652-6.503.462-1.482.885-2.837 1.43-3.61-3.603 1.603-4.596 5.128-5.02 7.721a90.64 90.64 0 01.424-5.904c2.468-2.804 2.165-6.985 1.892-10.754-.083-1.138-.162-2.239-.162-3.252-.293.845-.657 1.737-1.033 2.661-1.48 3.636-3.16 7.759-1.482 11.371z" fill="#DBFF00"/><path d="M353.967 118.048c.251 2.274.424 4.551.52 6.825-.012-2.464.156-6.438 3.691-8.667-.408.793-.625 2.106-.861 3.543-.431 2.616-.929 5.64-2.776 6.665.058 2.167.046 4.332-.036 6.49.491-2.927 1.714-6.377 5.359-8.229-.605.961-1.029 2.612-1.491 4.417-.828 3.227-1.781 6.947-4.125 8.098a97.644 97.644 0 01-.831 7.025c1.078-3.436 3.11-7.938 8.241-9.425-.887.952-1.717 2.72-2.625 4.654-1.591 3.387-3.419 7.282-6.209 8.182a95.353 95.353 0 01-1.944 8.162c1.61-3.504 4.358-7.823 9.872-8.751-1.072.913-2.185 2.71-3.402 4.676-2.131 3.442-4.581 7.401-7.691 8.022a93.247 93.247 0 01-4.384 10.842c2.566-4.303 6.913-10.464 14.855-10.672-1.511.958-3.231 3.022-5.112 5.278-3.382 4.058-7.284 8.739-11.427 8.734a93.034 93.034 0 01-3.115 5.425 98.27 98.27 0 01-2.434 3.733c3.878-4.096 9.549-8.42 17.378-7.338-1.947.826-4.351 2.903-6.979 5.174-4.641 4.01-9.983 8.626-14.75 8.032a97.878 97.878 0 01-10.451 11.139c1.783-.86 3.804-2.09 5.942-3.392 6.133-3.734 13.232-8.056 18.47-5.92-.633.461-1.419 1.147-2.346 1.957-4.688 4.093-12.996 11.346-23.607 8.73a97.651 97.651 0 01-12.749 9.431c1.864-.552 4.044-1.417 6.374-2.342 7.102-2.817 15.598-6.188 20.784-2.967-.729.362-1.652.926-2.741 1.593-5.565 3.403-15.471 9.463-25.987 4.671a96.97 96.97 0 01-8.405 4.459c7.029-1.081 15.975-.94 21.527 2.497-1.844.486-3.662 1.048-5.456 1.603h-.001l-.001.001c-8.264 2.556-15.996 4.947-23.197-1.099a96.683 96.683 0 01-11.125 3.423l-.417-1.716a94.81 94.81 0 0010.666-3.265c-.428-5.058 4.529-12.069 8.219-17.289 1.931-2.732 3.516-4.973 3.799-6.186 3.145 8.81-1.564 16.505-8.454 22.069a95.273 95.273 0 0011.67-5.854c-1.866-5.163 1.639-12.405 4.691-18.713 1.761-3.638 3.371-6.965 3.713-9.403 4.723 11.199-2.299 21.004-6.199 26.448l-.42.588a95.912 95.912 0 0012.229-9.002c-2.517-4.713.012-12.138 2.211-18.596 1.256-3.688 2.404-7.06 2.445-9.433 5.837 10.158.273 20.365-2.816 26.033l-.388.713a96.178 96.178 0 0010.367-10.941c-2.211-4.312-.239-11.103 1.482-17.033 1.013-3.489 1.939-6.681 1.876-8.893 5.13 8.05 2.154 16.508-.439 22.126a95.724 95.724 0 004.018-5.968 99.543 99.543 0 003.224-5.601c-2.368-3.027-2.101-8.592-1.868-13.466.141-2.934.27-5.617-.196-7.345 5.477 5.299 4.813 12.395 3.85 17.294a98.87 98.87 0 004.178-10.023c-2.316-2.175-2.652-6.792-2.947-10.827-.174-2.389-.333-4.574-.88-5.927 5.057 3.829 5.119 9.802 4.796 13.872a96.874 96.874 0 002.453-9.234c-2.375-1.654-3.174-5.81-3.871-9.435-.407-2.117-.779-4.052-1.409-5.203 5.092 2.99 5.646 8.594 5.755 12.267a94.606 94.606 0 001.126-7.769c-2.149-1.376-2.915-5.037-3.582-8.226-.385-1.841-.737-3.525-1.304-4.521 4.092 2.315 4.92 6.58 5.146 9.743a92.61 92.61 0 00.222-7.692c-1.915-.928-2.844-3.909-3.653-6.503-.462-1.482-.884-2.837-1.429-3.61 3.604 1.604 4.596 5.131 5.02 7.725a90.732 90.732 0 00-.424-5.907c-2.468-2.804-2.165-6.986-1.892-10.755.082-1.138.162-2.239.162-3.252.292.845.656 1.737 1.033 2.661 1.48 3.636 3.159 7.759 1.482 11.37z" fill="#DBFF00"/><path d="M204.168 47.965l-1.71.459-.609-2.273-2.637.706-.537-2.005-4.009 1.075-.427-1.593-4.383 1.174-1.925.516-.481.129-.619-2.31-4.044 1.084-3.185-11.885-2.352.63-.537-2.004-5.773 1.547.537 2.004-2.476.664 6.676 24.916-.766.205-.581-2.166-7.465 2 .028.108-.962.258 2.312 8.627 2.78-.745.786 2.936 2.245-.602 1.089 4.063 2.476-.663 1.233 4.6 1.711-.459 1.29 4.815 2.476-.663.797 2.97.853 3.187 3.421-.917 1.301-.348 1.218 4.546 14.254-3.82-1.218-4.546.588-.157 2.619-.702.767-.205-2.504-9.344 2.441-.654-2.029-7.571 1.925-.516-4.576-17.075-.018.004zm-15.657 37.212l-1.276-4.761-2.477.663-1.064-3.973-1.711.458-1.29-4.815-2.477.664-1.232-4.6-2.245.601-.614-2.29-2.762.74-1.199-4.476 3.956-1.06.58 2.166 1.835-.492 2.005 7.482 3.421-.916-9.218-34.402 3.76-1.008 6.354 23.716 3.421-.916-2.633-9.827 3.065-.82 2.911 10.864 3.421-.917-2.292-8.556 3.082-.825.427 1.592 4.098-1.098.537 2.005 2.138-.573 4.067 15.179-1.924.515 1.899 7.088-2.423.65 2.034 7.589-16.179 4.335.005.018z" fill="#CACDD0"/><path d="M206.413 47.364l-1.711.458-.609-2.273-2.637.707-.537-2.005-4.009 1.074-.427-1.593-4.383 1.175-1.924.515-.481.13-.619-2.31-4.063 1.089-3.184-11.885-2.352.63-.537-2.005-5.773 1.547.537 2.005-2.477.663 6.676 24.916-.766.205-.58-2.166-7.466 2 .029.108-.962.258 2.312 8.627 2.779-.744.787 2.935 2.245-.602 1.088 4.064 2.477-.664 1.233 4.6 1.71-.458 1.29 4.815 2.477-.664.796 2.971.854 3.186 3.421-.916 1.3-.349 1.219 4.546 14.254-3.819-1.218-4.546.588-.158 2.637-.706.766-.206-2.504-9.343 2.424-.65-2.029-7.57 1.924-.516-4.575-17.076zm-15.658 37.211l-1.275-4.76-2.477.663-1.065-3.974-1.71.459-1.291-4.815-2.476.663-1.233-4.6-2.245.602-.614-2.291-2.779.744-1.199-4.474 3.955-1.06.581 2.166 1.835-.492 2.005 7.482 3.421-.917-9.218-34.402 3.759-1.008 6.355 23.717 3.421-.917-2.633-9.826 3.065-.822 2.911 10.865 3.421-.917-2.293-8.555 3.083-.826.427 1.593 4.098-1.098.537 2.004 2.138-.573 4.067 15.179-1.924.516 1.899 7.088-2.423.649 2.033 7.59-16.161 4.33.005.017z" fill="#F0F0F0"/><path d="M165.152 226.171l5.6-4.86c.426-.36.773-.687 1.04-.98.28-.293.5-.567.66-.82.16-.267.266-.527.32-.78.066-.253.1-.527.1-.82 0-.787-.234-1.433-.7-1.94-.467-.52-1.107-.78-1.92-.78-.974 0-1.72.267-2.24.8-.52.52-.78 1.26-.78 2.22h-1.88c0-.68.113-1.307.34-1.88a4.343 4.343 0 011-1.5 4.66 4.66 0 011.56-.96c.6-.24 1.266-.36 2-.36.706 0 1.34.113 1.9.34.56.213 1.033.52 1.42.92.386.387.68.847.88 1.38.2.533.3 1.12.3 1.76 0 .48-.074.927-.22 1.34a4.801 4.801 0 01-.62 1.18c-.254.373-.567.74-.94 1.1-.36.347-.76.707-1.2 1.08l-4.18 3.46h7.36v1.64h-9.8v-1.54zm17.001 1.74c-.68 0-1.327-.113-1.94-.34-.6-.227-1.127-.613-1.58-1.16-.453-.56-.813-1.3-1.08-2.22-.267-.933-.4-2.093-.4-3.48v-.4c0-1.293.133-2.373.4-3.24s.627-1.56 1.08-2.08c.453-.533.98-.913 1.58-1.14a5.542 5.542 0 011.94-.34c.68 0 1.32.113 1.92.34a3.824 3.824 0 011.6 1.14c.453.52.813 1.213 1.08 2.08.267.867.4 1.947.4 3.24v.4c0 1.387-.133 2.547-.4 3.48-.267.92-.627 1.66-1.08 2.22a3.753 3.753 0 01-1.6 1.16c-.6.227-1.24.34-1.92.34zm0-1.64c.413 0 .807-.073 1.18-.22.387-.16.72-.44 1-.84.293-.413.52-.98.68-1.7.173-.72.26-1.653.26-2.8v-.4c0-1.04-.087-1.893-.26-2.56-.16-.667-.387-1.193-.68-1.58-.28-.387-.613-.653-1-.8a3.191 3.191 0 00-1.18-.22c-.427 0-.827.073-1.2.22-.373.147-.707.413-1 .8-.28.387-.507.913-.68 1.58-.16.667-.24 1.52-.24 2.56v.4c0 1.147.08 2.08.24 2.8.173.72.4 1.287.68 1.7.293.4.627.68 1 .84.373.147.773.22 1.2.22zm7.002-.1l5.6-4.86c.427-.36.774-.687 1.04-.98.28-.293.5-.567.66-.82.16-.267.267-.527.32-.78.067-.253.1-.527.1-.82 0-.787-.233-1.433-.7-1.94-.466-.52-1.106-.78-1.92-.78-.973 0-1.72.267-2.24.8-.52.52-.78 1.26-.78 2.22h-1.88c0-.68.114-1.307.34-1.88a4.357 4.357 0 011-1.5 4.66 4.66 0 011.56-.96c.6-.24 1.267-.36 2-.36.707 0 1.34.113 1.9.34a3.84 3.84 0 011.42.92c.387.387.68.847.88 1.38.2.533.3 1.12.3 1.76 0 .48-.073.927-.22 1.34a4.734 4.734 0 01-.62 1.18c-.253.373-.566.74-.94 1.1-.36.347-.76.707-1.2 1.08l-4.18 3.46h7.36v1.64h-9.8v-1.54zm16.502 1.74c-.76 0-1.44-.1-2.04-.3a4.69 4.69 0 01-1.5-.86 3.593 3.593 0 01-.94-1.26 3.942 3.942 0 01-.32-1.58h1.88c0 .68.233 1.24.7 1.68.467.427 1.207.64 2.22.64 1.013 0 1.753-.22 2.22-.66.467-.453.7-1.04.7-1.76 0-.747-.24-1.347-.72-1.8-.467-.467-1.2-.7-2.2-.7h-1.5v-1.6h1.5c.96 0 1.653-.2 2.08-.6.427-.413.64-.98.64-1.7 0-.693-.207-1.233-.62-1.62-.413-.4-1.113-.6-2.1-.6-.947 0-1.64.207-2.08.62-.427.4-.64.9-.64 1.5h-1.88c0-.52.1-1.013.3-1.48.213-.467.513-.867.9-1.2.4-.347.88-.62 1.44-.82.573-.2 1.227-.3 1.96-.3.733 0 1.387.1 1.96.3.573.2 1.053.467 1.44.8.4.333.7.727.9 1.18.2.453.3.927.3 1.42 0 .8-.213 1.48-.64 2.04-.413.547-1 .933-1.76 1.16.8.253 1.433.667 1.9 1.24.467.573.7 1.36.7 2.36 0 .533-.107 1.04-.32 1.52-.213.467-.527.88-.94 1.24-.4.347-.9.627-1.5.84-.6.2-1.28.3-2.04.3z" fill="#fff" fill-opacity=".6"/><path d="M67.256 265.939h8.8v10.6h-1.76v-9.04h-5.28v9.04h-1.76v-10.6zm16.392 10.8c-.68 0-1.326-.107-1.94-.32a4.726 4.726 0 01-1.62-1c-.466-.453-.84-1.02-1.12-1.7-.28-.68-.42-1.473-.42-2.38v-.4c0-.853.14-1.607.42-2.26.28-.653.654-1.193 1.12-1.62a4.475 4.475 0 011.62-.98 5.544 5.544 0 011.94-.34c.68 0 1.327.113 1.94.34.614.213 1.154.54 1.62.98.467.427.84.967 1.12 1.62.28.653.42 1.407.42 2.26v.4c0 .907-.14 1.7-.42 2.38-.28.68-.653 1.247-1.12 1.7a4.725 4.725 0 01-1.62 1 5.87 5.87 0 01-1.94.32zm0-1.6c.4 0 .8-.067 1.2-.2.4-.147.754-.367 1.06-.66.307-.307.554-.7.74-1.18.2-.48.3-1.067.3-1.76v-.4c0-.64-.1-1.187-.3-1.64a3.22 3.22 0 00-.74-1.12 2.794 2.794 0 00-1.06-.64c-.4-.133-.8-.2-1.2-.2-.4 0-.8.067-1.2.2-.4.133-.753.347-1.06.64-.306.293-.56.667-.76 1.12-.186.453-.28 1-.28 1.64v.4c0 .693.094 1.28.28 1.76.2.48.454.873.76 1.18.307.293.66.513 1.06.66.4.133.8.2 1.2.2zm12.593-9.2h4.6c1.306 0 2.266.273 2.88.82.613.533.92 1.227.92 2.08 0 .227-.04.46-.12.7a2.48 2.48 0 01-.34.64c-.134.2-.3.373-.5.52-.187.147-.4.26-.64.34.653.16 1.146.467 1.48.92.346.44.52.96.52 1.56 0 .92-.307 1.653-.92 2.2-.614.547-1.574.82-2.88.82h-5v-10.6zm5 9.04c.746 0 1.273-.133 1.58-.4.306-.267.46-.647.46-1.14 0-.507-.154-.893-.46-1.16-.307-.28-.834-.42-1.58-.42h-3.24v3.12h3.24zm-.4-4.56c.76 0 1.286-.133 1.58-.4.306-.267.46-.633.46-1.1 0-.44-.154-.787-.46-1.04-.294-.253-.82-.38-1.58-.38h-2.84v2.92h2.84zm11.108 6.32c-.68 0-1.326-.107-1.94-.32a4.48 4.48 0 01-1.62-.98c-.466-.453-.84-1.02-1.12-1.7-.28-.68-.42-1.48-.42-2.4v-.4c0-.88.134-1.64.4-2.28.267-.653.62-1.193 1.06-1.62a4.36 4.36 0 011.56-.98 5.58 5.58 0 011.88-.32c1.56 0 2.767.427 3.62 1.28.854.853 1.28 2.06 1.28 3.62v1.12h-8.04c0 .627.1 1.153.3 1.58a2.967 2.967 0 001.84 1.62c.4.12.8.18 1.2.18.8 0 1.414-.133 1.84-.4a2.22 2.22 0 00.94-1.1h1.72c-.106.507-.3.953-.58 1.34-.266.387-.6.713-1 .98a4.517 4.517 0 01-1.34.58c-.493.133-1.02.2-1.58.2zm-.1-9.4c-.413 0-.813.06-1.2.18a2.789 2.789 0 00-1.04.54 2.78 2.78 0 00-.72.92c-.186.373-.28.82-.28 1.34h6.38c-.013-.547-.106-1.007-.28-1.38a2.272 2.272 0 00-.66-.92 2.56 2.56 0 00-1-.52 4.334 4.334 0 00-1.2-.16zm7.302-1.4h1.64v2c.36-.707.86-1.247 1.5-1.62.653-.387 1.406-.58 2.26-.58 1.333 0 2.4.44 3.2 1.32.8.867 1.2 2.16 1.2 3.88v.4c0 .907-.107 1.7-.32 2.38-.214.667-.514 1.227-.9 1.68-.387.44-.854.773-1.4 1a4.505 4.505 0 01-1.78.34c-.907 0-1.667-.2-2.28-.6-.6-.4-1.054-.9-1.36-1.5v5.9h-1.76v-14.6zm5 9.24c.426 0 .826-.08 1.2-.24.373-.173.693-.42.96-.74.28-.32.493-.72.64-1.2.16-.48.24-1.033.24-1.66v-.4a4.61 4.61 0 00-.24-1.54 3.07 3.07 0 00-.64-1.14 2.541 2.541 0 00-.96-.72 3.019 3.019 0 00-1.2-.24c-.48 0-.92.08-1.32.24-.4.147-.74.36-1.02.64-.28.267-.5.587-.66.96-.16.373-.24.773-.24 1.2v1.6c0 .48.08.92.24 1.32.16.4.38.74.66 1.02s.62.5 1.02.66c.4.16.84.24 1.32.24zm11.404 1.56c-.68 0-1.313-.107-1.9-.32a4.208 4.208 0 01-1.52-1c-.426-.453-.766-1.02-1.02-1.7-.24-.68-.36-1.473-.36-2.38v-.4c0-.853.134-1.607.4-2.26.267-.653.62-1.193 1.06-1.62.44-.44.947-.767 1.52-.98a5.005 5.005 0 011.82-.34c.627 0 1.187.087 1.68.26.507.173.94.413 1.3.72.374.307.674.667.9 1.08.24.413.414.86.52 1.34h-1.8a3.846 3.846 0 00-.38-.7 1.945 1.945 0 00-.52-.58c-.2-.16-.44-.287-.72-.38a3.11 3.11 0 00-.98-.14c-.386 0-.76.073-1.12.22-.36.133-.68.347-.96.64-.28.28-.506.647-.68 1.1-.16.453-.24 1-.24 1.64v.4c0 .68.08 1.267.24 1.76.174.48.4.873.68 1.18.28.293.6.513.96.66.36.133.734.2 1.12.2.654 0 1.2-.16 1.64-.48.454-.32.774-.76.96-1.32h1.8c-.253 1.053-.773 1.887-1.56 2.5-.786.6-1.733.9-2.84.9zm6.799-10.8h1.76v8l5.48-8h1.76v10.6h-1.76v-8l-5.48 8h-1.76v-10.6zm12.207 0h1.76v8l5.48-8h1.76v10.6h-1.76v-8l-5.48 8h-1.76v-10.6zm22.707 10.8a6.284 6.284 0 01-2.24-.4 5.252 5.252 0 01-1.88-1.28c-.547-.587-.98-1.327-1.3-2.22-.32-.893-.48-1.96-.48-3.2v-.4c0-1.2.16-2.233.48-3.1.32-.867.753-1.58 1.3-2.14a5.144 5.144 0 011.88-1.24 6.025 6.025 0 012.24-.42c.76 0 1.453.1 2.08.3.64.2 1.2.487 1.68.86s.867.833 1.16 1.38c.307.547.5 1.167.58 1.86h-2c-.187-.907-.58-1.587-1.18-2.04-.6-.453-1.373-.68-2.32-.68a3.84 3.84 0 00-1.44.28 3.393 3.393 0 00-1.26.9c-.36.4-.653.933-.88 1.6-.213.667-.32 1.48-.32 2.44v.4c0 1.013.12 1.867.36 2.56.24.68.547 1.233.92 1.66.373.427.793.733 1.26.92.467.187.92.28 1.36.28 1.04 0 1.853-.253 2.44-.76s.94-1.16 1.06-1.96h2c-.107.773-.32 1.44-.64 2-.32.547-.727 1-1.22 1.36-.48.36-1.033.627-1.66.8a7.82 7.82 0 01-1.98.24zm8.494-14.2h1.96l4.68 8.9 4.68-8.9h1.88v14h-1.88v-10.6l-4.02 7.6h-1.4l-4.02-7.6v10.6h-1.88v-14zm21.607 14.2c-.84 0-1.574-.1-2.2-.3-.627-.2-1.154-.473-1.58-.82a4.284 4.284 0 01-1.02-1.24 5.474 5.474 0 01-.5-1.54h1.88c.066.307.18.6.34.88.16.267.373.5.64.7.28.2.62.36 1.02.48.4.107.873.16 1.42.16 1.12 0 1.966-.213 2.54-.64.586-.427.88-.953.88-1.58 0-.387-.067-.713-.2-.98-.12-.267-.334-.5-.64-.7-.294-.2-.687-.38-1.18-.54-.48-.16-1.074-.32-1.78-.48a17.967 17.967 0 01-2.04-.56c-.56-.213-1.027-.473-1.4-.78a3.15 3.15 0 01-.82-1.14c-.174-.44-.26-.98-.26-1.62 0-.52.113-1 .34-1.44.226-.453.546-.847.96-1.18.426-.333.94-.593 1.54-.78.613-.2 1.3-.3 2.06-.3.746 0 1.4.1 1.96.3.56.187 1.033.447 1.42.78.4.333.713.727.94 1.18.226.44.386.92.48 1.44h-1.88a3.079 3.079 0 00-.3-.78 1.845 1.845 0 00-.56-.64 2.497 2.497 0 00-.86-.44c-.334-.107-.734-.16-1.2-.16-.96 0-1.707.2-2.24.6-.52.387-.78.86-.78 1.42 0 .36.066.673.2.94.133.253.34.48.62.68.28.187.633.353 1.06.5.44.133.96.267 1.56.4.866.187 1.606.4 2.22.64.626.227 1.133.507 1.52.84.4.333.686.727.86 1.18.186.453.28.993.28 1.62 0 .547-.12 1.06-.36 1.54-.24.467-.587.88-1.04 1.24-.454.347-1.007.62-1.66.82-.654.2-1.4.3-2.24.3zm13.393-14.2h1.96l4.68 8.9 4.68-8.9h1.88v14h-1.88v-10.6l-4.02 7.6h-1.4l-4.02-7.6v10.6h-1.88v-14zm19.827 14.2c-.587 0-1.107-.08-1.56-.24a3.395 3.395 0 01-1.12-.7 2.917 2.917 0 01-.7-1.04c-.16-.4-.24-.84-.24-1.32 0-1.053.306-1.813.92-2.28.626-.467 1.52-.7 2.68-.7h3.44v-.72c0-.907-.207-1.533-.62-1.88-.4-.347-1.007-.52-1.82-.52-.76 0-1.314.147-1.66.44-.347.28-.54.6-.58.96h-1.76c.026-.427.14-.82.34-1.18a3.21 3.21 0 01.84-.96c.36-.267.786-.473 1.28-.62.493-.16 1.04-.24 1.64-.24 1.253 0 2.246.3 2.98.9.746.587 1.12 1.553 1.12 2.9v5.78c.013.413.046.82.1 1.22h-1.54c-.04-.307-.067-.593-.08-.86-.014-.28-.02-.593-.02-.94-.28.56-.734 1.033-1.36 1.42-.627.387-1.387.58-2.28.58zm.38-1.6c.413 0 .8-.053 1.16-.16.373-.12.7-.287.98-.5.28-.227.5-.5.66-.82.16-.32.24-.693.24-1.12v-.72h-3.14c-.654 0-1.167.133-1.54.4-.374.253-.56.66-.56 1.22 0 .493.173.9.52 1.22.36.32.92.48 1.68.48zm12.108 5.6c-.773 0-1.433-.08-1.98-.24-.546-.147-1-.353-1.36-.62a2.775 2.775 0 01-.8-.96 3.506 3.506 0 01-.36-1.18h1.84c.067.213.16.407.28.58.12.173.28.32.48.44.2.12.454.213.76.28.32.067.7.1 1.14.1 1.08 0 1.874-.26 2.38-.78.507-.52.76-1.26.76-2.22v-1.7c-.306.707-.78 1.233-1.42 1.58-.626.347-1.366.52-2.22.52a4.65 4.65 0 01-1.8-.34 3.799 3.799 0 01-1.38-1c-.386-.44-.686-.987-.9-1.64-.213-.667-.32-1.44-.32-2.32v-.4c0-.813.107-1.533.32-2.16.227-.64.534-1.173.92-1.6.387-.44.847-.773 1.38-1a4.596 4.596 0 011.78-.34c.907 0 1.694.207 2.36.62.667.4 1.134.927 1.4 1.58v-2h1.64v10.2c0 1.44-.42 2.567-1.26 3.38-.84.813-2.053 1.22-3.64 1.22zm-.1-5.76a3.8 3.8 0 001.32-.22c.4-.16.74-.38 1.02-.66s.5-.613.66-1c.16-.387.24-.807.24-1.26v-1.6c0-.4-.08-.78-.24-1.14-.16-.36-.38-.673-.66-.94a2.91 2.91 0 00-1.02-.62c-.4-.16-.84-.24-1.32-.24-.426 0-.826.08-1.2.24-.373.16-.7.393-.98.7-.266.307-.48.68-.64 1.12-.146.427-.22.92-.22 1.48v.4c0 .6.074 1.133.22 1.6.16.467.374.86.64 1.18.28.32.607.56.98.72.374.16.774.24 1.2.24zm11.225 1.76c-.587 0-1.107-.08-1.56-.24a3.405 3.405 0 01-1.12-.7 2.917 2.917 0 01-.7-1.04c-.16-.4-.24-.84-.24-1.32 0-1.053.307-1.813.92-2.28.627-.467 1.52-.7 2.68-.7h3.44v-.72c0-.907-.207-1.533-.62-1.88-.4-.347-1.007-.52-1.82-.52-.76 0-1.313.147-1.66.44-.347.28-.54.6-.58.96h-1.76c.027-.427.14-.82.34-1.18a3.21 3.21 0 01.84-.96c.36-.267.787-.473 1.28-.62.493-.16 1.04-.24 1.64-.24 1.253 0 2.247.3 2.98.9.747.587 1.12 1.553 1.12 2.9v5.78c.013.413.047.82.1 1.22h-1.54c-.04-.307-.067-.593-.08-.86-.013-.28-.02-.593-.02-.94-.28.56-.733 1.033-1.36 1.42-.627.387-1.387.58-2.28.58zm.38-1.6c.413 0 .8-.053 1.16-.16.373-.12.7-.287.98-.5.28-.227.5-.5.66-.82.16-.32.24-.693.24-1.12v-.72h-3.14c-.653 0-1.167.133-1.54.4-.373.253-.56.66-.56 1.22 0 .493.173.9.52 1.22.36.32.92.48 1.68.48zm7.109-.06l6.28-7.58h-6.08v-1.56h8.2v1.46l-6.28 7.58h6.48v1.56h-8.6v-1.46zm11.195-9.14h1.76v10.6h-1.76v-10.6zm.88-1.4c-.347 0-.633-.113-.86-.34a1.164 1.164 0 01-.34-.86c0-.347.113-.633.34-.86.227-.227.513-.34.86-.34s.633.113.86.34c.227.227.34.513.34.86s-.113.633-.34.86c-.227.227-.513.34-.86.34zm4.272 1.4h1.64v2c.12-.293.286-.573.5-.84.213-.267.466-.5.76-.7.306-.2.653-.36 1.04-.48.4-.12.84-.18 1.32-.18 1.333 0 2.32.36 2.96 1.08.653.707.98 1.747.98 3.12v6.6h-1.76v-6.2c0-.987-.207-1.733-.62-2.24-.414-.507-1.107-.76-2.08-.76-.52 0-.974.087-1.36.26-.374.173-.68.4-.92.68s-.42.6-.54.96c-.107.36-.16.727-.16 1.1v6.2h-1.76v-10.6zm16.704 10.8c-.68 0-1.326-.107-1.94-.32a4.48 4.48 0 01-1.62-.98c-.466-.453-.84-1.02-1.12-1.7-.28-.68-.42-1.48-.42-2.4v-.4c0-.88.134-1.64.4-2.28.267-.653.62-1.193 1.06-1.62a4.36 4.36 0 011.56-.98 5.58 5.58 0 011.88-.32c1.56 0 2.767.427 3.62 1.28.854.853 1.28 2.06 1.28 3.62v1.12h-8.04c0 .627.1 1.153.3 1.58a2.967 2.967 0 001.84 1.62c.4.12.8.18 1.2.18.8 0 1.414-.133 1.84-.4a2.22 2.22 0 00.94-1.1h1.72c-.106.507-.3.953-.58 1.34-.266.387-.6.713-1 .98a4.517 4.517 0 01-1.34.58c-.493.133-1.02.2-1.58.2zm-.1-9.4c-.413 0-.813.06-1.2.18a2.789 2.789 0 00-1.04.54 2.78 2.78 0 00-.72.92c-.186.373-.28.82-.28 1.34h6.38c-.013-.547-.106-1.007-.28-1.38a2.272 2.272 0 00-.66-.92 2.56 2.56 0 00-1-.52 4.334 4.334 0 00-1.2-.16zm-186.448 26.6h1.76v8l5.48-8h1.76v10.6h-1.76v-8l-5.48 8h-1.76v-10.6zm17.607-3.4h4.9c.88 0 1.646.107 2.3.32.666.213 1.22.507 1.66.88.44.373.773.82 1 1.34.226.507.34 1.06.34 1.66 0 .933-.28 1.753-.84 2.46-.547.693-1.36 1.18-2.44 1.46l3.68 5.88h-2.22l-3.34-5.64h-3.16v5.64h-1.88v-14zm4.7 6.76c1.293 0 2.22-.233 2.78-.7.56-.48.84-1.1.84-1.86s-.28-1.373-.84-1.84c-.56-.48-1.487-.72-2.78-.72h-2.82v5.12h2.82zm11.318 7.44c-.586 0-1.106-.08-1.56-.24a3.405 3.405 0 01-1.12-.7 2.93 2.93 0 01-.7-1.04c-.16-.4-.24-.84-.24-1.32 0-1.053.307-1.813.92-2.28.627-.467 1.52-.7 2.68-.7h3.44v-.72c0-.907-.206-1.533-.62-1.88-.4-.347-1.006-.52-1.82-.52-.76 0-1.313.147-1.66.44-.346.28-.54.6-.58.96h-1.76c.027-.427.14-.82.34-1.18.214-.373.494-.693.84-.96.36-.267.787-.473 1.28-.62.494-.16 1.04-.24 1.64-.24 1.254 0 2.247.3 2.98.9.747.587 1.12 1.553 1.12 2.9v5.78c.014.413.047.82.1 1.22h-1.54c-.04-.307-.066-.593-.08-.86-.013-.28-.02-.593-.02-.94-.28.56-.733 1.033-1.36 1.42-.626.387-1.386.58-2.28.58zm.38-1.6c.414 0 .8-.053 1.16-.16.374-.12.7-.287.98-.5.28-.227.5-.5.66-.82.16-.32.24-.693.24-1.12v-.72h-3.14c-.653 0-1.166.133-1.54.4-.373.253-.56.66-.56 1.22 0 .493.174.9.52 1.22.36.32.92.48 1.68.48zm11.614 1.5c-1.134 0-1.954-.253-2.46-.76-.494-.52-.74-1.3-.74-2.34v-6.04h-1.6v-1.56h1.6v-2.4h1.76v2.4h2.84v1.56h-2.84v5.84c0 .6.126 1.033.38 1.3.253.267.74.4 1.46.4.4 0 .8-.02 1.2-.06v1.56c-.254.027-.507.047-.76.06-.254.027-.534.04-.84.04zm4.307-10.7h1.76v10.6h-1.76v-10.6zm.88-1.4c-.346 0-.633-.113-.86-.34a1.168 1.168 0 01-.34-.86c0-.347.114-.633.34-.86.227-.227.514-.34.86-.34a1.163 1.163 0 011.2 1.2 1.163 1.163 0 01-1.2 1.2zm4.272 1.4h1.64v2a3.458 3.458 0 011.26-1.54c.307-.2.653-.36 1.04-.48.4-.12.84-.18 1.32-.18 1.333 0 2.32.36 2.96 1.08.653.707.98 1.747.98 3.12v6.6h-1.76v-6.2c0-.987-.207-1.733-.62-2.24-.413-.507-1.107-.76-2.08-.76-.52 0-.973.087-1.36.26-.373.173-.68.4-.92.68s-.42.6-.54.96c-.107.36-.16.727-.16 1.1v6.2h-1.76v-10.6zm16.505 14.8c-.774 0-1.434-.08-1.98-.24-.547-.147-1-.353-1.36-.62a2.753 2.753 0 01-.8-.96 3.461 3.461 0 01-.36-1.18h1.84c.066.213.16.407.28.58.12.173.28.32.48.44.2.12.453.213.76.28.32.067.7.1 1.14.1 1.08 0 1.873-.26 2.38-.78.506-.52.76-1.26.76-2.22v-1.7c-.307.707-.78 1.233-1.42 1.58-.627.347-1.367.52-2.22.52a4.644 4.644 0 01-1.8-.34 3.782 3.782 0 01-1.38-1c-.387-.44-.687-.987-.9-1.64-.214-.667-.32-1.44-.32-2.32v-.4c0-.813.106-1.533.32-2.16.226-.64.533-1.173.92-1.6.386-.44.846-.773 1.38-1a4.593 4.593 0 011.78-.34c.906 0 1.693.207 2.36.62.666.4 1.133.927 1.4 1.58v-2h1.64v10.2c0 1.44-.42 2.567-1.26 3.38-.84.813-2.054 1.22-3.64 1.22zm-.1-5.76a3.8 3.8 0 001.32-.22c.4-.16.74-.38 1.02-.66s.5-.613.66-1c.16-.387.24-.807.24-1.26v-1.6c0-.4-.08-.78-.24-1.14-.16-.36-.38-.673-.66-.94a2.91 2.91 0 00-1.02-.62c-.4-.16-.84-.24-1.32-.24-.427 0-.827.08-1.2.24-.374.16-.7.393-.98.7-.267.307-.48.68-.64 1.12-.147.427-.22.92-.22 1.48v.4c0 .6.073 1.133.22 1.6.16.467.373.86.64 1.18.28.32.606.56.98.72.373.16.773.24 1.2.24zm8.204-9.04h1.64v2c.227-.627.6-1.147 1.12-1.56.534-.427 1.18-.64 1.94-.64.267 0 .48.013.64.04.174.027.327.06.46.1v1.64a2.493 2.493 0 00-.52-.14 4.354 4.354 0 00-.68-.04c-.4 0-.773.073-1.12.22a2.665 2.665 0 00-.9.62 2.72 2.72 0 00-.6.94 3.32 3.32 0 00-.22 1.22v6.2h-1.76v-10.6zm11.533 10.8c-1.28 0-2.24-.367-2.88-1.1-.64-.733-.96-1.867-.96-3.4v-6.3h1.76v6.2c0 .987.2 1.733.6 2.24.414.507 1.08.76 2 .76.494 0 .92-.087 1.28-.26.374-.173.674-.4.9-.68.24-.28.414-.6.52-.96.12-.36.18-.727.18-1.1v-6.2h1.76v10.6h-1.64v-2c-.12.293-.286.573-.5.84-.2.267-.453.5-.76.7-.293.2-.633.36-1.02.48-.373.12-.786.18-1.24.18zm8.37-10.8h1.64v2c.12-.293.286-.573.5-.84.213-.267.466-.5.76-.7.306-.2.653-.36 1.04-.48.4-.12.84-.18 1.32-.18 1.333 0 2.32.36 2.96 1.08.653.707.98 1.747.98 3.12v6.6h-1.76v-6.2c0-.987-.207-1.733-.62-2.24-.414-.507-1.107-.76-2.08-.76-.52 0-.974.087-1.36.26-.374.173-.68.4-.92.68s-.42.6-.54.96c-.107.36-.16.727-.16 1.1v6.2h-1.76v-10.6zm16.704 10.8c-.68 0-1.326-.107-1.94-.32a4.48 4.48 0 01-1.62-.98c-.466-.453-.84-1.02-1.12-1.7-.28-.68-.42-1.48-.42-2.4v-.4c0-.88.134-1.64.4-2.28.267-.653.62-1.193 1.06-1.62a4.36 4.36 0 011.56-.98 5.58 5.58 0 011.88-.32c1.56 0 2.767.427 3.62 1.28.854.853 1.28 2.06 1.28 3.62v1.12h-8.04c0 .627.1 1.153.3 1.58a2.967 2.967 0 001.84 1.62c.4.12.8.18 1.2.18.8 0 1.414-.133 1.84-.4a2.22 2.22 0 00.94-1.1h1.72c-.106.507-.3.953-.58 1.34-.266.387-.6.713-1 .98a4.517 4.517 0 01-1.34.58c-.493.133-1.02.2-1.58.2zm-.1-9.4c-.413 0-.813.06-1.2.18a2.789 2.789 0 00-1.04.54 2.78 2.78 0 00-.72.92c-.186.373-.28.82-.28 1.34h6.38c-.013-.547-.106-1.007-.28-1.38a2.272 2.272 0 00-.66-.92 2.56 2.56 0 00-1-.52 4.334 4.334 0 00-1.2-.16zm11.202 9.3c-1.133 0-1.953-.253-2.46-.76-.493-.52-.74-1.3-.74-2.34v-6.04h-1.6v-1.56h1.6v-2.4h1.76v2.4h2.84v1.56h-2.84v5.84c0 .6.127 1.033.38 1.3.253.267.74.4 1.46.4.4 0 .8-.02 1.2-.06v1.56c-.253.027-.507.047-.76.06-.253.027-.533.04-.84.04zm7.128.1c-.587 0-1.107-.08-1.56-.24a3.395 3.395 0 01-1.12-.7 2.917 2.917 0 01-.7-1.04c-.16-.4-.24-.84-.24-1.32 0-1.053.306-1.813.92-2.28.626-.467 1.52-.7 2.68-.7h3.44v-.72c0-.907-.207-1.533-.62-1.88-.4-.347-1.007-.52-1.82-.52-.76 0-1.314.147-1.66.44-.347.28-.54.6-.58.96h-1.76c.026-.427.14-.82.34-1.18a3.21 3.21 0 01.84-.96c.36-.267.786-.473 1.28-.62.493-.16 1.04-.24 1.64-.24 1.253 0 2.246.3 2.98.9.746.587 1.12 1.553 1.12 2.9v5.78c.013.413.046.82.1 1.22h-1.54c-.04-.307-.067-.593-.08-.86-.014-.28-.02-.593-.02-.94-.28.56-.734 1.033-1.36 1.42-.627.387-1.387.58-2.28.58zm.38-1.6c.413 0 .8-.053 1.16-.16.373-.12.7-.287.98-.5.28-.227.5-.5.66-.82.16-.32.24-.693.24-1.12v-.72h-3.14c-.654 0-1.167.133-1.54.4-.374.253-.56.66-.56 1.22 0 .493.173.9.52 1.22.36.32.92.48 1.68.48z" fill="#fff"/></svg>