<svg width="376" height="405" viewBox="0 0 376 405" fill="none" xmlns="http://www.w3.org/2000/svg"><path d="M110.978 132.637h5.852v20.14h-5.852v-20.14zm2.926-1.9c-1.09 0-1.938-.278-2.546-.836-.583-.582-.874-1.317-.874-2.204 0-.886.291-1.608.874-2.166.608-.582 1.456-.874 2.546-.874 1.089 0 1.925.292 2.508.874.608.558.912 1.28.912 2.166 0 .887-.304 1.622-.912 2.204-.583.558-1.419.836-2.508.836zm7.121 1.9h5.396v2.736c.507-.886 1.292-1.646 2.356-2.28 1.09-.633 2.534-.95 4.332-.95 2.407 0 4.218.659 5.434 1.976 1.242 1.292 1.862 3.142 1.862 5.548v13.11h-5.852v-11.78c0-1.317-.291-2.305-.874-2.964-.557-.684-1.482-1.026-2.774-1.026-.709 0-1.317.114-1.824.342a3.43 3.43 0 00-1.254.836c-.329.355-.57.786-.722 1.292a5.021 5.021 0 00-.228 1.52v11.78h-5.852v-20.14zm42.198 20.634c-1.824 0-3.356-.228-4.598-.684-1.241-.481-2.254-1.114-3.04-1.9a7.259 7.259 0 01-1.672-2.736 11.329 11.329 0 01-.57-3.344h6.612c.051 1.014.368 1.837.95 2.47.583.608 1.356.912 2.318.912 1.191 0 2.04-.367 2.546-1.102.532-.76.798-1.824.798-3.192 0-1.444-.316-2.444-.95-3.002-.633-.582-1.431-.874-2.394-.874-1.342 0-2.381.52-3.116 1.558h-6.194v-15.2h18.088v5.586h-11.514v3.724c1.064-.785 2.521-1.178 4.37-1.178 1.267 0 2.432.203 3.496.608a7.053 7.053 0 012.736 1.748c.76.786 1.343 1.761 1.748 2.926.431 1.14.646 2.483.646 4.028 0 1.47-.24 2.8-.722 3.99a8.478 8.478 0 01-2.052 3.04c-.886.836-1.963 1.482-3.23 1.938-1.266.456-2.685.684-4.256.684zm12.554-13.946h12.54v5.624h-12.54v-5.624zm21.413-7.524h-8.17v-5.624h23.18v5.624h-8.17v20.976h-6.84v-20.976zm30.044 21.47c-1.748 0-3.407-.253-4.978-.76a11.095 11.095 0 01-4.142-2.394c-1.165-1.114-2.09-2.52-2.774-4.218-.684-1.722-1.026-3.8-1.026-6.232v-.76c0-2.33.342-4.332 1.026-6.004.684-1.672 1.609-3.04 2.774-4.104a11.388 11.388 0 014.142-2.356c1.571-.506 3.23-.76 4.978-.76 1.748 0 3.407.254 4.978.76 1.571.507 2.939 1.292 4.104 2.356 1.191 1.064 2.128 2.432 2.812 4.104.684 1.672 1.026 3.674 1.026 6.004v.76c0 2.432-.342 4.51-1.026 6.232-.684 1.698-1.621 3.104-2.812 4.218a10.745 10.745 0 01-4.104 2.394c-1.571.507-3.23.76-4.978.76zm0-5.7c.76 0 1.495-.114 2.204-.342a4.578 4.578 0 001.862-1.254c.532-.608.963-1.418 1.292-2.432.329-1.013.494-2.305.494-3.876v-.76c0-1.469-.165-2.685-.494-3.648-.329-.988-.76-1.76-1.292-2.318a4.266 4.266 0 00-1.862-1.216 7.156 7.156 0 00-2.204-.342c-.76 0-1.495.114-2.204.342a4.266 4.266 0 00-1.862 1.216c-.532.558-.963 1.33-1.292 2.318-.329.963-.494 2.179-.494 3.648v.76c0 1.571.165 2.863.494 3.876.329 1.014.76 1.824 1.292 2.432a4.578 4.578 0 001.862 1.254 7.156 7.156 0 002.204.342zm17.272-21.394h10.83c3.699 0 6.422.811 8.17 2.432 1.774 1.596 2.66 3.813 2.66 6.65 0 2.838-.886 5.067-2.66 6.688-1.748 1.596-4.471 2.394-8.17 2.394h-3.99v8.436h-6.84v-26.6zm10.07 12.54c1.748 0 2.977-.291 3.686-.874.71-.582 1.064-1.444 1.064-2.584 0-1.14-.354-2.001-1.064-2.584-.709-.582-1.938-.874-3.686-.874h-3.23v6.916h3.23z" fill="#fff"/><path d="M165.148 226.171l5.6-4.86c.426-.36.773-.687 1.04-.98.28-.293.5-.567.66-.82.16-.267.266-.527.32-.78.066-.253.1-.527.1-.82 0-.787-.234-1.433-.7-1.94-.467-.52-1.107-.78-1.92-.78-.974 0-1.72.267-2.24.8-.52.52-.78 1.26-.78 2.22h-1.88c0-.68.113-1.307.34-1.88a4.343 4.343 0 011-1.5 4.66 4.66 0 011.56-.96c.6-.24 1.266-.36 2-.36.706 0 1.34.113 1.9.34.56.213 1.033.52 1.42.92.386.387.68.847.88 1.38.2.533.3 1.12.3 1.76 0 .48-.074.927-.22 1.34a4.801 4.801 0 01-.62 1.18c-.254.373-.567.74-.94 1.1-.36.347-.76.707-1.2 1.08l-4.18 3.46h7.36v1.64h-9.8v-1.54zm17.001 1.74c-.68 0-1.326-.113-1.94-.34-.6-.227-1.126-.613-1.58-1.16-.453-.56-.813-1.3-1.08-2.22-.266-.933-.4-2.093-.4-3.48v-.4c0-1.293.134-2.373.4-3.24.267-.867.627-1.56 1.08-2.08.454-.533.98-.913 1.58-1.14a5.546 5.546 0 011.94-.34c.68 0 1.32.113 1.92.34a3.818 3.818 0 011.6 1.14c.454.52.814 1.213 1.08 2.08.267.867.4 1.947.4 3.24v.4c0 1.387-.133 2.547-.4 3.48-.266.92-.626 1.66-1.08 2.22-.453.547-.986.933-1.6 1.16-.6.227-1.24.34-1.92.34zm0-1.64c.414 0 .807-.073 1.18-.22.387-.16.72-.44 1-.84.294-.413.52-.98.68-1.7.174-.72.26-1.653.26-2.8v-.4c0-1.04-.086-1.893-.26-2.56-.16-.667-.386-1.193-.68-1.58-.28-.387-.613-.653-1-.8a3.187 3.187 0 00-1.18-.22 3.25 3.25 0 00-1.2.22c-.373.147-.706.413-1 .8-.28.387-.506.913-.68 1.58-.16.667-.24 1.52-.24 2.56v.4c0 1.147.08 2.08.24 2.8.174.72.4 1.287.68 1.7.294.4.627.68 1 .84.374.147.774.22 1.2.22zm7.003-.1l5.6-4.86c.426-.36.773-.687 1.04-.98.28-.293.5-.567.66-.82.16-.267.266-.527.32-.78.066-.253.1-.527.1-.82 0-.787-.234-1.433-.7-1.94-.467-.52-1.107-.78-1.92-.78-.974 0-1.72.267-2.24.8-.52.52-.78 1.26-.78 2.22h-1.88c0-.68.113-1.307.34-1.88a4.343 4.343 0 011-1.5 4.66 4.66 0 011.56-.96c.6-.24 1.266-.36 2-.36.706 0 1.34.113 1.9.34.56.213 1.033.52 1.42.92.386.387.68.847.88 1.38.2.533.3 1.12.3 1.76 0 .48-.074.927-.22 1.34a4.801 4.801 0 01-.62 1.18c-.254.373-.567.74-.94 1.1-.36.347-.76.707-1.2 1.08l-4.18 3.46h7.36v1.64h-9.8v-1.54zm16.501 1.74c-.76 0-1.44-.1-2.04-.3a4.69 4.69 0 01-1.5-.86 3.593 3.593 0 01-.94-1.26 3.942 3.942 0 01-.32-1.58h1.88c0 .68.233 1.24.7 1.68.467.427 1.207.64 2.22.64 1.013 0 1.753-.22 2.22-.66.467-.453.7-1.04.7-1.76 0-.747-.24-1.347-.72-1.8-.467-.467-1.2-.7-2.2-.7h-1.5v-1.6h1.5c.96 0 1.653-.2 2.08-.6.427-.413.64-.98.64-1.7 0-.693-.207-1.233-.62-1.62-.413-.4-1.113-.6-2.1-.6-.947 0-1.64.207-2.08.62-.427.4-.64.9-.64 1.5h-1.88c0-.52.1-1.013.3-1.48.213-.467.513-.867.9-1.2.4-.347.88-.62 1.44-.82.573-.2 1.227-.3 1.96-.3.733 0 1.387.1 1.96.3.573.2 1.053.467 1.44.8.4.333.7.727.9 1.18.2.453.3.927.3 1.42 0 .8-.213 1.48-.64 2.04-.413.547-1 .933-1.76 1.16.8.253 1.433.667 1.9 1.24.467.573.7 1.36.7 2.36 0 .533-.107 1.04-.32 1.52-.213.467-.527.88-.94 1.24-.4.347-.9.627-1.5.84-.6.2-1.28.3-2.04.3z" fill="#fff" fill-opacity=".6"/><g clip-path="url(#clip0_1768_12298)" fill="#fff"><path d="M158.173 72.445h-.907a5.899 5.899 0 00-.434-1.127 9.367 9.367 0 00-.683-1.246 5.846 5.846 0 00-.868-1.061c-.307-.31-.605-.486-.894-.53a12.283 12.283 0 00-1.025-.08 26.803 26.803 0 00-1.144-.027h-.763v15.052c0 .291.062.56.184.808.123.24.338.425.644.557.158.062.487.146.986.252.509.106.903.164 1.184.173v.941h-8.809v-.941c.246-.018.618-.053 1.118-.106.508-.053.859-.12 1.052-.2.289-.114.499-.278.631-.49.14-.22.21-.513.21-.875v-15.17h-.763c-.271 0-.609.008-1.012.026-.403.008-.789.035-1.157.08-.289.035-.591.212-.907.53-.307.31-.591.663-.854 1.06a8.809 8.809 0 00-.697 1.274 7.474 7.474 0 00-.421 1.1h-.92V67.34h16.249v5.105zm18.906 13.712h-7.77v-.942c.684-.044 1.249-.132 1.696-.265.456-.132.684-.296.684-.49 0-.08-.009-.177-.026-.292a1.436 1.436 0 00-.079-.305l-1.552-4.217h-6.534a36.927 36.927 0 00-.604 1.617c-.149.46-.285.885-.408 1.274-.114.38-.193.69-.237.928a3.445 3.445 0 00-.065.584c0 .353.276.627.828.822a6.626 6.626 0 001.867.344v.942h-7.021v-.942a5.9 5.9 0 00.855-.145c.342-.089.622-.204.841-.345.351-.239.623-.486.815-.743.193-.265.382-.628.566-1.087.938-2.36 1.972-5.013 3.102-7.957 1.131-2.944 2.139-5.565 3.024-7.864h1.052l6.218 16.232c.132.345.281.623.447.835a3.1 3.1 0 00.697.623c.202.124.465.23.789.319.324.08.596.124.815.132v.942zm-7.52-7.691l-2.827-7.294-2.774 7.294h5.601zm26.24.172c-.211.027-.495.071-.855.133-.35.053-.635.132-.854.239a1.187 1.187 0 00-.566.57 2.096 2.096 0 00-.157.849v1.458c0 1.061.004 1.777.013 2.148.017.372.035.677.052.916-1.165.53-2.327.937-3.484 1.22a14.293 14.293 0 01-3.405.424 9.024 9.024 0 01-3.444-.676 8.612 8.612 0 01-2.892-1.923c-.833-.84-1.495-1.861-1.985-3.064-.491-1.202-.737-2.546-.737-4.031 0-1.432.233-2.758.697-3.978a9.549 9.549 0 011.998-3.196 8.678 8.678 0 012.972-2.056 9.32 9.32 0 013.707-.742c1.052 0 1.968.128 2.748.384.78.257 1.468.566 2.064.928l.539-.901h1.051l.119 6.577h-1.078a18.245 18.245 0 00-.684-2.135 7.462 7.462 0 00-1.052-1.896c-.429-.557-.955-1-1.577-1.326-.614-.336-1.35-.504-2.209-.504-.938 0-1.775.195-2.511.583-.736.38-1.376.95-1.919 1.711-.535.734-.947 1.649-1.236 2.745-.289 1.096-.434 2.32-.434 3.674 0 1.193.14 2.32.421 3.381.289 1.052.705 1.963 1.249 2.732a5.948 5.948 0 002.037 1.856c.815.451 1.74.677 2.774.677.772 0 1.473-.12 2.104-.358.64-.239 1.091-.491 1.354-.756.07-.46.105-.924.105-1.393.009-.468.013-.866.013-1.193V80.68c0-.37-.052-.698-.158-.98-.096-.293-.302-.505-.617-.637-.29-.133-.684-.23-1.184-.292-.49-.07-.876-.115-1.157-.133v-.968h8.178v.968zm16.461 1.923l-.394 5.596h-14.58v-.941c.211-.018.513-.049.907-.093.403-.044.684-.102.842-.172.263-.115.451-.283.565-.504.123-.221.184-.504.184-.85V70.126c0-.301-.053-.566-.158-.796-.096-.23-.293-.415-.591-.557a4.225 4.225 0 00-.855-.305 4.454 4.454 0 00-.894-.186v-.941h7.875v.941a6.225 6.225 0 00-.96.133c-.385.08-.666.15-.841.212-.298.106-.504.287-.618.544-.105.256-.158.53-.158.822V82.63c0 .583.027 1.039.079 1.366.062.318.197.566.408.742.201.16.499.266.894.319.403.044.964.066 1.683.066.324 0 .661-.009 1.012-.027.35-.017.683-.053.999-.106a5.24 5.24 0 00.841-.212c.263-.097.456-.216.579-.358.36-.407.775-1.021 1.249-1.843.482-.831.815-1.503.999-2.016h.933zm9.425 5.596h-8.401v-.941c.237-.018.579-.044 1.025-.08.447-.035.763-.088.947-.159.289-.115.5-.27.631-.464.131-.203.197-.482.197-.836V70.045c0-.31-.048-.566-.145-.77-.096-.211-.323-.388-.683-.53a6.385 6.385 0 00-.999-.291 5.961 5.961 0 00-.973-.173v-.941h8.401v.941a7.714 7.714 0 00-.974.106 6.169 6.169 0 00-.985.213c-.333.106-.557.278-.671.517-.113.239-.17.504-.17.795v13.62c0 .291.06.552.183.782.132.221.351.398.658.53.183.071.482.15.894.24.421.079.776.123 1.065.132v.941zm21.482-17.876c-.245.01-.622.08-1.131.212-.508.133-.872.27-1.091.412-.315.22-.53.645-.644 1.273-.105.627-.158 1.423-.158 2.387v13.778h-1.144l-11.306-15.396v9.707c0 1.087.066 1.923.197 2.506.141.584.351 1 .631 1.247.202.194.619.376 1.25.544.63.168 1.047.256 1.248.265v.941h-7.651v-.941c.237-.018.636-.102 1.196-.252.562-.16.912-.3 1.052-.424.307-.248.517-.624.631-1.128.114-.513.171-1.383.171-2.612v-9.27c0-.406-.07-.813-.21-1.22-.141-.406-.329-.72-.566-.941-.315-.292-.745-.54-1.288-.743-.535-.212-.968-.327-1.301-.345v-.941h5.324l10.491 14.348v-8.95c0-1.097-.07-1.937-.21-2.52-.14-.593-.342-.986-.605-1.18-.246-.169-.648-.332-1.21-.491-.552-.16-.972-.248-1.261-.266v-.941h7.585v.941zm17.209 12.333l-.356 5.543h-15.486v-.941c.263-.018.613-.053 1.052-.106.438-.062.723-.124.855-.186.279-.133.472-.305.578-.517.114-.212.17-.482.17-.81V70.073a1.9 1.9 0 00-.144-.77c-.096-.23-.298-.415-.604-.556a4.402 4.402 0 00-.961-.305 6.896 6.896 0 00-.946-.16v-.941h14.435v4.535h-.986c-.175-.672-.557-1.383-1.144-2.135-.578-.76-1.13-1.176-1.656-1.246a12.058 12.058 0 00-.973-.08 27.75 27.75 0 00-1.288-.027h-2.932v7.48h2.103c.675 0 1.167-.062 1.473-.186a2.08 2.08 0 00.828-.65c.193-.256.356-.597.487-1.02.14-.434.232-.84.276-1.22h.986v7.359h-.986a5.612 5.612 0 00-.29-1.34c-.148-.477-.307-.822-.473-1.034-.272-.344-.583-.57-.933-.676-.342-.106-.798-.16-1.368-.16h-2.103v5.65c0 .566.04 1.012.118 1.34.079.326.232.574.461.742.227.168.538.279.933.332.394.044.955.066 1.683.066h1.143c.474 0 .873-.018 1.196-.053a7.353 7.353 0 001.026-.186c.36-.097.614-.225.763-.384.403-.425.824-1.066 1.262-1.923.447-.867.731-1.503.854-1.91h.947z"/><path d="M128.628 59.67s3.022-3.966 2.649-7.314c-.3-2.659-3.594-5.093-8.062-4.853-4.153.225-7.647 2.672-8.105 4.825-.444 2.04.329 4.726 4.224 6.386 3.881 1.646 7.948 1.42 7.948 1.42s-6.501 7.738-7.06 14.434c-.573 6.696.945 17.4 17.084 21.86 0 0 .759-.183.258-.745 0 0-7.633-1.604-12.301-8.793-4.668-7.188-2.077-16.233-2.077-16.233s1.261-4.586 4.912-10.227c0 0 16.655 1.702 32.479.62v-.62c-.015.028-18.144 1.266-31.949-.76zm-.659-.393c-11.914-1.21-11.542-4.403-11.542-6.387 0-2.264 2.306-4.43 5.585-4.797 3.28-.365 7.432 1.703 7.948 5.177.401 2.757-1.991 6.007-1.991 6.007zm40.54-19.329l-7.947 14.49 2.706 6.625 8.578-.492 8.449-12.83-11.786-7.793zm-2.42 18.766c-1.131 0-2.048-.9-2.048-2.012 0-1.111.917-2.011 2.048-2.011s2.048.9 2.048 2.011c0 1.111-.917 2.012-2.048 2.012z"/></g><path fill-rule="evenodd" clip-rule="evenodd" d="M22.032 118.049c-.25 2.274-.424 4.55-.52 6.824.012-2.464-.156-6.438-3.69-8.667.407.793.623 2.106.86 3.543.43 2.616.929 5.64 2.776 6.665a99.873 99.873 0 00.036 6.486c-.491-2.925-1.715-6.374-5.358-8.225.605.961 1.028 2.612 1.49 4.417.828 3.227 1.781 6.947 4.125 8.098.192 2.354.47 4.697.831 7.025-1.078-3.436-3.11-7.938-8.241-9.425.887.952 1.717 2.72 2.625 4.654 1.59 3.387 3.42 7.282 6.209 8.182a95.417 95.417 0 001.944 8.162c-1.61-3.503-4.358-7.823-9.872-8.751 1.072.913 2.185 2.71 3.402 4.676 2.13 3.442 4.581 7.401 7.69 8.022a93.37 93.37 0 004.382 10.837c-2.566-4.303-6.913-10.459-14.852-10.667 1.512.958 3.231 3.022 5.112 5.278 3.382 4.058 7.284 8.739 11.427 8.734a92.518 92.518 0 003.115 5.425 96.937 96.937 0 002.433 3.732c-3.878-4.096-9.548-8.418-17.377-7.337 1.948.826 4.351 2.903 6.98 5.174 4.64 4.01 9.982 8.626 14.75 8.032a97.887 97.887 0 0010.45 11.139c-1.783-.86-3.804-2.09-5.942-3.392-6.133-3.734-13.232-8.056-18.47-5.92.633.461 1.419 1.147 2.346 1.956v.001c4.689 4.093 12.996 11.346 23.607 8.73a97.637 97.637 0 0012.749 9.432c-1.864-.553-4.044-1.418-6.374-2.343-7.102-2.817-15.598-6.188-20.784-2.967.729.362 1.651.926 2.74 1.593 5.566 3.404 15.472 9.463 25.988 4.671a97.021 97.021 0 008.405 4.459c-7.029-1.08-15.975-.94-21.527 2.497 1.845.486 3.664 1.049 5.458 1.604 8.265 2.556 15.996 4.947 23.197-1.099a96.49 96.49 0 0011.125 3.423l.417-1.716a94.793 94.793 0 01-10.666-3.265c.429-5.058-4.528-12.069-8.218-17.289-1.932-2.732-3.516-4.973-3.8-6.186-3.145 8.81 1.565 16.506 8.455 22.069a95.257 95.257 0 01-11.671-5.854c1.866-5.163-1.639-12.405-4.691-18.713-1.761-3.638-3.371-6.965-3.713-9.403-4.724 11.199 2.299 21.004 6.199 26.448l.42.588a95.886 95.886 0 01-12.229-9.002c2.517-4.713-.012-12.138-2.21-18.596-1.257-3.688-2.405-7.06-2.446-9.433-5.837 10.158-.273 20.365 2.816 26.033l.388.713a96.203 96.203 0 01-10.367-10.94c2.211-4.313.24-11.104-1.481-17.034-1.013-3.489-1.94-6.681-1.877-8.893-5.13 8.051-2.153 16.509.44 22.127a95.842 95.842 0 01-4.019-5.969 99.269 99.269 0 01-3.224-5.6c2.369-3.027 2.102-8.593 1.868-13.466-.14-2.935-.27-5.618.196-7.346-5.477 5.3-4.813 12.397-3.849 17.296a98.71 98.71 0 01-4.179-10.025c2.316-2.175 2.653-6.792 2.947-10.827.174-2.389.333-4.574.88-5.927-5.057 3.83-5.118 9.803-4.796 13.873a97.076 97.076 0 01-2.453-9.235c2.375-1.654 3.174-5.81 3.87-9.435.408-2.117.78-4.052 1.41-5.203-5.092 2.99-5.646 8.594-5.755 12.267a94.95 94.95 0 01-1.126-7.769c2.15-1.376 2.915-5.037 3.582-8.226.385-1.841.738-3.525 1.304-4.521-4.093 2.316-4.92 6.583-5.146 9.746a92.466 92.466 0 01-.222-7.695c1.914-.928 2.844-3.909 3.652-6.503.462-1.482.885-2.837 1.43-3.61-3.603 1.603-4.596 5.128-5.02 7.721a90.64 90.64 0 01.424-5.904c2.468-2.804 2.165-6.985 1.892-10.754-.083-1.138-.162-2.239-.162-3.252-.293.845-.657 1.737-1.033 2.661-1.48 3.636-3.16 7.759-1.482 11.371z" fill="#DBFF00"/><path d="M353.967 118.048c.251 2.274.424 4.551.52 6.825-.012-2.464.156-6.438 3.691-8.667-.408.793-.625 2.106-.861 3.543-.431 2.616-.929 5.64-2.776 6.665.058 2.167.046 4.332-.036 6.49.491-2.927 1.714-6.377 5.359-8.229-.605.961-1.029 2.612-1.491 4.417-.828 3.227-1.781 6.947-4.125 8.098a97.644 97.644 0 01-.831 7.025c1.078-3.436 3.11-7.938 8.241-9.425-.887.952-1.717 2.72-2.625 4.654-1.591 3.387-3.419 7.282-6.209 8.182a95.353 95.353 0 01-1.944 8.162c1.61-3.504 4.358-7.823 9.872-8.751-1.072.913-2.185 2.71-3.402 4.676-2.131 3.442-4.581 7.401-7.691 8.022a93.247 93.247 0 01-4.384 10.842c2.566-4.303 6.913-10.464 14.855-10.672-1.511.958-3.231 3.022-5.112 5.278-3.382 4.058-7.284 8.739-11.427 8.734a93.034 93.034 0 01-3.115 5.425 98.27 98.27 0 01-2.434 3.733c3.878-4.096 9.549-8.42 17.378-7.338-1.947.826-4.351 2.903-6.979 5.174-4.641 4.01-9.983 8.626-14.75 8.032a97.878 97.878 0 01-10.451 11.139c1.783-.86 3.804-2.09 5.942-3.392 6.133-3.734 13.232-8.056 18.47-5.92-.633.461-1.419 1.147-2.346 1.957-4.688 4.093-12.996 11.346-23.607 8.73a97.651 97.651 0 01-12.749 9.431c1.864-.552 4.044-1.417 6.374-2.342 7.102-2.817 15.598-6.188 20.784-2.967-.729.362-1.652.926-2.741 1.593-5.565 3.403-15.471 9.463-25.987 4.671a96.97 96.97 0 01-8.405 4.459c7.029-1.081 15.975-.94 21.527 2.497-1.844.486-3.662 1.048-5.456 1.603h-.001l-.001.001c-8.264 2.556-15.996 4.947-23.197-1.099a96.683 96.683 0 01-11.125 3.423l-.417-1.716a94.81 94.81 0 0010.666-3.265c-.428-5.058 4.529-12.069 8.219-17.289 1.931-2.732 3.516-4.973 3.799-6.186 3.145 8.81-1.564 16.505-8.454 22.069a95.273 95.273 0 0011.67-5.854c-1.866-5.163 1.639-12.405 4.691-18.713 1.761-3.638 3.371-6.965 3.713-9.403 4.723 11.199-2.299 21.004-6.199 26.448l-.42.588a95.912 95.912 0 0012.229-9.002c-2.517-4.713.012-12.138 2.211-18.596 1.256-3.688 2.404-7.06 2.445-9.433 5.837 10.158.273 20.365-2.816 26.033l-.388.713a96.178 96.178 0 0010.367-10.941c-2.211-4.312-.239-11.103 1.482-17.033 1.013-3.489 1.939-6.681 1.876-8.893 5.13 8.05 2.154 16.508-.439 22.126a95.724 95.724 0 004.018-5.968 99.543 99.543 0 003.224-5.601c-2.368-3.027-2.101-8.592-1.868-13.466.141-2.934.27-5.617-.196-7.345 5.477 5.299 4.813 12.395 3.85 17.294a98.87 98.87 0 004.178-10.023c-2.316-2.175-2.652-6.792-2.947-10.827-.174-2.389-.333-4.574-.88-5.927 5.057 3.829 5.119 9.802 4.796 13.872a96.874 96.874 0 002.453-9.234c-2.375-1.654-3.174-5.81-3.871-9.435-.407-2.117-.779-4.052-1.409-5.203 5.092 2.99 5.646 8.594 5.755 12.267a94.606 94.606 0 001.126-7.769c-2.149-1.376-2.915-5.037-3.582-8.226-.385-1.841-.737-3.525-1.304-4.521 4.092 2.315 4.92 6.58 5.146 9.743a92.61 92.61 0 00.222-7.692c-1.915-.928-2.844-3.909-3.653-6.503-.462-1.482-.884-2.837-1.429-3.61 3.604 1.604 4.596 5.131 5.02 7.725a90.732 90.732 0 00-.424-5.907c-2.468-2.804-2.165-6.986-1.892-10.755.082-1.138.162-2.239.162-3.252.292.845.656 1.737 1.033 2.661 1.48 3.636 3.159 7.759 1.482 11.37z" fill="#DBFF00"/><path d="M72.793 262.539h5c.84 0 1.56.093 2.16.28.6.187 1.093.447 1.48.78.4.32.693.713.88 1.18.187.453.28.953.28 1.5 0 .72-.2 1.34-.6 1.86-.4.507-.893.873-1.48 1.1.827.187 1.48.567 1.96 1.14.48.56.72 1.293.72 2.2 0 .573-.093 1.1-.28 1.58-.187.48-.48.9-.88 1.26-.4.347-.92.62-1.56.82-.627.2-1.387.3-2.28.3h-5.4v-14zm5.4 12.36c.6 0 1.1-.053 1.5-.16.4-.12.72-.28.96-.48.24-.213.407-.467.5-.76.107-.293.16-.62.16-.98s-.053-.687-.16-.98a1.556 1.556 0 00-.5-.76c-.24-.213-.567-.373-.98-.48-.4-.12-.9-.18-1.5-.18h-3.5v4.78h3.52zm-.4-6.34c.56 0 1.027-.053 1.4-.16.373-.107.673-.26.9-.46.227-.2.387-.433.48-.7.093-.267.14-.56.14-.88 0-.32-.047-.613-.14-.88a1.509 1.509 0 00-.48-.7c-.227-.187-.527-.333-.9-.44-.373-.107-.84-.16-1.4-.16h-3.12v4.38h3.12zm10.683 2.6l-3.78-5.22h2.04l2.8 3.86 2.8-3.86h1.96l-3.78 5.12 3.98 5.48h-2.08l-2.96-4.14-2.96 4.14h-2l3.98-5.38zm12.126 5.58a5.87 5.87 0 01-1.94-.32 4.725 4.725 0 01-1.62-1c-.467-.453-.84-1.02-1.12-1.7-.28-.68-.42-1.473-.42-2.38v-.4c0-.853.14-1.607.42-2.26.28-.653.653-1.193 1.12-1.62a4.473 4.473 0 011.62-.98 5.544 5.544 0 011.94-.34c.68 0 1.326.113 1.94.34a4.48 4.48 0 011.62.98c.466.427.84.967 1.12 1.62.28.653.42 1.407.42 2.26v.4c0 .907-.14 1.7-.42 2.38-.28.68-.654 1.247-1.12 1.7a4.732 4.732 0 01-1.62 1c-.614.213-1.26.32-1.94.32zm0-1.6c.4 0 .8-.067 1.2-.2.4-.147.753-.367 1.06-.66.306-.307.553-.7.74-1.18.2-.48.3-1.067.3-1.76v-.4c0-.64-.1-1.187-.3-1.64a3.234 3.234 0 00-.74-1.12 2.797 2.797 0 00-1.06-.64c-.4-.133-.8-.2-1.2-.2-.4 0-.8.067-1.2.2-.4.133-.754.347-1.06.64-.307.293-.56.667-.76 1.12-.187.453-.28 1-.28 1.64v.4c0 .693.093 1.28.28 1.76.2.48.453.873.76 1.18.306.293.66.513 1.06.66.4.133.8.2 1.2.2zm6.196-.16h1.3c.147-.2.28-.507.4-.92.12-.413.227-.9.32-1.46.094-.56.16-1.167.2-1.82.054-.667.08-1.347.08-2.04v-2.8h7.4v9.04h1.5v4.06h-1.68v-2.5h-7.84v2.5h-1.68v-4.06zm7.94 0v-7.48h-3.92v1.64c0 .56-.02 1.12-.06 1.68-.04.547-.1 1.073-.18 1.58-.08.493-.18.967-.3 1.42-.106.44-.233.827-.38 1.16h4.84zm5.37-9.04h1.76v8l5.48-8h1.76v10.6h-1.76v-8l-5.48 8h-1.76v-10.6zm12.207 0h1.88l3.78 6.6 3.78-6.6h1.76v10.6h-1.76v-7.7l-3.14 5.4h-1.4l-3.14-5.4v7.7h-1.76v-10.6zm19.394 0h4.6c1.307 0 2.267.273 2.88.82.614.533.92 1.227.92 2.08 0 .227-.04.46-.12.7a2.45 2.45 0 01-.34.64c-.133.2-.3.373-.5.52-.186.147-.4.26-.64.34.654.16 1.147.467 1.48.92.347.44.52.96.52 1.56 0 .92-.306 1.653-.92 2.2-.613.547-1.573.82-2.88.82h-5v-10.6zm5 9.04c.747 0 1.274-.133 1.58-.4.307-.267.46-.647.46-1.14 0-.507-.153-.893-.46-1.16-.306-.28-.833-.42-1.58-.42h-3.24v3.12h3.24zm-.4-4.56c.76 0 1.287-.133 1.58-.4.307-.267.46-.633.46-1.1 0-.44-.153-.787-.46-1.04-.293-.253-.82-.38-1.58-.38h-2.84v2.92h2.84zm15.809 6.32c-.68 0-1.313-.107-1.9-.32a4.2 4.2 0 01-1.52-1c-.427-.453-.767-1.02-1.02-1.7-.24-.68-.36-1.473-.36-2.38v-.4c0-.853.133-1.607.4-2.26.267-.653.62-1.193 1.06-1.62.44-.44.947-.767 1.52-.98a5 5 0 011.82-.34c.627 0 1.187.087 1.68.26.507.173.94.413 1.3.72.373.307.673.667.9 1.08.24.413.413.86.52 1.34h-1.8a3.908 3.908 0 00-.38-.7 1.959 1.959 0 00-.52-.58c-.2-.16-.44-.287-.72-.38a3.113 3.113 0 00-.98-.14c-.387 0-.76.073-1.12.22-.36.133-.68.347-.96.64-.28.28-.507.647-.68 1.1-.16.453-.24 1-.24 1.64v.4c0 .68.08 1.267.24 1.76.173.48.4.873.68 1.18.28.293.6.513.96.66.36.133.733.2 1.12.2.653 0 1.2-.16 1.64-.48.453-.32.773-.76.96-1.32h1.8c-.253 1.053-.773 1.887-1.56 2.5-.787.6-1.733.9-2.84.9zm11.198 0c-.68 0-1.326-.107-1.94-.32a4.732 4.732 0 01-1.62-1c-.466-.453-.84-1.02-1.12-1.7-.28-.68-.42-1.473-.42-2.38v-.4c0-.853.14-1.607.42-2.26.28-.653.654-1.193 1.12-1.62a4.48 4.48 0 011.62-.98 5.546 5.546 0 011.94-.34c.68 0 1.327.113 1.94.34.614.213 1.154.54 1.62.98.467.427.84.967 1.12 1.62.28.653.42 1.407.42 2.26v.4c0 .907-.14 1.7-.42 2.38-.28.68-.653 1.247-1.12 1.7a4.713 4.713 0 01-1.62 1 5.87 5.87 0 01-1.94.32zm0-1.6c.4 0 .8-.067 1.2-.2.4-.147.754-.367 1.06-.66.307-.307.554-.7.74-1.18.2-.48.3-1.067.3-1.76v-.4c0-.64-.1-1.187-.3-1.64a3.207 3.207 0 00-.74-1.12 2.789 2.789 0 00-1.06-.64c-.4-.133-.8-.2-1.2-.2-.4 0-.8.067-1.2.2-.4.133-.753.347-1.06.64-.306.293-.56.667-.76 1.12-.186.453-.28 1-.28 1.64v.4c0 .693.094 1.28.28 1.76.2.48.454.873.76 1.18.307.293.66.513 1.06.66.4.133.8.2 1.2.2zm9.817-7.64h-3.62v-1.56h9v1.56h-3.62v9.04h-1.76v-9.04zm7.385-1.56h1.76v4.42h5.48v-4.42h1.76v10.6h-1.76v-4.62h-5.48v4.62h-1.76v-10.6zm12.207 0h1.76v4.42h1.5c.053-.76.22-1.427.5-2a4.629 4.629 0 011.06-1.46c.44-.387.94-.673 1.5-.86.56-.2 1.153-.3 1.78-.3.68 0 1.313.113 1.9.34.6.213 1.12.54 1.56.98.44.427.787.967 1.04 1.62.267.653.4 1.407.4 2.26v.4c0 .907-.133 1.7-.4 2.38-.253.68-.6 1.247-1.04 1.7-.44.44-.96.773-1.56 1-.587.213-1.22.32-1.9.32a5.765 5.765 0 01-1.8-.28c-.56-.2-1.06-.5-1.5-.9-.427-.4-.78-.9-1.06-1.5-.267-.613-.427-1.327-.48-2.14h-1.5v4.62h-1.76v-10.6zm8.1 9.2c.4 0 .787-.067 1.16-.2.373-.147.7-.367.98-.66.293-.307.527-.7.7-1.18.173-.48.26-1.067.26-1.76v-.4c0-.64-.087-1.187-.26-1.64a3.147 3.147 0 00-.7-1.12 2.506 2.506 0 00-.98-.64 3.43 3.43 0 00-1.16-.2c-.4 0-.787.067-1.16.2a2.674 2.674 0 00-1 .64c-.28.293-.507.667-.68 1.12-.173.453-.26 1-.26 1.64v.4c0 .693.087 1.28.26 1.76.173.48.4.873.68 1.18.293.293.627.513 1 .66.373.133.76.2 1.16.2zm11.908 1.6c-.2 0-.4-.02-.6-.06v-1.76c.066.013.166.02.3.02.293 0 .546-.093.76-.28.226-.187.406-.513.54-.98.133-.467.233-1.1.3-1.9.066-.8.1-1.813.1-3.04v-2.8h7.6v10.6h-1.76v-9.04h-4.08v1.64c0 1.48-.067 2.707-.2 3.68-.134.973-.334 1.753-.6 2.34-.254.573-.58.98-.98 1.22s-.86.36-1.38.36zm13.599 4c-.2 0-.4-.02-.6-.06v-1.6c.2.04.4.06.6.06.2 0 .373-.033.52-.1.147-.067.287-.193.42-.38s.273-.453.42-.8c.16-.333.34-.773.54-1.32l-4.5-10.6h1.96l3.44 8.6 3.12-8.6h1.88l-4 10.6a25 25 0 01-.8 1.92c-.253.533-.527.967-.82 1.3-.28.347-.593.593-.94.74-.347.16-.76.24-1.24.24zm16.127-8.42a5.52 5.52 0 01-1.12.5c-.427.147-.967.22-1.62.22a6.374 6.374 0 01-1.66-.2 3.05 3.05 0 01-1.22-.64 2.756 2.756 0 01-.76-1.14c-.174-.467-.26-1.04-.26-1.72v-3.4h1.76v3.1c0 .453.04.833.12 1.14.093.307.24.553.44.74.2.187.453.32.76.4.306.08.68.12 1.12.12.6 0 1.113-.06 1.54-.18.426-.12.726-.247.9-.38v-4.94h1.76v10.6h-1.76v-4.22zm4.954-6.38h1.76v9.04h3.86v-9.04h1.76v9.04h3.86v-9.04h1.76v10.6h-13v-10.6zm16.191 0h1.76v8l5.48-8h1.76v10.6h-1.76v-8l-5.48 8h-1.76v-10.6zm15.087 5.22l-3.78-5.22h2.04l2.8 3.86 2.8-3.86h1.96l-3.78 5.12 3.98 5.48h-2.08l-2.96-4.14-2.96 4.14h-2l3.98-5.38zm-221.269 22.78h1.64v2c.36-.707.86-1.247 1.5-1.62.654-.387 1.407-.58 2.26-.58 1.334 0 2.4.44 3.2 1.32.8.867 1.2 2.16 1.2 3.88v.4c0 .907-.106 1.7-.32 2.38-.213.667-.513 1.227-.9 1.68-.386.44-.853.773-1.4 1a4.501 4.501 0 01-1.78.34c-.906 0-1.666-.2-2.28-.6-.6-.4-1.053-.9-1.36-1.5v5.9h-1.76v-14.6zm5 9.24c.427 0 .827-.08 1.2-.24a2.72 2.72 0 00.96-.74c.28-.32.494-.72.64-1.2.16-.48.24-1.033.24-1.66v-.4a4.61 4.61 0 00-.24-1.54 3.067 3.067 0 00-.64-1.14 2.536 2.536 0 00-.96-.72 3.014 3.014 0 00-1.2-.24c-.48 0-.92.08-1.32.24-.4.147-.74.36-1.02.64-.28.267-.5.587-.66.96-.16.373-.24.773-.24 1.2v1.6c0 .48.08.92.24 1.32.16.4.38.74.66 1.02s.62.5 1.02.66c.4.16.84.24 1.32.24zm10.325 1.56c-.587 0-1.107-.08-1.56-.24a3.401 3.401 0 01-1.12-.7 2.921 2.921 0 01-.7-1.04c-.16-.4-.24-.84-.24-1.32 0-1.053.307-1.813.92-2.28.627-.467 1.52-.7 2.68-.7h3.44v-.72c0-.907-.207-1.533-.62-1.88-.4-.347-1.007-.52-1.82-.52-.76 0-1.313.147-1.66.44-.347.28-.54.6-.58.96h-1.76c.027-.427.14-.82.34-1.18a3.21 3.21 0 01.84-.96c.36-.267.787-.473 1.28-.62.493-.16 1.04-.24 1.64-.24 1.253 0 2.247.3 2.98.9.747.587 1.12 1.553 1.12 2.9v5.78c.013.413.047.82.1 1.22h-1.54c-.04-.307-.067-.593-.08-.86-.013-.28-.02-.593-.02-.94-.28.56-.733 1.033-1.36 1.42-.627.387-1.387.58-2.28.58zm.38-1.6c.413 0 .8-.053 1.16-.16.373-.12.7-.287.98-.5.28-.227.5-.5.66-.82.16-.32.24-.693.24-1.12v-.72h-3.14c-.653 0-1.167.133-1.54.4-.373.253-.56.66-.56 1.22 0 .493.173.9.52 1.22.36.32.92.48 1.68.48zm11.509 1.6c-1.334 0-2.38-.28-3.14-.84-.76-.56-1.18-1.347-1.26-2.36h1.76c.093.52.366.92.82 1.2.466.267 1.073.4 1.82.4.92 0 1.586-.153 2-.46.426-.32.64-.7.64-1.14 0-.52-.174-.927-.52-1.22-.347-.307-.947-.46-1.8-.46h-1.82v-1.44h1.7c.733 0 1.253-.14 1.56-.42.32-.28.48-.673.48-1.18 0-.4-.187-.747-.56-1.04-.374-.293-.934-.44-1.68-.44-.814 0-1.407.133-1.78.4-.36.253-.58.62-.66 1.1h-1.76c.04-.44.16-.847.36-1.22.213-.387.5-.72.86-1s.786-.493 1.28-.64a5.626 5.626 0 011.7-.24c.68 0 1.266.08 1.76.24.506.147.926.36 1.26.64.333.267.58.587.74.96.16.373.24.787.24 1.24 0 .507-.127.953-.38 1.34-.254.373-.66.667-1.22.88.746.2 1.266.52 1.56.96.293.44.44.953.44 1.54 0 .44-.094.853-.28 1.24a2.899 2.899 0 01-.84 1.02c-.36.28-.82.507-1.38.68-.547.173-1.18.26-1.9.26zm6.907-10.8h1.64v2c.36-.707.86-1.247 1.5-1.62.654-.387 1.407-.58 2.26-.58 1.334 0 2.4.44 3.2 1.32.8.867 1.2 2.16 1.2 3.88v.4c0 .907-.106 1.7-.32 2.38-.213.667-.513 1.227-.9 1.68-.386.44-.853.773-1.4 1a4.498 4.498 0 01-1.78.34c-.906 0-1.666-.2-2.28-.6-.6-.4-1.053-.9-1.36-1.5v5.9h-1.76v-14.6zm5 9.24c.427 0 .827-.08 1.2-.24a2.72 2.72 0 00.96-.74c.28-.32.494-.72.64-1.2.16-.48.24-1.033.24-1.66v-.4a4.61 4.61 0 00-.24-1.54 3.057 3.057 0 00-.64-1.14 2.526 2.526 0 00-.96-.72 3.011 3.011 0 00-1.2-.24c-.48 0-.92.08-1.32.24-.4.147-.74.36-1.02.64-.28.267-.5.587-.66.96-.16.373-.24.773-.24 1.2v1.6c0 .48.08.92.24 1.32.16.4.38.74.66 1.02s.62.5 1.02.66c.4.16.84.24 1.32.24zm10.325 1.56c-.587 0-1.107-.08-1.56-.24a3.405 3.405 0 01-1.12-.7 2.917 2.917 0 01-.7-1.04c-.16-.4-.24-.84-.24-1.32 0-1.053.307-1.813.92-2.28.627-.467 1.52-.7 2.68-.7h3.44v-.72c0-.907-.207-1.533-.62-1.88-.4-.347-1.007-.52-1.82-.52-.76 0-1.313.147-1.66.44-.347.28-.54.6-.58.96h-1.76c.027-.427.14-.82.34-1.18a3.21 3.21 0 01.84-.96c.36-.267.787-.473 1.28-.62.493-.16 1.04-.24 1.64-.24 1.253 0 2.247.3 2.98.9.747.587 1.12 1.553 1.12 2.9v5.78c.013.413.047.82.1 1.22h-1.54c-.04-.307-.067-.593-.08-.86-.013-.28-.02-.593-.02-.94-.28.56-.733 1.033-1.36 1.42-.627.387-1.387.58-2.28.58zm.38-1.6c.413 0 .8-.053 1.16-.16.373-.12.7-.287.98-.5.28-.227.5-.5.66-.82.16-.32.24-.693.24-1.12v-.72h-3.14c-.653 0-1.167.133-1.54.4-.373.253-.56.66-.56 1.22 0 .493.173.9.52 1.22.36.32.92.48 1.68.48zm12.309 1.6a4.904 4.904 0 01-1.98-.4 4.619 4.619 0 01-1.58-1.16c-.44-.52-.794-1.153-1.06-1.9-.254-.747-.38-1.593-.38-2.54v-.4c0-1.2.086-2.267.26-3.2.173-.947.466-1.747.88-2.4a4.529 4.529 0 011.66-1.56c.693-.373 1.56-.587 2.6-.64.84-.04 1.573-.073 2.2-.1.626-.04 1.16-.173 1.6-.4v1.7c-.214.12-.607.213-1.18.28-.56.067-1.334.113-2.32.14a6.421 6.421 0 00-1.7.24c-.48.147-.894.38-1.24.7-.334.32-.6.74-.8 1.26-.187.507-.307 1.133-.36 1.88a3.76 3.76 0 011.48-1.68c.666-.413 1.44-.62 2.32-.62.68 0 1.3.12 1.86.36.56.227 1.04.553 1.44.98.413.427.733.953.96 1.58.226.613.34 1.307.34 2.08v.4c0 .827-.127 1.573-.38 2.24-.254.653-.6 1.22-1.04 1.7-.44.467-.967.827-1.58 1.08-.614.253-1.28.38-2 .38zm0-1.6c.933 0 1.7-.32 2.3-.96.6-.653.9-1.6.9-2.84v-.4c0-.52-.08-.987-.24-1.4a3.174 3.174 0 00-.66-1.06c-.28-.307-.62-.54-1.02-.7a3.32 3.32 0 00-1.28-.24c-.467 0-.9.08-1.3.24-.387.16-.72.393-1 .7-.28.293-.5.647-.66 1.06-.16.413-.24.88-.24 1.4v.4c0 .587.08 1.12.24 1.6.173.467.406.867.7 1.2.293.32.633.567 1.02.74a3 3 0 001.24.26zm11.894 1.6c-.68 0-1.326-.107-1.94-.32a4.732 4.732 0 01-1.62-1c-.466-.453-.84-1.02-1.12-1.7-.28-.68-.42-1.473-.42-2.38v-.4c0-.853.14-1.607.42-2.26.28-.653.654-1.193 1.12-1.62a4.48 4.48 0 011.62-.98 5.546 5.546 0 011.94-.34c.68 0 1.327.113 1.94.34.614.213 1.154.54 1.62.98.467.427.84.967 1.12 1.62.28.653.42 1.407.42 2.26v.4c0 .907-.14 1.7-.42 2.38-.28.68-.653 1.247-1.12 1.7a4.713 4.713 0 01-1.62 1 5.87 5.87 0 01-1.94.32zm0-1.6c.4 0 .8-.067 1.2-.2.4-.147.754-.367 1.06-.66.307-.307.554-.7.74-1.18.2-.48.3-1.067.3-1.76v-.4c0-.64-.1-1.187-.3-1.64a3.207 3.207 0 00-.74-1.12 2.789 2.789 0 00-1.06-.64c-.4-.133-.8-.2-1.2-.2-.4 0-.8.067-1.2.2-.4.133-.753.347-1.06.64-.306.293-.56.667-.76 1.12-.186.453-.28 1-.28 1.64v.4c0 .693.094 1.28.28 1.76.2.48.454.873.76 1.18.307.293.66.513 1.06.66.4.133.8.2 1.2.2zm9.817-7.64h-3.62v-1.56h9v1.56h-3.62v9.04h-1.76v-9.04zm13.525 4.82a5.52 5.52 0 01-1.12.5c-.427.147-.967.22-1.62.22a6.374 6.374 0 01-1.66-.2 3.05 3.05 0 01-1.22-.64 2.756 2.756 0 01-.76-1.14c-.174-.467-.26-1.04-.26-1.72v-3.4h1.76v3.1c0 .453.04.833.12 1.14.093.307.24.553.44.74.2.187.453.32.76.4.306.08.68.12 1.12.12.6 0 1.113-.06 1.54-.18.426-.12.726-.247.9-.38v-4.94h1.76v10.6h-1.76v-4.22zm4.953-6.38h1.76v8l5.48-8h1.76v10.6h-1.76v-8l-5.48 8h-1.76v-10.6zm12.208 0h1.76v4.44h1.4l3.96-4.44h2.08l-4.6 5.08 4.8 5.52h-2.24l-4-4.64h-1.4v4.64h-1.76v-10.6zm15.513 10.8a5.87 5.87 0 01-1.94-.32 4.713 4.713 0 01-1.62-1c-.467-.453-.84-1.02-1.12-1.7-.28-.68-.42-1.473-.42-2.38v-.4c0-.853.14-1.607.42-2.26.28-.653.653-1.193 1.12-1.62a4.463 4.463 0 011.62-.98 5.542 5.542 0 011.94-.34c.68 0 1.326.113 1.94.34a4.48 4.48 0 011.62.98c.466.427.84.967 1.12 1.62.28.653.42 1.407.42 2.26v.4c0 .907-.14 1.7-.42 2.38-.28.68-.654 1.247-1.12 1.7a4.732 4.732 0 01-1.62 1c-.614.213-1.26.32-1.94.32zm0-1.6c.4 0 .8-.067 1.2-.2.4-.147.753-.367 1.06-.66.306-.307.553-.7.74-1.18.2-.48.3-1.067.3-1.76v-.4c0-.64-.1-1.187-.3-1.64a3.234 3.234 0 00-.74-1.12 2.797 2.797 0 00-1.06-.64c-.4-.133-.8-.2-1.2-.2-.4 0-.8.067-1.2.2-.4.133-.754.347-1.06.64-.307.293-.56.667-.76 1.12-.187.453-.28 1-.28 1.64v.4c0 .693.093 1.28.28 1.76.2.48.453.873.76 1.18.306.293.66.513 1.06.66.4.133.8.2 1.2.2zm7.592-9.2h4.6c1.307 0 2.267.273 2.88.82.613.533.92 1.227.92 2.08 0 .227-.04.46-.12.7a2.45 2.45 0 01-.34.64c-.133.2-.3.373-.5.52-.187.147-.4.26-.64.34.653.16 1.147.467 1.48.92.347.44.52.96.52 1.56 0 .92-.307 1.653-.92 2.2-.613.547-1.573.82-2.88.82h-5v-10.6zm5 9.04c.747 0 1.273-.133 1.58-.4.307-.267.46-.647.46-1.14 0-.507-.153-.893-.46-1.16-.307-.28-.833-.42-1.58-.42h-3.24v3.12h3.24zm-.4-4.56c.76 0 1.287-.133 1.58-.4.307-.267.46-.633.46-1.1 0-.44-.153-.787-.46-1.04-.293-.253-.82-.38-1.58-.38h-2.84v2.92h2.84zm12.109-7.88h11v14h-1.88v-12.36h-7.24v12.36h-1.88v-14zm20.4 14.2c-.8 0-1.574-.133-2.32-.4a5.505 5.505 0 01-1.98-1.28c-.574-.573-1.034-1.307-1.38-2.2-.347-.893-.52-1.967-.52-3.22v-.4c0-1.2.173-2.233.52-3.1.346-.867.806-1.58 1.38-2.14a5.288 5.288 0 011.98-1.26c.746-.267 1.52-.4 2.32-.4.8 0 1.573.133 2.32.4a5.304 5.304 0 011.98 1.26c.573.56 1.033 1.273 1.38 2.14.346.867.52 1.9.52 3.1v.4c0 1.253-.174 2.327-.52 3.22-.347.893-.807 1.627-1.38 2.2-.574.573-1.234 1-1.98 1.28a6.84 6.84 0 01-2.32.4zm0-1.68c.546 0 1.073-.1 1.58-.3a3.56 3.56 0 001.34-.94c.386-.44.693-1 .92-1.68.24-.693.36-1.527.36-2.5v-.4c0-.92-.12-1.707-.36-2.36-.227-.667-.534-1.207-.92-1.62a3.56 3.56 0 00-1.34-.94 4.27 4.27 0 00-1.58-.3c-.547 0-1.074.1-1.58.3-.507.2-.954.513-1.34.94-.387.413-.7.953-.94 1.62-.227.653-.34 1.44-.34 2.36v.4c0 .973.113 1.807.34 2.5.24.68.553 1.24.94 1.68.386.427.833.74 1.34.94.506.2 1.033.3 1.58.3zm12.804-.08h1.3c.147-.2.28-.507.4-.92.12-.413.227-.9.32-1.46.094-.56.16-1.167.2-1.82.054-.667.08-1.347.08-2.04v-2.8h7.4v9.04h1.5v4.06h-1.68v-2.5h-7.84v2.5h-1.68v-4.06zm7.94 0v-7.48h-3.92v1.64c0 .56-.02 1.12-.06 1.68-.04.547-.1 1.073-.18 1.58-.08.493-.18.967-.3 1.42-.106.44-.233.827-.38 1.16h4.84zm5.26 1.76c-.2 0-.4-.02-.6-.06v-1.76c.067.013.167.02.3.02.294 0 .547-.093.76-.28.227-.187.407-.513.54-.98.134-.467.234-1.1.3-1.9.067-.8.1-1.813.1-3.04v-2.8h7.6v10.6h-1.76v-9.04h-4.08v1.64c0 1.48-.066 2.707-.2 3.68-.133.973-.333 1.753-.6 2.34-.253.573-.58.98-.98 1.22s-.86.36-1.38.36zm14.279-4.4c-.88-.2-1.513-.56-1.9-1.08-.386-.533-.58-1.213-.58-2.04 0-1.04.314-1.847.94-2.42.64-.573 1.66-.86 3.06-.86h4.6v10.6h-1.76v-4.04h-2.7l-2.58 4.04h-1.96l2.88-4.2zm-.72-3.12c0 .56.16.987.48 1.28.334.293.887.44 1.66.44h2.94v-3.44h-2.94c-.773 0-1.326.147-1.66.44-.32.293-.48.72-.48 1.28zm-228.84 24.72h1.76v4.44h1.4l3.96-4.44h2.08l-4.6 5.08 4.8 5.52h-2.24l-4-4.64h-1.4v4.64h-1.76v-10.6zm11.504 0h1.64v2c.36-.707.86-1.247 1.5-1.62.653-.387 1.407-.58 2.26-.58 1.333 0 2.4.44 3.2 1.32.8.867 1.2 2.16 1.2 3.88v.4c0 .907-.107 1.7-.32 2.38-.213.667-.513 1.227-.9 1.68-.387.44-.853.773-1.4 1a4.5 4.5 0 01-1.78.34c-.907 0-1.667-.2-2.28-.6-.6-.4-1.053-.9-1.36-1.5v5.9h-1.76v-14.6zm5 9.24c.427 0 .827-.08 1.2-.24a2.73 2.73 0 00.96-.74c.28-.32.493-.72.64-1.2.16-.48.24-1.033.24-1.66v-.4a4.61 4.61 0 00-.24-1.54 3.065 3.065 0 00-.64-1.14 2.535 2.535 0 00-.96-.72 3.014 3.014 0 00-1.2-.24c-.48 0-.92.08-1.32.24-.4.147-.74.36-1.02.64-.28.267-.5.587-.66.96-.16.373-.24.773-.24 1.2v1.6c0 .48.08.92.24 1.32.16.4.38.74.66 1.02s.62.5 1.02.66c.4.16.84.24 1.32.24zm8.314 5.56c-.2 0-.4-.02-.6-.06v-1.6c.2.04.4.06.6.06.2 0 .373-.033.52-.1.147-.067.287-.193.42-.38a4.3 4.3 0 00.42-.8c.16-.333.34-.773.54-1.32l-4.5-10.6h1.96l3.44 8.6 3.12-8.6h1.88l-4 10.6a24.88 24.88 0 01-.8 1.92c-.253.533-.527.967-.82 1.3-.28.347-.593.593-.94.74-.347.16-.76.24-1.24.24zm9.791-14.8h8.8v10.6h-1.76v-9.04h-5.28v9.04H97.5v-10.6zm11.993 0h1.76v4.42h5.48v-4.42h1.76v10.6h-1.76v-4.62h-5.48v4.62h-1.76v-10.6zm16.607 10.8a5.87 5.87 0 01-1.94-.32 4.463 4.463 0 01-1.62-.98c-.467-.453-.84-1.02-1.12-1.7-.28-.68-.42-1.48-.42-2.4v-.4c0-.88.133-1.64.4-2.28.266-.653.62-1.193 1.06-1.62.453-.44.973-.767 1.56-.98.6-.213 1.226-.32 1.88-.32 1.56 0 2.766.427 3.62 1.28.853.853 1.28 2.06 1.28 3.62v1.12h-8.04c0 .627.1 1.153.3 1.58a2.967 2.967 0 001.84 1.62c.4.12.8.18 1.2.18.8 0 1.413-.133 1.84-.4.44-.267.753-.633.94-1.1h1.72a3.48 3.48 0 01-.58 1.34c-.267.387-.6.713-1 .98a4.54 4.54 0 01-1.34.58c-.494.133-1.02.2-1.58.2zm-.1-9.4c-.414 0-.814.06-1.2.18a2.754 2.754 0 00-1.76 1.46c-.187.373-.28.82-.28 1.34h6.38c-.014-.547-.107-1.007-.28-1.38a2.272 2.272 0 00-.66-.92 2.567 2.567 0 00-1-.52 4.345 4.345 0 00-1.2-.16zm7.301-1.4h1.76v8l5.48-8h1.76v10.6h-1.76v-8l-5.48 8h-1.76v-10.6zm4.5-1.3c-1.04 0-1.8-.22-2.28-.66-.48-.453-.72-1.1-.72-1.94h1.72c0 .907.427 1.36 1.28 1.36.88 0 1.32-.453 1.32-1.36h1.68c0 .84-.24 1.487-.72 1.94-.48.44-1.24.66-2.28.66zm7.707 1.3h1.76v9.04h3.86v-9.04h1.76v9.04h3.86v-9.04h1.76v10.6h-13v-10.6zm16.192 0h1.76v8l5.48-8h1.76v10.6h-1.76v-8l-5.48 8h-1.76v-10.6zm15.087 5.22l-3.78-5.22h2.04l2.8 3.86 2.8-3.86h1.96l-3.78 5.12 3.98 5.48h-2.08l-2.96-4.14-2.96 4.14h-2l3.98-5.38zm13.116-5.22h1.76v4.44h1.4l3.96-4.44h2.08l-4.6 5.08 4.8 5.52h-2.24l-4-4.64h-1.4v4.64h-1.76v-10.6zm15.513 10.8a5.87 5.87 0 01-1.94-.32 4.732 4.732 0 01-1.62-1c-.467-.453-.84-1.02-1.12-1.7-.28-.68-.42-1.473-.42-2.38v-.4c0-.853.14-1.607.42-2.26.28-.653.653-1.193 1.12-1.62a4.48 4.48 0 011.62-.98 5.542 5.542 0 011.94-.34c.68 0 1.327.113 1.94.34a4.48 4.48 0 011.62.98c.467.427.84.967 1.12 1.62.28.653.42 1.407.42 2.26v.4c0 .907-.14 1.7-.42 2.38-.28.68-.653 1.247-1.12 1.7a4.732 4.732 0 01-1.62 1 5.87 5.87 0 01-1.94.32zm0-1.6c.4 0 .8-.067 1.2-.2.4-.147.753-.367 1.06-.66.307-.307.553-.7.74-1.18.2-.48.3-1.067.3-1.76v-.4c0-.64-.1-1.187-.3-1.64a3.22 3.22 0 00-.74-1.12 2.797 2.797 0 00-1.06-.64c-.4-.133-.8-.2-1.2-.2-.4 0-.8.067-1.2.2-.4.133-.753.347-1.06.64-.307.293-.56.667-.76 1.12-.187.453-.28 1-.28 1.64v.4c0 .693.093 1.28.28 1.76.2.48.453.873.76 1.18.307.293.66.513 1.06.66.4.133.8.2 1.2.2zm7.592-9.2h1.88l3.78 6.6 3.78-6.6h1.76v10.6h-1.76v-7.7l-3.14 5.4h-1.4l-3.14-5.4v7.7h-1.76v-10.6zm14.395 0h8.8v10.6h-1.76v-9.04h-5.28v9.04h-1.76v-10.6zm15.012 10.8c-.587 0-1.107-.08-1.56-.24a3.405 3.405 0 01-1.12-.7 2.917 2.917 0 01-.7-1.04c-.16-.4-.24-.84-.24-1.32 0-1.053.307-1.813.92-2.28.627-.467 1.52-.7 2.68-.7h3.44v-.72c0-.907-.207-1.533-.62-1.88-.4-.347-1.007-.52-1.82-.52-.76 0-1.313.147-1.66.44-.347.28-.54.6-.58.96h-1.76c.027-.427.14-.82.34-1.18a3.21 3.21 0 01.84-.96c.36-.267.787-.473 1.28-.62.493-.16 1.04-.24 1.64-.24 1.253 0 2.247.3 2.98.9.747.587 1.12 1.553 1.12 2.9v5.78c.013.413.047.82.1 1.22h-1.54c-.04-.307-.067-.593-.08-.86-.013-.28-.02-.593-.02-.94-.28.56-.733 1.033-1.36 1.42-.627.387-1.387.58-2.28.58zm.38-1.6c.413 0 .8-.053 1.16-.16.373-.12.7-.287.98-.5.28-.227.5-.5.66-.82.16-.32.24-.693.24-1.12v-.72h-3.14c-.653 0-1.167.133-1.54.4-.373.253-.56.66-.56 1.22 0 .493.173.9.52 1.22.36.32.92.48 1.68.48zm7.909-9.2h1.76v4.42h5.48v-4.42h1.76v10.6h-1.76v-4.62h-5.48v4.62h-1.76v-10.6zm12.207 0h1.76v8l5.48-8h1.76v10.6h-1.76v-8l-5.48 8h-1.76v-10.6zm12.207 0h1.76v8l5.48-8h1.76v10.6h-1.76v-8l-5.48 8h-1.76v-10.6zm4.5-1.3c-1.04 0-1.8-.22-2.28-.66-.48-.453-.72-1.1-.72-1.94h1.72c0 .907.426 1.36 1.28 1.36.88 0 1.32-.453 1.32-1.36h1.68c0 .84-.24 1.487-.72 1.94-.48.44-1.24.66-2.28.66zm12.707 1.3h8.8v10.6h-1.76v-9.04h-5.28v9.04h-1.76v-10.6zm16.392 10.8a5.87 5.87 0 01-1.94-.32 4.713 4.713 0 01-1.62-1c-.467-.453-.84-1.02-1.12-1.7-.28-.68-.42-1.473-.42-2.38v-.4c0-.853.14-1.607.42-2.26.28-.653.653-1.193 1.12-1.62a4.463 4.463 0 011.62-.98 5.542 5.542 0 011.94-.34c.68 0 1.326.113 1.94.34a4.48 4.48 0 011.62.98c.466.427.84.967 1.12 1.62.28.653.42 1.407.42 2.26v.4c0 .907-.14 1.7-.42 2.38-.28.68-.654 1.247-1.12 1.7a4.732 4.732 0 01-1.62 1c-.614.213-1.26.32-1.94.32zm0-1.6c.4 0 .8-.067 1.2-.2.4-.147.753-.367 1.06-.66.306-.307.553-.7.74-1.18.2-.48.3-1.067.3-1.76v-.4c0-.64-.1-1.187-.3-1.64a3.234 3.234 0 00-.74-1.12 2.797 2.797 0 00-1.06-.64c-.4-.133-.8-.2-1.2-.2-.4 0-.8.067-1.2.2-.4.133-.754.347-1.06.64-.307.293-.56.667-.76 1.12-.187.453-.28 1-.28 1.64v.4c0 .693.093 1.28.28 1.76.2.48.453.873.76 1.18.306.293.66.513 1.06.66.4.133.8.2 1.2.2zm-219.683 18.8h4.6c1.306 0 2.266.273 2.88.82.613.533.92 1.227.92 2.08 0 .227-.04.46-.12.7a2.46 2.46 0 01-.34.64c-.134.2-.3.373-.5.52-.187.147-.4.26-.64.34.653.16 1.146.467 1.48.92.346.44.52.96.52 1.56 0 .92-.307 1.653-.92 2.2-.614.547-1.574.82-2.88.82h-5v-10.6zm5 9.04c.746 0 1.273-.133 1.58-.4.306-.267.46-.647.46-1.14 0-.507-.154-.893-.46-1.16-.307-.28-.834-.42-1.58-.42h-3.24v3.12h3.24zm-.4-4.56c.76 0 1.286-.133 1.58-.4.306-.267.46-.633.46-1.1 0-.44-.154-.787-.46-1.04-.294-.253-.82-.38-1.58-.38h-2.84v2.92h2.84zm11.108 6.32c-.68 0-1.326-.107-1.94-.32a4.48 4.48 0 01-1.62-.98c-.466-.453-.84-1.02-1.12-1.7-.28-.68-.42-1.48-.42-2.4v-.4c0-.88.133-1.64.4-2.28.267-.653.62-1.193 1.06-1.62a4.36 4.36 0 011.56-.98 5.58 5.58 0 011.88-.32c1.56 0 2.767.427 3.62 1.28.854.853 1.28 2.06 1.28 3.62v1.12h-8.04c0 .627.1 1.153.3 1.58a2.967 2.967 0 001.84 1.62c.4.12.8.18 1.2.18.8 0 1.414-.133 1.84-.4a2.22 2.22 0 00.94-1.1h1.72c-.106.507-.3.953-.58 1.34-.266.387-.6.713-1 .98a4.517 4.517 0 01-1.34.58c-.493.133-1.02.2-1.58.2zm-.1-9.4c-.413 0-.813.06-1.2.18a2.789 2.789 0 00-1.04.54 2.78 2.78 0 00-.72.92c-.186.373-.28.82-.28 1.34h6.38c-.013-.547-.106-1.007-.28-1.38a2.272 2.272 0 00-.66-.92 2.56 2.56 0 00-1-.52 4.334 4.334 0 00-1.2-.16zm7.302-1.4h1.64v2c.36-.707.86-1.247 1.5-1.62.653-.387 1.406-.58 2.26-.58 1.333 0 2.4.44 3.2 1.32.8.867 1.2 2.16 1.2 3.88v.4c0 .907-.107 1.7-.32 2.38-.214.667-.514 1.227-.9 1.68-.387.44-.854.773-1.4 1a4.505 4.505 0 01-1.78.34c-.907 0-1.667-.2-2.28-.6-.6-.4-1.054-.9-1.36-1.5v5.9h-1.76v-14.6zm5 9.24c.426 0 .826-.08 1.2-.24.373-.173.693-.42.96-.74.28-.32.493-.72.64-1.2.16-.48.24-1.033.24-1.66v-.4a4.61 4.61 0 00-.24-1.54 3.07 3.07 0 00-.64-1.14 2.541 2.541 0 00-.96-.72 3.019 3.019 0 00-1.2-.24c-.48 0-.92.08-1.32.24-.4.147-.74.36-1.02.64-.28.267-.5.587-.66.96-.16.373-.24.773-.24 1.2v1.6c0 .48.08.92.24 1.32.16.4.38.74.66 1.02s.62.5 1.02.66c.4.16.84.24 1.32.24zm11.404 1.56c-.68 0-1.313-.107-1.9-.32a4.208 4.208 0 01-1.52-1c-.426-.453-.766-1.02-1.02-1.7-.24-.68-.36-1.473-.36-2.38v-.4c0-.853.134-1.607.4-2.26.267-.653.62-1.193 1.06-1.62.44-.44.947-.767 1.52-.98a5.005 5.005 0 011.82-.34c.627 0 1.187.087 1.68.26.507.173.94.413 1.3.72.374.307.674.667.9 1.08.24.413.414.86.52 1.34h-1.8a3.846 3.846 0 00-.38-.7 1.945 1.945 0 00-.52-.58c-.2-.16-.44-.287-.72-.38a3.11 3.11 0 00-.98-.14c-.386 0-.76.073-1.12.22-.36.133-.68.347-.96.64-.28.28-.506.647-.68 1.1-.16.453-.24 1-.24 1.64v.4c0 .68.08 1.267.24 1.76.174.48.4.873.68 1.18.28.293.6.513.96.66.36.133.734.2 1.12.2.654 0 1.2-.16 1.64-.48.454-.32.774-.76.96-1.32h1.8c-.253 1.053-.773 1.887-1.56 2.5-.786.6-1.733.9-2.84.9zm6.799-10.8h1.76v8l5.48-8h1.76v10.6h-1.76v-8l-5.48 8h-1.76v-10.6zm12.207 0h1.76v8l5.48-8h1.76v10.6h-1.76v-8l-5.48 8h-1.76v-10.6zm17.607-3.4h4.9c.88 0 1.647.107 2.3.32.667.213 1.22.507 1.66.88.44.373.773.82 1 1.34.227.507.34 1.06.34 1.66 0 .933-.28 1.753-.84 2.46-.547.693-1.36 1.18-2.44 1.46l3.68 5.88h-2.22l-3.34-5.64h-3.16v5.64h-1.88v-14zm4.7 6.76c1.293 0 2.22-.233 2.78-.7.56-.48.84-1.1.84-1.86s-.28-1.373-.84-1.84c-.56-.48-1.487-.72-2.78-.72h-2.82v5.12h2.82zm11.318 7.44c-.586 0-1.106-.08-1.56-.24a3.405 3.405 0 01-1.12-.7 2.93 2.93 0 01-.7-1.04c-.16-.4-.24-.84-.24-1.32 0-1.053.307-1.813.92-2.28.627-.467 1.52-.7 2.68-.7h3.44v-.72c0-.907-.206-1.533-.62-1.88-.4-.347-1.006-.52-1.82-.52-.76 0-1.313.147-1.66.44-.346.28-.54.6-.58.96h-1.76c.027-.427.14-.82.34-1.18.214-.373.494-.693.84-.96.36-.267.787-.473 1.28-.62.494-.16 1.04-.24 1.64-.24 1.254 0 2.247.3 2.98.9.747.587 1.12 1.553 1.12 2.9v5.78c.014.413.047.82.1 1.22h-1.54c-.04-.307-.066-.593-.08-.86-.013-.28-.02-.593-.02-.94-.28.56-.733 1.033-1.36 1.42-.626.387-1.386.58-2.28.58zm.38-1.6c.414 0 .8-.053 1.16-.16.374-.12.7-.287.98-.5.28-.227.5-.5.66-.82.16-.32.24-.693.24-1.12v-.72h-3.14c-.653 0-1.166.133-1.54.4-.373.253-.56.66-.56 1.22 0 .493.174.9.52 1.22.36.32.92.48 1.68.48zm11.614 1.5c-1.134 0-1.954-.253-2.46-.76-.494-.52-.74-1.3-.74-2.34v-6.04h-1.6v-1.56h1.6v-2.4h1.76v2.4h2.84v1.56h-2.84v5.84c0 .6.126 1.033.38 1.3.253.267.74.4 1.46.4.4 0 .8-.02 1.2-.06v1.56c-.254.027-.507.047-.76.06-.254.027-.534.04-.84.04zm4.307-10.7h1.76v10.6h-1.76v-10.6zm.88-1.4c-.346 0-.633-.113-.86-.34a1.168 1.168 0 01-.34-.86c0-.347.114-.633.34-.86.227-.227.514-.34.86-.34a1.163 1.163 0 011.2 1.2 1.163 1.163 0 01-1.2 1.2zm4.272 1.4h1.64v2a3.458 3.458 0 011.26-1.54c.307-.2.653-.36 1.04-.48.4-.12.84-.18 1.32-.18 1.333 0 2.32.36 2.96 1.08.653.707.98 1.747.98 3.12v6.6h-1.76v-6.2c0-.987-.207-1.733-.62-2.24-.413-.507-1.107-.76-2.08-.76-.52 0-.973.087-1.36.26-.373.173-.68.4-.92.68s-.42.6-.54.96c-.107.36-.16.727-.16 1.1v6.2h-1.76v-10.6zm16.505 14.8c-.774 0-1.434-.08-1.98-.24-.547-.147-1-.353-1.36-.62a2.753 2.753 0 01-.8-.96 3.461 3.461 0 01-.36-1.18h1.84c.066.213.16.407.28.58.12.173.28.32.48.44.2.12.453.213.76.28.32.067.7.1 1.14.1 1.08 0 1.873-.26 2.38-.78.506-.52.76-1.26.76-2.22v-1.7c-.307.707-.78 1.233-1.42 1.58-.627.347-1.367.52-2.22.52a4.644 4.644 0 01-1.8-.34 3.782 3.782 0 01-1.38-1c-.387-.44-.687-.987-.9-1.64-.214-.667-.32-1.44-.32-2.32v-.4c0-.813.106-1.533.32-2.16.226-.64.533-1.173.92-1.6.386-.44.846-.773 1.38-1a4.593 4.593 0 011.78-.34c.906 0 1.693.207 2.36.62.666.4 1.133.927 1.4 1.58v-2h1.64v10.2c0 1.44-.42 2.567-1.26 3.38-.84.813-2.054 1.22-3.64 1.22zm-.1-5.76a3.8 3.8 0 001.32-.22c.4-.16.74-.38 1.02-.66s.5-.613.66-1c.16-.387.24-.807.24-1.26v-1.6c0-.4-.08-.78-.24-1.14-.16-.36-.38-.673-.66-.94a2.91 2.91 0 00-1.02-.62c-.4-.16-.84-.24-1.32-.24-.427 0-.827.08-1.2.24-.374.16-.7.393-.98.7-.267.307-.48.68-.64 1.12-.147.427-.22.92-.22 1.48v.4c0 .6.073 1.133.22 1.6.16.467.373.86.64 1.18.28.32.606.56.98.72.373.16.773.24 1.2.24zm8.204-9.04h1.64v2c.227-.627.6-1.147 1.12-1.56.534-.427 1.18-.64 1.94-.64.267 0 .48.013.64.04.174.027.327.06.46.1v1.64a2.493 2.493 0 00-.52-.14 4.354 4.354 0 00-.68-.04c-.4 0-.773.073-1.12.22a2.665 2.665 0 00-.9.62 2.72 2.72 0 00-.6.94 3.32 3.32 0 00-.22 1.22v6.2h-1.76v-10.6zm11.533 10.8c-1.28 0-2.24-.367-2.88-1.1-.64-.733-.96-1.867-.96-3.4v-6.3h1.76v6.2c0 .987.2 1.733.6 2.24.414.507 1.08.76 2 .76.494 0 .92-.087 1.28-.26.374-.173.674-.4.9-.68.24-.28.414-.6.52-.96.12-.36.18-.727.18-1.1v-6.2h1.76v10.6h-1.64v-2c-.12.293-.286.573-.5.84-.2.267-.453.5-.76.7-.293.2-.633.36-1.02.48-.373.12-.786.18-1.24.18zm8.37-10.8h1.64v2c.12-.293.286-.573.5-.84.213-.267.466-.5.76-.7.306-.2.653-.36 1.04-.48.4-.12.84-.18 1.32-.18 1.333 0 2.32.36 2.96 1.08.653.707.98 1.747.98 3.12v6.6h-1.76v-6.2c0-.987-.207-1.733-.62-2.24-.414-.507-1.107-.76-2.08-.76-.52 0-.974.087-1.36.26-.374.173-.68.4-.92.68s-.42.6-.54.96c-.107.36-.16.727-.16 1.1v6.2h-1.76v-10.6zm16.704 10.8c-.68 0-1.326-.107-1.94-.32a4.48 4.48 0 01-1.62-.98c-.466-.453-.84-1.02-1.12-1.7-.28-.68-.42-1.48-.42-2.4v-.4c0-.88.134-1.64.4-2.28.267-.653.62-1.193 1.06-1.62a4.36 4.36 0 011.56-.98 5.58 5.58 0 011.88-.32c1.56 0 2.767.427 3.62 1.28.854.853 1.28 2.06 1.28 3.62v1.12h-8.04c0 .627.1 1.153.3 1.58a2.967 2.967 0 001.84 1.62c.4.12.8.18 1.2.18.8 0 1.414-.133 1.84-.4a2.22 2.22 0 00.94-1.1h1.72c-.106.507-.3.953-.58 1.34-.266.387-.6.713-1 .98a4.517 4.517 0 01-1.34.58c-.493.133-1.02.2-1.58.2zm-.1-9.4c-.413 0-.813.06-1.2.18a2.789 2.789 0 00-1.04.54 2.78 2.78 0 00-.72.92c-.186.373-.28.82-.28 1.34h6.38c-.013-.547-.106-1.007-.28-1.38a2.272 2.272 0 00-.66-.92 2.56 2.56 0 00-1-.52 4.334 4.334 0 00-1.2-.16zm11.202 9.3c-1.133 0-1.953-.253-2.46-.76-.493-.52-.74-1.3-.74-2.34v-6.04h-1.6v-1.56h1.6v-2.4h1.76v2.4h2.84v1.56h-2.84v5.84c0 .6.127 1.033.38 1.3.253.267.74.4 1.46.4.4 0 .8-.02 1.2-.06v1.56c-.253.027-.507.047-.76.06-.253.027-.533.04-.84.04zm7.128.1c-.587 0-1.107-.08-1.56-.24a3.395 3.395 0 01-1.12-.7 2.917 2.917 0 01-.7-1.04c-.16-.4-.24-.84-.24-1.32 0-1.053.306-1.813.92-2.28.626-.467 1.52-.7 2.68-.7h3.44v-.72c0-.907-.207-1.533-.62-1.88-.4-.347-1.007-.52-1.82-.52-.76 0-1.314.147-1.66.44-.347.28-.54.6-.58.96h-1.76c.026-.427.14-.82.34-1.18a3.21 3.21 0 01.84-.96c.36-.267.786-.473 1.28-.62.493-.16 1.04-.24 1.64-.24 1.253 0 2.246.3 2.98.9.746.587 1.12 1.553 1.12 2.9v5.78c.013.413.046.82.1 1.22h-1.54c-.04-.307-.067-.593-.08-.86-.014-.28-.02-.593-.02-.94-.28.56-.734 1.033-1.36 1.42-.627.387-1.387.58-2.28.58zm.38-1.6c.413 0 .8-.053 1.16-.16.373-.12.7-.287.98-.5.28-.227.5-.5.66-.82.16-.32.24-.693.24-1.12v-.72h-3.14c-.654 0-1.167.133-1.54.4-.374.253-.56.66-.56 1.22 0 .493.173.9.52 1.22.36.32.92.48 1.68.48z" fill="#fff"/><defs><clipPath id="clip0_1768_12298"><path fill="#fff" transform="translate(114.998 39.948)" d="M0 0h146v57H0z"/></clipPath></defs></svg>