<svg width="376" height="405" viewBox="0 0 376 405" fill="none" xmlns="http://www.w3.org/2000/svg"><path d="M100.443 132.637h5.852v20.14h-5.852v-20.14zm2.926-1.9c-1.09 0-1.938-.278-2.546-.836-.583-.582-.874-1.317-.874-2.204 0-.886.291-1.608.874-2.166.608-.582 1.456-.874 2.546-.874 1.089 0 1.925.292 2.508.874.608.558.912 1.28.912 2.166 0 .887-.304 1.622-.912 2.204-.583.558-1.419.836-2.508.836zm7.121 1.9h5.396v2.736c.507-.886 1.292-1.646 2.356-2.28 1.09-.633 2.534-.95 4.332-.95 2.407 0 4.218.659 5.434 1.976 1.242 1.292 1.862 3.142 1.862 5.548v13.11h-5.852v-11.78c0-1.317-.291-2.305-.874-2.964-.557-.684-1.482-1.026-2.774-1.026-.709 0-1.317.114-1.824.342a3.43 3.43 0 00-1.254.836c-.329.355-.57.786-.722 1.292a5.021 5.021 0 00-.228 1.52v11.78h-5.852v-20.14zm32.128 14.516h5.89v-14.098l-5.89 4.18v-6.84l5.928-4.218h6.802v20.976h4.75v5.624h-17.48v-5.624zm30.387 6.118c-1.495 0-2.888-.24-4.18-.722-1.292-.506-2.42-1.304-3.382-2.394-.963-1.089-1.723-2.508-2.28-4.256-.532-1.773-.798-3.914-.798-6.422v-.76c0-2.33.266-4.319.798-5.966.557-1.646 1.317-2.989 2.28-4.028a8.53 8.53 0 013.382-2.318c1.292-.481 2.685-.722 4.18-.722 1.494 0 2.888.241 4.18.722 1.292.482 2.419 1.254 3.382 2.318.962 1.039 1.71 2.382 2.242 4.028.557 1.647.836 3.636.836 5.966v.76c0 2.508-.279 4.649-.836 6.422-.532 1.748-1.28 3.167-2.242 4.256-.963 1.09-2.09 1.888-3.382 2.394-1.292.482-2.686.722-4.18.722zm0-5.624c.506 0 .988-.126 1.444-.38.481-.253.886-.684 1.216-1.292.354-.633.633-1.469.836-2.508.202-1.064.304-2.394.304-3.99v-.76c0-1.393-.102-2.558-.304-3.496-.203-.962-.482-1.735-.836-2.318-.33-.582-.735-.988-1.216-1.216a2.935 2.935 0 00-1.444-.38c-.507 0-1.001.127-1.482.38-.456.228-.862.634-1.216 1.216-.33.583-.596 1.356-.798 2.318-.203.938-.304 2.103-.304 3.496v.76c0 1.596.101 2.926.304 3.99.202 1.039.468 1.875.798 2.508.354.608.76 1.039 1.216 1.292.481.254.975.38 1.482.38zm13.315-8.322h12.54v5.624h-12.54v-5.624zm21.413-7.524h-8.17v-5.624h23.18v5.624h-8.17v20.976h-6.84v-20.976zm30.044 21.47c-1.748 0-3.407-.253-4.978-.76a11.095 11.095 0 01-4.142-2.394c-1.165-1.114-2.09-2.52-2.774-4.218-.684-1.722-1.026-3.8-1.026-6.232v-.76c0-2.33.342-4.332 1.026-6.004.684-1.672 1.609-3.04 2.774-4.104a11.388 11.388 0 014.142-2.356c1.571-.506 3.23-.76 4.978-.76 1.748 0 3.407.254 4.978.76 1.571.507 2.939 1.292 4.104 2.356 1.191 1.064 2.128 2.432 2.812 4.104.684 1.672 1.026 3.674 1.026 6.004v.76c0 2.432-.342 4.51-1.026 6.232-.684 1.698-1.621 3.104-2.812 4.218a10.745 10.745 0 01-4.104 2.394c-1.571.507-3.23.76-4.978.76zm0-5.7c.76 0 1.495-.114 2.204-.342a4.578 4.578 0 001.862-1.254c.532-.608.963-1.418 1.292-2.432.329-1.013.494-2.305.494-3.876v-.76c0-1.469-.165-2.685-.494-3.648-.329-.988-.76-1.76-1.292-2.318a4.266 4.266 0 00-1.862-1.216 7.156 7.156 0 00-2.204-.342c-.76 0-1.495.114-2.204.342a4.266 4.266 0 00-1.862 1.216c-.532.558-.963 1.33-1.292 2.318-.329.963-.494 2.179-.494 3.648v.76c0 1.571.165 2.863.494 3.876.329 1.014.76 1.824 1.292 2.432a4.578 4.578 0 001.862 1.254 7.156 7.156 0 002.204.342zm17.272-21.394h10.83c3.699 0 6.422.811 8.17 2.432 1.773 1.596 2.66 3.813 2.66 6.65 0 2.838-.887 5.067-2.66 6.688-1.748 1.596-4.471 2.394-8.17 2.394h-3.99v8.436h-6.84v-26.6zm10.07 12.54c1.748 0 2.977-.291 3.686-.874.709-.582 1.064-1.444 1.064-2.584 0-1.14-.355-2.001-1.064-2.584-.709-.582-1.938-.874-3.686-.874h-3.23v6.916h3.23z" fill="#fff"/><path d="M165.2 226.171l5.6-4.86c.427-.36.774-.687 1.04-.98.28-.293.5-.567.66-.82.16-.267.267-.527.32-.78.067-.253.1-.527.1-.82 0-.787-.233-1.433-.7-1.94-.466-.52-1.106-.78-1.92-.78-.973 0-1.72.267-2.24.8-.52.52-.78 1.26-.78 2.22h-1.88c0-.68.114-1.307.34-1.88a4.357 4.357 0 011-1.5 4.66 4.66 0 011.56-.96c.6-.24 1.267-.36 2-.36.707 0 1.34.113 1.9.34a3.84 3.84 0 011.42.92c.387.387.68.847.88 1.38.2.533.3 1.12.3 1.76 0 .48-.073.927-.22 1.34a4.734 4.734 0 01-.62 1.18c-.253.373-.566.74-.94 1.1-.36.347-.76.707-1.2 1.08l-4.18 3.46H175v1.64h-9.8v-1.54zm17.002 1.74c-.68 0-1.327-.113-1.94-.34-.6-.227-1.127-.613-1.58-1.16-.453-.56-.813-1.3-1.08-2.22-.267-.933-.4-2.093-.4-3.48v-.4c0-1.293.133-2.373.4-3.24s.627-1.56 1.08-2.08c.453-.533.98-.913 1.58-1.14a5.542 5.542 0 011.94-.34c.68 0 1.32.113 1.92.34a3.824 3.824 0 011.6 1.14c.453.52.813 1.213 1.08 2.08.267.867.4 1.947.4 3.24v.4c0 1.387-.133 2.547-.4 3.48-.267.92-.627 1.66-1.08 2.22a3.753 3.753 0 01-1.6 1.16c-.6.227-1.24.34-1.92.34zm0-1.64c.413 0 .807-.073 1.18-.22.387-.16.72-.44 1-.84.293-.413.52-.98.68-1.7.173-.72.26-1.653.26-2.8v-.4c0-1.04-.087-1.893-.26-2.56-.16-.667-.387-1.193-.68-1.58-.28-.387-.613-.653-1-.8a3.191 3.191 0 00-1.18-.22c-.427 0-.827.073-1.2.22-.373.147-.707.413-1 .8-.28.387-.507.913-.68 1.58-.16.667-.24 1.52-.24 2.56v.4c0 1.147.08 2.08.24 2.8.173.72.4 1.287.68 1.7.293.4.627.68 1 .84.373.147.773.22 1.2.22zm7.002-.1l5.6-4.86c.427-.36.774-.687 1.04-.98.28-.293.5-.567.66-.82.16-.267.267-.527.32-.78.067-.253.1-.527.1-.82 0-.787-.233-1.433-.7-1.94-.466-.52-1.106-.78-1.92-.78-.973 0-1.72.267-2.24.8-.52.52-.78 1.26-.78 2.22h-1.88c0-.68.114-1.307.34-1.88a4.357 4.357 0 011-1.5 4.66 4.66 0 011.56-.96c.6-.24 1.267-.36 2-.36.707 0 1.34.113 1.9.34a3.84 3.84 0 011.42.92c.387.387.68.847.88 1.38.2.533.3 1.12.3 1.76 0 .48-.073.927-.22 1.34a4.734 4.734 0 01-.62 1.18c-.253.373-.566.74-.94 1.1-.36.347-.76.707-1.2 1.08l-4.18 3.46h7.36v1.64h-9.8v-1.54zm11.602 0l5.6-4.86c.427-.36.773-.687 1.04-.98.28-.293.5-.567.66-.82.16-.267.267-.527.32-.78.067-.253.1-.527.1-.82 0-.787-.233-1.433-.7-1.94-.467-.52-1.107-.78-1.92-.78-.973 0-1.72.267-2.24.8-.52.52-.78 1.26-.78 2.22h-1.88c0-.68.113-1.307.34-1.88a4.343 4.343 0 011-1.5 4.66 4.66 0 011.56-.96c.6-.24 1.267-.36 2-.36.707 0 1.34.113 1.9.34.56.213 1.033.52 1.42.92.387.387.68.847.88 1.38.2.533.3 1.12.3 1.76 0 .48-.073.927-.22 1.34a4.767 4.767 0 01-.62 1.18c-.253.373-.567.74-.94 1.1-.36.347-.76.707-1.2 1.08l-4.18 3.46h7.36v1.64h-9.8v-1.54z" fill="#fff" fill-opacity=".6"/><g clip-path="url(#clip0_1768_12337)" fill="#fff"><path fill-rule="evenodd" clip-rule="evenodd" d="M177.536 49.676H102v46.398h75.536V49.676zm-53.635 24.109l4.393 1.305c-.295 1.21-.76 2.222-1.394 3.034a6.032 6.032 0 01-2.368 1.838c-.937.413-2.132.62-3.585.62-1.763 0-3.205-.25-4.327-.75-1.114-.508-2.076-1.396-2.888-2.665-.811-1.269-1.217-2.893-1.217-4.872 0-2.639.712-4.665 2.136-6.079 1.431-1.42 3.452-2.131 6.063-2.131 2.044 0 3.648.406 4.814 1.218 1.172.812 2.043 2.059 2.611 3.74l-4.426.968a5.943 5.943 0 00-.205-.555 2.486 2.486 0 00-.282-.51 2.864 2.864 0 00-1.029-.87 2.999 2.999 0 00-1.361-.305c-1.136 0-2.006.45-2.611 1.349-.458.667-.686 1.714-.686 3.142 0 1.77.273 2.984.819 3.643.545.653 1.313.98 2.301.98.959 0 1.682-.265 2.169-.795.494-.529.852-1.297 1.073-2.305zm7.463-9.428h6.594l2.545 9.7 2.534-9.7h6.572v15.942h-4.094V68.14l-3.175 12.158h-3.707l-3.164-12.158v12.158h-4.105V64.356zm26.029 10.374l-4.769.294c.14 1.609.741 2.936 1.804 3.98 1.062 1.044 2.972 1.566 5.731 1.566 1.571 0 2.873-.221 3.906-.664 1.033-.45 1.837-1.105 2.412-1.968a4.988 4.988 0 00.863-2.827c0-.87-.217-1.657-.653-2.36-.427-.703-1.117-1.29-2.069-1.762-.944-.478-2.512-.95-4.702-1.414-.885-.18-1.446-.377-1.682-.587-.244-.203-.365-.431-.365-.685 0-.348.147-.642.442-.88.295-.247.734-.37 1.317-.37.708 0 1.261.163 1.66.489.179.144.331.327.456.548.157.279.271.618.34 1.018l4.725-.272c-.206-1.653-.856-2.856-1.947-3.61-1.085-.762-2.663-1.142-4.736-1.142-1.689 0-3.021.21-3.995.63-.966.414-1.692.986-2.179 1.719-.48.725-.719 1.497-.719 2.316 0 1.247.472 2.273 1.416 3.077.937.805 2.504 1.45 4.702 1.936 1.343.29 2.199.598 2.567.924.369.327.554.697.554 1.11 0 .435-.196.819-.587 1.152-.383.327-.933.49-1.648.49-.959 0-1.697-.323-2.213-.968-.318-.399-.528-.979-.631-1.74z"/><path d="M186.136 63.286h3.153v1.264c.454-.528.91-.903 1.369-1.126.465-.223 1.024-.334 1.677-.334.703 0 1.259.122 1.668.367.409.245.744.609 1.004 1.093.531-.566 1.015-.95 1.452-1.15.437-.207.977-.31 1.619-.31.946 0 1.684.277 2.215.832.531.549.797 1.41.797 2.585v5.44h-3.386v-4.934c0-.392-.077-.683-.232-.873-.227-.299-.509-.448-.847-.448-.398 0-.719.14-.962.424-.244.282-.365.736-.365 1.362v4.47h-3.386v-4.772c0-.38-.023-.639-.067-.775a1.034 1.034 0 00-.373-.522.994.994 0 00-.623-.204c-.387 0-.705.144-.954.433-.249.288-.373.76-.373 1.419v4.42h-3.386v-8.661zm20.049 2.805l-3.228-.334c.122-.555.296-.99.523-1.305.232-.321.564-.598.996-.832.309-.169.735-.3 1.278-.392a10.488 10.488 0 011.759-.138c1.012 0 1.825.057 2.439.171.615.109 1.127.34 1.535.693.288.245.515.593.681 1.044.167.446.249.873.249 1.28v3.826c0 .408.025.729.075.962.055.229.172.522.349.881h-3.17a3.346 3.346 0 01-.25-.505 3.926 3.926 0 01-.115-.555c-.443.419-.883.718-1.32.897-.598.24-1.292.359-2.083.359-1.051 0-1.851-.24-2.398-.718-.543-.478-.814-1.068-.814-1.77 0-.657.197-1.198.59-1.623.392-.424 1.117-.74 2.174-.946 1.267-.25 2.088-.424 2.464-.522a11.97 11.97 0 001.195-.4c0-.407-.086-.693-.257-.856-.172-.163-.473-.244-.904-.244-.554 0-.968.087-1.245.26-.216.136-.39.392-.523.767zm2.929 1.746c-.465.163-.948.307-1.452.432-.686.18-1.12.356-1.303.53-.188.18-.282.383-.282.612 0 .26.091.475.274.644.188.163.462.245.822.245a2.1 2.1 0 001.045-.27c.326-.179.557-.396.689-.652.138-.26.207-.598.207-1.011v-.53zm11.461-4.551h3.162v8.18l.008.383c0 .544-.119 1.06-.356 1.55a3.218 3.218 0 01-.938 1.199c-.387.304-.882.525-1.485.66-.598.136-1.284.205-2.059.205-1.77 0-2.988-.261-3.651-.784-.659-.522-.988-1.22-.988-2.096 0-.108.006-.255.017-.44l3.278.367c.083.299.21.506.381.62.25.168.562.253.939.253.486 0 .849-.128 1.087-.384.243-.255.364-.701.364-1.337v-1.313c-.331.386-.664.666-.995.84a3.584 3.584 0 01-1.685.408c-1.178 0-2.13-.506-2.855-1.517-.514-.718-.772-1.667-.772-2.847 0-1.348.333-2.376.996-3.083.664-.707 1.533-1.06 2.606-1.06.687 0 1.25.114 1.693.342.448.229.865.607 1.253 1.134v-1.28zm-3.178 4.2c0 .625.135 1.09.407 1.394.271.3.627.45 1.07.45.421 0 .772-.156 1.054-.466.287-.315.431-.788.431-1.419 0-.63-.149-1.112-.448-1.444-.299-.337-.663-.505-1.095-.505-.431 0-.777.155-1.038.465-.254.304-.381.813-.381 1.525zm11.46-1.395l-3.228-.334c.122-.555.296-.99.523-1.305.232-.321.564-.598.996-.832.309-.169.736-.3 1.277-.392a10.509 10.509 0 011.76-.138c1.012 0 1.826.057 2.439.171.615.109 1.127.34 1.536.693.287.245.515.593.68 1.044.166.446.25.873.25 1.28v3.826c0 .408.024.729.074.962.055.229.171.522.348.881h-3.17a3.29 3.29 0 01-.248-.505 3.76 3.76 0 01-.116-.555c-.443.419-.884.718-1.32.897-.598.24-1.292.359-2.083.359-1.051 0-1.851-.24-2.398-.718-.543-.478-.814-1.068-.814-1.77 0-.657.197-1.198.59-1.623.392-.424 1.118-.74 2.174-.946 1.267-.25 2.088-.424 2.464-.522a12.07 12.07 0 001.196-.4c0-.407-.086-.693-.258-.856-.171-.163-.473-.244-.904-.244-.554 0-.968.087-1.245.26-.216.136-.39.392-.523.767zm2.93 1.746c-.465.163-.949.307-1.453.432-.686.18-1.12.356-1.302.53-.188.18-.283.383-.283.612 0 .26.091.475.274.644.188.163.462.245.822.245.376 0 .724-.09 1.046-.27.326-.179.555-.396.688-.652.139-.26.208-.598.208-1.011v-.53zm4.946-4.552h8.174v1.941l-4.448 4.453h4.722v2.268h-8.78v-2.154l4.215-4.24h-3.883v-2.268zm9.965-3.295h3.379v2.26h-3.379v-2.26zm0 3.295h3.379v8.662h-3.379v-8.662zm5.536.001h3.145v1.41c.471-.576.946-.986 1.427-1.231.482-.25 1.068-.375 1.761-.375.934 0 1.664.274 2.19.824.531.543.796 1.386.796 2.528v5.505h-3.393v-4.763c0-.544-.103-.927-.308-1.15-.204-.228-.492-.343-.863-.343a1.24 1.24 0 00-.996.457c-.254.305-.381.851-.381 1.64v4.16h-3.378v-8.662zm21.121 5.154h-6.772c.061.533.207.93.44 1.19.327.376.753.564 1.278.564.331 0 .648-.082.946-.245.183-.103.379-.285.589-.546l3.328.301c-.509.87-1.123 1.496-1.842 1.876-.719.375-1.751.563-3.095.563-1.168 0-2.087-.16-2.755-.481-.67-.327-1.227-.84-1.668-1.542-.438-.707-.657-1.536-.657-2.487 0-1.354.44-2.45 1.32-3.287.886-.838 2.105-1.256 3.66-1.256 1.261 0 2.257.187 2.988.563a3.847 3.847 0 011.668 1.63c.381.713.572 1.64.572 2.782v.375zm-3.436-1.59c-.067-.642-.243-1.101-.531-1.379-.282-.277-.656-.416-1.12-.416-.537 0-.966.21-1.287.628-.205.261-.334.65-.389 1.167h3.327z"/><path d="M186.515 86.794v-5.277h1.881c.651 0 1.146.123 1.482.37.337.243.506.602.506 1.076 0 .258-.068.487-.203.685-.135.196-.324.34-.565.431.276.068.492.205.65.41.159.205.239.457.239.754 0 .507-.164.892-.494 1.153-.329.26-.799.394-1.409.398h-2.087zm1.106-2.298v1.425h.948c.261 0 .464-.06.609-.181a.627.627 0 00.221-.508c0-.483-.255-.728-.764-.736h-1.014zm0-.768h.819c.558-.01.837-.229.837-.656 0-.24-.071-.411-.214-.515-.14-.106-.362-.16-.667-.16h-.775v1.33zm9.595 1.309c-.042.567-.256 1.014-.642 1.34-.383.327-.89.49-1.519.49-.689 0-1.231-.227-1.627-.681-.393-.457-.59-1.083-.59-1.878v-.323c0-.507.091-.954.273-1.34a2.01 2.01 0 01.778-.889 2.215 2.215 0 011.18-.312c.62 0 1.119.163 1.498.49.378.326.597.784.656 1.374h-1.106c-.027-.341-.124-.588-.292-.74-.164-.155-.416-.232-.756-.232-.369 0-.645.13-.83.392-.182.258-.275.66-.28 1.207v.398c0 .57.087.987.262 1.25.177.264.455.396.834.396.341 0 .596-.076.763-.228.17-.155.267-.393.291-.714h1.107zm5.619-.53h-2.124v1.414h2.493v.873h-3.6v-5.277h3.593v.88h-2.486v1.258h2.124v.852zm10.634-.232c0 .52-.093.975-.28 1.367a2.078 2.078 0 01-.804.906 2.24 2.24 0 01-1.195.32c-.445 0-.842-.106-1.191-.316a2.118 2.118 0 01-.812-.9c-.191-.39-.288-.84-.291-1.348v-.26c0-.52.095-.977.284-1.37a2.1 2.1 0 01.808-.91 2.249 2.249 0 011.194-.32c.448 0 .846.107 1.193.32.348.21.618.513.807.91.192.393.287.849.287 1.366v.235zm-1.121-.239c0-.553-.101-.974-.302-1.261-.202-.288-.489-.432-.864-.432-.37 0-.657.143-.859.428-.201.283-.303.698-.305 1.247v.257c0 .54.101.957.302 1.255.202.297.492.445.87.445.371 0 .657-.142.856-.427.199-.288.3-.706.302-1.255v-.257zm7.131 2.758v-5.277h1.652c.472 0 .894.105 1.264.315.374.208.666.505.875.892.209.384.313.821.313 1.312v.243c0 .49-.103.927-.31 1.308a2.175 2.175 0 01-.866.888c-.374.21-.795.317-1.266.32h-1.662zm1.106-4.397v3.524h.534c.433 0 .764-.14.993-.417.228-.278.345-.675.35-1.193v-.279c0-.536-.114-.942-.34-1.218-.226-.278-.556-.417-.991-.417h-.546zm6.644 4.397h-1.106v-5.277h1.106v5.277zm6.94-.666c-.199.234-.48.416-.844.547a3.63 3.63 0 01-1.211.192c-.464 0-.872-.099-1.224-.297a2.03 2.03 0 01-.811-.87c-.189-.38-.287-.825-.292-1.338v-.358c0-.527.09-.983.27-1.367.181-.387.443-.682.781-.885.342-.205.742-.308 1.199-.308.637 0 1.135.15 1.494.45.359.297.572.73.638 1.301h-1.077c-.049-.302-.158-.523-.328-.663-.168-.14-.398-.21-.693-.21-.377 0-.663.138-.86.416-.197.278-.296.692-.298 1.24v.337c0 .554.107.972.32 1.254.215.283.528.425.941.425.415 0 .711-.087.889-.261v-.91h-1.007v-.801h2.113v2.106zm3.738.666h-1.106v-5.277h1.106v5.277zm6.623-4.397h-1.646v4.397h-1.106v-4.397h-1.623v-.88h4.375v.88zm4.885 3.31h-1.939l-.37 1.087h-1.176l1.999-5.277h1.026l2.009 5.277h-1.176l-.373-1.087zm-1.641-.88h1.343l-.675-1.977-.668 1.976zm6.46 1.093h2.35v.874h-3.456v-5.277h1.106v4.404z" opacity=".9"/></g><path d="M22.032 118.049c-.25 2.274-.424 4.55-.52 6.824.012-2.464-.156-6.438-3.69-8.667.407.793.623 2.106.86 3.543.43 2.616.929 5.64 2.776 6.665a99.873 99.873 0 00.036 6.486c-.491-2.925-1.715-6.374-5.358-8.225.605.961 1.028 2.612 1.49 4.417.828 3.227 1.781 6.947 4.125 8.098.192 2.354.47 4.697.831 7.025-1.078-3.436-3.11-7.938-8.241-9.425.887.952 1.717 2.72 2.625 4.654 1.59 3.387 3.42 7.282 6.209 8.182a95.417 95.417 0 001.944 8.162c-1.61-3.503-4.358-7.823-9.872-8.751 1.072.913 2.185 2.71 3.402 4.676 2.13 3.442 4.581 7.401 7.69 8.022a93.37 93.37 0 004.382 10.837c-2.566-4.303-6.913-10.459-14.852-10.667 1.512.958 3.231 3.022 5.112 5.278 3.382 4.057 7.284 8.739 11.427 8.734a92.518 92.518 0 003.115 5.425 96.937 96.937 0 002.433 3.732c-3.878-4.096-9.548-8.418-17.377-7.337 1.948.826 4.351 2.903 6.98 5.174 4.64 4.01 9.982 8.626 14.75 8.032a97.887 97.887 0 0010.45 11.139c-1.783-.86-3.804-2.09-5.942-3.392-6.132-3.734-13.232-8.056-18.47-5.92.633.461 1.419 1.147 2.346 1.956 4.688 4.093 12.996 11.347 23.607 8.731a97.637 97.637 0 0012.749 9.432c-1.864-.553-4.044-1.418-6.374-2.343-7.102-2.817-15.598-6.188-20.784-2.967.729.362 1.651.926 2.74 1.593 5.566 3.404 15.472 9.463 25.988 4.671a97.021 97.021 0 008.405 4.459c-7.029-1.08-15.975-.94-21.527 2.497 1.845.486 3.664 1.049 5.458 1.604 8.265 2.556 15.996 4.947 23.197-1.099a96.49 96.49 0 0011.125 3.423l.417-1.716a94.793 94.793 0 01-10.666-3.265c.429-5.058-4.528-12.069-8.218-17.289-1.932-2.732-3.516-4.973-3.8-6.186-3.145 8.81 1.565 16.506 8.455 22.069a95.257 95.257 0 01-11.671-5.854c1.866-5.163-1.639-12.405-4.691-18.713-1.761-3.638-3.371-6.965-3.713-9.403-4.724 11.199 2.299 21.004 6.199 26.448l.42.588a95.886 95.886 0 01-12.229-9.002c2.517-4.713-.012-12.138-2.21-18.596-1.257-3.688-2.405-7.06-2.446-9.433-5.837 10.158-.273 20.365 2.816 26.033l.388.713a96.203 96.203 0 01-10.367-10.94c2.211-4.313.24-11.104-1.481-17.034-1.013-3.489-1.94-6.681-1.877-8.893-5.13 8.051-2.153 16.509.44 22.127a95.842 95.842 0 01-4.019-5.969 99.269 99.269 0 01-3.224-5.6c2.369-3.027 2.102-8.593 1.868-13.466-.14-2.935-.27-5.618.196-7.346-5.477 5.3-4.813 12.397-3.849 17.296a98.71 98.71 0 01-4.179-10.025c2.316-2.175 2.653-6.792 2.947-10.827.174-2.389.333-4.574.88-5.927-5.057 3.83-5.118 9.803-4.796 13.873a97.076 97.076 0 01-2.453-9.235c2.375-1.654 3.174-5.81 3.87-9.435.408-2.117.78-4.052 1.41-5.203-5.092 2.99-5.646 8.594-5.755 12.267a94.95 94.95 0 01-1.126-7.769c2.15-1.376 2.915-5.037 3.582-8.226.385-1.841.738-3.525 1.304-4.521-4.093 2.316-4.92 6.583-5.146 9.746a92.466 92.466 0 01-.222-7.695c1.914-.928 2.844-3.909 3.652-6.503.462-1.482.885-2.837 1.43-3.61-3.603 1.603-4.596 5.128-5.02 7.721a90.64 90.64 0 01.424-5.904c2.468-2.804 2.165-6.985 1.892-10.754-.083-1.138-.162-2.239-.162-3.252-.293.845-.657 1.737-1.033 2.661-1.48 3.636-3.16 7.759-1.482 11.371zm331.935-.001c.251 2.274.424 4.551.52 6.825-.012-2.464.156-6.438 3.691-8.667-.408.793-.625 2.106-.861 3.543-.431 2.616-.929 5.64-2.776 6.665.058 2.167.046 4.332-.036 6.49.491-2.927 1.714-6.377 5.359-8.229-.605.961-1.029 2.612-1.491 4.417-.828 3.227-1.781 6.947-4.125 8.098a97.644 97.644 0 01-.831 7.025c1.078-3.436 3.11-7.938 8.241-9.425-.887.952-1.717 2.72-2.625 4.654-1.591 3.387-3.419 7.282-6.209 8.182a95.353 95.353 0 01-1.944 8.162c1.61-3.504 4.358-7.823 9.872-8.751-1.072.913-2.185 2.71-3.402 4.676-2.131 3.442-4.581 7.401-7.691 8.022a93.247 93.247 0 01-4.384 10.842c2.566-4.303 6.913-10.464 14.855-10.672-1.511.958-3.231 3.022-5.112 5.278-3.382 4.058-7.284 8.739-11.427 8.734a93.034 93.034 0 01-3.115 5.425 98.27 98.27 0 01-2.434 3.733c3.878-4.096 9.549-8.42 17.378-7.338-1.947.826-4.351 2.903-6.979 5.174-4.641 4.01-9.983 8.626-14.75 8.032a97.878 97.878 0 01-10.451 11.139c1.783-.86 3.804-2.09 5.942-3.392 6.133-3.734 13.232-8.056 18.47-5.92-.633.461-1.419 1.147-2.346 1.957-4.688 4.093-12.996 11.346-23.607 8.73a97.651 97.651 0 01-12.749 9.431c1.864-.552 4.044-1.417 6.374-2.342 7.102-2.817 15.598-6.188 20.784-2.967-.729.362-1.652.926-2.741 1.593-5.565 3.403-15.471 9.463-25.987 4.671a96.97 96.97 0 01-8.405 4.459c7.029-1.081 15.975-.94 21.527 2.497-1.844.486-3.662 1.048-5.456 1.603h-.001l-.001.001c-8.264 2.556-15.996 4.947-23.197-1.099a96.683 96.683 0 01-11.125 3.423l-.417-1.716a94.81 94.81 0 0010.666-3.265c-.428-5.058 4.529-12.069 8.219-17.289 1.931-2.732 3.516-4.973 3.799-6.186 3.145 8.81-1.564 16.505-8.454 22.069a95.273 95.273 0 0011.67-5.854c-1.866-5.163 1.639-12.405 4.691-18.713 1.761-3.638 3.371-6.965 3.713-9.403 4.723 11.199-2.299 21.004-6.199 26.448l-.42.588a95.912 95.912 0 0012.229-9.002c-2.517-4.713.012-12.138 2.211-18.596 1.256-3.688 2.404-7.06 2.445-9.433 5.837 10.158.273 20.365-2.816 26.033l-.388.713a96.178 96.178 0 0010.367-10.941c-2.211-4.312-.239-11.103 1.482-17.033 1.013-3.489 1.939-6.681 1.876-8.893 5.13 8.05 2.154 16.508-.439 22.126a95.724 95.724 0 004.018-5.968 99.543 99.543 0 003.224-5.601c-2.368-3.027-2.101-8.592-1.868-13.466.141-2.934.27-5.617-.196-7.345 5.477 5.299 4.813 12.395 3.85 17.294a98.87 98.87 0 004.178-10.023c-2.316-2.175-2.652-6.792-2.947-10.827-.174-2.389-.333-4.574-.88-5.927 5.057 3.829 5.119 9.802 4.796 13.872a96.874 96.874 0 002.453-9.234c-2.375-1.654-3.174-5.81-3.871-9.435-.407-2.117-.779-4.052-1.409-5.203 5.092 2.99 5.646 8.594 5.755 12.267a94.606 94.606 0 001.126-7.769c-2.149-1.376-2.915-5.037-3.582-8.226-.385-1.841-.737-3.525-1.304-4.521 4.092 2.315 4.92 6.58 5.146 9.743a92.61 92.61 0 00.222-7.692c-1.915-.928-2.844-3.909-3.653-6.503-.462-1.482-.884-2.837-1.429-3.61 3.604 1.604 4.596 5.131 5.02 7.725a90.732 90.732 0 00-.424-5.907c-2.468-2.804-2.165-6.986-1.892-10.755.082-1.138.162-2.239.162-3.252.292.845.656 1.737 1.033 2.661 1.48 3.636 3.159 7.759 1.482 11.37z" fill="#DBFF00"/><path d="M67.256 265.939h8.8v10.6h-1.76v-9.04h-5.28v9.04h-1.76v-10.6zm16.392 10.8c-.68 0-1.326-.107-1.94-.32a4.726 4.726 0 01-1.62-1c-.466-.453-.84-1.02-1.12-1.7-.28-.68-.42-1.473-.42-2.38v-.4c0-.853.14-1.607.42-2.26.28-.653.654-1.193 1.12-1.62a4.475 4.475 0 011.62-.98 5.544 5.544 0 011.94-.34c.68 0 1.327.113 1.94.34.614.213 1.154.54 1.62.98.467.427.84.967 1.12 1.62.28.653.42 1.407.42 2.26v.4c0 .907-.14 1.7-.42 2.38-.28.68-.653 1.247-1.12 1.7a4.725 4.725 0 01-1.62 1 5.87 5.87 0 01-1.94.32zm0-1.6c.4 0 .8-.067 1.2-.2.4-.147.754-.367 1.06-.66.307-.307.554-.7.74-1.18.2-.48.3-1.067.3-1.76v-.4c0-.64-.1-1.187-.3-1.64a3.22 3.22 0 00-.74-1.12 2.794 2.794 0 00-1.06-.64c-.4-.133-.8-.2-1.2-.2-.4 0-.8.067-1.2.2-.4.133-.753.347-1.06.64-.306.293-.56.667-.76 1.12-.186.453-.28 1-.28 1.64v.4c0 .693.094 1.28.28 1.76.2.48.454.873.76 1.18.307.293.66.513 1.06.66.4.133.8.2 1.2.2zm12.593-9.2h4.6c1.306 0 2.266.273 2.88.82.613.533.92 1.227.92 2.08 0 .227-.04.46-.12.7a2.48 2.48 0 01-.34.64c-.134.2-.3.373-.5.52-.187.147-.4.26-.64.34.653.16 1.146.467 1.48.92.346.44.52.96.52 1.56 0 .92-.307 1.653-.92 2.2-.614.547-1.574.82-2.88.82h-5v-10.6zm5 9.04c.746 0 1.273-.133 1.58-.4.306-.267.46-.647.46-1.14 0-.507-.154-.893-.46-1.16-.307-.28-.834-.42-1.58-.42h-3.24v3.12h3.24zm-.4-4.56c.76 0 1.286-.133 1.58-.4.306-.267.46-.633.46-1.1 0-.44-.154-.787-.46-1.04-.294-.253-.82-.38-1.58-.38h-2.84v2.92h2.84zm11.108 6.32c-.68 0-1.326-.107-1.94-.32a4.48 4.48 0 01-1.62-.98c-.466-.453-.84-1.02-1.12-1.7-.28-.68-.42-1.48-.42-2.4v-.4c0-.88.134-1.64.4-2.28.267-.653.62-1.193 1.06-1.62a4.36 4.36 0 011.56-.98 5.58 5.58 0 011.88-.32c1.56 0 2.767.427 3.62 1.28.854.853 1.28 2.06 1.28 3.62v1.12h-8.04c0 .627.1 1.153.3 1.58a2.967 2.967 0 001.84 1.62c.4.12.8.18 1.2.18.8 0 1.414-.133 1.84-.4a2.22 2.22 0 00.94-1.1h1.72c-.106.507-.3.953-.58 1.34-.266.387-.6.713-1 .98a4.517 4.517 0 01-1.34.58c-.493.133-1.02.2-1.58.2zm-.1-9.4c-.413 0-.813.06-1.2.18a2.789 2.789 0 00-1.04.54 2.78 2.78 0 00-.72.92c-.186.373-.28.82-.28 1.34h6.38c-.013-.547-.106-1.007-.28-1.38a2.272 2.272 0 00-.66-.92 2.56 2.56 0 00-1-.52 4.334 4.334 0 00-1.2-.16zm7.302-1.4h1.64v2c.36-.707.86-1.247 1.5-1.62.653-.387 1.406-.58 2.26-.58 1.333 0 2.4.44 3.2 1.32.8.867 1.2 2.16 1.2 3.88v.4c0 .907-.107 1.7-.32 2.38-.214.667-.514 1.227-.9 1.68-.387.44-.854.773-1.4 1a4.505 4.505 0 01-1.78.34c-.907 0-1.667-.2-2.28-.6-.6-.4-1.054-.9-1.36-1.5v5.9h-1.76v-14.6zm5 9.24c.426 0 .826-.08 1.2-.24.373-.173.693-.42.96-.74.28-.32.493-.72.64-1.2.16-.48.24-1.033.24-1.66v-.4a4.61 4.61 0 00-.24-1.54 3.07 3.07 0 00-.64-1.14 2.541 2.541 0 00-.96-.72 3.019 3.019 0 00-1.2-.24c-.48 0-.92.08-1.32.24-.4.147-.74.36-1.02.64-.28.267-.5.587-.66.96-.16.373-.24.773-.24 1.2v1.6c0 .48.08.92.24 1.32.16.4.38.74.66 1.02s.62.5 1.02.66c.4.16.84.24 1.32.24zm11.404 1.56c-.68 0-1.313-.107-1.9-.32a4.208 4.208 0 01-1.52-1c-.426-.453-.766-1.02-1.02-1.7-.24-.68-.36-1.473-.36-2.38v-.4c0-.853.134-1.607.4-2.26.267-.653.62-1.193 1.06-1.62.44-.44.947-.767 1.52-.98a5.005 5.005 0 011.82-.34c.627 0 1.187.087 1.68.26.507.173.94.413 1.3.72.374.307.674.667.9 1.08.24.413.414.86.52 1.34h-1.8a3.846 3.846 0 00-.38-.7 1.945 1.945 0 00-.52-.58c-.2-.16-.44-.287-.72-.38a3.11 3.11 0 00-.98-.14c-.386 0-.76.073-1.12.22-.36.133-.68.347-.96.64-.28.28-.506.647-.68 1.1-.16.453-.24 1-.24 1.64v.4c0 .68.08 1.267.24 1.76.174.48.4.873.68 1.18.28.293.6.513.96.66.36.133.734.2 1.12.2.654 0 1.2-.16 1.64-.48.454-.32.774-.76.96-1.32h1.8c-.253 1.053-.773 1.887-1.56 2.5-.786.6-1.733.9-2.84.9zm6.799-10.8h1.76v8l5.48-8h1.76v10.6h-1.76v-8l-5.48 8h-1.76v-10.6zm12.207 0h1.76v8l5.48-8h1.76v10.6h-1.76v-8l-5.48 8h-1.76v-10.6zm22.707 10.8a6.284 6.284 0 01-2.24-.4 5.252 5.252 0 01-1.88-1.28c-.547-.587-.98-1.327-1.3-2.22-.32-.893-.48-1.96-.48-3.2v-.4c0-1.2.16-2.233.48-3.1.32-.867.753-1.58 1.3-2.14a5.144 5.144 0 011.88-1.24 6.025 6.025 0 012.24-.42c.76 0 1.453.1 2.08.3.64.2 1.2.487 1.68.86s.867.833 1.16 1.38c.307.547.5 1.167.58 1.86h-2c-.187-.907-.58-1.587-1.18-2.04-.6-.453-1.373-.68-2.32-.68a3.84 3.84 0 00-1.44.28 3.393 3.393 0 00-1.26.9c-.36.4-.653.933-.88 1.6-.213.667-.32 1.48-.32 2.44v.4c0 1.013.12 1.867.36 2.56.24.68.547 1.233.92 1.66.373.427.793.733 1.26.92.467.187.92.28 1.36.28 1.04 0 1.853-.253 2.44-.76s.94-1.16 1.06-1.96h2c-.107.773-.32 1.44-.64 2-.32.547-.727 1-1.22 1.36-.48.36-1.033.627-1.66.8a7.82 7.82 0 01-1.98.24zm8.494-14.2h1.96l4.68 8.9 4.68-8.9h1.88v14h-1.88v-10.6l-4.02 7.6h-1.4l-4.02-7.6v10.6h-1.88v-14zm21.607 14.2c-.84 0-1.574-.1-2.2-.3-.627-.2-1.154-.473-1.58-.82a4.284 4.284 0 01-1.02-1.24 5.474 5.474 0 01-.5-1.54h1.88c.066.307.18.6.34.88.16.267.373.5.64.7.28.2.62.36 1.02.48.4.107.873.16 1.42.16 1.12 0 1.966-.213 2.54-.64.586-.427.88-.953.88-1.58 0-.387-.067-.713-.2-.98-.12-.267-.334-.5-.64-.7-.294-.2-.687-.38-1.18-.54-.48-.16-1.074-.32-1.78-.48a17.967 17.967 0 01-2.04-.56c-.56-.213-1.027-.473-1.4-.78a3.15 3.15 0 01-.82-1.14c-.174-.44-.26-.98-.26-1.62 0-.52.113-1 .34-1.44.226-.453.546-.847.96-1.18.426-.333.94-.593 1.54-.78.613-.2 1.3-.3 2.06-.3.746 0 1.4.1 1.96.3.56.187 1.033.447 1.42.78.4.333.713.727.94 1.18.226.44.386.92.48 1.44h-1.88a3.079 3.079 0 00-.3-.78 1.845 1.845 0 00-.56-.64 2.497 2.497 0 00-.86-.44c-.334-.107-.734-.16-1.2-.16-.96 0-1.707.2-2.24.6-.52.387-.78.86-.78 1.42 0 .36.066.673.2.94.133.253.34.48.62.68.28.187.633.353 1.06.5.44.133.96.267 1.56.4.866.187 1.606.4 2.22.64.626.227 1.133.507 1.52.84.4.333.686.727.86 1.18.186.453.28.993.28 1.62 0 .547-.12 1.06-.36 1.54-.24.467-.587.88-1.04 1.24-.454.347-1.007.62-1.66.82-.654.2-1.4.3-2.24.3zm13.393-14.2h1.96l4.68 8.9 4.68-8.9h1.88v14h-1.88v-10.6l-4.02 7.6h-1.4l-4.02-7.6v10.6h-1.88v-14zm19.827 14.2c-.587 0-1.107-.08-1.56-.24a3.395 3.395 0 01-1.12-.7 2.917 2.917 0 01-.7-1.04c-.16-.4-.24-.84-.24-1.32 0-1.053.306-1.813.92-2.28.626-.467 1.52-.7 2.68-.7h3.44v-.72c0-.907-.207-1.533-.62-1.88-.4-.347-1.007-.52-1.82-.52-.76 0-1.314.147-1.66.44-.347.28-.54.6-.58.96h-1.76c.026-.427.14-.82.34-1.18a3.21 3.21 0 01.84-.96c.36-.267.786-.473 1.28-.62.493-.16 1.04-.24 1.64-.24 1.253 0 2.246.3 2.98.9.746.587 1.12 1.553 1.12 2.9v5.78c.013.413.046.82.1 1.22h-1.54c-.04-.307-.067-.593-.08-.86-.014-.28-.02-.593-.02-.94-.28.56-.734 1.033-1.36 1.42-.627.387-1.387.58-2.28.58zm.38-1.6c.413 0 .8-.053 1.16-.16.373-.12.7-.287.98-.5.28-.227.5-.5.66-.82.16-.32.24-.693.24-1.12v-.72h-3.14c-.654 0-1.167.133-1.54.4-.374.253-.56.66-.56 1.22 0 .493.173.9.52 1.22.36.32.92.48 1.68.48zm12.108 5.6c-.773 0-1.433-.08-1.98-.24-.546-.147-1-.353-1.36-.62a2.775 2.775 0 01-.8-.96 3.506 3.506 0 01-.36-1.18h1.84c.067.213.16.407.28.58.12.173.28.32.48.44.2.12.454.213.76.28.32.067.7.1 1.14.1 1.08 0 1.874-.26 2.38-.78.507-.52.76-1.26.76-2.22v-1.7c-.306.707-.78 1.233-1.42 1.58-.626.347-1.366.52-2.22.52a4.65 4.65 0 01-1.8-.34 3.799 3.799 0 01-1.38-1c-.386-.44-.686-.987-.9-1.64-.213-.667-.32-1.44-.32-2.32v-.4c0-.813.107-1.533.32-2.16.227-.64.534-1.173.92-1.6.387-.44.847-.773 1.38-1a4.596 4.596 0 011.78-.34c.907 0 1.694.207 2.36.62.667.4 1.134.927 1.4 1.58v-2h1.64v10.2c0 1.44-.42 2.567-1.26 3.38-.84.813-2.053 1.22-3.64 1.22zm-.1-5.76a3.8 3.8 0 001.32-.22c.4-.16.74-.38 1.02-.66s.5-.613.66-1c.16-.387.24-.807.24-1.26v-1.6c0-.4-.08-.78-.24-1.14-.16-.36-.38-.673-.66-.94a2.91 2.91 0 00-1.02-.62c-.4-.16-.84-.24-1.32-.24-.426 0-.826.08-1.2.24-.373.16-.7.393-.98.7-.266.307-.48.68-.64 1.12-.146.427-.22.92-.22 1.48v.4c0 .6.074 1.133.22 1.6.16.467.374.86.64 1.18.28.32.607.56.98.72.374.16.774.24 1.2.24zm11.225 1.76c-.587 0-1.107-.08-1.56-.24a3.405 3.405 0 01-1.12-.7 2.917 2.917 0 01-.7-1.04c-.16-.4-.24-.84-.24-1.32 0-1.053.307-1.813.92-2.28.627-.467 1.52-.7 2.68-.7h3.44v-.72c0-.907-.207-1.533-.62-1.88-.4-.347-1.007-.52-1.82-.52-.76 0-1.313.147-1.66.44-.347.28-.54.6-.58.96h-1.76c.027-.427.14-.82.34-1.18a3.21 3.21 0 01.84-.96c.36-.267.787-.473 1.28-.62.493-.16 1.04-.24 1.64-.24 1.253 0 2.247.3 2.98.9.747.587 1.12 1.553 1.12 2.9v5.78c.013.413.047.82.1 1.22h-1.54c-.04-.307-.067-.593-.08-.86-.013-.28-.02-.593-.02-.94-.28.56-.733 1.033-1.36 1.42-.627.387-1.387.58-2.28.58zm.38-1.6c.413 0 .8-.053 1.16-.16.373-.12.7-.287.98-.5.28-.227.5-.5.66-.82.16-.32.24-.693.24-1.12v-.72h-3.14c-.653 0-1.167.133-1.54.4-.373.253-.56.66-.56 1.22 0 .493.173.9.52 1.22.36.32.92.48 1.68.48zm7.109-.06l6.28-7.58h-6.08v-1.56h8.2v1.46l-6.28 7.58h6.48v1.56h-8.6v-1.46zm11.195-9.14h1.76v10.6h-1.76v-10.6zm.88-1.4c-.347 0-.633-.113-.86-.34a1.164 1.164 0 01-.34-.86c0-.347.113-.633.34-.86.227-.227.513-.34.86-.34s.633.113.86.34c.227.227.34.513.34.86s-.113.633-.34.86c-.227.227-.513.34-.86.34zm4.272 1.4h1.64v2c.12-.293.286-.573.5-.84.213-.267.466-.5.76-.7.306-.2.653-.36 1.04-.48.4-.12.84-.18 1.32-.18 1.333 0 2.32.36 2.96 1.08.653.707.98 1.747.98 3.12v6.6h-1.76v-6.2c0-.987-.207-1.733-.62-2.24-.414-.507-1.107-.76-2.08-.76-.52 0-.974.087-1.36.26-.374.173-.68.4-.92.68s-.42.6-.54.96c-.107.36-.16.727-.16 1.1v6.2h-1.76v-10.6zm16.704 10.8c-.68 0-1.326-.107-1.94-.32a4.48 4.48 0 01-1.62-.98c-.466-.453-.84-1.02-1.12-1.7-.28-.68-.42-1.48-.42-2.4v-.4c0-.88.134-1.64.4-2.28.267-.653.62-1.193 1.06-1.62a4.36 4.36 0 011.56-.98 5.58 5.58 0 011.88-.32c1.56 0 2.767.427 3.62 1.28.854.853 1.28 2.06 1.28 3.62v1.12h-8.04c0 .627.1 1.153.3 1.58a2.967 2.967 0 001.84 1.62c.4.12.8.18 1.2.18.8 0 1.414-.133 1.84-.4a2.22 2.22 0 00.94-1.1h1.72c-.106.507-.3.953-.58 1.34-.266.387-.6.713-1 .98a4.517 4.517 0 01-1.34.58c-.493.133-1.02.2-1.58.2zm-.1-9.4c-.413 0-.813.06-1.2.18a2.789 2.789 0 00-1.04.54 2.78 2.78 0 00-.72.92c-.186.373-.28.82-.28 1.34h6.38c-.013-.547-.106-1.007-.28-1.38a2.272 2.272 0 00-.66-.92 2.56 2.56 0 00-1-.52 4.334 4.334 0 00-1.2-.16zm-186.448 26.6h1.76v8l5.48-8h1.76v10.6h-1.76v-8l-5.48 8h-1.76v-10.6zm17.607-3.4h4.9c.88 0 1.646.107 2.3.32.666.213 1.22.507 1.66.88.44.373.773.82 1 1.34.226.507.34 1.06.34 1.66 0 .933-.28 1.753-.84 2.46-.547.693-1.36 1.18-2.44 1.46l3.68 5.88h-2.22l-3.34-5.64h-3.16v5.64h-1.88v-14zm4.7 6.76c1.293 0 2.22-.233 2.78-.7.56-.48.84-1.1.84-1.86s-.28-1.373-.84-1.84c-.56-.48-1.487-.72-2.78-.72h-2.82v5.12h2.82zm11.318 7.44c-.586 0-1.106-.08-1.56-.24a3.405 3.405 0 01-1.12-.7 2.93 2.93 0 01-.7-1.04c-.16-.4-.24-.84-.24-1.32 0-1.053.307-1.813.92-2.28.627-.467 1.52-.7 2.68-.7h3.44v-.72c0-.907-.206-1.533-.62-1.88-.4-.347-1.006-.52-1.82-.52-.76 0-1.313.147-1.66.44-.346.28-.54.6-.58.96h-1.76c.027-.427.14-.82.34-1.18.214-.373.494-.693.84-.96.36-.267.787-.473 1.28-.62.494-.16 1.04-.24 1.64-.24 1.254 0 2.247.3 2.98.9.747.587 1.12 1.553 1.12 2.9v5.78c.014.413.047.82.1 1.22h-1.54c-.04-.307-.066-.593-.08-.86-.013-.28-.02-.593-.02-.94-.28.56-.733 1.033-1.36 1.42-.626.387-1.386.58-2.28.58zm.38-1.6c.414 0 .8-.053 1.16-.16.374-.12.7-.287.98-.5.28-.227.5-.5.66-.82.16-.32.24-.693.24-1.12v-.72h-3.14c-.653 0-1.166.133-1.54.4-.373.253-.56.66-.56 1.22 0 .493.174.9.52 1.22.36.32.92.48 1.68.48zm11.614 1.5c-1.134 0-1.954-.253-2.46-.76-.494-.52-.74-1.3-.74-2.34v-6.04h-1.6v-1.56h1.6v-2.4h1.76v2.4h2.84v1.56h-2.84v5.84c0 .6.126 1.033.38 1.3.253.267.74.4 1.46.4.4 0 .8-.02 1.2-.06v1.56c-.254.027-.507.047-.76.06-.254.027-.534.04-.84.04zm4.307-10.7h1.76v10.6h-1.76v-10.6zm.88-1.4c-.346 0-.633-.113-.86-.34a1.168 1.168 0 01-.34-.86c0-.347.114-.633.34-.86.227-.227.514-.34.86-.34a1.163 1.163 0 011.2 1.2 1.163 1.163 0 01-1.2 1.2zm4.272 1.4h1.64v2a3.458 3.458 0 011.26-1.54c.307-.2.653-.36 1.04-.48.4-.12.84-.18 1.32-.18 1.333 0 2.32.36 2.96 1.08.653.707.98 1.747.98 3.12v6.6h-1.76v-6.2c0-.987-.207-1.733-.62-2.24-.413-.507-1.107-.76-2.08-.76-.52 0-.973.087-1.36.26-.373.173-.68.4-.92.68s-.42.6-.54.96c-.107.36-.16.727-.16 1.1v6.2h-1.76v-10.6zm16.505 14.8c-.774 0-1.434-.08-1.98-.24-.547-.147-1-.353-1.36-.62a2.753 2.753 0 01-.8-.96 3.461 3.461 0 01-.36-1.18h1.84c.066.213.16.407.28.58.12.173.28.32.48.44.2.12.453.213.76.28.32.067.7.1 1.14.1 1.08 0 1.873-.26 2.38-.78.506-.52.76-1.26.76-2.22v-1.7c-.307.707-.78 1.233-1.42 1.58-.627.347-1.367.52-2.22.52a4.644 4.644 0 01-1.8-.34 3.782 3.782 0 01-1.38-1c-.387-.44-.687-.987-.9-1.64-.214-.667-.32-1.44-.32-2.32v-.4c0-.813.106-1.533.32-2.16.226-.64.533-1.173.92-1.6.386-.44.846-.773 1.38-1a4.593 4.593 0 011.78-.34c.906 0 1.693.207 2.36.62.666.4 1.133.927 1.4 1.58v-2h1.64v10.2c0 1.44-.42 2.567-1.26 3.38-.84.813-2.054 1.22-3.64 1.22zm-.1-5.76a3.8 3.8 0 001.32-.22c.4-.16.74-.38 1.02-.66s.5-.613.66-1c.16-.387.24-.807.24-1.26v-1.6c0-.4-.08-.78-.24-1.14-.16-.36-.38-.673-.66-.94a2.91 2.91 0 00-1.02-.62c-.4-.16-.84-.24-1.32-.24-.427 0-.827.08-1.2.24-.374.16-.7.393-.98.7-.267.307-.48.68-.64 1.12-.147.427-.22.92-.22 1.48v.4c0 .6.073 1.133.22 1.6.16.467.373.86.64 1.18.28.32.606.56.98.72.373.16.773.24 1.2.24zm8.204-9.04h1.64v2c.227-.627.6-1.147 1.12-1.56.534-.427 1.18-.64 1.94-.64.267 0 .48.013.64.04.174.027.327.06.46.1v1.64a2.493 2.493 0 00-.52-.14 4.354 4.354 0 00-.68-.04c-.4 0-.773.073-1.12.22a2.665 2.665 0 00-.9.62 2.72 2.72 0 00-.6.94 3.32 3.32 0 00-.22 1.22v6.2h-1.76v-10.6zm11.533 10.8c-1.28 0-2.24-.367-2.88-1.1-.64-.733-.96-1.867-.96-3.4v-6.3h1.76v6.2c0 .987.2 1.733.6 2.24.414.507 1.08.76 2 .76.494 0 .92-.087 1.28-.26.374-.173.674-.4.9-.68.24-.28.414-.6.52-.96.12-.36.18-.727.18-1.1v-6.2h1.76v10.6h-1.64v-2c-.12.293-.286.573-.5.84-.2.267-.453.5-.76.7-.293.2-.633.36-1.02.48-.373.12-.786.18-1.24.18zm8.37-10.8h1.64v2c.12-.293.286-.573.5-.84.213-.267.466-.5.76-.7.306-.2.653-.36 1.04-.48.4-.12.84-.18 1.32-.18 1.333 0 2.32.36 2.96 1.08.653.707.98 1.747.98 3.12v6.6h-1.76v-6.2c0-.987-.207-1.733-.62-2.24-.414-.507-1.107-.76-2.08-.76-.52 0-.974.087-1.36.26-.374.173-.68.4-.92.68s-.42.6-.54.96c-.107.36-.16.727-.16 1.1v6.2h-1.76v-10.6zm16.704 10.8c-.68 0-1.326-.107-1.94-.32a4.48 4.48 0 01-1.62-.98c-.466-.453-.84-1.02-1.12-1.7-.28-.68-.42-1.48-.42-2.4v-.4c0-.88.134-1.64.4-2.28.267-.653.62-1.193 1.06-1.62a4.36 4.36 0 011.56-.98 5.58 5.58 0 011.88-.32c1.56 0 2.767.427 3.62 1.28.854.853 1.28 2.06 1.28 3.62v1.12h-8.04c0 .627.1 1.153.3 1.58a2.967 2.967 0 001.84 1.62c.4.12.8.18 1.2.18.8 0 1.414-.133 1.84-.4a2.22 2.22 0 00.94-1.1h1.72c-.106.507-.3.953-.58 1.34-.266.387-.6.713-1 .98a4.517 4.517 0 01-1.34.58c-.493.133-1.02.2-1.58.2zm-.1-9.4c-.413 0-.813.06-1.2.18a2.789 2.789 0 00-1.04.54 2.78 2.78 0 00-.72.92c-.186.373-.28.82-.28 1.34h6.38c-.013-.547-.106-1.007-.28-1.38a2.272 2.272 0 00-.66-.92 2.56 2.56 0 00-1-.52 4.334 4.334 0 00-1.2-.16zm11.202 9.3c-1.133 0-1.953-.253-2.46-.76-.493-.52-.74-1.3-.74-2.34v-6.04h-1.6v-1.56h1.6v-2.4h1.76v2.4h2.84v1.56h-2.84v5.84c0 .6.127 1.033.38 1.3.253.267.74.4 1.46.4.4 0 .8-.02 1.2-.06v1.56c-.253.027-.507.047-.76.06-.253.027-.533.04-.84.04zm7.128.1c-.587 0-1.107-.08-1.56-.24a3.395 3.395 0 01-1.12-.7 2.917 2.917 0 01-.7-1.04c-.16-.4-.24-.84-.24-1.32 0-1.053.306-1.813.92-2.28.626-.467 1.52-.7 2.68-.7h3.44v-.72c0-.907-.207-1.533-.62-1.88-.4-.347-1.007-.52-1.82-.52-.76 0-1.314.147-1.66.44-.347.28-.54.6-.58.96h-1.76c.026-.427.14-.82.34-1.18a3.21 3.21 0 01.84-.96c.36-.267.786-.473 1.28-.62.493-.16 1.04-.24 1.64-.24 1.253 0 2.246.3 2.98.9.746.587 1.12 1.553 1.12 2.9v5.78c.013.413.046.82.1 1.22h-1.54c-.04-.307-.067-.593-.08-.86-.014-.28-.02-.593-.02-.94-.28.56-.734 1.033-1.36 1.42-.627.387-1.387.58-2.28.58zm.38-1.6c.413 0 .8-.053 1.16-.16.373-.12.7-.287.98-.5.28-.227.5-.5.66-.82.16-.32.24-.693.24-1.12v-.72h-3.14c-.654 0-1.167.133-1.54.4-.374.253-.56.66-.56 1.22 0 .493.173.9.52 1.22.36.32.92.48 1.68.48z" fill="#fff"/><defs><clipPath id="clip0_1768_12337"><path fill="#fff" transform="translate(102 48.948)" d="M0 0h172v48H0z"/></clipPath></defs></svg>