<svg width="349" height="354" viewBox="0 0 349 354" fill="none" xmlns="http://www.w3.org/2000/svg"><path d="M234.597.691l10.705 32.548 32.547 10.704-32.547 10.704-10.705 32.548-10.704-32.548-32.547-10.704 32.547-10.704L234.597.69z" fill="#DBFF00"/><path d="M234.596 29.192l4.694 10.057 10.057 4.694-10.057 4.694-4.694 10.057-4.693-10.057-10.057-4.694 10.057-4.694 4.693-10.057z" fill="#110545"/><path d="M4.709 331.861c11.08 9.042 17.245 13.601 19.668 20.078M4.709 331.861c11.3 0 17.686-.24 27.595-4.633M4.71 331.861c106.298 35.985 159.642-4.633 169.168-50.376 6.987-33.555-8.98-45.026-18.919-36.541-15.754 13.448 25.425 36.977 72.276 30.542 40.64-5.582 74.734-34.563 95.903-68.556 39.805-63.92 33.955-148.687-40.725-172.584" stroke="#110545" stroke-width="3" stroke-linecap="round"/></svg>