<svg width="380" height="449" viewBox="0 0 380 449" fill="none" xmlns="http://www.w3.org/2000/svg"><path d="M4.566 413.417c11.08 9.042 17.246 13.6 19.668 20.078M4.566 413.417c11.3 0 17.686-.24 27.596-4.633m-27.596 4.633c106.298 35.985 175.37 47.862 190.713 11.65 5.286-12.474 6.7-36.601-7.236-43.634-10.053-5.074-20.495 4.161 0 13.483 16.315 7.42 31.915 11.918 46.733 13.868 168.248 22.139 192.624-343.817 48.983-352.6" stroke="#110545" stroke-width="3" stroke-linecap="round"/><path d="M236.399 15.274l15.338 18.694 16.631-17.552-2.373 24.064 24.172-.65-18.694 15.337 17.552 16.631-24.064-2.373.651 24.172-15.337-18.694-16.632 17.552 2.373-24.064-24.171.65 18.694-15.336-17.553-16.632 24.064 2.373-.651-24.171z" fill="#110545"/><path d="M245.382 39.356l6.17 9.15 7.736-7.87-3.306 10.529 10.976 1.142-10.293 3.98 5.95 9.294-9.528-5.567-3.557 10.447-1.589-10.92-10.385 3.733 7.547-8.052-9.393-5.791 11 .88-1.328-10.955z" fill="#fff"/></svg>