<svg width="91" height="91" viewBox="0 0 91 91" fill="none" xmlns="http://www.w3.org/2000/svg"><path d="M43.532.21h4.15c-1.473 35.733-1.332 55.387 0 89.94h-4.15c1.077-35.264 1.12-54.97 0-89.94z" fill="#DBFF00"/><path d="M90.577 43.106v4.15c-35.732-1.472-55.386-1.332-89.938 0v-4.15c35.263 1.077 54.968 1.12 89.938 0z" fill="#DBFF00"/><path d="M12.342 14.85l2.934-2.934C39.502 38.223 53.498 52.02 78.872 75.512l-2.934 2.934C51.764 52.749 37.86 38.785 12.342 14.85z" fill="#DBFF00"/><path d="M75.94 11.916l2.933 2.934C52.566 39.076 38.768 53.072 15.277 78.446l-2.934-2.934C38.04 51.338 52.004 37.436 75.94 11.916z" fill="#DBFF00"/><path d="M45.61 28.026l2.954 10.023 9.176-4.998-4.998 9.175 10.022 2.954-10.022 2.955 4.998 9.175-9.176-4.998-2.954 10.023-2.954-10.023-9.176 4.998 4.998-9.175-10.022-2.955 10.022-2.954-4.998-9.175 9.176 4.998 2.954-10.023z" fill="#DBFF00"/><path d="M45.61 38.906l1.417 2.854 3.02-1.016-1.017 3.02 2.854 1.416-2.854 1.417 1.017 3.02-3.02-1.017-1.417 2.855-1.416-2.855-3.02 1.017 1.016-3.02-2.854-1.417 2.854-1.416-1.016-3.02 3.02 1.016 1.416-2.854z" fill="#110545"/></svg>