<svg width="144" height="144" viewBox="0 0 144 144" fill="none" xmlns="http://www.w3.org/2000/svg"><mask id="a" style="mask-type:alpha" maskUnits="userSpaceOnUse" x="13" y="0" width="131" height="144"><path d="M18.706 119.793c-5.44-6.06-6.23-14.743-3.843-22.57 8.836-28.975 14.67-50.232 22.382-82.384.951-3.966 3.517-7.41 7.256-8.99C53.045 2.237 62.438.24 72.298.24c39.474 0 71.473 32 71.473 71.473s-31.999 71.472-71.473 71.472c-21.316 0-40.486-8.791-53.592-23.393z" fill="url(#paint0_linear_1363_7843)" stroke="#000" stroke-width=".36"/></mask><g mask="url(#a)"><path d="M18.572 119.913c-5.493-6.121-6.28-14.875-3.881-22.742C23.526 68.2 29.359 46.945 37.07 14.797c.961-4.012 3.56-7.509 7.36-9.114C52.997 2.063 62.414.062 72.298.062c39.573 0 71.653 32.08 71.653 71.652s-32.08 71.652-71.653 71.652c-21.366 0-40.585-8.813-53.726-23.453z" fill="url(#paint1_linear_1363_7843)"/><mask id="b" style="mask-type:alpha" maskUnits="userSpaceOnUse" x="27" y="27" width="90" height="89"><circle cx="72.153" cy="71.568" r="44.419" transform="rotate(6.82 72.153 71.568)" fill="#8B8AFF"/></mask><g mask="url(#b)"><circle cx="72.153" cy="71.568" r="44.419" transform="rotate(6.82 72.153 71.568)" fill="#3852CE"/></g><path d="M89.988 67.516l-1.74-.208.277-2.312-2.68-.321.243-2.039-4.076-.487.194-1.62-4.456-.533-1.956-.234-.49-.059.282-2.348-4.112-.492 1.445-12.087-2.39-.286.243-2.04-5.869-.701-.244 2.039-2.518-.301-3.03 25.34-.779-.093.264-2.203-7.59-.907-.013.109-.978-.117-1.05 8.774 2.826.338-.357 2.986 2.283.273-.495 4.132 2.518.301-.56 4.678 1.74.208-.586 4.897 2.518.301-.362 3.022-.387 3.24 3.478.417 1.322.158-.008.072 14.49 1.733.01-.072.597.071 2.663.319.779.093 1.136-9.503 2.482.297.92-7.7 1.957.234 2.077-17.367-.018-.002zM61.932 95.938l.58-4.842-2.519-.302.484-4.04-1.74-.209.586-4.897-2.517-.3.559-4.68-2.282-.272.278-2.33-2.807-.336.544-4.551 4.021.48-.263 2.203 1.865.224-.91 7.609 3.478.416 4.184-34.989 3.823.457L66.41 69.7l3.478.416 1.195-9.994 3.116.372-1.322 11.05 3.478.416 1.04-8.701 3.134.374-.193 1.62 4.166.499-.244 2.039 2.174.26-1.846 15.437-1.957-.234-.862 7.209-2.463-.295-.923 7.719-16.448-1.967-.002.018z" fill="#FFF6B3"/><path d="M92.268 67.788l-1.74-.208.277-2.312-2.68-.32.243-2.04-4.075-.486.194-1.62-4.456-.534-1.957-.234-.489-.058.28-2.348-4.129-.494 1.445-12.088-2.39-.286.243-2.039-5.869-.702-.243 2.04-2.518-.302-3.03 25.34-.78-.093.264-2.202-7.59-.908-.013.11-.978-.118-1.05 8.775 2.826.338-.357 2.985 2.283.273-.495 4.132 2.518.302-.56 4.678 1.74.208-.586 4.897 2.518.301-.361 3.022-.388 3.24 3.478.416 1.322.158-.008.072 14.49 1.734.01-.073.597.072 2.681.32.779.093 1.136-9.502 2.464.294.92-7.7 1.957.234 2.077-17.367zM64.212 96.211l.58-4.843-2.518-.3.483-4.042-1.739-.208.586-4.897-2.518-.301.56-4.679-2.283-.273.279-2.33L54.816 74l.544-4.55 4.021.48-.263 2.203 1.866.223-.91 7.61 3.477.415 4.185-34.988 3.822.457-2.885 24.12 3.478.416 1.195-9.994 3.116.373-1.322 11.05 3.478.416 1.04-8.702 3.135.375-.194 1.62 4.166.498-.244 2.04 2.174.26-1.846 15.436-1.957-.234-.862 7.21-2.463-.295-.923 7.718-16.43-1.965-.002.019z" fill="#AA7249"/><path d="M92.268 67.788l-1.74-.208.277-2.312-2.68-.32.243-2.04-4.075-.486.194-1.62-4.456-.534-1.957-.234-.489-.058.28-2.348-4.129-.494 1.445-12.088-2.39-.286.243-2.039-5.869-.702-.243 2.04-2.518-.302-3.03 25.34-.78-.093.264-2.202-7.59-.908-.013.11-.978-.118-1.05 8.775 2.826.338-.357 2.985 2.283.273-.495 4.132 2.518.302-.56 4.678 1.74.208-.586 4.897 2.518.301-.361 3.022-.388 3.24 3.478.416 1.322.158-.008.072 14.49 1.734.01-.073.597.072 2.681.32.779.093 1.136-9.502 2.464.294.92-7.7 1.957.234 2.077-17.367zM64.212 96.211l.58-4.843-2.518-.3.483-4.042-1.739-.208.586-4.897-2.518-.301.56-4.679-2.283-.273.279-2.33L54.816 74l.544-4.55 4.021.48-.263 2.203 1.866.223-.91 7.61 3.477.415 4.185-34.988 3.822.457-2.885 24.12 3.478.416 1.195-9.994 3.116.373-1.322 11.05 3.478.416 1.04-8.702 3.135.375-.194 1.62 4.166.498-.244 2.04 2.174.26-1.846 15.436-1.957-.234-.862 7.21-2.463-.295-.923 7.718-16.43-1.965-.002.019z" fill="url(#paint2_linear_1363_7843)"/><path d="M32.615 36.452l-3.747-.961-2.848 2.618-.244-3.86-3.37-1.9 3.597-1.425.765-3.792 2.466 2.98 3.843-.444-2.072 3.267 1.61 3.517zm27.871-21.51c-.776.24-1.505.184-2.183-.165a2.734 2.734 0 01-1.352-1.661c-.23-.744-.167-1.45.185-2.117.361-.683.93-1.144 1.707-1.384.776-.24 1.5-.177 2.172.187.679.35 1.133.896 1.362 1.64.23.743.17 1.454-.18 2.133-.353.668-.923 1.124-1.71 1.367zM53.2 11.594l1.914-.591 3.596 11.651-1.498.462-7.933-6.21 2.44 7.905-1.914.591-3.596-11.651 1.498-.462 7.933 6.21-2.44-7.905zm6.824 1.85c.344-.107.587-.303.73-.59.142-.287.162-.597.059-.93a1.182 1.182 0 00-.59-.73c-.28-.156-.585-.183-.918-.08a1.18 1.18 0 00-.73.59 1.215 1.215 0 00-.06.929c.104.333.295.578.574.735.29.153.602.178.935.076zm-1.202 4.965l-.524-1.698 5.026-1.551.524 1.698-5.026 1.55zm10.144-9.652l1.74-.08.563 12.18-2 .093-.465-10.04-2.422.81-.566-1.684 3.15-1.279zm20.446 8.375c.448.402.758.877.93 1.425.17.547.177 1.13.018 1.75-.248.966-.798 1.683-1.648 2.148-.851.465-1.771.57-2.761.317l-5.062-1.299 3.03-11.81 4.69 1.202c.968.249 1.703.773 2.205 1.573.516.792.654 1.654.415 2.588-.263 1.024-.868 1.726-1.817 2.106zm-1.27-4.444l-2.75-.706-.797 3.105 2.75.705c.428.11.826.056 1.193-.161.37-.229.612-.563.725-1.001.112-.44.06-.842-.158-1.21a1.487 1.487 0 00-.963-.732zm-1.724 8.261c.45.116.867.055 1.252-.182.399-.245.657-.599.775-1.06.119-.461.06-.89-.173-1.285a1.53 1.53 0 00-1.005-.78l-3.122-.8-.848 3.307 3.121.8zm27.311 2.963l-7.086 9.924-1.63-1.165 5.051-7.074-6.583 2.834-.198-.141.553-7.16-5.06 7.088-1.631-1.165 7.086-9.923 1.757 1.255-.551 7.098 6.548-2.816 1.744 1.245zm2.254 18.598c-1.712-.201-3.116-.994-4.21-2.38-1.094-1.385-1.545-2.938-1.351-4.66.21-1.72 1.008-3.127 2.393-4.22 1.385-1.095 2.934-1.542 4.647-1.34 1.729.202 3.14.996 4.234 2.381 1.095 1.385 1.537 2.938 1.327 4.658-.194 1.721-.984 3.13-2.369 4.224-1.385 1.094-2.942 1.54-4.671 1.337zm-3.62-6.775c-.129 1.167.185 2.23.941 3.186.756.957 1.713 1.503 2.871 1.64 1.174.137 2.253-.183 3.238-.96.984-.778 1.54-1.75 1.669-2.917.145-1.166-.161-2.227-.916-3.183-.756-.957-1.721-1.505-2.896-1.642-1.158-.136-2.229.184-3.213.962s-1.549 1.749-1.694 2.914zm13.263 12.491c.462 1.027.522 2.025.181 2.994-.342.968-1.005 1.673-1.99 2.116-.985.443-1.953.47-2.904.083-.951-.388-1.657-1.095-2.119-2.123l-1.892-4.21 11.122-4.998 3.071 6.832-1.748.785-2.249-5.005-2.542 1.143 1.07 2.383zm-5.116 2.299c.224.498.563.842 1.018 1.032.47.196.959.18 1.468-.048.508-.229.84-.581.995-1.058.17-.472.143-.956-.08-1.454l-1.071-2.383-3.401 1.528 1.071 2.383zm2.173 14.041l8.115-1.615-9.237-4.023-.306-1.537 11.959-2.38.391 1.964-8.115 1.615 9.237 4.023.306 1.538-11.959 2.38-.391-1.965zm.654 3.917l1.845.085c-.14.76.019 1.338.477 1.731.458.405 1.36.639 2.706.701l7.047.327-.379 8.161-12.18-.565.093-2.001 10.266.476.193-4.159-5.098-.236c-1.068-.05-1.961-.207-2.681-.473-.721-.255-1.257-.6-1.609-1.034a3.388 3.388 0 01-.668-1.391c-.094-.481-.098-1.022-.012-1.623zm5.609 19.26c-.306 1.108-.936 1.928-1.89 2.46-.946.546-1.961.67-3.047.37-1.097-.303-1.912-.932-2.444-1.886-.535-.942-.649-1.968-.343-3.076l1.196-4.332 11.754 3.244-.533 1.931-4.03-1.112-.663 2.4zm-5.911-1.631c-.157.57-.097 1.093.182 1.568.29.477.731.798 1.325.961.593.164 1.131.114 1.613-.15.494-.262.82-.678.977-1.249l.663-2.4-4.097-1.132-.663 2.402zm3.412 18.116l-.952 1.763-10.73-5.793.952-1.762 4.645 2.507 2.482-4.599-4.645-2.507.952-1.763 10.73 5.793-.952 1.762-4.399-2.374-2.482 4.598 4.399 2.375zm-18.737 6.557c-.054-1.724.524-3.229 1.733-4.515 1.209-1.286 2.679-1.96 4.41-2.022 1.732-.046 3.242.536 4.528 1.745 1.286 1.208 1.956 2.675 2.009 4.398.055 1.74-.523 3.253-1.732 4.54-1.209 1.286-2.679 1.952-4.411 1.997-1.732.062-3.241-.511-4.527-1.72s-1.956-2.683-2.01-4.423zm6.167-4.579c-1.173.045-2.178.512-3.013 1.4-.835.889-1.234 1.916-1.198 3.081.037 1.182.512 2.202 1.426 3.061.914.859 1.958 1.266 3.131 1.222 1.174-.028 2.179-.487 3.014-1.375.835-.889 1.234-1.924 1.197-3.106-.036-1.166-.511-2.178-1.425-3.037s-1.958-1.274-3.132-1.246zm-5.554 18.949l.866 1.39-4.14 2.579-.866-1.389 4.14-2.58zm-11.411-8.693l4.376 7.022.502-10.062 1.33-.829 6.45 10.348-1.7 1.059-4.377-7.022-.502 10.063-1.33.829-6.45-10.348 1.7-1.06zM85.78 133.52c-1.122.25-2.14.084-3.055-.497-.926-.579-1.513-1.424-1.76-2.535-.245-1.099-.073-2.114.517-3.042.582-.915 1.434-1.497 2.556-1.747l2.431-.542-.91-4.081 1.956-.435 2.652 11.901-4.386.978zm-1.333-5.985c-.578.129-1.011.427-1.3.896-.285.48-.361 1.021-.227 1.621.134.601.43 1.053.89 1.355.463.313.983.405 1.561.276l2.432-.541-.925-4.149-2.431.542zm-16.15-4.759l.83 2.464 5.191.049.877-2.448 2.177.02-4.539 12.152-2.404-.023-4.292-12.235 2.16.021zm5.342 4.388l-3.867-.037 1.881 5.523 1.986-5.486zm-17.028-.14c-1.072-.863-1.45-1.962-1.134-3.295.247-1.039.843-1.793 1.79-2.261.932-.459 2.031-.538 3.297-.238 2.169.515 3.387 1.77 3.653 3.767l-1.907.568c-.053-1.337-.78-2.172-2.18-2.504-.746-.177-1.355-.155-1.825.068-.473.234-.774.622-.903 1.164-.126.531-.034 1.001.275 1.408.295.416.787.706 1.476.87l1.441.341-.418 1.763-1.051-.249c-.667-.158-1.223-.129-1.668.088-.445.216-.728.579-.849 1.087-.12.509-.046.95.223 1.324.267.386.716.653 1.35.804 1.174.278 2.093-.071 2.754-1.048l1.432 1.361c-1.16 1.467-2.7 1.973-4.621 1.517-1.164-.276-2.032-.816-2.605-1.621-.576-.793-.745-1.692-.506-2.698.265-1.118.924-1.857 1.976-2.216zm-11.364 1.949c-1.04-.49-1.743-1.245-2.11-2.265-.377-1.025-.323-2.052.162-3.081.48-1.019 1.237-1.715 2.273-2.087 1.02-.367 2.05-.306 3.09.184l2.253 1.062 1.782-3.782 1.812.853-5.196 11.031-4.066-1.915zm2.613-5.547c-.536-.252-1.061-.281-1.576-.087-.52.204-.91.584-1.173 1.141-.262.557-.304 1.096-.126 1.616.173.531.528.923 1.064 1.175l2.253 1.062 1.812-3.845-2.254-1.062zm-9.987-13.713l-.852 2.457 4.075 3.217 2.191-1.399 1.71 1.349-11.03 6.829-1.886-1.49 4.097-12.301 1.695 1.338zm1.537 6.74l-3.035-2.396-1.894 5.518 4.93-3.122zm-12.92-8.119c-.704-.878-1.013-1.829-.926-2.852.087-1.023.552-1.873 1.395-2.549.842-.675 1.772-.945 2.79-.809 1.017.136 1.879.644 2.584 1.522l2.889 3.601-9.51 7.631-4.689-5.842 1.495-1.199 3.434 4.279 2.174-1.744-1.636-2.038zm4.375-3.51c-.341-.426-.756-.674-1.244-.744-.505-.072-.974.067-1.409.416-.434.349-.667.773-.697 1.274-.046.499.101.961.443 1.387l1.635 2.038 2.908-2.333-1.636-2.038zm-8.021-14.396c1.618.594 2.8 1.692 3.541 3.293.742 1.602.819 3.217.23 4.847-.604 1.624-1.707 2.807-3.309 3.549-1.601.742-3.212.816-4.83.222-1.635-.599-2.823-1.7-3.565-3.301-.742-1.602-.811-3.215-.207-4.838.589-1.63 1.684-2.816 3.286-3.558 1.601-.742 3.22-.813 4.854-.214zm1.945 7.43c.397-1.105.339-2.21-.174-3.317-.513-1.106-1.316-1.86-2.411-2.261-1.11-.408-2.234-.347-3.372.18-1.138.527-1.905 1.343-2.302 2.449-.412 1.1-.362 2.202.15 3.309.513 1.106 1.325 1.863 2.435 2.27 1.095.401 2.211.338 3.35-.189 1.137-.527 1.912-1.34 2.324-2.44zM9.313 79.756l1.878-.381.683 3.363 10.072-2.045.398 1.963-10.072 2.045.686 3.38-1.878.381-1.767-8.706zm11.95-13.667l-.032 2.386-5.863 4.731 5.8.076-.026 2.003-12.192-.16.026-2.003 5.47.072-5.41-4.705.032-2.386 5.875 5.007 6.32-5.021zm-.901-4.908l1.189-5.267 1.869.422-1.63 7.221-11.895-2.685 1.611-7.137 1.87.422-1.17 5.183 3.092.698 1.074-4.758 1.852.418-1.074 4.758 3.212.725z" fill="#110545"/><g style="mix-blend-mode:multiply" filter="url(#filter0_f_1363_7843)"><path d="M43.523 18.34c-3.937-9.187 1.641-15.203 4.922-17.062L34.008 2.59l-9.844 15.75c-1.531 6.125-4.725 18.966-5.25 21.329-.525 2.362-9.844 20.234-14.438 28.875l-8.53 39.047 38.062 38.062c-1.203-4.375-4.463-11.353-7.875-16.078-4.266-5.906-7.219-18.047-3.938-29.531 2.427-8.495 21.328-20.344 26.25-37.407 4.922-17.062 0-32.812-4.922-44.297z" fill="url(#paint3_linear_1363_7843)"/></g><path d="M18.974 119.552c-5.331-5.939-6.13-14.478-3.767-22.223 8.838-28.983 14.674-50.247 22.388-82.406.929-3.873 3.428-7.215 7.046-8.743C53.14 2.588 62.487.6 72.298.6c39.275 0 71.113 31.838 71.113 71.113 0 39.274-31.838 71.113-71.113 71.113-21.215 0-40.287-8.75-53.324-23.275z" stroke="url(#paint4_linear_1363_7843)" stroke-width="1.079"/><path d="M45.175 6c-2.481.968-7.3 4.212-6.718 9.442.108.978.323 2.217.577 3.686 1.446 8.35 4.184 24.161-3.846 42.073-4.246 9.472-8.15 15.576-11.426 20.698-4.01 6.268-7.077 11.064-8.676 18.759-.984 4.732-.907 8.727-.55 12.218-1.623-4.948-1.426-10.519.155-15.705C23.527 68.2 29.36 46.946 37.071 14.797c.962-4.011 3.56-7.509 7.36-9.114l.247-.104.497.42z" fill="url(#paint5_linear_1363_7843)"/><path d="M45.176 5.999c-2.482.968-7.3 4.213-6.719 9.442.109.979.323 2.217.578 3.687 1.445 8.35 4.183 24.161-3.847 42.073-4.246 9.471-8.15 15.576-11.426 20.697-4.01 6.269-7.077 11.064-8.676 18.759-.984 4.733-.907 8.728-.55 12.219" stroke="url(#paint6_radial_1363_7843)" stroke-width="1.079"/></g><defs><linearGradient id="paint0_linear_1363_7843" x1="31.711" y1="50.825" x2="77.418" y2="67.888" gradientUnits="userSpaceOnUse"><stop stop-color="#D9D9D9"/><stop offset="1" stop-color="#fff"/></linearGradient><linearGradient id="paint1_linear_1363_7843" x1="31.711" y1="50.825" x2="77.418" y2="67.888" gradientUnits="userSpaceOnUse"><stop stop-color="#D9D9D9"/><stop offset="1" stop-color="#fff"/></linearGradient><linearGradient id="paint2_linear_1363_7843" x1="47.531" y1="49.306" x2="85.605" y2="100.071" gradientUnits="userSpaceOnUse"><stop stop-color="#C0A74B"/><stop offset=".219" stop-color="#CAB355"/><stop offset=".359" stop-color="#FFF59A"/><stop offset=".517" stop-color="#C5AD58"/><stop offset=".78" stop-color="#877238"/><stop offset="1" stop-color="#CDB066"/></linearGradient><linearGradient id="paint3_linear_1363_7843" x1="23.215" y1="68.872" x2="48.117" y2="76.747" gradientUnits="userSpaceOnUse"><stop stop-color="#8B8B8B" stop-opacity=".67"/><stop offset="1" stop-color="#D9D9D9" stop-opacity="0"/></linearGradient><linearGradient id="paint4_linear_1363_7843" x1="126.811" y1="106.302" x2="40.735" y2="40.554" gradientUnits="userSpaceOnUse"><stop stop-color="#EDEDED"/><stop offset="1" stop-color="#fff"/></linearGradient><linearGradient id="paint5_linear_1363_7843" x1="25.805" y1="44.591" x2="38.274" y2="48.2" gradientUnits="userSpaceOnUse"><stop stop-color="#D9D9D9"/><stop offset="1" stop-color="#fff"/></linearGradient><radialGradient id="paint6_radial_1363_7843" cx="0" cy="0" r="1" gradientUnits="userSpaceOnUse" gradientTransform="matrix(-38.80921 -25.13853 29.76761 -45.95566 53.101 70.964)"><stop stop-color="#E6E6E6"/><stop offset="1" stop-color="#fff"/></radialGradient><filter id="filter0_f_1363_7843" x="-22.041" y="-16.708" width="90.511" height="180.348" filterUnits="userSpaceOnUse" color-interpolation-filters="sRGB"><feFlood flood-opacity="0" result="BackgroundImageFix"/><feBlend in="SourceGraphic" in2="BackgroundImageFix" result="shape"/><feGaussianBlur stdDeviation="8.993" result="effect1_foregroundBlur_1363_7843"/></filter></defs></svg>