<svg width="551" height="635" viewBox="0 0 551 635" fill="none" xmlns="http://www.w3.org/2000/svg"><circle cx="293.711" cy="354.112" r="247.455" fill="#DBFF00"/><path d="M500.242 136.565c-1.375 12.229.901 21.439 4.657 25.517m-4.657-25.517c-3.518 8.215-7.718 14.606-16.529 20.826m16.529-20.826c-17.951 78.578-60.764 118.859-96.675 118.844-21.853-.009-60.314-26.059-60.718-65.926-.286-28.283 21.817-18.6 23.574 11.439 2.128 36.363-6.551 94.729-41.446 126.867-63.721 58.687-141.301-106.535-129.576-155.61 5.081-21.264 21.517-16.761 27.975 15.456 8.446 42.136 6.107 106.051.945 138.492-20.912 131.442-111.037 116.005-151.865 27.984-19.997-43.112-27.519-67.468-34.12-102.05" stroke="#110545" stroke-width="3" stroke-linecap="round"/><path d="M441.629 419.365s21.589-14.565 55.48-23.554c0 0 6.778-.616 6.629 4.522 0 0 .631 4.119-2.167 7.948 0 0-20.963 13.66-37.33 25.739l-20.07-7.551-2.542-7.104z" fill="#fff"/><path d="M439.551 424.274s30.636-15.643 60.789-24.584c0 0 7.244 1.017 6.811 6.139 0 0 .403 4.148-2.603 7.817 0 0-26.668 9.864-43.678 21.02l-14.639-6.033-6.68-4.359z" fill="#110545"/><path d="M437.966 431.405s35.249-19.364 66.133-26.632c0 0 6.833 1.353 6.149 6.199 0 0 1.087 3.771-3.768 8.535 0 0-19.607 13.863-34.083 21.215l-27.625-8.213-6.806-1.104zm-125.102 26.764s-26.575 17.867-37.312 44.159c0 0-1.855 7.368 4.077 10.068 0 0 4.473 2.224 9.153-.284 0 0 15.297-8.05 25.233-14.315l-1.151-39.628z" fill="#fff"/><path d="M314.592 462.842s-22.479 16.501-37.311 44.159c0 0-1.855 7.368 4.076 10.068 0 0 4.474 2.224 9.154-.284 0 0 15.296-8.05 25.232-14.315l-1.151-39.628z" fill="#110545"/><path d="M316.179 468.246s-23.864 20.176-37.311 44.159c0 0-2.824 7.271 4.076 10.068 0 0 4.258.881 9.371-2.27 0 0 10.375-7.798 25.241-19.176l-1.377-32.781zm-1.931 48.542l21.202 8.549c6.435 2.965 12.332.856 12.332.856l100.908-33.224c10.245-3.949 14.678-14 14.678-14l11.21-17.11-100.711 37.423-59.619 17.506z" fill="#fff"/><path d="M288.951 436.151c-2.235-12.129 8.321-16.407 8.321-16.407l22.619-11.204c1.947-1.327 3.04-3.137 3.93-6.546 1.46-5.552 5.371-8.135 5.371-8.135l47.215-22.92s6.474-3.15 12.655 1.832c3.723 2.985 10.369 1.963 13.471.455l23.178-8.339c12.177-3.367 17.094 8.393 17.094 8.393l31.772 73.043c5.887 15.131-6.136 21.899-6.136 21.899l-147.6 49.61s-15.826 4.771-18.437-11.084l-13.453-70.597z" fill="#110545"/><path d="M291.696 436.067s-2.041-8.886 6.61-14.011l22.825-10.951c3.22-1.31 4.101-4.418 4.792-7.036 1.508-5.338 4.595-7.589 4.595-7.589l47.183-22.39s5.659-2.447 10.567 1.845c4.877 4.149 14.294.796 14.294.796l22.781-8.103s9.892-3.234 14.652 6.469l31.307 70.607s5.811 12.757-5.064 18.972L319.681 514.28s-12.848 2.021-14.72-9.815l-13.265-68.398z" fill="#fff"/><path d="M375.8 411.891l5.134 8.586c-7.028 1.63-16.408 5.913-25.101 12.569l-4.045-12.011c7.961-4.289 15.394-7.64 24.012-9.144z" fill="#fff" stroke="#110545" stroke-width="2.196"/><path d="M295.388 440.845l-5.932 3.191-.023.012-.024.011c-2.119.989-2.831 2.521-3.049 3.81a6.305 6.305 0 00.065 2.355l.006.026.001.003v.001l.013.044.008.049 1.835 10.987c.376 1.521 1.056 2.557 1.629 3.207.289.329.553.56.737.705.092.073.164.123.209.154l.024.016.022.014.005.003h0l.075.044.068.061 3.544 3.158-2.119-9.65-.158-.718.668-.308 4.663-2.151-2.267-15.024z" fill="#fff" stroke="#110545" stroke-width="1.828"/><path d="M296.426 440.272l-6.822 3.73-.01.005-.01.005c-2.125 1.095-2.843 2.647-3.065 3.912a6.023 6.023 0 00.021 2.149l.027.121.006.024.001.002v.001h0l.012.043.009.049 1.202 7.071a9.99 9.99 0 011.831-2.987c.078-.087.143-.155.189-.202l.057-.057.017-.017.006-.006.002-.002.001-.001c.001 0 .001-.001.631.662l-.63-.663.099-.094.123-.061 5.713-2.85.59-10.834zm152.094-46.659l.311-.859h.001l.002.001.004.002.012.004.039.015.129.052a9.2 9.2 0 011.792 1.027c.99.73 2.151 1.917 2.57 3.657l1.993 4.308 1.018-6.364-6.786-14.459-.007-.011c-.018-.03-.045-.075-.083-.134a8.94 8.94 0 00-1.63-1.9c-1.091-.947-2.474-1.602-4.084-1.075l-7.595 4.154-.982 1.06 7.691 11.829 5.258-2.153.326-.133.332.12-.311.859z" fill="#fff" stroke="#110545" stroke-width="1.828"/><path d="M442.165 391.064l.099-.062.112-.036 6.212-1.972.061-.019.063-.011.152.902-.151-.902h.002l.003-.001.007-.001.021-.003.066-.009a7.555 7.555 0 011.001-.048c.646.011 1.535.1 2.525.411a8.786 8.786 0 011.534.649l-4.236-9.025-.022-.046-.015-.045h0l-.001-.001v-.002l-.01-.026c-.01-.026-.026-.068-.05-.123a5.73 5.73 0 00-1.227-1.811c-.876-.86-2.273-1.608-4.517-1.007l-7.153 3.265 3.276 11.343 2.248-1.42z" fill="#fff" stroke="#110545" stroke-width="1.828"/><path d="M376.801 413.055c3.128 14.14 20.522 22.683 39.243 18.541 18.721-4.142 30.888-19.225 27.76-33.365-3.129-14.141-20.523-22.683-39.244-18.542-18.721 4.142-30.888 19.225-27.759 33.366z" fill="#fff" stroke="#110545" stroke-width="1.828"/><path d="M374.519 405.941c3.098 14.002 20.358 22.531 39.024 18.401 18.665-4.13 30.717-19.144 27.619-33.146-3.098-14.002-20.358-22.531-39.024-18.401-18.665 4.13-30.717 19.143-27.619 33.146z" fill="#fff" stroke="#110545" stroke-width="2.196"/><path d="M412.709 420.572c-15.535 3.437-30.307-3.628-32.996-15.781-2.689-12.152 7.725-24.789 23.259-28.226 15.535-3.437 30.308 3.628 32.996 15.78 2.689 12.153-7.725 24.79-23.259 28.227z" fill="#0180E3"/><path d="M380.605 404.594c2.538 11.468 16.648 18.461 31.906 15.085 15.258-3.375 25.102-15.668 22.565-27.136-2.537-11.468-16.648-18.461-31.906-15.086-15.258 3.376-25.102 15.669-22.565 27.137z" fill="#fff" stroke="#110545" stroke-width="1.828"/><path d="M404.327 382.689c-14.17 3.135-24.092 13.995-23.652 25.101-.434-.949-.741-2.002-.962-2.999-2.694-12.176 7.736-24.792 23.259-28.226 15.524-3.435 30.302 3.604 32.996 15.78.236 1.069.386 2.081.393 3.125-4.286-10.256-17.863-15.916-32.034-12.781z" fill="#110545"/><path d="M302.058 462.36c9.359 10.158 27.778 8.978 41.304-3.356 13.525-12.333 16.355-30.596 6.983-40.823-9.358-10.158-27.776-8.978-41.302 3.354-13.441 12.39-16.269 30.654-6.985 40.825z" fill="#fff" stroke="#110545" stroke-width="1.828"/><path d="M334.954 464.7l-2.903-5.728m85.67-27.834l-2.257-7.148m8.554 4.71l-2.256-7.148m8.178 3.999l-2.256-7.147m6.749 3.148l-2.028-6.425m5.435 0l-1.194-3.784m4.19-1.831l-1.194-3.784m-28.879 25.813l-1.646-6.415m-4.707 6.682l-1.406-5.483m-5.546 4.546l-1.646-6.414m-4.477 2.774l-1.111-4.331m-50.455 38.676l-2.903-5.728m7.232 1.449l-2.903-5.729m5.702-.113l-2.18-4.304m5.083-1.156l-2.903-5.728m-17.11 26.419l-2.903-5.729m-2.928 6.627l-2.903-5.729m-2.558 5.234l-2.316-4.57m-4.205 3.562l-2.142-4.226m-3.194 1.744l-1.645-3.245" stroke="#110545" stroke-width="1.828" stroke-linecap="round"/><path d="M305.7 415.308c-13.443 12.308-16.201 30.466-6.95 40.57 9.25 10.103 27.581 8.954 41.024-3.354 13.443-12.308 16.201-30.466 6.95-40.57-9.25-10.103-27.58-8.954-41.024 3.354z" fill="#fff" stroke="#110545" stroke-width="2.196"/><path d="M302.512 452.431c-7.997-8.734-5.424-24.105 5.746-34.331 11.17-10.227 26.707-11.437 34.704-2.703 7.996 8.734 5.424 24.104-5.746 34.331-11.17 10.227-26.708 11.437-34.704 2.703z" fill="#0180E3"/><path d="M308.875 418.774c-10.961 10.036-13.212 24.823-5.689 33.04 7.523 8.216 22.451 7.276 33.413-2.76 10.961-10.036 13.212-24.823 5.689-33.04-7.523-8.217-22.451-7.276-33.413 2.76z" fill="#fff" stroke="#110545" stroke-width="1.828"/><path d="M344.18 421.093c-7.989-8.764-23.542-7.489-34.666 2.665-7.276 6.614-10.844 15.471-10.329 23.2-3.441-8.8-.076-20.599 9.053-28.968 11.179-10.241 26.677-11.429 34.666-2.665 2.766 3.048 4.289 6.894 4.617 11.079-.797-1.915-1.863-3.696-3.341-5.311zm53.902-7.891c.213-.048.411-.166.593-.356 11.277-13.176 26.605-10.069 26.692-10.013.617.087 1.139-.252 1.314-.814.087-.617-.253-1.139-.814-1.314-.158-.039-16.751-3.464-28.852 10.716-.419.466-.349 1.123.118 1.542.276.238.664.302.949.239zm-85.135 35.865c.285-.063.482-.182.649-.443 9.109-12.846 22.832-11.251 23.362-11.219.617.088 1.124-.323 1.211-.94.088-.617-.323-1.123-.94-1.211-.617-.087-15.558-1.786-25.404 12.119-.333.522-.262 1.178.26 1.511.261.166.577.246.862.183zm153.244 34.188s-.583 10.702-11.115 14.75l-110.062 29.493s.285 6.49-6.285 3.462c-10.317-4.059-9.143-12.641 26.834-26.089 19.505-7.291 112.114-39.628 100.628-21.616z" fill="#110545"/><path d="M341.854 525.323c-1.953-8.52 26.413-22.293 63.358-30.763 36.945-8.471 68.478-8.431 70.431.089 1.954 8.52-26.413 22.293-63.357 30.763-36.945 8.47-68.478 8.43-70.432-.089z" fill="#fff"/><path d="M406.084 499.207c-18.416 4.223-34.66 9.76-46.031 15.281-5.694 2.764-10.11 5.498-12.964 8.024-1.428 1.264-2.42 2.437-2.998 3.494-.574 1.049-.707 1.919-.54 2.649.168.729.666 1.454 1.64 2.148.98.7 2.385 1.323 4.22 1.839 3.67 1.03 8.836 1.568 15.165 1.576 12.641.016 29.675-2.077 48.091-6.299 18.416-4.223 34.66-9.76 46.031-15.281 5.694-2.764 10.11-5.498 12.964-8.024 1.427-1.264 2.42-2.437 2.998-3.494.574-1.049.707-1.919.539-2.648-.167-.73-.665-1.455-1.639-2.149-.981-.7-2.385-1.323-4.221-1.839-3.669-1.03-8.835-1.568-15.164-1.576-12.641-.016-29.675 2.077-48.091 6.299z" fill="#fff" stroke="#110545" stroke-width="2.196"/><path d="M397.632 457.833c0 9.43-19.834 17.234-30.239 10.731" stroke="#110545" stroke-width="2.89" stroke-linecap="round"/></svg>