<svg width="157" height="31" viewBox="0 0 157 31" fill="none" xmlns="http://www.w3.org/2000/svg"><path d="M14.226 22.476L.639 30.474l12.693-12.31c0 .026-1.288 3.24.894 4.312zm4.861 2.326L8.602 27.6l8.646-4.417c0 .026 0 1.333 1.84 1.62zm14.061.444c-5.572 0-11.143 1.202-12.484 2.692-1.314 1.49 2.13 2.692 7.7 2.692 5.572 0 11.143-1.202 12.484-2.692 1.314-1.49-2.129-2.692-7.7-2.692z" fill="#110545"/><path d="M50.257 11.212c-1.183-2.195-3.285-3.45-5.02-3.163l-.21-.078s-.079-1.646-1.472-2.274l-8.593-4.025s-.29-.156-.631-.209a1.079 1.079 0 00-.5.026c-.367.053-.946.21-1.76.602L28.68.522c-1.42-.679-3.364-.653-4.494.445l-3.023 2.98c-1.708 1.384-1.787 3.972-1.787 3.972v5.227c-.84.549-1.682 1.176-2.391 1.882-2.786 2.692-.92 2.953-.605 3.005 0 0 .263.026.29.052-2.786 2.823-.184 2.901-.184 2.901l2.89-1.855v1.986c.106 1.542 1.34 1.83 1.34 1.83l3.05.68c2.496-.628 6.28-.915 10.038-.654 2.129.157 3.942.444 5.283.862 0 0 .341.079.814.262.526.209.973.444 1.262.68.762.548 1.366 1.332 1.051 2.43l5.598-.758c2.076-.549 1.997-2.222 1.997-2.222l.026-6.769c1.446-1.15 1.709-3.842.42-6.246zm-7.253-4.365c.735.366.867 1.333.867 1.804-.237.052-.5.13-.71.261-.157.078-.63.392-.946.836-.237.34-.815.628-1.209.47 0 0-1.471-.574-1.63-.679-.13-.078-.315-.313-.367-.967 0-.888-.21-1.803-.63-2.718a7.158 7.158 0 00-1.394-1.96l6.019 2.953zm-10.697-2.77c1.577-.836 3.706.052 4.757 1.986 1.051 1.934.605 4.182-.972 5.044-1.577.837-3.706-.052-4.757-1.986-1.051-1.96-.605-4.208.972-5.044zM21.664 5.2l2.654-2.666c.999-.993 2.76-1.307 4.021-.706l2.943 1.28c-.105.08-.21.132-.289.236-1.025.288-2.523 1.255-2.97 1.986-1.655-.47-3.074.575-3.074.575s-1.42 1.098-2.628 2.143c-.684.602-1.314 1.255-1.814 1.778v-1.49c.027-.026-.078-1.777 1.157-3.136zM48.68 23.339s0 .549-.21 1.045c-.053.105-.473.837-1.393.497l-18.449-5.41s-1.445-.34-1.63-1.7c0-.025-.026-.13-.026-.156a.625.625 0 00-.578-.418c-.315 0-.578.235-.604.523v.13c0 .21 0 1.124-.789 1.62l-3.18 1.7s-.63.365-1.05-.079c-.132-.183-.211-.549-.211-1.02v-1.698l4.73-3.032v-1.28s.027-.55-.42-.418c-.447.13-1.813.574-4.31 1.829v-.052l4.73-3.058v-1.229s-.026-.6-.446-.496a7.1 7.1 0 00-.841.261c-.946.314-2.103.732-3.443 1.49v-.052c.63-.601 1.735-1.647 2.418-2.196 1.077-.862 2.26-1.594 2.26-1.594.946-.627 1.734-.549 2.313-.47-.158 1.359-.29 2.822-.184 3.214.131 1.438 1.314 2.692 3.337 3.215 1.84.47 4.021-.262 5.598-1.333.578-.392 1.84-.653 1.84-.653 1.156-.183 2.128.313 2.549.705 0 0 .236.262.42.47.184.236.395.523.395.523s2.312 3.79 4.073 5.018c.473.314 1.025.497 1.603.628.657.13 1.13.078 1.498-.105v3.58zm.105-7.083c-1.235.653-3.048-.261-4.02-2.09-.973-1.804-.763-3.817.472-4.496 1.235-.653 3.049.261 4.021 2.09.973 1.83.762 3.843-.473 4.496zm41.368-.424c0-4.51 3.449-7.791 8.134-7.791 2.361 0 4.423.82 5.81 2.386l-1.424 1.379c-1.2-1.23-2.624-1.79-4.311-1.79-3.448 0-6.034 2.498-6.034 5.853 0 3.392 2.548 5.852 6.034 5.852 1.687 0 3.149-.596 4.311-1.826l1.424 1.379c-1.387 1.565-3.449 2.385-5.847 2.385-4.648-.037-8.097-3.317-8.097-7.827zm-28.241-5.741h5.248v13.345h2.174V10.09h5.247v-1.9H61.912v1.9zm26.546 13.345v-1.864h-8.921v-4.92h7.684v-1.864h-7.684v-4.697h8.62v-1.9H77.326v15.245h11.133zm32.44-11.108l.037 11.108h2.099l-.037-15.246h-1.799l-6.297 10.698-6.41-10.698h-1.799v15.246h2.099V12.402l5.548 9.207h1.012l5.547-9.281z" fill="#110545"/><path fill-rule="evenodd" clip-rule="evenodd" d="M137.286 19.634h-8.134l-1.687 3.802h-2.248l6.934-15.246h2.174l6.971 15.246h-2.286l-1.724-3.802zm-.75-1.752l-3.298-7.455-3.299 7.455h6.597z" fill="#110545"/><path d="M156.637 23.436V8.19h-2.174v11.37l-9.184-11.37h-1.799v15.246h2.174V12.067l9.183 11.369h1.8z" fill="#110545"/><path d="M90.153 15.832c0-4.51 3.449-7.791 8.134-7.791 2.361 0 4.423.82 5.81 2.386l-1.424 1.379c-1.2-1.23-2.624-1.79-4.311-1.79-3.448 0-6.034 2.498-6.034 5.853 0 3.392 2.548 5.852 6.034 5.852 1.687 0 3.149-.596 4.311-1.826l1.424 1.379c-1.387 1.565-3.449 2.385-5.847 2.385-4.648-.037-8.097-3.317-8.097-7.827zm-28.241-5.741h5.248v13.345h2.174V10.09h5.247v-1.9H61.912v1.9zm26.546 13.345v-1.864h-8.921v-4.92h7.684v-1.864h-7.684v-4.697h8.62v-1.9H77.326v15.245h11.133zm32.44-11.108l.037 11.108h2.099l-.037-15.246h-1.799l-6.297 10.698-6.41-10.698h-1.799v15.246h2.099V12.402l5.548 9.207h1.012l5.547-9.281z" stroke="#110545" stroke-width=".4"/><path clip-rule="evenodd" d="M137.286 19.634h-8.134l-1.687 3.802h-2.248l6.934-15.246h2.174l6.971 15.246h-2.286l-1.724-3.802zm-.75-1.752l-3.298-7.455-3.299 7.455h6.597z" stroke="#110545" stroke-width=".4"/><path d="M156.637 23.436V8.19h-2.174v11.37l-9.184-11.37h-1.799v15.246h2.174V12.067l9.183 11.369h1.8z" stroke="#110545" stroke-width=".4"/></svg>