<svg width="352" height="305" viewBox="0 0 352 305" fill="none" xmlns="http://www.w3.org/2000/svg"><path d="M95.353 247.667c-18.928-2.875-40.252 6.229-50.076 13.417l8.263-50.98 64.712-100.801c35.506-8.31 106.625-18.41 112.065-2.696 5.439 15.713-16.872 117.347-28.708 166.2-11.753-17.63-57.525-11.544-72.523-3.777-4.785-11.08-17.352-18.875-33.733-21.363z" fill="#3852CE" stroke="#110545" stroke-width="1.802"/><path fill-rule="evenodd" clip-rule="evenodd" d="M225.786 101.058c2.646 1.265 4.593 2.972 5.383 5.254.739 2.133.976 5.587.863 9.967-.114 4.419-.589 9.9-1.346 16.164-1.515 12.531-4.169 28.258-7.359 45.006-6.381 33.498-14.921 71.135-20.841 95.57l-.484 2-1.141-1.712c-2.774-4.16-7.61-6.997-13.682-8.754-6.063-1.754-13.257-2.4-20.596-2.257-14.704.287-29.746 3.735-37.082 7.534l-.858.445-.383-.888c-17.835-31.541-64.388-21.44-84.838-2.792l9.26-56.82 65.01-101.266.356-.083c17.79-4.164 44.494-8.775 67.45-10.379 11.471-.8 22.054-.855 30.135.291 4.037.573 7.501 1.452 10.153 2.72zm-106.972 9.04L54.401 210.434l-7.893 48.695c4.994-3.324 12.111-6.859 20.123-9.386 9.007-2.841 19.215-4.432 28.859-2.967 16.128 2.45 28.812 10.025 34.032 21.031 7.908-3.79 22.686-7.033 37.026-7.313 7.448-.145 14.838.507 21.132 2.328 5.549 1.605 10.325 4.142 13.503 7.918 5.892-24.439 14.16-61.005 20.374-93.629 3.187-16.731 5.832-32.413 7.34-44.884.754-6.237 1.222-11.656 1.334-15.994.112-4.376-.143-7.536-.765-9.331-.569-1.646-2.035-3.06-4.457-4.218-2.418-1.156-5.68-2.001-9.63-2.561-7.893-1.12-18.329-1.076-29.756-.278-22.688 1.585-49.094 6.128-66.809 10.253z" fill="#110545"/><path d="M41.455 288.678L2.172 303.032c28.716-85.351 75.992-150.596 116.598-194.248-37.017 61.947-56.18 106.255-77.315 179.894z" fill="#110545" stroke="#110545" stroke-width="1.802"/><path d="M133.098 254.981l8.337-29.243" stroke="#110545" stroke-width="1.352" stroke-linecap="round"/><path d="M280.838 70.836l.036-.07.048-.062 19.869-25.755a24.28 24.28 0 00.181-2.278c.012-.465.005-.9-.029-1.263-.036-.386-.095-.603-.136-.689h-.001a.792.792 0 00-.116-.136 3.701 3.701 0 00-.395-.333 12.384 12.384 0 00-1.295-.822 31.827 31.827 0 00-2.482-1.245c-2.079 1.236-7.148 4.822-13.329 10.94-3.288 3.255-6.274 6.754-8.609 9.807-2.011 2.628-3.51 4.888-4.308 6.358l9.856 6.9.71-1.352zm24.663-16.176c-.733-.55-1.698-.947-3.115-1.15-.353.158-.951.52-1.799 1.126-.963.688-2.16 1.623-3.525 2.744-2.73 2.24-6.097 5.192-9.562 8.321-6.623 5.98-13.569 12.581-17.043 16.048l9.237 17.932 27.244-39.471c.297-.74.49-2.047.418-3.204-.548-1.036-1.118-1.793-1.855-2.346z" fill="#fff" stroke="#110545" stroke-width="1.802"/><path d="M304.496 58.888c.384.042 1.035.288 1.878 1.287l-33.056 43.905a9.655 9.655 0 01-1.691.328c-.954.094-2.056.043-2.968-.411.048-.146.116-.342.213-.592.257-.661.712-1.697 1.497-3.17 1.57-2.947 4.458-7.636 9.72-14.565 5.259-6.925 11.224-13.605 15.878-18.555a293.66 293.66 0 015.738-5.939A201.617 201.617 0 01303.8 59.1l.113-.11.006-.006a.69.69 0 01.106-.048c.099-.036.258-.072.471-.048zm-35.202 28.591l-.055.073-.024.09-.444 1.673c-.072.018-.157.04-.255.062a14.88 14.88 0 01-1.277.24c-.889.126-1.884.173-2.67-.014.023-.124.055-.279.096-.463.132-.586.366-1.475.772-2.672.812-2.396 2.31-6.025 5.056-10.924 5.481-9.777 16.436-22.159 27.649-31.228l.037-.03.028-.034.001-.001.025-.026a1.021 1.021 0 01.616-.27c.372-.03 1.067.121 2.041 1.264l-31.596 42.26z" fill="#110545" stroke="#110545" stroke-width=".949"/><g opacity=".5" filter="url(#filter0_f_3588_11889)"><path d="M133.926 68.263s-1.269-3.43.728-4.761c2.003-1.333 3.342-.099 4.324 2.655l28.637 68.663s-4.796-1.681-4.727 2.943l-28.967-69.498.005-.002z" fill="#fff"/><path d="M134.371 68.099l.043.118 28.258 67.794c.139-.384.333-.707.572-.974.539-.604 1.252-.861 1.919-.95a5.63 5.63 0 011.654.052l-28.277-67.8-.005-.01-.004-.012c-.485-1.361-1.024-2.233-1.601-2.63a1.314 1.314 0 00-.861-.247c-.317.022-.697.154-1.152.457l-.546 4.202zm0 0h0m0 0h0m0 0h0m0 0h0m0 0h0m0 0h0m0 0h0l-.002-.006-.009-.024-.033-.1a6.895 6.895 0 01-.313-1.618c-.064-.978.125-1.936.903-2.454l-.546 4.201z" stroke="#110545" stroke-width=".949"/></g><path d="M258.205 159.524h0c.406-1.185.458-2.155.238-2.935-.216-.772-.712-1.412-1.505-1.919-1.618-1.035-4.427-1.485-8.3-1.262-7.71.445-19.266 3.532-32.839 9.19-13.562 5.652-26.527 12.783-36.522 19.738-4.998 3.478-9.244 6.905-12.45 10.076-3.215 3.181-5.341 6.064-6.159 8.448l97.537-41.336zm0 0c-.817 2.383-2.942 5.266-6.157 8.447-3.205 3.17-7.451 6.598-12.448 10.075-9.994 6.955-22.96 14.086-36.522 19.738-13.57 5.657-25.126 8.744-32.838 9.189m87.965-47.449l-87.965 47.449m0 0c-3.873.224-6.683-.226-8.302-1.261m8.302 1.261l-8.302-1.261m0 0c-.793-.507-1.29-1.146-1.507-1.918m1.507 1.918l-1.507-1.918m0 0c-.22-.78-.169-1.75.237-2.934l-.237 2.934z" fill="#110545" stroke="#110545" stroke-width=".949"/><path d="M258.008 159.453l-.001.001c-.801 2.338-2.899 5.194-6.108 8.369-3.193 3.159-7.43 6.58-12.421 10.053-9.982 6.945-22.934 14.07-36.484 19.717-14.662 6.112-26.928 9.203-34.528 9.226-.009-.556.094-1.193.342-1.921.802-2.338 2.901-5.194 6.11-8.369 3.195-3.16 7.432-6.58 12.423-10.054 9.982-6.946 22.935-14.07 36.485-19.718 14.662-6.111 26.929-9.197 34.523-9.223.01.556-.091 1.192-.341 1.919z" fill="#fff" stroke="#110545" stroke-width="1.352"/><path d="M167.022 58.932c-6.79 7.973-4.386 21.378 5.66 29.933s23.663 8.793 30.453.82c6.79-7.973 4.385-21.379-5.66-29.933-10.046-8.555-23.663-8.794-30.453-.82zm72.536-.797c-2.933 3.532-3.535 8.502-2.048 13.74 1.486 5.237 5.05 10.692 10.358 15.101 5.309 4.41 11.325 6.912 16.745 7.412 5.423.5 10.199-1.003 13.132-4.535 2.933-3.531 3.535-8.502 2.048-13.74-1.486-5.237-5.05-10.692-10.358-15.101-5.309-4.41-11.325-6.912-16.746-7.412-5.422-.5-10.198 1.003-13.131 4.535z" fill="#fff" stroke="#110545" stroke-width=".931"/><path opacity=".5" d="M143.997 88.14c.031.153.055.282.074.383l-2.541 2.6a6.563 6.563 0 01-.591-.891c-.471-.847-.99-2.158-1.164-4.01l.129-.179c.147-.198.363-.473.638-.778.483-.534 1.134-1.146 1.901-1.603.516.803.918 1.947 1.201 2.983.159.582.276 1.111.353 1.495z" fill="#fff" stroke="#110545" stroke-width=".949"/><g opacity=".5" filter="url(#filter1_f_3588_11889)"><path d="M286.338 123.079s1.304 6.003-2.46 6.871L181 141.135s-6.154.743-9.32-6.057c-3.167-6.8.365-10.26 4.66-9.896 4.294.365 106.352-3.391 106.352-3.391s3.453-.288 3.646 1.288z" fill="url(#paint0_linear_3588_11889)"/><path d="M285.87 123.158l-.002-.022c-.024-.194-.143-.36-.411-.508-.277-.154-.661-.255-1.081-.314a8.02 8.02 0 00-1.138-.069 9.567 9.567 0 00-.475.016l-.026.002-.005.001h-.001l3.139.894zm0 0l.005.021h0v.002l.003.011.009.045.033.181c.027.158.061.387.092.664.061.557.104 1.301.035 2.064-.139 1.554-.706 2.966-2.249 3.336l-102.849 11.182h0-.005 0l104.926-17.506z" stroke="#110545" stroke-width=".949"/></g><path d="M160.775 82.494s0 0 0 0l.341-.171-.341.17zm18.837 15.912c12.628 3.678 23.583.375 27.655-7.11l.039-.004a.823.823 0 01.345.025l.011.005a.147.147 0 01.003.036c.001.126-.069.416-.404.955-.679 1.091-2.204 3.223-4.227 5.32-2.027 2.104-4.515 4.132-7.114 5.075-5.366 1.948-12.333 3.697-19.845.987-7.587-2.738-11.785-6.613-13.911-10.183h-.001c-.504-.845-.869-2.084-1.105-3.473a26.099 26.099 0 01-.341-4.177c-.004-1.216.076-2.252.203-2.902l.065.116c.193.341.481.83.866 1.428a37.097 37.097 0 003.486 4.567c3.113 3.488 7.842 7.46 14.275 9.335zm28.048-7.094v0zm25.851-19.54l-.005.055.008.054.469-.064-.469.065h0v.003l.001.007.004.027.016.098c.014.085.036.208.067.367.063.317.165.776.321 1.349a28.681 28.681 0 001.704 4.603c1.732 3.702 4.823 8.39 10.254 12.341 10.801 7.859 19.854 8.344 25.95 6.316 3.023-1.006 4.775-2.24 5.779-3.254.416-.42.701-.8.894-1.106.032.055.064.112.094.173.22.443.339.988.07 1.56h0c-.138.296-.54.828-1.215 1.494a18.993 18.993 0 01-2.642 2.139c-2.17 1.47-5.071 2.861-8.356 3.3-6.594.882-15.123-1.915-22.271-6.828-7.123-4.895-11.265-11.347-12.577-16.05-.627-2.247.09-4.437.945-5.76.212-.329.427-.594.622-.787a1.84 1.84 0 01.345-.281c.001.046-.001.105-.008.18z" fill="#9371CA" stroke="#110545" stroke-width=".949"/><path d="M160.651 101.48h0l-.008-.025-.011-.023a2.04 2.04 0 01-.183-.745.976.976 0 01.045-.371c.071.042.198.144.374.377h0l.001.001c1.041 1.363 2.757 2.73 4.555 3.944 1.807 1.22 3.737 2.311 5.241 3.113h0c2.623 1.397 5.726 2.023 8.426 2.253 2.7.23 5.043.068 6.17-.141l.049-.009.047-.019c.426-.178.675.017.745.141l.008.015a.603.603 0 01-.145.012l-.099-.001-.091.038c-2.484 1.035-8.185 2.842-15.278.732-3.783-1.128-6.245-3.451-7.766-5.502a16.283 16.283 0 01-1.614-2.675 12.647 12.647 0 01-.442-1.045 2.27 2.27 0 01-.019-.055l-.004-.013-.001-.002zm25.472 8.553v-.005.005zm.029-.056l.004-.004-.004.004z" fill="url(#paint1_linear_3588_11889)" stroke="#110545" stroke-width=".949"/><path d="M164.28 57.174h0c7.509-9.225 22.922-9.304 34.468.102 11.545 9.405 14.579 24.508 7.072 33.738-7.513 9.215-22.929 9.3-34.469-.107h-.001c-11.55-9.403-14.581-24.513-7.07-33.733zm39.417 32.111h.001c6.91-8.484 3.988-22.096-6.24-30.426-10.228-8.33-24.153-8.449-31.065.036-6.908 8.477-3.988 22.096 6.24 30.426 10.223 8.332 24.151 8.443 31.064-.036z" fill="url(#paint2_linear_3588_11889)" stroke="#110545" stroke-width=".949"/><path d="M275.163 88.089h0c2.699-3.315 3.142-7.878 1.768-12.515-1.374-4.64-4.577-9.406-9.264-13.22-4.685-3.82-9.999-5.992-14.821-6.4-4.818-.407-9.196.949-11.896 4.261-2.703 3.314-3.148 7.876-1.775 12.513 1.374 4.64 4.578 9.408 9.265 13.225 4.688 3.818 10.004 5.99 14.826 6.397 4.819.408 9.197-.948 11.897-4.261zM236.84 72.181c-1.55-5.236-1.003-10.217 1.894-13.775h0c2.896-3.554 7.662-5.095 13.103-4.634 5.438.46 11.498 2.921 16.871 7.298 5.373 4.377 9.007 9.814 10.557 15.048 1.551 5.237 1.006 10.219-1.889 13.776-2.898 3.555-7.665 5.097-13.106 4.638-5.438-.46-11.499-2.921-16.872-7.3-5.374-4.38-9.009-9.817-10.558-15.051z" fill="url(#paint3_linear_3588_11889)" stroke="#110545" stroke-width=".949"/><path opacity=".5" d="M194.547 70.43h0c3.813 2.485 5.324 4.563 6.12 6.04.189.35.335.663.458.925l.015.032c.13.277.226.477.322.632.094.151.167.22.229.258.057.034.146.066.318.06.314-.01.442-.116.512-.218.086-.124.139-.325.142-.601-.735-4.547-3.351-9.187-7.65-12.69-6.648-5.414-15.113-6.36-20.853-2.994-.162.257-.337.645-.312 1.095.027.475.283 1.127 1.279 1.84l19.42 5.622zm0 0c-2.749-1.79-7.018-2.719-10.851-3.446m10.851 3.447l-10.851-3.447m0 0c-.514-.097-1.02-.19-1.515-.282m1.515.282l-1.515-.282m0 0c-1.371-.254-2.655-.492-3.775-.747m3.775.747l-3.775-.747m0 0c-1.546-.352-2.68-.718-3.279-1.146l3.279 1.146zm86.581 6.959h0c-2.352-1.615-5.969-2.498-9.2-3.194-.434-.094-.861-.184-1.278-.272-1.156-.243-2.237-.471-3.181-.712-1.304-.332-2.251-.667-2.75-1.043-.838-.63-1.057-1.194-1.086-1.598-.026-.37.102-.687.226-.902 4.718-2.797 11.796-1.852 17.455 2.967 3.658 3.12 5.927 7.206 6.619 11.178.002.236-.04.394-.098.482-.039.06-.113.137-.348.14-.131.002-.191-.024-.227-.047a.634.634 0 01-.183-.214 6.098 6.098 0 01-.279-.555l-.014-.029a16.21 16.21 0 00-.4-.815c-.696-1.308-2.004-3.152-5.256-5.386z" fill="#fff" stroke="#110545" stroke-width=".949"/><path d="M229.62 71.235l.001-.01.001-.007.013-.065a24.539 24.539 0 01.267-1.189 29.83 29.83 0 01.914-3.005c.418-1.149.952-2.361 1.612-3.432.294-.477.609-.92.947-1.316-.052.18-.104.371-.155.573-.35 1.407-.611 3.34-.29 5.51a4.947 4.947 0 00-.51.366c-.516.417-1.249 1.136-2.175 2.367a5.63 5.63 0 01-.536.631 2.398 2.398 0 01-.102.094 2.266 2.266 0 01-.006-.226c.002-.088.007-.167.012-.225l.007-.066zm.03.73l-.001-.003.001.003z" fill="url(#paint4_linear_3588_11889)" stroke="#110545" stroke-width=".949"/><path d="M157.285 67.83c-.249 2.745-.1 6.527 1.458 10.767l-.06.053a8.32 8.32 0 00-.814.857c-.498.6-1.09 1.453-1.635 2.605a14.57 14.57 0 01-.269-1.016c-.332-1.446-.648-3.678-.562-6.783.09-3.076.972-6.206 1.851-8.332.173-.418.343-.792.504-1.115a21.814 21.814 0 00-.473 2.965zm1.322-4.28l.005-.003-.005.003z" fill="url(#paint5_linear_3588_11889)" stroke="#110545" stroke-width=".949"/><path d="M207.549 78.664c-1.455-5.893-5.506-11.756-11.651-15.845-11.072-7.401-25.02-6.554-30.979 2.374a15.457 15.457 0 00-1.319 2.405c.229-2.528 1.032-4.924 2.44-7.044 5.561-8.332 18.793-9.428 29.686-2.118 7.718 5.182 11.997 13.104 11.823 20.228zm62.467-9.779c-4.073-4.358-9.216-7.464-14.244-8.945-5.018-1.477-9.987-1.352-13.654.856-.613.368-1.16.774-1.65 1.215.761-1.593 1.958-2.933 3.596-3.925 3.365-2.027 8.029-2.212 12.897-.785 4.859 1.423 9.859 4.438 13.841 8.711 5.595 6.009 7.557 12.75 5.967 17.586-.011-4.616-2.3-9.966-6.753-14.713z" fill="#110545" stroke="#110545" stroke-width=".931"/><path d="M240.363 115.855c-4.189 5.341-14.708 6.938-25.291 3.839M152.564 39.66c8.611-6.198 18.235-5.544 24.745-4.106m69.887 5.464c8.88-2.486 16.54.922 21.425 4.04" stroke="#110545" stroke-width="2.371" stroke-linecap="round"/><path d="M127.083 62.823l.007-.016.007-.016c.131-.313.265-.643.403-.987.536-1.325 1.15-2.847 2.036-4.31 1.104-1.824 2.572-3.452 4.691-4.337 3.728-1.556 6.613-1.84 8.325-1.817l114.694 4.747a8.108 8.108 0 017.141 4.961l26.009 61.904c.607 1.595 1.413 4.404 1.491 7.248.078 2.87-.585 5.566-2.672 7.218-1.689 1.337-4.691 2.888-8.136 4.442-3.421 1.544-7.189 3.052-10.354 4.32l.335.836-.335-.836-.394.158c-2.349.94-4.999.782-7.193-.455l-6.689-3.771c-.652-.368-1.375-.692-2.172-.861-3.712-.79-8.986-.556-17.359.785-8.398 1.345-20.025 3.826-36.502 7.611a9.984 9.984 0 00-3.335 1.446l-29.418 19.849a8.109 8.109 0 01-2.821 1.204l-12.394 2.681c-1.092.157-2.252-.241-3.538-1.346-1.306-1.121-2.657-2.902-4.059-5.299-2.802-4.79-5.676-11.801-8.777-20.218l-.007-.021-.009-.021-21.845-51.138a8.109 8.109 0 01.108-6.615l12.762-27.346z" fill="#fff" stroke="#110545" stroke-width="1.802"/><path d="M113.862 91.361l13.182-28.412c1.319-2.844 5.389-2.764 6.596.129l34.754 83.284a3.603 3.603 0 01-.805 3.965l-16.531 16.176c-2.738 2.678-7.316 1.74-8.778-1.8l-28.511-69.002a5.405 5.405 0 01.093-4.34zm28.745-39.978l114.85 4.318a8.11 8.11 0 017.183 4.988l25.574 61.458c2.043 4.911-1.115 10.427-6.385 11.15l-106.561 14.622a8.109 8.109 0 01-8.576-4.887l-33.864-80.396c-2.302-5.467 1.851-11.475 7.779-11.253z" fill="#fff" stroke="#110545" stroke-width="1.802"/><path d="M151.646 165.586c2.582-1.55 15.766-13.732 16.612-16.269 1.033-3.099-3.443-15.488-5.853-22.891 6.305 11.924 6.969 19.591 14.046 20.04 2.539.162 33.21-3.174 39.322-4.294 6.111-1.119 67.57-8.952 71.616-10.673 3.236-1.377 3.644-5.337 3.443-7.145.258.546.826 2.29 1.033 4.907.207 2.617-.603 4.82-1.033 5.595-.488-.316-1.859-.964-3.443-1.033-1.98-.086-57.93 6.198-65.505 8.349-7.575 2.152-44.069 7.145-63.761 20.124-4.382 2.889-5.674 5.929-9.577 9.659l-2.409-1.291c-.861-1.148-2.066-3.357 0-3.013 2.582.431 2.927-.516 5.509-2.065z" fill="#110545"/><path d="M236.93 116.433c-4.189 5.34-14.708 6.937-25.291 3.839" stroke="#110545" stroke-width="2.371" stroke-linecap="round"/><path d="M151.586 175.052l7.782-9.493s21.847-15.083 57.523-20.587c35.677-5.498 64.841-8.299 64.841-8.299s7.932-1.888 7.581 1.57l-25.722 15.102s.277-5.345-6.481-8.487c-6.759-3.142-17.077-3.234-41.791 4.461-24.715 7.69-42.166 18.311-48.457 22.969l-15.276 2.764z" fill="#110545"/><path d="M165.672 51.602c1.889-2.565 3.278-5.419 8.029-7.143 4.752-1.724 50.884.477 56.035 2.887 3.677 1.72 5.714 5.047 7.206 7.117" stroke="#110545" stroke-width="1.802" stroke-linecap="round"/><path d="M255.161 154.894l.016.002.015.002h.002l.009.001.043.005a4.337 4.337 0 01.533.107 49.02 49.02 0 00-2.885.264c-2.9.347-7.228 1.076-12.968 2.608-10.609 2.826-33.253 10.655-58.727 28.75l-7.724 2.755.085-.069a130.784 130.784 0 016.207-4.68c5.462-3.885 13.53-9.094 23.941-14.378 10.409-5.283 21.26-9.465 30.53-12.156 4.635-1.345 8.869-2.316 12.45-2.866 3.591-.551 6.49-.673 8.473-.345z" fill="#fff" stroke="#110545" stroke-width=".949"/><path d="M140.749 77.801c-.819-1.975-2.047-5.264-3.719-10.379-2.339-7.155-2.102-8.918-1.042-10.874.243-.449.46-.775.837-1.256l1.578.712c2.714 2.854 8.205 8.796 8.458 9.727.254.93 7.539 24.66 8.525 27.832-3.066 2.29-7.801 6.36-8.525 6.798-4.318 2.614-10.431-15.952-12.052-16.234-1.445-1.304-4.398-4.123-4.652-4.97-.317-1.056-1.269-16.492-.635-16.915.634-.423 2.343-.316 3.278 1.057.978 1.435 5.285 9.093 7.949 14.502z" fill="#fff"/><path d="M166.72 145.63l-15.286-40.378c.414-.633.509-.868.924-1.286 8.236 18.148 9.362 23.771 18.914 37.007l-1.147-4.421-13.617-39.148-7.214-7.052-6.485 2.756 16.859 54.224 7.052-1.702z" fill="#fff"/><path d="M165.029 143.969c-.699-2.997-2.914-9.989-3.933-13.11v-1.499c1.935 3.33 5.844 10.089 5.993 10.489.188.499 2.248 5.306 2.185 6.056-.049.599-.52 3.537-.749 4.932l-8.49 5.618c3.433-3.246 4.544-4.495 5.493-6.243.575-1.059.376-2.497-.499-6.243zM141.752 51.37c-2.616.603-7.757 3.127-7.392 8.406.266 3.844.565 5.725.773 6.512.068.165.131.322.189.471-.046-.034-.111-.176-.189-.47-1.031-2.483-3.266-6.442-5.326-5.502-1.749.797-2.443 1.465-2.649 1.842l-.072.229a.473.473 0 01.072-.23c.668-2.087 2.382-6.306 4.48-8.199 2.178-1.965 7.65-2.858 10.114-3.058z" fill="#110545"/><path d="M124.27 70.262l4.023 8.218m-7.879-.576l5.868 11.985m-9.52-4.471l4.023 8.218m22.916-14.746c1.872-.872 3.572-1.605 5.702-2.08 2.025-.453 4.466-.678 7.825-.54l2.47 13.417-.568.015c-2.239.052-5.855.138-9.6 2.344-2.868 1.69-4.824 4.42-6.625 6.932l-.039.054c-5.49 7.659-12.414 19.979-16.428 27.827l-4.149-10.062c1.53-3.302 3.026-6.919 4.534-10.564l.219-.529c1.626-3.929 3.268-7.877 4.997-11.519 1.729-3.644 3.533-6.958 5.473-9.625 1.946-2.672 3.993-4.644 6.189-5.67z" stroke="#110545" stroke-width="1.352" stroke-linecap="round"/><path d="M122.243 121.691s7.587-18.482 14.522-30.893c0 0 4.446-10.382 13.965-11.026l1.719 6.53s-6.582.613-12.733 10.365c0 0-1.805-5.783-6.154 3.663-4.354 9.448-8.542 18.382-10.498 23.316l-.815-1.957-.006.002z" fill="#110545"/><path d="M113.89 155.445c5.752-20.775 16.538-33.408 31.824-46.558l3.769.706 2.152 4.978c-1.34 1.88-2.986 4.178-4.803 6.714-7.928 11.067-19.107 26.673-22.306 31.908-3.109 5.088-4.589 7.576-5.163 8.574-1.512-.036-2.995-.226-4.778-.567-.324-.941-.552-2.022-.676-3.038-.144-1.19-.132-2.185-.019-2.717z" fill="#fff" stroke="#110545" stroke-width="1.802"/><path d="M145.789 109.31l2.204 6.038" stroke="#110545" stroke-width="1.802"/><mask id="a" fill="#fff"><path d="M155.699 122.972l-4.841-.633-.003.002c-3.156 2.706-12.614 10.813-19.371 19.822-6.591 8.789-11.714 19.974-13.516 24.78-.3 1.352.001 4.291.901 8.346 2.704 1.803 4.957 1.803 8.112 1.352.15-.3 1.442-2.523 5.407-9.011 3.965-6.488 19.354-27.549 26.412-37.461l-3.101-7.197z"/></mask><path d="M155.699 122.972l-4.841-.633-.003.002c-3.156 2.706-12.614 10.813-19.371 19.822-6.591 8.789-11.714 19.974-13.516 24.78-.3 1.352.001 4.291.901 8.346 2.704 1.803 4.957 1.803 8.112 1.352.15-.3 1.442-2.523 5.407-9.011 3.965-6.488 19.354-27.549 26.412-37.461l-3.101-7.197z" fill="#fff"/><path d="M150.858 122.339l.234-1.787-.797-.104-.61.522 1.173 1.369zm4.841.633l1.655-.713-.405-.941-1.016-.133-.234 1.787zm3.101 7.197l1.468 1.046.589-.827-.402-.932-1.655.713zm-31.819 46.472l.255 1.784.935-.133.422-.845-1.612-.806zm-8.112-1.352l-1.759.391.157.707.603.402.999-1.5zm-.901-8.346l-1.687-.633-.045.119-.027.123 1.759.391zm13.516-24.78l1.442 1.081-1.442-1.081zm19.371-19.822l-1.172-1.369-.001.001 1.173 1.368zm-.231 1.785l4.841.633.468-3.574-4.841-.633-.468 3.574zm3.42-.44l3.101 7.196 3.31-1.426-3.101-7.197-3.31 1.427zm3.288 5.438c-7.005 9.837-22.473 31.006-26.482 37.566l3.076 1.88c3.92-6.416 19.231-27.369 26.342-37.355l-2.936-2.091zM130.85 166.69c-3.937 6.443-5.286 8.756-5.481 9.145l3.224 1.612.072-.13a132.108 132.108 0 011.137-1.938 745.225 745.225 0 014.124-6.809l-3.076-1.88zm-4.123 8.167c-1.54.22-2.694.302-3.738.166-1.001-.131-1.981-.474-3.12-1.233l-1.999 2.999c1.564 1.043 3.063 1.601 4.653 1.808 1.547.202 3.097.059 4.713-.172l-.509-3.568zm-6.098.042c-.441-1.985-.728-3.664-.869-4.987-.146-1.377-.116-2.204-.033-2.578l-3.518-.782c-.218.978-.187 2.296-.033 3.741.16 1.498.474 3.317.934 5.387l3.519-.781zm-.974-7.323c1.764-4.702 6.813-15.721 13.271-24.332l-2.883-2.162c-6.726 8.967-11.921 20.319-13.762 25.228l3.374 1.266zm13.271-24.332c6.623-8.83 15.937-16.822 19.102-19.535l-2.346-2.736c-3.147 2.698-12.749 10.922-19.639 20.109l2.883 2.162zm19.102-19.534l.002-.002-2.345-2.738-.002.002 2.345 2.738z" fill="#110545" mask="url(#a)"/><path d="M151.375 123.738L154.55 131" stroke="#110545" stroke-width="1.802"/><path d="M153.48 128.959l4.439.96c-4.784 6.752-15.402 21.681-19.597 27.384-4.195 5.703-10.052 14.777-12.455 18.601l-5.457-.946c12.086-23.755 19.137-32.233 33.07-45.999zm-5.961-15.077l3.854 1.042c-5.606 7.708-17.752 24.647-21.488 30.743-3.737 6.097-8.55 13.248-10.489 16.061l-4.654-.702c10.642-23.497 17.668-32.243 32.777-47.144z" fill="#110545"/><path d="M231.207 72.221l1.853 8.525c-6.201-.615-15.097.304-24.081 3.377V73.088c7.715-1.32 14.739-2.02 22.228-.867zm-32.094 26.002l-.025.023-.023.025c-8.319 8.866-23.939 8.094-34.926-2.215-10.986-10.308-12.75-25.847-4.431-34.713 3.022-3.22 6.146-6.09 10.122-8.855 3.732-.581 8.085.454 12.453 2.518 4.428 2.092 8.777 5.198 12.351 8.551 3.595 3.374 6.475 8.68 8.308 14.22 1.79 5.406 2.538 10.902 2.053 14.86-2.378 2.375-3.225 3.151-5.469 5.208l-.413.378z" fill="#fff" stroke="#110545" stroke-width="1.802"/><path d="M194.437 98.808l-2.785 4.384m5.428-4.864l-1.959 3.122m-3.685-1.92l-3.084 4.506m-.239-4.506l-3.324 4.855m-.277-5.302l-3.555 5.243m-.648-6.291l-3.46 5.307m-.575-6.726l-3.573 5.231m-.596-7.764l-3.691 5.148m-.002-8.336l-4.084 5.027m1.275-8.777l-4.622 5.488m1.996-9.355l-4.706 5.42m1.308-8.388l-3.355 4.084m.797-7.131l-1.86 2.265" stroke="#110545" stroke-width="1.352" stroke-linecap="round"/><path d="M200.114 58.444c10.987 10.31 12.75 25.848 4.431 34.714-8.319 8.866-23.938 8.095-34.925-2.214-10.987-10.31-12.75-25.848-4.431-34.714 8.319-8.866 23.938-8.095 34.925 2.214z" fill="#fff" stroke="#110545" stroke-width="1.802"/><path d="M197.689 61.026c9.227 8.657 10.834 21.57 4.002 28.851-6.831 7.28-19.821 6.499-29.047-2.159-9.226-8.657-10.833-21.57-4.002-28.85 6.831-7.281 19.821-6.499 29.047 2.158z" fill="#fff" stroke="#110545" stroke-width="1.352"/><path d="M235.919 62.543l.015-.015.013-.017c.514-.604.954-1.126 1.357-1.604a143.623 143.623 0 013.293-3.808c3.663-1.144 8.405-.848 13.25.66 4.93 1.535 9.865 4.295 13.718 7.9 3.534 3.304 6.429 7.84 8.298 12.498 1.835 4.574 2.645 9.172 2.172 12.76-1.657 2.177-2.972 3.673-5.251 6.11-7.161 7.655-21.3 6.562-31.646-3.116-10.347-9.677-12.38-23.713-5.219-31.368z" fill="#fff" stroke="#110545" stroke-width="1.802"/><path d="M271.339 95.811l-3.023 4.759" stroke="#110545" stroke-width="1.352" stroke-linecap="round"/><path d="M273.868 95.526a.45.45 0 10-.763-.479l.763.48zm-.763-.479l-2.456 3.916.763.479 2.456-3.916-.763-.479z" fill="#110545"/><path d="M268.082 97.06l-2.887 4.218m-.435-3.771l-3.018 4.408m-.585-4.855l-3.106 4.581m-1.098-5.629l-3.459 5.307m-.575-6.725l-3.574 5.23m-.595-7.764l-3.691 5.149m-.002-8.337l-4.085 5.027m.735-8.134l-3.818 4.533m.38-7.483l-3.29 3.789m.303-7.174l-2.312 2.816" stroke="#110545" stroke-width="1.352" stroke-linecap="round"/><path d="M272.032 60.42c10.347 9.678 12.38 23.713 5.219 31.369-7.161 7.655-21.3 6.563-31.646-3.115-10.347-9.678-12.38-23.713-5.219-31.369 7.161-7.655 21.3-6.562 31.646 3.115z" fill="#fff" stroke="#110545" stroke-width="1.802"/><path d="M269.873 62.727c4.293 4.016 6.931 8.95 7.747 13.657.816 4.707-.19 9.145-3.117 12.274-2.926 3.128-7.287 4.428-12.038 3.928-4.752-.5-9.85-2.803-14.143-6.819-4.293-4.016-6.931-8.95-7.747-13.656-.816-4.708.19-9.145 3.117-12.274 2.926-3.129 7.287-4.429 12.038-3.929 4.751.501 9.85 2.804 14.143 6.82z" fill="#fff" stroke="#110545" stroke-width="1.352"/><path fill-rule="evenodd" clip-rule="evenodd" d="M265.638 75.731c-2.494-2.336-8.073-4.533-14.315-1.375l1.121 2.688c5.3-3.345 9.991-1.313 12.635 0l.559-1.313zm-72.819.592c-2.812-2.633-9.533-4.954-15.891-.94l1.018 2.42c5.974-3.77 11.262-1.48 14.242 0l.631-1.48z" fill="#110545"/><defs><linearGradient id="paint0_linear_3588_11889" x1="223.693" y1="142.758" x2="223.402" y2="121.338" gradientUnits="userSpaceOnUse"><stop stop-color="#fff"/><stop offset="1" stop-color="#fff" stop-opacity="0"/></linearGradient><linearGradient id="paint1_linear_3588_11889" x1="163.369" y1="109.276" x2="182.931" y2="101.123" gradientUnits="userSpaceOnUse"><stop stop-color="#A4EEFB"/><stop offset="1" stop-color="#808FDB"/></linearGradient><linearGradient id="paint2_linear_3588_11889" x1="163.444" y1="83.095" x2="206.65" y2="65.086" gradientUnits="userSpaceOnUse"><stop stop-color="#7729F6"/><stop offset="1" stop-color="#9EFFEE"/></linearGradient><linearGradient id="paint3_linear_3588_11889" x1="240.113" y1="81.627" x2="275.992" y2="66.672" gradientUnits="userSpaceOnUse"><stop stop-color="#7729F6"/><stop offset="1" stop-color="#9EFFEE"/></linearGradient><linearGradient id="paint4_linear_3588_11889" x1="227.605" y1="68.3" x2="236.212" y2="64.712" gradientUnits="userSpaceOnUse"><stop stop-color="#6BD4E6"/><stop offset="1" stop-color="#80C4DB"/></linearGradient><linearGradient id="paint5_linear_3588_11889" x1="152.768" y1="75.144" x2="161.996" y2="71.298" gradientUnits="userSpaceOnUse"><stop stop-color="#C0F6FF"/><stop offset="1" stop-color="#8094DB"/></linearGradient><filter id="filter0_f_3588_11889" x="128.884" y="58.319" width="43.373" height="84.088" filterUnits="userSpaceOnUse" color-interpolation-filters="sRGB"><feFlood flood-opacity="0" result="BackgroundImageFix"/><feBlend in="SourceGraphic" in2="BackgroundImageFix" result="shape"/><feGaussianBlur stdDeviation="2.322" result="effect1_foregroundBlur_3588_11889"/></filter><filter id="filter1_f_3588_11889" x="165.817" y="117.127" width="125.385" height="28.676" filterUnits="userSpaceOnUse" color-interpolation-filters="sRGB"><feFlood flood-opacity="0" result="BackgroundImageFix"/><feBlend in="SourceGraphic" in2="BackgroundImageFix" result="shape"/><feGaussianBlur stdDeviation="2.322" result="effect1_foregroundBlur_3588_11889"/></filter></defs></svg>