<svg width="102" height="102" viewBox="0 0 102 102" fill="none" xmlns="http://www.w3.org/2000/svg"><circle cx="51.176" cy="51.113" r="50.5" fill="#DBFF00"/><circle cx="51.176" cy="51.113" r="50.5" fill="#DBFF00"/><path d="M91.676 41.613l.81 2.19 2.19.81-2.19.81-.81 2.19-.81-2.19-2.19-.81 2.19-.81.81-2.19z" fill="#110545"/><path d="M95.503 53.302l-.867 6.21-7.626-1.065.183-1.307 6.493.906.502-3.595-6.493-.906.182-1.308 7.626 1.065zM84.727 65.225c.193-.428.443-.805.751-1.133a3.04 3.04 0 011.082-.744c.42-.165.894-.234 1.42-.206.533.03 1.12.19 1.762.479l.201.09c.615.277 1.101.6 1.458.97.363.371.62.768.768 1.189.148.42.199.853.152 1.298a4.108 4.108 0 01-.35 1.314 4.086 4.086 0 01-.751 1.134c-.302.33-.659.58-1.072.748-.413.168-.88.24-1.4.215-.512-.021-1.077-.17-1.692-.447l-.2-.09c-.642-.289-1.152-.623-1.528-1-.37-.376-.633-.776-.788-1.2a3.042 3.042 0 01-.162-1.302c.04-.448.157-.887.35-1.315zm1.064.479a2.259 2.259 0 00-.194.78c-.019.274.028.544.141.812.12.27.316.532.589.783.27.258.635.491 1.097.699l.2.09c.442.198.839.308 1.19.33a2.19 2.19 0 00.937-.098 1.75 1.75 0 00.701-.432 2.29 2.29 0 00.654-1.455 1.763 1.763 0 00-.141-.811 2.19 2.19 0 00-.549-.766c-.253-.242-.6-.462-1.041-.66l-.2-.091c-.462-.208-.878-.33-1.247-.367a2.398 2.398 0 00-.976.08 1.764 1.764 0 00-.701.432c-.193.195-.346.42-.46.674zm-6.186 8.116c.302-.37.64-.666 1.014-.89.37-.219.771-.345 1.206-.377.434-.032.897.04 1.389.215.492.186 1.008.5 1.546.942l.17.14c.516.423.902.854 1.16 1.292.262.443.417.879.464 1.307a2.89 2.89 0 01-.15 1.257c-.147.41-.367.794-.66 1.151-.27.33-.564.6-.881.814a2.722 2.722 0 01-.973.44 2.42 2.42 0 01-1.038.016 2.737 2.737 0 01-1.061-.458l.88-1.072c.428.23.828.291 1.198.187.365-.098.69-.32.974-.666.153-.187.27-.4.351-.637.081-.237.103-.494.065-.772a2.382 2.382 0 00-.343-.865c-.191-.299-.48-.607-.865-.923l-.17-.14c-.408-.335-.785-.568-1.132-.701a2.52 2.52 0 00-.955-.172 1.642 1.642 0 00-.746.199 1.966 1.966 0 00-.542.452c-.335.408-.5.8-.494 1.174.007.385.156.735.447 1.05l-.879 1.072c-.323-.323-.554-.655-.692-.995a2.387 2.387 0 01-.18-1.03c.02-.335.109-.675.268-1.019.154-.338.364-.669.629-.992zm.257 11.208l-1.123.774-4.61-2.367.57 5.15-1.087.75-4.368-6.341 1.087-.75 3.058 4.44-.478-4.28.725-.5 3.829 1.97-3.058-4.438 1.087-.749 4.368 6.341zm-16.974.547a4.088 4.088 0 011.346-.195c.45.011.875.116 1.275.312.403.203.77.51 1.1.921.331.418.604.963.816 1.634l.066.21c.204.643.286 1.22.248 1.733a3.268 3.268 0 01-.376 1.365 2.921 2.921 0 01-.867.978 4.09 4.09 0 01-1.214.614 4.085 4.085 0 01-1.345.195 2.922 2.922 0 01-1.273-.302c-.4-.196-.764-.496-1.092-.9-.325-.397-.59-.917-.793-1.56l-.067-.21c-.212-.672-.302-1.273-.27-1.806.033-.526.156-.988.368-1.386a3.05 3.05 0 01.865-.989 4.087 4.087 0 011.213-.614zm.352 1.111a2.257 2.257 0 00-.713.376 1.764 1.764 0 00-.51.646c-.123.27-.187.59-.193.96-.013.374.057.801.21 1.284l.066.21c.146.461.328.83.547 1.107.213.287.445.498.696.634.253.143.516.221.79.235a2.289 2.289 0 001.52-.48c.216-.17.387-.385.511-.647.127-.256.196-.562.206-.919.012-.35-.055-.756-.2-1.217l-.067-.21c-.152-.482-.338-.874-.556-1.174a2.398 2.398 0 00-.71-.675 1.763 1.763 0 00-.789-.235 2.286 2.286 0 00-.809.105zm-8.808 7.391l2.583-.1.044 1.143-6.485.25-.044-1.143 2.583-.1-.253-6.55 1.319-.051.253 6.55zm-9.525.931l-2.738-.61c-1.009-.224-1.705-.608-2.087-1.151-.384-.537-.495-1.17-.332-1.9.162-.73.532-1.26 1.108-1.59.576-.323 1.368-.372 2.377-.147l1.45.323.607-2.728 1.288.287-1.673 7.516zm-1.813-4.257a4.14 4.14 0 00-.865-.114 1.594 1.594 0 00-.6.114.904.904 0 00-.378.333 1.771 1.771 0 00-.213.55c-.048.215-.06.407-.038.578.022.17.09.324.201.461.112.138.277.257.495.358.217.109.493.2.83.275l1.341.299.57-2.556-1.343-.298zm-9.15 1.271l-1.165-.62 2.636-4.952-5.976 3.173-1.127-.6 3.62-6.796 1.165.62L30.46 87.8l5.977-3.173 1.126.6-3.62 6.796zm-11.09-8.434l1.88 1.774-.785.832-4.72-4.454.785-.832 1.88 1.774 4.5-4.768.96.906-4.5 4.768zm-7.221-5.966l-2.759-4.372.968-.61 2.054 3.255 1.712-1.08-1.879-2.977.968-.61 1.879 2.977 1.897-1.198-2.055-3.256.968-.61 2.76 4.372-6.513 4.11zm-7.52-15.737l-.202-1.304 3.13-.487-.574-3.695-3.13.486-.203-1.305 7.61-1.18.202 1.303-3.348.52.574 3.696 3.348-.52.202 1.305-7.609 1.18zm5.167-15.97l-.36 3.104 1.652.845-.152 1.31-7.313-3.783.153-1.311 7.985-2.007-.163 1.398-1.801.444zm-1.446 2.545l.261-2.25-3.276.748 3.015 1.502zm-3.22-10.541l.546-1.202 5.97 2.71 1-2.203-5.97-2.71.546-1.202 5.97 2.71 1-2.203-5.97-2.71.547-1.203 7.01 3.184-3.638 8.013-7.01-3.184zm18.519-14.126a4.54 4.54 0 01-1.103.704 2.73 2.73 0 01-1.006.236 2.108 2.108 0 01-.874-.173 2.548 2.548 0 01-.757-.53l1.015-.845c.12.1.247.177.377.23.136.05.285.068.448.057a1.47 1.47 0 00.521-.148c.19-.092.401-.234.633-.427.236-.197.42-.383.55-.559.132-.186.22-.355.265-.507a.839.839 0 00.017-.443.923.923 0 00-.191-.385c-.23-.276-.533-.377-.91-.302-.37.07-.874.275-1.508.613a7.64 7.64 0 01-1.009.439c-.316.101-.61.15-.88.146a1.877 1.877 0 01-.78-.196 2.452 2.452 0 01-.702-.603 1.936 1.936 0 01-.386-.738 1.965 1.965 0 01-.015-.86 2.63 2.63 0 01.38-.903 4.1 4.1 0 01.832-.908 4.055 4.055 0 011.003-.635c.325-.137.636-.205.932-.204.298-.01.577.045.837.162.265.113.508.278.728.496l-1.015.845a1.06 1.06 0 00-.776-.227c-.292.015-.614.168-.963.459-.406.338-.64.652-.703.943-.057.287-.004.528.16.726.226.27.507.379.846.326.337-.052.78-.225 1.328-.519.404-.213.776-.38 1.115-.5.345-.124.665-.186.962-.185a1.7 1.7 0 01.811.183c.255.122.497.321.727.597.202.243.342.508.42.796.077.288.081.59.01.907a2.713 2.713 0 01-.43.96 4.71 4.71 0 01-.91.972zM29.2 12.54l1.201-.546 1.31 2.885 3.405-1.546-1.31-2.885 1.202-.546 3.184 7.011-1.202.546-1.4-3.085-3.406 1.547 1.4 3.084-1.201.546-3.184-7.01zm15.828 2.7a4.089 4.089 0 01-1.36-.027 3.042 3.042 0 01-1.207-.516c-.364-.266-.675-.63-.934-1.088-.26-.467-.44-1.049-.54-1.745l-.03-.218c-.096-.668-.084-1.252.037-1.75.12-.507.318-.935.594-1.286a2.92 2.92 0 011.015-.823c.4-.206.833-.342 1.297-.409a4.087 4.087 0 011.36.028c.44.077.843.245 1.206.504.363.26.673.615.93 1.067.257.445.433 1.001.53 1.669l.03.218c.1.696.091 1.305-.027 1.826-.118.513-.315.95-.59 1.307-.276.35-.613.629-1.014.835-.4.205-.832.341-1.297.408zm-.165-1.154c.268-.039.523-.123.763-.254s.444-.316.61-.555c.165-.245.28-.55.346-.916.074-.366.074-.8.002-1.3l-.03-.218c-.07-.48-.189-.873-.36-1.182a2.19 2.19 0 00-.583-.739 1.763 1.763 0 00-.74-.36 2.287 2.287 0 00-1.579.227c-.241.13-.444.315-.61.553a2.188 2.188 0 00-.353.873c-.069.344-.07.755 0 1.234l.03.218c.073.5.192.917.358 1.249.166.331.363.592.59.782.226.182.473.302.74.36.268.058.54.067.816.028zm8.111-7.512l1.344.23.478 5.885 2.623-5.355 1.084.186.793 5.938 2.395-5.393 1.258.215-3.304 7.247-1.301-.223-.76-5.933-2.601 5.358-1.301-.222-.709-7.933zm14.91 3.455l2.603 1.313a4.1 4.1 0 011.05.726c.274.27.472.555.592.854.12.298.17.607.15.925a2.45 2.45 0 01-.27.948c-.237.472-.571.817-1.002 1.035-.427.212-.934.264-1.52.157l.332 3.641-1.297-.653-.195-3.4-1.404-.709-1.328 2.633-1.178-.595 3.467-6.875zm.762 4.474c.602.304 1.07.417 1.406.34.34-.075.6-.288.78-.642.177-.354.195-.69.052-1.008-.137-.316-.506-.625-1.109-.929l-1.228-.62-1.129 2.24 1.228.62zm8.992 1.027l3.887 3.41-.755.86-2.894-2.539-1.335 1.522 2.647 2.321-.755.86-2.646-2.32-1.48 1.686 2.895 2.539-.754.86-3.887-3.41 5.077-5.788zm8.036 7.723l2.918 4.267-.945.646-2.172-3.178-1.671 1.142 1.986 2.906-.944.645-1.987-2.905-1.852 1.266 2.173 3.178-.945.646-2.918-4.268 6.357-4.345zm5.828 9.492l.464 1.236-6.138 2.303 1.314 3.502-1.071.401-1.778-4.737 7.21-2.705z" fill="#000"/><circle cx="51.176" cy="51.113" r="31.5" fill="#3852CE"/><path d="M61.676 49.381c1.333.77 1.333 2.694 0 3.464l-15.75 9.094c-1.334.77-3-.193-3-1.733V42.02c0-1.54 1.666-2.502 3-1.732l15.75 9.093z" stroke="#DBFF00" stroke-width="2"/></svg>