<svg width="306" height="190" viewBox="0 0 306 190" fill="none" xmlns="http://www.w3.org/2000/svg"><path d="M94.004 149.798l-6.733 4.082.626-2.49-.265-2.275 2.958-.303 3.414.986zm-12.782.007l-6.107 3.802v-2.21l-.265-2.275 2.958-.304 3.413.987z" fill="#110545"/><path d="M196.059 125.212l2.198 9.417.946-.353.083-.031.087-.016 26.986-4.997c.381-.332.883-.798 1.331-1.271.266-.282.5-.552.676-.789.087-.118.153-.219.2-.301a1.03 1.03 0 00.05-.097l.011-.026-.002-.017c0-.045-.003-.184-.058-.457-.068-.34-.189-.76-.344-1.219a26.48 26.48 0 00-.8-2.045c-2.068-.39-7.201-.96-14.384-.603-3.895.194-7.74.711-10.924 1.314-2.608.494-4.726 1.037-6.056 1.491zm27.653 13.077c-.139-.694-.487-1.436-1.214-2.315-.294-.085-.831-.185-1.651-.276-.988-.109-2.263-.195-3.754-.259-2.978-.129-6.761-.171-10.708-.155-7.436.028-15.409.259-19.6.479l-4.153 15.932 39.011-9.383c.552-.28 1.349-.938 1.929-1.659.224-.919.28-1.662.14-2.364z" fill="#fff" stroke="#110545" stroke-width="2.022"/><path d="M220.84 140.425c.183.204.438.665.425 1.676l-45.459 8.97a7.959 7.959 0 01-1.189-.717c-.618-.452-1.231-1.052-1.55-1.772.097-.054.217-.118.362-.192.53-.269 1.396-.663 2.718-1.147 2.644-.967 7.102-2.289 14.323-3.682 7.216-1.393 14.738-2.233 20.462-2.725 2.861-.246 5.27-.404 6.963-.502.846-.048 1.514-.081 1.969-.102l.52-.023.123-.005.057.019c.067.027.17.084.276.202zm-38.245-2.079l-.101.02-.086.057-1.16.761-.125-.067a12.785 12.785 0 01-.931-.564c-.59-.396-1.185-.878-1.566-1.38.064-.047.136-.1.218-.158a22.55 22.55 0 011.982-1.241c1.856-1.046 4.841-2.483 9.329-4.017 8.952-3.059 22.824-4.674 34.994-4.058l.054.002.046-.007.02-.001a.734.734 0 01.457.15c.199.152.532.571.522 1.737l-43.653 8.766z" fill="#110545" stroke="#110545" stroke-width="1.064"/><g opacity=".5" filter="url(#filter0_f_237_11333)"><path d="M94.12 57.153s.14-3.09 2.135-3.47c1.999-.378 2.636 1.025 2.493 3.494l-.31 62.923s-3.183-2.889-4.652.736l.329-63.683h.004z" fill="#fff"/><path d="M94.65 57.178l-.004.103-.319 61.809a2.54 2.54 0 01.578-.379c.656-.311 1.332-.271 1.9-.115.416.114.796.297 1.106.478l.305-61.9v-.014l.001-.014c.07-1.215-.065-2.035-.36-2.497a.982.982 0 00-.523-.424c-.225-.078-.54-.102-.98-.019l-1.703 2.972zm0 0h0m0 0h0m0 0h0m0 0h0m0 0h0m0 0h0m0 0v-.004l.002-.02a4.448 4.448 0 01.046-.41c.042-.275.115-.64.244-1.01.267-.77.707-1.393 1.412-1.528l-1.703 2.971z" stroke="#110545" stroke-width="1.064"/></g><path d="M160.209 168.595l-.001.001c-1.281 1.43-3.729 2.914-7.246 4.319-3.479 1.389-7.864 2.648-12.87 3.704-10.01 2.111-22.396 3.39-34.765 3.326-12.394-.064-22.298-1.463-28.315-3.608-3.055-1.089-4.864-2.287-5.618-3.383-.348-.505-.447-.952-.394-1.376.057-.449.305-1.026.932-1.726 1.282-1.431 3.731-2.915 7.25-4.32 3.479-1.389 7.864-2.648 12.87-3.704 10.012-2.111 22.398-3.39 34.766-3.326 12.397.064 22.301 1.463 28.316 3.608 3.054 1.089 4.863 2.286 5.616 3.383.347.505.446.951.392 1.375-.057.449-.306 1.027-.933 1.727z" fill="#110545" stroke="#110545" stroke-width="2.58"/><path d="M160.334 168.7l-.002.002c-1.307 1.46-3.785 2.956-7.309 4.363-3.491 1.394-7.885 2.655-12.898 3.712-10.023 2.114-22.421 3.394-34.801 3.33-13.008-.067-23.26-1.604-29.18-3.923.14-.231.32-.475.549-.731 1.309-1.461 3.788-2.956 7.311-4.363 3.492-1.394 7.887-2.655 12.9-3.712 10.023-2.114 22.421-3.394 34.801-3.33 13.008.067 23.26 1.608 29.177 3.924a4.86 4.86 0 01-.548.728z" fill="#fff" stroke="#110545" stroke-width="2.243"/><path d="M123.034 60.901c-7.832 3.932-10.382 15.077-5.394 25.011 4.987 9.935 15.449 14.546 23.281 10.614 7.831-3.932 10.381-15.077 5.394-25.011-4.988-9.934-15.45-14.546-23.281-10.614zm56.773 23.275c-3.4 1.76-5.489 5.388-6.053 9.931-.564 4.54.409 9.938 3.081 15.101 2.673 5.164 6.518 9.075 10.55 11.236 4.035 2.163 8.204 2.552 11.604.793 3.4-1.76 5.49-5.389 6.054-9.932.564-4.54-.409-9.938-3.082-15.101-2.672-5.164-6.518-9.075-10.55-11.236-4.034-2.163-8.204-2.552-11.604-.792z" fill="#fff" stroke="#110545" stroke-width="1.044"/><path opacity=".5" d="M95.285 75.928l-.053.254-2.635 1.105a5.572 5.572 0 01-.124-.724c-.086-.79-.061-1.948.393-3.408a8.704 8.704 0 01.858-.46 7.216 7.216 0 011.845-.592c.107.754.046 1.702-.068 2.553-.067.502-.15.95-.216 1.272zm-2.532 1.848h0z" fill="#fff" stroke="#110545" stroke-width="1.064"/><g opacity=".5" filter="url(#filter1_f_237_11333)"><path d="M194.797 150.065s-.963 5.106-4.18 4.543l-83.829-25.178s-5.039-1.448-5.266-7.789c-.227-6.34 3.664-7.873 6.89-6.174 3.226 1.699 83.968 32.394 83.968 32.394s2.785.913 2.417 2.204z" fill="url(#paint0_linear_237_11333)"/><path d="M194.285 149.919l-.006.024-.005.023h0v.002l-.002.008-.007.037-.02.088-.014.06c-.03.13-.078.317-.145.541a8.869 8.869 0 01-.642 1.596c-.613 1.15-1.475 1.991-2.706 1.791l-83.797-25.168h0l-.005-.001v-.001h0-.001l-.005-.001-.033-.011a5.99 5.99 0 01-.665-.279 7.33 7.33 0 01-1.637-1.111c-1.191-1.068-2.434-2.883-2.541-5.895-.11-3.074.781-4.83 1.928-5.65 1.143-.817 2.698-.815 4.182-.034.436.229 2.087.908 4.585 1.903a1340.1 1340.1 0 009.951 3.9 7065.24 7065.24 0 0028.715 11.057 18675.272 18675.272 0 0037.3 14.238l2.568.977.676.257.173.066.044.016.011.005.003.001.19-.497-.189.497.011.004.012.004h0l.004.002.02.006.079.028a6.602 6.602 0 011.136.533c.302.181.552.376.703.569.144.184.159.31.129.415z" stroke="#110545" stroke-width="1.064"/></g><path d="M110.176 77.096s0 0 0 0l.496-.032-.496.032zm-.861 2.644c.317-.756.636-1.4.907-1.86.039.305.095.692.174 1.147a31.723 31.723 0 001.216 4.727c1.282 3.756 3.668 8.433 8.087 12.033 8.621 7.022 18.282 8.111 23.996 3.616a.919.919 0 01.106.046c-.064.091-.214.256-.548.492-.882.622-2.764 1.774-5.021 2.738-2.266.968-4.851 1.72-7.156 1.6-4.813-.25-10.778-1.18-15.703-5.734-4.99-4.616-6.966-8.991-7.442-12.437v-.001c-.112-.8.008-1.867.281-3.022a21.947 21.947 0 011.103-3.345zm64.524 31.824l.456-.275c5.77 9.59 12.556 12.859 17.823 13.276 3.761.297 5.633-.604 6.396-1.143l-24.675-11.858zm0 0c-2.943-4.89-3.811-9.583-3.941-13.055a24.335 24.335 0 01.189-4.17 17.182 17.182 0 01.266-1.477 2.48 2.48 0 01.02-.084l.006-.023.001-.004-.085.032a3.888 3.888 0 00-.719.395c-1.081.734-2.332 2.175-2.578 4.084-.522 4.063.57 10.423 4.491 16.56 3.941 6.167 9.64 11.127 15.025 12.6 2.679.734 5.376.608 7.537.18a15.941 15.941 0 002.74-.79c.742-.295 1.212-.57 1.398-.738l.001-.001c.34-.305.432-.699.419-1.076a5.854 5.854 0 01-.899.457c-1.138.468-2.931.855-5.634.641-5.467-.432-12.394-3.822-18.237-13.531zm-3.45-18.816s0 0 0 0l.506.136-.506-.136zm28.718 30.886c.083.518.063 1.275-.562 1.835l.562-1.835z" fill="#9371CA" stroke="#110545" stroke-width="1.064"/><path d="M104.13 91.846h0l-.001.002v.01a10.682 10.682 0 00-.003.993c.029.645.12 1.552.373 2.591.504 2.079 1.644 4.672 4.193 6.774l-4.562-10.37zm0 0h0m0 0h0m0 0h0l.002-.029m-.002.029l.002-.029m0 0l-.001-.029m.001.03l-.001-.03m0 0a1.613 1.613 0 01.116-.644c.018.05.036.11.054.181h0l.001.002c.367 1.426 1.263 3.071 2.266 4.612 1.009 1.551 2.156 3.04 3.065 4.162v.001c1.598 1.971 3.827 3.49 5.863 4.563 2.035 1.073 3.925 1.724 4.885 1.936l.055.012h.057c.089 0 .158.015.211.035m-16.573-14.86l16.573 14.86m0 0c-2.281-.018-7.247-.505-12.012-4.432l12.012 4.432zm.194.215v0zm.156-.139h0z" fill="url(#paint1_linear_237_11333)" stroke="#110545" stroke-width="1.064"/><path d="M117.22 86.37c5.241 9.899 16.125 14.633 24.388 10.26h.001c8.263-4.378 10.462-16.036 5.216-25.935-5.245-9.898-16.124-14.638-24.388-10.26-8.259 4.373-10.463 16.036-5.217 25.935zm0 0l.47-.25m-.47.25l.47-.25m0 0c-5.158-9.734-2.918-21.025 4.996-25.215 7.918-4.194 18.511.304 23.669 10.039 5.159 9.735 2.923 21.02-4.995 25.216-7.918 4.19-18.516-.304-23.67-10.04zm3.79-27.49h0c8.803-4.668 20.765.288 26.64 11.379 5.875 11.09 3.254 23.764-5.55 28.436-8.804 4.658-20.77-.295-26.64-11.384h0c-5.88-11.09-3.254-23.769 5.55-28.432z" fill="url(#paint2_linear_237_11333)" stroke="#110545" stroke-width="1.064"/><path d="M197.678 119.242h-.001c-3.244 1.717-7.149 1.319-10.794-.599-3.648-1.92-7.092-5.384-9.496-9.922-2.405-4.539-3.338-9.334-2.876-13.43.461-4.094 2.327-7.548 5.573-9.265l17.594 33.216zm0 0c3.244-1.72 5.108-5.174 5.569-9.268.461-4.097-.472-8.891-2.877-13.427m-2.692 22.695l2.692-22.695m0 0c-2.402-4.538-5.844-8.002-9.492-9.922m9.492 9.922l-9.492-9.922m0 0c-3.645-1.918-7.549-2.316-10.794-.6l10.794.6zm-17.746 7.499c.514-4.561 2.565-8.215 5.945-10.006h0c3.377-1.79 7.55-1.432 11.612.706 4.058 2.136 7.951 6.03 10.684 11.189 2.733 5.159 3.766 10.566 3.252 15.125-.513 4.562-2.563 8.216-5.94 10.008-3.38 1.789-7.554 1.433-11.616-.705-4.059-2.136-7.952-6.029-10.685-11.19-2.733-5.162-3.766-10.57-3.252-15.127z" fill="url(#paint3_linear_237_11333)" stroke="#110545" stroke-width="1.064"/><path opacity=".5" d="M140.739 78.74h0c2.163 3.208 2.664 5.345 2.8 6.782.032.338.043.633.053.878l.001.03c.01.26.018.44.041.583a.51.51 0 00.07.22c.015.02.051.06.17.107l-3.135-8.6zm0 0c-1.568-2.326-4.612-4.47-7.353-6.295m7.353 6.294l-7.353-6.294m0 0l-1.09-.722m1.09.722l-1.09-.722m0 0a82.487 82.487 0 01-2.688-1.82m2.688 1.82l-2.688-1.82m0 0c-1.091-.786-1.832-1.43-2.142-1.936l2.142 1.935zm-2.142-1.936c-.526-.858-.498-1.409-.379-1.742.111-.31.337-.53.53-.669 5.507-.704 11.725 2.78 15.094 9.139 2.179 4.114 2.684 8.553 1.77 12.301-.087.197-.179.306-.255.354-.047.03-.137.072-.352-.01l-16.408-19.373zm67.331 35.913h0c-1.316-2.058-3.866-3.951-6.149-5.555l-.909-.635a68.514 68.514 0 01-2.237-1.598c-.908-.69-1.515-1.248-1.765-1.68-.431-.742-.404-1.214-.309-1.494.086-.249.254-.428.402-.546 4.518-.594 9.655 2.426 12.451 7.995 1.807 3.607 2.224 7.501 1.466 10.79-.07.167-.14.246-.183.275a.08.08 0 01-.044.016.35.35 0 01-.151-.035c-.084-.034-.1-.06-.104-.064a.448.448 0 01-.049-.172c-.019-.124-.025-.28-.034-.509l-.001-.028c-.008-.215-.017-.475-.043-.773-.114-1.271-.533-3.158-2.341-5.987z" fill="#fff" stroke="#110545" stroke-width="1.064"/><path d="M167.8 91.056l.001-.002.001-.002.031-.046.123-.18a25.165 25.165 0 012.166-2.683c.701-.752 1.509-1.514 2.367-2.124a9.6 9.6 0 01.603-.398c-.713.97-1.506 2.34-1.964 4.055a4.678 4.678 0 00-.448.106c-.552.159-1.37.482-2.504 1.14a5.658 5.658 0 01-.426.228l.025-.047a.694.694 0 01.025-.047zm-.2.507s0 0 0 0c0 .001 0 .002 0 0z" fill="url(#paint4_linear_237_11333)" stroke="#110545" stroke-width="1.064"/><path d="M109.006 73.684a10.34 10.34 0 00-1.901 1.286c.022-.164.049-.343.083-.537.216-1.225.702-3.057 1.788-5.437 1.051-2.298 2.708-4.39 4.068-5.752-.226.357-.463.76-.701 1.206-1.097 2.053-2.225 5.037-2.422 8.834-.227.08-.539.206-.915.4z" fill="url(#paint5_linear_237_11333)" stroke="#110545" stroke-width="1.064"/><path d="M144.297 73.255c-6.209-9.445-17.428-13.438-25.094-8.391-.442.29-.857.6-1.248.928a12.536 12.536 0 013.791-3.959c6.995-4.604 17.59-1.157 23.646 8.093 4.054 6.195 4.91 13.266 2.911 18.62.518-4.873-.77-10.389-4.006-15.29zm55.758 29.171c-1.746-4.758-4.742-8.89-8.19-11.715-3.438-2.818-7.385-4.378-11.018-3.86a9.318 9.318 0 00-1.079.218c1-.745 2.18-1.238 3.524-1.434 3.242-.463 6.901.908 10.207 3.61 3.298 2.695 6.186 6.671 7.873 11.29 2.219 6.084 1.745 11.583-.606 14.883 1.215-3.549 1.066-8.172-.711-12.992z" fill="#110545" stroke="#110545" stroke-width="1.044"/><path d="M161.355 129.291c-5.022 2.781-13.743.559-20.966-5.341m-22.331-82.941c8.75-1.991 16.032 1.689 20.629 4.953m52.646 27.281c7.738.988 12.582 6.167 15.36 10.205" stroke="#110545" stroke-width="2.66" stroke-linecap="round"/><path d="M90.744 50.844l.014-.013.014-.014c.21-.204.426-.42.65-.645.852-.854 1.814-1.82 2.968-2.655 1.436-1.039 3.065-1.794 4.936-1.785 3.378.015 5.685.735 6.982 1.304l86.355 40.805a9.097 9.097 0 015.21 8.246l-.128 55.209c-.052 1.426-.347 3.847-1.209 6.051-.873 2.233-2.235 4.026-4.294 4.595-1.635.452-4.266.673-7.276.759-2.983.085-6.239.036-9.077-.017a9.366 9.366 0 01-7.235-3.62l-3.044-3.944c-.511-.662-1.124-1.327-1.898-1.843-2.709-1.806-6.943-3.339-13.824-5.021-6.905-1.688-16.591-3.551-30.288-5.966a11.165 11.165 0 00-4.071.038l-28.534 5.591a9.091 9.091 0 01-3.44.011l-10.06-1.903c-.806-.216-1.528-.841-2.145-2.082-.63-1.268-1.091-3.069-1.392-5.388-.602-4.63-.532-11.019-.175-18.597v-.051l-.167-45.923A9.097 9.097 0 0172.62 67.2l18.125-16.355z" fill="#fff" stroke="#110545" stroke-width="2.022"/><path d="M69.617 72.652a6.065 6.065 0 011.992-4.444L88.58 52.825c2.605-2.362 6.775-.502 6.758 3.014l-.344 72.665a4.044 4.044 0 01-2.564 3.744l-15.024 5.905c-3.999 1.571-8.319-1.399-8.283-5.695l.493-59.806z" fill="#fff" stroke="#110545" stroke-width="2.022"/><path d="M56.09 128.918L.667 144.843l56.202-32.067s-7.487 10.247-.78 16.142zm15.016 12.722l-39.66.311 34.657-7.738s-1.241 4.718 5.003 7.427z" fill="#110545"/><path d="M96.918 56.968c.01-6.654 6.926-11.047 12.952-8.227l83.073 38.87a9.099 9.099 0 015.242 8.292l-.296 51.483c-.034 5.967-5.707 10.286-11.468 8.73l-82.873-22.375a9.096 9.096 0 01-6.726-8.795l.096-67.978z" stroke="#110545" stroke-width="2.022"/><path d="M75.865 138.809c2.523-.357 16.806-5.504 18.3-7.202 1.826-2.073 2.421-13.199 2.982-19.76.984 11.366-1.024 17.557 4.341 20.239 1.924.962 26.917 8.467 32.046 9.608 5.13 1.142 55.589 15.286 59.307 15.278 2.975-.007 4.597-2.957 5.036-4.432.022.51-.11 2.056-.811 4.163-.702 2.106-2.058 3.556-2.648 4.018-.276-.407-1.131-1.363-2.342-1.939-1.514-.719-47.171-14.256-53.781-15.074-6.61-.819-36.684-8.952-56.3-5.328-4.365.806-6.374 2.749-10.643 4.37l-1.451-1.8c-.293-1.178-.504-3.296.992-2.347 1.87 1.186 2.45.562 4.972.206z" fill="#110545"/><path d="M158.492 128.611c-5.023 2.781-13.743.56-20.967-5.34" stroke="#110545" stroke-width="2.66" stroke-linecap="round"/><path d="M72.698 146.162l9.19-4.831s21.988-4.554 51.593 2.912c29.605 7.469 53.246 14.894 53.246 14.894s6.802 1.143 5.389 3.721l-25.013 3.291s1.977-4.072-2.253-8.746c-4.23-4.675-12.238-8.145-34.025-10.292-21.787-2.151-38.88.374-45.316 1.93l-12.811-2.879z" fill="#110545"/><path d="M124.336 54.632c2.316-1.376 4.339-3.142 8.608-2.92 4.269.223 39.483 17.135 42.702 20.709 2.298 2.551 2.788 5.814 3.269 7.917" stroke="#110545" stroke-width="2.022" stroke-linecap="round"/><path d="M158.175 163.974c-2.381-.687-6.001-1.546-10.984-2.245-9.208-1.296-29.439-2.656-55.255 3.048l-5.95-.342c1.399-.385 3.259-.861 5.538-1.366 5.529-1.226 13.522-2.625 23.364-3.311 9.839-.686 19.66-.369 27.758.587 4.049.478 7.66 1.116 10.622 1.865 2.482.628 4.48 1.327 5.896 2.061a56.858 56.858 0 00-.989-.297z" fill="#110545" stroke="#110545" stroke-width="1.122"/><path d="M96.291 66.831c.013-1.808.14-4.775.522-9.31.535-6.345 1.3-7.64 2.77-8.815a6.91 6.91 0 011.066-.703l.996 1.075c1.173 3.118 3.493 9.555 3.384 10.364-.108.808-2.251 21.694-2.527 24.49-3.143.775-8.173 2.385-8.88 2.488-4.226.613-2.872-15.864-4.042-16.617-.696-1.492-1.31-13.974-1.228-14.716.129-1.185 2.567-2.978 3.2-3.098.634-.12 3.048-.451 3.324.926.29 1.44 1.122 8.825 1.415 13.916z" fill="#fff"/><path d="M94.18 128.227l1.393-44.343c.53-.357.682-.509 1.143-.698.437 16.852-.538 29.455 2.543 42.912l.563-3.821 2.289-34.984-3.297-7.87-5.96.01-4.73 47.796 6.056.998z" fill="#fff"/><path d="M93.408 126.376c.442-2.565 1.02-8.741 1.255-11.509l.493-1.167c.411 3.231 1.23 9.784 1.214 10.145-.018.451.003 4.874-.292 5.438-.237.45-1.571 2.584-2.209 3.595l-8.465 1.58c3.744-1.398 5.021-2.005 6.336-3.054.797-.636 1.115-1.821 1.668-5.028zm.24-74.259c1.774.406 2.357 9.751 2.727 14.466 1.098-6.835 3.307-19.3 13.045-17.59-4.75-2.685-9.776-3.216-12.496-2.272-2.72.944-7.482 5.026-8.638 7.614 2.358-1.618 3.052-2.747 5.362-2.218z" fill="#110545"/><path d="M85.938 55.53l.427 7.727m-5.951-3.047l.623 11.27m-5.939-6.617l.427 7.728m22.717-3.751c1.742-.064 3.291-.074 5.087.253 1.677.306 3.598.912 6.092 2.08l-2.416 10.907-.229-.09c-1.756-.696-4.659-1.846-8.359-1.353-2.83.376-5.282 1.876-7.503 3.234l-.062.038C84.162 88 74.917 95.136 69.174 99.932l.078-8.72c2.265-2.057 4.604-4.364 6.957-6.685l.346-.341c2.561-2.526 5.138-5.057 7.68-7.321 2.544-2.266 5.03-4.245 7.407-5.674 2.383-1.434 4.595-2.278 6.6-2.352z" stroke="#110545" stroke-width="1.516" stroke-linecap="round"/><path d="M69.066 93.672s10.35-10.644 19.842-18.028c0 0 6.883-6.624 14.511-3.99l-.813 5.655s-5.33-1.691-13.333 3.879c0 0 .499-5.1-6 .826-6.505 5.926-11.062 10.252-14.211 13.452l.009-1.794h-.005zm23.66 4.478l-3.016-3.945c-1.465 8.633-1.824 13.048-2.089 20.581h3.833l1.272-16.636z" fill="#110545"/><path d="M88.486 96.082c-.167 1.465-.337 2.86-.504 4.226-1.111 9.107-2.06 16.872-.697 35.168-.374-.003-.712-.008-1.038-.012-.925-.011-1.75-.022-3.01-.001-2.546-15.184-1.29-27.774 1.257-36.92l3.992-2.461zm59.243-2.072l3.418-8.084c6.294 1.486 11.859 3.228 17.179 6.48l-1.27 6.749c-4.605-2.439-11.595-4.553-19.327-5.146zm-12.78 7.721l-.036.013-.035.016c-9.238 4.094-21.024-1.538-26.15-13.104-5.125-11.566-1.381-24.08 7.857-28.175 3.387-1.5 6.734-2.696 10.696-3.536 3.012.773 6.002 2.964 8.692 5.975 2.74 3.066 5.092 6.896 6.762 10.665 1.667 3.761 2.163 8.797 1.768 13.694-.382 4.739-1.586 9.191-3.221 12.075-2.569 1.039-3.488 1.365-5.886 2.218l-.447.159z" fill="#fff" stroke="#110545" stroke-width="2.022"/><path d="M131.201 100.883l-3.614 2.498m5.831-2l-2.554 1.787m-2.241-2.711l-3.887 2.494m1.302-3.588l-4.188 2.688m1.529-4.223l-4.497 2.913m1.567-5.114l-4.443 2.995m1.766-5.43l-4.507 2.898m2.098-6.243l-4.571 2.795m2.738-6.498l-4.838 2.57m3.89-6.414l-5.408 2.753m4.638-6.63l-5.452 2.672m3.784-6.105l-3.96 2.077m2.967-5.294l-2.196 1.152" stroke="#110545" stroke-width="1.516" stroke-linecap="round"/><path d="M148.69 71.408c5.126 11.566 1.382 24.08-7.857 28.175-9.238 4.094-21.024-1.538-26.15-13.104-5.125-11.566-1.381-24.08 7.857-28.175 9.239-4.094 21.025 1.538 26.15 13.104z" fill="#fff" stroke="#110545" stroke-width="2.022"/><path d="M146.008 72.597c4.31 9.724 1.303 20.182-6.291 23.548-7.595 3.365-17.362-1.432-21.672-11.156-4.309-9.724-1.303-20.183 6.292-23.548 7.595-3.366 17.362 1.432 21.671 11.156z" fill="#fff" stroke="#110545" stroke-width="1.516"/><path d="M175.563 86.523l.022-.01.021-.01c.601-.303 1.116-.565 1.588-.804 1.286-.653 2.25-1.143 3.749-1.849 3.146.327 6.669 2.083 9.901 4.816 3.308 2.797 6.219 6.542 8.018 10.583 1.646 3.7 2.403 8.15 2.325 12.365-.076 4.112-.943 7.889-2.444 10.477-1.97 1.126-3.474 1.851-6.023 2.985-7.924 3.527-18.457-1.846-23.299-12.725-4.842-10.88-1.782-22.301 6.142-25.828z" fill="#fff" stroke="#110545" stroke-width="2.022"/><path d="M192.308 123.519l-3.922 2.711" stroke="#110545" stroke-width="1.516" stroke-linecap="round"/><path d="M194.442 124.231a.505.505 0 10-.579-.828l.579.828zm-.579-.828l-3.204 2.241.58.828 3.203-2.241-.579-.828z" fill="#110545"/><path d="M189.357 123.418l-3.639 2.334m.904-3.08l-3.803 2.44m1.144-3.974l-3.929 2.545m.997-4.747l-4.443 2.994m1.768-5.429l-4.507 2.898m2.096-6.244l-4.571 2.795m2.742-6.495l-4.838 2.57m3.254-6.095l-4.468 2.274m2.76-5.705l-3.811 1.868m2.601-5.487l-2.728 1.431" stroke="#110545" stroke-width="1.516" stroke-linecap="round"/><path d="M204.067 96.64c4.841 10.88 1.782 22.302-6.142 25.828-7.925 3.526-18.458-1.846-23.299-12.726-4.842-10.88-1.782-22.3 6.142-25.827 7.924-3.527 18.457 1.846 23.299 12.725z" fill="#fff" stroke="#110545" stroke-width="2.022"/><path d="M201.682 97.701c2.007 4.51 2.43 9.18 1.525 13.073-.905 3.893-3.12 6.963-6.365 8.407-3.246 1.444-7.009 1.035-10.507-.898-3.497-1.934-6.684-5.375-8.691-9.884-2.006-4.509-2.43-9.18-1.525-13.073.905-3.892 3.12-6.962 6.366-8.406 3.245-1.445 7.008-1.036 10.506.898 3.498 1.933 6.684 5.374 8.691 9.883z" fill="#fff" stroke="#110545" stroke-width="1.516"/><path fill-rule="evenodd" clip-rule="evenodd" d="M194.267 106.359c-1.174-2.642-4.796-6.191-10.699-5.787l-.012 2.464c5.23-.861 8.215 2.268 9.843 4.162l.868-.839zm-56.923-23.526c-1.323-2.978-5.794-7-12.069-5.967l-.005 2.22c5.896-.97 9.261 2.557 11.095 4.692l.979-.945z" fill="#110545"/><path d="M240.091 108.849l27.148-1.643-33.408 15.178 6.26-13.535z" fill="#110545" stroke="#110545" stroke-width="2.022"/><path fill-rule="evenodd" clip-rule="evenodd" d="M297.423 81.078l2.573-7.315a.222.222 0 00-.209-.295h-4.992a.223.223 0 00-.213.159l-2.167 7.315a.222.222 0 00.213.284h4.585a.223.223 0 00.21-.148zm4.48-6.644l-2.573 7.315a2.244 2.244 0 01-2.117 1.499h-4.585a2.243 2.243 0 01-2.151-2.88l2.167-7.316a2.244 2.244 0 012.151-1.606h4.992a2.243 2.243 0 012.116 2.988z" fill="#110545"/><path d="M222.079 26.962h8.219c.9 0 1.615.757 1.563 1.656l-.972 16.68c-.047.8-.69 1.435-1.49 1.472l-7.247.338a1.565 1.565 0 01-1.638-1.564V28.527c0-.864.7-1.565 1.565-1.565z" fill="#fff" stroke="#110545"/><path d="M237.825 61.612c3.442-20.882 5.901-36.498 7.649-48.956 17.588 0 35.408.437 54.203 4.152-6.265 28.776-18.577 78.897-21.855 89.388-8.305 1.748-31.471 3.278-45.461 3.278.656-8.305 2.841-31.952 5.464-47.862z" fill="#110545"/><path d="M249.627 19.432l44.366 2.84-18.577 78.242-38.246 1.53 12.457-82.612z" fill="#fff"/><path fill-rule="evenodd" clip-rule="evenodd" d="M268.723 36.657c.022-.557.413-1.676.971-1.655l16.263 1.313a1.011 1.011 0 11-.079 2.02l-16.184-.628a1.011 1.011 0 01-.971-1.05zm-17.702 9.395c.023-.557.41-1.778.968-1.755l31.555 2.099a1.011 1.011 0 01-.084 2.02l-31.471-1.312a1.01 1.01 0 01-.968-1.052zm-1.924 10.439c.017-.558.422-1.607.98-1.59l31.395 1.557a1.01 1.01 0 11-.061 2.02l-31.334-.947a1.01 1.01 0 01-.98-1.04zm-1.636 9.643c.016-.558 1.078-1.695 1.636-1.679l30.221 1.558a1.011 1.011 0 01-.057 2.02l-30.818-.86a1.011 1.011 0 01-.982-1.039zm-4.09 26.73c0-.558.453-1.427 1.011-1.427l17.265.416a1.011 1.011 0 010 2.022h-17.265a1.011 1.011 0 01-1.011-1.01z" fill="#110545"/><path d="M289.824 94.553l13.857-.31a2.243 2.243 0 012.218 2.82l-5.831 21.867a2.245 2.245 0 01-1.905 1.65l-13.836 1.628a2.244 2.244 0 01-2.438-2.774l5.809-23.183a2.244 2.244 0 012.126-1.698z" fill="#fff"/><path fill-rule="evenodd" clip-rule="evenodd" d="M303.727 96.264l-13.692.482a.223.223 0 00-.211.168l-5.16 22.307a.222.222 0 00.241.274l13.022-.923a.22.22 0 00.188-.163l5.831-21.866a.222.222 0 00-.219-.28zm-.046-2.021l-13.857.31a2.244 2.244 0 00-2.126 1.698l-5.809 23.183a2.244 2.244 0 002.438 2.774l13.836-1.628a2.245 2.245 0 001.905-1.65l5.831-21.866a2.243 2.243 0 00-2.218-2.821z" fill="#110545"/><path d="M274.388 120.883l-1.197 7.683a1.233 1.233 0 01-1.138 1.04l-4.823.313a1.232 1.232 0 01-1.297-1.425l1.236-7.693a1.232 1.232 0 011.139-1.034l4.784-.304a1.232 1.232 0 011.296 1.42z" fill="#E4EDF1" stroke="#110545" stroke-width="2.022"/><path d="M113.263 106.323l-2.059 44.258-46.166-3.756-7.347-49.92h13.377l3.202 8.288 38.993 1.13z" fill="#110545"/><path d="M104.268 119.581l-37.25-1.611-2.645-14.552 38.901 1.249.994 14.914z" fill="#fff" stroke="#110545" stroke-width="2.022"/><path d="M102.703 104.96l-2.93 4.136-2.93 4.136m.002-9.265l-6.189 9.109m.058-8.953l-6.189 9.109m-.553-9.109l-6.189 9.109m-.001-9.523l-6.188 9.109" stroke="#110545" stroke-width="2.022"/><path d="M72.54 111.676l.196.716.742.028 34.683 1.284 1.962 36.033-59.788-1.823-4.166-49.999h22.619l3.753 13.761z" fill="#fff" stroke="#110545" stroke-width="2.022"/><path d="M111.192 150.781l-2.072-38.053-35.604-1.318-3.956-14.506H45.07l4.333 51.993 61.789 1.884z" fill="#DBFF00"/><path d="M75.316 137.538c.036-1.686 1.351-2.886 3.103-2.849.883.019 1.648.341 2.154.938l-.543.504c-.44-.469-.968-.689-1.598-.703-1.29-.027-2.277.887-2.303 2.141-.027 1.269.907 2.209 2.21 2.236a2.134 2.134 0 001.627-.649l.522.527c-.531.575-1.308.865-2.206.846-1.737-.05-3.001-1.304-2.966-2.991zM64.8 135.17l1.963.041-.105 4.991.813.017.105-4.991 1.962.042.015-.711-4.738-.1-.015.711zm9.822 5.199l.015-.697-3.336-.07.039-1.84 2.873.06.015-.697-2.874-.06.037-1.756 3.224.067.015-.711-4.05-.085-.12 5.701 4.162.088zm12.219-3.899l-.073 4.154.785.017.106-5.702-.673-.014-2.44 3.951-2.312-4.051-.673-.014-.12 5.701.785.017.087-4.126 2.002 3.486.379.008 2.147-3.427z" fill="#110545"/><path fill-rule="evenodd" clip-rule="evenodd" d="M92.912 139.331l-3.042-.064-.66 1.408-.841-.017 2.713-5.647.813.017 2.487 5.756-.855-.018-.615-1.435zm-.267-.661l-1.174-2.814-1.293 2.762 2.468.052z" fill="#110545"/><path d="M100.119 140.904l.119-5.701-.813-.017-.089 4.252-3.345-4.324-.672-.014-.12 5.701.813.017.089-4.251 3.345 4.323.673.014z" fill="#110545"/><path d="M75.316 137.538c.036-1.686 1.351-2.886 3.103-2.849.883.019 1.648.341 2.154.938l-.543.504c-.44-.469-.968-.689-1.598-.703-1.29-.027-2.277.887-2.303 2.141-.027 1.269.907 2.209 2.21 2.236a2.134 2.134 0 001.627-.649l.522.527c-.531.575-1.308.865-2.206.846-1.737-.05-3.001-1.304-2.966-2.991zM64.8 135.17l1.963.041-.105 4.991.813.017.105-4.991 1.962.042.015-.711-4.738-.1-.015.711zm9.822 5.199l.015-.697-3.336-.07.039-1.84 2.873.06.015-.697-2.874-.06.037-1.756 3.224.067.015-.711-4.05-.085-.12 5.701 4.162.088zm12.219-3.899l-.073 4.154.785.017.106-5.702-.673-.014-2.44 3.951-2.312-4.051-.673-.014-.12 5.701.785.017.087-4.126 2.002 3.486.379.008 2.147-3.427z" stroke="#110545" stroke-width=".337"/><path clip-rule="evenodd" d="M92.912 139.331l-3.042-.064-.66 1.408-.841-.017 2.713-5.647.813.017 2.487 5.756-.855-.018-.615-1.435zm-.267-.661l-1.174-2.814-1.293 2.762 2.468.052z" stroke="#110545" stroke-width=".337"/><path d="M100.119 140.904l.119-5.701-.813-.017-.089 4.252-3.345-4.324-.672-.014-.12 5.701.813.017.089-4.251 3.345 4.323.673.014z" stroke="#110545" stroke-width=".337"/><path fill-rule="evenodd" clip-rule="evenodd" d="M74.177 111.442l34.943 1.286 2.072 38.053-61.789-1.884-4.333-51.993h24.49l4.617 14.538zm-6.161-12.516l3.906 15.298 35.027.977 1.052 32.922-55.546-1.353-5.188-47.844h20.749z" fill="#110545"/><path d="M100.395 7.006l7.945 20.072-10.035-6.272-8.573 4.39L78.232.524l14.845 13.173 7.318-6.69zM89.046 146.967l-3.224-.409 1.345 1.728.932 2.097 1.77-.699-.823-2.717zm-12.136-.231l-3.224-.41 1.345 1.729.931 2.096 1.77-.699-.823-2.716z" fill="#110545"/><path d="M87.856 150.693l-.193-1.255a2.244 2.244 0 00-2.217-1.902h-2.779A2.243 2.243 0 0080.435 150l.114 1.157a2.244 2.244 0 002.156 2.022l2.857.097a2.243 2.243 0 002.294-2.583zm-12.197-.301l-.193-1.254a2.244 2.244 0 00-2.217-1.903H70.47a2.244 2.244 0 00-2.233 2.464l.115 1.157a2.244 2.244 0 002.156 2.022l2.857.098a2.244 2.244 0 002.294-2.584z" fill="#fff" stroke="#110545" stroke-width="2.022"/><defs><linearGradient id="paint0_linear_237_11333" x1="139.512" y1="144.758" x2="146.342" y2="127.976" gradientUnits="userSpaceOnUse"><stop stop-color="#fff"/><stop offset="1" stop-color="#fff" stop-opacity="0"/></linearGradient><linearGradient id="paint1_linear_237_11333" x1="103.549" y1="98.804" x2="121.474" y2="98.896" gradientUnits="userSpaceOnUse"><stop stop-color="#A4EEFB"/><stop offset="1" stop-color="#808FDB"/></linearGradient><linearGradient id="paint2_linear_237_11333" x1="112.229" y1="78.431" x2="151.819" y2="78.635" gradientUnits="userSpaceOnUse"><stop stop-color="#7729F6"/><stop offset="1" stop-color="#9EFFEE"/></linearGradient><linearGradient id="paint3_linear_237_11333" x1="172.44" y1="102.546" x2="205.317" y2="102.716" gradientUnits="userSpaceOnUse"><stop stop-color="#7729F6"/><stop offset="1" stop-color="#9EFFEE"/></linearGradient><linearGradient id="paint4_linear_237_11333" x1="167.083" y1="88.041" x2="174.971" y2="88.082" gradientUnits="userSpaceOnUse"><stop stop-color="#6BD4E6"/><stop offset="1" stop-color="#80C4DB"/></linearGradient><linearGradient id="paint5_linear_237_11333" x1="106.53" y1="68.721" x2="114.986" y2="68.764" gradientUnits="userSpaceOnUse"><stop stop-color="#C0F6FF"/><stop offset="1" stop-color="#8094DB"/></linearGradient><filter id="filter0_f_237_11333" x="88.577" y="48.413" width="15.399" height="77.632" filterUnits="userSpaceOnUse" color-interpolation-filters="sRGB"><feFlood flood-opacity="0" result="BackgroundImageFix"/><feBlend in="SourceGraphic" in2="BackgroundImageFix" result="shape"/><feGaussianBlur stdDeviation="2.604" result="effect1_foregroundBlur_237_11333"/></filter><filter id="filter1_f_237_11333" x="96.304" y="109.614" width="103.735" height="50.246" filterUnits="userSpaceOnUse" color-interpolation-filters="sRGB"><feFlood flood-opacity="0" result="BackgroundImageFix"/><feBlend in="SourceGraphic" in2="BackgroundImageFix" result="shape"/><feGaussianBlur stdDeviation="2.604" result="effect1_foregroundBlur_237_11333"/></filter></defs></svg>