<svg width="922" height="278" viewBox="0 0 922 278" fill="none" xmlns="http://www.w3.org/2000/svg"><path d="M6.3 16.613h25.65c8.76 0 15.21 1.92 19.35 5.76 4.2 3.78 6.3 9.03 6.3 15.75 0 6.72-2.1 12-6.3 15.84-4.14 3.78-10.59 5.67-19.35 5.67H22.5v19.98H6.3v-63zm23.85 29.7c4.14 0 7.05-.69 8.73-2.07 1.68-1.38 2.52-3.42 2.52-6.12s-.84-4.74-2.52-6.12c-1.68-1.38-4.59-2.07-8.73-2.07H22.5v16.38h7.65zm48.175 34.47c-2.58 0-4.89-.39-6.93-1.17-1.98-.78-3.66-1.83-5.04-3.15a14.071 14.071 0 01-3.15-4.77c-.72-1.86-1.08-3.87-1.08-6.03 0-4.74 1.44-8.37 4.32-10.89 2.94-2.52 7.35-3.78 13.23-3.78h13.59v-1.98c0-2.88-.69-4.86-2.07-5.94-1.38-1.14-3.27-1.71-5.67-1.71-2.28 0-3.96.36-5.04 1.08-1.08.72-1.68 1.86-1.8 3.42h-13.86c.12-2.16.66-4.14 1.62-5.94.96-1.86 2.31-3.45 4.05-4.77 1.8-1.38 3.99-2.46 6.57-3.24 2.58-.78 5.55-1.17 8.91-1.17 3.12 0 5.97.36 8.55 1.08 2.64.66 4.89 1.77 6.75 3.33 1.86 1.5 3.3 3.48 4.32 5.94 1.02 2.4 1.53 5.34 1.53 8.82v17.55c0 2.52.06 4.74.18 6.66.12 1.86.3 3.69.54 5.49h-13.14c-.12-1.02-.24-1.92-.36-2.7-.06-.78-.09-1.74-.09-2.88-1.44 1.92-3.45 3.54-6.03 4.86-2.52 1.26-5.82 1.89-9.9 1.89zm4.5-9.72c2.94 0 5.4-.84 7.38-2.52 2.04-1.68 3.06-3.99 3.06-6.93v-1.98h-10.89c-2.04 0-3.57.54-4.59 1.62-.96 1.08-1.44 2.34-1.44 3.78 0 1.74.48 3.18 1.44 4.32 1.02 1.14 2.7 1.71 5.04 1.71zm53.197 9.72c-7.74 0-13.38-1.5-16.92-4.5-3.54-3-5.43-7.29-5.67-12.87h14.22c.12.9.27 1.71.45 2.43.24.72.63 1.35 1.17 1.89.6.54 1.41.96 2.43 1.26 1.02.24 2.4.36 4.14.36 3 0 5.16-.48 6.48-1.44 1.32-1.02 1.98-2.13 1.98-3.33 0-1.56-.6-2.7-1.8-3.42-1.2-.78-3.15-1.17-5.85-1.17h-6.21v-9.18h5.49c4.62 0 6.93-1.47 6.93-4.41 0-1.2-.57-2.22-1.71-3.06-1.14-.84-2.88-1.26-5.22-1.26-2.58 0-4.41.48-5.49 1.44s-1.71 2.34-1.89 4.14h-14.22c.3-5.64 2.28-9.87 5.94-12.69 3.72-2.82 8.94-4.23 15.66-4.23 6.72 0 11.85 1.26 15.39 3.78 3.54 2.46 5.31 5.88 5.31 10.26 0 2.28-.54 4.32-1.62 6.12-1.08 1.8-2.88 3.12-5.4 3.96 3.48.78 5.82 2.1 7.02 3.96 1.26 1.86 1.89 4.05 1.89 6.57 0 2.22-.51 4.29-1.53 6.21-1.02 1.86-2.49 3.48-4.41 4.86-1.92 1.32-4.29 2.37-7.11 3.15-2.76.78-5.91 1.17-9.45 1.17zm29.669-48.87h12.78v6.48c.6-.96 1.35-1.89 2.25-2.79.96-.96 2.07-1.8 3.33-2.52 1.26-.72 2.67-1.29 4.23-1.71 1.56-.42 3.24-.63 5.04-.63 6.72 0 11.82 1.98 15.3 5.94 3.48 3.96 5.22 9.87 5.22 17.73v1.8c0 4.08-.48 7.65-1.44 10.71-.96 3.06-2.34 5.61-4.14 7.65-1.8 2.04-3.96 3.6-6.48 4.68-2.52 1.02-5.34 1.53-8.46 1.53-2.7 0-5.28-.6-7.74-1.8-2.4-1.26-4.41-3.06-6.03-5.4v24.03h-13.86v-65.7zm24.3 37.44c2.76 0 5.04-1.11 6.84-3.33 1.86-2.22 2.79-5.49 2.79-9.81v-1.8c0-4.14-.9-7.2-2.7-9.18-1.74-2.04-4.05-3.06-6.93-3.06-2.94 0-5.43.93-7.47 2.79-1.98 1.8-2.97 4.5-2.97 8.1v4.5c0 3.78.99 6.69 2.97 8.73 2.04 2.04 4.53 3.06 7.47 3.06zm45.922 11.43c-2.58 0-4.89-.39-6.93-1.17-1.98-.78-3.66-1.83-5.04-3.15a14.071 14.071 0 01-3.15-4.77c-.72-1.86-1.08-3.87-1.08-6.03 0-4.74 1.44-8.37 4.32-10.89 2.94-2.52 7.35-3.78 13.23-3.78h13.59v-1.98c0-2.88-.69-4.86-2.07-5.94-1.38-1.14-3.27-1.71-5.67-1.71-2.28 0-3.96.36-5.04 1.08-1.08.72-1.68 1.86-1.8 3.42h-13.86c.12-2.16.66-4.14 1.62-5.94.96-1.86 2.31-3.45 4.05-4.77 1.8-1.38 3.99-2.46 6.57-3.24 2.58-.78 5.55-1.17 8.91-1.17 3.12 0 5.97.36 8.55 1.08 2.64.66 4.89 1.77 6.75 3.33 1.86 1.5 3.3 3.48 4.32 5.94 1.02 2.4 1.53 5.34 1.53 8.82v17.55c0 2.52.06 4.74.18 6.66.12 1.86.3 3.69.54 5.49h-13.14c-.12-1.02-.24-1.92-.36-2.7-.06-.78-.09-1.74-.09-2.88-1.44 1.92-3.45 3.54-6.03 4.86-2.52 1.26-5.82 1.89-9.9 1.89zm4.5-9.72c2.94 0 5.4-.84 7.38-2.52 2.04-1.68 3.06-3.99 3.06-6.93v-1.98h-10.89c-2.04 0-3.57.54-4.59 1.62-.96 1.08-1.44 2.34-1.44 3.78 0 1.74.48 3.18 1.44 4.32 1.02 1.14 2.7 1.71 5.04 1.71zm55.807 9.72c-3.48 0-6.72-.57-9.72-1.71-2.94-1.2-5.49-2.94-7.65-5.22-2.16-2.34-3.87-5.22-5.13-8.64-1.2-3.48-1.8-7.53-1.8-12.15v-1.8c0-5.34.42-10.11 1.26-14.31.9-4.2 2.34-7.77 4.32-10.71 2.04-3 4.68-5.31 7.92-6.93 3.24-1.68 7.26-2.64 12.06-2.88l5.58-.18c1.92-.06 3.72-.15 5.4-.27 1.74-.12 3.33-.3 4.77-.54 1.44-.24 2.67-.6 3.69-1.08v11.88c-.48.3-1.17.57-2.07.81-.84.18-1.98.36-3.42.54-1.44.18-3.18.33-5.22.45-2.04.12-4.5.21-7.38.27-2.64 0-4.92.27-6.84.81-1.86.54-3.45 1.41-4.77 2.61-1.26 1.14-2.25 2.64-2.97 4.5-.72 1.8-1.23 3.99-1.53 6.57 1.32-2.4 3.39-4.41 6.21-6.03s6.6-2.43 11.34-2.43c2.94 0 5.64.45 8.1 1.35 2.52.84 4.68 2.13 6.48 3.87 1.8 1.68 3.18 3.84 4.14 6.48 1.02 2.58 1.53 5.58 1.53 9v1.71c0 3.78-.63 7.17-1.89 10.17-1.26 3-2.97 5.52-5.13 7.56-2.16 2.04-4.74 3.6-7.74 4.68-2.94 1.08-6.12 1.62-9.54 1.62zm0-11.52c3.24 0 5.73-1.02 7.47-3.06 1.74-2.1 2.61-4.83 2.61-8.19v-1.89c0-3.54-.9-6.27-2.7-8.19-1.8-1.98-4.26-2.97-7.38-2.97-3.06 0-5.52.96-7.38 2.88-1.8 1.92-2.7 4.68-2.7 8.28v1.53c0 3.48.96 6.3 2.88 8.46 1.92 2.1 4.32 3.15 7.2 3.15zm54.042 11.52c-3.36 0-6.51-.48-9.45-1.44-2.94-1.02-5.52-2.55-7.74-4.59-2.22-2.04-3.96-4.59-5.22-7.65-1.26-3.12-1.89-6.75-1.89-10.89v-1.8c0-3.9.63-7.32 1.89-10.26 1.26-2.94 3-5.4 5.22-7.38 2.22-1.98 4.8-3.48 7.74-4.5 2.94-1.02 6.09-1.53 9.45-1.53 3.36 0 6.51.51 9.45 1.53 2.94 1.02 5.52 2.52 7.74 4.5 2.22 1.98 3.96 4.44 5.22 7.38 1.26 2.94 1.89 6.36 1.89 10.26v1.8c0 4.08-.63 7.68-1.89 10.8-1.26 3.06-3 5.61-5.22 7.65-2.22 2.04-4.8 3.57-7.74 4.59-2.94 1.02-6.09 1.53-9.45 1.53zm0-11.52c3.24 0 5.73-1.17 7.47-3.51 1.74-2.34 2.61-5.52 2.61-9.54v-1.8c0-3.6-.87-6.51-2.61-8.73-1.74-2.28-4.23-3.42-7.47-3.42-3.24 0-5.73 1.14-7.47 3.42-1.74 2.22-2.61 5.13-2.61 8.73v1.8c0 4.14.87 7.35 2.61 9.63 1.74 2.28 4.23 3.42 7.47 3.42zm42.556-26.01h-14.67v-11.34h43.2v11.34h-14.67v36.36h-13.86v-36.36zm62.777 19.62c-1.38.78-2.97 1.5-4.77 2.16-1.8.66-4.14.99-7.02.99-6.06 0-10.5-1.44-13.32-4.32-2.82-2.88-4.23-7.26-4.23-13.14v-16.65h13.86v15.3c0 2.64.57 4.53 1.71 5.67 1.14 1.08 3.15 1.62 6.03 1.62 2.04 0 3.72-.24 5.04-.72 1.32-.54 2.22-1.05 2.7-1.53v-20.34h13.86v47.7h-13.86v-16.74zm23.778-30.96h13.5v28.8l20.25-28.8h12.15v47.7h-13.5v-28.8l-20.25 28.8h-12.15v-47.7zm54.932 0h13.86v18.09h3.6l13.32-18.09h15.12l-17.55 22.41 18.45 25.29h-16.38l-12.96-18.99h-3.6v18.99h-13.86v-47.7zM27 170.783c-3.36 0-6.51-.48-9.45-1.44-2.94-1.02-5.52-2.55-7.74-4.59-2.22-2.04-3.96-4.59-5.22-7.65-1.26-3.12-1.89-6.75-1.89-10.89v-1.8c0-3.9.63-7.32 1.89-10.26 1.26-2.94 3-5.4 5.22-7.38 2.22-1.98 4.8-3.48 7.74-4.5 2.94-1.02 6.09-1.53 9.45-1.53 3.36 0 6.51.51 9.45 1.53 2.94 1.02 5.52 2.52 7.74 4.5 2.22 1.98 3.96 4.44 5.22 7.38 1.26 2.94 1.89 6.36 1.89 10.26v1.8c0 4.08-.63 7.68-1.89 10.8-1.26 3.06-3 5.61-5.22 7.65-2.22 2.04-4.8 3.57-7.74 4.59-2.94 1.02-6.09 1.53-9.45 1.53zm0-11.52c3.24 0 5.73-1.17 7.47-3.51 1.74-2.34 2.61-5.52 2.61-9.54v-1.8c0-3.6-.87-6.51-2.61-8.73-1.74-2.28-4.23-3.42-7.47-3.42-3.24 0-5.73 1.14-7.47 3.42-1.74 2.22-2.61 5.13-2.61 8.73v1.8c0 4.14.87 7.35 2.61 9.63 1.74 2.28 4.23 3.42 7.47 3.42zm31.465-37.35h13.86v17.73h18.18v-17.73h13.86v47.7h-13.86v-18.63h-18.18v18.63h-13.86v-47.7zm56.281 48.87c-.48 0-1.17-.03-2.07-.09-.84 0-1.5-.06-1.98-.18v-12.06c.3.06.75.09 1.35.09 1.02 0 1.92-.3 2.7-.9.78-.66 1.44-1.71 1.98-3.15.54-1.5.93-3.42 1.17-5.76.3-2.4.45-5.34.45-8.82v-18h39.6v47.7h-13.86v-36.36h-12.78v8.46c0 5.94-.36 10.8-1.08 14.58-.72 3.78-1.77 6.75-3.15 8.91s-3.12 3.63-5.22 4.41c-2.04.78-4.41 1.17-7.11 1.17zm67.026 0c-2.58 0-4.89-.39-6.93-1.17-1.98-.78-3.66-1.83-5.04-3.15a14.071 14.071 0 01-3.15-4.77c-.72-1.86-1.08-3.87-1.08-6.03 0-4.74 1.44-8.37 4.32-10.89 2.94-2.52 7.35-3.78 13.23-3.78h13.59v-1.98c0-2.88-.69-4.86-2.07-5.94-1.38-1.14-3.27-1.71-5.67-1.71-2.28 0-3.96.36-5.04 1.08-1.08.72-1.68 1.86-1.8 3.42h-13.86c.12-2.16.66-4.14 1.62-5.94.96-1.86 2.31-3.45 4.05-4.77 1.8-1.38 3.99-2.46 6.57-3.24 2.58-.78 5.55-1.17 8.91-1.17 3.12 0 5.97.36 8.55 1.08 2.64.66 4.89 1.77 6.75 3.33 1.86 1.5 3.3 3.48 4.32 5.94 1.02 2.4 1.53 5.34 1.53 8.82v17.55c0 2.52.06 4.74.18 6.66.12 1.86.3 3.69.54 5.49h-13.14c-.12-1.02-.24-1.92-.36-2.7-.06-.78-.09-1.74-.09-2.88-1.44 1.92-3.45 3.54-6.03 4.86-2.52 1.26-5.82 1.89-9.9 1.89zm4.5-9.72c2.94 0 5.4-.84 7.38-2.52 2.04-1.68 3.06-3.99 3.06-6.93v-1.98h-10.89c-2.04 0-3.57.54-4.59 1.62-.96 1.08-1.44 2.34-1.44 3.78 0 1.74.48 3.18 1.44 4.32 1.02 1.14 2.7 1.71 5.04 1.71zm32.857-39.15h13.5v28.8l20.25-28.8h12.15v47.7h-13.5v-28.8l-20.25 28.8h-12.15v-47.7zm22.95-4.95c-5.88 0-10.05-1.11-12.51-3.33-2.46-2.28-3.69-5.67-3.69-10.17h12.24c0 2.04.33 3.45.99 4.23.66.78 1.65 1.17 2.97 1.17 1.32 0 2.31-.39 2.97-1.17.66-.78.99-2.19.99-4.23h12.24c0 4.5-1.23 7.89-3.69 10.17-2.46 2.22-6.63 3.33-12.51 3.33zm31.982 4.95h13.86v17.73h18.18v-17.73h13.86v47.7h-13.86v-18.63h-18.18v18.63h-13.86v-47.7zm52.681 15.84h29.7v13.32h-29.7v-13.32zm58.94 33.03c-3.54 0-6.81-.51-9.81-1.53-2.94-1.02-5.49-2.55-7.65-4.59s-3.84-4.59-5.04-7.65c-1.2-3.06-1.8-6.66-1.8-10.8v-1.8c0-3.78.63-7.14 1.89-10.08 1.32-2.94 3.06-5.4 5.22-7.38 2.22-2.04 4.8-3.57 7.74-4.59 2.94-1.08 6.09-1.62 9.45-1.62 3.6 0 6.75.48 9.45 1.44 2.76.96 5.07 2.28 6.93 3.96 1.86 1.62 3.3 3.54 4.32 5.76 1.02 2.22 1.62 4.59 1.8 7.11h-14.22c-.48-2.16-1.38-3.81-2.7-4.95-1.26-1.2-3.12-1.8-5.58-1.8-2.94 0-5.37 1.02-7.29 3.06-1.86 1.98-2.79 5.01-2.79 9.09v1.8c0 4.44.9 7.71 2.7 9.81 1.86 2.1 4.32 3.15 7.38 3.15 2.1 0 3.87-.54 5.31-1.62 1.5-1.14 2.49-2.82 2.97-5.04h14.22c-.18 2.82-.84 5.37-1.98 7.65a17.07 17.07 0 01-4.68 5.67c-1.92 1.56-4.23 2.79-6.93 3.69-2.64.84-5.61 1.26-8.91 1.26zm52.217 0c-3.48 0-6.75-.48-9.81-1.44-3-1.02-5.61-2.55-7.83-4.59-2.22-2.04-3.96-4.59-5.22-7.65-1.26-3.12-1.89-6.75-1.89-10.89v-1.8c0-3.96.6-7.41 1.8-10.35 1.26-2.94 2.94-5.4 5.04-7.38 2.16-1.98 4.68-3.45 7.56-4.41 2.94-1.02 6.09-1.53 9.45-1.53 7.86 0 13.8 2.04 17.82 6.12 4.02 4.02 6.03 9.87 6.03 17.55v4.95h-33.48c.06 1.86.39 3.45.99 4.77.6 1.26 1.38 2.31 2.34 3.15.96.84 2.04 1.47 3.24 1.89 1.26.36 2.58.54 3.96.54 2.64 0 4.71-.39 6.21-1.17 1.56-.84 2.58-1.95 3.06-3.33h12.78c-.96 5.22-3.33 9.12-7.11 11.7-3.78 2.58-8.76 3.87-14.94 3.87zm-.45-39.06c-1.26 0-2.49.15-3.69.45-1.14.3-2.19.81-3.15 1.53-.9.66-1.65 1.53-2.25 2.61-.54 1.08-.84 2.4-.9 3.96h19.8c0-1.68-.27-3.06-.81-4.14-.54-1.08-1.26-1.95-2.16-2.61-.84-.66-1.86-1.11-3.06-1.35-1.2-.3-2.46-.45-3.78-.45zm30.586-9.81h12.78v6.48c.6-.96 1.35-1.89 2.25-2.79.96-.96 2.07-1.8 3.33-2.52 1.26-.72 2.67-1.29 4.23-1.71 1.56-.42 3.24-.63 5.04-.63 6.72 0 11.82 1.98 15.3 5.94 3.48 3.96 5.22 9.87 5.22 17.73v1.8c0 4.08-.48 7.65-1.44 10.71-.96 3.06-2.34 5.61-4.14 7.65-1.8 2.04-3.96 3.6-6.48 4.68-2.52 1.02-5.34 1.53-8.46 1.53-2.7 0-5.28-.6-7.74-1.8-2.4-1.26-4.41-3.06-6.03-5.4v24.03h-13.86v-65.7zm24.3 37.44c2.76 0 5.04-1.11 6.84-3.33 1.86-2.22 2.79-5.49 2.79-9.81v-1.8c0-4.14-.9-7.2-2.7-9.18-1.74-2.04-4.05-3.06-6.93-3.06-2.94 0-5.43.93-7.47 2.79-1.98 1.8-2.97 4.5-2.97 8.1v4.5c0 3.78.99 6.69 2.97 8.73 2.04 2.04 4.53 3.06 7.47 3.06zm31.071-37.44h25.56c3.12 0 5.79.33 8.01.99 2.28.6 4.11 1.47 5.49 2.61 1.44 1.14 2.49 2.49 3.15 4.05.66 1.5.99 3.15.99 4.95 0 2.28-.66 4.41-1.98 6.39-1.32 1.92-3.21 3.21-5.67 3.87 2.94.72 5.25 2.1 6.93 4.14 1.68 2.04 2.52 4.41 2.52 7.11 0 4.14-1.47 7.44-4.41 9.9-2.94 2.46-7.35 3.69-13.23 3.69h-27.36v-47.7zm23.94 37.26c4.8 0 7.2-1.47 7.2-4.41 0-3-2.4-4.5-7.2-4.5h-10.08v8.91h10.08zm-.81-18.63c2.4 0 4.02-.36 4.86-1.08.9-.78 1.35-1.8 1.35-3.06 0-1.32-.45-2.31-1.35-2.97-.9-.72-2.52-1.08-4.86-1.08h-9.27v8.19h9.27zm29.077-18.63h13.5v28.8l20.25-28.8h12.15v47.7h-13.5v-28.8l-20.25 28.8h-12.15v-47.7zm77.432 48.87c-3.54 0-6.81-.51-9.81-1.53-2.94-1.02-5.49-2.55-7.65-4.59s-3.84-4.59-5.04-7.65c-1.2-3.06-1.8-6.66-1.8-10.8v-1.8c0-3.78.63-7.14 1.89-10.08 1.32-2.94 3.06-5.4 5.22-7.38 2.22-2.04 4.8-3.57 7.74-4.59 2.94-1.08 6.09-1.62 9.45-1.62 3.6 0 6.75.48 9.45 1.44 2.76.96 5.07 2.28 6.93 3.96 1.86 1.62 3.3 3.54 4.32 5.76 1.02 2.22 1.62 4.59 1.8 7.11h-14.22c-.48-2.16-1.38-3.81-2.7-4.95-1.26-1.2-3.12-1.8-5.58-1.8-2.94 0-5.37 1.02-7.29 3.06-1.86 1.98-2.79 5.01-2.79 9.09v1.8c0 4.44.9 7.71 2.7 9.81 1.86 2.1 4.32 3.15 7.38 3.15 2.1 0 3.87-.54 5.31-1.62 1.5-1.14 2.49-2.82 2.97-5.04h14.22c-.18 2.82-.84 5.37-1.98 7.65a17.07 17.07 0 01-4.68 5.67c-1.92 1.56-4.23 2.79-6.93 3.69-2.64.84-5.61 1.26-8.91 1.26zm51.768 0c-3.36 0-6.51-.48-9.45-1.44-2.94-1.02-5.52-2.55-7.74-4.59-2.22-2.04-3.96-4.59-5.22-7.65-1.26-3.12-1.89-6.75-1.89-10.89v-1.8c0-3.9.63-7.32 1.89-10.26 1.26-2.94 3-5.4 5.22-7.38 2.22-1.98 4.8-3.48 7.74-4.5 2.94-1.02 6.09-1.53 9.45-1.53 3.36 0 6.51.51 9.45 1.53 2.94 1.02 5.52 2.52 7.74 4.5 2.22 1.98 3.96 4.44 5.22 7.38 1.26 2.94 1.89 6.36 1.89 10.26v1.8c0 4.08-.63 7.68-1.89 10.8-1.26 3.06-3 5.61-5.22 7.65-2.22 2.04-4.8 3.57-7.74 4.59-2.94 1.02-6.09 1.53-9.45 1.53zm0-11.52c3.24 0 5.73-1.17 7.47-3.51 1.74-2.34 2.61-5.52 2.61-9.54v-1.8c0-3.6-.87-6.51-2.61-8.73-1.74-2.28-4.23-3.42-7.47-3.42-3.24 0-5.73 1.14-7.47 3.42-1.74 2.22-2.61 5.13-2.61 8.73v1.8c0 4.14.87 7.35 2.61 9.63 1.74 2.28 4.23 3.42 7.47 3.42zm31.464-37.35h25.56c3.12 0 5.79.33 8.01.99 2.28.6 4.11 1.47 5.49 2.61 1.44 1.14 2.49 2.49 3.15 4.05.66 1.5.99 3.15.99 4.95 0 2.28-.66 4.41-1.98 6.39-1.32 1.92-3.21 3.21-5.67 3.87 2.94.72 5.25 2.1 6.93 4.14 1.68 2.04 2.52 4.41 2.52 7.11 0 4.14-1.47 7.44-4.41 9.9-2.94 2.46-7.35 3.69-13.23 3.69h-27.36v-47.7zm23.94 37.26c4.8 0 7.2-1.47 7.2-4.41 0-3-2.4-4.5-7.2-4.5h-10.08v8.91h10.08zm-.81-18.63c2.4 0 4.02-.36 4.86-1.08.9-.78 1.35-1.8 1.35-3.06 0-1.32-.45-2.31-1.35-2.97-.9-.72-2.52-1.08-4.86-1.08h-9.27v8.19h9.27zM4.5 211.913H18v28.8l20.25-28.8H50.4v47.7H36.9v-28.8l-20.25 28.8H4.5v-47.7zm77.432 0h45v47.7h-13.86v-36.36h-17.28v36.36h-13.86v-47.7zm53.964 0h12.78v6.48c.6-.96 1.35-1.89 2.25-2.79.96-.96 2.07-1.8 3.33-2.52 1.26-.72 2.67-1.29 4.23-1.71 1.56-.42 3.24-.63 5.04-.63 6.72 0 11.82 1.98 15.3 5.94 3.48 3.96 5.22 9.87 5.22 17.73v1.8c0 4.08-.48 7.65-1.44 10.71-.96 3.06-2.34 5.61-4.14 7.65-1.8 2.04-3.96 3.6-6.48 4.68-2.52 1.02-5.34 1.53-8.46 1.53-2.7 0-5.28-.6-7.74-1.8-2.4-1.26-4.41-3.06-6.03-5.4v24.03h-13.86v-65.7zm24.3 37.44c2.76 0 5.04-1.11 6.84-3.33 1.86-2.22 2.79-5.49 2.79-9.81v-1.8c0-4.14-.9-7.2-2.7-9.18-1.74-2.04-4.05-3.06-6.93-3.06-2.94 0-5.43.93-7.47 2.79-1.98 1.8-2.97 4.5-2.97 8.1v4.5c0 3.78.99 6.69 2.97 8.73 2.04 2.04 4.53 3.06 7.47 3.06zm31.072-37.44h13.5v28.8l20.25-28.8h12.15v47.7h-13.5v-28.8l-20.25 28.8h-12.15v-47.7zm56.281 48.87c-.48 0-1.17-.03-2.07-.09-.84 0-1.5-.06-1.98-.18v-12.06c.3.06.75.09 1.35.09 1.02 0 1.92-.3 2.7-.9.78-.66 1.44-1.71 1.98-3.15.54-1.5.93-3.42 1.17-5.76.3-2.4.45-5.34.45-8.82v-18h39.6v47.7h-13.86v-36.36h-12.78v8.46c0 5.94-.36 10.8-1.08 14.58-.72 3.78-1.77 6.75-3.15 8.91s-3.12 3.63-5.22 4.41c-2.04.78-4.41 1.17-7.11 1.17zm74.676 0c-3.36 0-6.51-.48-9.45-1.44-2.94-1.02-5.52-2.55-7.74-4.59-2.22-2.04-3.96-4.59-5.22-7.65-1.26-3.12-1.89-6.75-1.89-10.89v-1.8c0-3.9.63-7.32 1.89-10.26 1.26-2.94 3-5.4 5.22-7.38 2.22-1.98 4.8-3.48 7.74-4.5 2.94-1.02 6.09-1.53 9.45-1.53 3.36 0 6.51.51 9.45 1.53 2.94 1.02 5.52 2.52 7.74 4.5 2.22 1.98 3.96 4.44 5.22 7.38 1.26 2.94 1.89 6.36 1.89 10.26v1.8c0 4.08-.63 7.68-1.89 10.8-1.26 3.06-3 5.61-5.22 7.65-2.22 2.04-4.8 3.57-7.74 4.59-2.94 1.02-6.09 1.53-9.45 1.53zm0-11.52c3.24 0 5.73-1.17 7.47-3.51 1.74-2.34 2.61-5.52 2.61-9.54v-1.8c0-3.6-.87-6.51-2.61-8.73-1.74-2.28-4.23-3.42-7.47-3.42-3.24 0-5.73 1.14-7.47 3.42-1.74 2.22-2.61 5.13-2.61 8.73v1.8c0 4.14.87 7.35 2.61 9.63 1.74 2.28 4.23 3.42 7.47 3.42zm41.857-14.22l-14.76-23.13h14.58l10.8 18.27h2.7v-18.27h13.86v18.27h2.7l11.43-18.27h14.04l-14.85 22.14 15.75 25.56h-15.3l-11.07-19.17h-2.7v19.17h-13.86v-19.17h-2.79l-11.52 19.17h-14.76l15.75-24.57zm82.87 25.74c-3.48 0-6.75-.48-9.81-1.44-3-1.02-5.61-2.55-7.83-4.59-2.22-2.04-3.96-4.59-5.22-7.65-1.26-3.12-1.89-6.75-1.89-10.89v-1.8c0-3.96.6-7.41 1.8-10.35 1.26-2.94 2.94-5.4 5.04-7.38 2.16-1.98 4.68-3.45 7.56-4.41 2.94-1.02 6.09-1.53 9.45-1.53 7.86 0 13.8 2.04 17.82 6.12 4.02 4.02 6.03 9.87 6.03 17.55v4.95h-33.48c.06 1.86.39 3.45.99 4.77.6 1.26 1.38 2.31 2.34 3.15.96.84 2.04 1.47 3.24 1.89 1.26.36 2.58.54 3.96.54 2.64 0 4.71-.39 6.21-1.17 1.56-.84 2.58-1.95 3.06-3.33h12.78c-.96 5.22-3.33 9.12-7.11 11.7-3.78 2.58-8.76 3.87-14.94 3.87zm-.45-39.06c-1.26 0-2.49.15-3.69.45-1.14.3-2.19.81-3.15 1.53-.9.66-1.65 1.53-2.25 2.61-.54 1.08-.84 2.4-.9 3.96h19.8c0-1.68-.27-3.06-.81-4.14-.54-1.08-1.26-1.95-2.16-2.61-.84-.66-1.86-1.11-3.06-1.35-1.2-.3-2.46-.45-3.78-.45zm30.586-9.81h13.86v17.73h18.18v-17.73h13.86v47.7h-13.86v-18.63h-18.18v18.63h-13.86v-47.7zm54.932 0h13.5v28.8l20.25-28.8h12.15v47.7h-13.5v-28.8l-20.25 28.8h-12.15v-47.7zm54.931 0h13.5v28.8l20.25-28.8h12.15v47.7h-13.5v-28.8l-20.25 28.8h-12.15v-47.7zm22.95-4.95c-5.88 0-10.05-1.11-12.51-3.33-2.46-2.28-3.69-5.67-3.69-10.17h12.24c0 2.04.33 3.45.99 4.23.66.78 1.65 1.17 2.97 1.17 1.32 0 2.31-.39 2.97-1.17.66-.78.99-2.19.99-4.23h12.24c0 4.5-1.23 7.89-3.69 10.17-2.46 2.22-6.63 3.33-12.51 3.33z" fill="#110545"/><mask id="a" style="mask-type:alpha" maskUnits="userSpaceOnUse" x="2" y="14" width="780" height="264"><path d="M6.3 16.613h25.65c8.76 0 15.21 1.92 19.35 5.76 4.2 3.78 6.3 9.03 6.3 15.75 0 6.72-2.1 12-6.3 15.84-4.14 3.78-10.59 5.67-19.35 5.67H22.5v19.98H6.3v-63zm23.85 29.7c4.14 0 7.05-.69 8.73-2.07 1.68-1.38 2.52-3.42 2.52-6.12s-.84-4.74-2.52-6.12c-1.68-1.38-4.59-2.07-8.73-2.07H22.5v16.38h7.65zm48.175 34.47c-2.58 0-4.89-.39-6.93-1.17-1.98-.78-3.66-1.83-5.04-3.15a14.071 14.071 0 01-3.15-4.77c-.72-1.86-1.08-3.87-1.08-6.03 0-4.74 1.44-8.37 4.32-10.89 2.94-2.52 7.35-3.78 13.23-3.78h13.59v-1.98c0-2.88-.69-4.86-2.07-5.94-1.38-1.14-3.27-1.71-5.67-1.71-2.28 0-3.96.36-5.04 1.08-1.08.72-1.68 1.86-1.8 3.42h-13.86c.12-2.16.66-4.14 1.62-5.94.96-1.86 2.31-3.45 4.05-4.77 1.8-1.38 3.99-2.46 6.57-3.24 2.58-.78 5.55-1.17 8.91-1.17 3.12 0 5.97.36 8.55 1.08 2.64.66 4.89 1.77 6.75 3.33 1.86 1.5 3.3 3.48 4.32 5.94 1.02 2.4 1.53 5.34 1.53 8.82v17.55c0 2.52.06 4.74.18 6.66.12 1.86.3 3.69.54 5.49h-13.14c-.12-1.02-.24-1.92-.36-2.7-.06-.78-.09-1.74-.09-2.88-1.44 1.92-3.45 3.54-6.03 4.86-2.52 1.26-5.82 1.89-9.9 1.89zm4.5-9.72c2.94 0 5.4-.84 7.38-2.52 2.04-1.68 3.06-3.99 3.06-6.93v-1.98h-10.89c-2.04 0-3.57.54-4.59 1.62-.96 1.08-1.44 2.34-1.44 3.78 0 1.74.48 3.18 1.44 4.32 1.02 1.14 2.7 1.71 5.04 1.71zm53.197 9.72c-7.74 0-13.38-1.5-16.92-4.5-3.54-3-5.43-7.29-5.67-12.87h14.22c.12.9.27 1.71.45 2.43.24.72.63 1.35 1.17 1.89.6.54 1.41.96 2.43 1.26 1.02.24 2.4.36 4.14.36 3 0 5.16-.48 6.48-1.44 1.32-1.02 1.98-2.13 1.98-3.33 0-1.56-.6-2.7-1.8-3.42-1.2-.78-3.15-1.17-5.85-1.17h-6.21v-9.18h5.49c4.62 0 6.93-1.47 6.93-4.41 0-1.2-.57-2.22-1.71-3.06-1.14-.84-2.88-1.26-5.22-1.26-2.58 0-4.41.48-5.49 1.44s-1.71 2.34-1.89 4.14h-14.22c.3-5.64 2.28-9.87 5.94-12.69 3.72-2.82 8.94-4.23 15.66-4.23 6.72 0 11.85 1.26 15.39 3.78 3.54 2.46 5.31 5.88 5.31 10.26 0 2.28-.54 4.32-1.62 6.12-1.08 1.8-2.88 3.12-5.4 3.96 3.48.78 5.82 2.1 7.02 3.96 1.26 1.86 1.89 4.05 1.89 6.57 0 2.22-.51 4.29-1.53 6.21-1.02 1.86-2.49 3.48-4.41 4.86-1.92 1.32-4.29 2.37-7.11 3.15-2.76.78-5.91 1.17-9.45 1.17zm29.669-48.87h12.78v6.48c.6-.96 1.35-1.89 2.25-2.79.96-.96 2.07-1.8 3.33-2.52 1.26-.72 2.67-1.29 4.23-1.71 1.56-.42 3.24-.63 5.04-.63 6.72 0 11.82 1.98 15.3 5.94 3.48 3.96 5.22 9.87 5.22 17.73v1.8c0 4.08-.48 7.65-1.44 10.71-.96 3.06-2.34 5.61-4.14 7.65-1.8 2.04-3.96 3.6-6.48 4.68-2.52 1.02-5.34 1.53-8.46 1.53-2.7 0-5.28-.6-7.74-1.8-2.4-1.26-4.41-3.06-6.03-5.4v24.03h-13.86v-65.7zm24.3 37.44c2.76 0 5.04-1.11 6.84-3.33 1.86-2.22 2.79-5.49 2.79-9.81v-1.8c0-4.14-.9-7.2-2.7-9.18-1.74-2.04-4.05-3.06-6.93-3.06-2.94 0-5.43.93-7.47 2.79-1.98 1.8-2.97 4.5-2.97 8.1v4.5c0 3.78.99 6.69 2.97 8.73 2.04 2.04 4.53 3.06 7.47 3.06zm45.922 11.43c-2.58 0-4.89-.39-6.93-1.17-1.98-.78-3.66-1.83-5.04-3.15a14.071 14.071 0 01-3.15-4.77c-.72-1.86-1.08-3.87-1.08-6.03 0-4.74 1.44-8.37 4.32-10.89 2.94-2.52 7.35-3.78 13.23-3.78h13.59v-1.98c0-2.88-.69-4.86-2.07-5.94-1.38-1.14-3.27-1.71-5.67-1.71-2.28 0-3.96.36-5.04 1.08-1.08.72-1.68 1.86-1.8 3.42h-13.86c.12-2.16.66-4.14 1.62-5.94.96-1.86 2.31-3.45 4.05-4.77 1.8-1.38 3.99-2.46 6.57-3.24 2.58-.78 5.55-1.17 8.91-1.17 3.12 0 5.97.36 8.55 1.08 2.64.66 4.89 1.77 6.75 3.33 1.86 1.5 3.3 3.48 4.32 5.94 1.02 2.4 1.53 5.34 1.53 8.82v17.55c0 2.52.06 4.74.18 6.66.12 1.86.3 3.69.54 5.49h-13.14c-.12-1.02-.24-1.92-.36-2.7-.06-.78-.09-1.74-.09-2.88-1.44 1.92-3.45 3.54-6.03 4.86-2.52 1.26-5.82 1.89-9.9 1.89zm4.5-9.72c2.94 0 5.4-.84 7.38-2.52 2.04-1.68 3.06-3.99 3.06-6.93v-1.98h-10.89c-2.04 0-3.57.54-4.59 1.62-.96 1.08-1.44 2.34-1.44 3.78 0 1.74.48 3.18 1.44 4.32 1.02 1.14 2.7 1.71 5.04 1.71zm55.807 9.72c-3.48 0-6.72-.57-9.72-1.71-2.94-1.2-5.49-2.94-7.65-5.22-2.16-2.34-3.87-5.22-5.13-8.64-1.2-3.48-1.8-7.53-1.8-12.15v-1.8c0-5.34.42-10.11 1.26-14.31.9-4.2 2.34-7.77 4.32-10.71 2.04-3 4.68-5.31 7.92-6.93 3.24-1.68 7.26-2.64 12.06-2.88l5.58-.18c1.92-.06 3.72-.15 5.4-.27 1.74-.12 3.33-.3 4.77-.54 1.44-.24 2.67-.6 3.69-1.08v11.88c-.48.3-1.17.57-2.07.81-.84.18-1.98.36-3.42.54-1.44.18-3.18.33-5.22.45-2.04.12-4.5.21-7.38.27-2.64 0-4.92.27-6.84.81-1.86.54-3.45 1.41-4.77 2.61-1.26 1.14-2.25 2.64-2.97 4.5-.72 1.8-1.23 3.99-1.53 6.57 1.32-2.4 3.39-4.41 6.21-6.03s6.6-2.43 11.34-2.43c2.94 0 5.64.45 8.1 1.35 2.52.84 4.68 2.13 6.48 3.87 1.8 1.68 3.18 3.84 4.14 6.48 1.02 2.58 1.53 5.58 1.53 9v1.71c0 3.78-.63 7.17-1.89 10.17-1.26 3-2.97 5.52-5.13 7.56-2.16 2.04-4.74 3.6-7.74 4.68-2.94 1.08-6.12 1.62-9.54 1.62zm0-11.52c3.24 0 5.73-1.02 7.47-3.06 1.74-2.1 2.61-4.83 2.61-8.19v-1.89c0-3.54-.9-6.27-2.7-8.19-1.8-1.98-4.26-2.97-7.38-2.97-3.06 0-5.52.96-7.38 2.88-1.8 1.92-2.7 4.68-2.7 8.28v1.53c0 3.48.96 6.3 2.88 8.46 1.92 2.1 4.32 3.15 7.2 3.15zm54.042 11.52c-3.36 0-6.51-.48-9.45-1.44-2.94-1.02-5.52-2.55-7.74-4.59-2.22-2.04-3.96-4.59-5.22-7.65-1.26-3.12-1.89-6.75-1.89-10.89v-1.8c0-3.9.63-7.32 1.89-10.26 1.26-2.94 3-5.4 5.22-7.38 2.22-1.98 4.8-3.48 7.74-4.5 2.94-1.02 6.09-1.53 9.45-1.53 3.36 0 6.51.51 9.45 1.53 2.94 1.02 5.52 2.52 7.74 4.5 2.22 1.98 3.96 4.44 5.22 7.38 1.26 2.94 1.89 6.36 1.89 10.26v1.8c0 4.08-.63 7.68-1.89 10.8-1.26 3.06-3 5.61-5.22 7.65-2.22 2.04-4.8 3.57-7.74 4.59-2.94 1.02-6.09 1.53-9.45 1.53zm0-11.52c3.24 0 5.73-1.17 7.47-3.51 1.74-2.34 2.61-5.52 2.61-9.54v-1.8c0-3.6-.87-6.51-2.61-8.73-1.74-2.28-4.23-3.42-7.47-3.42-3.24 0-5.73 1.14-7.47 3.42-1.74 2.22-2.61 5.13-2.61 8.73v1.8c0 4.14.87 7.35 2.61 9.63 1.74 2.28 4.23 3.42 7.47 3.42zm42.556-26.01h-14.67v-11.34h43.2v11.34h-14.67v36.36h-13.86v-36.36zm62.777 19.62c-1.38.78-2.97 1.5-4.77 2.16-1.8.66-4.14.99-7.02.99-6.06 0-10.5-1.44-13.32-4.32-2.82-2.88-4.23-7.26-4.23-13.14v-16.65h13.86v15.3c0 2.64.57 4.53 1.71 5.67 1.14 1.08 3.15 1.62 6.03 1.62 2.04 0 3.72-.24 5.04-.72 1.32-.54 2.22-1.05 2.7-1.53v-20.34h13.86v47.7h-13.86v-16.74zm23.778-30.96h13.5v28.8l20.25-28.8h12.15v47.7h-13.5v-28.8l-20.25 28.8h-12.15v-47.7zm54.932 0h13.86v18.09h3.6l13.32-18.09h15.12l-17.55 22.41 18.45 25.29h-16.38l-12.96-18.99h-3.6v18.99h-13.86v-47.7zM27 170.783c-3.36 0-6.51-.48-9.45-1.44-2.94-1.02-5.52-2.55-7.74-4.59-2.22-2.04-3.96-4.59-5.22-7.65-1.26-3.12-1.89-6.75-1.89-10.89v-1.8c0-3.9.63-7.32 1.89-10.26 1.26-2.94 3-5.4 5.22-7.38 2.22-1.98 4.8-3.48 7.74-4.5 2.94-1.02 6.09-1.53 9.45-1.53 3.36 0 6.51.51 9.45 1.53 2.94 1.02 5.52 2.52 7.74 4.5 2.22 1.98 3.96 4.44 5.22 7.38 1.26 2.94 1.89 6.36 1.89 10.26v1.8c0 4.08-.63 7.68-1.89 10.8-1.26 3.06-3 5.61-5.22 7.65-2.22 2.04-4.8 3.57-7.74 4.59-2.94 1.02-6.09 1.53-9.45 1.53zm0-11.52c3.24 0 5.73-1.17 7.47-3.51 1.74-2.34 2.61-5.52 2.61-9.54v-1.8c0-3.6-.87-6.51-2.61-8.73-1.74-2.28-4.23-3.42-7.47-3.42-3.24 0-5.73 1.14-7.47 3.42-1.74 2.22-2.61 5.13-2.61 8.73v1.8c0 4.14.87 7.35 2.61 9.63 1.74 2.28 4.23 3.42 7.47 3.42zm31.465-37.35h13.86v17.73h18.18v-17.73h13.86v47.7h-13.86v-18.63h-18.18v18.63h-13.86v-47.7zm56.281 48.87c-.48 0-1.17-.03-2.07-.09-.84 0-1.5-.06-1.98-.18v-12.06c.3.06.75.09 1.35.09 1.02 0 1.92-.3 2.7-.9.78-.66 1.44-1.71 1.98-3.15.54-1.5.93-3.42 1.17-5.76.3-2.4.45-5.34.45-8.82v-18h39.6v47.7h-13.86v-36.36h-12.78v8.46c0 5.94-.36 10.8-1.08 14.58-.72 3.78-1.77 6.75-3.15 8.91s-3.12 3.63-5.22 4.41c-2.04.78-4.41 1.17-7.11 1.17zm67.026 0c-2.58 0-4.89-.39-6.93-1.17-1.98-.78-3.66-1.83-5.04-3.15a14.071 14.071 0 01-3.15-4.77c-.72-1.86-1.08-3.87-1.08-6.03 0-4.74 1.44-8.37 4.32-10.89 2.94-2.52 7.35-3.78 13.23-3.78h13.59v-1.98c0-2.88-.69-4.86-2.07-5.94-1.38-1.14-3.27-1.71-5.67-1.71-2.28 0-3.96.36-5.04 1.08-1.08.72-1.68 1.86-1.8 3.42h-13.86c.12-2.16.66-4.14 1.62-5.94.96-1.86 2.31-3.45 4.05-4.77 1.8-1.38 3.99-2.46 6.57-3.24 2.58-.78 5.55-1.17 8.91-1.17 3.12 0 5.97.36 8.55 1.08 2.64.66 4.89 1.77 6.75 3.33 1.86 1.5 3.3 3.48 4.32 5.94 1.02 2.4 1.53 5.34 1.53 8.82v17.55c0 2.52.06 4.74.18 6.66.12 1.86.3 3.69.54 5.49h-13.14c-.12-1.02-.24-1.92-.36-2.7-.06-.78-.09-1.74-.09-2.88-1.44 1.92-3.45 3.54-6.03 4.86-2.52 1.26-5.82 1.89-9.9 1.89zm4.5-9.72c2.94 0 5.4-.84 7.38-2.52 2.04-1.68 3.06-3.99 3.06-6.93v-1.98h-10.89c-2.04 0-3.57.54-4.59 1.62-.96 1.08-1.44 2.34-1.44 3.78 0 1.74.48 3.18 1.44 4.32 1.02 1.14 2.7 1.71 5.04 1.71zm32.857-39.15h13.5v28.8l20.25-28.8h12.15v47.7h-13.5v-28.8l-20.25 28.8h-12.15v-47.7zm22.95-4.95c-5.88 0-10.05-1.11-12.51-3.33-2.46-2.28-3.69-5.67-3.69-10.17h12.24c0 2.04.33 3.45.99 4.23.66.78 1.65 1.17 2.97 1.17 1.32 0 2.31-.39 2.97-1.17.66-.78.99-2.19.99-4.23h12.24c0 4.5-1.23 7.89-3.69 10.17-2.46 2.22-6.63 3.33-12.51 3.33zm31.982 4.95h13.86v17.73h18.18v-17.73h13.86v47.7h-13.86v-18.63h-18.18v18.63h-13.86v-47.7zm52.681 15.84h29.7v13.32h-29.7v-13.32z" fill="#110545"/><path d="M385.682 170.783c-3.54 0-6.81-.51-9.81-1.53-2.94-1.02-5.49-2.55-7.65-4.59s-3.84-4.59-5.04-7.65c-1.2-3.06-1.8-6.66-1.8-10.8v-1.8c0-3.78.63-7.14 1.89-10.08 1.32-2.94 3.06-5.4 5.22-7.38 2.22-2.04 4.8-3.57 7.74-4.59 2.94-1.08 6.09-1.62 9.45-1.62 3.6 0 6.75.48 9.45 1.44 2.76.96 5.07 2.28 6.93 3.96 1.86 1.62 3.3 3.54 4.32 5.76 1.02 2.22 1.62 4.59 1.8 7.11h-14.22c-.48-2.16-1.38-3.81-2.7-4.95-1.26-1.2-3.12-1.8-5.58-1.8-2.94 0-5.37 1.02-7.29 3.06-1.86 1.98-2.79 5.01-2.79 9.09v1.8c0 4.44.9 7.71 2.7 9.81 1.86 2.1 4.32 3.15 7.38 3.15 2.1 0 3.87-.54 5.31-1.62 1.5-1.14 2.49-2.82 2.97-5.04h14.22c-.18 2.82-.84 5.37-1.98 7.65a17.07 17.07 0 01-4.68 5.67c-1.92 1.56-4.23 2.79-6.93 3.69-2.64.84-5.61 1.26-8.91 1.26zm52.217 0c-3.48 0-6.75-.48-9.81-1.44-3-1.02-5.61-2.55-7.83-4.59-2.22-2.04-3.96-4.59-5.22-7.65-1.26-3.12-1.89-6.75-1.89-10.89v-1.8c0-3.96.6-7.41 1.8-10.35 1.26-2.94 2.94-5.4 5.04-7.38 2.16-1.98 4.68-3.45 7.56-4.41 2.94-1.02 6.09-1.53 9.45-1.53 7.86 0 13.8 2.04 17.82 6.12 4.02 4.02 6.03 9.87 6.03 17.55v4.95h-33.48c.06 1.86.39 3.45.99 4.77.6 1.26 1.38 2.31 2.34 3.15.96.84 2.04 1.47 3.24 1.89 1.26.36 2.58.54 3.96.54 2.64 0 4.71-.39 6.21-1.17 1.56-.84 2.58-1.95 3.06-3.33h12.78c-.96 5.22-3.33 9.12-7.11 11.7-3.78 2.58-8.76 3.87-14.94 3.87zm-.45-39.06c-1.26 0-2.49.15-3.69.45-1.14.3-2.19.81-3.15 1.53-.9.66-1.65 1.53-2.25 2.61-.54 1.08-.84 2.4-.9 3.96h19.8c0-1.68-.27-3.06-.81-4.14-.54-1.08-1.26-1.95-2.16-2.61-.84-.66-1.86-1.11-3.06-1.35-1.2-.3-2.46-.45-3.78-.45zm30.586-9.81h12.78v6.48c.6-.96 1.35-1.89 2.25-2.79.96-.96 2.07-1.8 3.33-2.52 1.26-.72 2.67-1.29 4.23-1.71 1.56-.42 3.24-.63 5.04-.63 6.72 0 11.82 1.98 15.3 5.94 3.48 3.96 5.22 9.87 5.22 17.73v1.8c0 4.08-.48 7.65-1.44 10.71-.96 3.06-2.34 5.61-4.14 7.65-1.8 2.04-3.96 3.6-6.48 4.68-2.52 1.02-5.34 1.53-8.46 1.53-2.7 0-5.28-.6-7.74-1.8-2.4-1.26-4.41-3.06-6.03-5.4v24.03h-13.86v-65.7zm24.3 37.44c2.76 0 5.04-1.11 6.84-3.33 1.86-2.22 2.79-5.49 2.79-9.81v-1.8c0-4.14-.9-7.2-2.7-9.18-1.74-2.04-4.05-3.06-6.93-3.06-2.94 0-5.43.93-7.47 2.79-1.98 1.8-2.97 4.5-2.97 8.1v4.5c0 3.78.99 6.69 2.97 8.73 2.04 2.04 4.53 3.06 7.47 3.06zm31.071-37.44h25.56c3.12 0 5.79.33 8.01.99 2.28.6 4.11 1.47 5.49 2.61 1.44 1.14 2.49 2.49 3.15 4.05.66 1.5.99 3.15.99 4.95 0 2.28-.66 4.41-1.98 6.39-1.32 1.92-3.21 3.21-5.67 3.87 2.94.72 5.25 2.1 6.93 4.14 1.68 2.04 2.52 4.41 2.52 7.11 0 4.14-1.47 7.44-4.41 9.9-2.94 2.46-7.35 3.69-13.23 3.69h-27.36v-47.7zm23.94 37.26c4.8 0 7.2-1.47 7.2-4.41 0-3-2.4-4.5-7.2-4.5h-10.08v8.91h10.08zm-.81-18.63c2.4 0 4.02-.36 4.86-1.08.9-.78 1.35-1.8 1.35-3.06 0-1.32-.45-2.31-1.35-2.97-.9-.72-2.52-1.08-4.86-1.08h-9.27v8.19h9.27zm29.077-18.63h13.5v28.8l20.25-28.8h12.15v47.7h-13.5v-28.8l-20.25 28.8h-12.15v-47.7zm77.432 48.87c-3.54 0-6.81-.51-9.81-1.53-2.94-1.02-5.49-2.55-7.65-4.59s-3.84-4.59-5.04-7.65c-1.2-3.06-1.8-6.66-1.8-10.8v-1.8c0-3.78.63-7.14 1.89-10.08 1.32-2.94 3.06-5.4 5.22-7.38 2.22-2.04 4.8-3.57 7.74-4.59 2.94-1.08 6.09-1.62 9.45-1.62 3.6 0 6.75.48 9.45 1.44 2.76.96 5.07 2.28 6.93 3.96 1.86 1.62 3.3 3.54 4.32 5.76 1.02 2.22 1.62 4.59 1.8 7.11h-14.22c-.48-2.16-1.38-3.81-2.7-4.95-1.26-1.2-3.12-1.8-5.58-1.8-2.94 0-5.37 1.02-7.29 3.06-1.86 1.98-2.79 5.01-2.79 9.09v1.8c0 4.44.9 7.71 2.7 9.81 1.86 2.1 4.32 3.15 7.38 3.15 2.1 0 3.87-.54 5.31-1.62 1.5-1.14 2.49-2.82 2.97-5.04h14.22c-.18 2.82-.84 5.37-1.98 7.65a17.07 17.07 0 01-4.68 5.67c-1.92 1.56-4.23 2.79-6.93 3.69-2.64.84-5.61 1.26-8.91 1.26zm51.768 0c-3.36 0-6.51-.48-9.45-1.44-2.94-1.02-5.52-2.55-7.74-4.59-2.22-2.04-3.96-4.59-5.22-7.65-1.26-3.12-1.89-6.75-1.89-10.89v-1.8c0-3.9.63-7.32 1.89-10.26 1.26-2.94 3-5.4 5.22-7.38 2.22-1.98 4.8-3.48 7.74-4.5 2.94-1.02 6.09-1.53 9.45-1.53 3.36 0 6.51.51 9.45 1.53 2.94 1.02 5.52 2.52 7.74 4.5 2.22 1.98 3.96 4.44 5.22 7.38 1.26 2.94 1.89 6.36 1.89 10.26v1.8c0 4.08-.63 7.68-1.89 10.8-1.26 3.06-3 5.61-5.22 7.65-2.22 2.04-4.8 3.57-7.74 4.59-2.94 1.02-6.09 1.53-9.45 1.53zm0-11.52c3.24 0 5.73-1.17 7.47-3.51 1.74-2.34 2.61-5.52 2.61-9.54v-1.8c0-3.6-.87-6.51-2.61-8.73-1.74-2.28-4.23-3.42-7.47-3.42-3.24 0-5.73 1.14-7.47 3.42-1.74 2.22-2.61 5.13-2.61 8.73v1.8c0 4.14.87 7.35 2.61 9.63 1.74 2.28 4.23 3.42 7.47 3.42zm31.464-37.35h25.56c3.12 0 5.79.33 8.01.99 2.28.6 4.11 1.47 5.49 2.61 1.44 1.14 2.49 2.49 3.15 4.05.66 1.5.99 3.15.99 4.95 0 2.28-.66 4.41-1.98 6.39-1.32 1.92-3.21 3.21-5.67 3.87 2.94.72 5.25 2.1 6.93 4.14 1.68 2.04 2.52 4.41 2.52 7.11 0 4.14-1.47 7.44-4.41 9.9-2.94 2.46-7.35 3.69-13.23 3.69h-27.36v-47.7zm23.94 37.26c4.8 0 7.2-1.47 7.2-4.41 0-3-2.4-4.5-7.2-4.5h-10.08v8.91h10.08zm-.81-18.63c2.4 0 4.02-.36 4.86-1.08.9-.78 1.35-1.8 1.35-3.06 0-1.32-.45-2.31-1.35-2.97-.9-.72-2.52-1.08-4.86-1.08h-9.27v8.19h9.27zM4.5 211.913H18v28.8l20.25-28.8H50.4v47.7H36.9v-28.8l-20.25 28.8H4.5v-47.7zm77.432 0h45v47.7h-13.86v-36.36h-17.28v36.36h-13.86v-47.7zm53.964 0h12.78v6.48c.6-.96 1.35-1.89 2.25-2.79.96-.96 2.07-1.8 3.33-2.52 1.26-.72 2.67-1.29 4.23-1.71 1.56-.42 3.24-.63 5.04-.63 6.72 0 11.82 1.98 15.3 5.94 3.48 3.96 5.22 9.87 5.22 17.73v1.8c0 4.08-.48 7.65-1.44 10.71-.96 3.06-2.34 5.61-4.14 7.65-1.8 2.04-3.96 3.6-6.48 4.68-2.52 1.02-5.34 1.53-8.46 1.53-2.7 0-5.28-.6-7.74-1.8-2.4-1.26-4.41-3.06-6.03-5.4v24.03h-13.86v-65.7zm24.3 37.44c2.76 0 5.04-1.11 6.84-3.33 1.86-2.22 2.79-5.49 2.79-9.81v-1.8c0-4.14-.9-7.2-2.7-9.18-1.74-2.04-4.05-3.06-6.93-3.06-2.94 0-5.43.93-7.47 2.79-1.98 1.8-2.97 4.5-2.97 8.1v4.5c0 3.78.99 6.69 2.97 8.73 2.04 2.04 4.53 3.06 7.47 3.06zm31.072-37.44h13.5v28.8l20.25-28.8h12.15v47.7h-13.5v-28.8l-20.25 28.8h-12.15v-47.7zm56.281 48.87c-.48 0-1.17-.03-2.07-.09-.84 0-1.5-.06-1.98-.18v-12.06c.3.06.75.09 1.35.09 1.02 0 1.92-.3 2.7-.9.78-.66 1.44-1.71 1.98-3.15.54-1.5.93-3.42 1.17-5.76.3-2.4.45-5.34.45-8.82v-18h39.6v47.7h-13.86v-36.36h-12.78v8.46c0 5.94-.36 10.8-1.08 14.58-.72 3.78-1.77 6.75-3.15 8.91s-3.12 3.63-5.22 4.41c-2.04.78-4.41 1.17-7.11 1.17zm74.676 0c-3.36 0-6.51-.48-9.45-1.44-2.94-1.02-5.52-2.55-7.74-4.59-2.22-2.04-3.96-4.59-5.22-7.65-1.26-3.12-1.89-6.75-1.89-10.89v-1.8c0-3.9.63-7.32 1.89-10.26 1.26-2.94 3-5.4 5.22-7.38 2.22-1.98 4.8-3.48 7.74-4.5 2.94-1.02 6.09-1.53 9.45-1.53 3.36 0 6.51.51 9.45 1.53 2.94 1.02 5.52 2.52 7.74 4.5 2.22 1.98 3.96 4.44 5.22 7.38 1.26 2.94 1.89 6.36 1.89 10.26v1.8c0 4.08-.63 7.68-1.89 10.8-1.26 3.06-3 5.61-5.22 7.65-2.22 2.04-4.8 3.57-7.74 4.59-2.94 1.02-6.09 1.53-9.45 1.53zm0-11.52c3.24 0 5.73-1.17 7.47-3.51 1.74-2.34 2.61-5.52 2.61-9.54v-1.8c0-3.6-.87-6.51-2.61-8.73-1.74-2.28-4.23-3.42-7.47-3.42-3.24 0-5.73 1.14-7.47 3.42-1.74 2.22-2.61 5.13-2.61 8.73v1.8c0 4.14.87 7.35 2.61 9.63 1.74 2.28 4.23 3.42 7.47 3.42zm41.857-14.22l-14.76-23.13h14.58l10.8 18.27h2.7v-18.27h13.86v18.27h2.7l11.43-18.27h14.04l-14.85 22.14 15.75 25.56h-15.3l-11.07-19.17h-2.7v19.17h-13.86v-19.17h-2.79l-11.52 19.17h-14.76l15.75-24.57zm82.87 25.74c-3.48 0-6.75-.48-9.81-1.44-3-1.02-5.61-2.55-7.83-4.59-2.22-2.04-3.96-4.59-5.22-7.65-1.26-3.12-1.89-6.75-1.89-10.89v-1.8c0-3.96.6-7.41 1.8-10.35 1.26-2.94 2.94-5.4 5.04-7.38 2.16-1.98 4.68-3.45 7.56-4.41 2.94-1.02 6.09-1.53 9.45-1.53 7.86 0 13.8 2.04 17.82 6.12 4.02 4.02 6.03 9.87 6.03 17.55v4.95h-33.48c.06 1.86.39 3.45.99 4.77.6 1.26 1.38 2.31 2.34 3.15.96.84 2.04 1.47 3.24 1.89 1.26.36 2.58.54 3.96.54 2.64 0 4.71-.39 6.21-1.17 1.56-.84 2.58-1.95 3.06-3.33h12.78c-.96 5.22-3.33 9.12-7.11 11.7-3.78 2.58-8.76 3.87-14.94 3.87zm-.45-39.06c-1.26 0-2.49.15-3.69.45-1.14.3-2.19.81-3.15 1.53-.9.66-1.65 1.53-2.25 2.61-.54 1.08-.84 2.4-.9 3.96h19.8c0-1.68-.27-3.06-.81-4.14-.54-1.08-1.26-1.95-2.16-2.61-.84-.66-1.86-1.11-3.06-1.35-1.2-.3-2.46-.45-3.78-.45zm30.586-9.81h13.86v17.73h18.18v-17.73h13.86v47.7h-13.86v-18.63h-18.18v18.63h-13.86v-47.7zm54.932 0h13.5v28.8l20.25-28.8h12.15v47.7h-13.5v-28.8l-20.25 28.8h-12.15v-47.7zm54.931 0h13.5v28.8l20.25-28.8h12.15v47.7h-13.5v-28.8l-20.25 28.8h-12.15v-47.7zm22.95-4.95c-5.88 0-10.05-1.11-12.51-3.33-2.46-2.28-3.69-5.67-3.69-10.17h12.24c0 2.04.33 3.45.99 4.23.66.78 1.65 1.17 2.97 1.17 1.32 0 2.31-.39 2.97-1.17.66-.78.99-2.19.99-4.23h12.24c0 4.5-1.23 7.89-3.69 10.17-2.46 2.22-6.63 3.33-12.51 3.33z" fill="#3852CE"/></mask><g mask="url(#a)"><path d="M13.828 76.749C68.566 125.565 126.61 44.796 143.96 47.163c21.689 2.959-86.755 97.633-52.673 89.497 34.083-8.136 75.395-93.935 102.248-89.497 26.852 4.438-55.504 79.882-25.17 78.402 30.334-1.479 91.269-107.987 105.728-109.467 14.459-1.48-95.018 131.656-65.066 120.562 29.951-11.095 56.804-81.36 71.263-76.183 14.459 5.177-33.05 53.994-22.722 65.088 10.328 11.095 69.198-78.402 82.625-78.402 13.426 0-48.428 91.716-16.468 78.402 31.96-13.313 84.632-105.029 113.551-70.266 28.918 34.763 39.246 74.704 69.198 45.858 29.951-28.846 34.082-62.13 58.869-40.68 31.757 27.48 71.696 2.106 83.657-21.45" stroke="#3852CE" stroke-width="20" stroke-linecap="round"/></g></svg>